%TF.GenerationSoftware,KiCad,Pcbnew,5.1.6-c6e7f7d~87~ubuntu19.10.1*%
%TF.CreationDate,2020-10-16T11:06:17+02:00*%
%TF.ProjectId,ariadne,61726961-646e-4652-9e6b-696361645f70,rev?*%
%TF.SameCoordinates,Original*%
%TF.FileFunction,Legend,Bot*%
%TF.FilePolarity,Positive*%
%FSLAX46Y46*%
G04 Gerber Fmt 4.6, Leading zero omitted, Abs format (unit mm)*
G04 Created by KiCad (PCBNEW 5.1.6-c6e7f7d~87~ubuntu19.10.1) date 2020-10-16 11:06:17*
%MOMM*%
%LPD*%
G01*
G04 APERTURE LIST*
%ADD10C,0.120000*%
%ADD11C,0.150000*%
%ADD12C,0.254000*%
G04 APERTURE END LIST*
D10*
%TO.C,U23*%
X217799999Y-207000000D02*
G75*
G03*
X217799999Y-207000000I-32799999J0D01*
G01*
%TO.C,U22*%
X109000000Y-88500000D02*
X109000000Y-45500000D01*
X87500000Y-67000000D02*
X130500000Y-67000000D01*
X149000000Y-67000000D02*
G75*
G03*
X149000000Y-67000000I-40000000J0D01*
G01*
%TO.C,U19*%
X200799999Y-82000000D02*
G75*
G03*
X200799999Y-82000000I-32799999J0D01*
G01*
%TO.C,U27*%
X253799999Y-82000000D02*
G75*
G03*
X253799999Y-82000000I-32799999J0D01*
G01*
%TO.C,U11*%
X86550000Y-112700000D02*
X139550000Y-112700000D01*
X86550000Y-187700000D02*
X139550000Y-187700000D01*
X125496000Y-150200000D02*
X123972000Y-150200000D01*
X139550000Y-187700000D02*
X139550000Y-112700000D01*
X86550000Y-187700000D02*
X86550000Y-112700000D01*
%TO.C,U14*%
X169075000Y-160800000D02*
X169075000Y-129000000D01*
X148775000Y-129000000D02*
X148775000Y-160800000D01*
X148775000Y-160800000D02*
X169075000Y-160800000D01*
X148775000Y-129000000D02*
X169075000Y-129000000D01*
%TO.C,U23*%
D11*
X178360065Y-215390865D02*
X177787645Y-215963285D01*
X177686630Y-215996956D01*
X177619287Y-215996956D01*
X177518271Y-215963285D01*
X177383584Y-215828598D01*
X177349913Y-215727582D01*
X177349913Y-215660239D01*
X177383584Y-215559224D01*
X177956004Y-214986804D01*
X177585615Y-214751102D02*
X177585615Y-214683758D01*
X177551943Y-214582743D01*
X177383584Y-214414384D01*
X177282569Y-214380712D01*
X177215226Y-214380712D01*
X177114210Y-214414384D01*
X177046867Y-214481728D01*
X176979523Y-214616415D01*
X176979523Y-215424537D01*
X176541791Y-214986804D01*
X177013195Y-214043995D02*
X176575462Y-213606262D01*
X176541791Y-214111338D01*
X176440775Y-214010323D01*
X176339760Y-213976651D01*
X176272417Y-213976651D01*
X176171401Y-214010323D01*
X176003043Y-214178682D01*
X175969371Y-214279697D01*
X175969371Y-214347041D01*
X176003043Y-214448056D01*
X176205073Y-214650086D01*
X176306088Y-214683758D01*
X176373432Y-214683758D01*
%TO.C,U22*%
X110238095Y-55276380D02*
X110238095Y-56085904D01*
X110190476Y-56181142D01*
X110142857Y-56228761D01*
X110047619Y-56276380D01*
X109857142Y-56276380D01*
X109761904Y-56228761D01*
X109714285Y-56181142D01*
X109666666Y-56085904D01*
X109666666Y-55276380D01*
X109238095Y-55371619D02*
X109190476Y-55324000D01*
X109095238Y-55276380D01*
X108857142Y-55276380D01*
X108761904Y-55324000D01*
X108714285Y-55371619D01*
X108666666Y-55466857D01*
X108666666Y-55562095D01*
X108714285Y-55704952D01*
X109285714Y-56276380D01*
X108666666Y-56276380D01*
X108285714Y-55371619D02*
X108238095Y-55324000D01*
X108142857Y-55276380D01*
X107904761Y-55276380D01*
X107809523Y-55324000D01*
X107761904Y-55371619D01*
X107714285Y-55466857D01*
X107714285Y-55562095D01*
X107761904Y-55704952D01*
X108333333Y-56276380D01*
X107714285Y-56276380D01*
%TO.C,U19*%
X177165315Y-74585615D02*
X176592895Y-75158035D01*
X176491880Y-75191706D01*
X176424537Y-75191706D01*
X176323521Y-75158035D01*
X176188834Y-75023348D01*
X176155163Y-74922332D01*
X176155163Y-74854989D01*
X176188834Y-74753974D01*
X176761254Y-74181554D01*
X175347041Y-74181554D02*
X175751102Y-74585615D01*
X175549071Y-74383584D02*
X176256178Y-73676478D01*
X176222506Y-73844836D01*
X176222506Y-73979523D01*
X176256178Y-74080539D01*
X175010323Y-73844836D02*
X174875636Y-73710149D01*
X174841964Y-73609134D01*
X174841964Y-73541791D01*
X174875636Y-73373432D01*
X174976651Y-73205073D01*
X175246025Y-72935699D01*
X175347041Y-72902027D01*
X175414384Y-72902027D01*
X175515399Y-72935699D01*
X175650086Y-73070386D01*
X175683758Y-73171401D01*
X175683758Y-73238745D01*
X175650086Y-73339760D01*
X175481728Y-73508119D01*
X175380712Y-73541791D01*
X175313369Y-73541791D01*
X175212354Y-73508119D01*
X175077667Y-73373432D01*
X175043995Y-73272417D01*
X175043995Y-73205073D01*
X175077667Y-73104058D01*
%TO.C,U27*%
X230165315Y-74585615D02*
X229592895Y-75158035D01*
X229491880Y-75191706D01*
X229424537Y-75191706D01*
X229323521Y-75158035D01*
X229188834Y-75023348D01*
X229155163Y-74922332D01*
X229155163Y-74854989D01*
X229188834Y-74753974D01*
X229761254Y-74181554D01*
X229390865Y-73945852D02*
X229390865Y-73878508D01*
X229357193Y-73777493D01*
X229188834Y-73609134D01*
X229087819Y-73575462D01*
X229020476Y-73575462D01*
X228919460Y-73609134D01*
X228852117Y-73676478D01*
X228784773Y-73811165D01*
X228784773Y-74619287D01*
X228347041Y-74181554D01*
X228818445Y-73238745D02*
X228347041Y-72767340D01*
X227942980Y-73777493D01*
%TO.C,U14*%
X160263095Y-145927380D02*
X160263095Y-146736904D01*
X160215476Y-146832142D01*
X160167857Y-146879761D01*
X160072619Y-146927380D01*
X159882142Y-146927380D01*
X159786904Y-146879761D01*
X159739285Y-146832142D01*
X159691666Y-146736904D01*
X159691666Y-145927380D01*
X158691666Y-146927380D02*
X159263095Y-146927380D01*
X158977380Y-146927380D02*
X158977380Y-145927380D01*
X159072619Y-146070238D01*
X159167857Y-146165476D01*
X159263095Y-146213095D01*
X157834523Y-146260714D02*
X157834523Y-146927380D01*
X158072619Y-145879761D02*
X158310714Y-146594047D01*
X157691666Y-146594047D01*
%TD*%
D12*
G36*
X178373000Y-92373000D02*
G01*
X157627000Y-92373000D01*
X157627000Y-71627000D01*
X178373000Y-71627000D01*
X178373000Y-92373000D01*
G37*
X178373000Y-92373000D02*
X157627000Y-92373000D01*
X157627000Y-71627000D01*
X178373000Y-71627000D01*
X178373000Y-92373000D01*
M02*
