%TF.GenerationSoftware,KiCad,Pcbnew,5.1.6-c6e7f7d~87~ubuntu19.10.1*%
%TF.CreationDate,2020-10-16T11:06:17+02:00*%
%TF.ProjectId,ariadne,61726961-646e-4652-9e6b-696361645f70,rev?*%
%TF.SameCoordinates,Original*%
%TF.FileFunction,Legend,Top*%
%TF.FilePolarity,Positive*%
%FSLAX46Y46*%
G04 Gerber Fmt 4.6, Leading zero omitted, Abs format (unit mm)*
G04 Created by KiCad (PCBNEW 5.1.6-c6e7f7d~87~ubuntu19.10.1) date 2020-10-16 11:06:17*
%MOMM*%
%LPD*%
G01*
G04 APERTURE LIST*
%ADD10C,0.125000*%
%ADD11C,0.150000*%
%ADD12C,0.120000*%
G04 APERTURE END LIST*
D10*
X235583333Y-151026190D02*
X235583333Y-150526190D01*
X235773809Y-150526190D01*
X235821428Y-150550000D01*
X235845238Y-150573809D01*
X235869047Y-150621428D01*
X235869047Y-150692857D01*
X235845238Y-150740476D01*
X235821428Y-150764285D01*
X235773809Y-150788095D01*
X235583333Y-150788095D01*
X236154761Y-151026190D02*
X236107142Y-151002380D01*
X236083333Y-150978571D01*
X236059523Y-150930952D01*
X236059523Y-150788095D01*
X236083333Y-150740476D01*
X236107142Y-150716666D01*
X236154761Y-150692857D01*
X236226190Y-150692857D01*
X236273809Y-150716666D01*
X236297619Y-150740476D01*
X236321428Y-150788095D01*
X236321428Y-150930952D01*
X236297619Y-150978571D01*
X236273809Y-151002380D01*
X236226190Y-151026190D01*
X236154761Y-151026190D01*
X236488095Y-150692857D02*
X236583333Y-151026190D01*
X236678571Y-150788095D01*
X236773809Y-151026190D01*
X236869047Y-150692857D01*
X237250000Y-151002380D02*
X237202380Y-151026190D01*
X237107142Y-151026190D01*
X237059523Y-151002380D01*
X237035714Y-150954761D01*
X237035714Y-150764285D01*
X237059523Y-150716666D01*
X237107142Y-150692857D01*
X237202380Y-150692857D01*
X237250000Y-150716666D01*
X237273809Y-150764285D01*
X237273809Y-150811904D01*
X237035714Y-150859523D01*
X237488095Y-151026190D02*
X237488095Y-150692857D01*
X237488095Y-150788095D02*
X237511904Y-150740476D01*
X237535714Y-150716666D01*
X237583333Y-150692857D01*
X237630952Y-150692857D01*
X238464285Y-150978571D02*
X238440476Y-151002380D01*
X238369047Y-151026190D01*
X238321428Y-151026190D01*
X238250000Y-151002380D01*
X238202380Y-150954761D01*
X238178571Y-150907142D01*
X238154761Y-150811904D01*
X238154761Y-150740476D01*
X238178571Y-150645238D01*
X238202380Y-150597619D01*
X238250000Y-150550000D01*
X238321428Y-150526190D01*
X238369047Y-150526190D01*
X238440476Y-150550000D01*
X238464285Y-150573809D01*
X238678571Y-151026190D02*
X238678571Y-150526190D01*
X238892857Y-151026190D02*
X238892857Y-150764285D01*
X238869047Y-150716666D01*
X238821428Y-150692857D01*
X238750000Y-150692857D01*
X238702380Y-150716666D01*
X238678571Y-150740476D01*
X239321428Y-151002380D02*
X239273809Y-151026190D01*
X239178571Y-151026190D01*
X239130952Y-151002380D01*
X239107142Y-150954761D01*
X239107142Y-150764285D01*
X239130952Y-150716666D01*
X239178571Y-150692857D01*
X239273809Y-150692857D01*
X239321428Y-150716666D01*
X239345238Y-150764285D01*
X239345238Y-150811904D01*
X239107142Y-150859523D01*
X239773809Y-151002380D02*
X239726190Y-151026190D01*
X239630952Y-151026190D01*
X239583333Y-151002380D01*
X239559523Y-150978571D01*
X239535714Y-150930952D01*
X239535714Y-150788095D01*
X239559523Y-150740476D01*
X239583333Y-150716666D01*
X239630952Y-150692857D01*
X239726190Y-150692857D01*
X239773809Y-150716666D01*
X239988095Y-151026190D02*
X239988095Y-150526190D01*
X240035714Y-150835714D02*
X240178571Y-151026190D01*
X240178571Y-150692857D02*
X239988095Y-150883333D01*
X240702380Y-150526190D02*
X240869047Y-151026190D01*
X241035714Y-150526190D01*
X241202380Y-151026190D02*
X241202380Y-150692857D01*
X241202380Y-150526190D02*
X241178571Y-150550000D01*
X241202380Y-150573809D01*
X241226190Y-150550000D01*
X241202380Y-150526190D01*
X241202380Y-150573809D01*
X241654761Y-151026190D02*
X241654761Y-150764285D01*
X241630952Y-150716666D01*
X241583333Y-150692857D01*
X241488095Y-150692857D01*
X241440476Y-150716666D01*
X241654761Y-151002380D02*
X241607142Y-151026190D01*
X241488095Y-151026190D01*
X241440476Y-151002380D01*
X241416666Y-150954761D01*
X241416666Y-150907142D01*
X241440476Y-150859523D01*
X241488095Y-150835714D01*
X241607142Y-150835714D01*
X241654761Y-150811904D01*
X242535714Y-151026190D02*
X242250000Y-151026190D01*
X242392857Y-151026190D02*
X242392857Y-150526190D01*
X242345238Y-150597619D01*
X242297619Y-150645238D01*
X242250000Y-150669047D01*
X242726190Y-150573809D02*
X242750000Y-150550000D01*
X242797619Y-150526190D01*
X242916666Y-150526190D01*
X242964285Y-150550000D01*
X242988095Y-150573809D01*
X243011904Y-150621428D01*
X243011904Y-150669047D01*
X242988095Y-150740476D01*
X242702380Y-151026190D01*
X243011904Y-151026190D01*
X243154761Y-150526190D02*
X243321428Y-151026190D01*
X243488095Y-150526190D01*
X68357142Y-195026190D02*
X68357142Y-194526190D01*
X68547619Y-194526190D01*
X68595238Y-194550000D01*
X68619047Y-194573809D01*
X68642857Y-194621428D01*
X68642857Y-194692857D01*
X68619047Y-194740476D01*
X68595238Y-194764285D01*
X68547619Y-194788095D01*
X68357142Y-194788095D01*
X68928571Y-195026190D02*
X68880952Y-195002380D01*
X68857142Y-194978571D01*
X68833333Y-194930952D01*
X68833333Y-194788095D01*
X68857142Y-194740476D01*
X68880952Y-194716666D01*
X68928571Y-194692857D01*
X69000000Y-194692857D01*
X69047619Y-194716666D01*
X69071428Y-194740476D01*
X69095238Y-194788095D01*
X69095238Y-194930952D01*
X69071428Y-194978571D01*
X69047619Y-195002380D01*
X69000000Y-195026190D01*
X68928571Y-195026190D01*
X69261904Y-194692857D02*
X69357142Y-195026190D01*
X69452380Y-194788095D01*
X69547619Y-195026190D01*
X69642857Y-194692857D01*
X70023809Y-195002380D02*
X69976190Y-195026190D01*
X69880952Y-195026190D01*
X69833333Y-195002380D01*
X69809523Y-194954761D01*
X69809523Y-194764285D01*
X69833333Y-194716666D01*
X69880952Y-194692857D01*
X69976190Y-194692857D01*
X70023809Y-194716666D01*
X70047619Y-194764285D01*
X70047619Y-194811904D01*
X69809523Y-194859523D01*
X70261904Y-195026190D02*
X70261904Y-194692857D01*
X70261904Y-194788095D02*
X70285714Y-194740476D01*
X70309523Y-194716666D01*
X70357142Y-194692857D01*
X70404761Y-194692857D01*
X71238095Y-194978571D02*
X71214285Y-195002380D01*
X71142857Y-195026190D01*
X71095238Y-195026190D01*
X71023809Y-195002380D01*
X70976190Y-194954761D01*
X70952380Y-194907142D01*
X70928571Y-194811904D01*
X70928571Y-194740476D01*
X70952380Y-194645238D01*
X70976190Y-194597619D01*
X71023809Y-194550000D01*
X71095238Y-194526190D01*
X71142857Y-194526190D01*
X71214285Y-194550000D01*
X71238095Y-194573809D01*
X71452380Y-195026190D02*
X71452380Y-194526190D01*
X71666666Y-195026190D02*
X71666666Y-194764285D01*
X71642857Y-194716666D01*
X71595238Y-194692857D01*
X71523809Y-194692857D01*
X71476190Y-194716666D01*
X71452380Y-194740476D01*
X72095238Y-195002380D02*
X72047619Y-195026190D01*
X71952380Y-195026190D01*
X71904761Y-195002380D01*
X71880952Y-194954761D01*
X71880952Y-194764285D01*
X71904761Y-194716666D01*
X71952380Y-194692857D01*
X72047619Y-194692857D01*
X72095238Y-194716666D01*
X72119047Y-194764285D01*
X72119047Y-194811904D01*
X71880952Y-194859523D01*
X72547619Y-195002380D02*
X72500000Y-195026190D01*
X72404761Y-195026190D01*
X72357142Y-195002380D01*
X72333333Y-194978571D01*
X72309523Y-194930952D01*
X72309523Y-194788095D01*
X72333333Y-194740476D01*
X72357142Y-194716666D01*
X72404761Y-194692857D01*
X72500000Y-194692857D01*
X72547619Y-194716666D01*
X72761904Y-195026190D02*
X72761904Y-194526190D01*
X72809523Y-194835714D02*
X72952380Y-195026190D01*
X72952380Y-194692857D02*
X72761904Y-194883333D01*
X73476190Y-194526190D02*
X73642857Y-195026190D01*
X73809523Y-194526190D01*
X73976190Y-195026190D02*
X73976190Y-194692857D01*
X73976190Y-194526190D02*
X73952380Y-194550000D01*
X73976190Y-194573809D01*
X74000000Y-194550000D01*
X73976190Y-194526190D01*
X73976190Y-194573809D01*
X74428571Y-195026190D02*
X74428571Y-194764285D01*
X74404761Y-194716666D01*
X74357142Y-194692857D01*
X74261904Y-194692857D01*
X74214285Y-194716666D01*
X74428571Y-195002380D02*
X74380952Y-195026190D01*
X74261904Y-195026190D01*
X74214285Y-195002380D01*
X74190476Y-194954761D01*
X74190476Y-194907142D01*
X74214285Y-194859523D01*
X74261904Y-194835714D01*
X74380952Y-194835714D01*
X74428571Y-194811904D01*
X75285714Y-195026190D02*
X75047619Y-195026190D01*
X75047619Y-194526190D01*
X75452380Y-195026190D02*
X75452380Y-194526190D01*
X75571428Y-194526190D01*
X75642857Y-194550000D01*
X75690476Y-194597619D01*
X75714285Y-194645238D01*
X75738095Y-194740476D01*
X75738095Y-194811904D01*
X75714285Y-194907142D01*
X75690476Y-194954761D01*
X75642857Y-195002380D01*
X75571428Y-195026190D01*
X75452380Y-195026190D01*
X75952380Y-195026190D02*
X75952380Y-194526190D01*
X76071428Y-194526190D01*
X76142857Y-194550000D01*
X76190476Y-194597619D01*
X76214285Y-194645238D01*
X76238095Y-194740476D01*
X76238095Y-194811904D01*
X76214285Y-194907142D01*
X76190476Y-194954761D01*
X76142857Y-195002380D01*
X76071428Y-195026190D01*
X75952380Y-195026190D01*
X76928571Y-194526190D02*
X77023809Y-194526190D01*
X77071428Y-194550000D01*
X77119047Y-194597619D01*
X77142857Y-194692857D01*
X77142857Y-194859523D01*
X77119047Y-194954761D01*
X77071428Y-195002380D01*
X77023809Y-195026190D01*
X76928571Y-195026190D01*
X76880952Y-195002380D01*
X76833333Y-194954761D01*
X76809523Y-194859523D01*
X76809523Y-194692857D01*
X76833333Y-194597619D01*
X76880952Y-194550000D01*
X76928571Y-194526190D01*
X77357142Y-194526190D02*
X77357142Y-194930952D01*
X77380952Y-194978571D01*
X77404761Y-195002380D01*
X77452380Y-195026190D01*
X77547619Y-195026190D01*
X77595238Y-195002380D01*
X77619047Y-194978571D01*
X77642857Y-194930952D01*
X77642857Y-194526190D01*
X77809523Y-194526190D02*
X78095238Y-194526190D01*
X77952380Y-195026190D02*
X77952380Y-194526190D01*
X78261904Y-194835714D02*
X78642857Y-194835714D01*
X78452380Y-195026190D02*
X78452380Y-194645238D01*
X175833333Y-140026190D02*
X175833333Y-139526190D01*
X176023809Y-139526190D01*
X176071428Y-139550000D01*
X176095238Y-139573809D01*
X176119047Y-139621428D01*
X176119047Y-139692857D01*
X176095238Y-139740476D01*
X176071428Y-139764285D01*
X176023809Y-139788095D01*
X175833333Y-139788095D01*
X176404761Y-140026190D02*
X176357142Y-140002380D01*
X176333333Y-139978571D01*
X176309523Y-139930952D01*
X176309523Y-139788095D01*
X176333333Y-139740476D01*
X176357142Y-139716666D01*
X176404761Y-139692857D01*
X176476190Y-139692857D01*
X176523809Y-139716666D01*
X176547619Y-139740476D01*
X176571428Y-139788095D01*
X176571428Y-139930952D01*
X176547619Y-139978571D01*
X176523809Y-140002380D01*
X176476190Y-140026190D01*
X176404761Y-140026190D01*
X176738095Y-139692857D02*
X176833333Y-140026190D01*
X176928571Y-139788095D01*
X177023809Y-140026190D01*
X177119047Y-139692857D01*
X177500000Y-140002380D02*
X177452380Y-140026190D01*
X177357142Y-140026190D01*
X177309523Y-140002380D01*
X177285714Y-139954761D01*
X177285714Y-139764285D01*
X177309523Y-139716666D01*
X177357142Y-139692857D01*
X177452380Y-139692857D01*
X177500000Y-139716666D01*
X177523809Y-139764285D01*
X177523809Y-139811904D01*
X177285714Y-139859523D01*
X177738095Y-140026190D02*
X177738095Y-139692857D01*
X177738095Y-139788095D02*
X177761904Y-139740476D01*
X177785714Y-139716666D01*
X177833333Y-139692857D01*
X177880952Y-139692857D01*
X178714285Y-139978571D02*
X178690476Y-140002380D01*
X178619047Y-140026190D01*
X178571428Y-140026190D01*
X178500000Y-140002380D01*
X178452380Y-139954761D01*
X178428571Y-139907142D01*
X178404761Y-139811904D01*
X178404761Y-139740476D01*
X178428571Y-139645238D01*
X178452380Y-139597619D01*
X178500000Y-139550000D01*
X178571428Y-139526190D01*
X178619047Y-139526190D01*
X178690476Y-139550000D01*
X178714285Y-139573809D01*
X178928571Y-140026190D02*
X178928571Y-139526190D01*
X179142857Y-140026190D02*
X179142857Y-139764285D01*
X179119047Y-139716666D01*
X179071428Y-139692857D01*
X179000000Y-139692857D01*
X178952380Y-139716666D01*
X178928571Y-139740476D01*
X179571428Y-140002380D02*
X179523809Y-140026190D01*
X179428571Y-140026190D01*
X179380952Y-140002380D01*
X179357142Y-139954761D01*
X179357142Y-139764285D01*
X179380952Y-139716666D01*
X179428571Y-139692857D01*
X179523809Y-139692857D01*
X179571428Y-139716666D01*
X179595238Y-139764285D01*
X179595238Y-139811904D01*
X179357142Y-139859523D01*
X180023809Y-140002380D02*
X179976190Y-140026190D01*
X179880952Y-140026190D01*
X179833333Y-140002380D01*
X179809523Y-139978571D01*
X179785714Y-139930952D01*
X179785714Y-139788095D01*
X179809523Y-139740476D01*
X179833333Y-139716666D01*
X179880952Y-139692857D01*
X179976190Y-139692857D01*
X180023809Y-139716666D01*
X180238095Y-140026190D02*
X180238095Y-139526190D01*
X180285714Y-139835714D02*
X180428571Y-140026190D01*
X180428571Y-139692857D02*
X180238095Y-139883333D01*
X180952380Y-139526190D02*
X181119047Y-140026190D01*
X181285714Y-139526190D01*
X181452380Y-140026190D02*
X181452380Y-139692857D01*
X181452380Y-139526190D02*
X181428571Y-139550000D01*
X181452380Y-139573809D01*
X181476190Y-139550000D01*
X181452380Y-139526190D01*
X181452380Y-139573809D01*
X181904761Y-140026190D02*
X181904761Y-139764285D01*
X181880952Y-139716666D01*
X181833333Y-139692857D01*
X181738095Y-139692857D01*
X181690476Y-139716666D01*
X181904761Y-140002380D02*
X181857142Y-140026190D01*
X181738095Y-140026190D01*
X181690476Y-140002380D01*
X181666666Y-139954761D01*
X181666666Y-139907142D01*
X181690476Y-139859523D01*
X181738095Y-139835714D01*
X181857142Y-139835714D01*
X181904761Y-139811904D01*
X182738095Y-139692857D02*
X182738095Y-140026190D01*
X182619047Y-139502380D02*
X182500000Y-139859523D01*
X182809523Y-139859523D01*
X183238095Y-139526190D02*
X183000000Y-139526190D01*
X182976190Y-139764285D01*
X183000000Y-139740476D01*
X183047619Y-139716666D01*
X183166666Y-139716666D01*
X183214285Y-139740476D01*
X183238095Y-139764285D01*
X183261904Y-139811904D01*
X183261904Y-139930952D01*
X183238095Y-139978571D01*
X183214285Y-140002380D01*
X183166666Y-140026190D01*
X183047619Y-140026190D01*
X183000000Y-140002380D01*
X182976190Y-139978571D01*
X183642857Y-139764285D02*
X183714285Y-139788095D01*
X183738095Y-139811904D01*
X183761904Y-139859523D01*
X183761904Y-139930952D01*
X183738095Y-139978571D01*
X183714285Y-140002380D01*
X183666666Y-140026190D01*
X183476190Y-140026190D01*
X183476190Y-139526190D01*
X183642857Y-139526190D01*
X183690476Y-139550000D01*
X183714285Y-139573809D01*
X183738095Y-139621428D01*
X183738095Y-139669047D01*
X183714285Y-139716666D01*
X183690476Y-139740476D01*
X183642857Y-139764285D01*
X183476190Y-139764285D01*
X184452380Y-139526190D02*
X184547619Y-139526190D01*
X184595238Y-139550000D01*
X184642857Y-139597619D01*
X184666666Y-139692857D01*
X184666666Y-139859523D01*
X184642857Y-139954761D01*
X184595238Y-140002380D01*
X184547619Y-140026190D01*
X184452380Y-140026190D01*
X184404761Y-140002380D01*
X184357142Y-139954761D01*
X184333333Y-139859523D01*
X184333333Y-139692857D01*
X184357142Y-139597619D01*
X184404761Y-139550000D01*
X184452380Y-139526190D01*
X184880952Y-139526190D02*
X184880952Y-139930952D01*
X184904761Y-139978571D01*
X184928571Y-140002380D01*
X184976190Y-140026190D01*
X185071428Y-140026190D01*
X185119047Y-140002380D01*
X185142857Y-139978571D01*
X185166666Y-139930952D01*
X185166666Y-139526190D01*
X185333333Y-139526190D02*
X185619047Y-139526190D01*
X185476190Y-140026190D02*
X185476190Y-139526190D01*
X185785714Y-139835714D02*
X186166666Y-139835714D01*
X185976190Y-140026190D02*
X185976190Y-139645238D01*
D11*
X53838095Y-118952380D02*
X53838095Y-117952380D01*
X54409523Y-118952380D01*
X54409523Y-117952380D01*
X55028571Y-118952380D02*
X54933333Y-118904761D01*
X54885714Y-118857142D01*
X54838095Y-118761904D01*
X54838095Y-118476190D01*
X54885714Y-118380952D01*
X54933333Y-118333333D01*
X55028571Y-118285714D01*
X55171428Y-118285714D01*
X55266666Y-118333333D01*
X55314285Y-118380952D01*
X55361904Y-118476190D01*
X55361904Y-118761904D01*
X55314285Y-118857142D01*
X55266666Y-118904761D01*
X55171428Y-118952380D01*
X55028571Y-118952380D01*
X56980952Y-118952380D02*
X56980952Y-118428571D01*
X56933333Y-118333333D01*
X56838095Y-118285714D01*
X56647619Y-118285714D01*
X56552380Y-118333333D01*
X56980952Y-118904761D02*
X56885714Y-118952380D01*
X56647619Y-118952380D01*
X56552380Y-118904761D01*
X56504761Y-118809523D01*
X56504761Y-118714285D01*
X56552380Y-118619047D01*
X56647619Y-118571428D01*
X56885714Y-118571428D01*
X56980952Y-118523809D01*
X57457142Y-118952380D02*
X57457142Y-118285714D01*
X57457142Y-118476190D02*
X57504761Y-118380952D01*
X57552380Y-118333333D01*
X57647619Y-118285714D01*
X57742857Y-118285714D01*
X58457142Y-118904761D02*
X58361904Y-118952380D01*
X58171428Y-118952380D01*
X58076190Y-118904761D01*
X58028571Y-118809523D01*
X58028571Y-118428571D01*
X58076190Y-118333333D01*
X58171428Y-118285714D01*
X58361904Y-118285714D01*
X58457142Y-118333333D01*
X58504761Y-118428571D01*
X58504761Y-118523809D01*
X58028571Y-118619047D01*
X59361904Y-118952380D02*
X59361904Y-118428571D01*
X59314285Y-118333333D01*
X59219047Y-118285714D01*
X59028571Y-118285714D01*
X58933333Y-118333333D01*
X59361904Y-118904761D02*
X59266666Y-118952380D01*
X59028571Y-118952380D01*
X58933333Y-118904761D01*
X58885714Y-118809523D01*
X58885714Y-118714285D01*
X58933333Y-118619047D01*
X59028571Y-118571428D01*
X59266666Y-118571428D01*
X59361904Y-118523809D01*
D10*
X257464285Y-144026190D02*
X257464285Y-143526190D01*
X257654761Y-143526190D01*
X257702380Y-143550000D01*
X257726190Y-143573809D01*
X257750000Y-143621428D01*
X257750000Y-143692857D01*
X257726190Y-143740476D01*
X257702380Y-143764285D01*
X257654761Y-143788095D01*
X257464285Y-143788095D01*
X258035714Y-144026190D02*
X257988095Y-144002380D01*
X257964285Y-143978571D01*
X257940476Y-143930952D01*
X257940476Y-143788095D01*
X257964285Y-143740476D01*
X257988095Y-143716666D01*
X258035714Y-143692857D01*
X258107142Y-143692857D01*
X258154761Y-143716666D01*
X258178571Y-143740476D01*
X258202380Y-143788095D01*
X258202380Y-143930952D01*
X258178571Y-143978571D01*
X258154761Y-144002380D01*
X258107142Y-144026190D01*
X258035714Y-144026190D01*
X258369047Y-143692857D02*
X258464285Y-144026190D01*
X258559523Y-143788095D01*
X258654761Y-144026190D01*
X258750000Y-143692857D01*
X259130952Y-144002380D02*
X259083333Y-144026190D01*
X258988095Y-144026190D01*
X258940476Y-144002380D01*
X258916666Y-143954761D01*
X258916666Y-143764285D01*
X258940476Y-143716666D01*
X258988095Y-143692857D01*
X259083333Y-143692857D01*
X259130952Y-143716666D01*
X259154761Y-143764285D01*
X259154761Y-143811904D01*
X258916666Y-143859523D01*
X259369047Y-144026190D02*
X259369047Y-143692857D01*
X259369047Y-143788095D02*
X259392857Y-143740476D01*
X259416666Y-143716666D01*
X259464285Y-143692857D01*
X259511904Y-143692857D01*
X260345238Y-143978571D02*
X260321428Y-144002380D01*
X260250000Y-144026190D01*
X260202380Y-144026190D01*
X260130952Y-144002380D01*
X260083333Y-143954761D01*
X260059523Y-143907142D01*
X260035714Y-143811904D01*
X260035714Y-143740476D01*
X260059523Y-143645238D01*
X260083333Y-143597619D01*
X260130952Y-143550000D01*
X260202380Y-143526190D01*
X260250000Y-143526190D01*
X260321428Y-143550000D01*
X260345238Y-143573809D01*
X260559523Y-144026190D02*
X260559523Y-143526190D01*
X260773809Y-144026190D02*
X260773809Y-143764285D01*
X260750000Y-143716666D01*
X260702380Y-143692857D01*
X260630952Y-143692857D01*
X260583333Y-143716666D01*
X260559523Y-143740476D01*
X261202380Y-144002380D02*
X261154761Y-144026190D01*
X261059523Y-144026190D01*
X261011904Y-144002380D01*
X260988095Y-143954761D01*
X260988095Y-143764285D01*
X261011904Y-143716666D01*
X261059523Y-143692857D01*
X261154761Y-143692857D01*
X261202380Y-143716666D01*
X261226190Y-143764285D01*
X261226190Y-143811904D01*
X260988095Y-143859523D01*
X261654761Y-144002380D02*
X261607142Y-144026190D01*
X261511904Y-144026190D01*
X261464285Y-144002380D01*
X261440476Y-143978571D01*
X261416666Y-143930952D01*
X261416666Y-143788095D01*
X261440476Y-143740476D01*
X261464285Y-143716666D01*
X261511904Y-143692857D01*
X261607142Y-143692857D01*
X261654761Y-143716666D01*
X261869047Y-144026190D02*
X261869047Y-143526190D01*
X261916666Y-143835714D02*
X262059523Y-144026190D01*
X262059523Y-143692857D02*
X261869047Y-143883333D01*
X262583333Y-143526190D02*
X262750000Y-144026190D01*
X262916666Y-143526190D01*
X263083333Y-144026190D02*
X263083333Y-143692857D01*
X263083333Y-143526190D02*
X263059523Y-143550000D01*
X263083333Y-143573809D01*
X263107142Y-143550000D01*
X263083333Y-143526190D01*
X263083333Y-143573809D01*
X263535714Y-144026190D02*
X263535714Y-143764285D01*
X263511904Y-143716666D01*
X263464285Y-143692857D01*
X263369047Y-143692857D01*
X263321428Y-143716666D01*
X263535714Y-144002380D02*
X263488095Y-144026190D01*
X263369047Y-144026190D01*
X263321428Y-144002380D01*
X263297619Y-143954761D01*
X263297619Y-143907142D01*
X263321428Y-143859523D01*
X263369047Y-143835714D01*
X263488095Y-143835714D01*
X263535714Y-143811904D01*
D11*
X227738095Y-119000000D02*
X227642857Y-118952380D01*
X227500000Y-118952380D01*
X227357142Y-119000000D01*
X227261904Y-119095238D01*
X227214285Y-119190476D01*
X227166666Y-119380952D01*
X227166666Y-119523809D01*
X227214285Y-119714285D01*
X227261904Y-119809523D01*
X227357142Y-119904761D01*
X227500000Y-119952380D01*
X227595238Y-119952380D01*
X227738095Y-119904761D01*
X227785714Y-119857142D01*
X227785714Y-119523809D01*
X227595238Y-119523809D01*
X228214285Y-119952380D02*
X228214285Y-118952380D01*
X228785714Y-119952380D01*
X228785714Y-118952380D01*
X229261904Y-119952380D02*
X229261904Y-118952380D01*
X229500000Y-118952380D01*
X229642857Y-119000000D01*
X229738095Y-119095238D01*
X229785714Y-119190476D01*
X229833333Y-119380952D01*
X229833333Y-119523809D01*
X229785714Y-119714285D01*
X229738095Y-119809523D01*
X229642857Y-119904761D01*
X229500000Y-119952380D01*
X229261904Y-119952380D01*
X230976190Y-119666666D02*
X231452380Y-119666666D01*
X230880952Y-119952380D02*
X231214285Y-118952380D01*
X231547619Y-119952380D01*
X231880952Y-119952380D02*
X231880952Y-119285714D01*
X231880952Y-119476190D02*
X231928571Y-119380952D01*
X231976190Y-119333333D01*
X232071428Y-119285714D01*
X232166666Y-119285714D01*
X232880952Y-119904761D02*
X232785714Y-119952380D01*
X232595238Y-119952380D01*
X232500000Y-119904761D01*
X232452380Y-119809523D01*
X232452380Y-119428571D01*
X232500000Y-119333333D01*
X232595238Y-119285714D01*
X232785714Y-119285714D01*
X232880952Y-119333333D01*
X232928571Y-119428571D01*
X232928571Y-119523809D01*
X232452380Y-119619047D01*
X233785714Y-119952380D02*
X233785714Y-119428571D01*
X233738095Y-119333333D01*
X233642857Y-119285714D01*
X233452380Y-119285714D01*
X233357142Y-119333333D01*
X233785714Y-119904761D02*
X233690476Y-119952380D01*
X233452380Y-119952380D01*
X233357142Y-119904761D01*
X233309523Y-119809523D01*
X233309523Y-119714285D01*
X233357142Y-119619047D01*
X233452380Y-119571428D01*
X233690476Y-119571428D01*
X233785714Y-119523809D01*
X234747619Y-228066666D02*
X235223809Y-228066666D01*
X234652380Y-228352380D02*
X234985714Y-227352380D01*
X235319047Y-228352380D01*
X235652380Y-228352380D02*
X235652380Y-227685714D01*
X235652380Y-227876190D02*
X235700000Y-227780952D01*
X235747619Y-227733333D01*
X235842857Y-227685714D01*
X235938095Y-227685714D01*
X236652380Y-228304761D02*
X236557142Y-228352380D01*
X236366666Y-228352380D01*
X236271428Y-228304761D01*
X236223809Y-228209523D01*
X236223809Y-227828571D01*
X236271428Y-227733333D01*
X236366666Y-227685714D01*
X236557142Y-227685714D01*
X236652380Y-227733333D01*
X236700000Y-227828571D01*
X236700000Y-227923809D01*
X236223809Y-228019047D01*
X237557142Y-228352380D02*
X237557142Y-227828571D01*
X237509523Y-227733333D01*
X237414285Y-227685714D01*
X237223809Y-227685714D01*
X237128571Y-227733333D01*
X237557142Y-228304761D02*
X237461904Y-228352380D01*
X237223809Y-228352380D01*
X237128571Y-228304761D01*
X237080952Y-228209523D01*
X237080952Y-228114285D01*
X237128571Y-228019047D01*
X237223809Y-227971428D01*
X237461904Y-227971428D01*
X237557142Y-227923809D01*
X239223809Y-228352380D02*
X239223809Y-227352380D01*
X239223809Y-228304761D02*
X239128571Y-228352380D01*
X238938095Y-228352380D01*
X238842857Y-228304761D01*
X238795238Y-228257142D01*
X238747619Y-228161904D01*
X238747619Y-227876190D01*
X238795238Y-227780952D01*
X238842857Y-227733333D01*
X238938095Y-227685714D01*
X239128571Y-227685714D01*
X239223809Y-227733333D01*
X239700000Y-228352380D02*
X239700000Y-227685714D01*
X239700000Y-227876190D02*
X239747619Y-227780952D01*
X239795238Y-227733333D01*
X239890476Y-227685714D01*
X239985714Y-227685714D01*
X240747619Y-228352380D02*
X240747619Y-227828571D01*
X240700000Y-227733333D01*
X240604761Y-227685714D01*
X240414285Y-227685714D01*
X240319047Y-227733333D01*
X240747619Y-228304761D02*
X240652380Y-228352380D01*
X240414285Y-228352380D01*
X240319047Y-228304761D01*
X240271428Y-228209523D01*
X240271428Y-228114285D01*
X240319047Y-228019047D01*
X240414285Y-227971428D01*
X240652380Y-227971428D01*
X240747619Y-227923809D01*
X241128571Y-227685714D02*
X241319047Y-228352380D01*
X241509523Y-227876190D01*
X241700000Y-228352380D01*
X241890476Y-227685714D01*
X242271428Y-227685714D02*
X242271428Y-228352380D01*
X242271428Y-227780952D02*
X242319047Y-227733333D01*
X242414285Y-227685714D01*
X242557142Y-227685714D01*
X242652380Y-227733333D01*
X242700000Y-227828571D01*
X242700000Y-228352380D01*
X244080952Y-228352380D02*
X243985714Y-228304761D01*
X243938095Y-228257142D01*
X243890476Y-228161904D01*
X243890476Y-227876190D01*
X243938095Y-227780952D01*
X243985714Y-227733333D01*
X244080952Y-227685714D01*
X244223809Y-227685714D01*
X244319047Y-227733333D01*
X244366666Y-227780952D01*
X244414285Y-227876190D01*
X244414285Y-228161904D01*
X244366666Y-228257142D01*
X244319047Y-228304761D01*
X244223809Y-228352380D01*
X244080952Y-228352380D01*
X244842857Y-227685714D02*
X244842857Y-228352380D01*
X244842857Y-227780952D02*
X244890476Y-227733333D01*
X244985714Y-227685714D01*
X245128571Y-227685714D01*
X245223809Y-227733333D01*
X245271428Y-227828571D01*
X245271428Y-228352380D01*
X245890476Y-228352380D02*
X245795238Y-228304761D01*
X245747619Y-228209523D01*
X245747619Y-227352380D01*
X246176190Y-227685714D02*
X246414285Y-228352380D01*
X246652380Y-227685714D02*
X246414285Y-228352380D01*
X246319047Y-228590476D01*
X246271428Y-228638095D01*
X246176190Y-228685714D01*
X247795238Y-228352380D02*
X247795238Y-227685714D01*
X247795238Y-227352380D02*
X247747619Y-227400000D01*
X247795238Y-227447619D01*
X247842857Y-227400000D01*
X247795238Y-227352380D01*
X247795238Y-227447619D01*
X248271428Y-227685714D02*
X248271428Y-228352380D01*
X248271428Y-227780952D02*
X248319047Y-227733333D01*
X248414285Y-227685714D01*
X248557142Y-227685714D01*
X248652380Y-227733333D01*
X248700000Y-227828571D01*
X248700000Y-228352380D01*
X250509523Y-228257142D02*
X250461904Y-228304761D01*
X250319047Y-228352380D01*
X250223809Y-228352380D01*
X250080952Y-228304761D01*
X249985714Y-228209523D01*
X249938095Y-228114285D01*
X249890476Y-227923809D01*
X249890476Y-227780952D01*
X249938095Y-227590476D01*
X249985714Y-227495238D01*
X250080952Y-227400000D01*
X250223809Y-227352380D01*
X250319047Y-227352380D01*
X250461904Y-227400000D01*
X250509523Y-227447619D01*
X251366666Y-227685714D02*
X251366666Y-228352380D01*
X250938095Y-227685714D02*
X250938095Y-228209523D01*
X250985714Y-228304761D01*
X251080952Y-228352380D01*
X251223809Y-228352380D01*
X251319047Y-228304761D01*
X251366666Y-228257142D01*
X252747619Y-228352380D02*
X252652380Y-228304761D01*
X252604761Y-228209523D01*
X252604761Y-227352380D01*
X253557142Y-228352380D02*
X253557142Y-227828571D01*
X253509523Y-227733333D01*
X253414285Y-227685714D01*
X253223809Y-227685714D01*
X253128571Y-227733333D01*
X253557142Y-228304761D02*
X253461904Y-228352380D01*
X253223809Y-228352380D01*
X253128571Y-228304761D01*
X253080952Y-228209523D01*
X253080952Y-228114285D01*
X253128571Y-228019047D01*
X253223809Y-227971428D01*
X253461904Y-227971428D01*
X253557142Y-227923809D01*
X253938095Y-227685714D02*
X254176190Y-228352380D01*
X254414285Y-227685714D02*
X254176190Y-228352380D01*
X254080952Y-228590476D01*
X254033333Y-228638095D01*
X253938095Y-228685714D01*
X255176190Y-228304761D02*
X255080952Y-228352380D01*
X254890476Y-228352380D01*
X254795238Y-228304761D01*
X254747619Y-228209523D01*
X254747619Y-227828571D01*
X254795238Y-227733333D01*
X254890476Y-227685714D01*
X255080952Y-227685714D01*
X255176190Y-227733333D01*
X255223809Y-227828571D01*
X255223809Y-227923809D01*
X254747619Y-228019047D01*
X255652380Y-228352380D02*
X255652380Y-227685714D01*
X255652380Y-227876190D02*
X255700000Y-227780952D01*
X255747619Y-227733333D01*
X255842857Y-227685714D01*
X255938095Y-227685714D01*
X256223809Y-228304761D02*
X256319047Y-228352380D01*
X256509523Y-228352380D01*
X256604761Y-228304761D01*
X256652380Y-228209523D01*
X256652380Y-228161904D01*
X256604761Y-228066666D01*
X256509523Y-228019047D01*
X256366666Y-228019047D01*
X256271428Y-227971428D01*
X256223809Y-227876190D01*
X256223809Y-227828571D01*
X256271428Y-227733333D01*
X256366666Y-227685714D01*
X256509523Y-227685714D01*
X256604761Y-227733333D01*
X233966666Y-208366666D02*
X234442857Y-208366666D01*
X233871428Y-208652380D02*
X234204761Y-207652380D01*
X234538095Y-208652380D01*
X234871428Y-208652380D02*
X234871428Y-207985714D01*
X234871428Y-208176190D02*
X234919047Y-208080952D01*
X234966666Y-208033333D01*
X235061904Y-207985714D01*
X235157142Y-207985714D01*
X235871428Y-208604761D02*
X235776190Y-208652380D01*
X235585714Y-208652380D01*
X235490476Y-208604761D01*
X235442857Y-208509523D01*
X235442857Y-208128571D01*
X235490476Y-208033333D01*
X235585714Y-207985714D01*
X235776190Y-207985714D01*
X235871428Y-208033333D01*
X235919047Y-208128571D01*
X235919047Y-208223809D01*
X235442857Y-208319047D01*
X236776190Y-208652380D02*
X236776190Y-208128571D01*
X236728571Y-208033333D01*
X236633333Y-207985714D01*
X236442857Y-207985714D01*
X236347619Y-208033333D01*
X236776190Y-208604761D02*
X236680952Y-208652380D01*
X236442857Y-208652380D01*
X236347619Y-208604761D01*
X236300000Y-208509523D01*
X236300000Y-208414285D01*
X236347619Y-208319047D01*
X236442857Y-208271428D01*
X236680952Y-208271428D01*
X236776190Y-208223809D01*
X238442857Y-208652380D02*
X238442857Y-207652380D01*
X238442857Y-208604761D02*
X238347619Y-208652380D01*
X238157142Y-208652380D01*
X238061904Y-208604761D01*
X238014285Y-208557142D01*
X237966666Y-208461904D01*
X237966666Y-208176190D01*
X238014285Y-208080952D01*
X238061904Y-208033333D01*
X238157142Y-207985714D01*
X238347619Y-207985714D01*
X238442857Y-208033333D01*
X238919047Y-208652380D02*
X238919047Y-207985714D01*
X238919047Y-208176190D02*
X238966666Y-208080952D01*
X239014285Y-208033333D01*
X239109523Y-207985714D01*
X239204761Y-207985714D01*
X239966666Y-208652380D02*
X239966666Y-208128571D01*
X239919047Y-208033333D01*
X239823809Y-207985714D01*
X239633333Y-207985714D01*
X239538095Y-208033333D01*
X239966666Y-208604761D02*
X239871428Y-208652380D01*
X239633333Y-208652380D01*
X239538095Y-208604761D01*
X239490476Y-208509523D01*
X239490476Y-208414285D01*
X239538095Y-208319047D01*
X239633333Y-208271428D01*
X239871428Y-208271428D01*
X239966666Y-208223809D01*
X240347619Y-207985714D02*
X240538095Y-208652380D01*
X240728571Y-208176190D01*
X240919047Y-208652380D01*
X241109523Y-207985714D01*
X241490476Y-207985714D02*
X241490476Y-208652380D01*
X241490476Y-208080952D02*
X241538095Y-208033333D01*
X241633333Y-207985714D01*
X241776190Y-207985714D01*
X241871428Y-208033333D01*
X241919047Y-208128571D01*
X241919047Y-208652380D01*
X243300000Y-208652380D02*
X243204761Y-208604761D01*
X243157142Y-208557142D01*
X243109523Y-208461904D01*
X243109523Y-208176190D01*
X243157142Y-208080952D01*
X243204761Y-208033333D01*
X243300000Y-207985714D01*
X243442857Y-207985714D01*
X243538095Y-208033333D01*
X243585714Y-208080952D01*
X243633333Y-208176190D01*
X243633333Y-208461904D01*
X243585714Y-208557142D01*
X243538095Y-208604761D01*
X243442857Y-208652380D01*
X243300000Y-208652380D01*
X244061904Y-207985714D02*
X244061904Y-208652380D01*
X244061904Y-208080952D02*
X244109523Y-208033333D01*
X244204761Y-207985714D01*
X244347619Y-207985714D01*
X244442857Y-208033333D01*
X244490476Y-208128571D01*
X244490476Y-208652380D01*
X245109523Y-208652380D02*
X245014285Y-208604761D01*
X244966666Y-208509523D01*
X244966666Y-207652380D01*
X245395238Y-207985714D02*
X245633333Y-208652380D01*
X245871428Y-207985714D02*
X245633333Y-208652380D01*
X245538095Y-208890476D01*
X245490476Y-208938095D01*
X245395238Y-208985714D01*
X247014285Y-208652380D02*
X247014285Y-207985714D01*
X247014285Y-207652380D02*
X246966666Y-207700000D01*
X247014285Y-207747619D01*
X247061904Y-207700000D01*
X247014285Y-207652380D01*
X247014285Y-207747619D01*
X247490476Y-207985714D02*
X247490476Y-208652380D01*
X247490476Y-208080952D02*
X247538095Y-208033333D01*
X247633333Y-207985714D01*
X247776190Y-207985714D01*
X247871428Y-208033333D01*
X247919047Y-208128571D01*
X247919047Y-208652380D01*
X249157142Y-208652380D02*
X249157142Y-207652380D01*
X249490476Y-208366666D01*
X249823809Y-207652380D01*
X249823809Y-208652380D01*
X250728571Y-208652380D02*
X250728571Y-208128571D01*
X250680952Y-208033333D01*
X250585714Y-207985714D01*
X250395238Y-207985714D01*
X250300000Y-208033333D01*
X250728571Y-208604761D02*
X250633333Y-208652380D01*
X250395238Y-208652380D01*
X250300000Y-208604761D01*
X250252380Y-208509523D01*
X250252380Y-208414285D01*
X250300000Y-208319047D01*
X250395238Y-208271428D01*
X250633333Y-208271428D01*
X250728571Y-208223809D01*
X251157142Y-208604761D02*
X251252380Y-208652380D01*
X251442857Y-208652380D01*
X251538095Y-208604761D01*
X251585714Y-208509523D01*
X251585714Y-208461904D01*
X251538095Y-208366666D01*
X251442857Y-208319047D01*
X251300000Y-208319047D01*
X251204761Y-208271428D01*
X251157142Y-208176190D01*
X251157142Y-208128571D01*
X251204761Y-208033333D01*
X251300000Y-207985714D01*
X251442857Y-207985714D01*
X251538095Y-208033333D01*
X252014285Y-208652380D02*
X252014285Y-207652380D01*
X252109523Y-208271428D02*
X252395238Y-208652380D01*
X252395238Y-207985714D02*
X252014285Y-208366666D01*
X253728571Y-208652380D02*
X253633333Y-208604761D01*
X253585714Y-208509523D01*
X253585714Y-207652380D01*
X254538095Y-208652380D02*
X254538095Y-208128571D01*
X254490476Y-208033333D01*
X254395238Y-207985714D01*
X254204761Y-207985714D01*
X254109523Y-208033333D01*
X254538095Y-208604761D02*
X254442857Y-208652380D01*
X254204761Y-208652380D01*
X254109523Y-208604761D01*
X254061904Y-208509523D01*
X254061904Y-208414285D01*
X254109523Y-208319047D01*
X254204761Y-208271428D01*
X254442857Y-208271428D01*
X254538095Y-208223809D01*
X254919047Y-207985714D02*
X255157142Y-208652380D01*
X255395238Y-207985714D02*
X255157142Y-208652380D01*
X255061904Y-208890476D01*
X255014285Y-208938095D01*
X254919047Y-208985714D01*
X256157142Y-208604761D02*
X256061904Y-208652380D01*
X255871428Y-208652380D01*
X255776190Y-208604761D01*
X255728571Y-208509523D01*
X255728571Y-208128571D01*
X255776190Y-208033333D01*
X255871428Y-207985714D01*
X256061904Y-207985714D01*
X256157142Y-208033333D01*
X256204761Y-208128571D01*
X256204761Y-208223809D01*
X255728571Y-208319047D01*
X256633333Y-208652380D02*
X256633333Y-207985714D01*
X256633333Y-208176190D02*
X256680952Y-208080952D01*
X256728571Y-208033333D01*
X256823809Y-207985714D01*
X256919047Y-207985714D01*
X257204761Y-208604761D02*
X257300000Y-208652380D01*
X257490476Y-208652380D01*
X257585714Y-208604761D01*
X257633333Y-208509523D01*
X257633333Y-208461904D01*
X257585714Y-208366666D01*
X257490476Y-208319047D01*
X257347619Y-208319047D01*
X257252380Y-208271428D01*
X257204761Y-208176190D01*
X257204761Y-208128571D01*
X257252380Y-208033333D01*
X257347619Y-207985714D01*
X257490476Y-207985714D01*
X257585714Y-208033333D01*
X202823809Y-55166666D02*
X203300000Y-55166666D01*
X202728571Y-55452380D02*
X203061904Y-54452380D01*
X203395238Y-55452380D01*
X203728571Y-55452380D02*
X203728571Y-54785714D01*
X203728571Y-54976190D02*
X203776190Y-54880952D01*
X203823809Y-54833333D01*
X203919047Y-54785714D01*
X204014285Y-54785714D01*
X204728571Y-55404761D02*
X204633333Y-55452380D01*
X204442857Y-55452380D01*
X204347619Y-55404761D01*
X204300000Y-55309523D01*
X204300000Y-54928571D01*
X204347619Y-54833333D01*
X204442857Y-54785714D01*
X204633333Y-54785714D01*
X204728571Y-54833333D01*
X204776190Y-54928571D01*
X204776190Y-55023809D01*
X204300000Y-55119047D01*
X205633333Y-55452380D02*
X205633333Y-54928571D01*
X205585714Y-54833333D01*
X205490476Y-54785714D01*
X205300000Y-54785714D01*
X205204761Y-54833333D01*
X205633333Y-55404761D02*
X205538095Y-55452380D01*
X205300000Y-55452380D01*
X205204761Y-55404761D01*
X205157142Y-55309523D01*
X205157142Y-55214285D01*
X205204761Y-55119047D01*
X205300000Y-55071428D01*
X205538095Y-55071428D01*
X205633333Y-55023809D01*
X207300000Y-55452380D02*
X207300000Y-54452380D01*
X207300000Y-55404761D02*
X207204761Y-55452380D01*
X207014285Y-55452380D01*
X206919047Y-55404761D01*
X206871428Y-55357142D01*
X206823809Y-55261904D01*
X206823809Y-54976190D01*
X206871428Y-54880952D01*
X206919047Y-54833333D01*
X207014285Y-54785714D01*
X207204761Y-54785714D01*
X207300000Y-54833333D01*
X207776190Y-55452380D02*
X207776190Y-54785714D01*
X207776190Y-54976190D02*
X207823809Y-54880952D01*
X207871428Y-54833333D01*
X207966666Y-54785714D01*
X208061904Y-54785714D01*
X208823809Y-55452380D02*
X208823809Y-54928571D01*
X208776190Y-54833333D01*
X208680952Y-54785714D01*
X208490476Y-54785714D01*
X208395238Y-54833333D01*
X208823809Y-55404761D02*
X208728571Y-55452380D01*
X208490476Y-55452380D01*
X208395238Y-55404761D01*
X208347619Y-55309523D01*
X208347619Y-55214285D01*
X208395238Y-55119047D01*
X208490476Y-55071428D01*
X208728571Y-55071428D01*
X208823809Y-55023809D01*
X209204761Y-54785714D02*
X209395238Y-55452380D01*
X209585714Y-54976190D01*
X209776190Y-55452380D01*
X209966666Y-54785714D01*
X210347619Y-54785714D02*
X210347619Y-55452380D01*
X210347619Y-54880952D02*
X210395238Y-54833333D01*
X210490476Y-54785714D01*
X210633333Y-54785714D01*
X210728571Y-54833333D01*
X210776190Y-54928571D01*
X210776190Y-55452380D01*
X212014285Y-55452380D02*
X212014285Y-54785714D01*
X212014285Y-54452380D02*
X211966666Y-54500000D01*
X212014285Y-54547619D01*
X212061904Y-54500000D01*
X212014285Y-54452380D01*
X212014285Y-54547619D01*
X212490476Y-54785714D02*
X212490476Y-55452380D01*
X212490476Y-54880952D02*
X212538095Y-54833333D01*
X212633333Y-54785714D01*
X212776190Y-54785714D01*
X212871428Y-54833333D01*
X212919047Y-54928571D01*
X212919047Y-55452380D01*
X214157142Y-55452380D02*
X214157142Y-54452380D01*
X214157142Y-54833333D02*
X214252380Y-54785714D01*
X214442857Y-54785714D01*
X214538095Y-54833333D01*
X214585714Y-54880952D01*
X214633333Y-54976190D01*
X214633333Y-55261904D01*
X214585714Y-55357142D01*
X214538095Y-55404761D01*
X214442857Y-55452380D01*
X214252380Y-55452380D01*
X214157142Y-55404761D01*
X215204761Y-55452380D02*
X215109523Y-55404761D01*
X215061904Y-55357142D01*
X215014285Y-55261904D01*
X215014285Y-54976190D01*
X215061904Y-54880952D01*
X215109523Y-54833333D01*
X215204761Y-54785714D01*
X215347619Y-54785714D01*
X215442857Y-54833333D01*
X215490476Y-54880952D01*
X215538095Y-54976190D01*
X215538095Y-55261904D01*
X215490476Y-55357142D01*
X215442857Y-55404761D01*
X215347619Y-55452380D01*
X215204761Y-55452380D01*
X215823809Y-54785714D02*
X216204761Y-54785714D01*
X215966666Y-54452380D02*
X215966666Y-55309523D01*
X216014285Y-55404761D01*
X216109523Y-55452380D01*
X216204761Y-55452380D01*
X216538095Y-55452380D02*
X216538095Y-54452380D01*
X216966666Y-55452380D02*
X216966666Y-54928571D01*
X216919047Y-54833333D01*
X216823809Y-54785714D01*
X216680952Y-54785714D01*
X216585714Y-54833333D01*
X216538095Y-54880952D01*
X218776190Y-55357142D02*
X218728571Y-55404761D01*
X218585714Y-55452380D01*
X218490476Y-55452380D01*
X218347619Y-55404761D01*
X218252380Y-55309523D01*
X218204761Y-55214285D01*
X218157142Y-55023809D01*
X218157142Y-54880952D01*
X218204761Y-54690476D01*
X218252380Y-54595238D01*
X218347619Y-54500000D01*
X218490476Y-54452380D01*
X218585714Y-54452380D01*
X218728571Y-54500000D01*
X218776190Y-54547619D01*
X219633333Y-54785714D02*
X219633333Y-55452380D01*
X219204761Y-54785714D02*
X219204761Y-55309523D01*
X219252380Y-55404761D01*
X219347619Y-55452380D01*
X219490476Y-55452380D01*
X219585714Y-55404761D01*
X219633333Y-55357142D01*
X220871428Y-55452380D02*
X220871428Y-54452380D01*
X220871428Y-54833333D02*
X220966666Y-54785714D01*
X221157142Y-54785714D01*
X221252380Y-54833333D01*
X221300000Y-54880952D01*
X221347619Y-54976190D01*
X221347619Y-55261904D01*
X221300000Y-55357142D01*
X221252380Y-55404761D01*
X221157142Y-55452380D01*
X220966666Y-55452380D01*
X220871428Y-55404761D01*
X222204761Y-54785714D02*
X222204761Y-55452380D01*
X221776190Y-54785714D02*
X221776190Y-55309523D01*
X221823809Y-55404761D01*
X221919047Y-55452380D01*
X222061904Y-55452380D01*
X222157142Y-55404761D01*
X222204761Y-55357142D01*
X222538095Y-54785714D02*
X222919047Y-54785714D01*
X222680952Y-54452380D02*
X222680952Y-55309523D01*
X222728571Y-55404761D01*
X222823809Y-55452380D01*
X222919047Y-55452380D01*
X224014285Y-54785714D02*
X224014285Y-55452380D01*
X224014285Y-54880952D02*
X224061904Y-54833333D01*
X224157142Y-54785714D01*
X224300000Y-54785714D01*
X224395238Y-54833333D01*
X224442857Y-54928571D01*
X224442857Y-55452380D01*
X225061904Y-55452380D02*
X224966666Y-55404761D01*
X224919047Y-55357142D01*
X224871428Y-55261904D01*
X224871428Y-54976190D01*
X224919047Y-54880952D01*
X224966666Y-54833333D01*
X225061904Y-54785714D01*
X225204761Y-54785714D01*
X225300000Y-54833333D01*
X225347619Y-54880952D01*
X225395238Y-54976190D01*
X225395238Y-55261904D01*
X225347619Y-55357142D01*
X225300000Y-55404761D01*
X225204761Y-55452380D01*
X225061904Y-55452380D01*
X225680952Y-54785714D02*
X226061904Y-54785714D01*
X225823809Y-54452380D02*
X225823809Y-55309523D01*
X225871428Y-55404761D01*
X225966666Y-55452380D01*
X226061904Y-55452380D01*
X227157142Y-55452380D02*
X227157142Y-54785714D01*
X227157142Y-54452380D02*
X227109523Y-54500000D01*
X227157142Y-54547619D01*
X227204761Y-54500000D01*
X227157142Y-54452380D01*
X227157142Y-54547619D01*
X227633333Y-54785714D02*
X227633333Y-55452380D01*
X227633333Y-54880952D02*
X227680952Y-54833333D01*
X227776190Y-54785714D01*
X227919047Y-54785714D01*
X228014285Y-54833333D01*
X228061904Y-54928571D01*
X228061904Y-55452380D01*
X229300000Y-55452380D02*
X229300000Y-54452380D01*
X229633333Y-55166666D01*
X229966666Y-54452380D01*
X229966666Y-55452380D01*
X230871428Y-55452380D02*
X230871428Y-54928571D01*
X230823809Y-54833333D01*
X230728571Y-54785714D01*
X230538095Y-54785714D01*
X230442857Y-54833333D01*
X230871428Y-55404761D02*
X230776190Y-55452380D01*
X230538095Y-55452380D01*
X230442857Y-55404761D01*
X230395238Y-55309523D01*
X230395238Y-55214285D01*
X230442857Y-55119047D01*
X230538095Y-55071428D01*
X230776190Y-55071428D01*
X230871428Y-55023809D01*
X231300000Y-55404761D02*
X231395238Y-55452380D01*
X231585714Y-55452380D01*
X231680952Y-55404761D01*
X231728571Y-55309523D01*
X231728571Y-55261904D01*
X231680952Y-55166666D01*
X231585714Y-55119047D01*
X231442857Y-55119047D01*
X231347619Y-55071428D01*
X231300000Y-54976190D01*
X231300000Y-54928571D01*
X231347619Y-54833333D01*
X231442857Y-54785714D01*
X231585714Y-54785714D01*
X231680952Y-54833333D01*
X232157142Y-55452380D02*
X232157142Y-54452380D01*
X232252380Y-55071428D02*
X232538095Y-55452380D01*
X232538095Y-54785714D02*
X232157142Y-55166666D01*
X233871428Y-55452380D02*
X233776190Y-55404761D01*
X233728571Y-55309523D01*
X233728571Y-54452380D01*
X234680952Y-55452380D02*
X234680952Y-54928571D01*
X234633333Y-54833333D01*
X234538095Y-54785714D01*
X234347619Y-54785714D01*
X234252380Y-54833333D01*
X234680952Y-55404761D02*
X234585714Y-55452380D01*
X234347619Y-55452380D01*
X234252380Y-55404761D01*
X234204761Y-55309523D01*
X234204761Y-55214285D01*
X234252380Y-55119047D01*
X234347619Y-55071428D01*
X234585714Y-55071428D01*
X234680952Y-55023809D01*
X235061904Y-54785714D02*
X235300000Y-55452380D01*
X235538095Y-54785714D02*
X235300000Y-55452380D01*
X235204761Y-55690476D01*
X235157142Y-55738095D01*
X235061904Y-55785714D01*
X236300000Y-55404761D02*
X236204761Y-55452380D01*
X236014285Y-55452380D01*
X235919047Y-55404761D01*
X235871428Y-55309523D01*
X235871428Y-54928571D01*
X235919047Y-54833333D01*
X236014285Y-54785714D01*
X236204761Y-54785714D01*
X236300000Y-54833333D01*
X236347619Y-54928571D01*
X236347619Y-55023809D01*
X235871428Y-55119047D01*
X236776190Y-55452380D02*
X236776190Y-54785714D01*
X236776190Y-54976190D02*
X236823809Y-54880952D01*
X236871428Y-54833333D01*
X236966666Y-54785714D01*
X237061904Y-54785714D01*
X237347619Y-55404761D02*
X237442857Y-55452380D01*
X237633333Y-55452380D01*
X237728571Y-55404761D01*
X237776190Y-55309523D01*
X237776190Y-55261904D01*
X237728571Y-55166666D01*
X237633333Y-55119047D01*
X237490476Y-55119047D01*
X237395238Y-55071428D01*
X237347619Y-54976190D01*
X237347619Y-54928571D01*
X237395238Y-54833333D01*
X237490476Y-54785714D01*
X237633333Y-54785714D01*
X237728571Y-54833333D01*
X229995238Y-188552380D02*
X229995238Y-187552380D01*
X230566666Y-188552380D02*
X230138095Y-187980952D01*
X230566666Y-187552380D02*
X229995238Y-188123809D01*
X231376190Y-188504761D02*
X231280952Y-188552380D01*
X231090476Y-188552380D01*
X230995238Y-188504761D01*
X230947619Y-188409523D01*
X230947619Y-188028571D01*
X230995238Y-187933333D01*
X231090476Y-187885714D01*
X231280952Y-187885714D01*
X231376190Y-187933333D01*
X231423809Y-188028571D01*
X231423809Y-188123809D01*
X230947619Y-188219047D01*
X232233333Y-188504761D02*
X232138095Y-188552380D01*
X231947619Y-188552380D01*
X231852380Y-188504761D01*
X231804761Y-188409523D01*
X231804761Y-188028571D01*
X231852380Y-187933333D01*
X231947619Y-187885714D01*
X232138095Y-187885714D01*
X232233333Y-187933333D01*
X232280952Y-188028571D01*
X232280952Y-188123809D01*
X231804761Y-188219047D01*
X232709523Y-187885714D02*
X232709523Y-188885714D01*
X232709523Y-187933333D02*
X232804761Y-187885714D01*
X232995238Y-187885714D01*
X233090476Y-187933333D01*
X233138095Y-187980952D01*
X233185714Y-188076190D01*
X233185714Y-188361904D01*
X233138095Y-188457142D01*
X233090476Y-188504761D01*
X232995238Y-188552380D01*
X232804761Y-188552380D01*
X232709523Y-188504761D01*
X233757142Y-188552380D02*
X233661904Y-188504761D01*
X233614285Y-188457142D01*
X233566666Y-188361904D01*
X233566666Y-188076190D01*
X233614285Y-187980952D01*
X233661904Y-187933333D01*
X233757142Y-187885714D01*
X233900000Y-187885714D01*
X233995238Y-187933333D01*
X234042857Y-187980952D01*
X234090476Y-188076190D01*
X234090476Y-188361904D01*
X234042857Y-188457142D01*
X233995238Y-188504761D01*
X233900000Y-188552380D01*
X233757142Y-188552380D01*
X234947619Y-187885714D02*
X234947619Y-188552380D01*
X234519047Y-187885714D02*
X234519047Y-188409523D01*
X234566666Y-188504761D01*
X234661904Y-188552380D01*
X234804761Y-188552380D01*
X234900000Y-188504761D01*
X234947619Y-188457142D01*
X235280952Y-187885714D02*
X235661904Y-187885714D01*
X235423809Y-187552380D02*
X235423809Y-188409523D01*
X235471428Y-188504761D01*
X235566666Y-188552380D01*
X235661904Y-188552380D01*
X237185714Y-188552380D02*
X237185714Y-188028571D01*
X237138095Y-187933333D01*
X237042857Y-187885714D01*
X236852380Y-187885714D01*
X236757142Y-187933333D01*
X237185714Y-188504761D02*
X237090476Y-188552380D01*
X236852380Y-188552380D01*
X236757142Y-188504761D01*
X236709523Y-188409523D01*
X236709523Y-188314285D01*
X236757142Y-188219047D01*
X236852380Y-188171428D01*
X237090476Y-188171428D01*
X237185714Y-188123809D01*
X237661904Y-188552380D02*
X237661904Y-187885714D01*
X237661904Y-188076190D02*
X237709523Y-187980952D01*
X237757142Y-187933333D01*
X237852380Y-187885714D01*
X237947619Y-187885714D01*
X238661904Y-188504761D02*
X238566666Y-188552380D01*
X238376190Y-188552380D01*
X238280952Y-188504761D01*
X238233333Y-188409523D01*
X238233333Y-188028571D01*
X238280952Y-187933333D01*
X238376190Y-187885714D01*
X238566666Y-187885714D01*
X238661904Y-187933333D01*
X238709523Y-188028571D01*
X238709523Y-188123809D01*
X238233333Y-188219047D01*
X239566666Y-188552380D02*
X239566666Y-188028571D01*
X239519047Y-187933333D01*
X239423809Y-187885714D01*
X239233333Y-187885714D01*
X239138095Y-187933333D01*
X239566666Y-188504761D02*
X239471428Y-188552380D01*
X239233333Y-188552380D01*
X239138095Y-188504761D01*
X239090476Y-188409523D01*
X239090476Y-188314285D01*
X239138095Y-188219047D01*
X239233333Y-188171428D01*
X239471428Y-188171428D01*
X239566666Y-188123809D01*
X241233333Y-188552380D02*
X241233333Y-187552380D01*
X241233333Y-188504761D02*
X241138095Y-188552380D01*
X240947619Y-188552380D01*
X240852380Y-188504761D01*
X240804761Y-188457142D01*
X240757142Y-188361904D01*
X240757142Y-188076190D01*
X240804761Y-187980952D01*
X240852380Y-187933333D01*
X240947619Y-187885714D01*
X241138095Y-187885714D01*
X241233333Y-187933333D01*
X241709523Y-188552380D02*
X241709523Y-187885714D01*
X241709523Y-188076190D02*
X241757142Y-187980952D01*
X241804761Y-187933333D01*
X241900000Y-187885714D01*
X241995238Y-187885714D01*
X242757142Y-188552380D02*
X242757142Y-188028571D01*
X242709523Y-187933333D01*
X242614285Y-187885714D01*
X242423809Y-187885714D01*
X242328571Y-187933333D01*
X242757142Y-188504761D02*
X242661904Y-188552380D01*
X242423809Y-188552380D01*
X242328571Y-188504761D01*
X242280952Y-188409523D01*
X242280952Y-188314285D01*
X242328571Y-188219047D01*
X242423809Y-188171428D01*
X242661904Y-188171428D01*
X242757142Y-188123809D01*
X243138095Y-187885714D02*
X243328571Y-188552380D01*
X243519047Y-188076190D01*
X243709523Y-188552380D01*
X243900000Y-187885714D01*
X244280952Y-187885714D02*
X244280952Y-188552380D01*
X244280952Y-187980952D02*
X244328571Y-187933333D01*
X244423809Y-187885714D01*
X244566666Y-187885714D01*
X244661904Y-187933333D01*
X244709523Y-188028571D01*
X244709523Y-188552380D01*
X245947619Y-188552380D02*
X245947619Y-187552380D01*
X245947619Y-187933333D02*
X246042857Y-187885714D01*
X246233333Y-187885714D01*
X246328571Y-187933333D01*
X246376190Y-187980952D01*
X246423809Y-188076190D01*
X246423809Y-188361904D01*
X246376190Y-188457142D01*
X246328571Y-188504761D01*
X246233333Y-188552380D01*
X246042857Y-188552380D01*
X245947619Y-188504761D01*
X246995238Y-188552380D02*
X246900000Y-188504761D01*
X246852380Y-188457142D01*
X246804761Y-188361904D01*
X246804761Y-188076190D01*
X246852380Y-187980952D01*
X246900000Y-187933333D01*
X246995238Y-187885714D01*
X247138095Y-187885714D01*
X247233333Y-187933333D01*
X247280952Y-187980952D01*
X247328571Y-188076190D01*
X247328571Y-188361904D01*
X247280952Y-188457142D01*
X247233333Y-188504761D01*
X247138095Y-188552380D01*
X246995238Y-188552380D01*
X247614285Y-187885714D02*
X247995238Y-187885714D01*
X247757142Y-187552380D02*
X247757142Y-188409523D01*
X247804761Y-188504761D01*
X247900000Y-188552380D01*
X247995238Y-188552380D01*
X248328571Y-188552380D02*
X248328571Y-187552380D01*
X248757142Y-188552380D02*
X248757142Y-188028571D01*
X248709523Y-187933333D01*
X248614285Y-187885714D01*
X248471428Y-187885714D01*
X248376190Y-187933333D01*
X248328571Y-187980952D01*
X249995238Y-188552380D02*
X249995238Y-187885714D01*
X249995238Y-187552380D02*
X249947619Y-187600000D01*
X249995238Y-187647619D01*
X250042857Y-187600000D01*
X249995238Y-187552380D01*
X249995238Y-187647619D01*
X250471428Y-187885714D02*
X250471428Y-188552380D01*
X250471428Y-187980952D02*
X250519047Y-187933333D01*
X250614285Y-187885714D01*
X250757142Y-187885714D01*
X250852380Y-187933333D01*
X250900000Y-188028571D01*
X250900000Y-188552380D01*
X252709523Y-188457142D02*
X252661904Y-188504761D01*
X252519047Y-188552380D01*
X252423809Y-188552380D01*
X252280952Y-188504761D01*
X252185714Y-188409523D01*
X252138095Y-188314285D01*
X252090476Y-188123809D01*
X252090476Y-187980952D01*
X252138095Y-187790476D01*
X252185714Y-187695238D01*
X252280952Y-187600000D01*
X252423809Y-187552380D01*
X252519047Y-187552380D01*
X252661904Y-187600000D01*
X252709523Y-187647619D01*
X253566666Y-187885714D02*
X253566666Y-188552380D01*
X253138095Y-187885714D02*
X253138095Y-188409523D01*
X253185714Y-188504761D01*
X253280952Y-188552380D01*
X253423809Y-188552380D01*
X253519047Y-188504761D01*
X253566666Y-188457142D01*
X254947619Y-188552380D02*
X254852380Y-188504761D01*
X254804761Y-188409523D01*
X254804761Y-187552380D01*
X255757142Y-188552380D02*
X255757142Y-188028571D01*
X255709523Y-187933333D01*
X255614285Y-187885714D01*
X255423809Y-187885714D01*
X255328571Y-187933333D01*
X255757142Y-188504761D02*
X255661904Y-188552380D01*
X255423809Y-188552380D01*
X255328571Y-188504761D01*
X255280952Y-188409523D01*
X255280952Y-188314285D01*
X255328571Y-188219047D01*
X255423809Y-188171428D01*
X255661904Y-188171428D01*
X255757142Y-188123809D01*
X256138095Y-187885714D02*
X256376190Y-188552380D01*
X256614285Y-187885714D02*
X256376190Y-188552380D01*
X256280952Y-188790476D01*
X256233333Y-188838095D01*
X256138095Y-188885714D01*
X257376190Y-188504761D02*
X257280952Y-188552380D01*
X257090476Y-188552380D01*
X256995238Y-188504761D01*
X256947619Y-188409523D01*
X256947619Y-188028571D01*
X256995238Y-187933333D01*
X257090476Y-187885714D01*
X257280952Y-187885714D01*
X257376190Y-187933333D01*
X257423809Y-188028571D01*
X257423809Y-188123809D01*
X256947619Y-188219047D01*
X257852380Y-188552380D02*
X257852380Y-187885714D01*
X257852380Y-188076190D02*
X257900000Y-187980952D01*
X257947619Y-187933333D01*
X258042857Y-187885714D01*
X258138095Y-187885714D01*
X258423809Y-188504761D02*
X258519047Y-188552380D01*
X258709523Y-188552380D01*
X258804761Y-188504761D01*
X258852380Y-188409523D01*
X258852380Y-188361904D01*
X258804761Y-188266666D01*
X258709523Y-188219047D01*
X258566666Y-188219047D01*
X258471428Y-188171428D01*
X258423809Y-188076190D01*
X258423809Y-188028571D01*
X258471428Y-187933333D01*
X258566666Y-187885714D01*
X258709523Y-187885714D01*
X258804761Y-187933333D01*
X230300000Y-168066666D02*
X230776190Y-168066666D01*
X230204761Y-168352380D02*
X230538095Y-167352380D01*
X230871428Y-168352380D01*
X231204761Y-168352380D02*
X231204761Y-167685714D01*
X231204761Y-167876190D02*
X231252380Y-167780952D01*
X231300000Y-167733333D01*
X231395238Y-167685714D01*
X231490476Y-167685714D01*
X232204761Y-168304761D02*
X232109523Y-168352380D01*
X231919047Y-168352380D01*
X231823809Y-168304761D01*
X231776190Y-168209523D01*
X231776190Y-167828571D01*
X231823809Y-167733333D01*
X231919047Y-167685714D01*
X232109523Y-167685714D01*
X232204761Y-167733333D01*
X232252380Y-167828571D01*
X232252380Y-167923809D01*
X231776190Y-168019047D01*
X233109523Y-168352380D02*
X233109523Y-167828571D01*
X233061904Y-167733333D01*
X232966666Y-167685714D01*
X232776190Y-167685714D01*
X232680952Y-167733333D01*
X233109523Y-168304761D02*
X233014285Y-168352380D01*
X232776190Y-168352380D01*
X232680952Y-168304761D01*
X232633333Y-168209523D01*
X232633333Y-168114285D01*
X232680952Y-168019047D01*
X232776190Y-167971428D01*
X233014285Y-167971428D01*
X233109523Y-167923809D01*
X234776190Y-168352380D02*
X234776190Y-167352380D01*
X234776190Y-168304761D02*
X234680952Y-168352380D01*
X234490476Y-168352380D01*
X234395238Y-168304761D01*
X234347619Y-168257142D01*
X234300000Y-168161904D01*
X234300000Y-167876190D01*
X234347619Y-167780952D01*
X234395238Y-167733333D01*
X234490476Y-167685714D01*
X234680952Y-167685714D01*
X234776190Y-167733333D01*
X235252380Y-168352380D02*
X235252380Y-167685714D01*
X235252380Y-167876190D02*
X235300000Y-167780952D01*
X235347619Y-167733333D01*
X235442857Y-167685714D01*
X235538095Y-167685714D01*
X236300000Y-168352380D02*
X236300000Y-167828571D01*
X236252380Y-167733333D01*
X236157142Y-167685714D01*
X235966666Y-167685714D01*
X235871428Y-167733333D01*
X236300000Y-168304761D02*
X236204761Y-168352380D01*
X235966666Y-168352380D01*
X235871428Y-168304761D01*
X235823809Y-168209523D01*
X235823809Y-168114285D01*
X235871428Y-168019047D01*
X235966666Y-167971428D01*
X236204761Y-167971428D01*
X236300000Y-167923809D01*
X236680952Y-167685714D02*
X236871428Y-168352380D01*
X237061904Y-167876190D01*
X237252380Y-168352380D01*
X237442857Y-167685714D01*
X237823809Y-167685714D02*
X237823809Y-168352380D01*
X237823809Y-167780952D02*
X237871428Y-167733333D01*
X237966666Y-167685714D01*
X238109523Y-167685714D01*
X238204761Y-167733333D01*
X238252380Y-167828571D01*
X238252380Y-168352380D01*
X239490476Y-168352380D02*
X239490476Y-167352380D01*
X239490476Y-167733333D02*
X239585714Y-167685714D01*
X239776190Y-167685714D01*
X239871428Y-167733333D01*
X239919047Y-167780952D01*
X239966666Y-167876190D01*
X239966666Y-168161904D01*
X239919047Y-168257142D01*
X239871428Y-168304761D01*
X239776190Y-168352380D01*
X239585714Y-168352380D01*
X239490476Y-168304761D01*
X240538095Y-168352380D02*
X240442857Y-168304761D01*
X240395238Y-168257142D01*
X240347619Y-168161904D01*
X240347619Y-167876190D01*
X240395238Y-167780952D01*
X240442857Y-167733333D01*
X240538095Y-167685714D01*
X240680952Y-167685714D01*
X240776190Y-167733333D01*
X240823809Y-167780952D01*
X240871428Y-167876190D01*
X240871428Y-168161904D01*
X240823809Y-168257142D01*
X240776190Y-168304761D01*
X240680952Y-168352380D01*
X240538095Y-168352380D01*
X241157142Y-167685714D02*
X241538095Y-167685714D01*
X241300000Y-167352380D02*
X241300000Y-168209523D01*
X241347619Y-168304761D01*
X241442857Y-168352380D01*
X241538095Y-168352380D01*
X241871428Y-168352380D02*
X241871428Y-167352380D01*
X242300000Y-168352380D02*
X242300000Y-167828571D01*
X242252380Y-167733333D01*
X242157142Y-167685714D01*
X242014285Y-167685714D01*
X241919047Y-167733333D01*
X241871428Y-167780952D01*
X243538095Y-168352380D02*
X243538095Y-167685714D01*
X243538095Y-167352380D02*
X243490476Y-167400000D01*
X243538095Y-167447619D01*
X243585714Y-167400000D01*
X243538095Y-167352380D01*
X243538095Y-167447619D01*
X244014285Y-167685714D02*
X244014285Y-168352380D01*
X244014285Y-167780952D02*
X244061904Y-167733333D01*
X244157142Y-167685714D01*
X244300000Y-167685714D01*
X244395238Y-167733333D01*
X244442857Y-167828571D01*
X244442857Y-168352380D01*
X246252380Y-168257142D02*
X246204761Y-168304761D01*
X246061904Y-168352380D01*
X245966666Y-168352380D01*
X245823809Y-168304761D01*
X245728571Y-168209523D01*
X245680952Y-168114285D01*
X245633333Y-167923809D01*
X245633333Y-167780952D01*
X245680952Y-167590476D01*
X245728571Y-167495238D01*
X245823809Y-167400000D01*
X245966666Y-167352380D01*
X246061904Y-167352380D01*
X246204761Y-167400000D01*
X246252380Y-167447619D01*
X247109523Y-167685714D02*
X247109523Y-168352380D01*
X246680952Y-167685714D02*
X246680952Y-168209523D01*
X246728571Y-168304761D01*
X246823809Y-168352380D01*
X246966666Y-168352380D01*
X247061904Y-168304761D01*
X247109523Y-168257142D01*
X248776190Y-168352380D02*
X248776190Y-167828571D01*
X248728571Y-167733333D01*
X248633333Y-167685714D01*
X248442857Y-167685714D01*
X248347619Y-167733333D01*
X248776190Y-168304761D02*
X248680952Y-168352380D01*
X248442857Y-168352380D01*
X248347619Y-168304761D01*
X248300000Y-168209523D01*
X248300000Y-168114285D01*
X248347619Y-168019047D01*
X248442857Y-167971428D01*
X248680952Y-167971428D01*
X248776190Y-167923809D01*
X249252380Y-167685714D02*
X249252380Y-168352380D01*
X249252380Y-167780952D02*
X249300000Y-167733333D01*
X249395238Y-167685714D01*
X249538095Y-167685714D01*
X249633333Y-167733333D01*
X249680952Y-167828571D01*
X249680952Y-168352380D01*
X250585714Y-168352380D02*
X250585714Y-167352380D01*
X250585714Y-168304761D02*
X250490476Y-168352380D01*
X250300000Y-168352380D01*
X250204761Y-168304761D01*
X250157142Y-168257142D01*
X250109523Y-168161904D01*
X250109523Y-167876190D01*
X250157142Y-167780952D01*
X250204761Y-167733333D01*
X250300000Y-167685714D01*
X250490476Y-167685714D01*
X250585714Y-167733333D01*
X251823809Y-168352380D02*
X251823809Y-167352380D01*
X252157142Y-168066666D01*
X252490476Y-167352380D01*
X252490476Y-168352380D01*
X253395238Y-168352380D02*
X253395238Y-167828571D01*
X253347619Y-167733333D01*
X253252380Y-167685714D01*
X253061904Y-167685714D01*
X252966666Y-167733333D01*
X253395238Y-168304761D02*
X253300000Y-168352380D01*
X253061904Y-168352380D01*
X252966666Y-168304761D01*
X252919047Y-168209523D01*
X252919047Y-168114285D01*
X252966666Y-168019047D01*
X253061904Y-167971428D01*
X253300000Y-167971428D01*
X253395238Y-167923809D01*
X253823809Y-168304761D02*
X253919047Y-168352380D01*
X254109523Y-168352380D01*
X254204761Y-168304761D01*
X254252380Y-168209523D01*
X254252380Y-168161904D01*
X254204761Y-168066666D01*
X254109523Y-168019047D01*
X253966666Y-168019047D01*
X253871428Y-167971428D01*
X253823809Y-167876190D01*
X253823809Y-167828571D01*
X253871428Y-167733333D01*
X253966666Y-167685714D01*
X254109523Y-167685714D01*
X254204761Y-167733333D01*
X254680952Y-168352380D02*
X254680952Y-167352380D01*
X254776190Y-167971428D02*
X255061904Y-168352380D01*
X255061904Y-167685714D02*
X254680952Y-168066666D01*
X256395238Y-168352380D02*
X256300000Y-168304761D01*
X256252380Y-168209523D01*
X256252380Y-167352380D01*
X257204761Y-168352380D02*
X257204761Y-167828571D01*
X257157142Y-167733333D01*
X257061904Y-167685714D01*
X256871428Y-167685714D01*
X256776190Y-167733333D01*
X257204761Y-168304761D02*
X257109523Y-168352380D01*
X256871428Y-168352380D01*
X256776190Y-168304761D01*
X256728571Y-168209523D01*
X256728571Y-168114285D01*
X256776190Y-168019047D01*
X256871428Y-167971428D01*
X257109523Y-167971428D01*
X257204761Y-167923809D01*
X257585714Y-167685714D02*
X257823809Y-168352380D01*
X258061904Y-167685714D02*
X257823809Y-168352380D01*
X257728571Y-168590476D01*
X257680952Y-168638095D01*
X257585714Y-168685714D01*
X258823809Y-168304761D02*
X258728571Y-168352380D01*
X258538095Y-168352380D01*
X258442857Y-168304761D01*
X258395238Y-168209523D01*
X258395238Y-167828571D01*
X258442857Y-167733333D01*
X258538095Y-167685714D01*
X258728571Y-167685714D01*
X258823809Y-167733333D01*
X258871428Y-167828571D01*
X258871428Y-167923809D01*
X258395238Y-168019047D01*
X259300000Y-168352380D02*
X259300000Y-167685714D01*
X259300000Y-167876190D02*
X259347619Y-167780952D01*
X259395238Y-167733333D01*
X259490476Y-167685714D01*
X259585714Y-167685714D01*
X259871428Y-168304761D02*
X259966666Y-168352380D01*
X260157142Y-168352380D01*
X260252380Y-168304761D01*
X260300000Y-168209523D01*
X260300000Y-168161904D01*
X260252380Y-168066666D01*
X260157142Y-168019047D01*
X260014285Y-168019047D01*
X259919047Y-167971428D01*
X259871428Y-167876190D01*
X259871428Y-167828571D01*
X259919047Y-167733333D01*
X260014285Y-167685714D01*
X260157142Y-167685714D01*
X260252380Y-167733333D01*
X149623809Y-60866666D02*
X150100000Y-60866666D01*
X149528571Y-61152380D02*
X149861904Y-60152380D01*
X150195238Y-61152380D01*
X150528571Y-61152380D02*
X150528571Y-60485714D01*
X150528571Y-60676190D02*
X150576190Y-60580952D01*
X150623809Y-60533333D01*
X150719047Y-60485714D01*
X150814285Y-60485714D01*
X151528571Y-61104761D02*
X151433333Y-61152380D01*
X151242857Y-61152380D01*
X151147619Y-61104761D01*
X151100000Y-61009523D01*
X151100000Y-60628571D01*
X151147619Y-60533333D01*
X151242857Y-60485714D01*
X151433333Y-60485714D01*
X151528571Y-60533333D01*
X151576190Y-60628571D01*
X151576190Y-60723809D01*
X151100000Y-60819047D01*
X152433333Y-61152380D02*
X152433333Y-60628571D01*
X152385714Y-60533333D01*
X152290476Y-60485714D01*
X152100000Y-60485714D01*
X152004761Y-60533333D01*
X152433333Y-61104761D02*
X152338095Y-61152380D01*
X152100000Y-61152380D01*
X152004761Y-61104761D01*
X151957142Y-61009523D01*
X151957142Y-60914285D01*
X152004761Y-60819047D01*
X152100000Y-60771428D01*
X152338095Y-60771428D01*
X152433333Y-60723809D01*
X154100000Y-61152380D02*
X154100000Y-60152380D01*
X154100000Y-61104761D02*
X154004761Y-61152380D01*
X153814285Y-61152380D01*
X153719047Y-61104761D01*
X153671428Y-61057142D01*
X153623809Y-60961904D01*
X153623809Y-60676190D01*
X153671428Y-60580952D01*
X153719047Y-60533333D01*
X153814285Y-60485714D01*
X154004761Y-60485714D01*
X154100000Y-60533333D01*
X154576190Y-61152380D02*
X154576190Y-60485714D01*
X154576190Y-60676190D02*
X154623809Y-60580952D01*
X154671428Y-60533333D01*
X154766666Y-60485714D01*
X154861904Y-60485714D01*
X155623809Y-61152380D02*
X155623809Y-60628571D01*
X155576190Y-60533333D01*
X155480952Y-60485714D01*
X155290476Y-60485714D01*
X155195238Y-60533333D01*
X155623809Y-61104761D02*
X155528571Y-61152380D01*
X155290476Y-61152380D01*
X155195238Y-61104761D01*
X155147619Y-61009523D01*
X155147619Y-60914285D01*
X155195238Y-60819047D01*
X155290476Y-60771428D01*
X155528571Y-60771428D01*
X155623809Y-60723809D01*
X156004761Y-60485714D02*
X156195238Y-61152380D01*
X156385714Y-60676190D01*
X156576190Y-61152380D01*
X156766666Y-60485714D01*
X157147619Y-60485714D02*
X157147619Y-61152380D01*
X157147619Y-60580952D02*
X157195238Y-60533333D01*
X157290476Y-60485714D01*
X157433333Y-60485714D01*
X157528571Y-60533333D01*
X157576190Y-60628571D01*
X157576190Y-61152380D01*
X158814285Y-61152380D02*
X158814285Y-60152380D01*
X158814285Y-60533333D02*
X158909523Y-60485714D01*
X159100000Y-60485714D01*
X159195238Y-60533333D01*
X159242857Y-60580952D01*
X159290476Y-60676190D01*
X159290476Y-60961904D01*
X159242857Y-61057142D01*
X159195238Y-61104761D01*
X159100000Y-61152380D01*
X158909523Y-61152380D01*
X158814285Y-61104761D01*
X159861904Y-61152380D02*
X159766666Y-61104761D01*
X159719047Y-61057142D01*
X159671428Y-60961904D01*
X159671428Y-60676190D01*
X159719047Y-60580952D01*
X159766666Y-60533333D01*
X159861904Y-60485714D01*
X160004761Y-60485714D01*
X160100000Y-60533333D01*
X160147619Y-60580952D01*
X160195238Y-60676190D01*
X160195238Y-60961904D01*
X160147619Y-61057142D01*
X160100000Y-61104761D01*
X160004761Y-61152380D01*
X159861904Y-61152380D01*
X160480952Y-60485714D02*
X160861904Y-60485714D01*
X160623809Y-60152380D02*
X160623809Y-61009523D01*
X160671428Y-61104761D01*
X160766666Y-61152380D01*
X160861904Y-61152380D01*
X161195238Y-61152380D02*
X161195238Y-60152380D01*
X161623809Y-61152380D02*
X161623809Y-60628571D01*
X161576190Y-60533333D01*
X161480952Y-60485714D01*
X161338095Y-60485714D01*
X161242857Y-60533333D01*
X161195238Y-60580952D01*
X162861904Y-61152380D02*
X162861904Y-60485714D01*
X162861904Y-60152380D02*
X162814285Y-60200000D01*
X162861904Y-60247619D01*
X162909523Y-60200000D01*
X162861904Y-60152380D01*
X162861904Y-60247619D01*
X163338095Y-60485714D02*
X163338095Y-61152380D01*
X163338095Y-60580952D02*
X163385714Y-60533333D01*
X163480952Y-60485714D01*
X163623809Y-60485714D01*
X163719047Y-60533333D01*
X163766666Y-60628571D01*
X163766666Y-61152380D01*
X165004761Y-61152380D02*
X165004761Y-60152380D01*
X165338095Y-60866666D01*
X165671428Y-60152380D01*
X165671428Y-61152380D01*
X166576190Y-61152380D02*
X166576190Y-60628571D01*
X166528571Y-60533333D01*
X166433333Y-60485714D01*
X166242857Y-60485714D01*
X166147619Y-60533333D01*
X166576190Y-61104761D02*
X166480952Y-61152380D01*
X166242857Y-61152380D01*
X166147619Y-61104761D01*
X166100000Y-61009523D01*
X166100000Y-60914285D01*
X166147619Y-60819047D01*
X166242857Y-60771428D01*
X166480952Y-60771428D01*
X166576190Y-60723809D01*
X167004761Y-61104761D02*
X167100000Y-61152380D01*
X167290476Y-61152380D01*
X167385714Y-61104761D01*
X167433333Y-61009523D01*
X167433333Y-60961904D01*
X167385714Y-60866666D01*
X167290476Y-60819047D01*
X167147619Y-60819047D01*
X167052380Y-60771428D01*
X167004761Y-60676190D01*
X167004761Y-60628571D01*
X167052380Y-60533333D01*
X167147619Y-60485714D01*
X167290476Y-60485714D01*
X167385714Y-60533333D01*
X167861904Y-61152380D02*
X167861904Y-60152380D01*
X167957142Y-60771428D02*
X168242857Y-61152380D01*
X168242857Y-60485714D02*
X167861904Y-60866666D01*
X169576190Y-61152380D02*
X169480952Y-61104761D01*
X169433333Y-61009523D01*
X169433333Y-60152380D01*
X170385714Y-61152380D02*
X170385714Y-60628571D01*
X170338095Y-60533333D01*
X170242857Y-60485714D01*
X170052380Y-60485714D01*
X169957142Y-60533333D01*
X170385714Y-61104761D02*
X170290476Y-61152380D01*
X170052380Y-61152380D01*
X169957142Y-61104761D01*
X169909523Y-61009523D01*
X169909523Y-60914285D01*
X169957142Y-60819047D01*
X170052380Y-60771428D01*
X170290476Y-60771428D01*
X170385714Y-60723809D01*
X170766666Y-60485714D02*
X171004761Y-61152380D01*
X171242857Y-60485714D02*
X171004761Y-61152380D01*
X170909523Y-61390476D01*
X170861904Y-61438095D01*
X170766666Y-61485714D01*
X172004761Y-61104761D02*
X171909523Y-61152380D01*
X171719047Y-61152380D01*
X171623809Y-61104761D01*
X171576190Y-61009523D01*
X171576190Y-60628571D01*
X171623809Y-60533333D01*
X171719047Y-60485714D01*
X171909523Y-60485714D01*
X172004761Y-60533333D01*
X172052380Y-60628571D01*
X172052380Y-60723809D01*
X171576190Y-60819047D01*
X172480952Y-61152380D02*
X172480952Y-60485714D01*
X172480952Y-60676190D02*
X172528571Y-60580952D01*
X172576190Y-60533333D01*
X172671428Y-60485714D01*
X172766666Y-60485714D01*
X173052380Y-61104761D02*
X173147619Y-61152380D01*
X173338095Y-61152380D01*
X173433333Y-61104761D01*
X173480952Y-61009523D01*
X173480952Y-60961904D01*
X173433333Y-60866666D01*
X173338095Y-60819047D01*
X173195238Y-60819047D01*
X173100000Y-60771428D01*
X173052380Y-60676190D01*
X173052380Y-60628571D01*
X173100000Y-60533333D01*
X173195238Y-60485714D01*
X173338095Y-60485714D01*
X173433333Y-60533333D01*
X174671428Y-61152380D02*
X174671428Y-60152380D01*
X174671428Y-60533333D02*
X174766666Y-60485714D01*
X174957142Y-60485714D01*
X175052380Y-60533333D01*
X175100000Y-60580952D01*
X175147619Y-60676190D01*
X175147619Y-60961904D01*
X175100000Y-61057142D01*
X175052380Y-61104761D01*
X174957142Y-61152380D01*
X174766666Y-61152380D01*
X174671428Y-61104761D01*
X176004761Y-60485714D02*
X176004761Y-61152380D01*
X175576190Y-60485714D02*
X175576190Y-61009523D01*
X175623809Y-61104761D01*
X175719047Y-61152380D01*
X175861904Y-61152380D01*
X175957142Y-61104761D01*
X176004761Y-61057142D01*
X176338095Y-60485714D02*
X176719047Y-60485714D01*
X176480952Y-60152380D02*
X176480952Y-61009523D01*
X176528571Y-61104761D01*
X176623809Y-61152380D01*
X176719047Y-61152380D01*
X177814285Y-60485714D02*
X177814285Y-61152380D01*
X177814285Y-60580952D02*
X177861904Y-60533333D01*
X177957142Y-60485714D01*
X178100000Y-60485714D01*
X178195238Y-60533333D01*
X178242857Y-60628571D01*
X178242857Y-61152380D01*
X178861904Y-61152380D02*
X178766666Y-61104761D01*
X178719047Y-61057142D01*
X178671428Y-60961904D01*
X178671428Y-60676190D01*
X178719047Y-60580952D01*
X178766666Y-60533333D01*
X178861904Y-60485714D01*
X179004761Y-60485714D01*
X179100000Y-60533333D01*
X179147619Y-60580952D01*
X179195238Y-60676190D01*
X179195238Y-60961904D01*
X179147619Y-61057142D01*
X179100000Y-61104761D01*
X179004761Y-61152380D01*
X178861904Y-61152380D01*
X179480952Y-60485714D02*
X179861904Y-60485714D01*
X179623809Y-60152380D02*
X179623809Y-61009523D01*
X179671428Y-61104761D01*
X179766666Y-61152380D01*
X179861904Y-61152380D01*
X180957142Y-61152380D02*
X180957142Y-60485714D01*
X180957142Y-60152380D02*
X180909523Y-60200000D01*
X180957142Y-60247619D01*
X181004761Y-60200000D01*
X180957142Y-60152380D01*
X180957142Y-60247619D01*
X181433333Y-60485714D02*
X181433333Y-61152380D01*
X181433333Y-60580952D02*
X181480952Y-60533333D01*
X181576190Y-60485714D01*
X181719047Y-60485714D01*
X181814285Y-60533333D01*
X181861904Y-60628571D01*
X181861904Y-61152380D01*
X183671428Y-61057142D02*
X183623809Y-61104761D01*
X183480952Y-61152380D01*
X183385714Y-61152380D01*
X183242857Y-61104761D01*
X183147619Y-61009523D01*
X183100000Y-60914285D01*
X183052380Y-60723809D01*
X183052380Y-60580952D01*
X183100000Y-60390476D01*
X183147619Y-60295238D01*
X183242857Y-60200000D01*
X183385714Y-60152380D01*
X183480952Y-60152380D01*
X183623809Y-60200000D01*
X183671428Y-60247619D01*
X184528571Y-60485714D02*
X184528571Y-61152380D01*
X184100000Y-60485714D02*
X184100000Y-61009523D01*
X184147619Y-61104761D01*
X184242857Y-61152380D01*
X184385714Y-61152380D01*
X184480952Y-61104761D01*
X184528571Y-61057142D01*
X31504761Y-213152380D02*
X31504761Y-212152380D01*
X32076190Y-213152380D01*
X32076190Y-212152380D01*
X32695238Y-213152380D02*
X32600000Y-213104761D01*
X32552380Y-213057142D01*
X32504761Y-212961904D01*
X32504761Y-212676190D01*
X32552380Y-212580952D01*
X32600000Y-212533333D01*
X32695238Y-212485714D01*
X32838095Y-212485714D01*
X32933333Y-212533333D01*
X32980952Y-212580952D01*
X33028571Y-212676190D01*
X33028571Y-212961904D01*
X32980952Y-213057142D01*
X32933333Y-213104761D01*
X32838095Y-213152380D01*
X32695238Y-213152380D01*
X33314285Y-212485714D02*
X33695238Y-212485714D01*
X33457142Y-212152380D02*
X33457142Y-213009523D01*
X33504761Y-213104761D01*
X33600000Y-213152380D01*
X33695238Y-213152380D01*
X34409523Y-213104761D02*
X34314285Y-213152380D01*
X34123809Y-213152380D01*
X34028571Y-213104761D01*
X33980952Y-213009523D01*
X33980952Y-212628571D01*
X34028571Y-212533333D01*
X34123809Y-212485714D01*
X34314285Y-212485714D01*
X34409523Y-212533333D01*
X34457142Y-212628571D01*
X34457142Y-212723809D01*
X33980952Y-212819047D01*
X34838095Y-213104761D02*
X34933333Y-213152380D01*
X35123809Y-213152380D01*
X35219047Y-213104761D01*
X35266666Y-213009523D01*
X35266666Y-212961904D01*
X35219047Y-212866666D01*
X35123809Y-212819047D01*
X34980952Y-212819047D01*
X34885714Y-212771428D01*
X34838095Y-212676190D01*
X34838095Y-212628571D01*
X34885714Y-212533333D01*
X34980952Y-212485714D01*
X35123809Y-212485714D01*
X35219047Y-212533333D01*
X35695238Y-213057142D02*
X35742857Y-213104761D01*
X35695238Y-213152380D01*
X35647619Y-213104761D01*
X35695238Y-213057142D01*
X35695238Y-213152380D01*
X35695238Y-212533333D02*
X35742857Y-212580952D01*
X35695238Y-212628571D01*
X35647619Y-212580952D01*
X35695238Y-212533333D01*
X35695238Y-212628571D01*
X93300000Y-37866666D02*
X93776190Y-37866666D01*
X93204761Y-38152380D02*
X93538095Y-37152380D01*
X93871428Y-38152380D01*
X94204761Y-38152380D02*
X94204761Y-37485714D01*
X94204761Y-37676190D02*
X94252380Y-37580952D01*
X94300000Y-37533333D01*
X94395238Y-37485714D01*
X94490476Y-37485714D01*
X95204761Y-38104761D02*
X95109523Y-38152380D01*
X94919047Y-38152380D01*
X94823809Y-38104761D01*
X94776190Y-38009523D01*
X94776190Y-37628571D01*
X94823809Y-37533333D01*
X94919047Y-37485714D01*
X95109523Y-37485714D01*
X95204761Y-37533333D01*
X95252380Y-37628571D01*
X95252380Y-37723809D01*
X94776190Y-37819047D01*
X96109523Y-38152380D02*
X96109523Y-37628571D01*
X96061904Y-37533333D01*
X95966666Y-37485714D01*
X95776190Y-37485714D01*
X95680952Y-37533333D01*
X96109523Y-38104761D02*
X96014285Y-38152380D01*
X95776190Y-38152380D01*
X95680952Y-38104761D01*
X95633333Y-38009523D01*
X95633333Y-37914285D01*
X95680952Y-37819047D01*
X95776190Y-37771428D01*
X96014285Y-37771428D01*
X96109523Y-37723809D01*
X97776190Y-38152380D02*
X97776190Y-37152380D01*
X97776190Y-38104761D02*
X97680952Y-38152380D01*
X97490476Y-38152380D01*
X97395238Y-38104761D01*
X97347619Y-38057142D01*
X97300000Y-37961904D01*
X97300000Y-37676190D01*
X97347619Y-37580952D01*
X97395238Y-37533333D01*
X97490476Y-37485714D01*
X97680952Y-37485714D01*
X97776190Y-37533333D01*
X98252380Y-38152380D02*
X98252380Y-37485714D01*
X98252380Y-37676190D02*
X98300000Y-37580952D01*
X98347619Y-37533333D01*
X98442857Y-37485714D01*
X98538095Y-37485714D01*
X99300000Y-38152380D02*
X99300000Y-37628571D01*
X99252380Y-37533333D01*
X99157142Y-37485714D01*
X98966666Y-37485714D01*
X98871428Y-37533333D01*
X99300000Y-38104761D02*
X99204761Y-38152380D01*
X98966666Y-38152380D01*
X98871428Y-38104761D01*
X98823809Y-38009523D01*
X98823809Y-37914285D01*
X98871428Y-37819047D01*
X98966666Y-37771428D01*
X99204761Y-37771428D01*
X99300000Y-37723809D01*
X99680952Y-37485714D02*
X99871428Y-38152380D01*
X100061904Y-37676190D01*
X100252380Y-38152380D01*
X100442857Y-37485714D01*
X100823809Y-37485714D02*
X100823809Y-38152380D01*
X100823809Y-37580952D02*
X100871428Y-37533333D01*
X100966666Y-37485714D01*
X101109523Y-37485714D01*
X101204761Y-37533333D01*
X101252380Y-37628571D01*
X101252380Y-38152380D01*
X102490476Y-38152380D02*
X102490476Y-37152380D01*
X102490476Y-37533333D02*
X102585714Y-37485714D01*
X102776190Y-37485714D01*
X102871428Y-37533333D01*
X102919047Y-37580952D01*
X102966666Y-37676190D01*
X102966666Y-37961904D01*
X102919047Y-38057142D01*
X102871428Y-38104761D01*
X102776190Y-38152380D01*
X102585714Y-38152380D01*
X102490476Y-38104761D01*
X103538095Y-38152380D02*
X103442857Y-38104761D01*
X103395238Y-38057142D01*
X103347619Y-37961904D01*
X103347619Y-37676190D01*
X103395238Y-37580952D01*
X103442857Y-37533333D01*
X103538095Y-37485714D01*
X103680952Y-37485714D01*
X103776190Y-37533333D01*
X103823809Y-37580952D01*
X103871428Y-37676190D01*
X103871428Y-37961904D01*
X103823809Y-38057142D01*
X103776190Y-38104761D01*
X103680952Y-38152380D01*
X103538095Y-38152380D01*
X104157142Y-37485714D02*
X104538095Y-37485714D01*
X104300000Y-37152380D02*
X104300000Y-38009523D01*
X104347619Y-38104761D01*
X104442857Y-38152380D01*
X104538095Y-38152380D01*
X104871428Y-38152380D02*
X104871428Y-37152380D01*
X105300000Y-38152380D02*
X105300000Y-37628571D01*
X105252380Y-37533333D01*
X105157142Y-37485714D01*
X105014285Y-37485714D01*
X104919047Y-37533333D01*
X104871428Y-37580952D01*
X106538095Y-38152380D02*
X106538095Y-37485714D01*
X106538095Y-37152380D02*
X106490476Y-37200000D01*
X106538095Y-37247619D01*
X106585714Y-37200000D01*
X106538095Y-37152380D01*
X106538095Y-37247619D01*
X107014285Y-37485714D02*
X107014285Y-38152380D01*
X107014285Y-37580952D02*
X107061904Y-37533333D01*
X107157142Y-37485714D01*
X107300000Y-37485714D01*
X107395238Y-37533333D01*
X107442857Y-37628571D01*
X107442857Y-38152380D01*
X109252380Y-38057142D02*
X109204761Y-38104761D01*
X109061904Y-38152380D01*
X108966666Y-38152380D01*
X108823809Y-38104761D01*
X108728571Y-38009523D01*
X108680952Y-37914285D01*
X108633333Y-37723809D01*
X108633333Y-37580952D01*
X108680952Y-37390476D01*
X108728571Y-37295238D01*
X108823809Y-37200000D01*
X108966666Y-37152380D01*
X109061904Y-37152380D01*
X109204761Y-37200000D01*
X109252380Y-37247619D01*
X110109523Y-37485714D02*
X110109523Y-38152380D01*
X109680952Y-37485714D02*
X109680952Y-38009523D01*
X109728571Y-38104761D01*
X109823809Y-38152380D01*
X109966666Y-38152380D01*
X110061904Y-38104761D01*
X110109523Y-38057142D01*
X111776190Y-38152380D02*
X111776190Y-37628571D01*
X111728571Y-37533333D01*
X111633333Y-37485714D01*
X111442857Y-37485714D01*
X111347619Y-37533333D01*
X111776190Y-38104761D02*
X111680952Y-38152380D01*
X111442857Y-38152380D01*
X111347619Y-38104761D01*
X111300000Y-38009523D01*
X111300000Y-37914285D01*
X111347619Y-37819047D01*
X111442857Y-37771428D01*
X111680952Y-37771428D01*
X111776190Y-37723809D01*
X112252380Y-37485714D02*
X112252380Y-38152380D01*
X112252380Y-37580952D02*
X112300000Y-37533333D01*
X112395238Y-37485714D01*
X112538095Y-37485714D01*
X112633333Y-37533333D01*
X112680952Y-37628571D01*
X112680952Y-38152380D01*
X113585714Y-38152380D02*
X113585714Y-37152380D01*
X113585714Y-38104761D02*
X113490476Y-38152380D01*
X113299999Y-38152380D01*
X113204761Y-38104761D01*
X113157142Y-38057142D01*
X113109523Y-37961904D01*
X113109523Y-37676190D01*
X113157142Y-37580952D01*
X113204761Y-37533333D01*
X113299999Y-37485714D01*
X113490476Y-37485714D01*
X113585714Y-37533333D01*
X114823809Y-38152380D02*
X114823809Y-37152380D01*
X115157142Y-37866666D01*
X115490476Y-37152380D01*
X115490476Y-38152380D01*
X116395238Y-38152380D02*
X116395238Y-37628571D01*
X116347619Y-37533333D01*
X116252380Y-37485714D01*
X116061904Y-37485714D01*
X115966666Y-37533333D01*
X116395238Y-38104761D02*
X116299999Y-38152380D01*
X116061904Y-38152380D01*
X115966666Y-38104761D01*
X115919047Y-38009523D01*
X115919047Y-37914285D01*
X115966666Y-37819047D01*
X116061904Y-37771428D01*
X116299999Y-37771428D01*
X116395238Y-37723809D01*
X116823809Y-38104761D02*
X116919047Y-38152380D01*
X117109523Y-38152380D01*
X117204761Y-38104761D01*
X117252380Y-38009523D01*
X117252380Y-37961904D01*
X117204761Y-37866666D01*
X117109523Y-37819047D01*
X116966666Y-37819047D01*
X116871428Y-37771428D01*
X116823809Y-37676190D01*
X116823809Y-37628571D01*
X116871428Y-37533333D01*
X116966666Y-37485714D01*
X117109523Y-37485714D01*
X117204761Y-37533333D01*
X117680952Y-38152380D02*
X117680952Y-37152380D01*
X117776190Y-37771428D02*
X118061904Y-38152380D01*
X118061904Y-37485714D02*
X117680952Y-37866666D01*
X119395238Y-38152380D02*
X119299999Y-38104761D01*
X119252380Y-38009523D01*
X119252380Y-37152380D01*
X120204761Y-38152380D02*
X120204761Y-37628571D01*
X120157142Y-37533333D01*
X120061904Y-37485714D01*
X119871428Y-37485714D01*
X119776190Y-37533333D01*
X120204761Y-38104761D02*
X120109523Y-38152380D01*
X119871428Y-38152380D01*
X119776190Y-38104761D01*
X119728571Y-38009523D01*
X119728571Y-37914285D01*
X119776190Y-37819047D01*
X119871428Y-37771428D01*
X120109523Y-37771428D01*
X120204761Y-37723809D01*
X120585714Y-37485714D02*
X120823809Y-38152380D01*
X121061904Y-37485714D02*
X120823809Y-38152380D01*
X120728571Y-38390476D01*
X120680952Y-38438095D01*
X120585714Y-38485714D01*
X121823809Y-38104761D02*
X121728571Y-38152380D01*
X121538095Y-38152380D01*
X121442857Y-38104761D01*
X121395238Y-38009523D01*
X121395238Y-37628571D01*
X121442857Y-37533333D01*
X121538095Y-37485714D01*
X121728571Y-37485714D01*
X121823809Y-37533333D01*
X121871428Y-37628571D01*
X121871428Y-37723809D01*
X121395238Y-37819047D01*
X122299999Y-38152380D02*
X122299999Y-37485714D01*
X122299999Y-37676190D02*
X122347619Y-37580952D01*
X122395238Y-37533333D01*
X122490476Y-37485714D01*
X122585714Y-37485714D01*
X122871428Y-38104761D02*
X122966666Y-38152380D01*
X123157142Y-38152380D01*
X123252380Y-38104761D01*
X123299999Y-38009523D01*
X123299999Y-37961904D01*
X123252380Y-37866666D01*
X123157142Y-37819047D01*
X123014285Y-37819047D01*
X122919047Y-37771428D01*
X122871428Y-37676190D01*
X122871428Y-37628571D01*
X122919047Y-37533333D01*
X123014285Y-37485714D01*
X123157142Y-37485714D01*
X123252380Y-37533333D01*
X90000000Y-224000000D02*
X90000000Y-210000000D01*
X153000000Y-224000000D02*
X90000000Y-224000000D01*
X153000000Y-227000000D02*
X153000000Y-224000000D01*
X153000000Y-249000000D02*
X153000000Y-227000000D01*
X90000000Y-249000000D02*
X153000000Y-249000000D01*
X30000000Y-249000000D02*
X30000000Y-210000000D01*
X90000000Y-249000000D02*
X30000000Y-249000000D01*
X30000000Y-210000000D02*
X90000000Y-210000000D01*
D12*
%TO.C,U6*%
X217940000Y-126460000D02*
X217940000Y-131180000D01*
X217940000Y-131180000D02*
X224060000Y-131180000D01*
X224060000Y-131180000D02*
X224060000Y-126460000D01*
X224060000Y-126460000D02*
X217940000Y-126460000D01*
X219700000Y-126460000D02*
X219700000Y-126260000D01*
X219700000Y-126260000D02*
X219400000Y-126260000D01*
X219400000Y-126260000D02*
X219400000Y-126460000D01*
X219700000Y-126360000D02*
X219400000Y-126360000D01*
X220500000Y-126460000D02*
X220500000Y-127070000D01*
X220500000Y-127070000D02*
X218550000Y-127070000D01*
X218550000Y-127070000D02*
X218550000Y-130570000D01*
X218550000Y-130570000D02*
X223450000Y-130570000D01*
X223450000Y-130570000D02*
X223450000Y-127070000D01*
X223450000Y-127070000D02*
X221500000Y-127070000D01*
X221500000Y-127070000D02*
X221500000Y-126460000D01*
X217940000Y-127770000D02*
X218550000Y-127770000D01*
X217940000Y-129070000D02*
X218550000Y-129070000D01*
X224060000Y-127770000D02*
X223450000Y-127770000D01*
X224060000Y-129070000D02*
X223450000Y-129070000D01*
X220900000Y-130570000D02*
X220900000Y-130070000D01*
X220900000Y-130070000D02*
X221100000Y-130070000D01*
X221100000Y-130070000D02*
X221100000Y-130570000D01*
X221000000Y-130570000D02*
X221000000Y-130070000D01*
X218890000Y-126160000D02*
X217640000Y-126160000D01*
X217640000Y-126160000D02*
X217640000Y-127410000D01*
X246100000Y-82000000D02*
G75*
G03*
X246100000Y-82000000I-25100000J0D01*
G01*
X205000000Y-98000000D02*
X205000000Y-66000000D01*
X205000000Y-98000000D02*
X237000000Y-98000000D01*
X237000000Y-98000000D02*
X237000000Y-66000000D01*
X237000000Y-66000000D02*
X205000000Y-66000000D01*
X242500000Y-82000000D02*
X199500000Y-82000000D01*
X221000000Y-103500000D02*
X221000000Y-60500000D01*
X225000000Y-133000000D02*
X217000000Y-133000000D01*
X217000000Y-133000000D02*
X217000000Y-110000000D01*
X217000000Y-110000000D02*
X195100000Y-110000000D01*
X195100000Y-110000000D02*
X195100000Y-53900000D01*
X195100000Y-53900000D02*
X246900000Y-53900000D01*
X246900000Y-53900000D02*
X246900000Y-110000000D01*
X246900000Y-110000000D02*
X225000000Y-110000000D01*
X225000000Y-110000000D02*
X225000000Y-133000000D01*
%TO.C,U12*%
X172000000Y-110000000D02*
X172000000Y-133000000D01*
X193900000Y-110000000D02*
X172000000Y-110000000D01*
X193900000Y-53900000D02*
X193900000Y-110000000D01*
X142100000Y-53900000D02*
X193900000Y-53900000D01*
X142100000Y-110000000D02*
X142100000Y-53900000D01*
X164000000Y-110000000D02*
X142100000Y-110000000D01*
X164000000Y-133000000D02*
X164000000Y-110000000D01*
X172000000Y-133000000D02*
X164000000Y-133000000D01*
X168000000Y-97700000D02*
X168000000Y-66300000D01*
X152300000Y-82000000D02*
X183700000Y-82000000D01*
X178500000Y-71500000D02*
X157500000Y-71500000D01*
X178500000Y-92500000D02*
X178500000Y-71500000D01*
X157500000Y-92500000D02*
X178500000Y-92500000D01*
X157500000Y-92500000D02*
X157500000Y-71500000D01*
X186100000Y-82000000D02*
G75*
G03*
X186100000Y-82000000I-18100000J0D01*
G01*
X164640000Y-126160000D02*
X164640000Y-127410000D01*
X165890000Y-126160000D02*
X164640000Y-126160000D01*
X168000000Y-130570000D02*
X168000000Y-130070000D01*
X168100000Y-130070000D02*
X168100000Y-130570000D01*
X167900000Y-130070000D02*
X168100000Y-130070000D01*
X167900000Y-130570000D02*
X167900000Y-130070000D01*
X171060000Y-129070000D02*
X170450000Y-129070000D01*
X171060000Y-127770000D02*
X170450000Y-127770000D01*
X164940000Y-129070000D02*
X165550000Y-129070000D01*
X164940000Y-127770000D02*
X165550000Y-127770000D01*
X168500000Y-127070000D02*
X168500000Y-126460000D01*
X170450000Y-127070000D02*
X168500000Y-127070000D01*
X170450000Y-130570000D02*
X170450000Y-127070000D01*
X165550000Y-130570000D02*
X170450000Y-130570000D01*
X165550000Y-127070000D02*
X165550000Y-130570000D01*
X167500000Y-127070000D02*
X165550000Y-127070000D01*
X167500000Y-126460000D02*
X167500000Y-127070000D01*
X166700000Y-126360000D02*
X166400000Y-126360000D01*
X166400000Y-126260000D02*
X166400000Y-126460000D01*
X166700000Y-126260000D02*
X166400000Y-126260000D01*
X166700000Y-126460000D02*
X166700000Y-126260000D01*
X171060000Y-126460000D02*
X164940000Y-126460000D01*
X171060000Y-131180000D02*
X171060000Y-126460000D01*
X164940000Y-131180000D02*
X171060000Y-131180000D01*
X164940000Y-126460000D02*
X164940000Y-131180000D01*
%TO.C,U15*%
X59660001Y-169139999D02*
X59660001Y-192139999D01*
X81560001Y-169139999D02*
X59660001Y-169139999D01*
X81560001Y-113039999D02*
X81560001Y-169139999D01*
X29760001Y-113039999D02*
X81560001Y-113039999D01*
X29760001Y-169139999D02*
X29760001Y-113039999D01*
X51660001Y-169139999D02*
X29760001Y-169139999D01*
X51660001Y-192139999D02*
X51660001Y-169139999D01*
X59660001Y-192139999D02*
X51660001Y-192139999D01*
X55660001Y-156839999D02*
X55660001Y-125439999D01*
X39960001Y-141139999D02*
X71360001Y-141139999D01*
X66160001Y-130639999D02*
X45160001Y-130639999D01*
X66160001Y-151639999D02*
X66160001Y-130639999D01*
X45160001Y-151639999D02*
X66160001Y-151639999D01*
X45160001Y-151639999D02*
X45160001Y-130639999D01*
X73760001Y-141139999D02*
G75*
G03*
X73760001Y-141139999I-18100000J0D01*
G01*
X52300001Y-185299999D02*
X52300001Y-186549999D01*
X53550001Y-185299999D02*
X52300001Y-185299999D01*
X55660001Y-189709999D02*
X55660001Y-189209999D01*
X55760001Y-189209999D02*
X55760001Y-189709999D01*
X55560001Y-189209999D02*
X55760001Y-189209999D01*
X55560001Y-189709999D02*
X55560001Y-189209999D01*
X58720001Y-188209999D02*
X58110001Y-188209999D01*
X58720001Y-186909999D02*
X58110001Y-186909999D01*
X52600001Y-188209999D02*
X53210001Y-188209999D01*
X52600001Y-186909999D02*
X53210001Y-186909999D01*
X56160001Y-186209999D02*
X56160001Y-185599999D01*
X58110001Y-186209999D02*
X56160001Y-186209999D01*
X58110001Y-189709999D02*
X58110001Y-186209999D01*
X53210001Y-189709999D02*
X58110001Y-189709999D01*
X53210001Y-186209999D02*
X53210001Y-189709999D01*
X55160001Y-186209999D02*
X53210001Y-186209999D01*
X55160001Y-185599999D02*
X55160001Y-186209999D01*
X54360001Y-185499999D02*
X54060001Y-185499999D01*
X54060001Y-185399999D02*
X54060001Y-185599999D01*
X54360001Y-185399999D02*
X54060001Y-185399999D01*
X54360001Y-185599999D02*
X54360001Y-185399999D01*
X58720001Y-185599999D02*
X52600001Y-185599999D01*
X58720001Y-190319999D02*
X58720001Y-185599999D01*
X52600001Y-190319999D02*
X58720001Y-190319999D01*
X52600001Y-185599999D02*
X52600001Y-190319999D01*
%TO.C,U13*%
X81000000Y-71000000D02*
X58000000Y-71000000D01*
X81000000Y-92900000D02*
X81000000Y-71000000D01*
X137100000Y-92900000D02*
X81000000Y-92900000D01*
X137100000Y-41100000D02*
X137100000Y-92900000D01*
X81000000Y-41100000D02*
X137100000Y-41100000D01*
X81000000Y-63000000D02*
X81000000Y-41100000D01*
X58000000Y-63000000D02*
X81000000Y-63000000D01*
X58000000Y-71000000D02*
X58000000Y-63000000D01*
X87500000Y-67000000D02*
X130500000Y-67000000D01*
X109000000Y-88500000D02*
X109000000Y-45500000D01*
X125000000Y-83000000D02*
X125000000Y-51000000D01*
X93000000Y-83000000D02*
X125000000Y-83000000D01*
X93000000Y-51000000D02*
X93000000Y-83000000D01*
X93000000Y-51000000D02*
X125000000Y-51000000D01*
X134100000Y-67000000D02*
G75*
G03*
X134100000Y-67000000I-25100000J0D01*
G01*
X64840000Y-63640000D02*
X63590000Y-63640000D01*
X64840000Y-64890000D02*
X64840000Y-63640000D01*
X60430000Y-67000000D02*
X60930000Y-67000000D01*
X60930000Y-67100000D02*
X60430000Y-67100000D01*
X60930000Y-66900000D02*
X60930000Y-67100000D01*
X60430000Y-66900000D02*
X60930000Y-66900000D01*
X61930000Y-70060000D02*
X61930000Y-69450000D01*
X63230000Y-70060000D02*
X63230000Y-69450000D01*
X61930000Y-63940000D02*
X61930000Y-64550000D01*
X63230000Y-63940000D02*
X63230000Y-64550000D01*
X63930000Y-67500000D02*
X64540000Y-67500000D01*
X63930000Y-69450000D02*
X63930000Y-67500000D01*
X60430000Y-69450000D02*
X63930000Y-69450000D01*
X60430000Y-64550000D02*
X60430000Y-69450000D01*
X63930000Y-64550000D02*
X60430000Y-64550000D01*
X63930000Y-66500000D02*
X63930000Y-64550000D01*
X64540000Y-66500000D02*
X63930000Y-66500000D01*
X64640000Y-65700000D02*
X64640000Y-65400000D01*
X64740000Y-65400000D02*
X64540000Y-65400000D01*
X64740000Y-65700000D02*
X64740000Y-65400000D01*
X64540000Y-65700000D02*
X64740000Y-65700000D01*
X64540000Y-70060000D02*
X64540000Y-63940000D01*
X59820000Y-70060000D02*
X64540000Y-70060000D01*
X59820000Y-63940000D02*
X59820000Y-70060000D01*
X64540000Y-63940000D02*
X59820000Y-63940000D01*
%TO.C,U18*%
X76000000Y-162000000D02*
X76000000Y-122000000D01*
X36000000Y-162000000D02*
X76000000Y-162000000D01*
X36000000Y-122000000D02*
X76000000Y-122000000D01*
X66000000Y-122000000D02*
X36000000Y-122000000D01*
X36000000Y-162000000D02*
X36000000Y-122000000D01*
X60000000Y-169000000D02*
X60000000Y-169508000D01*
X60508000Y-169000000D02*
X60000000Y-169000000D01*
X60508000Y-169254000D02*
X60508000Y-169000000D01*
X60508000Y-169482600D02*
X60508000Y-169254000D01*
X52380000Y-169000000D02*
X52380000Y-169508000D01*
X51872000Y-169000000D02*
X52380000Y-169000000D01*
X51872000Y-169508000D02*
X51872000Y-169000000D01*
X51110000Y-169508000D02*
X51110000Y-174588000D01*
X61270000Y-169508000D02*
X51110000Y-169508000D01*
X61270000Y-174588000D02*
X61270000Y-169508000D01*
X51110000Y-174588000D02*
X61270000Y-174588000D01*
%TO.C,D1*%
X200460000Y-161920000D02*
X200460000Y-161920000D01*
X200460000Y-161790000D02*
X200460000Y-161920000D01*
X200460000Y-161790000D02*
X200460000Y-161790000D01*
X200460000Y-161920000D02*
X200460000Y-161790000D01*
X203000000Y-161920000D02*
X203000000Y-161920000D01*
X203000000Y-161790000D02*
X203000000Y-161920000D01*
X203000000Y-161790000D02*
X203000000Y-161790000D01*
X203000000Y-161920000D02*
X203000000Y-161790000D01*
X200170000Y-161790000D02*
X199770000Y-161790000D01*
X200170000Y-160670000D02*
X200170000Y-161790000D01*
X199770000Y-160670000D02*
X200170000Y-160670000D01*
X199770000Y-161790000D02*
X199770000Y-160670000D01*
X203290000Y-161790000D02*
X200170000Y-161790000D01*
X200170000Y-161790000D02*
X200170000Y-157930000D01*
X203290000Y-161790000D02*
X203290000Y-157930000D01*
X200170000Y-157930000D02*
G75*
G02*
X203290000Y-157930000I1560000J0D01*
G01*
%TO.C,D2*%
X218870000Y-146530000D02*
X218870000Y-149470000D01*
X219110000Y-146530000D02*
X219110000Y-149470000D01*
X218990000Y-146530000D02*
X218990000Y-149470000D01*
X223530000Y-149470000D02*
X223530000Y-149340000D01*
X218090000Y-149470000D02*
X223530000Y-149470000D01*
X218090000Y-149340000D02*
X218090000Y-149470000D01*
X223530000Y-146530000D02*
X223530000Y-146660000D01*
X218090000Y-146530000D02*
X223530000Y-146530000D01*
X218090000Y-146660000D02*
X218090000Y-146530000D01*
%TO.C,D3*%
X195290000Y-155790000D02*
X195290000Y-151930000D01*
X192170000Y-155790000D02*
X192170000Y-151930000D01*
X195290000Y-155790000D02*
X192170000Y-155790000D01*
X191770000Y-155790000D02*
X191770000Y-154670000D01*
X191770000Y-154670000D02*
X192170000Y-154670000D01*
X192170000Y-154670000D02*
X192170000Y-155790000D01*
X192170000Y-155790000D02*
X191770000Y-155790000D01*
X195000000Y-155920000D02*
X195000000Y-155790000D01*
X195000000Y-155790000D02*
X195000000Y-155790000D01*
X195000000Y-155790000D02*
X195000000Y-155920000D01*
X195000000Y-155920000D02*
X195000000Y-155920000D01*
X192460000Y-155920000D02*
X192460000Y-155790000D01*
X192460000Y-155790000D02*
X192460000Y-155790000D01*
X192460000Y-155790000D02*
X192460000Y-155920000D01*
X192460000Y-155920000D02*
X192460000Y-155920000D01*
X192170000Y-151930000D02*
G75*
G02*
X195290000Y-151930000I1560000J0D01*
G01*
%TO.C,R1*%
X214000000Y-161680000D02*
X214000000Y-160730000D01*
X214000000Y-155940000D02*
X214000000Y-156890000D01*
X214920000Y-160730000D02*
X214920000Y-156890000D01*
X213080000Y-160730000D02*
X214920000Y-160730000D01*
X213080000Y-156890000D02*
X213080000Y-160730000D01*
X214920000Y-156890000D02*
X213080000Y-156890000D01*
%TO.C,R2*%
X184680000Y-157000000D02*
X183730000Y-157000000D01*
X178940000Y-157000000D02*
X179890000Y-157000000D01*
X183730000Y-156080000D02*
X179890000Y-156080000D01*
X183730000Y-157920000D02*
X183730000Y-156080000D01*
X179890000Y-157920000D02*
X183730000Y-157920000D01*
X179890000Y-156080000D02*
X179890000Y-157920000D01*
%TO.C,R3*%
X210680000Y-150000000D02*
X209730000Y-150000000D01*
X204940000Y-150000000D02*
X205890000Y-150000000D01*
X209730000Y-149080000D02*
X205890000Y-149080000D01*
X209730000Y-150920000D02*
X209730000Y-149080000D01*
X205890000Y-150920000D02*
X209730000Y-150920000D01*
X205890000Y-149080000D02*
X205890000Y-150920000D01*
%TO.C,R4*%
X200375001Y-139895001D02*
X200375001Y-141735001D01*
X200375001Y-141735001D02*
X204215001Y-141735001D01*
X204215001Y-141735001D02*
X204215001Y-139895001D01*
X204215001Y-139895001D02*
X200375001Y-139895001D01*
X199425001Y-140815001D02*
X200375001Y-140815001D01*
X205165001Y-140815001D02*
X204215001Y-140815001D01*
%TO.C,R5*%
X194595001Y-140815001D02*
X193645001Y-140815001D01*
X188855001Y-140815001D02*
X189805001Y-140815001D01*
X193645001Y-139895001D02*
X189805001Y-139895001D01*
X193645001Y-141735001D02*
X193645001Y-139895001D01*
X189805001Y-141735001D02*
X193645001Y-141735001D01*
X189805001Y-139895001D02*
X189805001Y-141735001D01*
%TO.C,R6*%
X107890000Y-214080000D02*
X107890000Y-215920000D01*
X107890000Y-215920000D02*
X111730000Y-215920000D01*
X111730000Y-215920000D02*
X111730000Y-214080000D01*
X111730000Y-214080000D02*
X107890000Y-214080000D01*
X106940000Y-215000000D02*
X107890000Y-215000000D01*
X112680000Y-215000000D02*
X111730000Y-215000000D01*
%TO.C,R7*%
X201110000Y-246920000D02*
X201110000Y-245080000D01*
X201110000Y-245080000D02*
X197270000Y-245080000D01*
X197270000Y-245080000D02*
X197270000Y-246920000D01*
X197270000Y-246920000D02*
X201110000Y-246920000D01*
X202060000Y-246000000D02*
X201110000Y-246000000D01*
X196320000Y-246000000D02*
X197270000Y-246000000D01*
%TO.C,R8*%
X218890000Y-235080000D02*
X218890000Y-236920000D01*
X218890000Y-236920000D02*
X222730000Y-236920000D01*
X222730000Y-236920000D02*
X222730000Y-235080000D01*
X222730000Y-235080000D02*
X218890000Y-235080000D01*
X217940000Y-236000000D02*
X218890000Y-236000000D01*
X223680000Y-236000000D02*
X222730000Y-236000000D01*
%TO.C,R9*%
X198110000Y-170920000D02*
X198110000Y-169080000D01*
X198110000Y-169080000D02*
X194270000Y-169080000D01*
X194270000Y-169080000D02*
X194270000Y-170920000D01*
X194270000Y-170920000D02*
X198110000Y-170920000D01*
X199060000Y-170000000D02*
X198110000Y-170000000D01*
X193320000Y-170000000D02*
X194270000Y-170000000D01*
%TO.C,R10*%
X195680000Y-165000000D02*
X194730000Y-165000000D01*
X189940000Y-165000000D02*
X190890000Y-165000000D01*
X194730000Y-164080000D02*
X190890000Y-164080000D01*
X194730000Y-165920000D02*
X194730000Y-164080000D01*
X190890000Y-165920000D02*
X194730000Y-165920000D01*
X190890000Y-164080000D02*
X190890000Y-165920000D01*
%TO.C,SW1*%
X220133333Y-139365000D02*
X220133333Y-140635000D01*
X218780000Y-140565000D02*
X220133333Y-140565000D01*
X218780000Y-140445000D02*
X220133333Y-140445000D01*
X218780000Y-140325000D02*
X220133333Y-140325000D01*
X218780000Y-140205000D02*
X220133333Y-140205000D01*
X218780000Y-140085000D02*
X220133333Y-140085000D01*
X218780000Y-139965000D02*
X220133333Y-139965000D01*
X218780000Y-139845000D02*
X220133333Y-139845000D01*
X218780000Y-139725000D02*
X220133333Y-139725000D01*
X218780000Y-139605000D02*
X220133333Y-139605000D01*
X218780000Y-139485000D02*
X220133333Y-139485000D01*
X222840000Y-139365000D02*
X218780000Y-139365000D01*
X222840000Y-140635000D02*
X222840000Y-139365000D01*
X218780000Y-140635000D02*
X222840000Y-140635000D01*
X218780000Y-139365000D02*
X218780000Y-140635000D01*
X215620000Y-137340000D02*
X215620000Y-138723000D01*
X215620000Y-137340000D02*
X217004000Y-137340000D01*
X225760000Y-137580000D02*
X225760000Y-142420000D01*
X215860000Y-137580000D02*
X215860000Y-142420000D01*
X215860000Y-142420000D02*
X225760000Y-142420000D01*
X215860000Y-137580000D02*
X225760000Y-137580000D01*
%TO.C,SW2*%
X170660000Y-142780000D02*
X180560000Y-142780000D01*
X170660000Y-147620000D02*
X180560000Y-147620000D01*
X170660000Y-142780000D02*
X170660000Y-147620000D01*
X180560000Y-142780000D02*
X180560000Y-147620000D01*
X170420000Y-142540000D02*
X171804000Y-142540000D01*
X170420000Y-142540000D02*
X170420000Y-143923000D01*
X173580000Y-144565000D02*
X173580000Y-145835000D01*
X173580000Y-145835000D02*
X177640000Y-145835000D01*
X177640000Y-145835000D02*
X177640000Y-144565000D01*
X177640000Y-144565000D02*
X173580000Y-144565000D01*
X173580000Y-144685000D02*
X174933333Y-144685000D01*
X173580000Y-144805000D02*
X174933333Y-144805000D01*
X173580000Y-144925000D02*
X174933333Y-144925000D01*
X173580000Y-145045000D02*
X174933333Y-145045000D01*
X173580000Y-145165000D02*
X174933333Y-145165000D01*
X173580000Y-145285000D02*
X174933333Y-145285000D01*
X173580000Y-145405000D02*
X174933333Y-145405000D01*
X173580000Y-145525000D02*
X174933333Y-145525000D01*
X173580000Y-145645000D02*
X174933333Y-145645000D01*
X173580000Y-145765000D02*
X174933333Y-145765000D01*
X174933333Y-144565000D02*
X174933333Y-145835000D01*
%TO.C,SW3*%
X156635000Y-167133333D02*
X155365000Y-167133333D01*
X155435000Y-165780000D02*
X155435000Y-167133333D01*
X155555000Y-165780000D02*
X155555000Y-167133333D01*
X155675000Y-165780000D02*
X155675000Y-167133333D01*
X155795000Y-165780000D02*
X155795000Y-167133333D01*
X155915000Y-165780000D02*
X155915000Y-167133333D01*
X156035000Y-165780000D02*
X156035000Y-167133333D01*
X156155000Y-165780000D02*
X156155000Y-167133333D01*
X156275000Y-165780000D02*
X156275000Y-167133333D01*
X156395000Y-165780000D02*
X156395000Y-167133333D01*
X156515000Y-165780000D02*
X156515000Y-167133333D01*
X156635000Y-169840000D02*
X156635000Y-165780000D01*
X155365000Y-169840000D02*
X156635000Y-169840000D01*
X155365000Y-165780000D02*
X155365000Y-169840000D01*
X156635000Y-165780000D02*
X155365000Y-165780000D01*
X158660000Y-162620000D02*
X157277000Y-162620000D01*
X158660000Y-162620000D02*
X158660000Y-164004000D01*
X158420000Y-172760000D02*
X153580000Y-172760000D01*
X158420000Y-162860000D02*
X153580000Y-162860000D01*
X153580000Y-162860000D02*
X153580000Y-172760000D01*
X158420000Y-162860000D02*
X158420000Y-172760000D01*
%TO.C,SW4*%
X151133333Y-127365000D02*
X151133333Y-128635000D01*
X149780000Y-128565000D02*
X151133333Y-128565000D01*
X149780000Y-128445000D02*
X151133333Y-128445000D01*
X149780000Y-128325000D02*
X151133333Y-128325000D01*
X149780000Y-128205000D02*
X151133333Y-128205000D01*
X149780000Y-128085000D02*
X151133333Y-128085000D01*
X149780000Y-127965000D02*
X151133333Y-127965000D01*
X149780000Y-127845000D02*
X151133333Y-127845000D01*
X149780000Y-127725000D02*
X151133333Y-127725000D01*
X149780000Y-127605000D02*
X151133333Y-127605000D01*
X149780000Y-127485000D02*
X151133333Y-127485000D01*
X153840000Y-127365000D02*
X149780000Y-127365000D01*
X153840000Y-128635000D02*
X153840000Y-127365000D01*
X149780000Y-128635000D02*
X153840000Y-128635000D01*
X149780000Y-127365000D02*
X149780000Y-128635000D01*
X146620000Y-125340000D02*
X146620000Y-126723000D01*
X146620000Y-125340000D02*
X148004000Y-125340000D01*
X156760000Y-125580000D02*
X156760000Y-130420000D01*
X146860000Y-125580000D02*
X146860000Y-130420000D01*
X146860000Y-130420000D02*
X156760000Y-130420000D01*
X146860000Y-125580000D02*
X156760000Y-125580000D01*
%TO.C,SW5*%
X51365000Y-68866667D02*
X52635000Y-68866667D01*
X52565000Y-70220000D02*
X52565000Y-68866667D01*
X52445000Y-70220000D02*
X52445000Y-68866667D01*
X52325000Y-70220000D02*
X52325000Y-68866667D01*
X52205000Y-70220000D02*
X52205000Y-68866667D01*
X52085000Y-70220000D02*
X52085000Y-68866667D01*
X51965000Y-70220000D02*
X51965000Y-68866667D01*
X51845000Y-70220000D02*
X51845000Y-68866667D01*
X51725000Y-70220000D02*
X51725000Y-68866667D01*
X51605000Y-70220000D02*
X51605000Y-68866667D01*
X51485000Y-70220000D02*
X51485000Y-68866667D01*
X51365000Y-66160000D02*
X51365000Y-70220000D01*
X52635000Y-66160000D02*
X51365000Y-66160000D01*
X52635000Y-70220000D02*
X52635000Y-66160000D01*
X51365000Y-70220000D02*
X52635000Y-70220000D01*
X49340000Y-73380000D02*
X50723000Y-73380000D01*
X49340000Y-73380000D02*
X49340000Y-71996000D01*
X49580000Y-63240000D02*
X54420000Y-63240000D01*
X49580000Y-73140000D02*
X54420000Y-73140000D01*
X54420000Y-73140000D02*
X54420000Y-63240000D01*
X49580000Y-73140000D02*
X49580000Y-63240000D01*
%TO.C,SW6*%
X142580000Y-172140000D02*
X142580000Y-162240000D01*
X147420000Y-172140000D02*
X147420000Y-162240000D01*
X142580000Y-172140000D02*
X147420000Y-172140000D01*
X142580000Y-162240000D02*
X147420000Y-162240000D01*
X142340000Y-172380000D02*
X142340000Y-170996000D01*
X142340000Y-172380000D02*
X143723000Y-172380000D01*
X144365000Y-169220000D02*
X145635000Y-169220000D01*
X145635000Y-169220000D02*
X145635000Y-165160000D01*
X145635000Y-165160000D02*
X144365000Y-165160000D01*
X144365000Y-165160000D02*
X144365000Y-169220000D01*
X144485000Y-169220000D02*
X144485000Y-167866667D01*
X144605000Y-169220000D02*
X144605000Y-167866667D01*
X144725000Y-169220000D02*
X144725000Y-167866667D01*
X144845000Y-169220000D02*
X144845000Y-167866667D01*
X144965000Y-169220000D02*
X144965000Y-167866667D01*
X145085000Y-169220000D02*
X145085000Y-167866667D01*
X145205000Y-169220000D02*
X145205000Y-167866667D01*
X145325000Y-169220000D02*
X145325000Y-167866667D01*
X145445000Y-169220000D02*
X145445000Y-167866667D01*
X145565000Y-169220000D02*
X145565000Y-167866667D01*
X144365000Y-167866667D02*
X145635000Y-167866667D01*
%TO.C,SW7*%
X62140000Y-200420000D02*
X52240000Y-200420000D01*
X62140000Y-195580000D02*
X52240000Y-195580000D01*
X62140000Y-200420000D02*
X62140000Y-195580000D01*
X52240000Y-200420000D02*
X52240000Y-195580000D01*
X62380000Y-200660000D02*
X60996000Y-200660000D01*
X62380000Y-200660000D02*
X62380000Y-199277000D01*
X59220000Y-198635000D02*
X59220000Y-197365000D01*
X59220000Y-197365000D02*
X55160000Y-197365000D01*
X55160000Y-197365000D02*
X55160000Y-198635000D01*
X55160000Y-198635000D02*
X59220000Y-198635000D01*
X59220000Y-198515000D02*
X57866667Y-198515000D01*
X59220000Y-198395000D02*
X57866667Y-198395000D01*
X59220000Y-198275000D02*
X57866667Y-198275000D01*
X59220000Y-198155000D02*
X57866667Y-198155000D01*
X59220000Y-198035000D02*
X57866667Y-198035000D01*
X59220000Y-197915000D02*
X57866667Y-197915000D01*
X59220000Y-197795000D02*
X57866667Y-197795000D01*
X59220000Y-197675000D02*
X57866667Y-197675000D01*
X59220000Y-197555000D02*
X57866667Y-197555000D01*
X59220000Y-197435000D02*
X57866667Y-197435000D01*
X57866667Y-198635000D02*
X57866667Y-197365000D01*
%TO.C,SW8*%
X206500000Y-247250000D02*
X206500000Y-244750000D01*
X213500000Y-244750000D02*
X213500000Y-247250000D01*
X206500000Y-244750000D02*
X213500000Y-244750000D01*
X206500000Y-247250000D02*
X213500000Y-247250000D01*
%TO.C,SW9*%
X213500000Y-234750000D02*
X206500000Y-234750000D01*
X213500000Y-237250000D02*
X206500000Y-237250000D01*
X206500000Y-237250000D02*
X206500000Y-234750000D01*
X213500000Y-234750000D02*
X213500000Y-237250000D01*
%TO.C,U1*%
X250150000Y-150000000D02*
X261850000Y-150000000D01*
X250150000Y-150000000D02*
X250150000Y-146000000D01*
X250150000Y-146000000D02*
X261850000Y-146000000D01*
X261850000Y-146000000D02*
X261850000Y-154000000D01*
X261850000Y-154000000D02*
X250150000Y-154000000D01*
X250150000Y-154000000D02*
X250150000Y-150000000D01*
%TO.C,U2*%
X148110000Y-174640000D02*
X146860000Y-174640000D01*
X148110000Y-175890000D02*
X148110000Y-174640000D01*
X143700000Y-178000000D02*
X144200000Y-178000000D01*
X144200000Y-178100000D02*
X143700000Y-178100000D01*
X144200000Y-177900000D02*
X144200000Y-178100000D01*
X143700000Y-177900000D02*
X144200000Y-177900000D01*
X145200000Y-181060000D02*
X145200000Y-180450000D01*
X146500000Y-181060000D02*
X146500000Y-180450000D01*
X145200000Y-174940000D02*
X145200000Y-175550000D01*
X146500000Y-174940000D02*
X146500000Y-175550000D01*
X147200000Y-178500000D02*
X147810000Y-178500000D01*
X147200000Y-180450000D02*
X147200000Y-178500000D01*
X143700000Y-180450000D02*
X147200000Y-180450000D01*
X143700000Y-175550000D02*
X143700000Y-180450000D01*
X147200000Y-175550000D02*
X143700000Y-175550000D01*
X147200000Y-177500000D02*
X147200000Y-175550000D01*
X147810000Y-177500000D02*
X147200000Y-177500000D01*
X147910000Y-176700000D02*
X147910000Y-176400000D01*
X148010000Y-176400000D02*
X147810000Y-176400000D01*
X148010000Y-176700000D02*
X148010000Y-176400000D01*
X147810000Y-176700000D02*
X148010000Y-176700000D01*
X147810000Y-181060000D02*
X147810000Y-174940000D01*
X143090000Y-181060000D02*
X147810000Y-181060000D01*
X143090000Y-174940000D02*
X143090000Y-181060000D01*
X147810000Y-174940000D02*
X143090000Y-174940000D01*
%TO.C,U3*%
X238860000Y-163400000D02*
X238860000Y-164790000D01*
X241100000Y-163400000D02*
X238860000Y-163400000D01*
X241100000Y-155520000D02*
X241100000Y-163400000D01*
X238860000Y-155520000D02*
X241100000Y-155520000D01*
X238860000Y-154120000D02*
X238860000Y-155520000D01*
X238850000Y-154120000D02*
X237080000Y-154120000D01*
X237080000Y-154120000D02*
X237080000Y-164790000D01*
X237080000Y-164790000D02*
X238860000Y-164790000D01*
%TO.C,U4*%
X139860000Y-210801000D02*
X139860000Y-212441000D01*
X138660000Y-210801000D02*
X138660000Y-212441000D01*
X138660000Y-212441000D02*
X139860000Y-212441000D01*
X138660000Y-210801000D02*
X139860000Y-210801000D01*
X139860000Y-208261000D02*
X139860000Y-209900000D01*
X138660000Y-208261000D02*
X138660000Y-209900000D01*
X138660000Y-209900000D02*
X139860000Y-209900000D01*
X138660000Y-208261000D02*
X139860000Y-208261000D01*
X139860000Y-205720000D02*
X139860000Y-207361000D01*
X138660000Y-205720000D02*
X138660000Y-207361000D01*
X138660000Y-207361000D02*
X139860000Y-207361000D01*
X138660000Y-205720000D02*
X139860000Y-205720000D01*
X139860000Y-203180000D02*
X139860000Y-204820000D01*
X138660000Y-203180000D02*
X138660000Y-204820000D01*
X138660000Y-204820000D02*
X139860000Y-204820000D01*
X138660000Y-203180000D02*
X139860000Y-203180000D01*
X139620000Y-201340000D02*
X139620000Y-202723000D01*
X139620000Y-201340000D02*
X141004000Y-201340000D01*
X149760000Y-201580000D02*
X149760000Y-214040000D01*
X139860000Y-201580000D02*
X139860000Y-214040000D01*
X139860000Y-214040000D02*
X149760000Y-214040000D01*
X139860000Y-201580000D02*
X149760000Y-201580000D01*
%TO.C,U5*%
X187540000Y-229860000D02*
X187540000Y-232908000D01*
X182460000Y-229860000D02*
X187540000Y-229860000D01*
X182460000Y-232908000D02*
X182460000Y-229860000D01*
X170500000Y-233000000D02*
X199500000Y-233000000D01*
X170500000Y-181000000D02*
X199500000Y-181000000D01*
X199500000Y-181000000D02*
X199500000Y-233000000D01*
X170500000Y-181000000D02*
X170500000Y-233000000D01*
%TO.C,U7*%
X223080000Y-164790000D02*
X224860000Y-164790000D01*
X223080000Y-154120000D02*
X223080000Y-164790000D01*
X224850000Y-154120000D02*
X223080000Y-154120000D01*
X224860000Y-154120000D02*
X224860000Y-155520000D01*
X224860000Y-155520000D02*
X227100000Y-155520000D01*
X227100000Y-155520000D02*
X227100000Y-163400000D01*
X227100000Y-163400000D02*
X224860000Y-163400000D01*
X224860000Y-163400000D02*
X224860000Y-164790000D01*
%TO.C,U8*%
X177360000Y-154810000D02*
X177360000Y-153560000D01*
X176110000Y-154810000D02*
X177360000Y-154810000D01*
X174000000Y-150400000D02*
X174000000Y-150900000D01*
X173900000Y-150900000D02*
X173900000Y-150400000D01*
X174100000Y-150900000D02*
X173900000Y-150900000D01*
X174100000Y-150400000D02*
X174100000Y-150900000D01*
X170940000Y-151900000D02*
X171550000Y-151900000D01*
X170940000Y-153200000D02*
X171550000Y-153200000D01*
X177060000Y-151900000D02*
X176450000Y-151900000D01*
X177060000Y-153200000D02*
X176450000Y-153200000D01*
X173500000Y-153900000D02*
X173500000Y-154510000D01*
X171550000Y-153900000D02*
X173500000Y-153900000D01*
X171550000Y-150400000D02*
X171550000Y-153900000D01*
X176450000Y-150400000D02*
X171550000Y-150400000D01*
X176450000Y-153900000D02*
X176450000Y-150400000D01*
X174500000Y-153900000D02*
X176450000Y-153900000D01*
X174500000Y-154510000D02*
X174500000Y-153900000D01*
X175300000Y-154610000D02*
X175600000Y-154610000D01*
X175600000Y-154710000D02*
X175600000Y-154510000D01*
X175300000Y-154710000D02*
X175600000Y-154710000D01*
X175300000Y-154510000D02*
X175300000Y-154710000D01*
X170940000Y-154510000D02*
X177060000Y-154510000D01*
X170940000Y-149790000D02*
X170940000Y-154510000D01*
X177060000Y-149790000D02*
X170940000Y-149790000D01*
X177060000Y-154510000D02*
X177060000Y-149790000D01*
%TO.C,U9*%
X157810000Y-174940000D02*
X153090000Y-174940000D01*
X153090000Y-174940000D02*
X153090000Y-181060000D01*
X153090000Y-181060000D02*
X157810000Y-181060000D01*
X157810000Y-181060000D02*
X157810000Y-174940000D01*
X157810000Y-176700000D02*
X158010000Y-176700000D01*
X158010000Y-176700000D02*
X158010000Y-176400000D01*
X158010000Y-176400000D02*
X157810000Y-176400000D01*
X157910000Y-176700000D02*
X157910000Y-176400000D01*
X157810000Y-177500000D02*
X157200000Y-177500000D01*
X157200000Y-177500000D02*
X157200000Y-175550000D01*
X157200000Y-175550000D02*
X153700000Y-175550000D01*
X153700000Y-175550000D02*
X153700000Y-180450000D01*
X153700000Y-180450000D02*
X157200000Y-180450000D01*
X157200000Y-180450000D02*
X157200000Y-178500000D01*
X157200000Y-178500000D02*
X157810000Y-178500000D01*
X156500000Y-174940000D02*
X156500000Y-175550000D01*
X155200000Y-174940000D02*
X155200000Y-175550000D01*
X156500000Y-181060000D02*
X156500000Y-180450000D01*
X155200000Y-181060000D02*
X155200000Y-180450000D01*
X153700000Y-177900000D02*
X154200000Y-177900000D01*
X154200000Y-177900000D02*
X154200000Y-178100000D01*
X154200000Y-178100000D02*
X153700000Y-178100000D01*
X153700000Y-178000000D02*
X154200000Y-178000000D01*
X158110000Y-175890000D02*
X158110000Y-174640000D01*
X158110000Y-174640000D02*
X156860000Y-174640000D01*
%TO.C,U10*%
X250150000Y-136000000D02*
X250150000Y-140000000D01*
X250150000Y-140000000D02*
X261850000Y-140000000D01*
X261850000Y-140000000D02*
X261850000Y-136000000D01*
X261850000Y-132000000D02*
X261850000Y-128000000D01*
X261850000Y-128000000D02*
X250150000Y-128000000D01*
X250150000Y-128000000D02*
X250150000Y-132050000D01*
X250150000Y-132000000D02*
X250150000Y-136000000D01*
X250150000Y-136000000D02*
X261850000Y-136000000D01*
X261850000Y-136000000D02*
X261850000Y-132000000D01*
X261850000Y-132000000D02*
X250150000Y-132000000D01*
%TO.C,U16*%
X164670000Y-187670000D02*
X166000000Y-187670000D01*
X164670000Y-189000000D02*
X164670000Y-187670000D01*
X164670000Y-190270000D02*
X167330000Y-190270000D01*
X167330000Y-190270000D02*
X167330000Y-225890000D01*
X164670000Y-190270000D02*
X164670000Y-225890000D01*
X164670000Y-225890000D02*
X167330000Y-225890000D01*
%TO.C,U17*%
X104900000Y-198800000D02*
X104900000Y-189150000D01*
X113100000Y-198800000D02*
X104900000Y-198800000D01*
X113100000Y-189150000D02*
X113100000Y-198800000D01*
X104900000Y-189150000D02*
X113100000Y-189150000D01*
X112000000Y-194000000D02*
G75*
G03*
X112000000Y-194000000I-3000000J0D01*
G01*
X102700000Y-194000000D02*
X115300000Y-194000000D01*
X120000000Y-191000000D02*
X98000000Y-191000000D01*
X120000000Y-207000000D02*
X120000000Y-191000000D01*
X98000000Y-207000000D02*
X120000000Y-207000000D01*
X98000000Y-191000000D02*
X98000000Y-207000000D01*
%TO.C,U20*%
X201670000Y-225890000D02*
X204330000Y-225890000D01*
X201670000Y-190270000D02*
X201670000Y-225890000D01*
X204330000Y-190270000D02*
X204330000Y-225890000D01*
X201670000Y-190270000D02*
X204330000Y-190270000D01*
X201670000Y-189000000D02*
X201670000Y-187670000D01*
X201670000Y-187670000D02*
X203000000Y-187670000D01*
%TO.C,U21*%
X219670000Y-225890000D02*
X222330000Y-225890000D01*
X219670000Y-190270000D02*
X219670000Y-225890000D01*
X222330000Y-190270000D02*
X222330000Y-225890000D01*
X219670000Y-190270000D02*
X222330000Y-190270000D01*
X219670000Y-189000000D02*
X219670000Y-187670000D01*
X219670000Y-187670000D02*
X221000000Y-187670000D01*
%TO.C,U24*%
X174670000Y-120330000D02*
X174670000Y-119000000D01*
X176000000Y-120330000D02*
X174670000Y-120330000D01*
X177270000Y-120330000D02*
X177270000Y-117670000D01*
X177270000Y-117670000D02*
X212890000Y-117670000D01*
X177270000Y-120330000D02*
X212890000Y-120330000D01*
X212890000Y-120330000D02*
X212890000Y-117670000D01*
%TO.C,U25*%
X212650000Y-134330000D02*
X212650000Y-131670000D01*
X177030000Y-134330000D02*
X212650000Y-134330000D01*
X177030000Y-131670000D02*
X212650000Y-131670000D01*
X177030000Y-134330000D02*
X177030000Y-131670000D01*
X175760000Y-134330000D02*
X174430000Y-134330000D01*
X174430000Y-134330000D02*
X174430000Y-133000000D01*
%TO.C,U26*%
X174670000Y-127330000D02*
X174670000Y-126000000D01*
X176000000Y-127330000D02*
X174670000Y-127330000D01*
X177270000Y-127330000D02*
X177270000Y-124670000D01*
X177270000Y-124670000D02*
X212890000Y-124670000D01*
X177270000Y-127330000D02*
X212890000Y-127330000D01*
X212890000Y-127330000D02*
X212890000Y-124670000D01*
%TO.C,Q1*%
X238730000Y-135920000D02*
X238730000Y-146080000D01*
X238313499Y-145400000D02*
G75*
G03*
X238313499Y-145400000I-218499J0D01*
G01*
X242540000Y-146080000D02*
X237460000Y-146080000D01*
X242540000Y-135920000D02*
X242540000Y-146080000D01*
X237460000Y-135920000D02*
X242540000Y-135920000D01*
X237460000Y-146080000D02*
X237460000Y-135920000D01*
%TO.C,U28*%
X241910000Y-119740000D02*
X237190000Y-119740000D01*
X237190000Y-119740000D02*
X237190000Y-129860000D01*
X237190000Y-129860000D02*
X241910000Y-129860000D01*
X241910000Y-129860000D02*
X241910000Y-119740000D01*
X241910000Y-121500000D02*
X242110000Y-121500000D01*
X242110000Y-121500000D02*
X242110000Y-121200000D01*
X242110000Y-121200000D02*
X241910000Y-121200000D01*
X242010000Y-121500000D02*
X242010000Y-121200000D01*
X241910000Y-122300000D02*
X241300000Y-122300000D01*
X241300000Y-122300000D02*
X241300000Y-120350000D01*
X241300000Y-120350000D02*
X237800000Y-120350000D01*
X237800000Y-120350000D02*
X237800000Y-129250000D01*
X237800000Y-129250000D02*
X241300000Y-129250000D01*
X241300000Y-129250000D02*
X241300000Y-127300000D01*
X241300000Y-127300000D02*
X241910000Y-127300000D01*
X240600000Y-119740000D02*
X240600000Y-120350000D01*
X239300000Y-119740000D02*
X239300000Y-120350000D01*
X240600000Y-129860000D02*
X240600000Y-129250000D01*
X239300000Y-129860000D02*
X239300000Y-129250000D01*
X237800000Y-122700000D02*
X238300000Y-122700000D01*
X238300000Y-122700000D02*
X238300000Y-122900000D01*
X238300000Y-122900000D02*
X237800000Y-122900000D01*
X237800000Y-122800000D02*
X238300000Y-122800000D01*
X237800000Y-124700000D02*
X238300000Y-124700000D01*
X238300000Y-124700000D02*
X238300000Y-124900000D01*
X238300000Y-124900000D02*
X237800000Y-124900000D01*
X237800000Y-124800000D02*
X238300000Y-124800000D01*
X237800000Y-126700000D02*
X238300000Y-126700000D01*
X238300000Y-126700000D02*
X238300000Y-126900000D01*
X238300000Y-126900000D02*
X237800000Y-126900000D01*
X237800000Y-126800000D02*
X238300000Y-126800000D01*
X242210000Y-120690000D02*
X242210000Y-119440000D01*
X242210000Y-119440000D02*
X240960000Y-119440000D01*
%TO.C,U6*%
D11*
X241252380Y-82761904D02*
X242061904Y-82761904D01*
X242157142Y-82714285D01*
X242204761Y-82666666D01*
X242252380Y-82571428D01*
X242252380Y-82380952D01*
X242204761Y-82285714D01*
X242157142Y-82238095D01*
X242061904Y-82190476D01*
X241252380Y-82190476D01*
X241252380Y-81285714D02*
X241252380Y-81476190D01*
X241300000Y-81571428D01*
X241347619Y-81619047D01*
X241490476Y-81714285D01*
X241680952Y-81761904D01*
X242061904Y-81761904D01*
X242157142Y-81714285D01*
X242204761Y-81666666D01*
X242252380Y-81571428D01*
X242252380Y-81380952D01*
X242204761Y-81285714D01*
X242157142Y-81238095D01*
X242061904Y-81190476D01*
X241823809Y-81190476D01*
X241728571Y-81238095D01*
X241680952Y-81285714D01*
X241633333Y-81380952D01*
X241633333Y-81571428D01*
X241680952Y-81666666D01*
X241728571Y-81714285D01*
X241823809Y-81761904D01*
X202128571Y-88738095D02*
X202176190Y-88595238D01*
X202223809Y-88547619D01*
X202319047Y-88500000D01*
X202461904Y-88500000D01*
X202557142Y-88547619D01*
X202604761Y-88595238D01*
X202652380Y-88690476D01*
X202652380Y-89071428D01*
X201652380Y-89071428D01*
X201652380Y-88738095D01*
X201700000Y-88642857D01*
X201747619Y-88595238D01*
X201842857Y-88547619D01*
X201938095Y-88547619D01*
X202033333Y-88595238D01*
X202080952Y-88642857D01*
X202128571Y-88738095D01*
X202128571Y-89071428D01*
X202652380Y-88071428D02*
X201985714Y-88071428D01*
X202176190Y-88071428D02*
X202080952Y-88023809D01*
X202033333Y-87976190D01*
X201985714Y-87880952D01*
X201985714Y-87785714D01*
X202652380Y-87452380D02*
X201985714Y-87452380D01*
X201652380Y-87452380D02*
X201700000Y-87500000D01*
X201747619Y-87452380D01*
X201700000Y-87404761D01*
X201652380Y-87452380D01*
X201747619Y-87452380D01*
X202652380Y-86547619D02*
X201652380Y-86547619D01*
X202604761Y-86547619D02*
X202652380Y-86642857D01*
X202652380Y-86833333D01*
X202604761Y-86928571D01*
X202557142Y-86976190D01*
X202461904Y-87023809D01*
X202176190Y-87023809D01*
X202080952Y-86976190D01*
X202033333Y-86928571D01*
X201985714Y-86833333D01*
X201985714Y-86642857D01*
X202033333Y-86547619D01*
X201985714Y-85642857D02*
X202795238Y-85642857D01*
X202890476Y-85690476D01*
X202938095Y-85738095D01*
X202985714Y-85833333D01*
X202985714Y-85976190D01*
X202938095Y-86071428D01*
X202604761Y-85642857D02*
X202652380Y-85738095D01*
X202652380Y-85928571D01*
X202604761Y-86023809D01*
X202557142Y-86071428D01*
X202461904Y-86119047D01*
X202176190Y-86119047D01*
X202080952Y-86071428D01*
X202033333Y-86023809D01*
X201985714Y-85928571D01*
X201985714Y-85738095D01*
X202033333Y-85642857D01*
X202604761Y-84785714D02*
X202652380Y-84880952D01*
X202652380Y-85071428D01*
X202604761Y-85166666D01*
X202509523Y-85214285D01*
X202128571Y-85214285D01*
X202033333Y-85166666D01*
X201985714Y-85071428D01*
X201985714Y-84880952D01*
X202033333Y-84785714D01*
X202128571Y-84738095D01*
X202223809Y-84738095D01*
X202319047Y-85214285D01*
X202652380Y-84166666D02*
X202604761Y-84261904D01*
X202509523Y-84309523D01*
X201652380Y-84309523D01*
X201985714Y-83357142D02*
X202652380Y-83357142D01*
X201985714Y-83785714D02*
X202509523Y-83785714D01*
X202604761Y-83738095D01*
X202652380Y-83642857D01*
X202652380Y-83500000D01*
X202604761Y-83404761D01*
X202557142Y-83357142D01*
X202652380Y-82976190D02*
X201985714Y-82452380D01*
X201985714Y-82976190D02*
X202652380Y-82452380D01*
X202271428Y-82071428D02*
X202271428Y-81309523D01*
X201652380Y-80976190D02*
X202652380Y-80642857D01*
X201652380Y-80309523D01*
X202604761Y-79595238D02*
X202652380Y-79690476D01*
X202652380Y-79880952D01*
X202604761Y-79976190D01*
X202509523Y-80023809D01*
X202128571Y-80023809D01*
X202033333Y-79976190D01*
X201985714Y-79880952D01*
X201985714Y-79690476D01*
X202033333Y-79595238D01*
X202128571Y-79547619D01*
X202223809Y-79547619D01*
X202319047Y-80023809D01*
X202652380Y-79119047D02*
X201985714Y-79119047D01*
X202176190Y-79119047D02*
X202080952Y-79071428D01*
X202033333Y-79023809D01*
X201985714Y-78928571D01*
X201985714Y-78833333D01*
X202652380Y-78357142D02*
X202604761Y-78452380D01*
X202557142Y-78500000D01*
X202461904Y-78547619D01*
X202176190Y-78547619D01*
X202080952Y-78500000D01*
X202033333Y-78452380D01*
X201985714Y-78357142D01*
X201985714Y-78214285D01*
X202033333Y-78119047D01*
X202080952Y-78071428D01*
X202176190Y-78023809D01*
X202461904Y-78023809D01*
X202557142Y-78071428D01*
X202604761Y-78119047D01*
X202652380Y-78214285D01*
X202652380Y-78357142D01*
X202271428Y-77595238D02*
X202271428Y-76833333D01*
X201747619Y-76404761D02*
X201700000Y-76357142D01*
X201652380Y-76261904D01*
X201652380Y-76023809D01*
X201700000Y-75928571D01*
X201747619Y-75880952D01*
X201842857Y-75833333D01*
X201938095Y-75833333D01*
X202080952Y-75880952D01*
X202652380Y-76452380D01*
X202652380Y-75833333D01*
X202652380Y-75357142D02*
X202652380Y-75166666D01*
X202604761Y-75071428D01*
X202557142Y-75023809D01*
X202414285Y-74928571D01*
X202223809Y-74880952D01*
X201842857Y-74880952D01*
X201747619Y-74928571D01*
X201700000Y-74976190D01*
X201652380Y-75071428D01*
X201652380Y-75261904D01*
X201700000Y-75357142D01*
X201747619Y-75404761D01*
X201842857Y-75452380D01*
X202080952Y-75452380D01*
X202176190Y-75404761D01*
X202223809Y-75357142D01*
X202271428Y-75261904D01*
X202271428Y-75071428D01*
X202223809Y-74976190D01*
X202176190Y-74928571D01*
X202080952Y-74880952D01*
X219626666Y-125262380D02*
X219293333Y-124786190D01*
X219055238Y-125262380D02*
X219055238Y-124262380D01*
X219436190Y-124262380D01*
X219531428Y-124310000D01*
X219579047Y-124357619D01*
X219626666Y-124452857D01*
X219626666Y-124595714D01*
X219579047Y-124690952D01*
X219531428Y-124738571D01*
X219436190Y-124786190D01*
X219055238Y-124786190D01*
X220055238Y-124738571D02*
X220388571Y-124738571D01*
X220531428Y-125262380D02*
X220055238Y-125262380D01*
X220055238Y-124262380D01*
X220531428Y-124262380D01*
X221293333Y-124738571D02*
X220960000Y-124738571D01*
X220960000Y-125262380D02*
X220960000Y-124262380D01*
X221436190Y-124262380D01*
X221960000Y-124262380D02*
X221960000Y-124500476D01*
X221721904Y-124405238D02*
X221960000Y-124500476D01*
X222198095Y-124405238D01*
X221817142Y-124690952D02*
X221960000Y-124500476D01*
X222102857Y-124690952D01*
X222721904Y-124262380D02*
X222721904Y-124500476D01*
X222483809Y-124405238D02*
X222721904Y-124500476D01*
X222960000Y-124405238D01*
X222579047Y-124690952D02*
X222721904Y-124500476D01*
X222864761Y-124690952D01*
%TO.C,U12*%
X188252380Y-83238095D02*
X189061904Y-83238095D01*
X189157142Y-83190476D01*
X189204761Y-83142857D01*
X189252380Y-83047619D01*
X189252380Y-82857142D01*
X189204761Y-82761904D01*
X189157142Y-82714285D01*
X189061904Y-82666666D01*
X188252380Y-82666666D01*
X189252380Y-81666666D02*
X189252380Y-82238095D01*
X189252380Y-81952380D02*
X188252380Y-81952380D01*
X188395238Y-82047619D01*
X188490476Y-82142857D01*
X188538095Y-82238095D01*
X188347619Y-81285714D02*
X188300000Y-81238095D01*
X188252380Y-81142857D01*
X188252380Y-80904761D01*
X188300000Y-80809523D01*
X188347619Y-80761904D01*
X188442857Y-80714285D01*
X188538095Y-80714285D01*
X188680952Y-80761904D01*
X189252380Y-81333333D01*
X189252380Y-80714285D01*
X149128571Y-88738095D02*
X149176190Y-88595238D01*
X149223809Y-88547619D01*
X149319047Y-88500000D01*
X149461904Y-88500000D01*
X149557142Y-88547619D01*
X149604761Y-88595238D01*
X149652380Y-88690476D01*
X149652380Y-89071428D01*
X148652380Y-89071428D01*
X148652380Y-88738095D01*
X148700000Y-88642857D01*
X148747619Y-88595238D01*
X148842857Y-88547619D01*
X148938095Y-88547619D01*
X149033333Y-88595238D01*
X149080952Y-88642857D01*
X149128571Y-88738095D01*
X149128571Y-89071428D01*
X149652380Y-88071428D02*
X148985714Y-88071428D01*
X149176190Y-88071428D02*
X149080952Y-88023809D01*
X149033333Y-87976190D01*
X148985714Y-87880952D01*
X148985714Y-87785714D01*
X149652380Y-87452380D02*
X148985714Y-87452380D01*
X148652380Y-87452380D02*
X148700000Y-87500000D01*
X148747619Y-87452380D01*
X148700000Y-87404761D01*
X148652380Y-87452380D01*
X148747619Y-87452380D01*
X149652380Y-86547619D02*
X148652380Y-86547619D01*
X149604761Y-86547619D02*
X149652380Y-86642857D01*
X149652380Y-86833333D01*
X149604761Y-86928571D01*
X149557142Y-86976190D01*
X149461904Y-87023809D01*
X149176190Y-87023809D01*
X149080952Y-86976190D01*
X149033333Y-86928571D01*
X148985714Y-86833333D01*
X148985714Y-86642857D01*
X149033333Y-86547619D01*
X148985714Y-85642857D02*
X149795238Y-85642857D01*
X149890476Y-85690476D01*
X149938095Y-85738095D01*
X149985714Y-85833333D01*
X149985714Y-85976190D01*
X149938095Y-86071428D01*
X149604761Y-85642857D02*
X149652380Y-85738095D01*
X149652380Y-85928571D01*
X149604761Y-86023809D01*
X149557142Y-86071428D01*
X149461904Y-86119047D01*
X149176190Y-86119047D01*
X149080952Y-86071428D01*
X149033333Y-86023809D01*
X148985714Y-85928571D01*
X148985714Y-85738095D01*
X149033333Y-85642857D01*
X149604761Y-84785714D02*
X149652380Y-84880952D01*
X149652380Y-85071428D01*
X149604761Y-85166666D01*
X149509523Y-85214285D01*
X149128571Y-85214285D01*
X149033333Y-85166666D01*
X148985714Y-85071428D01*
X148985714Y-84880952D01*
X149033333Y-84785714D01*
X149128571Y-84738095D01*
X149223809Y-84738095D01*
X149319047Y-85214285D01*
X149652380Y-84166666D02*
X149604761Y-84261904D01*
X149509523Y-84309523D01*
X148652380Y-84309523D01*
X148985714Y-83357142D02*
X149652380Y-83357142D01*
X148985714Y-83785714D02*
X149509523Y-83785714D01*
X149604761Y-83738095D01*
X149652380Y-83642857D01*
X149652380Y-83500000D01*
X149604761Y-83404761D01*
X149557142Y-83357142D01*
X149652380Y-82976190D02*
X148985714Y-82452380D01*
X148985714Y-82976190D02*
X149652380Y-82452380D01*
X149271428Y-82071428D02*
X149271428Y-81309523D01*
X148652380Y-80976190D02*
X149652380Y-80642857D01*
X148652380Y-80309523D01*
X149604761Y-79595238D02*
X149652380Y-79690476D01*
X149652380Y-79880952D01*
X149604761Y-79976190D01*
X149509523Y-80023809D01*
X149128571Y-80023809D01*
X149033333Y-79976190D01*
X148985714Y-79880952D01*
X148985714Y-79690476D01*
X149033333Y-79595238D01*
X149128571Y-79547619D01*
X149223809Y-79547619D01*
X149319047Y-80023809D01*
X149652380Y-79119047D02*
X148985714Y-79119047D01*
X149176190Y-79119047D02*
X149080952Y-79071428D01*
X149033333Y-79023809D01*
X148985714Y-78928571D01*
X148985714Y-78833333D01*
X149652380Y-78357142D02*
X149604761Y-78452380D01*
X149557142Y-78500000D01*
X149461904Y-78547619D01*
X149176190Y-78547619D01*
X149080952Y-78500000D01*
X149033333Y-78452380D01*
X148985714Y-78357142D01*
X148985714Y-78214285D01*
X149033333Y-78119047D01*
X149080952Y-78071428D01*
X149176190Y-78023809D01*
X149461904Y-78023809D01*
X149557142Y-78071428D01*
X149604761Y-78119047D01*
X149652380Y-78214285D01*
X149652380Y-78357142D01*
X149271428Y-77595238D02*
X149271428Y-76833333D01*
X149652380Y-75833333D02*
X149652380Y-76404761D01*
X149652380Y-76119047D02*
X148652380Y-76119047D01*
X148795238Y-76214285D01*
X148890476Y-76309523D01*
X148938095Y-76404761D01*
X149080952Y-75261904D02*
X149033333Y-75357142D01*
X148985714Y-75404761D01*
X148890476Y-75452380D01*
X148842857Y-75452380D01*
X148747619Y-75404761D01*
X148700000Y-75357142D01*
X148652380Y-75261904D01*
X148652380Y-75071428D01*
X148700000Y-74976190D01*
X148747619Y-74928571D01*
X148842857Y-74880952D01*
X148890476Y-74880952D01*
X148985714Y-74928571D01*
X149033333Y-74976190D01*
X149080952Y-75071428D01*
X149080952Y-75261904D01*
X149128571Y-75357142D01*
X149176190Y-75404761D01*
X149271428Y-75452380D01*
X149461904Y-75452380D01*
X149557142Y-75404761D01*
X149604761Y-75357142D01*
X149652380Y-75261904D01*
X149652380Y-75071428D01*
X149604761Y-74976190D01*
X149557142Y-74928571D01*
X149461904Y-74880952D01*
X149271428Y-74880952D01*
X149176190Y-74928571D01*
X149128571Y-74976190D01*
X149080952Y-75071428D01*
X166626666Y-125262380D02*
X166293333Y-124786190D01*
X166055238Y-125262380D02*
X166055238Y-124262380D01*
X166436190Y-124262380D01*
X166531428Y-124310000D01*
X166579047Y-124357619D01*
X166626666Y-124452857D01*
X166626666Y-124595714D01*
X166579047Y-124690952D01*
X166531428Y-124738571D01*
X166436190Y-124786190D01*
X166055238Y-124786190D01*
X167055238Y-124738571D02*
X167388571Y-124738571D01*
X167531428Y-125262380D02*
X167055238Y-125262380D01*
X167055238Y-124262380D01*
X167531428Y-124262380D01*
X168293333Y-124738571D02*
X167960000Y-124738571D01*
X167960000Y-125262380D02*
X167960000Y-124262380D01*
X168436190Y-124262380D01*
X168960000Y-124262380D02*
X168960000Y-124500476D01*
X168721904Y-124405238D02*
X168960000Y-124500476D01*
X169198095Y-124405238D01*
X168817142Y-124690952D02*
X168960000Y-124500476D01*
X169102857Y-124690952D01*
X169721904Y-124262380D02*
X169721904Y-124500476D01*
X169483809Y-124405238D02*
X169721904Y-124500476D01*
X169960000Y-124405238D01*
X169579047Y-124690952D02*
X169721904Y-124500476D01*
X169864761Y-124690952D01*
%TO.C,U15*%
X75912381Y-142378094D02*
X76721905Y-142378094D01*
X76817143Y-142330475D01*
X76864762Y-142282856D01*
X76912381Y-142187618D01*
X76912381Y-141997141D01*
X76864762Y-141901903D01*
X76817143Y-141854284D01*
X76721905Y-141806665D01*
X75912381Y-141806665D01*
X76912381Y-140806665D02*
X76912381Y-141378094D01*
X76912381Y-141092379D02*
X75912381Y-141092379D01*
X76055239Y-141187618D01*
X76150477Y-141282856D01*
X76198096Y-141378094D01*
X75912381Y-139901903D02*
X75912381Y-140378094D01*
X76388572Y-140425713D01*
X76340953Y-140378094D01*
X76293334Y-140282856D01*
X76293334Y-140044760D01*
X76340953Y-139949522D01*
X76388572Y-139901903D01*
X76483810Y-139854284D01*
X76721905Y-139854284D01*
X76817143Y-139901903D01*
X76864762Y-139949522D01*
X76912381Y-140044760D01*
X76912381Y-140282856D01*
X76864762Y-140378094D01*
X76817143Y-140425713D01*
X36788572Y-147878094D02*
X36836191Y-147735237D01*
X36883810Y-147687618D01*
X36979048Y-147639999D01*
X37121905Y-147639999D01*
X37217143Y-147687618D01*
X37264762Y-147735237D01*
X37312381Y-147830475D01*
X37312381Y-148211427D01*
X36312381Y-148211427D01*
X36312381Y-147878094D01*
X36360001Y-147782856D01*
X36407620Y-147735237D01*
X36502858Y-147687618D01*
X36598096Y-147687618D01*
X36693334Y-147735237D01*
X36740953Y-147782856D01*
X36788572Y-147878094D01*
X36788572Y-148211427D01*
X37312381Y-147211427D02*
X36645715Y-147211427D01*
X36836191Y-147211427D02*
X36740953Y-147163808D01*
X36693334Y-147116189D01*
X36645715Y-147020951D01*
X36645715Y-146925713D01*
X37312381Y-146592379D02*
X36645715Y-146592379D01*
X36312381Y-146592379D02*
X36360001Y-146639999D01*
X36407620Y-146592379D01*
X36360001Y-146544760D01*
X36312381Y-146592379D01*
X36407620Y-146592379D01*
X37312381Y-145687618D02*
X36312381Y-145687618D01*
X37264762Y-145687618D02*
X37312381Y-145782856D01*
X37312381Y-145973332D01*
X37264762Y-146068570D01*
X37217143Y-146116189D01*
X37121905Y-146163808D01*
X36836191Y-146163808D01*
X36740953Y-146116189D01*
X36693334Y-146068570D01*
X36645715Y-145973332D01*
X36645715Y-145782856D01*
X36693334Y-145687618D01*
X36645715Y-144782856D02*
X37455239Y-144782856D01*
X37550477Y-144830475D01*
X37598096Y-144878094D01*
X37645715Y-144973332D01*
X37645715Y-145116189D01*
X37598096Y-145211427D01*
X37264762Y-144782856D02*
X37312381Y-144878094D01*
X37312381Y-145068570D01*
X37264762Y-145163808D01*
X37217143Y-145211427D01*
X37121905Y-145259046D01*
X36836191Y-145259046D01*
X36740953Y-145211427D01*
X36693334Y-145163808D01*
X36645715Y-145068570D01*
X36645715Y-144878094D01*
X36693334Y-144782856D01*
X37264762Y-143925713D02*
X37312381Y-144020951D01*
X37312381Y-144211427D01*
X37264762Y-144306665D01*
X37169524Y-144354284D01*
X36788572Y-144354284D01*
X36693334Y-144306665D01*
X36645715Y-144211427D01*
X36645715Y-144020951D01*
X36693334Y-143925713D01*
X36788572Y-143878094D01*
X36883810Y-143878094D01*
X36979048Y-144354284D01*
X37312381Y-143306665D02*
X37264762Y-143401903D01*
X37169524Y-143449522D01*
X36312381Y-143449522D01*
X36645715Y-142497141D02*
X37312381Y-142497141D01*
X36645715Y-142925713D02*
X37169524Y-142925713D01*
X37264762Y-142878094D01*
X37312381Y-142782856D01*
X37312381Y-142639999D01*
X37264762Y-142544760D01*
X37217143Y-142497141D01*
X37312381Y-142116189D02*
X36645715Y-141592379D01*
X36645715Y-142116189D02*
X37312381Y-141592379D01*
X36931429Y-141211427D02*
X36931429Y-140449522D01*
X36312381Y-140116189D02*
X37312381Y-139782856D01*
X36312381Y-139449522D01*
X37264762Y-138735237D02*
X37312381Y-138830475D01*
X37312381Y-139020951D01*
X37264762Y-139116189D01*
X37169524Y-139163808D01*
X36788572Y-139163808D01*
X36693334Y-139116189D01*
X36645715Y-139020951D01*
X36645715Y-138830475D01*
X36693334Y-138735237D01*
X36788572Y-138687618D01*
X36883810Y-138687618D01*
X36979048Y-139163808D01*
X37312381Y-138259046D02*
X36645715Y-138259046D01*
X36836191Y-138259046D02*
X36740953Y-138211427D01*
X36693334Y-138163808D01*
X36645715Y-138068570D01*
X36645715Y-137973332D01*
X37312381Y-137497141D02*
X37264762Y-137592379D01*
X37217143Y-137639999D01*
X37121905Y-137687618D01*
X36836191Y-137687618D01*
X36740953Y-137639999D01*
X36693334Y-137592379D01*
X36645715Y-137497141D01*
X36645715Y-137354284D01*
X36693334Y-137259046D01*
X36740953Y-137211427D01*
X36836191Y-137163808D01*
X37121905Y-137163808D01*
X37217143Y-137211427D01*
X37264762Y-137259046D01*
X37312381Y-137354284D01*
X37312381Y-137497141D01*
X36931429Y-136735237D02*
X36931429Y-135973332D01*
X37312381Y-134973332D02*
X37312381Y-135544760D01*
X37312381Y-135259046D02*
X36312381Y-135259046D01*
X36455239Y-135354284D01*
X36550477Y-135449522D01*
X36598096Y-135544760D01*
X36740953Y-134401903D02*
X36693334Y-134497141D01*
X36645715Y-134544760D01*
X36550477Y-134592379D01*
X36502858Y-134592379D01*
X36407620Y-134544760D01*
X36360001Y-134497141D01*
X36312381Y-134401903D01*
X36312381Y-134211427D01*
X36360001Y-134116189D01*
X36407620Y-134068570D01*
X36502858Y-134020951D01*
X36550477Y-134020951D01*
X36645715Y-134068570D01*
X36693334Y-134116189D01*
X36740953Y-134211427D01*
X36740953Y-134401903D01*
X36788572Y-134497141D01*
X36836191Y-134544760D01*
X36931429Y-134592379D01*
X37121905Y-134592379D01*
X37217143Y-134544760D01*
X37264762Y-134497141D01*
X37312381Y-134401903D01*
X37312381Y-134211427D01*
X37264762Y-134116189D01*
X37217143Y-134068570D01*
X37121905Y-134020951D01*
X36931429Y-134020951D01*
X36836191Y-134068570D01*
X36788572Y-134116189D01*
X36740953Y-134211427D01*
X54286667Y-184402379D02*
X53953334Y-183926189D01*
X53715239Y-184402379D02*
X53715239Y-183402379D01*
X54096191Y-183402379D01*
X54191429Y-183449999D01*
X54239048Y-183497618D01*
X54286667Y-183592856D01*
X54286667Y-183735713D01*
X54239048Y-183830951D01*
X54191429Y-183878570D01*
X54096191Y-183926189D01*
X53715239Y-183926189D01*
X54715239Y-183878570D02*
X55048572Y-183878570D01*
X55191429Y-184402379D02*
X54715239Y-184402379D01*
X54715239Y-183402379D01*
X55191429Y-183402379D01*
X55953334Y-183878570D02*
X55620001Y-183878570D01*
X55620001Y-184402379D02*
X55620001Y-183402379D01*
X56096191Y-183402379D01*
X56620001Y-183402379D02*
X56620001Y-183640475D01*
X56381905Y-183545237D02*
X56620001Y-183640475D01*
X56858096Y-183545237D01*
X56477143Y-183830951D02*
X56620001Y-183640475D01*
X56762858Y-183830951D01*
X57381905Y-183402379D02*
X57381905Y-183640475D01*
X57143810Y-183545237D02*
X57381905Y-183640475D01*
X57620001Y-183545237D01*
X57239048Y-183830951D02*
X57381905Y-183640475D01*
X57524762Y-183830951D01*
%TO.C,U13*%
X107761904Y-87252380D02*
X107761904Y-88061904D01*
X107809523Y-88157142D01*
X107857142Y-88204761D01*
X107952380Y-88252380D01*
X108142857Y-88252380D01*
X108238095Y-88204761D01*
X108285714Y-88157142D01*
X108333333Y-88061904D01*
X108333333Y-87252380D01*
X109333333Y-88252380D02*
X108761904Y-88252380D01*
X109047619Y-88252380D02*
X109047619Y-87252380D01*
X108952380Y-87395238D01*
X108857142Y-87490476D01*
X108761904Y-87538095D01*
X109666666Y-87252380D02*
X110285714Y-87252380D01*
X109952380Y-87633333D01*
X110095238Y-87633333D01*
X110190476Y-87680952D01*
X110238095Y-87728571D01*
X110285714Y-87823809D01*
X110285714Y-88061904D01*
X110238095Y-88157142D01*
X110190476Y-88204761D01*
X110095238Y-88252380D01*
X109809523Y-88252380D01*
X109714285Y-88204761D01*
X109666666Y-88157142D01*
X102261904Y-48128571D02*
X102404761Y-48176190D01*
X102452380Y-48223809D01*
X102500000Y-48319047D01*
X102500000Y-48461904D01*
X102452380Y-48557142D01*
X102404761Y-48604761D01*
X102309523Y-48652380D01*
X101928571Y-48652380D01*
X101928571Y-47652380D01*
X102261904Y-47652380D01*
X102357142Y-47700000D01*
X102404761Y-47747619D01*
X102452380Y-47842857D01*
X102452380Y-47938095D01*
X102404761Y-48033333D01*
X102357142Y-48080952D01*
X102261904Y-48128571D01*
X101928571Y-48128571D01*
X102928571Y-48652380D02*
X102928571Y-47985714D01*
X102928571Y-48176190D02*
X102976190Y-48080952D01*
X103023809Y-48033333D01*
X103119047Y-47985714D01*
X103214285Y-47985714D01*
X103547619Y-48652380D02*
X103547619Y-47985714D01*
X103547619Y-47652380D02*
X103500000Y-47700000D01*
X103547619Y-47747619D01*
X103595238Y-47700000D01*
X103547619Y-47652380D01*
X103547619Y-47747619D01*
X104452380Y-48652380D02*
X104452380Y-47652380D01*
X104452380Y-48604761D02*
X104357142Y-48652380D01*
X104166666Y-48652380D01*
X104071428Y-48604761D01*
X104023809Y-48557142D01*
X103976190Y-48461904D01*
X103976190Y-48176190D01*
X104023809Y-48080952D01*
X104071428Y-48033333D01*
X104166666Y-47985714D01*
X104357142Y-47985714D01*
X104452380Y-48033333D01*
X105357142Y-47985714D02*
X105357142Y-48795238D01*
X105309523Y-48890476D01*
X105261904Y-48938095D01*
X105166666Y-48985714D01*
X105023809Y-48985714D01*
X104928571Y-48938095D01*
X105357142Y-48604761D02*
X105261904Y-48652380D01*
X105071428Y-48652380D01*
X104976190Y-48604761D01*
X104928571Y-48557142D01*
X104880952Y-48461904D01*
X104880952Y-48176190D01*
X104928571Y-48080952D01*
X104976190Y-48033333D01*
X105071428Y-47985714D01*
X105261904Y-47985714D01*
X105357142Y-48033333D01*
X106214285Y-48604761D02*
X106119047Y-48652380D01*
X105928571Y-48652380D01*
X105833333Y-48604761D01*
X105785714Y-48509523D01*
X105785714Y-48128571D01*
X105833333Y-48033333D01*
X105928571Y-47985714D01*
X106119047Y-47985714D01*
X106214285Y-48033333D01*
X106261904Y-48128571D01*
X106261904Y-48223809D01*
X105785714Y-48319047D01*
X106833333Y-48652380D02*
X106738095Y-48604761D01*
X106690476Y-48509523D01*
X106690476Y-47652380D01*
X107642857Y-47985714D02*
X107642857Y-48652380D01*
X107214285Y-47985714D02*
X107214285Y-48509523D01*
X107261904Y-48604761D01*
X107357142Y-48652380D01*
X107500000Y-48652380D01*
X107595238Y-48604761D01*
X107642857Y-48557142D01*
X108023809Y-48652380D02*
X108547619Y-47985714D01*
X108023809Y-47985714D02*
X108547619Y-48652380D01*
X108928571Y-48271428D02*
X109690476Y-48271428D01*
X110023809Y-47652380D02*
X110357142Y-48652380D01*
X110690476Y-47652380D01*
X111404761Y-48604761D02*
X111309523Y-48652380D01*
X111119047Y-48652380D01*
X111023809Y-48604761D01*
X110976190Y-48509523D01*
X110976190Y-48128571D01*
X111023809Y-48033333D01*
X111119047Y-47985714D01*
X111309523Y-47985714D01*
X111404761Y-48033333D01*
X111452380Y-48128571D01*
X111452380Y-48223809D01*
X110976190Y-48319047D01*
X111880952Y-48652380D02*
X111880952Y-47985714D01*
X111880952Y-48176190D02*
X111928571Y-48080952D01*
X111976190Y-48033333D01*
X112071428Y-47985714D01*
X112166666Y-47985714D01*
X112642857Y-48652380D02*
X112547619Y-48604761D01*
X112500000Y-48557142D01*
X112452380Y-48461904D01*
X112452380Y-48176190D01*
X112500000Y-48080952D01*
X112547619Y-48033333D01*
X112642857Y-47985714D01*
X112785714Y-47985714D01*
X112880952Y-48033333D01*
X112928571Y-48080952D01*
X112976190Y-48176190D01*
X112976190Y-48461904D01*
X112928571Y-48557142D01*
X112880952Y-48604761D01*
X112785714Y-48652380D01*
X112642857Y-48652380D01*
X113404761Y-48271428D02*
X114166666Y-48271428D01*
X114595238Y-47747619D02*
X114642857Y-47700000D01*
X114738095Y-47652380D01*
X114976190Y-47652380D01*
X115071428Y-47700000D01*
X115119047Y-47747619D01*
X115166666Y-47842857D01*
X115166666Y-47938095D01*
X115119047Y-48080952D01*
X114547619Y-48652380D01*
X115166666Y-48652380D01*
X115642857Y-48652380D02*
X115833333Y-48652380D01*
X115928571Y-48604761D01*
X115976190Y-48557142D01*
X116071428Y-48414285D01*
X116119047Y-48223809D01*
X116119047Y-47842857D01*
X116071428Y-47747619D01*
X116023809Y-47700000D01*
X115928571Y-47652380D01*
X115738095Y-47652380D01*
X115642857Y-47700000D01*
X115595238Y-47747619D01*
X115547619Y-47842857D01*
X115547619Y-48080952D01*
X115595238Y-48176190D01*
X115642857Y-48223809D01*
X115738095Y-48271428D01*
X115928571Y-48271428D01*
X116023809Y-48223809D01*
X116071428Y-48176190D01*
X116119047Y-48080952D01*
X66642380Y-68293333D02*
X66166190Y-68626666D01*
X66642380Y-68864761D02*
X65642380Y-68864761D01*
X65642380Y-68483809D01*
X65690000Y-68388571D01*
X65737619Y-68340952D01*
X65832857Y-68293333D01*
X65975714Y-68293333D01*
X66070952Y-68340952D01*
X66118571Y-68388571D01*
X66166190Y-68483809D01*
X66166190Y-68864761D01*
X66118571Y-67864761D02*
X66118571Y-67531428D01*
X66642380Y-67388571D02*
X66642380Y-67864761D01*
X65642380Y-67864761D01*
X65642380Y-67388571D01*
X66118571Y-66626666D02*
X66118571Y-66960000D01*
X66642380Y-66960000D02*
X65642380Y-66960000D01*
X65642380Y-66483809D01*
X65642380Y-65960000D02*
X65880476Y-65960000D01*
X65785238Y-66198095D02*
X65880476Y-65960000D01*
X65785238Y-65721904D01*
X66070952Y-66102857D02*
X65880476Y-65960000D01*
X66070952Y-65817142D01*
X65642380Y-65198095D02*
X65880476Y-65198095D01*
X65785238Y-65436190D02*
X65880476Y-65198095D01*
X65785238Y-64960000D01*
X66070952Y-65340952D02*
X65880476Y-65198095D01*
X66070952Y-65055238D01*
%TO.C,U18*%
X71301980Y-143212695D02*
X72111504Y-143212695D01*
X72206742Y-143165076D01*
X72254361Y-143117457D01*
X72301980Y-143022219D01*
X72301980Y-142831742D01*
X72254361Y-142736504D01*
X72206742Y-142688885D01*
X72111504Y-142641266D01*
X71301980Y-142641266D01*
X72301980Y-141641266D02*
X72301980Y-142212695D01*
X72301980Y-141926980D02*
X71301980Y-141926980D01*
X71444838Y-142022219D01*
X71540076Y-142117457D01*
X71587695Y-142212695D01*
X71730552Y-141069838D02*
X71682933Y-141165076D01*
X71635314Y-141212695D01*
X71540076Y-141260314D01*
X71492457Y-141260314D01*
X71397219Y-141212695D01*
X71349600Y-141165076D01*
X71301980Y-141069838D01*
X71301980Y-140879361D01*
X71349600Y-140784123D01*
X71397219Y-140736504D01*
X71492457Y-140688885D01*
X71540076Y-140688885D01*
X71635314Y-140736504D01*
X71682933Y-140784123D01*
X71730552Y-140879361D01*
X71730552Y-141069838D01*
X71778171Y-141165076D01*
X71825790Y-141212695D01*
X71921028Y-141260314D01*
X72111504Y-141260314D01*
X72206742Y-141212695D01*
X72254361Y-141165076D01*
X72301980Y-141069838D01*
X72301980Y-140879361D01*
X72254361Y-140784123D01*
X72206742Y-140736504D01*
X72111504Y-140688885D01*
X71921028Y-140688885D01*
X71825790Y-140736504D01*
X71778171Y-140784123D01*
X71730552Y-140879361D01*
%TO.C,D1*%
X200991904Y-165412380D02*
X200991904Y-164412380D01*
X201230000Y-164412380D01*
X201372857Y-164460000D01*
X201468095Y-164555238D01*
X201515714Y-164650476D01*
X201563333Y-164840952D01*
X201563333Y-164983809D01*
X201515714Y-165174285D01*
X201468095Y-165269523D01*
X201372857Y-165364761D01*
X201230000Y-165412380D01*
X200991904Y-165412380D01*
X202515714Y-165412380D02*
X201944285Y-165412380D01*
X202230000Y-165412380D02*
X202230000Y-164412380D01*
X202134761Y-164555238D01*
X202039523Y-164650476D01*
X201944285Y-164698095D01*
%TO.C,D2*%
X220071904Y-145982380D02*
X220071904Y-144982380D01*
X220310000Y-144982380D01*
X220452857Y-145030000D01*
X220548095Y-145125238D01*
X220595714Y-145220476D01*
X220643333Y-145410952D01*
X220643333Y-145553809D01*
X220595714Y-145744285D01*
X220548095Y-145839523D01*
X220452857Y-145934761D01*
X220310000Y-145982380D01*
X220071904Y-145982380D01*
X221024285Y-145077619D02*
X221071904Y-145030000D01*
X221167142Y-144982380D01*
X221405238Y-144982380D01*
X221500476Y-145030000D01*
X221548095Y-145077619D01*
X221595714Y-145172857D01*
X221595714Y-145268095D01*
X221548095Y-145410952D01*
X220976666Y-145982380D01*
X221595714Y-145982380D01*
X216738095Y-146352380D02*
X216738095Y-145352380D01*
X217309523Y-146352380D02*
X216880952Y-145780952D01*
X217309523Y-145352380D02*
X216738095Y-145923809D01*
%TO.C,D3*%
X192991904Y-159412380D02*
X192991904Y-158412380D01*
X193230000Y-158412380D01*
X193372857Y-158460000D01*
X193468095Y-158555238D01*
X193515714Y-158650476D01*
X193563333Y-158840952D01*
X193563333Y-158983809D01*
X193515714Y-159174285D01*
X193468095Y-159269523D01*
X193372857Y-159364761D01*
X193230000Y-159412380D01*
X192991904Y-159412380D01*
X193896666Y-158412380D02*
X194515714Y-158412380D01*
X194182380Y-158793333D01*
X194325238Y-158793333D01*
X194420476Y-158840952D01*
X194468095Y-158888571D01*
X194515714Y-158983809D01*
X194515714Y-159221904D01*
X194468095Y-159317142D01*
X194420476Y-159364761D01*
X194325238Y-159412380D01*
X194039523Y-159412380D01*
X193944285Y-159364761D01*
X193896666Y-159317142D01*
%TO.C,R1*%
X216372380Y-158976666D02*
X215896190Y-159310000D01*
X216372380Y-159548095D02*
X215372380Y-159548095D01*
X215372380Y-159167142D01*
X215420000Y-159071904D01*
X215467619Y-159024285D01*
X215562857Y-158976666D01*
X215705714Y-158976666D01*
X215800952Y-159024285D01*
X215848571Y-159071904D01*
X215896190Y-159167142D01*
X215896190Y-159548095D01*
X216372380Y-158024285D02*
X216372380Y-158595714D01*
X216372380Y-158310000D02*
X215372380Y-158310000D01*
X215515238Y-158405238D01*
X215610476Y-158500476D01*
X215658095Y-158595714D01*
%TO.C,R2*%
X181643333Y-155532380D02*
X181310000Y-155056190D01*
X181071904Y-155532380D02*
X181071904Y-154532380D01*
X181452857Y-154532380D01*
X181548095Y-154580000D01*
X181595714Y-154627619D01*
X181643333Y-154722857D01*
X181643333Y-154865714D01*
X181595714Y-154960952D01*
X181548095Y-155008571D01*
X181452857Y-155056190D01*
X181071904Y-155056190D01*
X182024285Y-154627619D02*
X182071904Y-154580000D01*
X182167142Y-154532380D01*
X182405238Y-154532380D01*
X182500476Y-154580000D01*
X182548095Y-154627619D01*
X182595714Y-154722857D01*
X182595714Y-154818095D01*
X182548095Y-154960952D01*
X181976666Y-155532380D01*
X182595714Y-155532380D01*
%TO.C,R3*%
X207643333Y-148532380D02*
X207310000Y-148056190D01*
X207071904Y-148532380D02*
X207071904Y-147532380D01*
X207452857Y-147532380D01*
X207548095Y-147580000D01*
X207595714Y-147627619D01*
X207643333Y-147722857D01*
X207643333Y-147865714D01*
X207595714Y-147960952D01*
X207548095Y-148008571D01*
X207452857Y-148056190D01*
X207071904Y-148056190D01*
X207976666Y-147532380D02*
X208595714Y-147532380D01*
X208262380Y-147913333D01*
X208405238Y-147913333D01*
X208500476Y-147960952D01*
X208548095Y-148008571D01*
X208595714Y-148103809D01*
X208595714Y-148341904D01*
X208548095Y-148437142D01*
X208500476Y-148484761D01*
X208405238Y-148532380D01*
X208119523Y-148532380D01*
X208024285Y-148484761D01*
X207976666Y-148437142D01*
%TO.C,R4*%
X202128334Y-139347381D02*
X201795001Y-138871191D01*
X201556905Y-139347381D02*
X201556905Y-138347381D01*
X201937858Y-138347381D01*
X202033096Y-138395001D01*
X202080715Y-138442620D01*
X202128334Y-138537858D01*
X202128334Y-138680715D01*
X202080715Y-138775953D01*
X202033096Y-138823572D01*
X201937858Y-138871191D01*
X201556905Y-138871191D01*
X202985477Y-138680715D02*
X202985477Y-139347381D01*
X202747381Y-138299762D02*
X202509286Y-139014048D01*
X203128334Y-139014048D01*
%TO.C,R5*%
X191558334Y-139347381D02*
X191225001Y-138871191D01*
X190986905Y-139347381D02*
X190986905Y-138347381D01*
X191367858Y-138347381D01*
X191463096Y-138395001D01*
X191510715Y-138442620D01*
X191558334Y-138537858D01*
X191558334Y-138680715D01*
X191510715Y-138775953D01*
X191463096Y-138823572D01*
X191367858Y-138871191D01*
X190986905Y-138871191D01*
X192463096Y-138347381D02*
X191986905Y-138347381D01*
X191939286Y-138823572D01*
X191986905Y-138775953D01*
X192082143Y-138728334D01*
X192320239Y-138728334D01*
X192415477Y-138775953D01*
X192463096Y-138823572D01*
X192510715Y-138918810D01*
X192510715Y-139156905D01*
X192463096Y-139252143D01*
X192415477Y-139299762D01*
X192320239Y-139347381D01*
X192082143Y-139347381D01*
X191986905Y-139299762D01*
X191939286Y-139252143D01*
%TO.C,R6*%
X109643333Y-213532380D02*
X109310000Y-213056190D01*
X109071904Y-213532380D02*
X109071904Y-212532380D01*
X109452857Y-212532380D01*
X109548095Y-212580000D01*
X109595714Y-212627619D01*
X109643333Y-212722857D01*
X109643333Y-212865714D01*
X109595714Y-212960952D01*
X109548095Y-213008571D01*
X109452857Y-213056190D01*
X109071904Y-213056190D01*
X110500476Y-212532380D02*
X110310000Y-212532380D01*
X110214761Y-212580000D01*
X110167142Y-212627619D01*
X110071904Y-212770476D01*
X110024285Y-212960952D01*
X110024285Y-213341904D01*
X110071904Y-213437142D01*
X110119523Y-213484761D01*
X110214761Y-213532380D01*
X110405238Y-213532380D01*
X110500476Y-213484761D01*
X110548095Y-213437142D01*
X110595714Y-213341904D01*
X110595714Y-213103809D01*
X110548095Y-213008571D01*
X110500476Y-212960952D01*
X110405238Y-212913333D01*
X110214761Y-212913333D01*
X110119523Y-212960952D01*
X110071904Y-213008571D01*
X110024285Y-213103809D01*
%TO.C,R7*%
X199023333Y-248372380D02*
X198690000Y-247896190D01*
X198451904Y-248372380D02*
X198451904Y-247372380D01*
X198832857Y-247372380D01*
X198928095Y-247420000D01*
X198975714Y-247467619D01*
X199023333Y-247562857D01*
X199023333Y-247705714D01*
X198975714Y-247800952D01*
X198928095Y-247848571D01*
X198832857Y-247896190D01*
X198451904Y-247896190D01*
X199356666Y-247372380D02*
X200023333Y-247372380D01*
X199594761Y-248372380D01*
%TO.C,R8*%
X220643333Y-234532380D02*
X220310000Y-234056190D01*
X220071904Y-234532380D02*
X220071904Y-233532380D01*
X220452857Y-233532380D01*
X220548095Y-233580000D01*
X220595714Y-233627619D01*
X220643333Y-233722857D01*
X220643333Y-233865714D01*
X220595714Y-233960952D01*
X220548095Y-234008571D01*
X220452857Y-234056190D01*
X220071904Y-234056190D01*
X221214761Y-233960952D02*
X221119523Y-233913333D01*
X221071904Y-233865714D01*
X221024285Y-233770476D01*
X221024285Y-233722857D01*
X221071904Y-233627619D01*
X221119523Y-233580000D01*
X221214761Y-233532380D01*
X221405238Y-233532380D01*
X221500476Y-233580000D01*
X221548095Y-233627619D01*
X221595714Y-233722857D01*
X221595714Y-233770476D01*
X221548095Y-233865714D01*
X221500476Y-233913333D01*
X221405238Y-233960952D01*
X221214761Y-233960952D01*
X221119523Y-234008571D01*
X221071904Y-234056190D01*
X221024285Y-234151428D01*
X221024285Y-234341904D01*
X221071904Y-234437142D01*
X221119523Y-234484761D01*
X221214761Y-234532380D01*
X221405238Y-234532380D01*
X221500476Y-234484761D01*
X221548095Y-234437142D01*
X221595714Y-234341904D01*
X221595714Y-234151428D01*
X221548095Y-234056190D01*
X221500476Y-234008571D01*
X221405238Y-233960952D01*
%TO.C,R9*%
X196023333Y-172372380D02*
X195690000Y-171896190D01*
X195451904Y-172372380D02*
X195451904Y-171372380D01*
X195832857Y-171372380D01*
X195928095Y-171420000D01*
X195975714Y-171467619D01*
X196023333Y-171562857D01*
X196023333Y-171705714D01*
X195975714Y-171800952D01*
X195928095Y-171848571D01*
X195832857Y-171896190D01*
X195451904Y-171896190D01*
X196499523Y-172372380D02*
X196690000Y-172372380D01*
X196785238Y-172324761D01*
X196832857Y-172277142D01*
X196928095Y-172134285D01*
X196975714Y-171943809D01*
X196975714Y-171562857D01*
X196928095Y-171467619D01*
X196880476Y-171420000D01*
X196785238Y-171372380D01*
X196594761Y-171372380D01*
X196499523Y-171420000D01*
X196451904Y-171467619D01*
X196404285Y-171562857D01*
X196404285Y-171800952D01*
X196451904Y-171896190D01*
X196499523Y-171943809D01*
X196594761Y-171991428D01*
X196785238Y-171991428D01*
X196880476Y-171943809D01*
X196928095Y-171896190D01*
X196975714Y-171800952D01*
%TO.C,R10*%
X192167142Y-163532380D02*
X191833809Y-163056190D01*
X191595714Y-163532380D02*
X191595714Y-162532380D01*
X191976666Y-162532380D01*
X192071904Y-162580000D01*
X192119523Y-162627619D01*
X192167142Y-162722857D01*
X192167142Y-162865714D01*
X192119523Y-162960952D01*
X192071904Y-163008571D01*
X191976666Y-163056190D01*
X191595714Y-163056190D01*
X193119523Y-163532380D02*
X192548095Y-163532380D01*
X192833809Y-163532380D02*
X192833809Y-162532380D01*
X192738571Y-162675238D01*
X192643333Y-162770476D01*
X192548095Y-162818095D01*
X193738571Y-162532380D02*
X193833809Y-162532380D01*
X193929047Y-162580000D01*
X193976666Y-162627619D01*
X194024285Y-162722857D01*
X194071904Y-162913333D01*
X194071904Y-163151428D01*
X194024285Y-163341904D01*
X193976666Y-163437142D01*
X193929047Y-163484761D01*
X193833809Y-163532380D01*
X193738571Y-163532380D01*
X193643333Y-163484761D01*
X193595714Y-163437142D01*
X193548095Y-163341904D01*
X193500476Y-163151428D01*
X193500476Y-162913333D01*
X193548095Y-162722857D01*
X193595714Y-162627619D01*
X193643333Y-162580000D01*
X193738571Y-162532380D01*
%TO.C,SW1*%
X219476666Y-136984761D02*
X219619523Y-137032380D01*
X219857619Y-137032380D01*
X219952857Y-136984761D01*
X220000476Y-136937142D01*
X220048095Y-136841904D01*
X220048095Y-136746666D01*
X220000476Y-136651428D01*
X219952857Y-136603809D01*
X219857619Y-136556190D01*
X219667142Y-136508571D01*
X219571904Y-136460952D01*
X219524285Y-136413333D01*
X219476666Y-136318095D01*
X219476666Y-136222857D01*
X219524285Y-136127619D01*
X219571904Y-136080000D01*
X219667142Y-136032380D01*
X219905238Y-136032380D01*
X220048095Y-136080000D01*
X220381428Y-136032380D02*
X220619523Y-137032380D01*
X220810000Y-136318095D01*
X221000476Y-137032380D01*
X221238571Y-136032380D01*
X222143333Y-137032380D02*
X221571904Y-137032380D01*
X221857619Y-137032380D02*
X221857619Y-136032380D01*
X221762380Y-136175238D01*
X221667142Y-136270476D01*
X221571904Y-136318095D01*
%TO.C,SW2*%
X174276666Y-142184761D02*
X174419523Y-142232380D01*
X174657619Y-142232380D01*
X174752857Y-142184761D01*
X174800476Y-142137142D01*
X174848095Y-142041904D01*
X174848095Y-141946666D01*
X174800476Y-141851428D01*
X174752857Y-141803809D01*
X174657619Y-141756190D01*
X174467142Y-141708571D01*
X174371904Y-141660952D01*
X174324285Y-141613333D01*
X174276666Y-141518095D01*
X174276666Y-141422857D01*
X174324285Y-141327619D01*
X174371904Y-141280000D01*
X174467142Y-141232380D01*
X174705238Y-141232380D01*
X174848095Y-141280000D01*
X175181428Y-141232380D02*
X175419523Y-142232380D01*
X175610000Y-141518095D01*
X175800476Y-142232380D01*
X176038571Y-141232380D01*
X176371904Y-141327619D02*
X176419523Y-141280000D01*
X176514761Y-141232380D01*
X176752857Y-141232380D01*
X176848095Y-141280000D01*
X176895714Y-141327619D01*
X176943333Y-141422857D01*
X176943333Y-141518095D01*
X176895714Y-141660952D01*
X176324285Y-142232380D01*
X176943333Y-142232380D01*
%TO.C,SW3*%
X159824761Y-169143333D02*
X159872380Y-169000476D01*
X159872380Y-168762380D01*
X159824761Y-168667142D01*
X159777142Y-168619523D01*
X159681904Y-168571904D01*
X159586666Y-168571904D01*
X159491428Y-168619523D01*
X159443809Y-168667142D01*
X159396190Y-168762380D01*
X159348571Y-168952857D01*
X159300952Y-169048095D01*
X159253333Y-169095714D01*
X159158095Y-169143333D01*
X159062857Y-169143333D01*
X158967619Y-169095714D01*
X158920000Y-169048095D01*
X158872380Y-168952857D01*
X158872380Y-168714761D01*
X158920000Y-168571904D01*
X158872380Y-168238571D02*
X159872380Y-168000476D01*
X159158095Y-167810000D01*
X159872380Y-167619523D01*
X158872380Y-167381428D01*
X158872380Y-167095714D02*
X158872380Y-166476666D01*
X159253333Y-166810000D01*
X159253333Y-166667142D01*
X159300952Y-166571904D01*
X159348571Y-166524285D01*
X159443809Y-166476666D01*
X159681904Y-166476666D01*
X159777142Y-166524285D01*
X159824761Y-166571904D01*
X159872380Y-166667142D01*
X159872380Y-166952857D01*
X159824761Y-167048095D01*
X159777142Y-167095714D01*
%TO.C,SW4*%
X150476666Y-124984761D02*
X150619523Y-125032380D01*
X150857619Y-125032380D01*
X150952857Y-124984761D01*
X151000476Y-124937142D01*
X151048095Y-124841904D01*
X151048095Y-124746666D01*
X151000476Y-124651428D01*
X150952857Y-124603809D01*
X150857619Y-124556190D01*
X150667142Y-124508571D01*
X150571904Y-124460952D01*
X150524285Y-124413333D01*
X150476666Y-124318095D01*
X150476666Y-124222857D01*
X150524285Y-124127619D01*
X150571904Y-124080000D01*
X150667142Y-124032380D01*
X150905238Y-124032380D01*
X151048095Y-124080000D01*
X151381428Y-124032380D02*
X151619523Y-125032380D01*
X151810000Y-124318095D01*
X152000476Y-125032380D01*
X152238571Y-124032380D01*
X153048095Y-124365714D02*
X153048095Y-125032380D01*
X152810000Y-123984761D02*
X152571904Y-124699047D01*
X153190952Y-124699047D01*
%TO.C,SW5*%
X48984761Y-69523333D02*
X49032380Y-69380476D01*
X49032380Y-69142380D01*
X48984761Y-69047142D01*
X48937142Y-68999523D01*
X48841904Y-68951904D01*
X48746666Y-68951904D01*
X48651428Y-68999523D01*
X48603809Y-69047142D01*
X48556190Y-69142380D01*
X48508571Y-69332857D01*
X48460952Y-69428095D01*
X48413333Y-69475714D01*
X48318095Y-69523333D01*
X48222857Y-69523333D01*
X48127619Y-69475714D01*
X48080000Y-69428095D01*
X48032380Y-69332857D01*
X48032380Y-69094761D01*
X48080000Y-68951904D01*
X48032380Y-68618571D02*
X49032380Y-68380476D01*
X48318095Y-68190000D01*
X49032380Y-67999523D01*
X48032380Y-67761428D01*
X48032380Y-66904285D02*
X48032380Y-67380476D01*
X48508571Y-67428095D01*
X48460952Y-67380476D01*
X48413333Y-67285238D01*
X48413333Y-67047142D01*
X48460952Y-66951904D01*
X48508571Y-66904285D01*
X48603809Y-66856666D01*
X48841904Y-66856666D01*
X48937142Y-66904285D01*
X48984761Y-66951904D01*
X49032380Y-67047142D01*
X49032380Y-67285238D01*
X48984761Y-67380476D01*
X48937142Y-67428095D01*
%TO.C,SW6*%
X141984761Y-168523333D02*
X142032380Y-168380476D01*
X142032380Y-168142380D01*
X141984761Y-168047142D01*
X141937142Y-167999523D01*
X141841904Y-167951904D01*
X141746666Y-167951904D01*
X141651428Y-167999523D01*
X141603809Y-168047142D01*
X141556190Y-168142380D01*
X141508571Y-168332857D01*
X141460952Y-168428095D01*
X141413333Y-168475714D01*
X141318095Y-168523333D01*
X141222857Y-168523333D01*
X141127619Y-168475714D01*
X141080000Y-168428095D01*
X141032380Y-168332857D01*
X141032380Y-168094761D01*
X141080000Y-167951904D01*
X141032380Y-167618571D02*
X142032380Y-167380476D01*
X141318095Y-167190000D01*
X142032380Y-166999523D01*
X141032380Y-166761428D01*
X141032380Y-165951904D02*
X141032380Y-166142380D01*
X141080000Y-166237619D01*
X141127619Y-166285238D01*
X141270476Y-166380476D01*
X141460952Y-166428095D01*
X141841904Y-166428095D01*
X141937142Y-166380476D01*
X141984761Y-166332857D01*
X142032380Y-166237619D01*
X142032380Y-166047142D01*
X141984761Y-165951904D01*
X141937142Y-165904285D01*
X141841904Y-165856666D01*
X141603809Y-165856666D01*
X141508571Y-165904285D01*
X141460952Y-165951904D01*
X141413333Y-166047142D01*
X141413333Y-166237619D01*
X141460952Y-166332857D01*
X141508571Y-166380476D01*
X141603809Y-166428095D01*
%TO.C,SW7*%
X55856666Y-201824761D02*
X55999523Y-201872380D01*
X56237619Y-201872380D01*
X56332857Y-201824761D01*
X56380476Y-201777142D01*
X56428095Y-201681904D01*
X56428095Y-201586666D01*
X56380476Y-201491428D01*
X56332857Y-201443809D01*
X56237619Y-201396190D01*
X56047142Y-201348571D01*
X55951904Y-201300952D01*
X55904285Y-201253333D01*
X55856666Y-201158095D01*
X55856666Y-201062857D01*
X55904285Y-200967619D01*
X55951904Y-200920000D01*
X56047142Y-200872380D01*
X56285238Y-200872380D01*
X56428095Y-200920000D01*
X56761428Y-200872380D02*
X56999523Y-201872380D01*
X57190000Y-201158095D01*
X57380476Y-201872380D01*
X57618571Y-200872380D01*
X57904285Y-200872380D02*
X58570952Y-200872380D01*
X58142380Y-201872380D01*
%TO.C,SW8*%
X208666666Y-249604761D02*
X208809523Y-249652380D01*
X209047619Y-249652380D01*
X209142857Y-249604761D01*
X209190476Y-249557142D01*
X209238095Y-249461904D01*
X209238095Y-249366666D01*
X209190476Y-249271428D01*
X209142857Y-249223809D01*
X209047619Y-249176190D01*
X208857142Y-249128571D01*
X208761904Y-249080952D01*
X208714285Y-249033333D01*
X208666666Y-248938095D01*
X208666666Y-248842857D01*
X208714285Y-248747619D01*
X208761904Y-248700000D01*
X208857142Y-248652380D01*
X209095238Y-248652380D01*
X209238095Y-248700000D01*
X209571428Y-248652380D02*
X209809523Y-249652380D01*
X210000000Y-248938095D01*
X210190476Y-249652380D01*
X210428571Y-248652380D01*
X210952380Y-249080952D02*
X210857142Y-249033333D01*
X210809523Y-248985714D01*
X210761904Y-248890476D01*
X210761904Y-248842857D01*
X210809523Y-248747619D01*
X210857142Y-248700000D01*
X210952380Y-248652380D01*
X211142857Y-248652380D01*
X211238095Y-248700000D01*
X211285714Y-248747619D01*
X211333333Y-248842857D01*
X211333333Y-248890476D01*
X211285714Y-248985714D01*
X211238095Y-249033333D01*
X211142857Y-249080952D01*
X210952380Y-249080952D01*
X210857142Y-249128571D01*
X210809523Y-249176190D01*
X210761904Y-249271428D01*
X210761904Y-249461904D01*
X210809523Y-249557142D01*
X210857142Y-249604761D01*
X210952380Y-249652380D01*
X211142857Y-249652380D01*
X211238095Y-249604761D01*
X211285714Y-249557142D01*
X211333333Y-249461904D01*
X211333333Y-249271428D01*
X211285714Y-249176190D01*
X211238095Y-249128571D01*
X211142857Y-249080952D01*
%TO.C,SW9*%
X208666666Y-233204761D02*
X208809523Y-233252380D01*
X209047619Y-233252380D01*
X209142857Y-233204761D01*
X209190476Y-233157142D01*
X209238095Y-233061904D01*
X209238095Y-232966666D01*
X209190476Y-232871428D01*
X209142857Y-232823809D01*
X209047619Y-232776190D01*
X208857142Y-232728571D01*
X208761904Y-232680952D01*
X208714285Y-232633333D01*
X208666666Y-232538095D01*
X208666666Y-232442857D01*
X208714285Y-232347619D01*
X208761904Y-232300000D01*
X208857142Y-232252380D01*
X209095238Y-232252380D01*
X209238095Y-232300000D01*
X209571428Y-232252380D02*
X209809523Y-233252380D01*
X210000000Y-232538095D01*
X210190476Y-233252380D01*
X210428571Y-232252380D01*
X210857142Y-233252380D02*
X211047619Y-233252380D01*
X211142857Y-233204761D01*
X211190476Y-233157142D01*
X211285714Y-233014285D01*
X211333333Y-232823809D01*
X211333333Y-232442857D01*
X211285714Y-232347619D01*
X211238095Y-232300000D01*
X211142857Y-232252380D01*
X210952380Y-232252380D01*
X210857142Y-232300000D01*
X210809523Y-232347619D01*
X210761904Y-232442857D01*
X210761904Y-232680952D01*
X210809523Y-232776190D01*
X210857142Y-232823809D01*
X210952380Y-232871428D01*
X211142857Y-232871428D01*
X211238095Y-232823809D01*
X211285714Y-232776190D01*
X211333333Y-232680952D01*
%TO.C,U1*%
X265452380Y-150761904D02*
X266261904Y-150761904D01*
X266357142Y-150714285D01*
X266404761Y-150666666D01*
X266452380Y-150571428D01*
X266452380Y-150380952D01*
X266404761Y-150285714D01*
X266357142Y-150238095D01*
X266261904Y-150190476D01*
X265452380Y-150190476D01*
X266452380Y-149190476D02*
X266452380Y-149761904D01*
X266452380Y-149476190D02*
X265452380Y-149476190D01*
X265595238Y-149571428D01*
X265690476Y-149666666D01*
X265738095Y-149761904D01*
X267857142Y-156119047D02*
X267904761Y-156166666D01*
X267952380Y-156309523D01*
X267952380Y-156404761D01*
X267904761Y-156547619D01*
X267809523Y-156642857D01*
X267714285Y-156690476D01*
X267523809Y-156738095D01*
X267380952Y-156738095D01*
X267190476Y-156690476D01*
X267095238Y-156642857D01*
X267000000Y-156547619D01*
X266952380Y-156404761D01*
X266952380Y-156309523D01*
X267000000Y-156166666D01*
X267047619Y-156119047D01*
X267952380Y-155547619D02*
X267904761Y-155642857D01*
X267857142Y-155690476D01*
X267761904Y-155738095D01*
X267476190Y-155738095D01*
X267380952Y-155690476D01*
X267333333Y-155642857D01*
X267285714Y-155547619D01*
X267285714Y-155404761D01*
X267333333Y-155309523D01*
X267380952Y-155261904D01*
X267476190Y-155214285D01*
X267761904Y-155214285D01*
X267857142Y-155261904D01*
X267904761Y-155309523D01*
X267952380Y-155404761D01*
X267952380Y-155547619D01*
X267285714Y-154785714D02*
X267952380Y-154785714D01*
X267380952Y-154785714D02*
X267333333Y-154738095D01*
X267285714Y-154642857D01*
X267285714Y-154500000D01*
X267333333Y-154404761D01*
X267428571Y-154357142D01*
X267952380Y-154357142D01*
X267285714Y-153880952D02*
X267952380Y-153880952D01*
X267380952Y-153880952D02*
X267333333Y-153833333D01*
X267285714Y-153738095D01*
X267285714Y-153595238D01*
X267333333Y-153500000D01*
X267428571Y-153452380D01*
X267952380Y-153452380D01*
X267904761Y-152595238D02*
X267952380Y-152690476D01*
X267952380Y-152880952D01*
X267904761Y-152976190D01*
X267809523Y-153023809D01*
X267428571Y-153023809D01*
X267333333Y-152976190D01*
X267285714Y-152880952D01*
X267285714Y-152690476D01*
X267333333Y-152595238D01*
X267428571Y-152547619D01*
X267523809Y-152547619D01*
X267619047Y-153023809D01*
X267904761Y-151690476D02*
X267952380Y-151785714D01*
X267952380Y-151976190D01*
X267904761Y-152071428D01*
X267857142Y-152119047D01*
X267761904Y-152166666D01*
X267476190Y-152166666D01*
X267380952Y-152119047D01*
X267333333Y-152071428D01*
X267285714Y-151976190D01*
X267285714Y-151785714D01*
X267333333Y-151690476D01*
X267285714Y-151404761D02*
X267285714Y-151023809D01*
X266952380Y-151261904D02*
X267809523Y-151261904D01*
X267904761Y-151214285D01*
X267952380Y-151119047D01*
X267952380Y-151023809D01*
X267952380Y-150547619D02*
X267904761Y-150642857D01*
X267857142Y-150690476D01*
X267761904Y-150738095D01*
X267476190Y-150738095D01*
X267380952Y-150690476D01*
X267333333Y-150642857D01*
X267285714Y-150547619D01*
X267285714Y-150404761D01*
X267333333Y-150309523D01*
X267380952Y-150261904D01*
X267476190Y-150214285D01*
X267761904Y-150214285D01*
X267857142Y-150261904D01*
X267904761Y-150309523D01*
X267952380Y-150404761D01*
X267952380Y-150547619D01*
X267952380Y-149785714D02*
X267285714Y-149785714D01*
X267476190Y-149785714D02*
X267380952Y-149738095D01*
X267333333Y-149690476D01*
X267285714Y-149595238D01*
X267285714Y-149500000D01*
X267571428Y-149166666D02*
X267571428Y-148404761D01*
X267952380Y-147928571D02*
X266952380Y-147928571D01*
X266952380Y-147547619D01*
X267000000Y-147452380D01*
X267047619Y-147404761D01*
X267142857Y-147357142D01*
X267285714Y-147357142D01*
X267380952Y-147404761D01*
X267428571Y-147452380D01*
X267476190Y-147547619D01*
X267476190Y-147928571D01*
X266952380Y-146738095D02*
X266952380Y-146547619D01*
X267000000Y-146452380D01*
X267095238Y-146357142D01*
X267285714Y-146309523D01*
X267619047Y-146309523D01*
X267809523Y-146357142D01*
X267904761Y-146452380D01*
X267952380Y-146547619D01*
X267952380Y-146738095D01*
X267904761Y-146833333D01*
X267809523Y-146928571D01*
X267619047Y-146976190D01*
X267285714Y-146976190D01*
X267095238Y-146928571D01*
X267000000Y-146833333D01*
X266952380Y-146738095D01*
X266952380Y-145976190D02*
X267952380Y-145738095D01*
X267238095Y-145547619D01*
X267952380Y-145357142D01*
X266952380Y-145119047D01*
X267428571Y-144738095D02*
X267428571Y-144404761D01*
X267952380Y-144261904D02*
X267952380Y-144738095D01*
X266952380Y-144738095D01*
X266952380Y-144261904D01*
X267952380Y-143261904D02*
X267476190Y-143595238D01*
X267952380Y-143833333D02*
X266952380Y-143833333D01*
X266952380Y-143452380D01*
X267000000Y-143357142D01*
X267047619Y-143309523D01*
X267142857Y-143261904D01*
X267285714Y-143261904D01*
X267380952Y-143309523D01*
X267428571Y-143357142D01*
X267476190Y-143452380D01*
X267476190Y-143833333D01*
%TO.C,U2*%
X148352380Y-178761904D02*
X149161904Y-178761904D01*
X149257142Y-178714285D01*
X149304761Y-178666666D01*
X149352380Y-178571428D01*
X149352380Y-178380952D01*
X149304761Y-178285714D01*
X149257142Y-178238095D01*
X149161904Y-178190476D01*
X148352380Y-178190476D01*
X148447619Y-177761904D02*
X148400000Y-177714285D01*
X148352380Y-177619047D01*
X148352380Y-177380952D01*
X148400000Y-177285714D01*
X148447619Y-177238095D01*
X148542857Y-177190476D01*
X148638095Y-177190476D01*
X148780952Y-177238095D01*
X149352380Y-177809523D01*
X149352380Y-177190476D01*
%TO.C,U3*%
X241992380Y-160221904D02*
X242801904Y-160221904D01*
X242897142Y-160174285D01*
X242944761Y-160126666D01*
X242992380Y-160031428D01*
X242992380Y-159840952D01*
X242944761Y-159745714D01*
X242897142Y-159698095D01*
X242801904Y-159650476D01*
X241992380Y-159650476D01*
X241992380Y-159269523D02*
X241992380Y-158650476D01*
X242373333Y-158983809D01*
X242373333Y-158840952D01*
X242420952Y-158745714D01*
X242468571Y-158698095D01*
X242563809Y-158650476D01*
X242801904Y-158650476D01*
X242897142Y-158698095D01*
X242944761Y-158745714D01*
X242992380Y-158840952D01*
X242992380Y-159126666D01*
X242944761Y-159221904D01*
X242897142Y-159269523D01*
%TO.C,U4*%
X144048095Y-200032380D02*
X144048095Y-200841904D01*
X144095714Y-200937142D01*
X144143333Y-200984761D01*
X144238571Y-201032380D01*
X144429047Y-201032380D01*
X144524285Y-200984761D01*
X144571904Y-200937142D01*
X144619523Y-200841904D01*
X144619523Y-200032380D01*
X145524285Y-200365714D02*
X145524285Y-201032380D01*
X145286190Y-199984761D02*
X145048095Y-200699047D01*
X145667142Y-200699047D01*
%TO.C,U5*%
X184238095Y-221452380D02*
X184238095Y-222261904D01*
X184285714Y-222357142D01*
X184333333Y-222404761D01*
X184428571Y-222452380D01*
X184619047Y-222452380D01*
X184714285Y-222404761D01*
X184761904Y-222357142D01*
X184809523Y-222261904D01*
X184809523Y-221452380D01*
X185761904Y-221452380D02*
X185285714Y-221452380D01*
X185238095Y-221928571D01*
X185285714Y-221880952D01*
X185380952Y-221833333D01*
X185619047Y-221833333D01*
X185714285Y-221880952D01*
X185761904Y-221928571D01*
X185809523Y-222023809D01*
X185809523Y-222261904D01*
X185761904Y-222357142D01*
X185714285Y-222404761D01*
X185619047Y-222452380D01*
X185380952Y-222452380D01*
X185285714Y-222404761D01*
X185238095Y-222357142D01*
X183738095Y-228042380D02*
X183738095Y-228851904D01*
X183785714Y-228947142D01*
X183833333Y-228994761D01*
X183928571Y-229042380D01*
X184119047Y-229042380D01*
X184214285Y-228994761D01*
X184261904Y-228947142D01*
X184309523Y-228851904D01*
X184309523Y-228042380D01*
X184738095Y-228994761D02*
X184880952Y-229042380D01*
X185119047Y-229042380D01*
X185214285Y-228994761D01*
X185261904Y-228947142D01*
X185309523Y-228851904D01*
X185309523Y-228756666D01*
X185261904Y-228661428D01*
X185214285Y-228613809D01*
X185119047Y-228566190D01*
X184928571Y-228518571D01*
X184833333Y-228470952D01*
X184785714Y-228423333D01*
X184738095Y-228328095D01*
X184738095Y-228232857D01*
X184785714Y-228137619D01*
X184833333Y-228090000D01*
X184928571Y-228042380D01*
X185166666Y-228042380D01*
X185309523Y-228090000D01*
X186071428Y-228518571D02*
X186214285Y-228566190D01*
X186261904Y-228613809D01*
X186309523Y-228709047D01*
X186309523Y-228851904D01*
X186261904Y-228947142D01*
X186214285Y-228994761D01*
X186119047Y-229042380D01*
X185738095Y-229042380D01*
X185738095Y-228042380D01*
X186071428Y-228042380D01*
X186166666Y-228090000D01*
X186214285Y-228137619D01*
X186261904Y-228232857D01*
X186261904Y-228328095D01*
X186214285Y-228423333D01*
X186166666Y-228470952D01*
X186071428Y-228518571D01*
X185738095Y-228518571D01*
%TO.C,U7*%
X227992380Y-160221904D02*
X228801904Y-160221904D01*
X228897142Y-160174285D01*
X228944761Y-160126666D01*
X228992380Y-160031428D01*
X228992380Y-159840952D01*
X228944761Y-159745714D01*
X228897142Y-159698095D01*
X228801904Y-159650476D01*
X227992380Y-159650476D01*
X227992380Y-159269523D02*
X227992380Y-158602857D01*
X228992380Y-159031428D01*
%TO.C,U8*%
X173238095Y-155052380D02*
X173238095Y-155861904D01*
X173285714Y-155957142D01*
X173333333Y-156004761D01*
X173428571Y-156052380D01*
X173619047Y-156052380D01*
X173714285Y-156004761D01*
X173761904Y-155957142D01*
X173809523Y-155861904D01*
X173809523Y-155052380D01*
X174428571Y-155480952D02*
X174333333Y-155433333D01*
X174285714Y-155385714D01*
X174238095Y-155290476D01*
X174238095Y-155242857D01*
X174285714Y-155147619D01*
X174333333Y-155100000D01*
X174428571Y-155052380D01*
X174619047Y-155052380D01*
X174714285Y-155100000D01*
X174761904Y-155147619D01*
X174809523Y-155242857D01*
X174809523Y-155290476D01*
X174761904Y-155385714D01*
X174714285Y-155433333D01*
X174619047Y-155480952D01*
X174428571Y-155480952D01*
X174333333Y-155528571D01*
X174285714Y-155576190D01*
X174238095Y-155671428D01*
X174238095Y-155861904D01*
X174285714Y-155957142D01*
X174333333Y-156004761D01*
X174428571Y-156052380D01*
X174619047Y-156052380D01*
X174714285Y-156004761D01*
X174761904Y-155957142D01*
X174809523Y-155861904D01*
X174809523Y-155671428D01*
X174761904Y-155576190D01*
X174714285Y-155528571D01*
X174619047Y-155480952D01*
%TO.C,U9*%
X158352380Y-178761904D02*
X159161904Y-178761904D01*
X159257142Y-178714285D01*
X159304761Y-178666666D01*
X159352380Y-178571428D01*
X159352380Y-178380952D01*
X159304761Y-178285714D01*
X159257142Y-178238095D01*
X159161904Y-178190476D01*
X158352380Y-178190476D01*
X159352380Y-177666666D02*
X159352380Y-177476190D01*
X159304761Y-177380952D01*
X159257142Y-177333333D01*
X159114285Y-177238095D01*
X158923809Y-177190476D01*
X158542857Y-177190476D01*
X158447619Y-177238095D01*
X158400000Y-177285714D01*
X158352380Y-177380952D01*
X158352380Y-177571428D01*
X158400000Y-177666666D01*
X158447619Y-177714285D01*
X158542857Y-177761904D01*
X158780952Y-177761904D01*
X158876190Y-177714285D01*
X158923809Y-177666666D01*
X158971428Y-177571428D01*
X158971428Y-177380952D01*
X158923809Y-177285714D01*
X158876190Y-177238095D01*
X158780952Y-177190476D01*
%TO.C,U10*%
X265452380Y-135238095D02*
X266261904Y-135238095D01*
X266357142Y-135190476D01*
X266404761Y-135142857D01*
X266452380Y-135047619D01*
X266452380Y-134857142D01*
X266404761Y-134761904D01*
X266357142Y-134714285D01*
X266261904Y-134666666D01*
X265452380Y-134666666D01*
X266452380Y-133666666D02*
X266452380Y-134238095D01*
X266452380Y-133952380D02*
X265452380Y-133952380D01*
X265595238Y-134047619D01*
X265690476Y-134142857D01*
X265738095Y-134238095D01*
X265452380Y-133047619D02*
X265452380Y-132952380D01*
X265500000Y-132857142D01*
X265547619Y-132809523D01*
X265642857Y-132761904D01*
X265833333Y-132714285D01*
X266071428Y-132714285D01*
X266261904Y-132761904D01*
X266357142Y-132809523D01*
X266404761Y-132857142D01*
X266452380Y-132952380D01*
X266452380Y-133047619D01*
X266404761Y-133142857D01*
X266357142Y-133190476D01*
X266261904Y-133238095D01*
X266071428Y-133285714D01*
X265833333Y-133285714D01*
X265642857Y-133238095D01*
X265547619Y-133190476D01*
X265500000Y-133142857D01*
X265452380Y-133047619D01*
X267952380Y-139023809D02*
X266952380Y-139023809D01*
X266952380Y-138642857D01*
X267000000Y-138547619D01*
X267047619Y-138500000D01*
X267142857Y-138452380D01*
X267285714Y-138452380D01*
X267380952Y-138500000D01*
X267428571Y-138547619D01*
X267476190Y-138642857D01*
X267476190Y-139023809D01*
X267952380Y-137880952D02*
X267904761Y-137976190D01*
X267857142Y-138023809D01*
X267761904Y-138071428D01*
X267476190Y-138071428D01*
X267380952Y-138023809D01*
X267333333Y-137976190D01*
X267285714Y-137880952D01*
X267285714Y-137738095D01*
X267333333Y-137642857D01*
X267380952Y-137595238D01*
X267476190Y-137547619D01*
X267761904Y-137547619D01*
X267857142Y-137595238D01*
X267904761Y-137642857D01*
X267952380Y-137738095D01*
X267952380Y-137880952D01*
X267285714Y-137214285D02*
X267952380Y-137023809D01*
X267476190Y-136833333D01*
X267952380Y-136642857D01*
X267285714Y-136452380D01*
X267904761Y-135690476D02*
X267952380Y-135785714D01*
X267952380Y-135976190D01*
X267904761Y-136071428D01*
X267809523Y-136119047D01*
X267428571Y-136119047D01*
X267333333Y-136071428D01*
X267285714Y-135976190D01*
X267285714Y-135785714D01*
X267333333Y-135690476D01*
X267428571Y-135642857D01*
X267523809Y-135642857D01*
X267619047Y-136119047D01*
X267952380Y-135214285D02*
X267285714Y-135214285D01*
X267476190Y-135214285D02*
X267380952Y-135166666D01*
X267333333Y-135119047D01*
X267285714Y-135023809D01*
X267285714Y-134928571D01*
X267571428Y-134595238D02*
X267571428Y-133833333D01*
X267428571Y-133023809D02*
X267476190Y-132880952D01*
X267523809Y-132833333D01*
X267619047Y-132785714D01*
X267761904Y-132785714D01*
X267857142Y-132833333D01*
X267904761Y-132880952D01*
X267952380Y-132976190D01*
X267952380Y-133357142D01*
X266952380Y-133357142D01*
X266952380Y-133023809D01*
X267000000Y-132928571D01*
X267047619Y-132880952D01*
X267142857Y-132833333D01*
X267238095Y-132833333D01*
X267333333Y-132880952D01*
X267380952Y-132928571D01*
X267428571Y-133023809D01*
X267428571Y-133357142D01*
X267285714Y-131928571D02*
X267952380Y-131928571D01*
X267285714Y-132357142D02*
X267809523Y-132357142D01*
X267904761Y-132309523D01*
X267952380Y-132214285D01*
X267952380Y-132071428D01*
X267904761Y-131976190D01*
X267857142Y-131928571D01*
X267285714Y-131595238D02*
X267285714Y-131214285D01*
X266952380Y-131452380D02*
X267809523Y-131452380D01*
X267904761Y-131404761D01*
X267952380Y-131309523D01*
X267952380Y-131214285D01*
X267285714Y-131023809D02*
X267285714Y-130642857D01*
X266952380Y-130880952D02*
X267809523Y-130880952D01*
X267904761Y-130833333D01*
X267952380Y-130738095D01*
X267952380Y-130642857D01*
X267952380Y-130166666D02*
X267904761Y-130261904D01*
X267857142Y-130309523D01*
X267761904Y-130357142D01*
X267476190Y-130357142D01*
X267380952Y-130309523D01*
X267333333Y-130261904D01*
X267285714Y-130166666D01*
X267285714Y-130023809D01*
X267333333Y-129928571D01*
X267380952Y-129880952D01*
X267476190Y-129833333D01*
X267761904Y-129833333D01*
X267857142Y-129880952D01*
X267904761Y-129928571D01*
X267952380Y-130023809D01*
X267952380Y-130166666D01*
X267285714Y-129404761D02*
X267952380Y-129404761D01*
X267380952Y-129404761D02*
X267333333Y-129357142D01*
X267285714Y-129261904D01*
X267285714Y-129119047D01*
X267333333Y-129023809D01*
X267428571Y-128976190D01*
X267952380Y-128976190D01*
%TO.C,U11*%
X111811904Y-161590380D02*
X111811904Y-162399904D01*
X111859523Y-162495142D01*
X111907142Y-162542761D01*
X112002380Y-162590380D01*
X112192857Y-162590380D01*
X112288095Y-162542761D01*
X112335714Y-162495142D01*
X112383333Y-162399904D01*
X112383333Y-161590380D01*
X113383333Y-162590380D02*
X112811904Y-162590380D01*
X113097619Y-162590380D02*
X113097619Y-161590380D01*
X113002380Y-161733238D01*
X112907142Y-161828476D01*
X112811904Y-161876095D01*
X114335714Y-162590380D02*
X113764285Y-162590380D01*
X114050000Y-162590380D02*
X114050000Y-161590380D01*
X113954761Y-161733238D01*
X113859523Y-161828476D01*
X113764285Y-161876095D01*
%TO.C,U16*%
X164761904Y-186122380D02*
X164761904Y-186931904D01*
X164809523Y-187027142D01*
X164857142Y-187074761D01*
X164952380Y-187122380D01*
X165142857Y-187122380D01*
X165238095Y-187074761D01*
X165285714Y-187027142D01*
X165333333Y-186931904D01*
X165333333Y-186122380D01*
X166333333Y-187122380D02*
X165761904Y-187122380D01*
X166047619Y-187122380D02*
X166047619Y-186122380D01*
X165952380Y-186265238D01*
X165857142Y-186360476D01*
X165761904Y-186408095D01*
X167190476Y-186122380D02*
X167000000Y-186122380D01*
X166904761Y-186170000D01*
X166857142Y-186217619D01*
X166761904Y-186360476D01*
X166714285Y-186550952D01*
X166714285Y-186931904D01*
X166761904Y-187027142D01*
X166809523Y-187074761D01*
X166904761Y-187122380D01*
X167095238Y-187122380D01*
X167190476Y-187074761D01*
X167238095Y-187027142D01*
X167285714Y-186931904D01*
X167285714Y-186693809D01*
X167238095Y-186598571D01*
X167190476Y-186550952D01*
X167095238Y-186503333D01*
X166904761Y-186503333D01*
X166809523Y-186550952D01*
X166761904Y-186598571D01*
X166714285Y-186693809D01*
%TO.C,U17*%
X107561904Y-194452380D02*
X107561904Y-195261904D01*
X107609523Y-195357142D01*
X107657142Y-195404761D01*
X107752380Y-195452380D01*
X107942857Y-195452380D01*
X108038095Y-195404761D01*
X108085714Y-195357142D01*
X108133333Y-195261904D01*
X108133333Y-194452380D01*
X109133333Y-195452380D02*
X108561904Y-195452380D01*
X108847619Y-195452380D02*
X108847619Y-194452380D01*
X108752380Y-194595238D01*
X108657142Y-194690476D01*
X108561904Y-194738095D01*
X109466666Y-194452380D02*
X110133333Y-194452380D01*
X109704761Y-195452380D01*
%TO.C,U20*%
X201761904Y-186122380D02*
X201761904Y-186931904D01*
X201809523Y-187027142D01*
X201857142Y-187074761D01*
X201952380Y-187122380D01*
X202142857Y-187122380D01*
X202238095Y-187074761D01*
X202285714Y-187027142D01*
X202333333Y-186931904D01*
X202333333Y-186122380D01*
X202761904Y-186217619D02*
X202809523Y-186170000D01*
X202904761Y-186122380D01*
X203142857Y-186122380D01*
X203238095Y-186170000D01*
X203285714Y-186217619D01*
X203333333Y-186312857D01*
X203333333Y-186408095D01*
X203285714Y-186550952D01*
X202714285Y-187122380D01*
X203333333Y-187122380D01*
X203952380Y-186122380D02*
X204047619Y-186122380D01*
X204142857Y-186170000D01*
X204190476Y-186217619D01*
X204238095Y-186312857D01*
X204285714Y-186503333D01*
X204285714Y-186741428D01*
X204238095Y-186931904D01*
X204190476Y-187027142D01*
X204142857Y-187074761D01*
X204047619Y-187122380D01*
X203952380Y-187122380D01*
X203857142Y-187074761D01*
X203809523Y-187027142D01*
X203761904Y-186931904D01*
X203714285Y-186741428D01*
X203714285Y-186503333D01*
X203761904Y-186312857D01*
X203809523Y-186217619D01*
X203857142Y-186170000D01*
X203952380Y-186122380D01*
%TO.C,U21*%
X219761904Y-186122380D02*
X219761904Y-186931904D01*
X219809523Y-187027142D01*
X219857142Y-187074761D01*
X219952380Y-187122380D01*
X220142857Y-187122380D01*
X220238095Y-187074761D01*
X220285714Y-187027142D01*
X220333333Y-186931904D01*
X220333333Y-186122380D01*
X220761904Y-186217619D02*
X220809523Y-186170000D01*
X220904761Y-186122380D01*
X221142857Y-186122380D01*
X221238095Y-186170000D01*
X221285714Y-186217619D01*
X221333333Y-186312857D01*
X221333333Y-186408095D01*
X221285714Y-186550952D01*
X220714285Y-187122380D01*
X221333333Y-187122380D01*
X222285714Y-187122380D02*
X221714285Y-187122380D01*
X222000000Y-187122380D02*
X222000000Y-186122380D01*
X221904761Y-186265238D01*
X221809523Y-186360476D01*
X221714285Y-186408095D01*
%TO.C,U24*%
X173122380Y-120238095D02*
X173931904Y-120238095D01*
X174027142Y-120190476D01*
X174074761Y-120142857D01*
X174122380Y-120047619D01*
X174122380Y-119857142D01*
X174074761Y-119761904D01*
X174027142Y-119714285D01*
X173931904Y-119666666D01*
X173122380Y-119666666D01*
X173217619Y-119238095D02*
X173170000Y-119190476D01*
X173122380Y-119095238D01*
X173122380Y-118857142D01*
X173170000Y-118761904D01*
X173217619Y-118714285D01*
X173312857Y-118666666D01*
X173408095Y-118666666D01*
X173550952Y-118714285D01*
X174122380Y-119285714D01*
X174122380Y-118666666D01*
X173455714Y-117809523D02*
X174122380Y-117809523D01*
X173074761Y-118047619D02*
X173789047Y-118285714D01*
X173789047Y-117666666D01*
%TO.C,U25*%
X172882380Y-134238095D02*
X173691904Y-134238095D01*
X173787142Y-134190476D01*
X173834761Y-134142857D01*
X173882380Y-134047619D01*
X173882380Y-133857142D01*
X173834761Y-133761904D01*
X173787142Y-133714285D01*
X173691904Y-133666666D01*
X172882380Y-133666666D01*
X172977619Y-133238095D02*
X172930000Y-133190476D01*
X172882380Y-133095238D01*
X172882380Y-132857142D01*
X172930000Y-132761904D01*
X172977619Y-132714285D01*
X173072857Y-132666666D01*
X173168095Y-132666666D01*
X173310952Y-132714285D01*
X173882380Y-133285714D01*
X173882380Y-132666666D01*
X172882380Y-131761904D02*
X172882380Y-132238095D01*
X173358571Y-132285714D01*
X173310952Y-132238095D01*
X173263333Y-132142857D01*
X173263333Y-131904761D01*
X173310952Y-131809523D01*
X173358571Y-131761904D01*
X173453809Y-131714285D01*
X173691904Y-131714285D01*
X173787142Y-131761904D01*
X173834761Y-131809523D01*
X173882380Y-131904761D01*
X173882380Y-132142857D01*
X173834761Y-132238095D01*
X173787142Y-132285714D01*
%TO.C,U26*%
X173122380Y-127238095D02*
X173931904Y-127238095D01*
X174027142Y-127190476D01*
X174074761Y-127142857D01*
X174122380Y-127047619D01*
X174122380Y-126857142D01*
X174074761Y-126761904D01*
X174027142Y-126714285D01*
X173931904Y-126666666D01*
X173122380Y-126666666D01*
X173217619Y-126238095D02*
X173170000Y-126190476D01*
X173122380Y-126095238D01*
X173122380Y-125857142D01*
X173170000Y-125761904D01*
X173217619Y-125714285D01*
X173312857Y-125666666D01*
X173408095Y-125666666D01*
X173550952Y-125714285D01*
X174122380Y-126285714D01*
X174122380Y-125666666D01*
X173122380Y-124809523D02*
X173122380Y-125000000D01*
X173170000Y-125095238D01*
X173217619Y-125142857D01*
X173360476Y-125238095D01*
X173550952Y-125285714D01*
X173931904Y-125285714D01*
X174027142Y-125238095D01*
X174074761Y-125190476D01*
X174122380Y-125095238D01*
X174122380Y-124904761D01*
X174074761Y-124809523D01*
X174027142Y-124761904D01*
X173931904Y-124714285D01*
X173693809Y-124714285D01*
X173598571Y-124761904D01*
X173550952Y-124809523D01*
X173503333Y-124904761D01*
X173503333Y-125095238D01*
X173550952Y-125190476D01*
X173598571Y-125238095D01*
X173693809Y-125285714D01*
%TO.C,Q1*%
X251547619Y-141095238D02*
X251500000Y-141190476D01*
X251404761Y-141285714D01*
X251261904Y-141428571D01*
X251214285Y-141523809D01*
X251214285Y-141619047D01*
X251452380Y-141571428D02*
X251404761Y-141666666D01*
X251309523Y-141761904D01*
X251119047Y-141809523D01*
X250785714Y-141809523D01*
X250595238Y-141761904D01*
X250500000Y-141666666D01*
X250452380Y-141571428D01*
X250452380Y-141380952D01*
X250500000Y-141285714D01*
X250595238Y-141190476D01*
X250785714Y-141142857D01*
X251119047Y-141142857D01*
X251309523Y-141190476D01*
X251404761Y-141285714D01*
X251452380Y-141380952D01*
X251452380Y-141571428D01*
X251452380Y-140190476D02*
X251452380Y-140761904D01*
X251452380Y-140476190D02*
X250452380Y-140476190D01*
X250595238Y-140571428D01*
X250690476Y-140666666D01*
X250738095Y-140761904D01*
%TO.C,U28*%
X242452380Y-126038095D02*
X243261904Y-126038095D01*
X243357142Y-125990476D01*
X243404761Y-125942857D01*
X243452380Y-125847619D01*
X243452380Y-125657142D01*
X243404761Y-125561904D01*
X243357142Y-125514285D01*
X243261904Y-125466666D01*
X242452380Y-125466666D01*
X242547619Y-125038095D02*
X242500000Y-124990476D01*
X242452380Y-124895238D01*
X242452380Y-124657142D01*
X242500000Y-124561904D01*
X242547619Y-124514285D01*
X242642857Y-124466666D01*
X242738095Y-124466666D01*
X242880952Y-124514285D01*
X243452380Y-125085714D01*
X243452380Y-124466666D01*
X242880952Y-123895238D02*
X242833333Y-123990476D01*
X242785714Y-124038095D01*
X242690476Y-124085714D01*
X242642857Y-124085714D01*
X242547619Y-124038095D01*
X242500000Y-123990476D01*
X242452380Y-123895238D01*
X242452380Y-123704761D01*
X242500000Y-123609523D01*
X242547619Y-123561904D01*
X242642857Y-123514285D01*
X242690476Y-123514285D01*
X242785714Y-123561904D01*
X242833333Y-123609523D01*
X242880952Y-123704761D01*
X242880952Y-123895238D01*
X242928571Y-123990476D01*
X242976190Y-124038095D01*
X243071428Y-124085714D01*
X243261904Y-124085714D01*
X243357142Y-124038095D01*
X243404761Y-123990476D01*
X243452380Y-123895238D01*
X243452380Y-123704761D01*
X243404761Y-123609523D01*
X243357142Y-123561904D01*
X243261904Y-123514285D01*
X243071428Y-123514285D01*
X242976190Y-123561904D01*
X242928571Y-123609523D01*
X242880952Y-123704761D01*
%TD*%
M02*
