M48
; DRILL file {KiCad 5.1.6-c6e7f7d~87~ubuntu19.10.1} date Fri Oct 16 11:06:14 2020
; FORMAT={-:-/ absolute / inch / decimal}
; #@! TF.CreationDate,2020-10-16T11:06:14+02:00
; #@! TF.GenerationSoftware,Kicad,Pcbnew,5.1.6-c6e7f7d~87~ubuntu19.10.1
; #@! TF.FileFunction,Plated,1,2,PTH
FMAT,2
INCH
T1C0.0079
T2C0.0157
T3C0.0197
T4C0.0276
T5C0.0295
T6C0.0300
T7C0.0315
T8C0.0354
T9C0.0394
T10C0.0433
T11C0.0472
T12C0.0551
T13C0.0591
T14C0.1063
T15C0.1378
T16C0.1496
%
G90
G05
T1
X6.2205Y-2.8346
X6.2205Y-2.9134
X6.2205Y-2.9921
X6.2205Y-3.0709
X6.2205Y-3.1496
X6.2205Y-3.2283
X6.2205Y-3.3071
X6.2205Y-3.3858
X6.2205Y-3.4646
X6.2205Y-3.5433
X6.2205Y-3.622
X6.2992Y-2.8346
X6.2992Y-2.9134
X6.2992Y-2.9921
X6.2992Y-3.0709
X6.2992Y-3.1496
X6.2992Y-3.2283
X6.2992Y-3.3071
X6.2992Y-3.3858
X6.2992Y-3.4646
X6.2992Y-3.5433
X6.2992Y-3.622
X6.378Y-2.8346
X6.378Y-2.9134
X6.378Y-2.9921
X6.378Y-3.0709
X6.378Y-3.1496
X6.378Y-3.2283
X6.378Y-3.3071
X6.378Y-3.3858
X6.378Y-3.4646
X6.378Y-3.5433
X6.378Y-3.622
X6.4567Y-2.8346
X6.4567Y-2.9134
X6.4567Y-2.9921
X6.4567Y-3.0709
X6.4567Y-3.1496
X6.4567Y-3.2283
X6.4567Y-3.3071
X6.4567Y-3.3858
X6.4567Y-3.4646
X6.4567Y-3.5433
X6.4567Y-3.622
X6.5354Y-2.8346
X6.5354Y-2.9134
X6.5354Y-2.9921
X6.5354Y-3.0709
X6.5354Y-3.1496
X6.5354Y-3.2283
X6.5354Y-3.3071
X6.5354Y-3.3858
X6.5354Y-3.4646
X6.5354Y-3.5433
X6.5354Y-3.622
X6.6142Y-2.8346
X6.6142Y-2.9134
X6.6142Y-2.9921
X6.6142Y-3.0709
X6.6142Y-3.1496
X6.6142Y-3.2283
X6.6142Y-3.3071
X6.6142Y-3.3858
X6.6142Y-3.4646
X6.6142Y-3.5433
X6.6142Y-3.622
X6.6929Y-2.8346
X6.6929Y-2.9134
X6.6929Y-2.9921
X6.6929Y-3.0709
X6.6929Y-3.1496
X6.6929Y-3.2283
X6.6929Y-3.3071
X6.6929Y-3.3858
X6.6929Y-3.4646
X6.6929Y-3.5433
X6.6929Y-3.622
X6.7717Y-2.8346
X6.7717Y-2.9134
X6.7717Y-2.9921
X6.7717Y-3.0709
X6.7717Y-3.1496
X6.7717Y-3.2283
X6.7717Y-3.3071
X6.7717Y-3.3858
X6.7717Y-3.4646
X6.7717Y-3.5433
X6.7717Y-3.622
X6.8504Y-2.8346
X6.8504Y-2.9134
X6.8504Y-2.9921
X6.8504Y-3.0709
X6.8504Y-3.1496
X6.8504Y-3.2283
X6.8504Y-3.3071
X6.8504Y-3.3858
X6.8504Y-3.4646
X6.8504Y-3.5433
X6.8504Y-3.622
X6.9291Y-2.8346
X6.9291Y-2.9134
X6.9291Y-2.9921
X6.9291Y-3.0709
X6.9291Y-3.1496
X6.9291Y-3.2283
X6.9291Y-3.3071
X6.9291Y-3.3858
X6.9291Y-3.4646
X6.9291Y-3.5433
X6.9291Y-3.622
X7.0079Y-2.8346
X7.0079Y-2.9134
X7.0079Y-2.9921
X7.0079Y-3.0709
X7.0079Y-3.1496
X7.0079Y-3.2283
X7.0079Y-3.3071
X7.0079Y-3.3858
X7.0079Y-3.4646
X7.0079Y-3.5433
X7.0079Y-3.622
X3.6614Y-2.0079
X3.6614Y-2.0866
X3.6614Y-2.1654
X3.6614Y-2.2441
X3.6614Y-2.3228
X3.6614Y-2.4016
X3.6614Y-2.4803
X3.6614Y-2.5591
X3.6614Y-2.6378
X3.6614Y-2.7165
X3.6614Y-2.7953
X3.6614Y-2.874
X3.6614Y-2.9528
X3.6614Y-3.0315
X3.6614Y-3.1102
X3.6614Y-3.189
X3.6614Y-3.2677
X3.7402Y-2.0079
X3.7402Y-2.0866
X3.7402Y-2.1654
X3.7402Y-2.2441
X3.7402Y-2.3228
X3.7402Y-2.4016
X3.7402Y-2.4803
X3.7402Y-2.5591
X3.7402Y-2.6378
X3.7402Y-2.7165
X3.7402Y-2.7953
X3.7402Y-2.874
X3.7402Y-2.9528
X3.7402Y-3.0315
X3.7402Y-3.1102
X3.7402Y-3.189
X3.7402Y-3.2677
X3.8189Y-2.0079
X3.8189Y-2.0866
X3.8189Y-2.1654
X3.8189Y-2.2441
X3.8189Y-2.3228
X3.8189Y-2.4016
X3.8189Y-2.4803
X3.8189Y-2.5591
X3.8189Y-2.6378
X3.8189Y-2.7165
X3.8189Y-2.7953
X3.8189Y-2.874
X3.8189Y-2.9528
X3.8189Y-3.0315
X3.8189Y-3.1102
X3.8189Y-3.189
X3.8189Y-3.2677
X3.8976Y-2.0079
X3.8976Y-2.0866
X3.8976Y-2.1654
X3.8976Y-2.2441
X3.8976Y-2.3228
X3.8976Y-2.4016
X3.8976Y-2.4803
X3.8976Y-2.5591
X3.8976Y-2.6378
X3.8976Y-2.7165
X3.8976Y-2.7953
X3.8976Y-2.874
X3.8976Y-2.9528
X3.8976Y-3.0315
X3.8976Y-3.1102
X3.8976Y-3.189
X3.8976Y-3.2677
X3.9764Y-2.0079
X3.9764Y-2.0866
X3.9764Y-2.1654
X3.9764Y-2.2441
X3.9764Y-2.3228
X3.9764Y-2.4016
X3.9764Y-2.4803
X3.9764Y-2.5591
X3.9764Y-2.6378
X3.9764Y-2.7165
X3.9764Y-2.7953
X3.9764Y-2.874
X3.9764Y-2.9528
X3.9764Y-3.0315
X3.9764Y-3.1102
X3.9764Y-3.189
X3.9764Y-3.2677
X4.0551Y-2.0079
X4.0551Y-2.0866
X4.0551Y-2.1654
X4.0551Y-2.2441
X4.0551Y-2.3228
X4.0551Y-2.4016
X4.0551Y-2.4803
X4.0551Y-2.5591
X4.0551Y-2.6378
X4.0551Y-2.7165
X4.0551Y-2.7953
X4.0551Y-2.874
X4.0551Y-2.9528
X4.0551Y-3.0315
X4.0551Y-3.1102
X4.0551Y-3.189
X4.0551Y-3.2677
X4.1339Y-2.0079
X4.1339Y-2.0866
X4.1339Y-2.1654
X4.1339Y-2.2441
X4.1339Y-2.3228
X4.1339Y-2.4016
X4.1339Y-2.4803
X4.1339Y-2.5591
X4.1339Y-2.6378
X4.1339Y-2.7165
X4.1339Y-2.7953
X4.1339Y-2.874
X4.1339Y-2.9528
X4.1339Y-3.0315
X4.1339Y-3.1102
X4.1339Y-3.189
X4.1339Y-3.2677
X4.2126Y-2.0079
X4.2126Y-2.0866
X4.2126Y-2.1654
X4.2126Y-2.2441
X4.2126Y-2.3228
X4.2126Y-2.4016
X4.2126Y-2.4803
X4.2126Y-2.5591
X4.2126Y-2.6378
X4.2126Y-2.7165
X4.2126Y-2.7953
X4.2126Y-2.874
X4.2126Y-2.9528
X4.2126Y-3.0315
X4.2126Y-3.1102
X4.2126Y-3.189
X4.2126Y-3.2677
X4.2913Y-2.0079
X4.2913Y-2.0866
X4.2913Y-2.1654
X4.2913Y-2.2441
X4.2913Y-2.3228
X4.2913Y-2.4016
X4.2913Y-2.4803
X4.2913Y-2.5591
X4.2913Y-2.6378
X4.2913Y-2.7165
X4.2913Y-2.7953
X4.2913Y-2.874
X4.2913Y-2.9528
X4.2913Y-3.0315
X4.2913Y-3.1102
X4.2913Y-3.189
X4.2913Y-3.2677
X4.3701Y-2.0079
X4.3701Y-2.0866
X4.3701Y-2.1654
X4.3701Y-2.2441
X4.3701Y-2.3228
X4.3701Y-2.4016
X4.3701Y-2.4803
X4.3701Y-2.5591
X4.3701Y-2.6378
X4.3701Y-2.7165
X4.3701Y-2.7953
X4.3701Y-2.874
X4.3701Y-2.9528
X4.3701Y-3.0315
X4.3701Y-3.1102
X4.3701Y-3.189
X4.3701Y-3.2677
X4.4488Y-2.0079
X4.4488Y-2.0866
X4.4488Y-2.1654
X4.4488Y-2.2441
X4.4488Y-2.3228
X4.4488Y-2.4016
X4.4488Y-2.4803
X4.4488Y-2.5591
X4.4488Y-2.6378
X4.4488Y-2.7165
X4.4488Y-2.7953
X4.4488Y-2.874
X4.4488Y-2.9528
X4.4488Y-3.0315
X4.4488Y-3.1102
X4.4488Y-3.189
X4.4488Y-3.2677
X4.5276Y-2.0079
X4.5276Y-2.0866
X4.5276Y-2.1654
X4.5276Y-2.2441
X4.5276Y-2.3228
X4.5276Y-2.4016
X4.5276Y-2.4803
X4.5276Y-2.5591
X4.5276Y-2.6378
X4.5276Y-2.7165
X4.5276Y-2.7953
X4.5276Y-2.874
X4.5276Y-2.9528
X4.5276Y-3.0315
X4.5276Y-3.1102
X4.5276Y-3.189
X4.5276Y-3.2677
X4.6063Y-2.0079
X4.6063Y-2.0866
X4.6063Y-2.1654
X4.6063Y-2.2441
X4.6063Y-2.3228
X4.6063Y-2.4016
X4.6063Y-2.4803
X4.6063Y-2.5591
X4.6063Y-2.6378
X4.6063Y-2.7165
X4.6063Y-2.7953
X4.6063Y-2.874
X4.6063Y-2.9528
X4.6063Y-3.0315
X4.6063Y-3.1102
X4.6063Y-3.189
X4.6063Y-3.2677
X4.685Y-2.0079
X4.685Y-2.0866
X4.685Y-2.1654
X4.685Y-2.2441
X4.685Y-2.3228
X4.685Y-2.4016
X4.685Y-2.4803
X4.685Y-2.5591
X4.685Y-2.6378
X4.685Y-2.7165
X4.685Y-2.7953
X4.685Y-2.874
X4.685Y-2.9528
X4.685Y-3.0315
X4.685Y-3.1102
X4.685Y-3.189
X4.685Y-3.2677
X4.7638Y-2.0079
X4.7638Y-2.0866
X4.7638Y-2.1654
X4.7638Y-2.2441
X4.7638Y-2.3228
X4.7638Y-2.4016
X4.7638Y-2.4803
X4.7638Y-2.5591
X4.7638Y-2.6378
X4.7638Y-2.7165
X4.7638Y-2.7953
X4.7638Y-2.874
X4.7638Y-2.9528
X4.7638Y-3.0315
X4.7638Y-3.1102
X4.7638Y-3.189
X4.7638Y-3.2677
X4.8425Y-2.0079
X4.8425Y-2.0866
X4.8425Y-2.1654
X4.8425Y-2.2441
X4.8425Y-2.3228
X4.8425Y-2.4016
X4.8425Y-2.4803
X4.8425Y-2.5591
X4.8425Y-2.6378
X4.8425Y-2.7165
X4.8425Y-2.7953
X4.8425Y-2.874
X4.8425Y-2.9528
X4.8425Y-3.0315
X4.8425Y-3.1102
X4.8425Y-3.189
X4.8425Y-3.2677
X4.9213Y-2.0079
X4.9213Y-2.0866
X4.9213Y-2.1654
X4.9213Y-2.2441
X4.9213Y-2.3228
X4.9213Y-2.4016
X4.9213Y-2.4803
X4.9213Y-2.5591
X4.9213Y-2.6378
X4.9213Y-2.7165
X4.9213Y-2.7953
X4.9213Y-2.874
X4.9213Y-2.9528
X4.9213Y-3.0315
X4.9213Y-3.1102
X4.9213Y-3.189
X4.9213Y-3.2677
X1.7976Y-5.163
X1.7976Y-5.2417
X1.7976Y-5.3205
X1.7976Y-5.3992
X1.7976Y-5.478
X1.7976Y-5.5567
X1.7976Y-5.6354
X1.7976Y-5.7142
X1.7976Y-5.7929
X1.7976Y-5.8717
X1.7976Y-5.9504
X1.8764Y-5.163
X1.8764Y-5.2417
X1.8764Y-5.3205
X1.8764Y-5.3992
X1.8764Y-5.478
X1.8764Y-5.5567
X1.8764Y-5.6354
X1.8764Y-5.7142
X1.8764Y-5.7929
X1.8764Y-5.8717
X1.8764Y-5.9504
X1.9551Y-5.163
X1.9551Y-5.2417
X1.9551Y-5.3205
X1.9551Y-5.3992
X1.9551Y-5.478
X1.9551Y-5.5567
X1.9551Y-5.6354
X1.9551Y-5.7142
X1.9551Y-5.7929
X1.9551Y-5.8717
X1.9551Y-5.9504
X2.0339Y-5.163
X2.0339Y-5.2417
X2.0339Y-5.3205
X2.0339Y-5.3992
X2.0339Y-5.478
X2.0339Y-5.5567
X2.0339Y-5.6354
X2.0339Y-5.7142
X2.0339Y-5.7929
X2.0339Y-5.8717
X2.0339Y-5.9504
X2.1126Y-5.163
X2.1126Y-5.2417
X2.1126Y-5.3205
X2.1126Y-5.3992
X2.1126Y-5.478
X2.1126Y-5.5567
X2.1126Y-5.6354
X2.1126Y-5.7142
X2.1126Y-5.7929
X2.1126Y-5.8717
X2.1126Y-5.9504
X2.1913Y-5.163
X2.1913Y-5.2417
X2.1913Y-5.3205
X2.1913Y-5.3992
X2.1913Y-5.478
X2.1913Y-5.5567
X2.1913Y-5.6354
X2.1913Y-5.7142
X2.1913Y-5.7929
X2.1913Y-5.8717
X2.1913Y-5.9504
X2.2701Y-5.163
X2.2701Y-5.2417
X2.2701Y-5.3205
X2.2701Y-5.3992
X2.2701Y-5.478
X2.2701Y-5.5567
X2.2701Y-5.6354
X2.2701Y-5.7142
X2.2701Y-5.7929
X2.2701Y-5.8717
X2.2701Y-5.9504
X2.3488Y-5.163
X2.3488Y-5.2417
X2.3488Y-5.3205
X2.3488Y-5.3992
X2.3488Y-5.478
X2.3488Y-5.5567
X2.3488Y-5.6354
X2.3488Y-5.7142
X2.3488Y-5.7929
X2.3488Y-5.8717
X2.3488Y-5.9504
X2.4276Y-5.163
X2.4276Y-5.2417
X2.4276Y-5.3205
X2.4276Y-5.3992
X2.4276Y-5.478
X2.4276Y-5.5567
X2.4276Y-5.6354
X2.4276Y-5.7142
X2.4276Y-5.7929
X2.4276Y-5.8717
X2.4276Y-5.9504
X2.5063Y-5.163
X2.5063Y-5.2417
X2.5063Y-5.3205
X2.5063Y-5.3992
X2.5063Y-5.478
X2.5063Y-5.5567
X2.5063Y-5.6354
X2.5063Y-5.7142
X2.5063Y-5.7929
X2.5063Y-5.8717
X2.5063Y-5.9504
X2.585Y-5.163
X2.585Y-5.2417
X2.585Y-5.3205
X2.585Y-5.3992
X2.585Y-5.478
X2.585Y-5.5567
X2.585Y-5.6354
X2.585Y-5.7142
X2.585Y-5.7929
X2.585Y-5.8717
X2.585Y-5.9504
X8.0709Y-2.5984
X8.0709Y-2.6772
X8.0709Y-2.7559
X8.0709Y-2.8346
X8.0709Y-2.9134
X8.0709Y-2.9921
X8.0709Y-3.0709
X8.0709Y-3.1496
X8.0709Y-3.2283
X8.0709Y-3.3071
X8.0709Y-3.3858
X8.0709Y-3.4646
X8.0709Y-3.5433
X8.0709Y-3.622
X8.0709Y-3.7008
X8.0709Y-3.7795
X8.0709Y-3.8583
X8.1496Y-2.5984
X8.1496Y-2.6772
X8.1496Y-2.7559
X8.1496Y-2.8346
X8.1496Y-2.9134
X8.1496Y-2.9921
X8.1496Y-3.0709
X8.1496Y-3.1496
X8.1496Y-3.2283
X8.1496Y-3.3071
X8.1496Y-3.3858
X8.1496Y-3.4646
X8.1496Y-3.5433
X8.1496Y-3.622
X8.1496Y-3.7008
X8.1496Y-3.7795
X8.1496Y-3.8583
X8.2283Y-2.5984
X8.2283Y-2.6772
X8.2283Y-2.7559
X8.2283Y-2.8346
X8.2283Y-2.9134
X8.2283Y-2.9921
X8.2283Y-3.0709
X8.2283Y-3.1496
X8.2283Y-3.2283
X8.2283Y-3.3071
X8.2283Y-3.3858
X8.2283Y-3.4646
X8.2283Y-3.5433
X8.2283Y-3.622
X8.2283Y-3.7008
X8.2283Y-3.7795
X8.2283Y-3.8583
X8.3071Y-2.5984
X8.3071Y-2.6772
X8.3071Y-2.7559
X8.3071Y-2.8346
X8.3071Y-2.9134
X8.3071Y-2.9921
X8.3071Y-3.0709
X8.3071Y-3.1496
X8.3071Y-3.2283
X8.3071Y-3.3071
X8.3071Y-3.3858
X8.3071Y-3.4646
X8.3071Y-3.5433
X8.3071Y-3.622
X8.3071Y-3.7008
X8.3071Y-3.7795
X8.3071Y-3.8583
X8.3858Y-2.5984
X8.3858Y-2.6772
X8.3858Y-2.7559
X8.3858Y-2.8346
X8.3858Y-2.9134
X8.3858Y-2.9921
X8.3858Y-3.0709
X8.3858Y-3.1496
X8.3858Y-3.2283
X8.3858Y-3.3071
X8.3858Y-3.3858
X8.3858Y-3.4646
X8.3858Y-3.5433
X8.3858Y-3.622
X8.3858Y-3.7008
X8.3858Y-3.7795
X8.3858Y-3.8583
X8.4646Y-2.5984
X8.4646Y-2.6772
X8.4646Y-2.7559
X8.4646Y-2.8346
X8.4646Y-2.9134
X8.4646Y-2.9921
X8.4646Y-3.0709
X8.4646Y-3.1496
X8.4646Y-3.2283
X8.4646Y-3.3071
X8.4646Y-3.3858
X8.4646Y-3.4646
X8.4646Y-3.5433
X8.4646Y-3.622
X8.4646Y-3.7008
X8.4646Y-3.7795
X8.4646Y-3.8583
X8.5433Y-2.5984
X8.5433Y-2.6772
X8.5433Y-2.7559
X8.5433Y-2.8346
X8.5433Y-2.9134
X8.5433Y-2.9921
X8.5433Y-3.0709
X8.5433Y-3.1496
X8.5433Y-3.2283
X8.5433Y-3.3071
X8.5433Y-3.3858
X8.5433Y-3.4646
X8.5433Y-3.5433
X8.5433Y-3.622
X8.5433Y-3.7008
X8.5433Y-3.7795
X8.5433Y-3.8583
X8.622Y-2.5984
X8.622Y-2.6772
X8.622Y-2.7559
X8.622Y-2.8346
X8.622Y-2.9134
X8.622Y-2.9921
X8.622Y-3.0709
X8.622Y-3.1496
X8.622Y-3.2283
X8.622Y-3.3071
X8.622Y-3.3858
X8.622Y-3.4646
X8.622Y-3.5433
X8.622Y-3.622
X8.622Y-3.7008
X8.622Y-3.7795
X8.622Y-3.8583
X8.7008Y-2.5984
X8.7008Y-2.6772
X8.7008Y-2.7559
X8.7008Y-2.8346
X8.7008Y-2.9134
X8.7008Y-2.9921
X8.7008Y-3.0709
X8.7008Y-3.1496
X8.7008Y-3.2283
X8.7008Y-3.3071
X8.7008Y-3.3858
X8.7008Y-3.4646
X8.7008Y-3.5433
X8.7008Y-3.622
X8.7008Y-3.7008
X8.7008Y-3.7795
X8.7008Y-3.8583
X8.7795Y-2.5984
X8.7795Y-2.6772
X8.7795Y-2.7559
X8.7795Y-2.8346
X8.7795Y-2.9134
X8.7795Y-2.9921
X8.7795Y-3.0709
X8.7795Y-3.1496
X8.7795Y-3.2283
X8.7795Y-3.3071
X8.7795Y-3.3858
X8.7795Y-3.4646
X8.7795Y-3.5433
X8.7795Y-3.622
X8.7795Y-3.7008
X8.7795Y-3.7795
X8.7795Y-3.8583
X8.8583Y-2.5984
X8.8583Y-2.6772
X8.8583Y-2.7559
X8.8583Y-2.8346
X8.8583Y-2.9134
X8.8583Y-2.9921
X8.8583Y-3.0709
X8.8583Y-3.1496
X8.8583Y-3.2283
X8.8583Y-3.3071
X8.8583Y-3.3858
X8.8583Y-3.4646
X8.8583Y-3.5433
X8.8583Y-3.622
X8.8583Y-3.7008
X8.8583Y-3.7795
X8.8583Y-3.8583
X8.937Y-2.5984
X8.937Y-2.6772
X8.937Y-2.7559
X8.937Y-2.8346
X8.937Y-2.9134
X8.937Y-2.9921
X8.937Y-3.0709
X8.937Y-3.1496
X8.937Y-3.2283
X8.937Y-3.3071
X8.937Y-3.3858
X8.937Y-3.4646
X8.937Y-3.5433
X8.937Y-3.622
X8.937Y-3.7008
X8.937Y-3.7795
X8.937Y-3.8583
X9.0157Y-2.5984
X9.0157Y-2.6772
X9.0157Y-2.7559
X9.0157Y-2.8346
X9.0157Y-2.9134
X9.0157Y-2.9921
X9.0157Y-3.0709
X9.0157Y-3.1496
X9.0157Y-3.2283
X9.0157Y-3.3071
X9.0157Y-3.3858
X9.0157Y-3.4646
X9.0157Y-3.5433
X9.0157Y-3.622
X9.0157Y-3.7008
X9.0157Y-3.7795
X9.0157Y-3.8583
X9.0945Y-2.5984
X9.0945Y-2.6772
X9.0945Y-2.7559
X9.0945Y-2.8346
X9.0945Y-2.9134
X9.0945Y-2.9921
X9.0945Y-3.0709
X9.0945Y-3.1496
X9.0945Y-3.2283
X9.0945Y-3.3071
X9.0945Y-3.3858
X9.0945Y-3.4646
X9.0945Y-3.5433
X9.0945Y-3.622
X9.0945Y-3.7008
X9.0945Y-3.7795
X9.0945Y-3.8583
X9.1732Y-2.5984
X9.1732Y-2.6772
X9.1732Y-2.7559
X9.1732Y-2.8346
X9.1732Y-2.9134
X9.1732Y-2.9921
X9.1732Y-3.0709
X9.1732Y-3.1496
X9.1732Y-3.2283
X9.1732Y-3.3071
X9.1732Y-3.3858
X9.1732Y-3.4646
X9.1732Y-3.5433
X9.1732Y-3.622
X9.1732Y-3.7008
X9.1732Y-3.7795
X9.1732Y-3.8583
X9.252Y-2.5984
X9.252Y-2.6772
X9.252Y-2.7559
X9.252Y-2.8346
X9.252Y-2.9134
X9.252Y-2.9921
X9.252Y-3.0709
X9.252Y-3.1496
X9.252Y-3.2283
X9.252Y-3.3071
X9.252Y-3.3858
X9.252Y-3.4646
X9.252Y-3.5433
X9.252Y-3.622
X9.252Y-3.7008
X9.252Y-3.7795
X9.252Y-3.8583
X9.3307Y-2.5984
X9.3307Y-2.6772
X9.3307Y-2.7559
X9.3307Y-2.8346
X9.3307Y-2.9134
X9.3307Y-2.9921
X9.3307Y-3.0709
X9.3307Y-3.1496
X9.3307Y-3.2283
X9.3307Y-3.3071
X9.3307Y-3.3858
X9.3307Y-3.4646
X9.3307Y-3.5433
X9.3307Y-3.622
X9.3307Y-3.7008
X9.3307Y-3.7795
X9.3307Y-3.8583
T2
X2.7559Y-7.7953
X3.0315Y-7.7953
X5.7953Y-7.6417
X5.9173Y-6.9764
X5.9449Y-7.9173
X6.0236Y-8.3189
X6.0945Y-7.8504
X6.1063Y-7.6614
X6.1929Y-7.8307
X6.4055Y-8.2598
X7.1417Y-5.4173
X7.4173Y-5.4173
X7.4606Y-8.7205
X9.6457Y-5.7874
X9.6457Y-5.9449
T4
X4.1732Y-8.4646
X4.4732Y-8.4646
X7.0079Y-6.1811
X7.3079Y-6.1811
X8.5433Y-9.2913
X8.8433Y-9.2913
X7.4409Y-6.4961
X7.7409Y-6.4961
X7.8144Y-5.5439
X8.1144Y-5.5439
X7.574Y-6.6929
X7.874Y-6.6929
X8.0315Y-5.9055
X8.3315Y-5.9055
X7.3982Y-5.5439
X7.6982Y-5.5439
X8.4252Y-6.1024
X8.4252Y-6.4024
X7.6921Y-9.685
X7.9921Y-9.685
T5
X2.4646Y-2.5976
X2.4646Y-2.6764
X6.811Y-6.0118
X6.8898Y-6.0118
X2.1512Y-7.3835
X2.2299Y-7.3835
X6.1417Y-6.9685
X6.1417Y-7.0472
X8.6606Y-5.0551
X8.7394Y-5.0551
X9.4528Y-4.7953
X9.4528Y-4.874
X9.4528Y-4.9528
X9.4528Y-5.0315
X5.748Y-6.9685
X5.748Y-7.0472
X6.574Y-5.0551
X6.6528Y-5.0551
T6
X2.1122Y-6.7735
X2.2122Y-6.7735
X2.3122Y-6.7735
X8.2177Y-9.2913
X8.3177Y-9.2913
X5.9557Y-5.2756
X5.9557Y-5.374
X5.9577Y-6.1339
X6.5571Y-6.1348
X6.5581Y-5.2756
X6.7935Y-7.4396
X6.7935Y-7.5396
X6.7935Y-7.6396
X6.7935Y-7.7396
X6.7935Y-7.8396
X6.7935Y-7.9396
X6.7935Y-8.0396
X6.7935Y-8.1396
X6.7935Y-8.2396
X6.7935Y-8.3396
X6.7935Y-8.4396
X6.7935Y-8.5396
X6.7935Y-8.6396
X6.7935Y-8.7396
X6.7935Y-8.7396
X6.7935Y-8.8396
X7.7735Y-7.4396
X7.7735Y-7.5396
X7.7735Y-7.6396
X7.7735Y-7.7396
X7.7735Y-7.8396
X7.7735Y-7.9396
X7.7735Y-8.0396
X7.7735Y-8.1396
X7.7735Y-8.2396
X7.7735Y-8.3396
X7.7735Y-8.4396
X7.7735Y-8.5396
X7.7735Y-8.6396
X7.7735Y-8.7396
X7.7735Y-8.8396
X8.2177Y-9.685
X8.3177Y-9.685
X9.4488Y-5.4512
X9.4488Y-5.5512
X9.4488Y-5.6512
T7
X5.8268Y-5.0394
X6.1268Y-5.0394
X2.1016Y-7.7953
X2.4016Y-7.7953
X6.1417Y-6.4567
X6.1417Y-6.7567
X5.5512Y-8.0315
X5.5512Y-8.1315
X5.5512Y-8.2315
X5.5512Y-8.3315
X5.8512Y-8.0315
X5.8512Y-8.1315
X5.8512Y-8.2315
X5.8512Y-8.3315
X2.0472Y-2.5346
X2.0472Y-2.8346
X5.7087Y-6.4323
X5.7087Y-6.7323
X6.7638Y-5.7165
X7.0638Y-5.7165
X8.5433Y-5.5118
X8.8433Y-5.5118
T8
X7.8921Y-6.4173
X7.9921Y-6.4173
X7.5772Y-6.1811
X7.6772Y-6.1811
T9
X6.9291Y-4.9606
X7.0291Y-4.9606
X7.1291Y-4.9606
X7.2291Y-4.9606
X7.3291Y-4.9606
X7.4291Y-4.9606
X7.5291Y-4.9606
X7.6291Y-4.9606
X7.7291Y-4.9606
X7.8291Y-4.9606
X7.9291Y-4.9606
X8.0291Y-4.9606
X8.1291Y-4.9606
X8.2291Y-4.9606
X8.3291Y-4.9606
X7.9921Y-7.4409
X7.9921Y-7.5409
X7.9921Y-7.6409
X7.9921Y-7.7409
X7.9921Y-7.8409
X7.9921Y-7.9409
X7.9921Y-8.0409
X7.9921Y-8.1409
X7.9921Y-8.2409
X7.9921Y-8.3409
X7.9921Y-8.4409
X7.9921Y-8.5409
X7.9921Y-8.6409
X7.9921Y-8.7409
X7.9921Y-8.8409
X9.4488Y-6.178
X9.4488Y-6.278
X9.4488Y-6.378
X6.9291Y-4.685
X7.0291Y-4.685
X7.1291Y-4.685
X7.2291Y-4.685
X7.3291Y-4.685
X7.4291Y-4.685
X7.5291Y-4.685
X7.6291Y-4.685
X7.7291Y-4.685
X7.8291Y-4.685
X7.9291Y-4.685
X8.0291Y-4.685
X8.1291Y-4.685
X8.2291Y-4.685
X8.3291Y-4.685
X8.8976Y-6.178
X8.8976Y-6.278
X8.8976Y-6.378
X6.5354Y-7.4409
X6.5354Y-7.5409
X6.5354Y-7.6409
X6.5354Y-7.7409
X6.5354Y-7.8409
X6.5354Y-7.9409
X6.5354Y-8.0409
X6.5354Y-8.1409
X6.5354Y-8.2409
X6.5354Y-8.3409
X6.5354Y-8.4409
X6.5354Y-8.5409
X6.5354Y-8.6409
X6.5354Y-8.7409
X6.5354Y-8.8409
X6.9197Y-5.2362
X7.0197Y-5.2362
X7.1197Y-5.2362
X7.2197Y-5.2362
X7.3197Y-5.2362
X7.4197Y-5.2362
X7.5197Y-5.2362
X7.6197Y-5.2362
X7.7197Y-5.2362
X7.8197Y-5.2362
X7.9197Y-5.2362
X8.0197Y-5.2362
X8.1197Y-5.2362
X8.2197Y-5.2362
X8.3197Y-5.2362
X4.1437Y-8.0315
X4.2913Y-8.0315
X4.439Y-8.0315
X8.7008Y-7.4409
X8.7008Y-7.5409
X8.7008Y-7.6409
X8.7008Y-7.7409
X8.7008Y-7.8409
X8.7008Y-7.9409
X8.7008Y-8.0409
X8.7008Y-8.1409
X8.7008Y-8.2409
X8.7008Y-8.3409
X8.7008Y-8.4409
X8.7008Y-8.5409
X8.7008Y-8.6409
X8.7008Y-8.7409
X8.7008Y-8.8409
T10
X8.5433Y-5.8268
X8.8433Y-5.8268
T11
X3.1102Y-6.3122
X4.7409Y-6.4323
X6.8465Y-6.2441
X8.75Y-6.1804
X8.8268Y-6.0354
X9.6457Y-6.0591
X10.0197Y-5.7047
X10.1299Y-5.5945
T12
X9.8976Y-5.8268
X9.8976Y-5.9843
X10.2598Y-5.8268
X10.2598Y-5.9843
X9.8976Y-5.1181
X9.8976Y-5.2756
X9.8976Y-5.4331
X10.2598Y-5.1181
X10.2598Y-5.2756
X10.2598Y-5.4331
T13
X3.687Y-7.0984
X4.4646Y-7.0984
X4.6988Y-4.7283
X4.7028Y-7.0984
X4.939Y-7.0984
X5.1752Y-7.0984
X5.2008Y-4.7283
T15
X5.9961Y-3.2283
X6.6142Y-2.6102
X6.6142Y-3.8465
X7.2323Y-3.2283
X2.7161Y-2.6378
X3.4409Y-2.6378
X4.2909Y-1.063
X4.2909Y-1.7878
X4.2909Y-3.4878
X4.2909Y-4.2126
X5.1409Y-2.6378
X5.8657Y-2.6378
X6.3704Y-7.2365
X6.3706Y-9.063
X8.1966Y-9.0627
X8.1969Y-7.2368
X3.4409Y-2.6378
X4.2913Y-1.7874
X4.2913Y-3.4882
X5.1417Y-2.6378
X5.7008Y-4.1412
X5.7011Y-2.3152
X7.527Y-2.315
X7.5273Y-4.1415
X1.5732Y-5.5567
X2.1913Y-4.9386
X2.1913Y-6.1748
X2.8094Y-5.5567
X7.7874Y-4.1412
X7.7877Y-2.3152
X9.6136Y-2.315
X9.6139Y-4.1415
X7.8504Y-3.2283
X8.7008Y-2.378
X8.7008Y-4.0787
X9.5512Y-3.2283
T16
X1.5748Y-4.9606
X1.5748Y-6.2205
X2.8346Y-4.9606
X2.8346Y-6.2205
T3
G00X4.1378Y-7.4567
M15
G01X4.2165Y-7.4567
M16
G05
G00X4.1378Y-7.8189
M15
G01X4.2165Y-7.8189
M16
G05
G00X4.3661Y-7.4567
M15
G01X4.4449Y-7.4567
M16
G05
G00X4.3661Y-7.8189
M15
G01X4.4449Y-7.8189
M16
G05
T14
G00X4.0433Y-7.6319
M15
G01X4.0433Y-7.6437
M16
G05
G00X4.5394Y-7.6319
M15
G01X4.5394Y-7.6437
M16
G05
T0
M30
