G04 #@! TF.GenerationSoftware,KiCad,Pcbnew,5.1.5+dfsg1-2build2*
G04 #@! TF.CreationDate,2020-12-11T19:11:24+01:00*
G04 #@! TF.ProjectId,ariadne-v3-backup,61726961-646e-4652-9d76-332d6261636b,rev?*
G04 #@! TF.SameCoordinates,Original*
G04 #@! TF.FileFunction,Soldermask,Top*
G04 #@! TF.FilePolarity,Negative*
%FSLAX46Y46*%
G04 Gerber Fmt 4.6, Leading zero omitted, Abs format (unit mm)*
G04 Created by KiCad (PCBNEW 5.1.5+dfsg1-2build2) date 2020-12-11 19:11:24*
%MOMM*%
%LPD*%
G04 APERTURE LIST*
%ADD10C,4.000000*%
%ADD11C,8.600000*%
%ADD12C,0.900000*%
%ADD13C,3.600000*%
%ADD14O,3.500000X2.500000*%
%ADD15O,2.500000X3.500000*%
%ADD16C,2.500000*%
%ADD17R,2.200000X2.200000*%
%ADD18O,2.200000X2.200000*%
%ADD19R,1.700000X1.700000*%
%ADD20O,1.700000X1.700000*%
%ADD21C,1.600000*%
%ADD22O,3.500000X3.500000*%
%ADD23R,2.000000X1.905000*%
%ADD24O,2.000000X1.905000*%
%ADD25C,1.400000*%
%ADD26O,1.400000X1.400000*%
%ADD27C,0.100000*%
%ADD28O,1.700000X2.000000*%
%ADD29C,1.200000*%
%ADD30O,1.000000X1.000000*%
%ADD31R,1.800000X1.800000*%
%ADD32C,1.800000*%
%ADD33C,1.524000*%
%ADD34C,1.270000*%
%ADD35O,1.500000X2.020000*%
%ADD36O,2.020000X1.500000*%
%ADD37O,2.000000X1.700000*%
%ADD38C,0.254000*%
G04 APERTURE END LIST*
D10*
X135010000Y-137667417D03*
X112382583Y-115040000D03*
X135010000Y-92412583D03*
X157637417Y-115040000D03*
D11*
X109410000Y-140890000D03*
D12*
X112635000Y-140890000D03*
X111690419Y-143170419D03*
X109410000Y-144115000D03*
X107129581Y-143170419D03*
X106185000Y-140890000D03*
X107129581Y-138609581D03*
X109410000Y-137665000D03*
X111690419Y-138609581D03*
X111690419Y-86909581D03*
X109410000Y-85965000D03*
X107129581Y-86909581D03*
X106185000Y-89190000D03*
X107129581Y-91470419D03*
X109410000Y-92415000D03*
X111690419Y-91470419D03*
X112635000Y-89190000D03*
D11*
X109410000Y-89190000D03*
D13*
X135235000Y-99615000D03*
X135235000Y-131015000D03*
X150935000Y-115315000D03*
X119535000Y-115315000D03*
D12*
X101690419Y-124709581D03*
X99410000Y-123765000D03*
X97129581Y-124709581D03*
X96185000Y-126990000D03*
X97129581Y-129270419D03*
X99410000Y-130215000D03*
X101690419Y-129270419D03*
X102635000Y-126990000D03*
D11*
X99410000Y-126990000D03*
D12*
X173390419Y-76909581D03*
X171110000Y-75965000D03*
X168829581Y-76909581D03*
X167885000Y-79190000D03*
X168829581Y-81470419D03*
X171110000Y-82415000D03*
X173390419Y-81470419D03*
X174335000Y-79190000D03*
D11*
X171110000Y-79190000D03*
D12*
X173390419Y-148609581D03*
X171110000Y-147665000D03*
X168829581Y-148609581D03*
X167885000Y-150890000D03*
X168829581Y-153170419D03*
X171110000Y-154115000D03*
X173390419Y-153170419D03*
X174335000Y-150890000D03*
D11*
X171110000Y-150890000D03*
D12*
X149490419Y-148609581D03*
X147210000Y-147665000D03*
X144929581Y-148609581D03*
X143985000Y-150890000D03*
X144929581Y-153170419D03*
X147210000Y-154115000D03*
X149490419Y-153170419D03*
X150435000Y-150890000D03*
D11*
X147210000Y-150890000D03*
X161110000Y-89190000D03*
D12*
X164335000Y-89190000D03*
X163390419Y-91470419D03*
X161110000Y-92415000D03*
X158829581Y-91470419D03*
X157885000Y-89190000D03*
X158829581Y-86909581D03*
X161110000Y-85965000D03*
X163390419Y-86909581D03*
X101690419Y-148609581D03*
X99410000Y-147665000D03*
X97129581Y-148609581D03*
X96185000Y-150890000D03*
X97129581Y-153170419D03*
X99410000Y-154115000D03*
X101690419Y-153170419D03*
X102635000Y-150890000D03*
D11*
X99410000Y-150890000D03*
D12*
X173390419Y-124709581D03*
X171110000Y-123765000D03*
X168829581Y-124709581D03*
X167885000Y-126990000D03*
X168829581Y-129270419D03*
X171110000Y-130215000D03*
X173390419Y-129270419D03*
X174335000Y-126990000D03*
D11*
X171110000Y-126990000D03*
D12*
X149490419Y-76909581D03*
X147210000Y-75965000D03*
X144929581Y-76909581D03*
X143985000Y-79190000D03*
X144929581Y-81470419D03*
X147210000Y-82415000D03*
X149490419Y-81470419D03*
X150435000Y-79190000D03*
D11*
X147210000Y-79190000D03*
D12*
X101690419Y-100809581D03*
X99410000Y-99865000D03*
X97129581Y-100809581D03*
X96185000Y-103090000D03*
X97129581Y-105370419D03*
X99410000Y-106315000D03*
X101690419Y-105370419D03*
X102635000Y-103090000D03*
D11*
X99410000Y-103090000D03*
D12*
X125590419Y-148609581D03*
X123310000Y-147665000D03*
X121029581Y-148609581D03*
X120085000Y-150890000D03*
X121029581Y-153170419D03*
X123310000Y-154115000D03*
X125590419Y-153170419D03*
X126535000Y-150890000D03*
D11*
X123310000Y-150890000D03*
D12*
X125590419Y-76909581D03*
X123310000Y-75965000D03*
X121029581Y-76909581D03*
X120085000Y-79190000D03*
X121029581Y-81470419D03*
X123310000Y-82415000D03*
X125590419Y-81470419D03*
X126535000Y-79190000D03*
D11*
X123310000Y-79190000D03*
X99410000Y-79190000D03*
D12*
X102635000Y-79190000D03*
X101690419Y-81470419D03*
X99410000Y-82415000D03*
X97129581Y-81470419D03*
X96185000Y-79190000D03*
X97129581Y-76909581D03*
X99410000Y-75965000D03*
X101690419Y-76909581D03*
D11*
X171110000Y-103090000D03*
D12*
X174335000Y-103090000D03*
X173390419Y-105370419D03*
X171110000Y-106315000D03*
X168829581Y-105370419D03*
X167885000Y-103090000D03*
X168829581Y-100809581D03*
X171110000Y-99865000D03*
X173390419Y-100809581D03*
X153390419Y-128609581D03*
X151110000Y-127665000D03*
X148829581Y-128609581D03*
X147885000Y-130890000D03*
X148829581Y-133170419D03*
X151110000Y-134115000D03*
X153390419Y-133170419D03*
X154335000Y-130890000D03*
D11*
X151110000Y-130890000D03*
D12*
X153390419Y-96909581D03*
X151110000Y-95965000D03*
X148829581Y-96909581D03*
X147885000Y-99190000D03*
X148829581Y-101470419D03*
X151110000Y-102415000D03*
X153390419Y-101470419D03*
X154335000Y-99190000D03*
D11*
X151110000Y-99190000D03*
D12*
X121690419Y-128609581D03*
X119410000Y-127665000D03*
X117129581Y-128609581D03*
X116185000Y-130890000D03*
X117129581Y-133170419D03*
X119410000Y-134115000D03*
X121690419Y-133170419D03*
X122635000Y-130890000D03*
D11*
X119410000Y-130890000D03*
X119410000Y-99190000D03*
D12*
X122635000Y-99190000D03*
X121690419Y-101470419D03*
X119410000Y-102415000D03*
X117129581Y-101470419D03*
X116185000Y-99190000D03*
X117129581Y-96909581D03*
X119410000Y-95965000D03*
X121690419Y-96909581D03*
D11*
X161110000Y-140890000D03*
D12*
X164335000Y-140890000D03*
X163390419Y-143170419D03*
X161110000Y-144115000D03*
X158829581Y-143170419D03*
X157885000Y-140890000D03*
X158829581Y-138609581D03*
X161110000Y-137665000D03*
X163390419Y-138609581D03*
D11*
X119400000Y-47750000D03*
D12*
X122625000Y-47750000D03*
X121680419Y-50030419D03*
X119400000Y-50975000D03*
X117119581Y-50030419D03*
X116175000Y-47750000D03*
X117119581Y-45469581D03*
X119400000Y-44525000D03*
X121680419Y-45469581D03*
D11*
X5900000Y-109800000D03*
D12*
X9125000Y-109800000D03*
X8180419Y-112080419D03*
X5900000Y-113025000D03*
X3619581Y-112080419D03*
X2675000Y-109800000D03*
X3619581Y-107519581D03*
X5900000Y-106575000D03*
X8180419Y-107519581D03*
X79880419Y-107519581D03*
X77600000Y-106575000D03*
X75319581Y-107519581D03*
X74375000Y-109800000D03*
X75319581Y-112080419D03*
X77600000Y-113025000D03*
X79880419Y-112080419D03*
X80825000Y-109800000D03*
D11*
X77600000Y-109800000D03*
D12*
X79880419Y-179219581D03*
X77600000Y-178275000D03*
X75319581Y-179219581D03*
X74375000Y-181500000D03*
X75319581Y-183780419D03*
X77600000Y-184725000D03*
X79880419Y-183780419D03*
X80825000Y-181500000D03*
D11*
X77600000Y-181500000D03*
D12*
X8180419Y-179219581D03*
X5900000Y-178275000D03*
X3619581Y-179219581D03*
X2675000Y-181500000D03*
X3619581Y-183780419D03*
X5900000Y-184725000D03*
X8180419Y-183780419D03*
X9125000Y-181500000D03*
D11*
X5900000Y-181500000D03*
D10*
X157627417Y-31900000D03*
X135000000Y-9272583D03*
X112372583Y-31900000D03*
X135000000Y-54527417D03*
D11*
X151100000Y-16050000D03*
D12*
X154325000Y-16050000D03*
X153380419Y-18330419D03*
X151100000Y-19275000D03*
X148819581Y-18330419D03*
X147875000Y-16050000D03*
X148819581Y-13769581D03*
X151100000Y-12825000D03*
X153380419Y-13769581D03*
X173380419Y-17669581D03*
X171100000Y-16725000D03*
X168819581Y-17669581D03*
X167875000Y-19950000D03*
X168819581Y-22230419D03*
X171100000Y-23175000D03*
X173380419Y-22230419D03*
X174325000Y-19950000D03*
D11*
X171100000Y-19950000D03*
X151100000Y-47750000D03*
D12*
X154325000Y-47750000D03*
X153380419Y-50030419D03*
X151100000Y-50975000D03*
X148819581Y-50030419D03*
X147875000Y-47750000D03*
X148819581Y-45469581D03*
X151100000Y-44525000D03*
X153380419Y-45469581D03*
X121680419Y-13769581D03*
X119400000Y-12825000D03*
X117119581Y-13769581D03*
X116175000Y-16050000D03*
X117119581Y-18330419D03*
X119400000Y-19275000D03*
X121680419Y-18330419D03*
X122625000Y-16050000D03*
D11*
X119400000Y-16050000D03*
D12*
X163380419Y-55469581D03*
X161100000Y-54525000D03*
X158819581Y-55469581D03*
X157875000Y-57750000D03*
X158819581Y-60030419D03*
X161100000Y-60975000D03*
X163380419Y-60030419D03*
X164325000Y-57750000D03*
D11*
X161100000Y-57750000D03*
D12*
X111680419Y-55469581D03*
X109400000Y-54525000D03*
X107119581Y-55469581D03*
X106175000Y-57750000D03*
X107119581Y-60030419D03*
X109400000Y-60975000D03*
X111680419Y-60030419D03*
X112625000Y-57750000D03*
D11*
X109400000Y-57750000D03*
D12*
X163380419Y-3769581D03*
X161100000Y-2825000D03*
X158819581Y-3769581D03*
X157875000Y-6050000D03*
X158819581Y-8330419D03*
X161100000Y-9275000D03*
X163380419Y-8330419D03*
X164325000Y-6050000D03*
D11*
X161100000Y-6050000D03*
X109400000Y-6050000D03*
D12*
X112625000Y-6050000D03*
X111680419Y-8330419D03*
X109400000Y-9275000D03*
X107119581Y-8330419D03*
X106175000Y-6050000D03*
X107119581Y-3769581D03*
X109400000Y-2825000D03*
X111680419Y-3769581D03*
D11*
X171100000Y-67750000D03*
D12*
X174325000Y-67750000D03*
X173380419Y-70030419D03*
X171100000Y-70975000D03*
X168819581Y-70030419D03*
X167875000Y-67750000D03*
X168819581Y-65469581D03*
X171100000Y-64525000D03*
X173380419Y-65469581D03*
D11*
X147200000Y-67750000D03*
D12*
X150425000Y-67750000D03*
X149480419Y-70030419D03*
X147200000Y-70975000D03*
X144919581Y-70030419D03*
X143975000Y-67750000D03*
X144919581Y-65469581D03*
X147200000Y-64525000D03*
X149480419Y-65469581D03*
D11*
X123300000Y-67750000D03*
D12*
X126525000Y-67750000D03*
X125580419Y-70030419D03*
X123300000Y-70975000D03*
X121019581Y-70030419D03*
X120075000Y-67750000D03*
X121019581Y-65469581D03*
X123300000Y-64525000D03*
X125580419Y-65469581D03*
D11*
X99400000Y-67750000D03*
D12*
X102625000Y-67750000D03*
X101680419Y-70030419D03*
X99400000Y-70975000D03*
X97119581Y-70030419D03*
X96175000Y-67750000D03*
X97119581Y-65469581D03*
X99400000Y-64525000D03*
X101680419Y-65469581D03*
D11*
X171100000Y-43850000D03*
D12*
X174325000Y-43850000D03*
X173380419Y-46130419D03*
X171100000Y-47075000D03*
X168819581Y-46130419D03*
X167875000Y-43850000D03*
X168819581Y-41569581D03*
X171100000Y-40625000D03*
X173380419Y-41569581D03*
D11*
X99400000Y-43850000D03*
D12*
X102625000Y-43850000D03*
X101680419Y-46130419D03*
X99400000Y-47075000D03*
X97119581Y-46130419D03*
X96175000Y-43850000D03*
X97119581Y-41569581D03*
X99400000Y-40625000D03*
X101680419Y-41569581D03*
D11*
X99400000Y-19950000D03*
D12*
X102625000Y-19950000D03*
X101680419Y-22230419D03*
X99400000Y-23175000D03*
X97119581Y-22230419D03*
X96175000Y-19950000D03*
X97119581Y-17669581D03*
X99400000Y-16725000D03*
X101680419Y-17669581D03*
D11*
X171100000Y3950000D03*
D12*
X174325000Y3950000D03*
X173380419Y1669581D03*
X171100000Y725000D03*
X168819581Y1669581D03*
X167875000Y3950000D03*
X168819581Y6230419D03*
X171100000Y7175000D03*
X173380419Y6230419D03*
D11*
X147200000Y3950000D03*
D12*
X150425000Y3950000D03*
X149480419Y1669581D03*
X147200000Y725000D03*
X144919581Y1669581D03*
X143975000Y3950000D03*
X144919581Y6230419D03*
X147200000Y7175000D03*
X149480419Y6230419D03*
D11*
X123300000Y3950000D03*
D12*
X126525000Y3950000D03*
X125580419Y1669581D03*
X123300000Y725000D03*
X121019581Y1669581D03*
X120075000Y3950000D03*
X121019581Y6230419D03*
X123300000Y7175000D03*
X125580419Y6230419D03*
X101680419Y6230419D03*
X99400000Y7175000D03*
X97119581Y6230419D03*
X96175000Y3950000D03*
X97119581Y1669581D03*
X99400000Y725000D03*
X101680419Y1669581D03*
X102625000Y3950000D03*
D11*
X99400000Y3950000D03*
X77700000Y-77900000D03*
D12*
X80925000Y-77900000D03*
X79980419Y-80180419D03*
X77700000Y-81125000D03*
X75419581Y-80180419D03*
X74475000Y-77900000D03*
X75419581Y-75619581D03*
X77700000Y-74675000D03*
X79980419Y-75619581D03*
D11*
X6000000Y-77900000D03*
D12*
X9225000Y-77900000D03*
X8280419Y-80180419D03*
X6000000Y-81125000D03*
X3719581Y-80180419D03*
X2775000Y-77900000D03*
X3719581Y-75619581D03*
X6000000Y-74675000D03*
X8280419Y-75619581D03*
D11*
X77700000Y-6200000D03*
D12*
X80925000Y-6200000D03*
X79980419Y-8480419D03*
X77700000Y-9425000D03*
X75419581Y-8480419D03*
X74475000Y-6200000D03*
X75419581Y-3919581D03*
X77700000Y-2975000D03*
X79980419Y-3919581D03*
X8280419Y-3919581D03*
X6000000Y-2975000D03*
X3719581Y-3919581D03*
X2775000Y-6200000D03*
X3719581Y-8480419D03*
X6000000Y-9425000D03*
X8280419Y-8480419D03*
X9225000Y-6200000D03*
D11*
X6000000Y-6200000D03*
D13*
X119525000Y-32175000D03*
X150925000Y-32175000D03*
X135225000Y-47875000D03*
X135225000Y-16475000D03*
D14*
X24000000Y-59800000D03*
D15*
X19200000Y-60300000D03*
X28800000Y-60300000D03*
D16*
X24000000Y-53800000D03*
X24000000Y-63050000D03*
D17*
X20075000Y-44225000D03*
D18*
X20075000Y-51845000D03*
D19*
X54000000Y-38100000D03*
D20*
X54000000Y-40640000D03*
X54000000Y-43180000D03*
X54000000Y-45720000D03*
X54000000Y-48260000D03*
X44015000Y-53825000D03*
X46555000Y-53825000D03*
X49095000Y-53825000D03*
X51635000Y-53825000D03*
D19*
X54175000Y-53825000D03*
X14625000Y-29700000D03*
D20*
X14625000Y-32240000D03*
X14625000Y-34780000D03*
X14625000Y-37320000D03*
X14625000Y-39860000D03*
D19*
X16800000Y-45725000D03*
D20*
X16800000Y-48265000D03*
X16800000Y-50805000D03*
X16800000Y-53345000D03*
X16800000Y-55885000D03*
X37875000Y-35460000D03*
X37875000Y-32920000D03*
X37875000Y-30380000D03*
X37875000Y-27840000D03*
D19*
X37875000Y-25300000D03*
D21*
X17550000Y-23225000D03*
X17550000Y-25725000D03*
X17575000Y-37225000D03*
X17575000Y-34725000D03*
X17700000Y-31250000D03*
X17700000Y-28750000D03*
X17525000Y-39650000D03*
X17525000Y-42150000D03*
D22*
X38665000Y-60960000D03*
D23*
X55325000Y-63500000D03*
D24*
X55325000Y-60960000D03*
X55325000Y-58420000D03*
D25*
X28525000Y-44675000D03*
D26*
X28525000Y-52295000D03*
D27*
G36*
X52224504Y-133026204D02*
G01*
X52248773Y-133029804D01*
X52272571Y-133035765D01*
X52295671Y-133044030D01*
X52317849Y-133054520D01*
X52338893Y-133067133D01*
X52358598Y-133081747D01*
X52376777Y-133098223D01*
X52393253Y-133116402D01*
X52407867Y-133136107D01*
X52420480Y-133157151D01*
X52430970Y-133179329D01*
X52439235Y-133202429D01*
X52445196Y-133226227D01*
X52448796Y-133250496D01*
X52450000Y-133275000D01*
X52450000Y-134775000D01*
X52448796Y-134799504D01*
X52445196Y-134823773D01*
X52439235Y-134847571D01*
X52430970Y-134870671D01*
X52420480Y-134892849D01*
X52407867Y-134913893D01*
X52393253Y-134933598D01*
X52376777Y-134951777D01*
X52358598Y-134968253D01*
X52338893Y-134982867D01*
X52317849Y-134995480D01*
X52295671Y-135005970D01*
X52272571Y-135014235D01*
X52248773Y-135020196D01*
X52224504Y-135023796D01*
X52200000Y-135025000D01*
X51000000Y-135025000D01*
X50975496Y-135023796D01*
X50951227Y-135020196D01*
X50927429Y-135014235D01*
X50904329Y-135005970D01*
X50882151Y-134995480D01*
X50861107Y-134982867D01*
X50841402Y-134968253D01*
X50823223Y-134951777D01*
X50806747Y-134933598D01*
X50792133Y-134913893D01*
X50779520Y-134892849D01*
X50769030Y-134870671D01*
X50760765Y-134847571D01*
X50754804Y-134823773D01*
X50751204Y-134799504D01*
X50750000Y-134775000D01*
X50750000Y-133275000D01*
X50751204Y-133250496D01*
X50754804Y-133226227D01*
X50760765Y-133202429D01*
X50769030Y-133179329D01*
X50779520Y-133157151D01*
X50792133Y-133136107D01*
X50806747Y-133116402D01*
X50823223Y-133098223D01*
X50841402Y-133081747D01*
X50861107Y-133067133D01*
X50882151Y-133054520D01*
X50904329Y-133044030D01*
X50927429Y-133035765D01*
X50951227Y-133029804D01*
X50975496Y-133026204D01*
X51000000Y-133025000D01*
X52200000Y-133025000D01*
X52224504Y-133026204D01*
G37*
D28*
X54100000Y-134025000D03*
D29*
X50000000Y-132025000D03*
D27*
G36*
X34174504Y-16376204D02*
G01*
X34198773Y-16379804D01*
X34222571Y-16385765D01*
X34245671Y-16394030D01*
X34267849Y-16404520D01*
X34288893Y-16417133D01*
X34308598Y-16431747D01*
X34326777Y-16448223D01*
X34343253Y-16466402D01*
X34357867Y-16486107D01*
X34370480Y-16507151D01*
X34380970Y-16529329D01*
X34389235Y-16552429D01*
X34395196Y-16576227D01*
X34398796Y-16600496D01*
X34400000Y-16625000D01*
X34400000Y-18125000D01*
X34398796Y-18149504D01*
X34395196Y-18173773D01*
X34389235Y-18197571D01*
X34380970Y-18220671D01*
X34370480Y-18242849D01*
X34357867Y-18263893D01*
X34343253Y-18283598D01*
X34326777Y-18301777D01*
X34308598Y-18318253D01*
X34288893Y-18332867D01*
X34267849Y-18345480D01*
X34245671Y-18355970D01*
X34222571Y-18364235D01*
X34198773Y-18370196D01*
X34174504Y-18373796D01*
X34150000Y-18375000D01*
X32950000Y-18375000D01*
X32925496Y-18373796D01*
X32901227Y-18370196D01*
X32877429Y-18364235D01*
X32854329Y-18355970D01*
X32832151Y-18345480D01*
X32811107Y-18332867D01*
X32791402Y-18318253D01*
X32773223Y-18301777D01*
X32756747Y-18283598D01*
X32742133Y-18263893D01*
X32729520Y-18242849D01*
X32719030Y-18220671D01*
X32710765Y-18197571D01*
X32704804Y-18173773D01*
X32701204Y-18149504D01*
X32700000Y-18125000D01*
X32700000Y-16625000D01*
X32701204Y-16600496D01*
X32704804Y-16576227D01*
X32710765Y-16552429D01*
X32719030Y-16529329D01*
X32729520Y-16507151D01*
X32742133Y-16486107D01*
X32756747Y-16466402D01*
X32773223Y-16448223D01*
X32791402Y-16431747D01*
X32811107Y-16417133D01*
X32832151Y-16404520D01*
X32854329Y-16394030D01*
X32877429Y-16385765D01*
X32901227Y-16379804D01*
X32925496Y-16376204D01*
X32950000Y-16375000D01*
X34150000Y-16375000D01*
X34174504Y-16376204D01*
G37*
D28*
X36050000Y-17375000D03*
D29*
X31950000Y-15375000D03*
D30*
X41270000Y-22410000D03*
X41270000Y-24950000D03*
X41270000Y-47810000D03*
X41270000Y-50350000D03*
X26030000Y-42730000D03*
X26030000Y-50350000D03*
X26030000Y-47810000D03*
X26030000Y-24950000D03*
X26030000Y-22410000D03*
X45055000Y-135060000D03*
X45055000Y-137600000D03*
X45055000Y-160460000D03*
X45055000Y-163000000D03*
X45055000Y-155380000D03*
X60295000Y-163000000D03*
X60295000Y-160460000D03*
X60295000Y-137600000D03*
X60295000Y-135060000D03*
D31*
X22275000Y-30650000D03*
D32*
X22275000Y-28110000D03*
X22275000Y-25570000D03*
X22150000Y-39805000D03*
X22150000Y-37265000D03*
D31*
X22150000Y-34725000D03*
D29*
X54375000Y-15325000D03*
D28*
X58475000Y-17325000D03*
D27*
G36*
X56599504Y-16326204D02*
G01*
X56623773Y-16329804D01*
X56647571Y-16335765D01*
X56670671Y-16344030D01*
X56692849Y-16354520D01*
X56713893Y-16367133D01*
X56733598Y-16381747D01*
X56751777Y-16398223D01*
X56768253Y-16416402D01*
X56782867Y-16436107D01*
X56795480Y-16457151D01*
X56805970Y-16479329D01*
X56814235Y-16502429D01*
X56820196Y-16526227D01*
X56823796Y-16550496D01*
X56825000Y-16575000D01*
X56825000Y-18075000D01*
X56823796Y-18099504D01*
X56820196Y-18123773D01*
X56814235Y-18147571D01*
X56805970Y-18170671D01*
X56795480Y-18192849D01*
X56782867Y-18213893D01*
X56768253Y-18233598D01*
X56751777Y-18251777D01*
X56733598Y-18268253D01*
X56713893Y-18282867D01*
X56692849Y-18295480D01*
X56670671Y-18305970D01*
X56647571Y-18314235D01*
X56623773Y-18320196D01*
X56599504Y-18323796D01*
X56575000Y-18325000D01*
X55375000Y-18325000D01*
X55350496Y-18323796D01*
X55326227Y-18320196D01*
X55302429Y-18314235D01*
X55279329Y-18305970D01*
X55257151Y-18295480D01*
X55236107Y-18282867D01*
X55216402Y-18268253D01*
X55198223Y-18251777D01*
X55181747Y-18233598D01*
X55167133Y-18213893D01*
X55154520Y-18192849D01*
X55144030Y-18170671D01*
X55135765Y-18147571D01*
X55129804Y-18123773D01*
X55126204Y-18099504D01*
X55125000Y-18075000D01*
X55125000Y-16575000D01*
X55126204Y-16550496D01*
X55129804Y-16526227D01*
X55135765Y-16502429D01*
X55144030Y-16479329D01*
X55154520Y-16457151D01*
X55167133Y-16436107D01*
X55181747Y-16416402D01*
X55198223Y-16398223D01*
X55216402Y-16381747D01*
X55236107Y-16367133D01*
X55257151Y-16354520D01*
X55279329Y-16344030D01*
X55302429Y-16335765D01*
X55326227Y-16329804D01*
X55350496Y-16326204D01*
X55375000Y-16325000D01*
X56575000Y-16325000D01*
X56599504Y-16326204D01*
G37*
G36*
X31149504Y-152976204D02*
G01*
X31173773Y-152979804D01*
X31197571Y-152985765D01*
X31220671Y-152994030D01*
X31242849Y-153004520D01*
X31263893Y-153017133D01*
X31283598Y-153031747D01*
X31301777Y-153048223D01*
X31318253Y-153066402D01*
X31332867Y-153086107D01*
X31345480Y-153107151D01*
X31355970Y-153129329D01*
X31364235Y-153152429D01*
X31370196Y-153176227D01*
X31373796Y-153200496D01*
X31375000Y-153225000D01*
X31375000Y-154725000D01*
X31373796Y-154749504D01*
X31370196Y-154773773D01*
X31364235Y-154797571D01*
X31355970Y-154820671D01*
X31345480Y-154842849D01*
X31332867Y-154863893D01*
X31318253Y-154883598D01*
X31301777Y-154901777D01*
X31283598Y-154918253D01*
X31263893Y-154932867D01*
X31242849Y-154945480D01*
X31220671Y-154955970D01*
X31197571Y-154964235D01*
X31173773Y-154970196D01*
X31149504Y-154973796D01*
X31125000Y-154975000D01*
X29925000Y-154975000D01*
X29900496Y-154973796D01*
X29876227Y-154970196D01*
X29852429Y-154964235D01*
X29829329Y-154955970D01*
X29807151Y-154945480D01*
X29786107Y-154932867D01*
X29766402Y-154918253D01*
X29748223Y-154901777D01*
X29731747Y-154883598D01*
X29717133Y-154863893D01*
X29704520Y-154842849D01*
X29694030Y-154820671D01*
X29685765Y-154797571D01*
X29679804Y-154773773D01*
X29676204Y-154749504D01*
X29675000Y-154725000D01*
X29675000Y-153225000D01*
X29676204Y-153200496D01*
X29679804Y-153176227D01*
X29685765Y-153152429D01*
X29694030Y-153129329D01*
X29704520Y-153107151D01*
X29717133Y-153086107D01*
X29731747Y-153066402D01*
X29748223Y-153048223D01*
X29766402Y-153031747D01*
X29786107Y-153017133D01*
X29807151Y-153004520D01*
X29829329Y-152994030D01*
X29852429Y-152985765D01*
X29876227Y-152979804D01*
X29900496Y-152976204D01*
X29925000Y-152975000D01*
X31125000Y-152975000D01*
X31149504Y-152976204D01*
G37*
D28*
X33025000Y-153975000D03*
D29*
X28925000Y-155975000D03*
D30*
X24255000Y-153190000D03*
X24255000Y-150650000D03*
X24255000Y-127790000D03*
X24255000Y-125250000D03*
X24255000Y-132870000D03*
X39495000Y-125250000D03*
X39495000Y-127790000D03*
X39495000Y-150650000D03*
X39495000Y-153190000D03*
X63095000Y-22410000D03*
X63095000Y-24950000D03*
X63095000Y-47810000D03*
X63095000Y-50350000D03*
X47855000Y-42730000D03*
X47855000Y-50350000D03*
X47855000Y-47810000D03*
X47855000Y-24950000D03*
X47855000Y-22410000D03*
D33*
X58396000Y-57984000D03*
X58396000Y-55444000D03*
X58396000Y-52904000D03*
X58396000Y-50364000D03*
X58396000Y-47824000D03*
X58396000Y-45284000D03*
X58396000Y-42744000D03*
X58396000Y-40204000D03*
X58396000Y-37664000D03*
X58396000Y-35124000D03*
X58396000Y-32584000D03*
X58396000Y-30044000D03*
X58396000Y-27504000D03*
X58396000Y-24964000D03*
X58396000Y-24964000D03*
X58396000Y-22424000D03*
X33504000Y-22424000D03*
X33504000Y-24964000D03*
X33504000Y-27504000D03*
X33504000Y-30044000D03*
X33504000Y-32584000D03*
X33504000Y-35124000D03*
X33504000Y-37664000D03*
X33504000Y-40204000D03*
X33504000Y-42744000D03*
X33504000Y-45284000D03*
X33504000Y-47824000D03*
X33504000Y-50364000D03*
X33504000Y-52904000D03*
X33504000Y-55444000D03*
X33504000Y-57984000D03*
D27*
G36*
X31574504Y-132901204D02*
G01*
X31598773Y-132904804D01*
X31622571Y-132910765D01*
X31645671Y-132919030D01*
X31667849Y-132929520D01*
X31688893Y-132942133D01*
X31708598Y-132956747D01*
X31726777Y-132973223D01*
X31743253Y-132991402D01*
X31757867Y-133011107D01*
X31770480Y-133032151D01*
X31780970Y-133054329D01*
X31789235Y-133077429D01*
X31795196Y-133101227D01*
X31798796Y-133125496D01*
X31800000Y-133150000D01*
X31800000Y-134650000D01*
X31798796Y-134674504D01*
X31795196Y-134698773D01*
X31789235Y-134722571D01*
X31780970Y-134745671D01*
X31770480Y-134767849D01*
X31757867Y-134788893D01*
X31743253Y-134808598D01*
X31726777Y-134826777D01*
X31708598Y-134843253D01*
X31688893Y-134857867D01*
X31667849Y-134870480D01*
X31645671Y-134880970D01*
X31622571Y-134889235D01*
X31598773Y-134895196D01*
X31574504Y-134898796D01*
X31550000Y-134900000D01*
X30350000Y-134900000D01*
X30325496Y-134898796D01*
X30301227Y-134895196D01*
X30277429Y-134889235D01*
X30254329Y-134880970D01*
X30232151Y-134870480D01*
X30211107Y-134857867D01*
X30191402Y-134843253D01*
X30173223Y-134826777D01*
X30156747Y-134808598D01*
X30142133Y-134788893D01*
X30129520Y-134767849D01*
X30119030Y-134745671D01*
X30110765Y-134722571D01*
X30104804Y-134698773D01*
X30101204Y-134674504D01*
X30100000Y-134650000D01*
X30100000Y-133150000D01*
X30101204Y-133125496D01*
X30104804Y-133101227D01*
X30110765Y-133077429D01*
X30119030Y-133054329D01*
X30129520Y-133032151D01*
X30142133Y-133011107D01*
X30156747Y-132991402D01*
X30173223Y-132973223D01*
X30191402Y-132956747D01*
X30211107Y-132942133D01*
X30232151Y-132929520D01*
X30254329Y-132919030D01*
X30277429Y-132910765D01*
X30301227Y-132904804D01*
X30325496Y-132901204D01*
X30350000Y-132900000D01*
X31550000Y-132900000D01*
X31574504Y-132901204D01*
G37*
D28*
X33450000Y-133900000D03*
D29*
X29350000Y-131900000D03*
X49750000Y-155950000D03*
D28*
X53850000Y-153950000D03*
D27*
G36*
X51974504Y-152951204D02*
G01*
X51998773Y-152954804D01*
X52022571Y-152960765D01*
X52045671Y-152969030D01*
X52067849Y-152979520D01*
X52088893Y-152992133D01*
X52108598Y-153006747D01*
X52126777Y-153023223D01*
X52143253Y-153041402D01*
X52157867Y-153061107D01*
X52170480Y-153082151D01*
X52180970Y-153104329D01*
X52189235Y-153127429D01*
X52195196Y-153151227D01*
X52198796Y-153175496D01*
X52200000Y-153200000D01*
X52200000Y-154700000D01*
X52198796Y-154724504D01*
X52195196Y-154748773D01*
X52189235Y-154772571D01*
X52180970Y-154795671D01*
X52170480Y-154817849D01*
X52157867Y-154838893D01*
X52143253Y-154858598D01*
X52126777Y-154876777D01*
X52108598Y-154893253D01*
X52088893Y-154907867D01*
X52067849Y-154920480D01*
X52045671Y-154930970D01*
X52022571Y-154939235D01*
X51998773Y-154945196D01*
X51974504Y-154948796D01*
X51950000Y-154950000D01*
X50750000Y-154950000D01*
X50725496Y-154948796D01*
X50701227Y-154945196D01*
X50677429Y-154939235D01*
X50654329Y-154930970D01*
X50632151Y-154920480D01*
X50611107Y-154907867D01*
X50591402Y-154893253D01*
X50573223Y-154876777D01*
X50556747Y-154858598D01*
X50542133Y-154838893D01*
X50529520Y-154817849D01*
X50519030Y-154795671D01*
X50510765Y-154772571D01*
X50504804Y-154748773D01*
X50501204Y-154724504D01*
X50500000Y-154700000D01*
X50500000Y-153200000D01*
X50501204Y-153175496D01*
X50504804Y-153151227D01*
X50510765Y-153127429D01*
X50519030Y-153104329D01*
X50529520Y-153082151D01*
X50542133Y-153061107D01*
X50556747Y-153041402D01*
X50573223Y-153023223D01*
X50591402Y-153006747D01*
X50611107Y-152992133D01*
X50632151Y-152979520D01*
X50654329Y-152969030D01*
X50677429Y-152960765D01*
X50701227Y-152954804D01*
X50725496Y-152951204D01*
X50750000Y-152950000D01*
X51950000Y-152950000D01*
X51974504Y-152951204D01*
G37*
D30*
X60295000Y-153190000D03*
X60295000Y-150650000D03*
X60295000Y-127790000D03*
X60295000Y-125250000D03*
X45055000Y-132870000D03*
X45055000Y-125250000D03*
X45055000Y-127790000D03*
X45055000Y-150650000D03*
X45055000Y-153190000D03*
X24305000Y-135060000D03*
X24305000Y-137600000D03*
X24305000Y-160460000D03*
X24305000Y-163000000D03*
X24305000Y-155380000D03*
X39545000Y-163000000D03*
X39545000Y-160460000D03*
X39545000Y-137600000D03*
X39545000Y-135060000D03*
D29*
X63300000Y-18325000D03*
D28*
X67400000Y-16325000D03*
D27*
G36*
X65524504Y-15326204D02*
G01*
X65548773Y-15329804D01*
X65572571Y-15335765D01*
X65595671Y-15344030D01*
X65617849Y-15354520D01*
X65638893Y-15367133D01*
X65658598Y-15381747D01*
X65676777Y-15398223D01*
X65693253Y-15416402D01*
X65707867Y-15436107D01*
X65720480Y-15457151D01*
X65730970Y-15479329D01*
X65739235Y-15502429D01*
X65745196Y-15526227D01*
X65748796Y-15550496D01*
X65750000Y-15575000D01*
X65750000Y-17075000D01*
X65748796Y-17099504D01*
X65745196Y-17123773D01*
X65739235Y-17147571D01*
X65730970Y-17170671D01*
X65720480Y-17192849D01*
X65707867Y-17213893D01*
X65693253Y-17233598D01*
X65676777Y-17251777D01*
X65658598Y-17268253D01*
X65638893Y-17282867D01*
X65617849Y-17295480D01*
X65595671Y-17305970D01*
X65572571Y-17314235D01*
X65548773Y-17320196D01*
X65524504Y-17323796D01*
X65500000Y-17325000D01*
X64300000Y-17325000D01*
X64275496Y-17323796D01*
X64251227Y-17320196D01*
X64227429Y-17314235D01*
X64204329Y-17305970D01*
X64182151Y-17295480D01*
X64161107Y-17282867D01*
X64141402Y-17268253D01*
X64123223Y-17251777D01*
X64106747Y-17233598D01*
X64092133Y-17213893D01*
X64079520Y-17192849D01*
X64069030Y-17170671D01*
X64060765Y-17147571D01*
X64054804Y-17123773D01*
X64051204Y-17099504D01*
X64050000Y-17075000D01*
X64050000Y-15575000D01*
X64051204Y-15550496D01*
X64054804Y-15526227D01*
X64060765Y-15502429D01*
X64069030Y-15479329D01*
X64079520Y-15457151D01*
X64092133Y-15436107D01*
X64106747Y-15416402D01*
X64123223Y-15398223D01*
X64141402Y-15381747D01*
X64161107Y-15367133D01*
X64182151Y-15354520D01*
X64204329Y-15344030D01*
X64227429Y-15335765D01*
X64251227Y-15329804D01*
X64275496Y-15326204D01*
X64300000Y-15325000D01*
X65500000Y-15325000D01*
X65524504Y-15326204D01*
G37*
D29*
X28900000Y-15500000D03*
D28*
X24800000Y-17500000D03*
D27*
G36*
X27924504Y-16501204D02*
G01*
X27948773Y-16504804D01*
X27972571Y-16510765D01*
X27995671Y-16519030D01*
X28017849Y-16529520D01*
X28038893Y-16542133D01*
X28058598Y-16556747D01*
X28076777Y-16573223D01*
X28093253Y-16591402D01*
X28107867Y-16611107D01*
X28120480Y-16632151D01*
X28130970Y-16654329D01*
X28139235Y-16677429D01*
X28145196Y-16701227D01*
X28148796Y-16725496D01*
X28150000Y-16750000D01*
X28150000Y-18250000D01*
X28148796Y-18274504D01*
X28145196Y-18298773D01*
X28139235Y-18322571D01*
X28130970Y-18345671D01*
X28120480Y-18367849D01*
X28107867Y-18388893D01*
X28093253Y-18408598D01*
X28076777Y-18426777D01*
X28058598Y-18443253D01*
X28038893Y-18457867D01*
X28017849Y-18470480D01*
X27995671Y-18480970D01*
X27972571Y-18489235D01*
X27948773Y-18495196D01*
X27924504Y-18498796D01*
X27900000Y-18500000D01*
X26700000Y-18500000D01*
X26675496Y-18498796D01*
X26651227Y-18495196D01*
X26627429Y-18489235D01*
X26604329Y-18480970D01*
X26582151Y-18470480D01*
X26561107Y-18457867D01*
X26541402Y-18443253D01*
X26523223Y-18426777D01*
X26506747Y-18408598D01*
X26492133Y-18388893D01*
X26479520Y-18367849D01*
X26469030Y-18345671D01*
X26460765Y-18322571D01*
X26454804Y-18298773D01*
X26451204Y-18274504D01*
X26450000Y-18250000D01*
X26450000Y-16750000D01*
X26451204Y-16725496D01*
X26454804Y-16701227D01*
X26460765Y-16677429D01*
X26469030Y-16654329D01*
X26479520Y-16632151D01*
X26492133Y-16611107D01*
X26506747Y-16591402D01*
X26523223Y-16573223D01*
X26541402Y-16556747D01*
X26561107Y-16542133D01*
X26582151Y-16529520D01*
X26604329Y-16519030D01*
X26627429Y-16510765D01*
X26651227Y-16504804D01*
X26675496Y-16501204D01*
X26700000Y-16500000D01*
X27900000Y-16500000D01*
X27924504Y-16501204D01*
G37*
D34*
X46675000Y-168460000D03*
X58675000Y-168460000D03*
D27*
G36*
X50199504Y-165491204D02*
G01*
X50223773Y-165494804D01*
X50247571Y-165500765D01*
X50270671Y-165509030D01*
X50292849Y-165519520D01*
X50313893Y-165532133D01*
X50333598Y-165546747D01*
X50351777Y-165563223D01*
X50368253Y-165581402D01*
X50382867Y-165601107D01*
X50395480Y-165622151D01*
X50405970Y-165644329D01*
X50414235Y-165667429D01*
X50420196Y-165691227D01*
X50423796Y-165715496D01*
X50425000Y-165740000D01*
X50425000Y-167260000D01*
X50423796Y-167284504D01*
X50420196Y-167308773D01*
X50414235Y-167332571D01*
X50405970Y-167355671D01*
X50395480Y-167377849D01*
X50382867Y-167398893D01*
X50368253Y-167418598D01*
X50351777Y-167436777D01*
X50333598Y-167453253D01*
X50313893Y-167467867D01*
X50292849Y-167480480D01*
X50270671Y-167490970D01*
X50247571Y-167499235D01*
X50223773Y-167505196D01*
X50199504Y-167508796D01*
X50175000Y-167510000D01*
X49175000Y-167510000D01*
X49150496Y-167508796D01*
X49126227Y-167505196D01*
X49102429Y-167499235D01*
X49079329Y-167490970D01*
X49057151Y-167480480D01*
X49036107Y-167467867D01*
X49016402Y-167453253D01*
X48998223Y-167436777D01*
X48981747Y-167418598D01*
X48967133Y-167398893D01*
X48954520Y-167377849D01*
X48944030Y-167355671D01*
X48935765Y-167332571D01*
X48929804Y-167308773D01*
X48926204Y-167284504D01*
X48925000Y-167260000D01*
X48925000Y-165740000D01*
X48926204Y-165715496D01*
X48929804Y-165691227D01*
X48935765Y-165667429D01*
X48944030Y-165644329D01*
X48954520Y-165622151D01*
X48967133Y-165601107D01*
X48981747Y-165581402D01*
X48998223Y-165563223D01*
X49016402Y-165546747D01*
X49036107Y-165532133D01*
X49057151Y-165519520D01*
X49079329Y-165509030D01*
X49102429Y-165500765D01*
X49126227Y-165494804D01*
X49150496Y-165491204D01*
X49175000Y-165490000D01*
X50175000Y-165490000D01*
X50199504Y-165491204D01*
G37*
D35*
X52675000Y-166500000D03*
X55675000Y-166500000D03*
D36*
X67600000Y-30300000D03*
X67600000Y-27300000D03*
D27*
G36*
X68384504Y-23551204D02*
G01*
X68408773Y-23554804D01*
X68432571Y-23560765D01*
X68455671Y-23569030D01*
X68477849Y-23579520D01*
X68498893Y-23592133D01*
X68518598Y-23606747D01*
X68536777Y-23623223D01*
X68553253Y-23641402D01*
X68567867Y-23661107D01*
X68580480Y-23682151D01*
X68590970Y-23704329D01*
X68599235Y-23727429D01*
X68605196Y-23751227D01*
X68608796Y-23775496D01*
X68610000Y-23800000D01*
X68610000Y-24800000D01*
X68608796Y-24824504D01*
X68605196Y-24848773D01*
X68599235Y-24872571D01*
X68590970Y-24895671D01*
X68580480Y-24917849D01*
X68567867Y-24938893D01*
X68553253Y-24958598D01*
X68536777Y-24976777D01*
X68518598Y-24993253D01*
X68498893Y-25007867D01*
X68477849Y-25020480D01*
X68455671Y-25030970D01*
X68432571Y-25039235D01*
X68408773Y-25045196D01*
X68384504Y-25048796D01*
X68360000Y-25050000D01*
X66840000Y-25050000D01*
X66815496Y-25048796D01*
X66791227Y-25045196D01*
X66767429Y-25039235D01*
X66744329Y-25030970D01*
X66722151Y-25020480D01*
X66701107Y-25007867D01*
X66681402Y-24993253D01*
X66663223Y-24976777D01*
X66646747Y-24958598D01*
X66632133Y-24938893D01*
X66619520Y-24917849D01*
X66609030Y-24895671D01*
X66600765Y-24872571D01*
X66594804Y-24848773D01*
X66591204Y-24824504D01*
X66590000Y-24800000D01*
X66590000Y-23800000D01*
X66591204Y-23775496D01*
X66594804Y-23751227D01*
X66600765Y-23727429D01*
X66609030Y-23704329D01*
X66619520Y-23682151D01*
X66632133Y-23661107D01*
X66646747Y-23641402D01*
X66663223Y-23623223D01*
X66681402Y-23606747D01*
X66701107Y-23592133D01*
X66722151Y-23579520D01*
X66744329Y-23569030D01*
X66767429Y-23560765D01*
X66791227Y-23554804D01*
X66815496Y-23551204D01*
X66840000Y-23550000D01*
X68360000Y-23550000D01*
X68384504Y-23551204D01*
G37*
D34*
X69560000Y-33300000D03*
X69560000Y-21300000D03*
X26275000Y-119590000D03*
X38275000Y-119590000D03*
D27*
G36*
X29799504Y-120541204D02*
G01*
X29823773Y-120544804D01*
X29847571Y-120550765D01*
X29870671Y-120559030D01*
X29892849Y-120569520D01*
X29913893Y-120582133D01*
X29933598Y-120596747D01*
X29951777Y-120613223D01*
X29968253Y-120631402D01*
X29982867Y-120651107D01*
X29995480Y-120672151D01*
X30005970Y-120694329D01*
X30014235Y-120717429D01*
X30020196Y-120741227D01*
X30023796Y-120765496D01*
X30025000Y-120790000D01*
X30025000Y-122310000D01*
X30023796Y-122334504D01*
X30020196Y-122358773D01*
X30014235Y-122382571D01*
X30005970Y-122405671D01*
X29995480Y-122427849D01*
X29982867Y-122448893D01*
X29968253Y-122468598D01*
X29951777Y-122486777D01*
X29933598Y-122503253D01*
X29913893Y-122517867D01*
X29892849Y-122530480D01*
X29870671Y-122540970D01*
X29847571Y-122549235D01*
X29823773Y-122555196D01*
X29799504Y-122558796D01*
X29775000Y-122560000D01*
X28775000Y-122560000D01*
X28750496Y-122558796D01*
X28726227Y-122555196D01*
X28702429Y-122549235D01*
X28679329Y-122540970D01*
X28657151Y-122530480D01*
X28636107Y-122517867D01*
X28616402Y-122503253D01*
X28598223Y-122486777D01*
X28581747Y-122468598D01*
X28567133Y-122448893D01*
X28554520Y-122427849D01*
X28544030Y-122405671D01*
X28535765Y-122382571D01*
X28529804Y-122358773D01*
X28526204Y-122334504D01*
X28525000Y-122310000D01*
X28525000Y-120790000D01*
X28526204Y-120765496D01*
X28529804Y-120741227D01*
X28535765Y-120717429D01*
X28544030Y-120694329D01*
X28554520Y-120672151D01*
X28567133Y-120651107D01*
X28581747Y-120631402D01*
X28598223Y-120613223D01*
X28616402Y-120596747D01*
X28636107Y-120582133D01*
X28657151Y-120569520D01*
X28679329Y-120559030D01*
X28702429Y-120550765D01*
X28726227Y-120544804D01*
X28750496Y-120541204D01*
X28775000Y-120540000D01*
X29775000Y-120540000D01*
X29799504Y-120541204D01*
G37*
D35*
X32275000Y-121550000D03*
X35275000Y-121550000D03*
X42850000Y-20325000D03*
X45850000Y-20325000D03*
D27*
G36*
X49374504Y-19316204D02*
G01*
X49398773Y-19319804D01*
X49422571Y-19325765D01*
X49445671Y-19334030D01*
X49467849Y-19344520D01*
X49488893Y-19357133D01*
X49508598Y-19371747D01*
X49526777Y-19388223D01*
X49543253Y-19406402D01*
X49557867Y-19426107D01*
X49570480Y-19447151D01*
X49580970Y-19469329D01*
X49589235Y-19492429D01*
X49595196Y-19516227D01*
X49598796Y-19540496D01*
X49600000Y-19565000D01*
X49600000Y-21085000D01*
X49598796Y-21109504D01*
X49595196Y-21133773D01*
X49589235Y-21157571D01*
X49580970Y-21180671D01*
X49570480Y-21202849D01*
X49557867Y-21223893D01*
X49543253Y-21243598D01*
X49526777Y-21261777D01*
X49508598Y-21278253D01*
X49488893Y-21292867D01*
X49467849Y-21305480D01*
X49445671Y-21315970D01*
X49422571Y-21324235D01*
X49398773Y-21330196D01*
X49374504Y-21333796D01*
X49350000Y-21335000D01*
X48350000Y-21335000D01*
X48325496Y-21333796D01*
X48301227Y-21330196D01*
X48277429Y-21324235D01*
X48254329Y-21315970D01*
X48232151Y-21305480D01*
X48211107Y-21292867D01*
X48191402Y-21278253D01*
X48173223Y-21261777D01*
X48156747Y-21243598D01*
X48142133Y-21223893D01*
X48129520Y-21202849D01*
X48119030Y-21180671D01*
X48110765Y-21157571D01*
X48104804Y-21133773D01*
X48101204Y-21109504D01*
X48100000Y-21085000D01*
X48100000Y-19565000D01*
X48101204Y-19540496D01*
X48104804Y-19516227D01*
X48110765Y-19492429D01*
X48119030Y-19469329D01*
X48129520Y-19447151D01*
X48142133Y-19426107D01*
X48156747Y-19406402D01*
X48173223Y-19388223D01*
X48191402Y-19371747D01*
X48211107Y-19357133D01*
X48232151Y-19344520D01*
X48254329Y-19334030D01*
X48277429Y-19325765D01*
X48301227Y-19319804D01*
X48325496Y-19316204D01*
X48350000Y-19315000D01*
X49350000Y-19315000D01*
X49374504Y-19316204D01*
G37*
D34*
X39850000Y-18365000D03*
X51850000Y-18365000D03*
D35*
X55825000Y-121700000D03*
X52825000Y-121700000D03*
D27*
G36*
X50349504Y-120691204D02*
G01*
X50373773Y-120694804D01*
X50397571Y-120700765D01*
X50420671Y-120709030D01*
X50442849Y-120719520D01*
X50463893Y-120732133D01*
X50483598Y-120746747D01*
X50501777Y-120763223D01*
X50518253Y-120781402D01*
X50532867Y-120801107D01*
X50545480Y-120822151D01*
X50555970Y-120844329D01*
X50564235Y-120867429D01*
X50570196Y-120891227D01*
X50573796Y-120915496D01*
X50575000Y-120940000D01*
X50575000Y-122460000D01*
X50573796Y-122484504D01*
X50570196Y-122508773D01*
X50564235Y-122532571D01*
X50555970Y-122555671D01*
X50545480Y-122577849D01*
X50532867Y-122598893D01*
X50518253Y-122618598D01*
X50501777Y-122636777D01*
X50483598Y-122653253D01*
X50463893Y-122667867D01*
X50442849Y-122680480D01*
X50420671Y-122690970D01*
X50397571Y-122699235D01*
X50373773Y-122705196D01*
X50349504Y-122708796D01*
X50325000Y-122710000D01*
X49325000Y-122710000D01*
X49300496Y-122708796D01*
X49276227Y-122705196D01*
X49252429Y-122699235D01*
X49229329Y-122690970D01*
X49207151Y-122680480D01*
X49186107Y-122667867D01*
X49166402Y-122653253D01*
X49148223Y-122636777D01*
X49131747Y-122618598D01*
X49117133Y-122598893D01*
X49104520Y-122577849D01*
X49094030Y-122555671D01*
X49085765Y-122532571D01*
X49079804Y-122508773D01*
X49076204Y-122484504D01*
X49075000Y-122460000D01*
X49075000Y-120940000D01*
X49076204Y-120915496D01*
X49079804Y-120891227D01*
X49085765Y-120867429D01*
X49094030Y-120844329D01*
X49104520Y-120822151D01*
X49117133Y-120801107D01*
X49131747Y-120781402D01*
X49148223Y-120763223D01*
X49166402Y-120746747D01*
X49186107Y-120732133D01*
X49207151Y-120719520D01*
X49229329Y-120709030D01*
X49252429Y-120700765D01*
X49276227Y-120694804D01*
X49300496Y-120691204D01*
X49325000Y-120690000D01*
X50325000Y-120690000D01*
X50349504Y-120691204D01*
G37*
D34*
X58825000Y-119740000D03*
X46825000Y-119740000D03*
D35*
X34875000Y-166500000D03*
X31875000Y-166500000D03*
D27*
G36*
X29399504Y-165491204D02*
G01*
X29423773Y-165494804D01*
X29447571Y-165500765D01*
X29470671Y-165509030D01*
X29492849Y-165519520D01*
X29513893Y-165532133D01*
X29533598Y-165546747D01*
X29551777Y-165563223D01*
X29568253Y-165581402D01*
X29582867Y-165601107D01*
X29595480Y-165622151D01*
X29605970Y-165644329D01*
X29614235Y-165667429D01*
X29620196Y-165691227D01*
X29623796Y-165715496D01*
X29625000Y-165740000D01*
X29625000Y-167260000D01*
X29623796Y-167284504D01*
X29620196Y-167308773D01*
X29614235Y-167332571D01*
X29605970Y-167355671D01*
X29595480Y-167377849D01*
X29582867Y-167398893D01*
X29568253Y-167418598D01*
X29551777Y-167436777D01*
X29533598Y-167453253D01*
X29513893Y-167467867D01*
X29492849Y-167480480D01*
X29470671Y-167490970D01*
X29447571Y-167499235D01*
X29423773Y-167505196D01*
X29399504Y-167508796D01*
X29375000Y-167510000D01*
X28375000Y-167510000D01*
X28350496Y-167508796D01*
X28326227Y-167505196D01*
X28302429Y-167499235D01*
X28279329Y-167490970D01*
X28257151Y-167480480D01*
X28236107Y-167467867D01*
X28216402Y-167453253D01*
X28198223Y-167436777D01*
X28181747Y-167418598D01*
X28167133Y-167398893D01*
X28154520Y-167377849D01*
X28144030Y-167355671D01*
X28135765Y-167332571D01*
X28129804Y-167308773D01*
X28126204Y-167284504D01*
X28125000Y-167260000D01*
X28125000Y-165740000D01*
X28126204Y-165715496D01*
X28129804Y-165691227D01*
X28135765Y-165667429D01*
X28144030Y-165644329D01*
X28154520Y-165622151D01*
X28167133Y-165601107D01*
X28181747Y-165581402D01*
X28198223Y-165563223D01*
X28216402Y-165546747D01*
X28236107Y-165532133D01*
X28257151Y-165519520D01*
X28279329Y-165509030D01*
X28302429Y-165500765D01*
X28326227Y-165494804D01*
X28350496Y-165491204D01*
X28375000Y-165490000D01*
X29375000Y-165490000D01*
X29399504Y-165491204D01*
G37*
D34*
X37875000Y-168460000D03*
X25875000Y-168460000D03*
X69560000Y-35200000D03*
X69560000Y-47200000D03*
D27*
G36*
X68384504Y-37451204D02*
G01*
X68408773Y-37454804D01*
X68432571Y-37460765D01*
X68455671Y-37469030D01*
X68477849Y-37479520D01*
X68498893Y-37492133D01*
X68518598Y-37506747D01*
X68536777Y-37523223D01*
X68553253Y-37541402D01*
X68567867Y-37561107D01*
X68580480Y-37582151D01*
X68590970Y-37604329D01*
X68599235Y-37627429D01*
X68605196Y-37651227D01*
X68608796Y-37675496D01*
X68610000Y-37700000D01*
X68610000Y-38700000D01*
X68608796Y-38724504D01*
X68605196Y-38748773D01*
X68599235Y-38772571D01*
X68590970Y-38795671D01*
X68580480Y-38817849D01*
X68567867Y-38838893D01*
X68553253Y-38858598D01*
X68536777Y-38876777D01*
X68518598Y-38893253D01*
X68498893Y-38907867D01*
X68477849Y-38920480D01*
X68455671Y-38930970D01*
X68432571Y-38939235D01*
X68408773Y-38945196D01*
X68384504Y-38948796D01*
X68360000Y-38950000D01*
X66840000Y-38950000D01*
X66815496Y-38948796D01*
X66791227Y-38945196D01*
X66767429Y-38939235D01*
X66744329Y-38930970D01*
X66722151Y-38920480D01*
X66701107Y-38907867D01*
X66681402Y-38893253D01*
X66663223Y-38876777D01*
X66646747Y-38858598D01*
X66632133Y-38838893D01*
X66619520Y-38817849D01*
X66609030Y-38795671D01*
X66600765Y-38772571D01*
X66594804Y-38748773D01*
X66591204Y-38724504D01*
X66590000Y-38700000D01*
X66590000Y-37700000D01*
X66591204Y-37675496D01*
X66594804Y-37651227D01*
X66600765Y-37627429D01*
X66609030Y-37604329D01*
X66619520Y-37582151D01*
X66632133Y-37561107D01*
X66646747Y-37541402D01*
X66663223Y-37523223D01*
X66681402Y-37506747D01*
X66701107Y-37492133D01*
X66722151Y-37479520D01*
X66744329Y-37469030D01*
X66767429Y-37460765D01*
X66791227Y-37454804D01*
X66815496Y-37451204D01*
X66840000Y-37450000D01*
X68360000Y-37450000D01*
X68384504Y-37451204D01*
G37*
D36*
X67600000Y-41200000D03*
X67600000Y-44200000D03*
D34*
X69560000Y-49100000D03*
X69560000Y-61100000D03*
D27*
G36*
X68384504Y-51351204D02*
G01*
X68408773Y-51354804D01*
X68432571Y-51360765D01*
X68455671Y-51369030D01*
X68477849Y-51379520D01*
X68498893Y-51392133D01*
X68518598Y-51406747D01*
X68536777Y-51423223D01*
X68553253Y-51441402D01*
X68567867Y-51461107D01*
X68580480Y-51482151D01*
X68590970Y-51504329D01*
X68599235Y-51527429D01*
X68605196Y-51551227D01*
X68608796Y-51575496D01*
X68610000Y-51600000D01*
X68610000Y-52600000D01*
X68608796Y-52624504D01*
X68605196Y-52648773D01*
X68599235Y-52672571D01*
X68590970Y-52695671D01*
X68580480Y-52717849D01*
X68567867Y-52738893D01*
X68553253Y-52758598D01*
X68536777Y-52776777D01*
X68518598Y-52793253D01*
X68498893Y-52807867D01*
X68477849Y-52820480D01*
X68455671Y-52830970D01*
X68432571Y-52839235D01*
X68408773Y-52845196D01*
X68384504Y-52848796D01*
X68360000Y-52850000D01*
X66840000Y-52850000D01*
X66815496Y-52848796D01*
X66791227Y-52845196D01*
X66767429Y-52839235D01*
X66744329Y-52830970D01*
X66722151Y-52820480D01*
X66701107Y-52807867D01*
X66681402Y-52793253D01*
X66663223Y-52776777D01*
X66646747Y-52758598D01*
X66632133Y-52738893D01*
X66619520Y-52717849D01*
X66609030Y-52695671D01*
X66600765Y-52672571D01*
X66594804Y-52648773D01*
X66591204Y-52624504D01*
X66590000Y-52600000D01*
X66590000Y-51600000D01*
X66591204Y-51575496D01*
X66594804Y-51551227D01*
X66600765Y-51527429D01*
X66609030Y-51504329D01*
X66619520Y-51482151D01*
X66632133Y-51461107D01*
X66646747Y-51441402D01*
X66663223Y-51423223D01*
X66681402Y-51406747D01*
X66701107Y-51392133D01*
X66722151Y-51379520D01*
X66744329Y-51369030D01*
X66767429Y-51360765D01*
X66791227Y-51354804D01*
X66815496Y-51351204D01*
X66840000Y-51350000D01*
X68360000Y-51350000D01*
X68384504Y-51351204D01*
G37*
D36*
X67600000Y-55100000D03*
X67600000Y-58100000D03*
D29*
X18025000Y-162800000D03*
D37*
X16025000Y-158700000D03*
D27*
G36*
X16799504Y-160351204D02*
G01*
X16823773Y-160354804D01*
X16847571Y-160360765D01*
X16870671Y-160369030D01*
X16892849Y-160379520D01*
X16913893Y-160392133D01*
X16933598Y-160406747D01*
X16951777Y-160423223D01*
X16968253Y-160441402D01*
X16982867Y-160461107D01*
X16995480Y-160482151D01*
X17005970Y-160504329D01*
X17014235Y-160527429D01*
X17020196Y-160551227D01*
X17023796Y-160575496D01*
X17025000Y-160600000D01*
X17025000Y-161800000D01*
X17023796Y-161824504D01*
X17020196Y-161848773D01*
X17014235Y-161872571D01*
X17005970Y-161895671D01*
X16995480Y-161917849D01*
X16982867Y-161938893D01*
X16968253Y-161958598D01*
X16951777Y-161976777D01*
X16933598Y-161993253D01*
X16913893Y-162007867D01*
X16892849Y-162020480D01*
X16870671Y-162030970D01*
X16847571Y-162039235D01*
X16823773Y-162045196D01*
X16799504Y-162048796D01*
X16775000Y-162050000D01*
X15275000Y-162050000D01*
X15250496Y-162048796D01*
X15226227Y-162045196D01*
X15202429Y-162039235D01*
X15179329Y-162030970D01*
X15157151Y-162020480D01*
X15136107Y-162007867D01*
X15116402Y-161993253D01*
X15098223Y-161976777D01*
X15081747Y-161958598D01*
X15067133Y-161938893D01*
X15054520Y-161917849D01*
X15044030Y-161895671D01*
X15035765Y-161872571D01*
X15029804Y-161848773D01*
X15026204Y-161824504D01*
X15025000Y-161800000D01*
X15025000Y-160600000D01*
X15026204Y-160575496D01*
X15029804Y-160551227D01*
X15035765Y-160527429D01*
X15044030Y-160504329D01*
X15054520Y-160482151D01*
X15067133Y-160461107D01*
X15081747Y-160441402D01*
X15098223Y-160423223D01*
X15116402Y-160406747D01*
X15136107Y-160392133D01*
X15157151Y-160379520D01*
X15179329Y-160369030D01*
X15202429Y-160360765D01*
X15226227Y-160354804D01*
X15250496Y-160351204D01*
X15275000Y-160350000D01*
X16775000Y-160350000D01*
X16799504Y-160351204D01*
G37*
G36*
X68499504Y-160276204D02*
G01*
X68523773Y-160279804D01*
X68547571Y-160285765D01*
X68570671Y-160294030D01*
X68592849Y-160304520D01*
X68613893Y-160317133D01*
X68633598Y-160331747D01*
X68651777Y-160348223D01*
X68668253Y-160366402D01*
X68682867Y-160386107D01*
X68695480Y-160407151D01*
X68705970Y-160429329D01*
X68714235Y-160452429D01*
X68720196Y-160476227D01*
X68723796Y-160500496D01*
X68725000Y-160525000D01*
X68725000Y-161725000D01*
X68723796Y-161749504D01*
X68720196Y-161773773D01*
X68714235Y-161797571D01*
X68705970Y-161820671D01*
X68695480Y-161842849D01*
X68682867Y-161863893D01*
X68668253Y-161883598D01*
X68651777Y-161901777D01*
X68633598Y-161918253D01*
X68613893Y-161932867D01*
X68592849Y-161945480D01*
X68570671Y-161955970D01*
X68547571Y-161964235D01*
X68523773Y-161970196D01*
X68499504Y-161973796D01*
X68475000Y-161975000D01*
X66975000Y-161975000D01*
X66950496Y-161973796D01*
X66926227Y-161970196D01*
X66902429Y-161964235D01*
X66879329Y-161955970D01*
X66857151Y-161945480D01*
X66836107Y-161932867D01*
X66816402Y-161918253D01*
X66798223Y-161901777D01*
X66781747Y-161883598D01*
X66767133Y-161863893D01*
X66754520Y-161842849D01*
X66744030Y-161820671D01*
X66735765Y-161797571D01*
X66729804Y-161773773D01*
X66726204Y-161749504D01*
X66725000Y-161725000D01*
X66725000Y-160525000D01*
X66726204Y-160500496D01*
X66729804Y-160476227D01*
X66735765Y-160452429D01*
X66744030Y-160429329D01*
X66754520Y-160407151D01*
X66767133Y-160386107D01*
X66781747Y-160366402D01*
X66798223Y-160348223D01*
X66816402Y-160331747D01*
X66836107Y-160317133D01*
X66857151Y-160304520D01*
X66879329Y-160294030D01*
X66902429Y-160285765D01*
X66926227Y-160279804D01*
X66950496Y-160276204D01*
X66975000Y-160275000D01*
X68475000Y-160275000D01*
X68499504Y-160276204D01*
G37*
D37*
X67725000Y-158625000D03*
D29*
X65725000Y-162725000D03*
D27*
G36*
X19699504Y-66776204D02*
G01*
X19723773Y-66779804D01*
X19747571Y-66785765D01*
X19770671Y-66794030D01*
X19792849Y-66804520D01*
X19813893Y-66817133D01*
X19833598Y-66831747D01*
X19851777Y-66848223D01*
X19868253Y-66866402D01*
X19882867Y-66886107D01*
X19895480Y-66907151D01*
X19905970Y-66929329D01*
X19914235Y-66952429D01*
X19920196Y-66976227D01*
X19923796Y-67000496D01*
X19925000Y-67025000D01*
X19925000Y-68525000D01*
X19923796Y-68549504D01*
X19920196Y-68573773D01*
X19914235Y-68597571D01*
X19905970Y-68620671D01*
X19895480Y-68642849D01*
X19882867Y-68663893D01*
X19868253Y-68683598D01*
X19851777Y-68701777D01*
X19833598Y-68718253D01*
X19813893Y-68732867D01*
X19792849Y-68745480D01*
X19770671Y-68755970D01*
X19747571Y-68764235D01*
X19723773Y-68770196D01*
X19699504Y-68773796D01*
X19675000Y-68775000D01*
X18475000Y-68775000D01*
X18450496Y-68773796D01*
X18426227Y-68770196D01*
X18402429Y-68764235D01*
X18379329Y-68755970D01*
X18357151Y-68745480D01*
X18336107Y-68732867D01*
X18316402Y-68718253D01*
X18298223Y-68701777D01*
X18281747Y-68683598D01*
X18267133Y-68663893D01*
X18254520Y-68642849D01*
X18244030Y-68620671D01*
X18235765Y-68597571D01*
X18229804Y-68573773D01*
X18226204Y-68549504D01*
X18225000Y-68525000D01*
X18225000Y-67025000D01*
X18226204Y-67000496D01*
X18229804Y-66976227D01*
X18235765Y-66952429D01*
X18244030Y-66929329D01*
X18254520Y-66907151D01*
X18267133Y-66886107D01*
X18281747Y-66866402D01*
X18298223Y-66848223D01*
X18316402Y-66831747D01*
X18336107Y-66817133D01*
X18357151Y-66804520D01*
X18379329Y-66794030D01*
X18402429Y-66785765D01*
X18426227Y-66779804D01*
X18450496Y-66776204D01*
X18475000Y-66775000D01*
X19675000Y-66775000D01*
X19699504Y-66776204D01*
G37*
D28*
X16575000Y-67775000D03*
D29*
X20675000Y-65775000D03*
X68375000Y-65625000D03*
D28*
X64275000Y-67625000D03*
D27*
G36*
X67399504Y-66626204D02*
G01*
X67423773Y-66629804D01*
X67447571Y-66635765D01*
X67470671Y-66644030D01*
X67492849Y-66654520D01*
X67513893Y-66667133D01*
X67533598Y-66681747D01*
X67551777Y-66698223D01*
X67568253Y-66716402D01*
X67582867Y-66736107D01*
X67595480Y-66757151D01*
X67605970Y-66779329D01*
X67614235Y-66802429D01*
X67620196Y-66826227D01*
X67623796Y-66850496D01*
X67625000Y-66875000D01*
X67625000Y-68375000D01*
X67623796Y-68399504D01*
X67620196Y-68423773D01*
X67614235Y-68447571D01*
X67605970Y-68470671D01*
X67595480Y-68492849D01*
X67582867Y-68513893D01*
X67568253Y-68533598D01*
X67551777Y-68551777D01*
X67533598Y-68568253D01*
X67513893Y-68582867D01*
X67492849Y-68595480D01*
X67470671Y-68605970D01*
X67447571Y-68614235D01*
X67423773Y-68620196D01*
X67399504Y-68623796D01*
X67375000Y-68625000D01*
X66175000Y-68625000D01*
X66150496Y-68623796D01*
X66126227Y-68620196D01*
X66102429Y-68614235D01*
X66079329Y-68605970D01*
X66057151Y-68595480D01*
X66036107Y-68582867D01*
X66016402Y-68568253D01*
X65998223Y-68551777D01*
X65981747Y-68533598D01*
X65967133Y-68513893D01*
X65954520Y-68492849D01*
X65944030Y-68470671D01*
X65935765Y-68447571D01*
X65929804Y-68423773D01*
X65926204Y-68399504D01*
X65925000Y-68375000D01*
X65925000Y-66875000D01*
X65926204Y-66850496D01*
X65929804Y-66826227D01*
X65935765Y-66802429D01*
X65944030Y-66779329D01*
X65954520Y-66757151D01*
X65967133Y-66736107D01*
X65981747Y-66716402D01*
X65998223Y-66698223D01*
X66016402Y-66681747D01*
X66036107Y-66667133D01*
X66057151Y-66654520D01*
X66079329Y-66644030D01*
X66102429Y-66635765D01*
X66126227Y-66629804D01*
X66150496Y-66626204D01*
X66175000Y-66625000D01*
X67375000Y-66625000D01*
X67399504Y-66626204D01*
G37*
D29*
X65650000Y-130950000D03*
D37*
X67650000Y-126850000D03*
D27*
G36*
X68424504Y-128501204D02*
G01*
X68448773Y-128504804D01*
X68472571Y-128510765D01*
X68495671Y-128519030D01*
X68517849Y-128529520D01*
X68538893Y-128542133D01*
X68558598Y-128556747D01*
X68576777Y-128573223D01*
X68593253Y-128591402D01*
X68607867Y-128611107D01*
X68620480Y-128632151D01*
X68630970Y-128654329D01*
X68639235Y-128677429D01*
X68645196Y-128701227D01*
X68648796Y-128725496D01*
X68650000Y-128750000D01*
X68650000Y-129950000D01*
X68648796Y-129974504D01*
X68645196Y-129998773D01*
X68639235Y-130022571D01*
X68630970Y-130045671D01*
X68620480Y-130067849D01*
X68607867Y-130088893D01*
X68593253Y-130108598D01*
X68576777Y-130126777D01*
X68558598Y-130143253D01*
X68538893Y-130157867D01*
X68517849Y-130170480D01*
X68495671Y-130180970D01*
X68472571Y-130189235D01*
X68448773Y-130195196D01*
X68424504Y-130198796D01*
X68400000Y-130200000D01*
X66900000Y-130200000D01*
X66875496Y-130198796D01*
X66851227Y-130195196D01*
X66827429Y-130189235D01*
X66804329Y-130180970D01*
X66782151Y-130170480D01*
X66761107Y-130157867D01*
X66741402Y-130143253D01*
X66723223Y-130126777D01*
X66706747Y-130108598D01*
X66692133Y-130088893D01*
X66679520Y-130067849D01*
X66669030Y-130045671D01*
X66660765Y-130022571D01*
X66654804Y-129998773D01*
X66651204Y-129974504D01*
X66650000Y-129950000D01*
X66650000Y-128750000D01*
X66651204Y-128725496D01*
X66654804Y-128701227D01*
X66660765Y-128677429D01*
X66669030Y-128654329D01*
X66679520Y-128632151D01*
X66692133Y-128611107D01*
X66706747Y-128591402D01*
X66723223Y-128573223D01*
X66741402Y-128556747D01*
X66761107Y-128542133D01*
X66782151Y-128529520D01*
X66804329Y-128519030D01*
X66827429Y-128510765D01*
X66851227Y-128504804D01*
X66875496Y-128501204D01*
X66900000Y-128500000D01*
X68400000Y-128500000D01*
X68424504Y-128501204D01*
G37*
G36*
X41724504Y-168726204D02*
G01*
X41748773Y-168729804D01*
X41772571Y-168735765D01*
X41795671Y-168744030D01*
X41817849Y-168754520D01*
X41838893Y-168767133D01*
X41858598Y-168781747D01*
X41876777Y-168798223D01*
X41893253Y-168816402D01*
X41907867Y-168836107D01*
X41920480Y-168857151D01*
X41930970Y-168879329D01*
X41939235Y-168902429D01*
X41945196Y-168926227D01*
X41948796Y-168950496D01*
X41950000Y-168975000D01*
X41950000Y-170475000D01*
X41948796Y-170499504D01*
X41945196Y-170523773D01*
X41939235Y-170547571D01*
X41930970Y-170570671D01*
X41920480Y-170592849D01*
X41907867Y-170613893D01*
X41893253Y-170633598D01*
X41876777Y-170651777D01*
X41858598Y-170668253D01*
X41838893Y-170682867D01*
X41817849Y-170695480D01*
X41795671Y-170705970D01*
X41772571Y-170714235D01*
X41748773Y-170720196D01*
X41724504Y-170723796D01*
X41700000Y-170725000D01*
X40500000Y-170725000D01*
X40475496Y-170723796D01*
X40451227Y-170720196D01*
X40427429Y-170714235D01*
X40404329Y-170705970D01*
X40382151Y-170695480D01*
X40361107Y-170682867D01*
X40341402Y-170668253D01*
X40323223Y-170651777D01*
X40306747Y-170633598D01*
X40292133Y-170613893D01*
X40279520Y-170592849D01*
X40269030Y-170570671D01*
X40260765Y-170547571D01*
X40254804Y-170523773D01*
X40251204Y-170499504D01*
X40250000Y-170475000D01*
X40250000Y-168975000D01*
X40251204Y-168950496D01*
X40254804Y-168926227D01*
X40260765Y-168902429D01*
X40269030Y-168879329D01*
X40279520Y-168857151D01*
X40292133Y-168836107D01*
X40306747Y-168816402D01*
X40323223Y-168798223D01*
X40341402Y-168781747D01*
X40361107Y-168767133D01*
X40382151Y-168754520D01*
X40404329Y-168744030D01*
X40427429Y-168735765D01*
X40451227Y-168729804D01*
X40475496Y-168726204D01*
X40500000Y-168725000D01*
X41700000Y-168725000D01*
X41724504Y-168726204D01*
G37*
D28*
X43600000Y-169725000D03*
D29*
X39500000Y-171725000D03*
D27*
G36*
X44149504Y-119076204D02*
G01*
X44173773Y-119079804D01*
X44197571Y-119085765D01*
X44220671Y-119094030D01*
X44242849Y-119104520D01*
X44263893Y-119117133D01*
X44283598Y-119131747D01*
X44301777Y-119148223D01*
X44318253Y-119166402D01*
X44332867Y-119186107D01*
X44345480Y-119207151D01*
X44355970Y-119229329D01*
X44364235Y-119252429D01*
X44370196Y-119276227D01*
X44373796Y-119300496D01*
X44375000Y-119325000D01*
X44375000Y-120825000D01*
X44373796Y-120849504D01*
X44370196Y-120873773D01*
X44364235Y-120897571D01*
X44355970Y-120920671D01*
X44345480Y-120942849D01*
X44332867Y-120963893D01*
X44318253Y-120983598D01*
X44301777Y-121001777D01*
X44283598Y-121018253D01*
X44263893Y-121032867D01*
X44242849Y-121045480D01*
X44220671Y-121055970D01*
X44197571Y-121064235D01*
X44173773Y-121070196D01*
X44149504Y-121073796D01*
X44125000Y-121075000D01*
X42925000Y-121075000D01*
X42900496Y-121073796D01*
X42876227Y-121070196D01*
X42852429Y-121064235D01*
X42829329Y-121055970D01*
X42807151Y-121045480D01*
X42786107Y-121032867D01*
X42766402Y-121018253D01*
X42748223Y-121001777D01*
X42731747Y-120983598D01*
X42717133Y-120963893D01*
X42704520Y-120942849D01*
X42694030Y-120920671D01*
X42685765Y-120897571D01*
X42679804Y-120873773D01*
X42676204Y-120849504D01*
X42675000Y-120825000D01*
X42675000Y-119325000D01*
X42676204Y-119300496D01*
X42679804Y-119276227D01*
X42685765Y-119252429D01*
X42694030Y-119229329D01*
X42704520Y-119207151D01*
X42717133Y-119186107D01*
X42731747Y-119166402D01*
X42748223Y-119148223D01*
X42766402Y-119131747D01*
X42786107Y-119117133D01*
X42807151Y-119104520D01*
X42829329Y-119094030D01*
X42852429Y-119085765D01*
X42876227Y-119079804D01*
X42900496Y-119076204D01*
X42925000Y-119075000D01*
X44125000Y-119075000D01*
X44149504Y-119076204D01*
G37*
D28*
X41025000Y-120075000D03*
D29*
X45125000Y-122075000D03*
D27*
G36*
X17024504Y-128026204D02*
G01*
X17048773Y-128029804D01*
X17072571Y-128035765D01*
X17095671Y-128044030D01*
X17117849Y-128054520D01*
X17138893Y-128067133D01*
X17158598Y-128081747D01*
X17176777Y-128098223D01*
X17193253Y-128116402D01*
X17207867Y-128136107D01*
X17220480Y-128157151D01*
X17230970Y-128179329D01*
X17239235Y-128202429D01*
X17245196Y-128226227D01*
X17248796Y-128250496D01*
X17250000Y-128275000D01*
X17250000Y-129475000D01*
X17248796Y-129499504D01*
X17245196Y-129523773D01*
X17239235Y-129547571D01*
X17230970Y-129570671D01*
X17220480Y-129592849D01*
X17207867Y-129613893D01*
X17193253Y-129633598D01*
X17176777Y-129651777D01*
X17158598Y-129668253D01*
X17138893Y-129682867D01*
X17117849Y-129695480D01*
X17095671Y-129705970D01*
X17072571Y-129714235D01*
X17048773Y-129720196D01*
X17024504Y-129723796D01*
X17000000Y-129725000D01*
X15500000Y-129725000D01*
X15475496Y-129723796D01*
X15451227Y-129720196D01*
X15427429Y-129714235D01*
X15404329Y-129705970D01*
X15382151Y-129695480D01*
X15361107Y-129682867D01*
X15341402Y-129668253D01*
X15323223Y-129651777D01*
X15306747Y-129633598D01*
X15292133Y-129613893D01*
X15279520Y-129592849D01*
X15269030Y-129570671D01*
X15260765Y-129547571D01*
X15254804Y-129523773D01*
X15251204Y-129499504D01*
X15250000Y-129475000D01*
X15250000Y-128275000D01*
X15251204Y-128250496D01*
X15254804Y-128226227D01*
X15260765Y-128202429D01*
X15269030Y-128179329D01*
X15279520Y-128157151D01*
X15292133Y-128136107D01*
X15306747Y-128116402D01*
X15323223Y-128098223D01*
X15341402Y-128081747D01*
X15361107Y-128067133D01*
X15382151Y-128054520D01*
X15404329Y-128044030D01*
X15427429Y-128035765D01*
X15451227Y-128029804D01*
X15475496Y-128026204D01*
X15500000Y-128025000D01*
X17000000Y-128025000D01*
X17024504Y-128026204D01*
G37*
D37*
X16250000Y-126375000D03*
D29*
X18250000Y-130475000D03*
D38*
G36*
X155173000Y-13173000D02*
G01*
X99527000Y-13173000D01*
X99527000Y-727000D01*
X155173000Y-727000D01*
X155173000Y-13173000D01*
G37*
X155173000Y-13173000D02*
X99527000Y-13173000D01*
X99527000Y-727000D01*
X155173000Y-727000D01*
X155173000Y-13173000D01*
G36*
X170373249Y-51373000D02*
G01*
X155427000Y-51373000D01*
X155427000Y-727000D01*
X170472750Y-727000D01*
X170373249Y-51373000D01*
G37*
X170373249Y-51373000D02*
X155427000Y-51373000D01*
X155427000Y-727000D01*
X170472750Y-727000D01*
X170373249Y-51373000D01*
G36*
X170472020Y-64373000D02*
G01*
X114827000Y-64373000D01*
X114827000Y-51627000D01*
X170373973Y-51627000D01*
X170472020Y-64373000D01*
G37*
X170472020Y-64373000D02*
X114827000Y-64373000D01*
X114827000Y-51627000D01*
X170373973Y-51627000D01*
X170472020Y-64373000D01*
G36*
X114673000Y-64273000D02*
G01*
X99527000Y-64273000D01*
X99527000Y-13327000D01*
X114673000Y-13327000D01*
X114673000Y-64273000D01*
G37*
X114673000Y-64273000D02*
X99527000Y-64273000D01*
X99527000Y-13327000D01*
X114673000Y-13327000D01*
X114673000Y-64273000D01*
G36*
X145073000Y-41873000D02*
G01*
X124927000Y-41873000D01*
X124927000Y-21827000D01*
X145073000Y-21827000D01*
X145073000Y-41873000D01*
G37*
X145073000Y-41873000D02*
X124927000Y-41873000D01*
X124927000Y-21827000D01*
X145073000Y-21827000D01*
X145073000Y-41873000D01*
G36*
X170383249Y-134513000D02*
G01*
X155437000Y-134513000D01*
X155437000Y-83867000D01*
X170482750Y-83867000D01*
X170383249Y-134513000D01*
G37*
X170383249Y-134513000D02*
X155437000Y-134513000D01*
X155437000Y-83867000D01*
X170482750Y-83867000D01*
X170383249Y-134513000D01*
G36*
X145083000Y-125013000D02*
G01*
X124937000Y-125013000D01*
X124937000Y-104967000D01*
X145083000Y-104967000D01*
X145083000Y-125013000D01*
G37*
X145083000Y-125013000D02*
X124937000Y-125013000D01*
X124937000Y-104967000D01*
X145083000Y-104967000D01*
X145083000Y-125013000D01*
G36*
X155183000Y-96313000D02*
G01*
X99537000Y-96313000D01*
X99537000Y-83867000D01*
X155183000Y-83867000D01*
X155183000Y-96313000D01*
G37*
X155183000Y-96313000D02*
X99537000Y-96313000D01*
X99537000Y-83867000D01*
X155183000Y-83867000D01*
X155183000Y-96313000D01*
G36*
X114683000Y-147413000D02*
G01*
X99537000Y-147413000D01*
X99537000Y-96467000D01*
X114683000Y-96467000D01*
X114683000Y-147413000D01*
G37*
X114683000Y-147413000D02*
X99537000Y-147413000D01*
X99537000Y-96467000D01*
X114683000Y-96467000D01*
X114683000Y-147413000D01*
G36*
X170482020Y-147513000D02*
G01*
X114837000Y-147513000D01*
X114837000Y-134767000D01*
X170383973Y-134767000D01*
X170482020Y-147513000D01*
G37*
X170482020Y-147513000D02*
X114837000Y-147513000D01*
X114837000Y-134767000D01*
X170383973Y-134767000D01*
X170482020Y-147513000D01*
M02*
