G04 #@! TF.GenerationSoftware,KiCad,Pcbnew,5.1.5+dfsg1-2build2*
G04 #@! TF.CreationDate,2020-12-11T19:11:24+01:00*
G04 #@! TF.ProjectId,ariadne-v3-backup,61726961-646e-4652-9d76-332d6261636b,rev?*
G04 #@! TF.SameCoordinates,Original*
G04 #@! TF.FileFunction,Legend,Bot*
G04 #@! TF.FilePolarity,Positive*
%FSLAX46Y46*%
G04 Gerber Fmt 4.6, Leading zero omitted, Abs format (unit mm)*
G04 Created by KiCad (PCBNEW 5.1.5+dfsg1-2build2) date 2020-12-11 19:11:24*
%MOMM*%
%LPD*%
G04 APERTURE LIST*
%ADD10C,0.150000*%
%ADD11C,0.120000*%
G04 APERTURE END LIST*
D10*
X170042857Y-170210714D02*
X169614285Y-170353571D01*
X169471428Y-170496428D01*
X169328571Y-170782142D01*
X169328571Y-171210714D01*
X169471428Y-171496428D01*
X169614285Y-171639285D01*
X169900000Y-171782142D01*
X171042857Y-171782142D01*
X171042857Y-168782142D01*
X170042857Y-168782142D01*
X169757142Y-168925000D01*
X169614285Y-169067857D01*
X169471428Y-169353571D01*
X169471428Y-169639285D01*
X169614285Y-169925000D01*
X169757142Y-170067857D01*
X170042857Y-170210714D01*
X171042857Y-170210714D01*
X166900000Y-171639285D02*
X167185714Y-171782142D01*
X167757142Y-171782142D01*
X168042857Y-171639285D01*
X168185714Y-171353571D01*
X168185714Y-170210714D01*
X168042857Y-169925000D01*
X167757142Y-169782142D01*
X167185714Y-169782142D01*
X166900000Y-169925000D01*
X166757142Y-170210714D01*
X166757142Y-170496428D01*
X168185714Y-170782142D01*
X162757142Y-171782142D02*
X163042857Y-171639285D01*
X163185714Y-171353571D01*
X163185714Y-168782142D01*
X161614285Y-171782142D02*
X161614285Y-169782142D01*
X161614285Y-168782142D02*
X161757142Y-168925000D01*
X161614285Y-169067857D01*
X161471428Y-168925000D01*
X161614285Y-168782142D01*
X161614285Y-169067857D01*
X160185714Y-171782142D02*
X160185714Y-168782142D01*
X159900000Y-170639285D02*
X159042857Y-171782142D01*
X159042857Y-169782142D02*
X160185714Y-170925000D01*
X156614285Y-171639285D02*
X156900000Y-171782142D01*
X157471428Y-171782142D01*
X157757142Y-171639285D01*
X157900000Y-171353571D01*
X157900000Y-170210714D01*
X157757142Y-169925000D01*
X157471428Y-169782142D01*
X156900000Y-169782142D01*
X156614285Y-169925000D01*
X156471428Y-170210714D01*
X156471428Y-170496428D01*
X157900000Y-170782142D01*
X153328571Y-169782142D02*
X152185714Y-169782142D01*
X152900000Y-168782142D02*
X152900000Y-171353571D01*
X152757142Y-171639285D01*
X152471428Y-171782142D01*
X152185714Y-171782142D01*
X151185714Y-171782142D02*
X151185714Y-168782142D01*
X149900000Y-171782142D02*
X149900000Y-170210714D01*
X150042857Y-169925000D01*
X150328571Y-169782142D01*
X150757142Y-169782142D01*
X151042857Y-169925000D01*
X151185714Y-170067857D01*
X147328571Y-171639285D02*
X147614285Y-171782142D01*
X148185714Y-171782142D01*
X148471428Y-171639285D01*
X148614285Y-171353571D01*
X148614285Y-170210714D01*
X148471428Y-169925000D01*
X148185714Y-169782142D01*
X147614285Y-169782142D01*
X147328571Y-169925000D01*
X147185714Y-170210714D01*
X147185714Y-170496428D01*
X148614285Y-170782142D01*
X143614285Y-169782142D02*
X143614285Y-172782142D01*
X143614285Y-169925000D02*
X143328571Y-169782142D01*
X142757142Y-169782142D01*
X142471428Y-169925000D01*
X142328571Y-170067857D01*
X142185714Y-170353571D01*
X142185714Y-171210714D01*
X142328571Y-171496428D01*
X142471428Y-171639285D01*
X142757142Y-171782142D01*
X143328571Y-171782142D01*
X143614285Y-171639285D01*
X140900000Y-171782142D02*
X140900000Y-169782142D01*
X140900000Y-170353571D02*
X140757142Y-170067857D01*
X140614285Y-169925000D01*
X140328571Y-169782142D01*
X140042857Y-169782142D01*
X138614285Y-171782142D02*
X138900000Y-171639285D01*
X139042857Y-171496428D01*
X139185714Y-171210714D01*
X139185714Y-170353571D01*
X139042857Y-170067857D01*
X138900000Y-169925000D01*
X138614285Y-169782142D01*
X138185714Y-169782142D01*
X137900000Y-169925000D01*
X137757142Y-170067857D01*
X137614285Y-170353571D01*
X137614285Y-171210714D01*
X137757142Y-171496428D01*
X137900000Y-171639285D01*
X138185714Y-171782142D01*
X138614285Y-171782142D01*
X136328571Y-171782142D02*
X136328571Y-169782142D01*
X136328571Y-170067857D02*
X136185714Y-169925000D01*
X135900000Y-169782142D01*
X135471428Y-169782142D01*
X135185714Y-169925000D01*
X135042857Y-170210714D01*
X135042857Y-171782142D01*
X135042857Y-170210714D02*
X134900000Y-169925000D01*
X134614285Y-169782142D01*
X134185714Y-169782142D01*
X133900000Y-169925000D01*
X133757142Y-170210714D01*
X133757142Y-171782142D01*
X131900000Y-171782142D02*
X132185714Y-171639285D01*
X132328571Y-171496428D01*
X132471428Y-171210714D01*
X132471428Y-170353571D01*
X132328571Y-170067857D01*
X132185714Y-169925000D01*
X131900000Y-169782142D01*
X131471428Y-169782142D01*
X131185714Y-169925000D01*
X131042857Y-170067857D01*
X130900000Y-170353571D01*
X130900000Y-171210714D01*
X131042857Y-171496428D01*
X131185714Y-171639285D01*
X131471428Y-171782142D01*
X131900000Y-171782142D01*
X129614285Y-169782142D02*
X129614285Y-171782142D01*
X129614285Y-170067857D02*
X129471428Y-169925000D01*
X129185714Y-169782142D01*
X128757142Y-169782142D01*
X128471428Y-169925000D01*
X128328571Y-170210714D01*
X128328571Y-171782142D01*
X127328571Y-169782142D02*
X126185714Y-169782142D01*
X126900000Y-168782142D02*
X126900000Y-171353571D01*
X126757142Y-171639285D01*
X126471428Y-171782142D01*
X126185714Y-171782142D01*
X124757142Y-171782142D02*
X125042857Y-171639285D01*
X125185714Y-171496428D01*
X125328571Y-171210714D01*
X125328571Y-170353571D01*
X125185714Y-170067857D01*
X125042857Y-169925000D01*
X124757142Y-169782142D01*
X124328571Y-169782142D01*
X124042857Y-169925000D01*
X123900000Y-170067857D01*
X123757142Y-170353571D01*
X123757142Y-171210714D01*
X123900000Y-171496428D01*
X124042857Y-171639285D01*
X124328571Y-171782142D01*
X124757142Y-171782142D01*
X122471428Y-171782142D02*
X122471428Y-169782142D01*
X122471428Y-170353571D02*
X122328571Y-170067857D01*
X122185714Y-169925000D01*
X121900000Y-169782142D01*
X121614285Y-169782142D01*
X120900000Y-169782142D02*
X120185714Y-171782142D01*
X119471428Y-169782142D02*
X120185714Y-171782142D01*
X120471428Y-172496428D01*
X120614285Y-172639285D01*
X120900000Y-172782142D01*
X114757142Y-171782142D02*
X114757142Y-170210714D01*
X114900000Y-169925000D01*
X115185714Y-169782142D01*
X115757142Y-169782142D01*
X116042857Y-169925000D01*
X114757142Y-171639285D02*
X115042857Y-171782142D01*
X115757142Y-171782142D01*
X116042857Y-171639285D01*
X116185714Y-171353571D01*
X116185714Y-171067857D01*
X116042857Y-170782142D01*
X115757142Y-170639285D01*
X115042857Y-170639285D01*
X114757142Y-170496428D01*
X112042857Y-169782142D02*
X112042857Y-172210714D01*
X112185714Y-172496428D01*
X112328571Y-172639285D01*
X112614285Y-172782142D01*
X113042857Y-172782142D01*
X113328571Y-172639285D01*
X112042857Y-171639285D02*
X112328571Y-171782142D01*
X112900000Y-171782142D01*
X113185714Y-171639285D01*
X113328571Y-171496428D01*
X113471428Y-171210714D01*
X113471428Y-170353571D01*
X113328571Y-170067857D01*
X113185714Y-169925000D01*
X112900000Y-169782142D01*
X112328571Y-169782142D01*
X112042857Y-169925000D01*
X109328571Y-171782142D02*
X109328571Y-170210714D01*
X109471428Y-169925000D01*
X109757142Y-169782142D01*
X110328571Y-169782142D01*
X110614285Y-169925000D01*
X109328571Y-171639285D02*
X109614285Y-171782142D01*
X110328571Y-171782142D01*
X110614285Y-171639285D01*
X110757142Y-171353571D01*
X110757142Y-171067857D01*
X110614285Y-170782142D01*
X110328571Y-170639285D01*
X109614285Y-170639285D01*
X109328571Y-170496428D01*
X107900000Y-171782142D02*
X107900000Y-169782142D01*
X107900000Y-168782142D02*
X108042857Y-168925000D01*
X107900000Y-169067857D01*
X107757142Y-168925000D01*
X107900000Y-168782142D01*
X107900000Y-169067857D01*
X106471428Y-169782142D02*
X106471428Y-171782142D01*
X106471428Y-170067857D02*
X106328571Y-169925000D01*
X106042857Y-169782142D01*
X105614285Y-169782142D01*
X105328571Y-169925000D01*
X105185714Y-170210714D01*
X105185714Y-171782142D01*
X103900000Y-171639285D02*
X103614285Y-171782142D01*
X103042857Y-171782142D01*
X102757142Y-171639285D01*
X102614285Y-171353571D01*
X102614285Y-171210714D01*
X102757142Y-170925000D01*
X103042857Y-170782142D01*
X103471428Y-170782142D01*
X103757142Y-170639285D01*
X103900000Y-170353571D01*
X103900000Y-170210714D01*
X103757142Y-169925000D01*
X103471428Y-169782142D01*
X103042857Y-169782142D01*
X102757142Y-169925000D01*
X101757142Y-169782142D02*
X100614285Y-169782142D01*
X101328571Y-168782142D02*
X101328571Y-171353571D01*
X101185714Y-171639285D01*
X100900000Y-171782142D01*
X100614285Y-171782142D01*
X174614285Y-174432142D02*
X174042857Y-176432142D01*
X173471428Y-175003571D01*
X172900000Y-176432142D01*
X172328571Y-174432142D01*
X171185714Y-176432142D02*
X171185714Y-173432142D01*
X169900000Y-176432142D02*
X169900000Y-174860714D01*
X170042857Y-174575000D01*
X170328571Y-174432142D01*
X170757142Y-174432142D01*
X171042857Y-174575000D01*
X171185714Y-174717857D01*
X168471428Y-176432142D02*
X168471428Y-174432142D01*
X168471428Y-173432142D02*
X168614285Y-173575000D01*
X168471428Y-173717857D01*
X168328571Y-173575000D01*
X168471428Y-173432142D01*
X168471428Y-173717857D01*
X165757142Y-176289285D02*
X166042857Y-176432142D01*
X166614285Y-176432142D01*
X166900000Y-176289285D01*
X167042857Y-176146428D01*
X167185714Y-175860714D01*
X167185714Y-175003571D01*
X167042857Y-174717857D01*
X166900000Y-174575000D01*
X166614285Y-174432142D01*
X166042857Y-174432142D01*
X165757142Y-174575000D01*
X164471428Y-176432142D02*
X164471428Y-173432142D01*
X163185714Y-176432142D02*
X163185714Y-174860714D01*
X163328571Y-174575000D01*
X163614285Y-174432142D01*
X164042857Y-174432142D01*
X164328571Y-174575000D01*
X164471428Y-174717857D01*
X159900000Y-174432142D02*
X158757142Y-174432142D01*
X159471428Y-173432142D02*
X159471428Y-176003571D01*
X159328571Y-176289285D01*
X159042857Y-176432142D01*
X158757142Y-176432142D01*
X157757142Y-176432142D02*
X157757142Y-173432142D01*
X156471428Y-176432142D02*
X156471428Y-174860714D01*
X156614285Y-174575000D01*
X156900000Y-174432142D01*
X157328571Y-174432142D01*
X157614285Y-174575000D01*
X157757142Y-174717857D01*
X153900000Y-176289285D02*
X154185714Y-176432142D01*
X154757142Y-176432142D01*
X155042857Y-176289285D01*
X155185714Y-176003571D01*
X155185714Y-174860714D01*
X155042857Y-174575000D01*
X154757142Y-174432142D01*
X154185714Y-174432142D01*
X153900000Y-174575000D01*
X153757142Y-174860714D01*
X153757142Y-175146428D01*
X155185714Y-175432142D01*
X150471428Y-174432142D02*
X149900000Y-176432142D01*
X149328571Y-175003571D01*
X148757142Y-176432142D01*
X148185714Y-174432142D01*
X145757142Y-176432142D02*
X145757142Y-174860714D01*
X145900000Y-174575000D01*
X146185714Y-174432142D01*
X146757142Y-174432142D01*
X147042857Y-174575000D01*
X145757142Y-176289285D02*
X146042857Y-176432142D01*
X146757142Y-176432142D01*
X147042857Y-176289285D01*
X147185714Y-176003571D01*
X147185714Y-175717857D01*
X147042857Y-175432142D01*
X146757142Y-175289285D01*
X146042857Y-175289285D01*
X145757142Y-175146428D01*
X144614285Y-174432142D02*
X143900000Y-176432142D01*
X143185714Y-174432142D01*
X140900000Y-176289285D02*
X141185714Y-176432142D01*
X141757142Y-176432142D01*
X142042857Y-176289285D01*
X142185714Y-176003571D01*
X142185714Y-174860714D01*
X142042857Y-174575000D01*
X141757142Y-174432142D01*
X141185714Y-174432142D01*
X140900000Y-174575000D01*
X140757142Y-174860714D01*
X140757142Y-175146428D01*
X142185714Y-175432142D01*
X139614285Y-176289285D02*
X139328571Y-176432142D01*
X138757142Y-176432142D01*
X138471428Y-176289285D01*
X138328571Y-176003571D01*
X138328571Y-175860714D01*
X138471428Y-175575000D01*
X138757142Y-175432142D01*
X139185714Y-175432142D01*
X139471428Y-175289285D01*
X139614285Y-175003571D01*
X139614285Y-174860714D01*
X139471428Y-174575000D01*
X139185714Y-174432142D01*
X138757142Y-174432142D01*
X138471428Y-174575000D01*
X133471428Y-176289285D02*
X133757142Y-176432142D01*
X134328571Y-176432142D01*
X134614285Y-176289285D01*
X134757142Y-176146428D01*
X134900000Y-175860714D01*
X134900000Y-175003571D01*
X134757142Y-174717857D01*
X134614285Y-174575000D01*
X134328571Y-174432142D01*
X133757142Y-174432142D01*
X133471428Y-174575000D01*
X131757142Y-176432142D02*
X132042857Y-176289285D01*
X132185714Y-176146428D01*
X132328571Y-175860714D01*
X132328571Y-175003571D01*
X132185714Y-174717857D01*
X132042857Y-174575000D01*
X131757142Y-174432142D01*
X131328571Y-174432142D01*
X131042857Y-174575000D01*
X130900000Y-174717857D01*
X130757142Y-175003571D01*
X130757142Y-175860714D01*
X130900000Y-176146428D01*
X131042857Y-176289285D01*
X131328571Y-176432142D01*
X131757142Y-176432142D01*
X129471428Y-174432142D02*
X129471428Y-176432142D01*
X129471428Y-174717857D02*
X129328571Y-174575000D01*
X129042857Y-174432142D01*
X128614285Y-174432142D01*
X128328571Y-174575000D01*
X128185714Y-174860714D01*
X128185714Y-176432142D01*
X127185714Y-174432142D02*
X126042857Y-174432142D01*
X126757142Y-173432142D02*
X126757142Y-176003571D01*
X126614285Y-176289285D01*
X126328571Y-176432142D01*
X126042857Y-176432142D01*
X125042857Y-176432142D02*
X125042857Y-174432142D01*
X125042857Y-173432142D02*
X125185714Y-173575000D01*
X125042857Y-173717857D01*
X124900000Y-173575000D01*
X125042857Y-173432142D01*
X125042857Y-173717857D01*
X123614285Y-174432142D02*
X123614285Y-176432142D01*
X123614285Y-174717857D02*
X123471428Y-174575000D01*
X123185714Y-174432142D01*
X122757142Y-174432142D01*
X122471428Y-174575000D01*
X122328571Y-174860714D01*
X122328571Y-176432142D01*
X119614285Y-174432142D02*
X119614285Y-176432142D01*
X120900000Y-174432142D02*
X120900000Y-176003571D01*
X120757142Y-176289285D01*
X120471428Y-176432142D01*
X120042857Y-176432142D01*
X119757142Y-176289285D01*
X119614285Y-176146428D01*
X116900000Y-176432142D02*
X116900000Y-174860714D01*
X117042857Y-174575000D01*
X117328571Y-174432142D01*
X117900000Y-174432142D01*
X118185714Y-174575000D01*
X116900000Y-176289285D02*
X117185714Y-176432142D01*
X117900000Y-176432142D01*
X118185714Y-176289285D01*
X118328571Y-176003571D01*
X118328571Y-175717857D01*
X118185714Y-175432142D01*
X117900000Y-175289285D01*
X117185714Y-175289285D01*
X116900000Y-175146428D01*
X115042857Y-176432142D02*
X115328571Y-176289285D01*
X115471428Y-176003571D01*
X115471428Y-173432142D01*
X113471428Y-176432142D02*
X113757142Y-176289285D01*
X113900000Y-176003571D01*
X113900000Y-173432142D01*
X112614285Y-174432142D02*
X111900000Y-176432142D01*
X111185714Y-174432142D02*
X111900000Y-176432142D01*
X112185714Y-177146428D01*
X112328571Y-177289285D01*
X112614285Y-177432142D01*
X107757142Y-176432142D02*
X107757142Y-173432142D01*
X107757142Y-174575000D02*
X107471428Y-174432142D01*
X106900000Y-174432142D01*
X106614285Y-174575000D01*
X106471428Y-174717857D01*
X106328571Y-175003571D01*
X106328571Y-175860714D01*
X106471428Y-176146428D01*
X106614285Y-176289285D01*
X106900000Y-176432142D01*
X107471428Y-176432142D01*
X107757142Y-176289285D01*
X105042857Y-176432142D02*
X105042857Y-174432142D01*
X105042857Y-175003571D02*
X104900000Y-174717857D01*
X104757142Y-174575000D01*
X104471428Y-174432142D01*
X104185714Y-174432142D01*
X102042857Y-176289285D02*
X102328571Y-176432142D01*
X102900000Y-176432142D01*
X103185714Y-176289285D01*
X103328571Y-176003571D01*
X103328571Y-174860714D01*
X103185714Y-174575000D01*
X102900000Y-174432142D01*
X102328571Y-174432142D01*
X102042857Y-174575000D01*
X101900000Y-174860714D01*
X101900000Y-175146428D01*
X103328571Y-175432142D01*
X99328571Y-176432142D02*
X99328571Y-174860714D01*
X99471428Y-174575000D01*
X99757142Y-174432142D01*
X100328571Y-174432142D01*
X100614285Y-174575000D01*
X99328571Y-176289285D02*
X99614285Y-176432142D01*
X100328571Y-176432142D01*
X100614285Y-176289285D01*
X100757142Y-176003571D01*
X100757142Y-175717857D01*
X100614285Y-175432142D01*
X100328571Y-175289285D01*
X99614285Y-175289285D01*
X99328571Y-175146428D01*
X97900000Y-176432142D02*
X97900000Y-173432142D01*
X97614285Y-175289285D02*
X96757142Y-176432142D01*
X96757142Y-174432142D02*
X97900000Y-175575000D01*
X95328571Y-176289285D02*
X95328571Y-176432142D01*
X95471428Y-176717857D01*
X95614285Y-176860714D01*
X173471428Y-181082142D02*
X173471428Y-178082142D01*
X173471428Y-179225000D02*
X173185714Y-179082142D01*
X172614285Y-179082142D01*
X172328571Y-179225000D01*
X172185714Y-179367857D01*
X172042857Y-179653571D01*
X172042857Y-180510714D01*
X172185714Y-180796428D01*
X172328571Y-180939285D01*
X172614285Y-181082142D01*
X173185714Y-181082142D01*
X173471428Y-180939285D01*
X169471428Y-179082142D02*
X169471428Y-181082142D01*
X170757142Y-179082142D02*
X170757142Y-180653571D01*
X170614285Y-180939285D01*
X170328571Y-181082142D01*
X169900000Y-181082142D01*
X169614285Y-180939285D01*
X169471428Y-180796428D01*
X168471428Y-179082142D02*
X167328571Y-179082142D01*
X168042857Y-178082142D02*
X168042857Y-180653571D01*
X167900000Y-180939285D01*
X167614285Y-181082142D01*
X167328571Y-181082142D01*
X164042857Y-181082142D02*
X164042857Y-179082142D01*
X164042857Y-178082142D02*
X164185714Y-178225000D01*
X164042857Y-178367857D01*
X163900000Y-178225000D01*
X164042857Y-178082142D01*
X164042857Y-178367857D01*
X163042857Y-179082142D02*
X161900000Y-179082142D01*
X162614285Y-178082142D02*
X162614285Y-180653571D01*
X162471428Y-180939285D01*
X162185714Y-181082142D01*
X161900000Y-181082142D01*
X158757142Y-180939285D02*
X158471428Y-181082142D01*
X157900000Y-181082142D01*
X157614285Y-180939285D01*
X157471428Y-180653571D01*
X157471428Y-180510714D01*
X157614285Y-180225000D01*
X157900000Y-180082142D01*
X158328571Y-180082142D01*
X158614285Y-179939285D01*
X158757142Y-179653571D01*
X158757142Y-179510714D01*
X158614285Y-179225000D01*
X158328571Y-179082142D01*
X157900000Y-179082142D01*
X157614285Y-179225000D01*
X156614285Y-179082142D02*
X155471428Y-179082142D01*
X156185714Y-178082142D02*
X156185714Y-180653571D01*
X156042857Y-180939285D01*
X155757142Y-181082142D01*
X155471428Y-181082142D01*
X153185714Y-181082142D02*
X153185714Y-179510714D01*
X153328571Y-179225000D01*
X153614285Y-179082142D01*
X154185714Y-179082142D01*
X154471428Y-179225000D01*
X153185714Y-180939285D02*
X153471428Y-181082142D01*
X154185714Y-181082142D01*
X154471428Y-180939285D01*
X154614285Y-180653571D01*
X154614285Y-180367857D01*
X154471428Y-180082142D01*
X154185714Y-179939285D01*
X153471428Y-179939285D01*
X153185714Y-179796428D01*
X151757142Y-179082142D02*
X151757142Y-181082142D01*
X151757142Y-179367857D02*
X151614285Y-179225000D01*
X151328571Y-179082142D01*
X150900000Y-179082142D01*
X150614285Y-179225000D01*
X150471428Y-179510714D01*
X150471428Y-181082142D01*
X147757142Y-181082142D02*
X147757142Y-178082142D01*
X147757142Y-180939285D02*
X148042857Y-181082142D01*
X148614285Y-181082142D01*
X148900000Y-180939285D01*
X149042857Y-180796428D01*
X149185714Y-180510714D01*
X149185714Y-179653571D01*
X149042857Y-179367857D01*
X148900000Y-179225000D01*
X148614285Y-179082142D01*
X148042857Y-179082142D01*
X147757142Y-179225000D01*
X146471428Y-180939285D02*
X146185714Y-181082142D01*
X145614285Y-181082142D01*
X145328571Y-180939285D01*
X145185714Y-180653571D01*
X145185714Y-180510714D01*
X145328571Y-180225000D01*
X145614285Y-180082142D01*
X146042857Y-180082142D01*
X146328571Y-179939285D01*
X146471428Y-179653571D01*
X146471428Y-179510714D01*
X146328571Y-179225000D01*
X146042857Y-179082142D01*
X145614285Y-179082142D01*
X145328571Y-179225000D01*
X142042857Y-179082142D02*
X140900000Y-179082142D01*
X141614285Y-181082142D02*
X141614285Y-178510714D01*
X141471428Y-178225000D01*
X141185714Y-178082142D01*
X140900000Y-178082142D01*
X139900000Y-181082142D02*
X139900000Y-179082142D01*
X139900000Y-178082142D02*
X140042857Y-178225000D01*
X139900000Y-178367857D01*
X139757142Y-178225000D01*
X139900000Y-178082142D01*
X139900000Y-178367857D01*
X138471428Y-181082142D02*
X138471428Y-179082142D01*
X138471428Y-179653571D02*
X138328571Y-179367857D01*
X138185714Y-179225000D01*
X137900000Y-179082142D01*
X137614285Y-179082142D01*
X136614285Y-181082142D02*
X136614285Y-179082142D01*
X136614285Y-179367857D02*
X136471428Y-179225000D01*
X136185714Y-179082142D01*
X135757142Y-179082142D01*
X135471428Y-179225000D01*
X135328571Y-179510714D01*
X135328571Y-181082142D01*
X135328571Y-179510714D02*
X135185714Y-179225000D01*
X134900000Y-179082142D01*
X134471428Y-179082142D01*
X134185714Y-179225000D01*
X134042857Y-179510714D01*
X134042857Y-181082142D01*
X129042857Y-181082142D02*
X129042857Y-179510714D01*
X129185714Y-179225000D01*
X129471428Y-179082142D01*
X130042857Y-179082142D01*
X130328571Y-179225000D01*
X129042857Y-180939285D02*
X129328571Y-181082142D01*
X130042857Y-181082142D01*
X130328571Y-180939285D01*
X130471428Y-180653571D01*
X130471428Y-180367857D01*
X130328571Y-180082142D01*
X130042857Y-179939285D01*
X129328571Y-179939285D01*
X129042857Y-179796428D01*
X127614285Y-179082142D02*
X127614285Y-181082142D01*
X127614285Y-179367857D02*
X127471428Y-179225000D01*
X127185714Y-179082142D01*
X126757142Y-179082142D01*
X126471428Y-179225000D01*
X126328571Y-179510714D01*
X126328571Y-181082142D01*
X123614285Y-181082142D02*
X123614285Y-178082142D01*
X123614285Y-180939285D02*
X123900000Y-181082142D01*
X124471428Y-181082142D01*
X124757142Y-180939285D01*
X124900000Y-180796428D01*
X125042857Y-180510714D01*
X125042857Y-179653571D01*
X124900000Y-179367857D01*
X124757142Y-179225000D01*
X124471428Y-179082142D01*
X123900000Y-179082142D01*
X123614285Y-179225000D01*
X120328571Y-179082142D02*
X119185714Y-179082142D01*
X119900000Y-178082142D02*
X119900000Y-180653571D01*
X119757142Y-180939285D01*
X119471428Y-181082142D01*
X119185714Y-181082142D01*
X116900000Y-181082142D02*
X116900000Y-179510714D01*
X117042857Y-179225000D01*
X117328571Y-179082142D01*
X117900000Y-179082142D01*
X118185714Y-179225000D01*
X116900000Y-180939285D02*
X117185714Y-181082142D01*
X117900000Y-181082142D01*
X118185714Y-180939285D01*
X118328571Y-180653571D01*
X118328571Y-180367857D01*
X118185714Y-180082142D01*
X117900000Y-179939285D01*
X117185714Y-179939285D01*
X116900000Y-179796428D01*
X115471428Y-181082142D02*
X115471428Y-179082142D01*
X115471428Y-179367857D02*
X115328571Y-179225000D01*
X115042857Y-179082142D01*
X114614285Y-179082142D01*
X114328571Y-179225000D01*
X114185714Y-179510714D01*
X114185714Y-181082142D01*
X114185714Y-179510714D02*
X114042857Y-179225000D01*
X113757142Y-179082142D01*
X113328571Y-179082142D01*
X113042857Y-179225000D01*
X112900000Y-179510714D01*
X112900000Y-181082142D01*
X110328571Y-180939285D02*
X110614285Y-181082142D01*
X111185714Y-181082142D01*
X111471428Y-180939285D01*
X111614285Y-180653571D01*
X111614285Y-179510714D01*
X111471428Y-179225000D01*
X111185714Y-179082142D01*
X110614285Y-179082142D01*
X110328571Y-179225000D01*
X110185714Y-179510714D01*
X110185714Y-179796428D01*
X111614285Y-180082142D01*
X109042857Y-180939285D02*
X108757142Y-181082142D01*
X108185714Y-181082142D01*
X107900000Y-180939285D01*
X107757142Y-180653571D01*
X107757142Y-180510714D01*
X107900000Y-180225000D01*
X108185714Y-180082142D01*
X108614285Y-180082142D01*
X108900000Y-179939285D01*
X109042857Y-179653571D01*
X109042857Y-179510714D01*
X108900000Y-179225000D01*
X108614285Y-179082142D01*
X108185714Y-179082142D01*
X107900000Y-179225000D01*
X104614285Y-179082142D02*
X103471428Y-179082142D01*
X104185714Y-178082142D02*
X104185714Y-180653571D01*
X104042857Y-180939285D01*
X103757142Y-181082142D01*
X103471428Y-181082142D01*
X102471428Y-181082142D02*
X102471428Y-178082142D01*
X101185714Y-181082142D02*
X101185714Y-179510714D01*
X101328571Y-179225000D01*
X101614285Y-179082142D01*
X102042857Y-179082142D01*
X102328571Y-179225000D01*
X102471428Y-179367857D01*
X98614285Y-180939285D02*
X98900000Y-181082142D01*
X99471428Y-181082142D01*
X99757142Y-180939285D01*
X99900000Y-180653571D01*
X99900000Y-179510714D01*
X99757142Y-179225000D01*
X99471428Y-179082142D01*
X98900000Y-179082142D01*
X98614285Y-179225000D01*
X98471428Y-179510714D01*
X98471428Y-179796428D01*
X99900000Y-180082142D01*
X166328571Y-183732142D02*
X165185714Y-183732142D01*
X165900000Y-185732142D02*
X165900000Y-183160714D01*
X165757142Y-182875000D01*
X165471428Y-182732142D01*
X165185714Y-182732142D01*
X162900000Y-183732142D02*
X162900000Y-185732142D01*
X164185714Y-183732142D02*
X164185714Y-185303571D01*
X164042857Y-185589285D01*
X163757142Y-185732142D01*
X163328571Y-185732142D01*
X163042857Y-185589285D01*
X162900000Y-185446428D01*
X161471428Y-185732142D02*
X161471428Y-183732142D01*
X161471428Y-184303571D02*
X161328571Y-184017857D01*
X161185714Y-183875000D01*
X160900000Y-183732142D01*
X160614285Y-183732142D01*
X159900000Y-183732142D02*
X159185714Y-185732142D01*
X158471428Y-183732142D02*
X159185714Y-185732142D01*
X159471428Y-186446428D01*
X159614285Y-186589285D01*
X159900000Y-186732142D01*
X154614285Y-185732142D02*
X154900000Y-185589285D01*
X155042857Y-185446428D01*
X155185714Y-185160714D01*
X155185714Y-184303571D01*
X155042857Y-184017857D01*
X154900000Y-183875000D01*
X154614285Y-183732142D01*
X154185714Y-183732142D01*
X153900000Y-183875000D01*
X153757142Y-184017857D01*
X153614285Y-184303571D01*
X153614285Y-185160714D01*
X153757142Y-185446428D01*
X153900000Y-185589285D01*
X154185714Y-185732142D01*
X154614285Y-185732142D01*
X152757142Y-183732142D02*
X151614285Y-183732142D01*
X152328571Y-185732142D02*
X152328571Y-183160714D01*
X152185714Y-182875000D01*
X151900000Y-182732142D01*
X151614285Y-182732142D01*
X148757142Y-183732142D02*
X147614285Y-183732142D01*
X148328571Y-182732142D02*
X148328571Y-185303571D01*
X148185714Y-185589285D01*
X147900000Y-185732142D01*
X147614285Y-185732142D01*
X146614285Y-185732142D02*
X146614285Y-182732142D01*
X145328571Y-185732142D02*
X145328571Y-184160714D01*
X145471428Y-183875000D01*
X145757142Y-183732142D01*
X146185714Y-183732142D01*
X146471428Y-183875000D01*
X146614285Y-184017857D01*
X142757142Y-185589285D02*
X143042857Y-185732142D01*
X143614285Y-185732142D01*
X143900000Y-185589285D01*
X144042857Y-185303571D01*
X144042857Y-184160714D01*
X143900000Y-183875000D01*
X143614285Y-183732142D01*
X143042857Y-183732142D01*
X142757142Y-183875000D01*
X142614285Y-184160714D01*
X142614285Y-184446428D01*
X144042857Y-184732142D01*
X139328571Y-183732142D02*
X138757142Y-185732142D01*
X138185714Y-184303571D01*
X137614285Y-185732142D01*
X137042857Y-183732142D01*
X134614285Y-185732142D02*
X134614285Y-184160714D01*
X134757142Y-183875000D01*
X135042857Y-183732142D01*
X135614285Y-183732142D01*
X135900000Y-183875000D01*
X134614285Y-185589285D02*
X134900000Y-185732142D01*
X135614285Y-185732142D01*
X135900000Y-185589285D01*
X136042857Y-185303571D01*
X136042857Y-185017857D01*
X135900000Y-184732142D01*
X135614285Y-184589285D01*
X134900000Y-184589285D01*
X134614285Y-184446428D01*
X133614285Y-183732142D02*
X132471428Y-183732142D01*
X133185714Y-182732142D02*
X133185714Y-185303571D01*
X133042857Y-185589285D01*
X132757142Y-185732142D01*
X132471428Y-185732142D01*
X130328571Y-185589285D02*
X130614285Y-185732142D01*
X131185714Y-185732142D01*
X131471428Y-185589285D01*
X131614285Y-185303571D01*
X131614285Y-184160714D01*
X131471428Y-183875000D01*
X131185714Y-183732142D01*
X130614285Y-183732142D01*
X130328571Y-183875000D01*
X130185714Y-184160714D01*
X130185714Y-184446428D01*
X131614285Y-184732142D01*
X128900000Y-185732142D02*
X128900000Y-183732142D01*
X128900000Y-184303571D02*
X128757142Y-184017857D01*
X128614285Y-183875000D01*
X128328571Y-183732142D01*
X128042857Y-183732142D01*
X123471428Y-185732142D02*
X123471428Y-184160714D01*
X123614285Y-183875000D01*
X123899999Y-183732142D01*
X124471428Y-183732142D01*
X124757142Y-183875000D01*
X123471428Y-185589285D02*
X123757142Y-185732142D01*
X124471428Y-185732142D01*
X124757142Y-185589285D01*
X124899999Y-185303571D01*
X124899999Y-185017857D01*
X124757142Y-184732142D01*
X124471428Y-184589285D01*
X123757142Y-184589285D01*
X123471428Y-184446428D01*
X122042857Y-185732142D02*
X122042857Y-183732142D01*
X122042857Y-184303571D02*
X121899999Y-184017857D01*
X121757142Y-183875000D01*
X121471428Y-183732142D01*
X121185714Y-183732142D01*
X119757142Y-185732142D02*
X120042857Y-185589285D01*
X120185714Y-185446428D01*
X120328571Y-185160714D01*
X120328571Y-184303571D01*
X120185714Y-184017857D01*
X120042857Y-183875000D01*
X119757142Y-183732142D01*
X119328571Y-183732142D01*
X119042857Y-183875000D01*
X118899999Y-184017857D01*
X118757142Y-184303571D01*
X118757142Y-185160714D01*
X118899999Y-185446428D01*
X119042857Y-185589285D01*
X119328571Y-185732142D01*
X119757142Y-185732142D01*
X116185714Y-183732142D02*
X116185714Y-185732142D01*
X117471428Y-183732142D02*
X117471428Y-185303571D01*
X117328571Y-185589285D01*
X117042857Y-185732142D01*
X116614285Y-185732142D01*
X116328571Y-185589285D01*
X116185714Y-185446428D01*
X114757142Y-183732142D02*
X114757142Y-185732142D01*
X114757142Y-184017857D02*
X114614285Y-183875000D01*
X114328571Y-183732142D01*
X113899999Y-183732142D01*
X113614285Y-183875000D01*
X113471428Y-184160714D01*
X113471428Y-185732142D01*
X110757142Y-185732142D02*
X110757142Y-182732142D01*
X110757142Y-185589285D02*
X111042857Y-185732142D01*
X111614285Y-185732142D01*
X111899999Y-185589285D01*
X112042857Y-185446428D01*
X112185714Y-185160714D01*
X112185714Y-184303571D01*
X112042857Y-184017857D01*
X111899999Y-183875000D01*
X111614285Y-183732142D01*
X111042857Y-183732142D01*
X110757142Y-183875000D01*
X107042857Y-185732142D02*
X107042857Y-183732142D01*
X107042857Y-182732142D02*
X107185714Y-182875000D01*
X107042857Y-183017857D01*
X106899999Y-182875000D01*
X107042857Y-182732142D01*
X107042857Y-183017857D01*
X106042857Y-183732142D02*
X104899999Y-183732142D01*
X105614285Y-182732142D02*
X105614285Y-185303571D01*
X105471428Y-185589285D01*
X105185714Y-185732142D01*
X104899999Y-185732142D01*
X103899999Y-185446428D02*
X103757142Y-185589285D01*
X103899999Y-185732142D01*
X104042857Y-185589285D01*
X103899999Y-185446428D01*
X103899999Y-185732142D01*
D11*
X55505000Y-55155000D02*
X55505000Y-53825000D01*
X54175000Y-55155000D02*
X55505000Y-55155000D01*
X52905000Y-55155000D02*
X52905000Y-52495000D01*
X52905000Y-52495000D02*
X42685000Y-52495000D01*
X52905000Y-55155000D02*
X42685000Y-55155000D01*
X42685000Y-55155000D02*
X42685000Y-52495000D01*
X49040000Y-136485000D02*
X49040000Y-130515000D01*
X49040000Y-130515000D02*
X56660000Y-130515000D01*
X56660000Y-130515000D02*
X56660000Y-136485000D01*
X56660000Y-136485000D02*
X49040000Y-136485000D01*
X52350000Y-136475000D02*
X52350000Y-135725000D01*
X52350000Y-135725000D02*
X53350000Y-135725000D01*
X53350000Y-135725000D02*
X53350000Y-136475000D01*
X53350000Y-136475000D02*
X52350000Y-136475000D01*
X49050000Y-136475000D02*
X49050000Y-135725000D01*
X49050000Y-135725000D02*
X50850000Y-135725000D01*
X50850000Y-135725000D02*
X50850000Y-136475000D01*
X50850000Y-136475000D02*
X49050000Y-136475000D01*
X54850000Y-136475000D02*
X54850000Y-135725000D01*
X54850000Y-135725000D02*
X56650000Y-135725000D01*
X56650000Y-135725000D02*
X56650000Y-136475000D01*
X56650000Y-136475000D02*
X54850000Y-136475000D01*
X49050000Y-134225000D02*
X49800000Y-134225000D01*
X49800000Y-134225000D02*
X49800000Y-132885000D01*
X52850000Y-131275000D02*
X50860000Y-131275000D01*
X56650000Y-134225000D02*
X55900000Y-134225000D01*
X55900000Y-134225000D02*
X55900000Y-131275000D01*
X55900000Y-131275000D02*
X52850000Y-131275000D01*
X50000000Y-136775000D02*
X48750000Y-136775000D01*
X48750000Y-136775000D02*
X48750000Y-135525000D01*
X30990000Y-19835000D02*
X30990000Y-13865000D01*
X30990000Y-13865000D02*
X38610000Y-13865000D01*
X38610000Y-13865000D02*
X38610000Y-19835000D01*
X38610000Y-19835000D02*
X30990000Y-19835000D01*
X34300000Y-19825000D02*
X34300000Y-19075000D01*
X34300000Y-19075000D02*
X35300000Y-19075000D01*
X35300000Y-19075000D02*
X35300000Y-19825000D01*
X35300000Y-19825000D02*
X34300000Y-19825000D01*
X31000000Y-19825000D02*
X31000000Y-19075000D01*
X31000000Y-19075000D02*
X32800000Y-19075000D01*
X32800000Y-19075000D02*
X32800000Y-19825000D01*
X32800000Y-19825000D02*
X31000000Y-19825000D01*
X36800000Y-19825000D02*
X36800000Y-19075000D01*
X36800000Y-19075000D02*
X38600000Y-19075000D01*
X38600000Y-19075000D02*
X38600000Y-19825000D01*
X38600000Y-19825000D02*
X36800000Y-19825000D01*
X31000000Y-17575000D02*
X31750000Y-17575000D01*
X31750000Y-17575000D02*
X31750000Y-16235000D01*
X34800000Y-14625000D02*
X32810000Y-14625000D01*
X38600000Y-17575000D02*
X37850000Y-17575000D01*
X37850000Y-17575000D02*
X37850000Y-14625000D01*
X37850000Y-14625000D02*
X34800000Y-14625000D01*
X31950000Y-20125000D02*
X30700000Y-20125000D01*
X30700000Y-20125000D02*
X30700000Y-18875000D01*
X23500000Y-20350000D02*
X43800000Y-20350000D01*
X43810000Y-20350000D02*
X43810000Y-52150000D01*
X23500000Y-52150000D02*
X43800000Y-52150000D01*
X23500000Y-20350000D02*
X23500000Y-52150000D01*
X42525000Y-133000000D02*
X42525000Y-164800000D01*
X42525000Y-164800000D02*
X62825000Y-164800000D01*
X62835000Y-133000000D02*
X62835000Y-164800000D01*
X42525000Y-133000000D02*
X62825000Y-133000000D01*
X53125000Y-20075000D02*
X53125000Y-18825000D01*
X54375000Y-20075000D02*
X53125000Y-20075000D01*
X60275000Y-14575000D02*
X57225000Y-14575000D01*
X60275000Y-17525000D02*
X60275000Y-14575000D01*
X61025000Y-17525000D02*
X60275000Y-17525000D01*
X57225000Y-14575000D02*
X55235000Y-14575000D01*
X54175000Y-17525000D02*
X54175000Y-16185000D01*
X53425000Y-17525000D02*
X54175000Y-17525000D01*
X61025000Y-19775000D02*
X59225000Y-19775000D01*
X61025000Y-19025000D02*
X61025000Y-19775000D01*
X59225000Y-19025000D02*
X61025000Y-19025000D01*
X59225000Y-19775000D02*
X59225000Y-19025000D01*
X55225000Y-19775000D02*
X53425000Y-19775000D01*
X55225000Y-19025000D02*
X55225000Y-19775000D01*
X53425000Y-19025000D02*
X55225000Y-19025000D01*
X53425000Y-19775000D02*
X53425000Y-19025000D01*
X57725000Y-19775000D02*
X56725000Y-19775000D01*
X57725000Y-19025000D02*
X57725000Y-19775000D01*
X56725000Y-19025000D02*
X57725000Y-19025000D01*
X56725000Y-19775000D02*
X56725000Y-19025000D01*
X61035000Y-19785000D02*
X53415000Y-19785000D01*
X61035000Y-13815000D02*
X61035000Y-19785000D01*
X53415000Y-13815000D02*
X61035000Y-13815000D01*
X53415000Y-19785000D02*
X53415000Y-13815000D01*
X45325000Y-20350000D02*
X65625000Y-20350000D01*
X65635000Y-20350000D02*
X65635000Y-52150000D01*
X45325000Y-52150000D02*
X65625000Y-52150000D01*
X45325000Y-20350000D02*
X45325000Y-52150000D01*
X28390000Y-136360000D02*
X28390000Y-130390000D01*
X28390000Y-130390000D02*
X36010000Y-130390000D01*
X36010000Y-130390000D02*
X36010000Y-136360000D01*
X36010000Y-136360000D02*
X28390000Y-136360000D01*
X31700000Y-136350000D02*
X31700000Y-135600000D01*
X31700000Y-135600000D02*
X32700000Y-135600000D01*
X32700000Y-135600000D02*
X32700000Y-136350000D01*
X32700000Y-136350000D02*
X31700000Y-136350000D01*
X28400000Y-136350000D02*
X28400000Y-135600000D01*
X28400000Y-135600000D02*
X30200000Y-135600000D01*
X30200000Y-135600000D02*
X30200000Y-136350000D01*
X30200000Y-136350000D02*
X28400000Y-136350000D01*
X34200000Y-136350000D02*
X34200000Y-135600000D01*
X34200000Y-135600000D02*
X36000000Y-135600000D01*
X36000000Y-135600000D02*
X36000000Y-136350000D01*
X36000000Y-136350000D02*
X34200000Y-136350000D01*
X28400000Y-134100000D02*
X29150000Y-134100000D01*
X29150000Y-134100000D02*
X29150000Y-132760000D01*
X32200000Y-131150000D02*
X30210000Y-131150000D01*
X36000000Y-134100000D02*
X35250000Y-134100000D01*
X35250000Y-134100000D02*
X35250000Y-131150000D01*
X35250000Y-131150000D02*
X32200000Y-131150000D01*
X29350000Y-136650000D02*
X28100000Y-136650000D01*
X28100000Y-136650000D02*
X28100000Y-135400000D01*
X21775000Y-133000000D02*
X21775000Y-164800000D01*
X21775000Y-164800000D02*
X42075000Y-164800000D01*
X42085000Y-133000000D02*
X42085000Y-164800000D01*
X21775000Y-133000000D02*
X42075000Y-133000000D01*
X46240000Y-167565000D02*
X46240000Y-164490000D01*
X46240000Y-164490000D02*
X59110000Y-164490000D01*
X59110000Y-164490000D02*
X59110000Y-167565000D01*
X47680000Y-169080000D02*
X47660000Y-169080000D01*
X47660000Y-169080000D02*
X47660000Y-168580000D01*
X47660000Y-168580000D02*
X57690000Y-168580000D01*
X57690000Y-168580000D02*
X57690000Y-169080000D01*
X57690000Y-169080000D02*
X57670000Y-169080000D01*
X40835000Y-17745000D02*
X40855000Y-17745000D01*
X40835000Y-18245000D02*
X40835000Y-17745000D01*
X50865000Y-18245000D02*
X40835000Y-18245000D01*
X50865000Y-17745000D02*
X50865000Y-18245000D01*
X50845000Y-17745000D02*
X50865000Y-17745000D01*
X39415000Y-22335000D02*
X39415000Y-19260000D01*
X52285000Y-22335000D02*
X39415000Y-22335000D01*
X52285000Y-19260000D02*
X52285000Y-22335000D01*
X36890000Y-169080000D02*
X36870000Y-169080000D01*
X36890000Y-168580000D02*
X36890000Y-169080000D01*
X26860000Y-168580000D02*
X36890000Y-168580000D01*
X26860000Y-169080000D02*
X26860000Y-168580000D01*
X26880000Y-169080000D02*
X26860000Y-169080000D01*
X38310000Y-164490000D02*
X38310000Y-167565000D01*
X25440000Y-164490000D02*
X38310000Y-164490000D01*
X25440000Y-167565000D02*
X25440000Y-164490000D01*
X70185000Y-163685000D02*
X64215000Y-163685000D01*
X64215000Y-163685000D02*
X64215000Y-156065000D01*
X64215000Y-156065000D02*
X70185000Y-156065000D01*
X70185000Y-156065000D02*
X70185000Y-163685000D01*
X70175000Y-160375000D02*
X69425000Y-160375000D01*
X69425000Y-160375000D02*
X69425000Y-159375000D01*
X69425000Y-159375000D02*
X70175000Y-159375000D01*
X70175000Y-159375000D02*
X70175000Y-160375000D01*
X70175000Y-163675000D02*
X69425000Y-163675000D01*
X69425000Y-163675000D02*
X69425000Y-161875000D01*
X69425000Y-161875000D02*
X70175000Y-161875000D01*
X70175000Y-161875000D02*
X70175000Y-163675000D01*
X70175000Y-157875000D02*
X69425000Y-157875000D01*
X69425000Y-157875000D02*
X69425000Y-156075000D01*
X69425000Y-156075000D02*
X70175000Y-156075000D01*
X70175000Y-156075000D02*
X70175000Y-157875000D01*
X67925000Y-163675000D02*
X67925000Y-162925000D01*
X67925000Y-162925000D02*
X66585000Y-162925000D01*
X64975000Y-159875000D02*
X64975000Y-161865000D01*
X67925000Y-156075000D02*
X67925000Y-156825000D01*
X67925000Y-156825000D02*
X64975000Y-156825000D01*
X64975000Y-156825000D02*
X64975000Y-159875000D01*
X70475000Y-162725000D02*
X70475000Y-163975000D01*
X70475000Y-163975000D02*
X69225000Y-163975000D01*
X70400000Y-132200000D02*
X69150000Y-132200000D01*
X70400000Y-130950000D02*
X70400000Y-132200000D01*
X64900000Y-125050000D02*
X64900000Y-128100000D01*
X67850000Y-125050000D02*
X64900000Y-125050000D01*
X67850000Y-124300000D02*
X67850000Y-125050000D01*
X64900000Y-128100000D02*
X64900000Y-130090000D01*
X67850000Y-131150000D02*
X66510000Y-131150000D01*
X67850000Y-131900000D02*
X67850000Y-131150000D01*
X70100000Y-124300000D02*
X70100000Y-126100000D01*
X69350000Y-124300000D02*
X70100000Y-124300000D01*
X69350000Y-126100000D02*
X69350000Y-124300000D01*
X70100000Y-126100000D02*
X69350000Y-126100000D01*
X70100000Y-130100000D02*
X70100000Y-131900000D01*
X69350000Y-130100000D02*
X70100000Y-130100000D01*
X69350000Y-131900000D02*
X69350000Y-130100000D01*
X70100000Y-131900000D02*
X69350000Y-131900000D01*
X70100000Y-127600000D02*
X70100000Y-128600000D01*
X69350000Y-127600000D02*
X70100000Y-127600000D01*
X69350000Y-128600000D02*
X69350000Y-127600000D01*
X70100000Y-128600000D02*
X69350000Y-128600000D01*
X70110000Y-124290000D02*
X70110000Y-131910000D01*
X64140000Y-124290000D02*
X70110000Y-124290000D01*
X64140000Y-131910000D02*
X64140000Y-124290000D01*
X70110000Y-131910000D02*
X64140000Y-131910000D01*
X46085000Y-117615000D02*
X46085000Y-123585000D01*
X46085000Y-123585000D02*
X38465000Y-123585000D01*
X38465000Y-123585000D02*
X38465000Y-117615000D01*
X38465000Y-117615000D02*
X46085000Y-117615000D01*
X42775000Y-117625000D02*
X42775000Y-118375000D01*
X42775000Y-118375000D02*
X41775000Y-118375000D01*
X41775000Y-118375000D02*
X41775000Y-117625000D01*
X41775000Y-117625000D02*
X42775000Y-117625000D01*
X46075000Y-117625000D02*
X46075000Y-118375000D01*
X46075000Y-118375000D02*
X44275000Y-118375000D01*
X44275000Y-118375000D02*
X44275000Y-117625000D01*
X44275000Y-117625000D02*
X46075000Y-117625000D01*
X40275000Y-117625000D02*
X40275000Y-118375000D01*
X40275000Y-118375000D02*
X38475000Y-118375000D01*
X38475000Y-118375000D02*
X38475000Y-117625000D01*
X38475000Y-117625000D02*
X40275000Y-117625000D01*
X46075000Y-119875000D02*
X45325000Y-119875000D01*
X45325000Y-119875000D02*
X45325000Y-121215000D01*
X42275000Y-122825000D02*
X44265000Y-122825000D01*
X38475000Y-119875000D02*
X39225000Y-119875000D01*
X39225000Y-119875000D02*
X39225000Y-122825000D01*
X39225000Y-122825000D02*
X42275000Y-122825000D01*
X45125000Y-117325000D02*
X46375000Y-117325000D01*
X46375000Y-117325000D02*
X46375000Y-118575000D01*
D10*
X55957380Y-53491666D02*
X56671666Y-53491666D01*
X56814523Y-53444047D01*
X56909761Y-53348809D01*
X56957380Y-53205952D01*
X56957380Y-53110714D01*
X56052619Y-53920238D02*
X56005000Y-53967857D01*
X55957380Y-54063095D01*
X55957380Y-54301190D01*
X56005000Y-54396428D01*
X56052619Y-54444047D01*
X56147857Y-54491666D01*
X56243095Y-54491666D01*
X56385952Y-54444047D01*
X56957380Y-53872619D01*
X56957380Y-54491666D01*
X53611904Y-137027380D02*
X53611904Y-137836904D01*
X53564285Y-137932142D01*
X53516666Y-137979761D01*
X53421428Y-138027380D01*
X53230952Y-138027380D01*
X53135714Y-137979761D01*
X53088095Y-137932142D01*
X53040476Y-137836904D01*
X53040476Y-137027380D01*
X52135714Y-137027380D02*
X52326190Y-137027380D01*
X52421428Y-137075000D01*
X52469047Y-137122619D01*
X52564285Y-137265476D01*
X52611904Y-137455952D01*
X52611904Y-137836904D01*
X52564285Y-137932142D01*
X52516666Y-137979761D01*
X52421428Y-138027380D01*
X52230952Y-138027380D01*
X52135714Y-137979761D01*
X52088095Y-137932142D01*
X52040476Y-137836904D01*
X52040476Y-137598809D01*
X52088095Y-137503571D01*
X52135714Y-137455952D01*
X52230952Y-137408333D01*
X52421428Y-137408333D01*
X52516666Y-137455952D01*
X52564285Y-137503571D01*
X52611904Y-137598809D01*
X35561904Y-20377380D02*
X35561904Y-21186904D01*
X35514285Y-21282142D01*
X35466666Y-21329761D01*
X35371428Y-21377380D01*
X35180952Y-21377380D01*
X35085714Y-21329761D01*
X35038095Y-21282142D01*
X34990476Y-21186904D01*
X34990476Y-20377380D01*
X34609523Y-20377380D02*
X33942857Y-20377380D01*
X34371428Y-21377380D01*
X34386904Y-33227380D02*
X34386904Y-34036904D01*
X34339285Y-34132142D01*
X34291666Y-34179761D01*
X34196428Y-34227380D01*
X34005952Y-34227380D01*
X33910714Y-34179761D01*
X33863095Y-34132142D01*
X33815476Y-34036904D01*
X33815476Y-33227380D01*
X33196428Y-33655952D02*
X33291666Y-33608333D01*
X33339285Y-33560714D01*
X33386904Y-33465476D01*
X33386904Y-33417857D01*
X33339285Y-33322619D01*
X33291666Y-33275000D01*
X33196428Y-33227380D01*
X33005952Y-33227380D01*
X32910714Y-33275000D01*
X32863095Y-33322619D01*
X32815476Y-33417857D01*
X32815476Y-33465476D01*
X32863095Y-33560714D01*
X32910714Y-33608333D01*
X33005952Y-33655952D01*
X33196428Y-33655952D01*
X33291666Y-33703571D01*
X33339285Y-33751190D01*
X33386904Y-33846428D01*
X33386904Y-34036904D01*
X33339285Y-34132142D01*
X33291666Y-34179761D01*
X33196428Y-34227380D01*
X33005952Y-34227380D01*
X32910714Y-34179761D01*
X32863095Y-34132142D01*
X32815476Y-34036904D01*
X32815476Y-33846428D01*
X32863095Y-33751190D01*
X32910714Y-33703571D01*
X33005952Y-33655952D01*
X53411904Y-145877380D02*
X53411904Y-146686904D01*
X53364285Y-146782142D01*
X53316666Y-146829761D01*
X53221428Y-146877380D01*
X53030952Y-146877380D01*
X52935714Y-146829761D01*
X52888095Y-146782142D01*
X52840476Y-146686904D01*
X52840476Y-145877380D01*
X52316666Y-146877380D02*
X52126190Y-146877380D01*
X52030952Y-146829761D01*
X51983333Y-146782142D01*
X51888095Y-146639285D01*
X51840476Y-146448809D01*
X51840476Y-146067857D01*
X51888095Y-145972619D01*
X51935714Y-145925000D01*
X52030952Y-145877380D01*
X52221428Y-145877380D01*
X52316666Y-145925000D01*
X52364285Y-145972619D01*
X52411904Y-146067857D01*
X52411904Y-146305952D01*
X52364285Y-146401190D01*
X52316666Y-146448809D01*
X52221428Y-146496428D01*
X52030952Y-146496428D01*
X51935714Y-146448809D01*
X51888095Y-146401190D01*
X51840476Y-146305952D01*
X58463095Y-20327380D02*
X58463095Y-21136904D01*
X58415476Y-21232142D01*
X58367857Y-21279761D01*
X58272619Y-21327380D01*
X58082142Y-21327380D01*
X57986904Y-21279761D01*
X57939285Y-21232142D01*
X57891666Y-21136904D01*
X57891666Y-20327380D01*
X56891666Y-21327380D02*
X57463095Y-21327380D01*
X57177380Y-21327380D02*
X57177380Y-20327380D01*
X57272619Y-20470238D01*
X57367857Y-20565476D01*
X57463095Y-20613095D01*
X56034523Y-20327380D02*
X56225000Y-20327380D01*
X56320238Y-20375000D01*
X56367857Y-20422619D01*
X56463095Y-20565476D01*
X56510714Y-20755952D01*
X56510714Y-21136904D01*
X56463095Y-21232142D01*
X56415476Y-21279761D01*
X56320238Y-21327380D01*
X56129761Y-21327380D01*
X56034523Y-21279761D01*
X55986904Y-21232142D01*
X55939285Y-21136904D01*
X55939285Y-20898809D01*
X55986904Y-20803571D01*
X56034523Y-20755952D01*
X56129761Y-20708333D01*
X56320238Y-20708333D01*
X56415476Y-20755952D01*
X56463095Y-20803571D01*
X56510714Y-20898809D01*
X56688095Y-33227380D02*
X56688095Y-34036904D01*
X56640476Y-34132142D01*
X56592857Y-34179761D01*
X56497619Y-34227380D01*
X56307142Y-34227380D01*
X56211904Y-34179761D01*
X56164285Y-34132142D01*
X56116666Y-34036904D01*
X56116666Y-33227380D01*
X55116666Y-34227380D02*
X55688095Y-34227380D01*
X55402380Y-34227380D02*
X55402380Y-33227380D01*
X55497619Y-33370238D01*
X55592857Y-33465476D01*
X55688095Y-33513095D01*
X54640476Y-34227380D02*
X54450000Y-34227380D01*
X54354761Y-34179761D01*
X54307142Y-34132142D01*
X54211904Y-33989285D01*
X54164285Y-33798809D01*
X54164285Y-33417857D01*
X54211904Y-33322619D01*
X54259523Y-33275000D01*
X54354761Y-33227380D01*
X54545238Y-33227380D01*
X54640476Y-33275000D01*
X54688095Y-33322619D01*
X54735714Y-33417857D01*
X54735714Y-33655952D01*
X54688095Y-33751190D01*
X54640476Y-33798809D01*
X54545238Y-33846428D01*
X54354761Y-33846428D01*
X54259523Y-33798809D01*
X54211904Y-33751190D01*
X54164285Y-33655952D01*
X33438095Y-136902380D02*
X33438095Y-137711904D01*
X33390476Y-137807142D01*
X33342857Y-137854761D01*
X33247619Y-137902380D01*
X33057142Y-137902380D01*
X32961904Y-137854761D01*
X32914285Y-137807142D01*
X32866666Y-137711904D01*
X32866666Y-136902380D01*
X32438095Y-136997619D02*
X32390476Y-136950000D01*
X32295238Y-136902380D01*
X32057142Y-136902380D01*
X31961904Y-136950000D01*
X31914285Y-136997619D01*
X31866666Y-137092857D01*
X31866666Y-137188095D01*
X31914285Y-137330952D01*
X32485714Y-137902380D01*
X31866666Y-137902380D01*
X30961904Y-136902380D02*
X31438095Y-136902380D01*
X31485714Y-137378571D01*
X31438095Y-137330952D01*
X31342857Y-137283333D01*
X31104761Y-137283333D01*
X31009523Y-137330952D01*
X30961904Y-137378571D01*
X30914285Y-137473809D01*
X30914285Y-137711904D01*
X30961904Y-137807142D01*
X31009523Y-137854761D01*
X31104761Y-137902380D01*
X31342857Y-137902380D01*
X31438095Y-137854761D01*
X31485714Y-137807142D01*
X33138095Y-145877380D02*
X33138095Y-146686904D01*
X33090476Y-146782142D01*
X33042857Y-146829761D01*
X32947619Y-146877380D01*
X32757142Y-146877380D01*
X32661904Y-146829761D01*
X32614285Y-146782142D01*
X32566666Y-146686904D01*
X32566666Y-145877380D01*
X32138095Y-145972619D02*
X32090476Y-145925000D01*
X31995238Y-145877380D01*
X31757142Y-145877380D01*
X31661904Y-145925000D01*
X31614285Y-145972619D01*
X31566666Y-146067857D01*
X31566666Y-146163095D01*
X31614285Y-146305952D01*
X32185714Y-146877380D01*
X31566666Y-146877380D01*
X30995238Y-146305952D02*
X31090476Y-146258333D01*
X31138095Y-146210714D01*
X31185714Y-146115476D01*
X31185714Y-146067857D01*
X31138095Y-145972619D01*
X31090476Y-145925000D01*
X30995238Y-145877380D01*
X30804761Y-145877380D01*
X30709523Y-145925000D01*
X30661904Y-145972619D01*
X30614285Y-146067857D01*
X30614285Y-146115476D01*
X30661904Y-146210714D01*
X30709523Y-146258333D01*
X30804761Y-146305952D01*
X30995238Y-146305952D01*
X31090476Y-146353571D01*
X31138095Y-146401190D01*
X31185714Y-146496428D01*
X31185714Y-146686904D01*
X31138095Y-146782142D01*
X31090476Y-146829761D01*
X30995238Y-146877380D01*
X30804761Y-146877380D01*
X30709523Y-146829761D01*
X30661904Y-146782142D01*
X30614285Y-146686904D01*
X30614285Y-146496428D01*
X30661904Y-146401190D01*
X30709523Y-146353571D01*
X30804761Y-146305952D01*
X53436904Y-169622380D02*
X53436904Y-170431904D01*
X53389285Y-170527142D01*
X53341666Y-170574761D01*
X53246428Y-170622380D01*
X53055952Y-170622380D01*
X52960714Y-170574761D01*
X52913095Y-170527142D01*
X52865476Y-170431904D01*
X52865476Y-169622380D01*
X52436904Y-169717619D02*
X52389285Y-169670000D01*
X52294047Y-169622380D01*
X52055952Y-169622380D01*
X51960714Y-169670000D01*
X51913095Y-169717619D01*
X51865476Y-169812857D01*
X51865476Y-169908095D01*
X51913095Y-170050952D01*
X52484523Y-170622380D01*
X51865476Y-170622380D01*
X47088095Y-16107380D02*
X47088095Y-16916904D01*
X47040476Y-17012142D01*
X46992857Y-17059761D01*
X46897619Y-17107380D01*
X46707142Y-17107380D01*
X46611904Y-17059761D01*
X46564285Y-17012142D01*
X46516666Y-16916904D01*
X46516666Y-16107380D01*
X45516666Y-17107380D02*
X46088095Y-17107380D01*
X45802380Y-17107380D02*
X45802380Y-16107380D01*
X45897619Y-16250238D01*
X45992857Y-16345476D01*
X46088095Y-16393095D01*
X44659523Y-16440714D02*
X44659523Y-17107380D01*
X44897619Y-16059761D02*
X45135714Y-16774047D01*
X44516666Y-16774047D01*
X33113095Y-169622380D02*
X33113095Y-170431904D01*
X33065476Y-170527142D01*
X33017857Y-170574761D01*
X32922619Y-170622380D01*
X32732142Y-170622380D01*
X32636904Y-170574761D01*
X32589285Y-170527142D01*
X32541666Y-170431904D01*
X32541666Y-169622380D01*
X32113095Y-169717619D02*
X32065476Y-169670000D01*
X31970238Y-169622380D01*
X31732142Y-169622380D01*
X31636904Y-169670000D01*
X31589285Y-169717619D01*
X31541666Y-169812857D01*
X31541666Y-169908095D01*
X31589285Y-170050952D01*
X32160714Y-170622380D01*
X31541666Y-170622380D01*
X30589285Y-170622380D02*
X31160714Y-170622380D01*
X30875000Y-170622380D02*
X30875000Y-169622380D01*
X30970238Y-169765238D01*
X31065476Y-169860476D01*
X31160714Y-169908095D01*
X71822619Y-160636904D02*
X71013095Y-160636904D01*
X70917857Y-160589285D01*
X70870238Y-160541666D01*
X70822619Y-160446428D01*
X70822619Y-160255952D01*
X70870238Y-160160714D01*
X70917857Y-160113095D01*
X71013095Y-160065476D01*
X71822619Y-160065476D01*
X71489285Y-159160714D02*
X70822619Y-159160714D01*
X71870238Y-159398809D02*
X71155952Y-159636904D01*
X71155952Y-159017857D01*
X71747619Y-129338095D02*
X70938095Y-129338095D01*
X70842857Y-129290476D01*
X70795238Y-129242857D01*
X70747619Y-129147619D01*
X70747619Y-128957142D01*
X70795238Y-128861904D01*
X70842857Y-128814285D01*
X70938095Y-128766666D01*
X71747619Y-128766666D01*
X71414285Y-127861904D02*
X70747619Y-127861904D01*
X71795238Y-128100000D02*
X71080952Y-128338095D01*
X71080952Y-127719047D01*
X71747619Y-127433333D02*
X71747619Y-126814285D01*
X71366666Y-127147619D01*
X71366666Y-127004761D01*
X71319047Y-126909523D01*
X71271428Y-126861904D01*
X71176190Y-126814285D01*
X70938095Y-126814285D01*
X70842857Y-126861904D01*
X70795238Y-126909523D01*
X70747619Y-127004761D01*
X70747619Y-127290476D01*
X70795238Y-127385714D01*
X70842857Y-127433333D01*
X43513095Y-115977380D02*
X43513095Y-116786904D01*
X43465476Y-116882142D01*
X43417857Y-116929761D01*
X43322619Y-116977380D01*
X43132142Y-116977380D01*
X43036904Y-116929761D01*
X42989285Y-116882142D01*
X42941666Y-116786904D01*
X42941666Y-115977380D01*
X42036904Y-116310714D02*
X42036904Y-116977380D01*
X42275000Y-115929761D02*
X42513095Y-116644047D01*
X41894047Y-116644047D01*
X41608333Y-115977380D02*
X40941666Y-115977380D01*
X41370238Y-116977380D01*
M02*
