G04 #@! TF.GenerationSoftware,KiCad,Pcbnew,5.1.5+dfsg1-2build2*
G04 #@! TF.CreationDate,2020-12-11T18:22:10+01:00*
G04 #@! TF.ProjectId,ariadne-v3-backup,61726961-646e-4652-9d76-332d6261636b,rev?*
G04 #@! TF.SameCoordinates,Original*
G04 #@! TF.FileFunction,Legend,Top*
G04 #@! TF.FilePolarity,Positive*
%FSLAX46Y46*%
G04 Gerber Fmt 4.6, Leading zero omitted, Abs format (unit mm)*
G04 Created by KiCad (PCBNEW 5.1.5+dfsg1-2build2) date 2020-12-11 18:22:10*
%MOMM*%
%LPD*%
G04 APERTURE LIST*
%ADD10C,0.150000*%
%ADD11C,0.120000*%
G04 APERTURE END LIST*
D10*
X117110000Y-133440000D02*
X117110000Y-97240000D01*
X153510000Y-97240000D02*
X153510000Y-132640000D01*
X153510000Y-133440000D02*
X117110000Y-133440000D01*
X153510000Y-132640000D02*
X153510000Y-133440000D01*
X117110000Y-97240000D02*
X153510000Y-97240000D01*
X95457142Y-168782142D02*
X96171428Y-171782142D01*
X96742857Y-169639285D01*
X97314285Y-171782142D01*
X98028571Y-168782142D01*
X99171428Y-171782142D02*
X99171428Y-169782142D01*
X99171428Y-168782142D02*
X99028571Y-168925000D01*
X99171428Y-169067857D01*
X99314285Y-168925000D01*
X99171428Y-168782142D01*
X99171428Y-169067857D01*
X101028571Y-171782142D02*
X100742857Y-171639285D01*
X100599999Y-171353571D01*
X100599999Y-168782142D01*
X102599999Y-171782142D02*
X102314285Y-171639285D01*
X102171428Y-171353571D01*
X102171428Y-168782142D01*
X103742857Y-171782142D02*
X103742857Y-169782142D01*
X103742857Y-168782142D02*
X103599999Y-168925000D01*
X103742857Y-169067857D01*
X103885714Y-168925000D01*
X103742857Y-168782142D01*
X103742857Y-169067857D01*
X105171428Y-169782142D02*
X105171428Y-171782142D01*
X105171428Y-170067857D02*
X105314285Y-169925000D01*
X105599999Y-169782142D01*
X106028571Y-169782142D01*
X106314285Y-169925000D01*
X106457142Y-170210714D01*
X106457142Y-171782142D01*
X109171428Y-169782142D02*
X109171428Y-172210714D01*
X109028571Y-172496428D01*
X108885714Y-172639285D01*
X108599999Y-172782142D01*
X108171428Y-172782142D01*
X107885714Y-172639285D01*
X109171428Y-171639285D02*
X108885714Y-171782142D01*
X108314285Y-171782142D01*
X108028571Y-171639285D01*
X107885714Y-171496428D01*
X107742857Y-171210714D01*
X107742857Y-170353571D01*
X107885714Y-170067857D01*
X108028571Y-169925000D01*
X108314285Y-169782142D01*
X108885714Y-169782142D01*
X109171428Y-169925000D01*
X111028571Y-171782142D02*
X110742857Y-171639285D01*
X110599999Y-171353571D01*
X110599999Y-168782142D01*
X111885714Y-169782142D02*
X112599999Y-171782142D01*
X113314285Y-169782142D02*
X112599999Y-171782142D01*
X112314285Y-172496428D01*
X112171428Y-172639285D01*
X111885714Y-172782142D01*
X118028571Y-169782142D02*
X118028571Y-172210714D01*
X117885714Y-172496428D01*
X117742857Y-172639285D01*
X117457142Y-172782142D01*
X117028571Y-172782142D01*
X116742857Y-172639285D01*
X118028571Y-171639285D02*
X117742857Y-171782142D01*
X117171428Y-171782142D01*
X116885714Y-171639285D01*
X116742857Y-171496428D01*
X116599999Y-171210714D01*
X116599999Y-170353571D01*
X116742857Y-170067857D01*
X116885714Y-169925000D01*
X117171428Y-169782142D01*
X117742857Y-169782142D01*
X118028571Y-169925000D01*
X119457142Y-171782142D02*
X119457142Y-169782142D01*
X119457142Y-168782142D02*
X119314285Y-168925000D01*
X119457142Y-169067857D01*
X119599999Y-168925000D01*
X119457142Y-168782142D01*
X119457142Y-169067857D01*
X120599999Y-169782142D02*
X121314285Y-171782142D01*
X122028571Y-169782142D01*
X124314285Y-171639285D02*
X124028571Y-171782142D01*
X123457142Y-171782142D01*
X123171428Y-171639285D01*
X123028571Y-171353571D01*
X123028571Y-170210714D01*
X123171428Y-169925000D01*
X123457142Y-169782142D01*
X124028571Y-169782142D01*
X124314285Y-169925000D01*
X124457142Y-170210714D01*
X124457142Y-170496428D01*
X123028571Y-170782142D01*
X127599999Y-169782142D02*
X128742857Y-169782142D01*
X128028571Y-168782142D02*
X128028571Y-171353571D01*
X128171428Y-171639285D01*
X128457142Y-171782142D01*
X128742857Y-171782142D01*
X129742857Y-171782142D02*
X129742857Y-168782142D01*
X131028571Y-171782142D02*
X131028571Y-170210714D01*
X130885714Y-169925000D01*
X130600000Y-169782142D01*
X130171428Y-169782142D01*
X129885714Y-169925000D01*
X129742857Y-170067857D01*
X132171428Y-169782142D02*
X132885714Y-171782142D01*
X133600000Y-169782142D02*
X132885714Y-171782142D01*
X132600000Y-172496428D01*
X132457142Y-172639285D01*
X132171428Y-172782142D01*
X134600000Y-171639285D02*
X134885714Y-171782142D01*
X135457142Y-171782142D01*
X135742857Y-171639285D01*
X135885714Y-171353571D01*
X135885714Y-171210714D01*
X135742857Y-170925000D01*
X135457142Y-170782142D01*
X135028571Y-170782142D01*
X134742857Y-170639285D01*
X134600000Y-170353571D01*
X134600000Y-170210714D01*
X134742857Y-169925000D01*
X135028571Y-169782142D01*
X135457142Y-169782142D01*
X135742857Y-169925000D01*
X138314285Y-171639285D02*
X138028571Y-171782142D01*
X137457142Y-171782142D01*
X137171428Y-171639285D01*
X137028571Y-171353571D01*
X137028571Y-170210714D01*
X137171428Y-169925000D01*
X137457142Y-169782142D01*
X138028571Y-169782142D01*
X138314285Y-169925000D01*
X138457142Y-170210714D01*
X138457142Y-170496428D01*
X137028571Y-170782142D01*
X140171428Y-171782142D02*
X139885714Y-171639285D01*
X139742857Y-171353571D01*
X139742857Y-168782142D01*
X140885714Y-169782142D02*
X142028571Y-169782142D01*
X141314285Y-171782142D02*
X141314285Y-169210714D01*
X141457142Y-168925000D01*
X141742857Y-168782142D01*
X142028571Y-168782142D01*
X146600000Y-169782142D02*
X146600000Y-171782142D01*
X145314285Y-169782142D02*
X145314285Y-171353571D01*
X145457142Y-171639285D01*
X145742857Y-171782142D01*
X146171428Y-171782142D01*
X146457142Y-171639285D01*
X146600000Y-171496428D01*
X148028571Y-169782142D02*
X148028571Y-172782142D01*
X148028571Y-169925000D02*
X148314285Y-169782142D01*
X148885714Y-169782142D01*
X149171428Y-169925000D01*
X149314285Y-170067857D01*
X149457142Y-170353571D01*
X149457142Y-171210714D01*
X149314285Y-171496428D01*
X149171428Y-171639285D01*
X148885714Y-171782142D01*
X148314285Y-171782142D01*
X148028571Y-171639285D01*
X152600000Y-169782142D02*
X153742857Y-169782142D01*
X153028571Y-168782142D02*
X153028571Y-171353571D01*
X153171428Y-171639285D01*
X153457142Y-171782142D01*
X153742857Y-171782142D01*
X155171428Y-171782142D02*
X154885714Y-171639285D01*
X154742857Y-171496428D01*
X154600000Y-171210714D01*
X154600000Y-170353571D01*
X154742857Y-170067857D01*
X154885714Y-169925000D01*
X155171428Y-169782142D01*
X155600000Y-169782142D01*
X155885714Y-169925000D01*
X156028571Y-170067857D01*
X156171428Y-170353571D01*
X156171428Y-171210714D01*
X156028571Y-171496428D01*
X155885714Y-171639285D01*
X155600000Y-171782142D01*
X155171428Y-171782142D01*
X161457142Y-171496428D02*
X161314285Y-171639285D01*
X160885714Y-171782142D01*
X160600000Y-171782142D01*
X160171428Y-171639285D01*
X159885714Y-171353571D01*
X159742857Y-171067857D01*
X159600000Y-170496428D01*
X159600000Y-170067857D01*
X159742857Y-169496428D01*
X159885714Y-169210714D01*
X160171428Y-168925000D01*
X160600000Y-168782142D01*
X160885714Y-168782142D01*
X161314285Y-168925000D01*
X161457142Y-169067857D01*
X163171428Y-171782142D02*
X162885714Y-171639285D01*
X162742857Y-171353571D01*
X162742857Y-168782142D01*
X164742857Y-171782142D02*
X164457142Y-171639285D01*
X164314285Y-171496428D01*
X164171428Y-171210714D01*
X164171428Y-170353571D01*
X164314285Y-170067857D01*
X164457142Y-169925000D01*
X164742857Y-169782142D01*
X165171428Y-169782142D01*
X165457142Y-169925000D01*
X165600000Y-170067857D01*
X165742857Y-170353571D01*
X165742857Y-171210714D01*
X165600000Y-171496428D01*
X165457142Y-171639285D01*
X165171428Y-171782142D01*
X164742857Y-171782142D01*
X166600000Y-169782142D02*
X167742857Y-169782142D01*
X167028571Y-168782142D02*
X167028571Y-171353571D01*
X167171428Y-171639285D01*
X167457142Y-171782142D01*
X167742857Y-171782142D01*
X168742857Y-171782142D02*
X168742857Y-168782142D01*
X170028571Y-171782142D02*
X170028571Y-170210714D01*
X169885714Y-169925000D01*
X169600000Y-169782142D01*
X169171428Y-169782142D01*
X168885714Y-169925000D01*
X168742857Y-170067857D01*
X171885714Y-171782142D02*
X171600000Y-171639285D01*
X171457142Y-171496428D01*
X171314285Y-171210714D01*
X171314285Y-170353571D01*
X171457142Y-170067857D01*
X171600000Y-169925000D01*
X171885714Y-169782142D01*
X172314285Y-169782142D01*
X172600000Y-169925000D01*
X172742857Y-170067857D01*
X172885714Y-170353571D01*
X172885714Y-171210714D01*
X172742857Y-171496428D01*
X172600000Y-171639285D01*
X172314285Y-171782142D01*
X171885714Y-171782142D01*
X174314285Y-171639285D02*
X174314285Y-171782142D01*
X174171428Y-172067857D01*
X174028571Y-172210714D01*
X102242857Y-176432142D02*
X101957142Y-176289285D01*
X101814285Y-176146428D01*
X101671428Y-175860714D01*
X101671428Y-175003571D01*
X101814285Y-174717857D01*
X101957142Y-174575000D01*
X102242857Y-174432142D01*
X102671428Y-174432142D01*
X102957142Y-174575000D01*
X103100000Y-174717857D01*
X103242857Y-175003571D01*
X103242857Y-175860714D01*
X103100000Y-176146428D01*
X102957142Y-176289285D01*
X102671428Y-176432142D01*
X102242857Y-176432142D01*
X104528571Y-174432142D02*
X104528571Y-176432142D01*
X104528571Y-174717857D02*
X104671428Y-174575000D01*
X104957142Y-174432142D01*
X105385714Y-174432142D01*
X105671428Y-174575000D01*
X105814285Y-174860714D01*
X105814285Y-176432142D01*
X108385714Y-176289285D02*
X108100000Y-176432142D01*
X107528571Y-176432142D01*
X107242857Y-176289285D01*
X107100000Y-176003571D01*
X107100000Y-174860714D01*
X107242857Y-174575000D01*
X107528571Y-174432142D01*
X108100000Y-174432142D01*
X108385714Y-174575000D01*
X108528571Y-174860714D01*
X108528571Y-175146428D01*
X107100000Y-175432142D01*
X112528571Y-176432142D02*
X112242857Y-176289285D01*
X112100000Y-176146428D01*
X111957142Y-175860714D01*
X111957142Y-175003571D01*
X112100000Y-174717857D01*
X112242857Y-174575000D01*
X112528571Y-174432142D01*
X112957142Y-174432142D01*
X113242857Y-174575000D01*
X113385714Y-174717857D01*
X113528571Y-175003571D01*
X113528571Y-175860714D01*
X113385714Y-176146428D01*
X113242857Y-176289285D01*
X112957142Y-176432142D01*
X112528571Y-176432142D01*
X114385714Y-174432142D02*
X115528571Y-174432142D01*
X114814285Y-176432142D02*
X114814285Y-173860714D01*
X114957142Y-173575000D01*
X115242857Y-173432142D01*
X115528571Y-173432142D01*
X118385714Y-174432142D02*
X119528571Y-174432142D01*
X118814285Y-173432142D02*
X118814285Y-176003571D01*
X118957142Y-176289285D01*
X119242857Y-176432142D01*
X119528571Y-176432142D01*
X120528571Y-176432142D02*
X120528571Y-173432142D01*
X121814285Y-176432142D02*
X121814285Y-174860714D01*
X121671428Y-174575000D01*
X121385714Y-174432142D01*
X120957142Y-174432142D01*
X120671428Y-174575000D01*
X120528571Y-174717857D01*
X124385714Y-176289285D02*
X124100000Y-176432142D01*
X123528571Y-176432142D01*
X123242857Y-176289285D01*
X123100000Y-176003571D01*
X123100000Y-174860714D01*
X123242857Y-174575000D01*
X123528571Y-174432142D01*
X124100000Y-174432142D01*
X124385714Y-174575000D01*
X124528571Y-174860714D01*
X124528571Y-175146428D01*
X123100000Y-175432142D01*
X129100000Y-174860714D02*
X128100000Y-174860714D01*
X128100000Y-176432142D02*
X128100000Y-173432142D01*
X129528571Y-173432142D01*
X131957142Y-176432142D02*
X131957142Y-174860714D01*
X131814285Y-174575000D01*
X131528571Y-174432142D01*
X130957142Y-174432142D01*
X130671428Y-174575000D01*
X131957142Y-176289285D02*
X131671428Y-176432142D01*
X130957142Y-176432142D01*
X130671428Y-176289285D01*
X130528571Y-176003571D01*
X130528571Y-175717857D01*
X130671428Y-175432142D01*
X130957142Y-175289285D01*
X131671428Y-175289285D01*
X131957142Y-175146428D01*
X132957142Y-174432142D02*
X134100000Y-174432142D01*
X133385714Y-173432142D02*
X133385714Y-176003571D01*
X133528571Y-176289285D01*
X133814285Y-176432142D01*
X134100000Y-176432142D01*
X136242857Y-176289285D02*
X135957142Y-176432142D01*
X135385714Y-176432142D01*
X135100000Y-176289285D01*
X134957142Y-176003571D01*
X134957142Y-174860714D01*
X135100000Y-174575000D01*
X135385714Y-174432142D01*
X135957142Y-174432142D01*
X136242857Y-174575000D01*
X136385714Y-174860714D01*
X136385714Y-175146428D01*
X134957142Y-175432142D01*
X137528571Y-176289285D02*
X137814285Y-176432142D01*
X138385714Y-176432142D01*
X138671428Y-176289285D01*
X138814285Y-176003571D01*
X138814285Y-175860714D01*
X138671428Y-175575000D01*
X138385714Y-175432142D01*
X137957142Y-175432142D01*
X137671428Y-175289285D01*
X137528571Y-175003571D01*
X137528571Y-174860714D01*
X137671428Y-174575000D01*
X137957142Y-174432142D01*
X138385714Y-174432142D01*
X138671428Y-174575000D01*
X140242857Y-176289285D02*
X140242857Y-176432142D01*
X140100000Y-176717857D01*
X139957142Y-176860714D01*
X145100000Y-176432142D02*
X145100000Y-174860714D01*
X144957142Y-174575000D01*
X144671428Y-174432142D01*
X144100000Y-174432142D01*
X143814285Y-174575000D01*
X145100000Y-176289285D02*
X144814285Y-176432142D01*
X144100000Y-176432142D01*
X143814285Y-176289285D01*
X143671428Y-176003571D01*
X143671428Y-175717857D01*
X143814285Y-175432142D01*
X144100000Y-175289285D01*
X144814285Y-175289285D01*
X145100000Y-175146428D01*
X146957142Y-176432142D02*
X146671428Y-176289285D01*
X146528571Y-176003571D01*
X146528571Y-173432142D01*
X148528571Y-176432142D02*
X148242857Y-176289285D01*
X148100000Y-176003571D01*
X148100000Y-173432142D01*
X150100000Y-176432142D02*
X149814285Y-176289285D01*
X149671428Y-176146428D01*
X149528571Y-175860714D01*
X149528571Y-175003571D01*
X149671428Y-174717857D01*
X149814285Y-174575000D01*
X150100000Y-174432142D01*
X150528571Y-174432142D01*
X150814285Y-174575000D01*
X150957142Y-174717857D01*
X151100000Y-175003571D01*
X151100000Y-175860714D01*
X150957142Y-176146428D01*
X150814285Y-176289285D01*
X150528571Y-176432142D01*
X150100000Y-176432142D01*
X152100000Y-174432142D02*
X152671428Y-176432142D01*
X153242857Y-175003571D01*
X153814285Y-176432142D01*
X154385714Y-174432142D01*
X155528571Y-176432142D02*
X155528571Y-174432142D01*
X155528571Y-173432142D02*
X155385714Y-173575000D01*
X155528571Y-173717857D01*
X155671428Y-173575000D01*
X155528571Y-173432142D01*
X155528571Y-173717857D01*
X156957142Y-174432142D02*
X156957142Y-176432142D01*
X156957142Y-174717857D02*
X157100000Y-174575000D01*
X157385714Y-174432142D01*
X157814285Y-174432142D01*
X158100000Y-174575000D01*
X158242857Y-174860714D01*
X158242857Y-176432142D01*
X160957142Y-174432142D02*
X160957142Y-176860714D01*
X160814285Y-177146428D01*
X160671428Y-177289285D01*
X160385714Y-177432142D01*
X159957142Y-177432142D01*
X159671428Y-177289285D01*
X160957142Y-176289285D02*
X160671428Y-176432142D01*
X160100000Y-176432142D01*
X159814285Y-176289285D01*
X159671428Y-176146428D01*
X159528571Y-175860714D01*
X159528571Y-175003571D01*
X159671428Y-174717857D01*
X159814285Y-174575000D01*
X160100000Y-174432142D01*
X160671428Y-174432142D01*
X160957142Y-174575000D01*
X164671428Y-176432142D02*
X164671428Y-173432142D01*
X165957142Y-176432142D02*
X165957142Y-174860714D01*
X165814285Y-174575000D01*
X165528571Y-174432142D01*
X165100000Y-174432142D01*
X164814285Y-174575000D01*
X164671428Y-174717857D01*
X168528571Y-176289285D02*
X168242857Y-176432142D01*
X167671428Y-176432142D01*
X167385714Y-176289285D01*
X167242857Y-176003571D01*
X167242857Y-174860714D01*
X167385714Y-174575000D01*
X167671428Y-174432142D01*
X168242857Y-174432142D01*
X168528571Y-174575000D01*
X168671428Y-174860714D01*
X168671428Y-175146428D01*
X167242857Y-175432142D01*
X169957142Y-176432142D02*
X169957142Y-174432142D01*
X169957142Y-175003571D02*
X170100000Y-174717857D01*
X170242857Y-174575000D01*
X170528571Y-174432142D01*
X170814285Y-174432142D01*
X98099999Y-179082142D02*
X99242857Y-179082142D01*
X98528571Y-178082142D02*
X98528571Y-180653571D01*
X98671428Y-180939285D01*
X98957142Y-181082142D01*
X99242857Y-181082142D01*
X100671428Y-181082142D02*
X100385714Y-180939285D01*
X100242857Y-180796428D01*
X100099999Y-180510714D01*
X100099999Y-179653571D01*
X100242857Y-179367857D01*
X100385714Y-179225000D01*
X100671428Y-179082142D01*
X101099999Y-179082142D01*
X101385714Y-179225000D01*
X101528571Y-179367857D01*
X101671428Y-179653571D01*
X101671428Y-180510714D01*
X101528571Y-180796428D01*
X101385714Y-180939285D01*
X101099999Y-181082142D01*
X100671428Y-181082142D01*
X105099999Y-180939285D02*
X105385714Y-181082142D01*
X105957142Y-181082142D01*
X106242857Y-180939285D01*
X106385714Y-180653571D01*
X106385714Y-180510714D01*
X106242857Y-180225000D01*
X105957142Y-180082142D01*
X105528571Y-180082142D01*
X105242857Y-179939285D01*
X105099999Y-179653571D01*
X105099999Y-179510714D01*
X105242857Y-179225000D01*
X105528571Y-179082142D01*
X105957142Y-179082142D01*
X106242857Y-179225000D01*
X107671428Y-179082142D02*
X107671428Y-182082142D01*
X107671428Y-179225000D02*
X107957142Y-179082142D01*
X108528571Y-179082142D01*
X108814285Y-179225000D01*
X108957142Y-179367857D01*
X109099999Y-179653571D01*
X109099999Y-180510714D01*
X108957142Y-180796428D01*
X108814285Y-180939285D01*
X108528571Y-181082142D01*
X107957142Y-181082142D01*
X107671428Y-180939285D01*
X110385714Y-181082142D02*
X110385714Y-179082142D01*
X110385714Y-178082142D02*
X110242857Y-178225000D01*
X110385714Y-178367857D01*
X110528571Y-178225000D01*
X110385714Y-178082142D01*
X110385714Y-178367857D01*
X111814285Y-179082142D02*
X111814285Y-181082142D01*
X111814285Y-179367857D02*
X111957142Y-179225000D01*
X112242857Y-179082142D01*
X112671428Y-179082142D01*
X112957142Y-179225000D01*
X113099999Y-179510714D01*
X113099999Y-181082142D01*
X116385714Y-179082142D02*
X117528571Y-179082142D01*
X116814285Y-178082142D02*
X116814285Y-180653571D01*
X116957142Y-180939285D01*
X117242857Y-181082142D01*
X117528571Y-181082142D01*
X118528571Y-181082142D02*
X118528571Y-178082142D01*
X119814285Y-181082142D02*
X119814285Y-179510714D01*
X119671428Y-179225000D01*
X119385714Y-179082142D01*
X118957142Y-179082142D01*
X118671428Y-179225000D01*
X118528571Y-179367857D01*
X120957142Y-179082142D02*
X121671428Y-181082142D01*
X122385714Y-179082142D02*
X121671428Y-181082142D01*
X121385714Y-181796428D01*
X121242857Y-181939285D01*
X120957142Y-182082142D01*
X125385714Y-179082142D02*
X126528571Y-179082142D01*
X125814285Y-178082142D02*
X125814285Y-180653571D01*
X125957142Y-180939285D01*
X126242857Y-181082142D01*
X126528571Y-181082142D01*
X127528571Y-181082142D02*
X127528571Y-178082142D01*
X128814285Y-181082142D02*
X128814285Y-179510714D01*
X128671428Y-179225000D01*
X128385714Y-179082142D01*
X127957142Y-179082142D01*
X127671428Y-179225000D01*
X127528571Y-179367857D01*
X130242857Y-181082142D02*
X130242857Y-179082142D01*
X130242857Y-179653571D02*
X130385714Y-179367857D01*
X130528571Y-179225000D01*
X130814285Y-179082142D01*
X131099999Y-179082142D01*
X133242857Y-180939285D02*
X132957142Y-181082142D01*
X132385714Y-181082142D01*
X132099999Y-180939285D01*
X131957142Y-180653571D01*
X131957142Y-179510714D01*
X132099999Y-179225000D01*
X132385714Y-179082142D01*
X132957142Y-179082142D01*
X133242857Y-179225000D01*
X133385714Y-179510714D01*
X133385714Y-179796428D01*
X131957142Y-180082142D01*
X135957142Y-181082142D02*
X135957142Y-179510714D01*
X135814285Y-179225000D01*
X135528571Y-179082142D01*
X134957142Y-179082142D01*
X134671428Y-179225000D01*
X135957142Y-180939285D02*
X135671428Y-181082142D01*
X134957142Y-181082142D01*
X134671428Y-180939285D01*
X134528571Y-180653571D01*
X134528571Y-180367857D01*
X134671428Y-180082142D01*
X134957142Y-179939285D01*
X135671428Y-179939285D01*
X135957142Y-179796428D01*
X138671428Y-181082142D02*
X138671428Y-178082142D01*
X138671428Y-180939285D02*
X138385714Y-181082142D01*
X137814285Y-181082142D01*
X137528571Y-180939285D01*
X137385714Y-180796428D01*
X137242857Y-180510714D01*
X137242857Y-179653571D01*
X137385714Y-179367857D01*
X137528571Y-179225000D01*
X137814285Y-179082142D01*
X138385714Y-179082142D01*
X138671428Y-179225000D01*
X142385714Y-181082142D02*
X142385714Y-179082142D01*
X142385714Y-178082142D02*
X142242857Y-178225000D01*
X142385714Y-178367857D01*
X142528571Y-178225000D01*
X142385714Y-178082142D01*
X142385714Y-178367857D01*
X143814285Y-179082142D02*
X143814285Y-181082142D01*
X143814285Y-179367857D02*
X143957142Y-179225000D01*
X144242857Y-179082142D01*
X144671428Y-179082142D01*
X144957142Y-179225000D01*
X145099999Y-179510714D01*
X145099999Y-181082142D01*
X146099999Y-179082142D02*
X147242857Y-179082142D01*
X146528571Y-178082142D02*
X146528571Y-180653571D01*
X146671428Y-180939285D01*
X146957142Y-181082142D01*
X147242857Y-181082142D01*
X148671428Y-181082142D02*
X148385714Y-180939285D01*
X148242857Y-180796428D01*
X148100000Y-180510714D01*
X148100000Y-179653571D01*
X148242857Y-179367857D01*
X148385714Y-179225000D01*
X148671428Y-179082142D01*
X149100000Y-179082142D01*
X149385714Y-179225000D01*
X149528571Y-179367857D01*
X149671428Y-179653571D01*
X149671428Y-180510714D01*
X149528571Y-180796428D01*
X149385714Y-180939285D01*
X149100000Y-181082142D01*
X148671428Y-181082142D01*
X152957142Y-179082142D02*
X153528571Y-181082142D01*
X154100000Y-179653571D01*
X154671428Y-181082142D01*
X155242857Y-179082142D01*
X156385714Y-181082142D02*
X156385714Y-178082142D01*
X157671428Y-181082142D02*
X157671428Y-179510714D01*
X157528571Y-179225000D01*
X157242857Y-179082142D01*
X156814285Y-179082142D01*
X156528571Y-179225000D01*
X156385714Y-179367857D01*
X160385714Y-181082142D02*
X160385714Y-179510714D01*
X160242857Y-179225000D01*
X159957142Y-179082142D01*
X159385714Y-179082142D01*
X159100000Y-179225000D01*
X160385714Y-180939285D02*
X160100000Y-181082142D01*
X159385714Y-181082142D01*
X159100000Y-180939285D01*
X158957142Y-180653571D01*
X158957142Y-180367857D01*
X159100000Y-180082142D01*
X159385714Y-179939285D01*
X160100000Y-179939285D01*
X160385714Y-179796428D01*
X161385714Y-179082142D02*
X162528571Y-179082142D01*
X161814285Y-178082142D02*
X161814285Y-180653571D01*
X161957142Y-180939285D01*
X162242857Y-181082142D01*
X162528571Y-181082142D01*
X164671428Y-180939285D02*
X164385714Y-181082142D01*
X163814285Y-181082142D01*
X163528571Y-180939285D01*
X163385714Y-180653571D01*
X163385714Y-179510714D01*
X163528571Y-179225000D01*
X163814285Y-179082142D01*
X164385714Y-179082142D01*
X164671428Y-179225000D01*
X164814285Y-179510714D01*
X164814285Y-179796428D01*
X163385714Y-180082142D01*
X165814285Y-179082142D02*
X166528571Y-181082142D01*
X167242857Y-179082142D01*
X169528571Y-180939285D02*
X169242857Y-181082142D01*
X168671428Y-181082142D01*
X168385714Y-180939285D01*
X168242857Y-180653571D01*
X168242857Y-179510714D01*
X168385714Y-179225000D01*
X168671428Y-179082142D01*
X169242857Y-179082142D01*
X169528571Y-179225000D01*
X169671428Y-179510714D01*
X169671428Y-179796428D01*
X168242857Y-180082142D01*
X170957142Y-181082142D02*
X170957142Y-179082142D01*
X170957142Y-179653571D02*
X171099999Y-179367857D01*
X171242857Y-179225000D01*
X171528571Y-179082142D01*
X171814285Y-179082142D01*
X113028571Y-183732142D02*
X114171428Y-183732142D01*
X113457142Y-182732142D02*
X113457142Y-185303571D01*
X113599999Y-185589285D01*
X113885714Y-185732142D01*
X114171428Y-185732142D01*
X115171428Y-185732142D02*
X115171428Y-182732142D01*
X116457142Y-185732142D02*
X116457142Y-184160714D01*
X116314285Y-183875000D01*
X116028571Y-183732142D01*
X115599999Y-183732142D01*
X115314285Y-183875000D01*
X115171428Y-184017857D01*
X117885714Y-185732142D02*
X117885714Y-183732142D01*
X117885714Y-182732142D02*
X117742857Y-182875000D01*
X117885714Y-183017857D01*
X118028571Y-182875000D01*
X117885714Y-182732142D01*
X117885714Y-183017857D01*
X119314285Y-183732142D02*
X119314285Y-185732142D01*
X119314285Y-184017857D02*
X119457142Y-183875000D01*
X119742857Y-183732142D01*
X120171428Y-183732142D01*
X120457142Y-183875000D01*
X120599999Y-184160714D01*
X120599999Y-185732142D01*
X123314285Y-183732142D02*
X123314285Y-186160714D01*
X123171428Y-186446428D01*
X123028571Y-186589285D01*
X122742857Y-186732142D01*
X122314285Y-186732142D01*
X122028571Y-186589285D01*
X123314285Y-185589285D02*
X123028571Y-185732142D01*
X122457142Y-185732142D01*
X122171428Y-185589285D01*
X122028571Y-185446428D01*
X121885714Y-185160714D01*
X121885714Y-184303571D01*
X122028571Y-184017857D01*
X122171428Y-183875000D01*
X122457142Y-183732142D01*
X123028571Y-183732142D01*
X123314285Y-183875000D01*
X124599999Y-185589285D02*
X124885714Y-185732142D01*
X125457142Y-185732142D01*
X125742857Y-185589285D01*
X125885714Y-185303571D01*
X125885714Y-185160714D01*
X125742857Y-184875000D01*
X125457142Y-184732142D01*
X125028571Y-184732142D01*
X124742857Y-184589285D01*
X124599999Y-184303571D01*
X124599999Y-184160714D01*
X124742857Y-183875000D01*
X125028571Y-183732142D01*
X125457142Y-183732142D01*
X125742857Y-183875000D01*
X129314285Y-185589285D02*
X129600000Y-185732142D01*
X130171428Y-185732142D01*
X130457142Y-185589285D01*
X130600000Y-185303571D01*
X130600000Y-185160714D01*
X130457142Y-184875000D01*
X130171428Y-184732142D01*
X129742857Y-184732142D01*
X129457142Y-184589285D01*
X129314285Y-184303571D01*
X129314285Y-184160714D01*
X129457142Y-183875000D01*
X129742857Y-183732142D01*
X130171428Y-183732142D01*
X130457142Y-183875000D01*
X131885714Y-185732142D02*
X131885714Y-182732142D01*
X133171428Y-185732142D02*
X133171428Y-184160714D01*
X133028571Y-183875000D01*
X132742857Y-183732142D01*
X132314285Y-183732142D01*
X132028571Y-183875000D01*
X131885714Y-184017857D01*
X135742857Y-185589285D02*
X135457142Y-185732142D01*
X134885714Y-185732142D01*
X134600000Y-185589285D01*
X134457142Y-185303571D01*
X134457142Y-184160714D01*
X134600000Y-183875000D01*
X134885714Y-183732142D01*
X135457142Y-183732142D01*
X135742857Y-183875000D01*
X135885714Y-184160714D01*
X135885714Y-184446428D01*
X134457142Y-184732142D01*
X139457142Y-183732142D02*
X139457142Y-186732142D01*
X139457142Y-183875000D02*
X139742857Y-183732142D01*
X140314285Y-183732142D01*
X140600000Y-183875000D01*
X140742857Y-184017857D01*
X140885714Y-184303571D01*
X140885714Y-185160714D01*
X140742857Y-185446428D01*
X140600000Y-185589285D01*
X140314285Y-185732142D01*
X139742857Y-185732142D01*
X139457142Y-185589285D01*
X142600000Y-185732142D02*
X142314285Y-185589285D01*
X142171428Y-185303571D01*
X142171428Y-182732142D01*
X144885714Y-185589285D02*
X144600000Y-185732142D01*
X144028571Y-185732142D01*
X143742857Y-185589285D01*
X143600000Y-185303571D01*
X143600000Y-184160714D01*
X143742857Y-183875000D01*
X144028571Y-183732142D01*
X144600000Y-183732142D01*
X144885714Y-183875000D01*
X145028571Y-184160714D01*
X145028571Y-184446428D01*
X143600000Y-184732142D01*
X147600000Y-185732142D02*
X147600000Y-184160714D01*
X147457142Y-183875000D01*
X147171428Y-183732142D01*
X146600000Y-183732142D01*
X146314285Y-183875000D01*
X147600000Y-185589285D02*
X147314285Y-185732142D01*
X146600000Y-185732142D01*
X146314285Y-185589285D01*
X146171428Y-185303571D01*
X146171428Y-185017857D01*
X146314285Y-184732142D01*
X146600000Y-184589285D01*
X147314285Y-184589285D01*
X147600000Y-184446428D01*
X148885714Y-185589285D02*
X149171428Y-185732142D01*
X149742857Y-185732142D01*
X150028571Y-185589285D01*
X150171428Y-185303571D01*
X150171428Y-185160714D01*
X150028571Y-184875000D01*
X149742857Y-184732142D01*
X149314285Y-184732142D01*
X149028571Y-184589285D01*
X148885714Y-184303571D01*
X148885714Y-184160714D01*
X149028571Y-183875000D01*
X149314285Y-183732142D01*
X149742857Y-183732142D01*
X150028571Y-183875000D01*
X152600000Y-185589285D02*
X152314285Y-185732142D01*
X151742857Y-185732142D01*
X151457142Y-185589285D01*
X151314285Y-185303571D01*
X151314285Y-184160714D01*
X151457142Y-183875000D01*
X151742857Y-183732142D01*
X152314285Y-183732142D01*
X152600000Y-183875000D01*
X152742857Y-184160714D01*
X152742857Y-184446428D01*
X151314285Y-184732142D01*
X153885714Y-185589285D02*
X154171428Y-185732142D01*
X154742857Y-185732142D01*
X155028571Y-185589285D01*
X155171428Y-185303571D01*
X155171428Y-185160714D01*
X155028571Y-184875000D01*
X154742857Y-184732142D01*
X154314285Y-184732142D01*
X154028571Y-184589285D01*
X153885714Y-184303571D01*
X153885714Y-184160714D01*
X154028571Y-183875000D01*
X154314285Y-183732142D01*
X154742857Y-183732142D01*
X155028571Y-183875000D01*
X156457142Y-185446428D02*
X156600000Y-185589285D01*
X156457142Y-185732142D01*
X156314285Y-185589285D01*
X156457142Y-185446428D01*
X156457142Y-185732142D01*
X117100000Y-133445000D02*
X117100000Y-97245000D01*
X153500000Y-97245000D02*
X153500000Y-132645000D01*
X153500000Y-133445000D02*
X117100000Y-133445000D01*
X153500000Y-132645000D02*
X153500000Y-133445000D01*
X117100000Y-97245000D02*
X153500000Y-97245000D01*
X21490000Y-115538000D02*
X8536000Y-115538000D01*
X117100000Y-14100000D02*
X153500000Y-14100000D01*
X117100000Y-50300000D02*
X117100000Y-14100000D01*
X153500000Y-50300000D02*
X117100000Y-50300000D01*
X153500000Y-49500000D02*
X153500000Y-50300000D01*
X153500000Y-14100000D02*
X153500000Y-49500000D01*
X21590000Y-11938000D02*
X8636000Y-11938000D01*
D11*
X106725729Y-115040000D02*
X135010000Y-143324271D01*
X135010000Y-86755729D02*
X106725729Y-115040000D01*
X163294271Y-115040000D02*
X135010000Y-143324271D01*
X142081068Y-136253203D02*
X163294271Y-115040000D01*
X135010000Y-86755729D02*
X163294271Y-115040000D01*
X119535000Y-115315000D02*
X150935000Y-115315000D01*
X135235000Y-99615000D02*
X135235000Y-131015000D01*
X145735000Y-125815000D02*
X145735000Y-104815000D01*
X124735000Y-125815000D02*
X145735000Y-125815000D01*
X124735000Y-104815000D02*
X124735000Y-125815000D01*
X124735000Y-104815000D02*
X145735000Y-104815000D01*
X153335000Y-115315000D02*
G75*
G03X153335000Y-115315000I-18100000J0D01*
G01*
X135000000Y-3615729D02*
X163284271Y-31900000D01*
X142071068Y-53113203D02*
X163284271Y-31900000D01*
X163284271Y-31900000D02*
X135000000Y-60184271D01*
X135000000Y-3615729D02*
X106715729Y-31900000D01*
X106715729Y-31900000D02*
X135000000Y-60184271D01*
X153325000Y-32175000D02*
G75*
G03X153325000Y-32175000I-18100000J0D01*
G01*
X124725000Y-21675000D02*
X145725000Y-21675000D01*
X124725000Y-21675000D02*
X124725000Y-42675000D01*
X124725000Y-42675000D02*
X145725000Y-42675000D01*
X145725000Y-42675000D02*
X145725000Y-21675000D01*
X135225000Y-16475000D02*
X135225000Y-47875000D01*
X119525000Y-32175000D02*
X150925000Y-32175000D01*
X28800000Y-53800000D02*
X19200000Y-53800000D01*
X28800000Y-65800000D02*
X19200000Y-65800000D01*
X28800000Y-65800000D02*
X28800000Y-53800000D01*
X19200000Y-65800000D02*
X19200000Y-53800000D01*
X21415000Y-45315000D02*
X21545000Y-45315000D01*
X21545000Y-45315000D02*
X21545000Y-50755000D01*
X21545000Y-50755000D02*
X21415000Y-50755000D01*
X18735000Y-45315000D02*
X18605000Y-45315000D01*
X18605000Y-45315000D02*
X18605000Y-50755000D01*
X18605000Y-50755000D02*
X18735000Y-50755000D01*
X21545000Y-46215000D02*
X18605000Y-46215000D01*
X21545000Y-46335000D02*
X18605000Y-46335000D01*
X21545000Y-46095000D02*
X18605000Y-46095000D01*
X52670000Y-49590000D02*
X55330000Y-49590000D01*
X52670000Y-39370000D02*
X52670000Y-49590000D01*
X55330000Y-39370000D02*
X55330000Y-49590000D01*
X52670000Y-39370000D02*
X55330000Y-39370000D01*
X52670000Y-38100000D02*
X52670000Y-36770000D01*
X52670000Y-36770000D02*
X54000000Y-36770000D01*
X13295000Y-41190000D02*
X15955000Y-41190000D01*
X13295000Y-30970000D02*
X13295000Y-41190000D01*
X15955000Y-30970000D02*
X15955000Y-41190000D01*
X13295000Y-30970000D02*
X15955000Y-30970000D01*
X13295000Y-29700000D02*
X13295000Y-28370000D01*
X13295000Y-28370000D02*
X14625000Y-28370000D01*
X15470000Y-57215000D02*
X18130000Y-57215000D01*
X15470000Y-46995000D02*
X15470000Y-57215000D01*
X18130000Y-46995000D02*
X18130000Y-57215000D01*
X15470000Y-46995000D02*
X18130000Y-46995000D01*
X15470000Y-45725000D02*
X15470000Y-44395000D01*
X15470000Y-44395000D02*
X16800000Y-44395000D01*
X36545000Y-23970000D02*
X37875000Y-23970000D01*
X36545000Y-25300000D02*
X36545000Y-23970000D01*
X36545000Y-26570000D02*
X39205000Y-26570000D01*
X39205000Y-26570000D02*
X39205000Y-36790000D01*
X36545000Y-26570000D02*
X36545000Y-36790000D01*
X36545000Y-36790000D02*
X39205000Y-36790000D01*
X18470000Y-23846000D02*
X18470000Y-25104000D01*
X16630000Y-23846000D02*
X16630000Y-25104000D01*
X16655000Y-35346000D02*
X16655000Y-36604000D01*
X18495000Y-35346000D02*
X18495000Y-36604000D01*
X16780000Y-30629000D02*
X16780000Y-29371000D01*
X18620000Y-30629000D02*
X18620000Y-29371000D01*
X18445000Y-41529000D02*
X18445000Y-40271000D01*
X16605000Y-41529000D02*
X16605000Y-40271000D01*
X51635000Y-66080000D02*
X51635000Y-55840000D01*
X35745000Y-66080000D02*
X35745000Y-55840000D01*
X35745000Y-66080000D02*
X51635000Y-66080000D01*
X35745000Y-55840000D02*
X51635000Y-55840000D01*
X51635000Y-63500000D02*
X54175000Y-63500000D01*
X51635000Y-60960000D02*
X54175000Y-60960000D01*
X51635000Y-58420000D02*
X54175000Y-58420000D01*
X29445000Y-46565000D02*
X27605000Y-46565000D01*
X27605000Y-46565000D02*
X27605000Y-50405000D01*
X27605000Y-50405000D02*
X29445000Y-50405000D01*
X29445000Y-50405000D02*
X29445000Y-46565000D01*
X28525000Y-45615000D02*
X28525000Y-46565000D01*
X28525000Y-51355000D02*
X28525000Y-50405000D01*
X21135000Y-32050000D02*
X21135000Y-33440000D01*
X23375000Y-32050000D02*
X21135000Y-32050000D01*
X23375000Y-24170000D02*
X23375000Y-32050000D01*
X21135000Y-24170000D02*
X23375000Y-24170000D01*
X21135000Y-22770000D02*
X21135000Y-24170000D01*
X21125000Y-22770000D02*
X19355000Y-22770000D01*
X19355000Y-22770000D02*
X19355000Y-33440000D01*
X19355000Y-33440000D02*
X21135000Y-33440000D01*
X25070000Y-31935000D02*
X23290000Y-31935000D01*
X25070000Y-42605000D02*
X25070000Y-31935000D01*
X23300000Y-42605000D02*
X25070000Y-42605000D01*
X23290000Y-42605000D02*
X23290000Y-41205000D01*
X23290000Y-41205000D02*
X21050000Y-41205000D01*
X21050000Y-41205000D02*
X21050000Y-33325000D01*
X21050000Y-33325000D02*
X23290000Y-33325000D01*
X23290000Y-33325000D02*
X23290000Y-31935000D01*
X27965000Y-151515000D02*
X27965000Y-157485000D01*
X27965000Y-157485000D02*
X35585000Y-157485000D01*
X35585000Y-157485000D02*
X35585000Y-151515000D01*
X35585000Y-151515000D02*
X27965000Y-151515000D01*
X31275000Y-151525000D02*
X31275000Y-152275000D01*
X31275000Y-152275000D02*
X32275000Y-152275000D01*
X32275000Y-152275000D02*
X32275000Y-151525000D01*
X32275000Y-151525000D02*
X31275000Y-151525000D01*
X27975000Y-151525000D02*
X27975000Y-152275000D01*
X27975000Y-152275000D02*
X29775000Y-152275000D01*
X29775000Y-152275000D02*
X29775000Y-151525000D01*
X29775000Y-151525000D02*
X27975000Y-151525000D01*
X33775000Y-151525000D02*
X33775000Y-152275000D01*
X33775000Y-152275000D02*
X35575000Y-152275000D01*
X35575000Y-152275000D02*
X35575000Y-151525000D01*
X35575000Y-151525000D02*
X33775000Y-151525000D01*
X27975000Y-153775000D02*
X28725000Y-153775000D01*
X28725000Y-153775000D02*
X28725000Y-155115000D01*
X31775000Y-156725000D02*
X29785000Y-156725000D01*
X35575000Y-153775000D02*
X34825000Y-153775000D01*
X34825000Y-153775000D02*
X34825000Y-156725000D01*
X34825000Y-156725000D02*
X31775000Y-156725000D01*
X28925000Y-151225000D02*
X27675000Y-151225000D01*
X27675000Y-151225000D02*
X27675000Y-152475000D01*
X21725000Y-155250000D02*
X21725000Y-123450000D01*
X21725000Y-123450000D02*
X42025000Y-123450000D01*
X42035000Y-155250000D02*
X42035000Y-123450000D01*
X21725000Y-155250000D02*
X42025000Y-155250000D01*
X60450000Y-65950000D02*
X60450000Y-13950000D01*
X31450000Y-65950000D02*
X31450000Y-13950000D01*
X60450000Y-65950000D02*
X31450000Y-65950000D01*
X60450000Y-13950000D02*
X31450000Y-13950000D01*
X48490000Y-14042000D02*
X48490000Y-17090000D01*
X48490000Y-17090000D02*
X43410000Y-17090000D01*
X43410000Y-17090000D02*
X43410000Y-14042000D01*
X48500000Y-151200000D02*
X48500000Y-152450000D01*
X49750000Y-151200000D02*
X48500000Y-151200000D01*
X55650000Y-156700000D02*
X52600000Y-156700000D01*
X55650000Y-153750000D02*
X55650000Y-156700000D01*
X56400000Y-153750000D02*
X55650000Y-153750000D01*
X52600000Y-156700000D02*
X50610000Y-156700000D01*
X49550000Y-153750000D02*
X49550000Y-155090000D01*
X48800000Y-153750000D02*
X49550000Y-153750000D01*
X56400000Y-151500000D02*
X54600000Y-151500000D01*
X56400000Y-152250000D02*
X56400000Y-151500000D01*
X54600000Y-152250000D02*
X56400000Y-152250000D01*
X54600000Y-151500000D02*
X54600000Y-152250000D01*
X50600000Y-151500000D02*
X48800000Y-151500000D01*
X50600000Y-152250000D02*
X50600000Y-151500000D01*
X48800000Y-152250000D02*
X50600000Y-152250000D01*
X48800000Y-151500000D02*
X48800000Y-152250000D01*
X53100000Y-151500000D02*
X52100000Y-151500000D01*
X53100000Y-152250000D02*
X53100000Y-151500000D01*
X52100000Y-152250000D02*
X53100000Y-152250000D01*
X52100000Y-151500000D02*
X52100000Y-152250000D01*
X56410000Y-151490000D02*
X48790000Y-151490000D01*
X56410000Y-157460000D02*
X56410000Y-151490000D01*
X48790000Y-157460000D02*
X56410000Y-157460000D01*
X48790000Y-151490000D02*
X48790000Y-157460000D01*
X42525000Y-155250000D02*
X62825000Y-155250000D01*
X62835000Y-155250000D02*
X62835000Y-123450000D01*
X42525000Y-123450000D02*
X62825000Y-123450000D01*
X42525000Y-155250000D02*
X42525000Y-123450000D01*
X62050000Y-13575000D02*
X62050000Y-14825000D01*
X63300000Y-13575000D02*
X62050000Y-13575000D01*
X69200000Y-19075000D02*
X66150000Y-19075000D01*
X69200000Y-16125000D02*
X69200000Y-19075000D01*
X69950000Y-16125000D02*
X69200000Y-16125000D01*
X66150000Y-19075000D02*
X64160000Y-19075000D01*
X63100000Y-16125000D02*
X63100000Y-17465000D01*
X62350000Y-16125000D02*
X63100000Y-16125000D01*
X69950000Y-13875000D02*
X68150000Y-13875000D01*
X69950000Y-14625000D02*
X69950000Y-13875000D01*
X68150000Y-14625000D02*
X69950000Y-14625000D01*
X68150000Y-13875000D02*
X68150000Y-14625000D01*
X64150000Y-13875000D02*
X62350000Y-13875000D01*
X64150000Y-14625000D02*
X64150000Y-13875000D01*
X62350000Y-14625000D02*
X64150000Y-14625000D01*
X62350000Y-13875000D02*
X62350000Y-14625000D01*
X66650000Y-13875000D02*
X65650000Y-13875000D01*
X66650000Y-14625000D02*
X66650000Y-13875000D01*
X65650000Y-14625000D02*
X66650000Y-14625000D01*
X65650000Y-13875000D02*
X65650000Y-14625000D01*
X69960000Y-13865000D02*
X62340000Y-13865000D01*
X69960000Y-19835000D02*
X69960000Y-13865000D01*
X62340000Y-19835000D02*
X69960000Y-19835000D01*
X62340000Y-13865000D02*
X62340000Y-19835000D01*
X30150000Y-20250000D02*
X30150000Y-19000000D01*
X28900000Y-20250000D02*
X30150000Y-20250000D01*
X23000000Y-14750000D02*
X26050000Y-14750000D01*
X23000000Y-17700000D02*
X23000000Y-14750000D01*
X22250000Y-17700000D02*
X23000000Y-17700000D01*
X26050000Y-14750000D02*
X28040000Y-14750000D01*
X29100000Y-17700000D02*
X29100000Y-16360000D01*
X29850000Y-17700000D02*
X29100000Y-17700000D01*
X22250000Y-19950000D02*
X24050000Y-19950000D01*
X22250000Y-19200000D02*
X22250000Y-19950000D01*
X24050000Y-19200000D02*
X22250000Y-19200000D01*
X24050000Y-19950000D02*
X24050000Y-19200000D01*
X28050000Y-19950000D02*
X29850000Y-19950000D01*
X28050000Y-19200000D02*
X28050000Y-19950000D01*
X29850000Y-19200000D02*
X28050000Y-19200000D01*
X29850000Y-19950000D02*
X29850000Y-19200000D01*
X25550000Y-19950000D02*
X26550000Y-19950000D01*
X25550000Y-19200000D02*
X25550000Y-19950000D01*
X26550000Y-19200000D02*
X25550000Y-19200000D01*
X26550000Y-19950000D02*
X26550000Y-19200000D01*
X22240000Y-19960000D02*
X29860000Y-19960000D01*
X22240000Y-13990000D02*
X22240000Y-19960000D01*
X29860000Y-13990000D02*
X22240000Y-13990000D01*
X29860000Y-19960000D02*
X29860000Y-13990000D01*
X70180000Y-32315000D02*
X70180000Y-32295000D01*
X69680000Y-32315000D02*
X70180000Y-32315000D01*
X69680000Y-22285000D02*
X69680000Y-32315000D01*
X70180000Y-22285000D02*
X69680000Y-22285000D01*
X70180000Y-22305000D02*
X70180000Y-22285000D01*
X65590000Y-33735000D02*
X68665000Y-33735000D01*
X65590000Y-20865000D02*
X65590000Y-33735000D01*
X68665000Y-20865000D02*
X65590000Y-20865000D01*
X25840000Y-120485000D02*
X25840000Y-123560000D01*
X25840000Y-123560000D02*
X38710000Y-123560000D01*
X38710000Y-123560000D02*
X38710000Y-120485000D01*
X27280000Y-118970000D02*
X27260000Y-118970000D01*
X27260000Y-118970000D02*
X27260000Y-119470000D01*
X27260000Y-119470000D02*
X37290000Y-119470000D01*
X37290000Y-119470000D02*
X37290000Y-118970000D01*
X37290000Y-118970000D02*
X37270000Y-118970000D01*
X57840000Y-119120000D02*
X57820000Y-119120000D01*
X57840000Y-119620000D02*
X57840000Y-119120000D01*
X47810000Y-119620000D02*
X57840000Y-119620000D01*
X47810000Y-119120000D02*
X47810000Y-119620000D01*
X47830000Y-119120000D02*
X47810000Y-119120000D01*
X59260000Y-123710000D02*
X59260000Y-120635000D01*
X46390000Y-123710000D02*
X59260000Y-123710000D01*
X46390000Y-120635000D02*
X46390000Y-123710000D01*
X68665000Y-34765000D02*
X65590000Y-34765000D01*
X65590000Y-34765000D02*
X65590000Y-47635000D01*
X65590000Y-47635000D02*
X68665000Y-47635000D01*
X70180000Y-36205000D02*
X70180000Y-36185000D01*
X70180000Y-36185000D02*
X69680000Y-36185000D01*
X69680000Y-36185000D02*
X69680000Y-46215000D01*
X69680000Y-46215000D02*
X70180000Y-46215000D01*
X70180000Y-46215000D02*
X70180000Y-46195000D01*
X68665000Y-48665000D02*
X65590000Y-48665000D01*
X65590000Y-48665000D02*
X65590000Y-61535000D01*
X65590000Y-61535000D02*
X68665000Y-61535000D01*
X70180000Y-50105000D02*
X70180000Y-50085000D01*
X70180000Y-50085000D02*
X69680000Y-50085000D01*
X69680000Y-50085000D02*
X69680000Y-60115000D01*
X69680000Y-60115000D02*
X70180000Y-60115000D01*
X70180000Y-60115000D02*
X70180000Y-60095000D01*
X13275000Y-164050000D02*
X14525000Y-164050000D01*
X13275000Y-162800000D02*
X13275000Y-164050000D01*
X18775000Y-156900000D02*
X18775000Y-159950000D01*
X15825000Y-156900000D02*
X18775000Y-156900000D01*
X15825000Y-156150000D02*
X15825000Y-156900000D01*
X18775000Y-159950000D02*
X18775000Y-161940000D01*
X15825000Y-163000000D02*
X17165000Y-163000000D01*
X15825000Y-163750000D02*
X15825000Y-163000000D01*
X13575000Y-156150000D02*
X13575000Y-157950000D01*
X14325000Y-156150000D02*
X13575000Y-156150000D01*
X14325000Y-157950000D02*
X14325000Y-156150000D01*
X13575000Y-157950000D02*
X14325000Y-157950000D01*
X13575000Y-161950000D02*
X13575000Y-163750000D01*
X14325000Y-161950000D02*
X13575000Y-161950000D01*
X14325000Y-163750000D02*
X14325000Y-161950000D01*
X13575000Y-163750000D02*
X14325000Y-163750000D01*
X13575000Y-159450000D02*
X13575000Y-160450000D01*
X14325000Y-159450000D02*
X13575000Y-159450000D01*
X14325000Y-160450000D02*
X14325000Y-159450000D01*
X13575000Y-160450000D02*
X14325000Y-160450000D01*
X13565000Y-156140000D02*
X13565000Y-163760000D01*
X19535000Y-156140000D02*
X13565000Y-156140000D01*
X19535000Y-163760000D02*
X19535000Y-156140000D01*
X13565000Y-163760000D02*
X19535000Y-163760000D01*
X21635000Y-70235000D02*
X21635000Y-64265000D01*
X21635000Y-64265000D02*
X14015000Y-64265000D01*
X14015000Y-64265000D02*
X14015000Y-70235000D01*
X14015000Y-70235000D02*
X21635000Y-70235000D01*
X18325000Y-70225000D02*
X18325000Y-69475000D01*
X18325000Y-69475000D02*
X17325000Y-69475000D01*
X17325000Y-69475000D02*
X17325000Y-70225000D01*
X17325000Y-70225000D02*
X18325000Y-70225000D01*
X21625000Y-70225000D02*
X21625000Y-69475000D01*
X21625000Y-69475000D02*
X19825000Y-69475000D01*
X19825000Y-69475000D02*
X19825000Y-70225000D01*
X19825000Y-70225000D02*
X21625000Y-70225000D01*
X15825000Y-70225000D02*
X15825000Y-69475000D01*
X15825000Y-69475000D02*
X14025000Y-69475000D01*
X14025000Y-69475000D02*
X14025000Y-70225000D01*
X14025000Y-70225000D02*
X15825000Y-70225000D01*
X21625000Y-67975000D02*
X20875000Y-67975000D01*
X20875000Y-67975000D02*
X20875000Y-66635000D01*
X17825000Y-65025000D02*
X19815000Y-65025000D01*
X14025000Y-67975000D02*
X14775000Y-67975000D01*
X14775000Y-67975000D02*
X14775000Y-65025000D01*
X14775000Y-65025000D02*
X17825000Y-65025000D01*
X20675000Y-70525000D02*
X21925000Y-70525000D01*
X21925000Y-70525000D02*
X21925000Y-69275000D01*
X69625000Y-70375000D02*
X69625000Y-69125000D01*
X68375000Y-70375000D02*
X69625000Y-70375000D01*
X62475000Y-64875000D02*
X65525000Y-64875000D01*
X62475000Y-67825000D02*
X62475000Y-64875000D01*
X61725000Y-67825000D02*
X62475000Y-67825000D01*
X65525000Y-64875000D02*
X67515000Y-64875000D01*
X68575000Y-67825000D02*
X68575000Y-66485000D01*
X69325000Y-67825000D02*
X68575000Y-67825000D01*
X61725000Y-70075000D02*
X63525000Y-70075000D01*
X61725000Y-69325000D02*
X61725000Y-70075000D01*
X63525000Y-69325000D02*
X61725000Y-69325000D01*
X63525000Y-70075000D02*
X63525000Y-69325000D01*
X67525000Y-70075000D02*
X69325000Y-70075000D01*
X67525000Y-69325000D02*
X67525000Y-70075000D01*
X69325000Y-69325000D02*
X67525000Y-69325000D01*
X69325000Y-70075000D02*
X69325000Y-69325000D01*
X65025000Y-70075000D02*
X66025000Y-70075000D01*
X65025000Y-69325000D02*
X65025000Y-70075000D01*
X66025000Y-69325000D02*
X65025000Y-69325000D01*
X66025000Y-70075000D02*
X66025000Y-69325000D01*
X61715000Y-70085000D02*
X69335000Y-70085000D01*
X61715000Y-64115000D02*
X61715000Y-70085000D01*
X69335000Y-64115000D02*
X61715000Y-64115000D01*
X69335000Y-70085000D02*
X69335000Y-64115000D01*
X38540000Y-167265000D02*
X38540000Y-173235000D01*
X38540000Y-173235000D02*
X46160000Y-173235000D01*
X46160000Y-173235000D02*
X46160000Y-167265000D01*
X46160000Y-167265000D02*
X38540000Y-167265000D01*
X41850000Y-167275000D02*
X41850000Y-168025000D01*
X41850000Y-168025000D02*
X42850000Y-168025000D01*
X42850000Y-168025000D02*
X42850000Y-167275000D01*
X42850000Y-167275000D02*
X41850000Y-167275000D01*
X38550000Y-167275000D02*
X38550000Y-168025000D01*
X38550000Y-168025000D02*
X40350000Y-168025000D01*
X40350000Y-168025000D02*
X40350000Y-167275000D01*
X40350000Y-167275000D02*
X38550000Y-167275000D01*
X44350000Y-167275000D02*
X44350000Y-168025000D01*
X44350000Y-168025000D02*
X46150000Y-168025000D01*
X46150000Y-168025000D02*
X46150000Y-167275000D01*
X46150000Y-167275000D02*
X44350000Y-167275000D01*
X38550000Y-169525000D02*
X39300000Y-169525000D01*
X39300000Y-169525000D02*
X39300000Y-170865000D01*
X42350000Y-172475000D02*
X40360000Y-172475000D01*
X46150000Y-169525000D02*
X45400000Y-169525000D01*
X45400000Y-169525000D02*
X45400000Y-172475000D01*
X45400000Y-172475000D02*
X42350000Y-172475000D01*
X39500000Y-166975000D02*
X38250000Y-166975000D01*
X38250000Y-166975000D02*
X38250000Y-168225000D01*
X13790000Y-131435000D02*
X19760000Y-131435000D01*
X19760000Y-131435000D02*
X19760000Y-123815000D01*
X19760000Y-123815000D02*
X13790000Y-123815000D01*
X13790000Y-123815000D02*
X13790000Y-131435000D01*
X13800000Y-128125000D02*
X14550000Y-128125000D01*
X14550000Y-128125000D02*
X14550000Y-127125000D01*
X14550000Y-127125000D02*
X13800000Y-127125000D01*
X13800000Y-127125000D02*
X13800000Y-128125000D01*
X13800000Y-131425000D02*
X14550000Y-131425000D01*
X14550000Y-131425000D02*
X14550000Y-129625000D01*
X14550000Y-129625000D02*
X13800000Y-129625000D01*
X13800000Y-129625000D02*
X13800000Y-131425000D01*
X13800000Y-125625000D02*
X14550000Y-125625000D01*
X14550000Y-125625000D02*
X14550000Y-123825000D01*
X14550000Y-123825000D02*
X13800000Y-123825000D01*
X13800000Y-123825000D02*
X13800000Y-125625000D01*
X16050000Y-131425000D02*
X16050000Y-130675000D01*
X16050000Y-130675000D02*
X17390000Y-130675000D01*
X19000000Y-127625000D02*
X19000000Y-129615000D01*
X16050000Y-123825000D02*
X16050000Y-124575000D01*
X16050000Y-124575000D02*
X19000000Y-124575000D01*
X19000000Y-124575000D02*
X19000000Y-127625000D01*
X13500000Y-130475000D02*
X13500000Y-131725000D01*
X13500000Y-131725000D02*
X14750000Y-131725000D01*
D10*
X123332360Y-125002629D02*
X122759940Y-125575049D01*
X122726269Y-125676064D01*
X122726269Y-125743407D01*
X122759940Y-125844423D01*
X122894627Y-125979110D01*
X122995643Y-126012781D01*
X123062986Y-126012781D01*
X123164001Y-125979110D01*
X123736421Y-125406690D01*
X123972123Y-125777079D02*
X124039467Y-125777079D01*
X124140482Y-125810751D01*
X124308841Y-125979110D01*
X124342513Y-126080125D01*
X124342513Y-126147468D01*
X124308841Y-126248484D01*
X124241497Y-126315827D01*
X124106810Y-126383171D01*
X123298688Y-126383171D01*
X123736421Y-126820903D01*
X124073139Y-127157621D02*
X124207826Y-127292308D01*
X124308841Y-127325980D01*
X124376184Y-127325980D01*
X124544543Y-127292308D01*
X124712902Y-127191293D01*
X124982276Y-126921919D01*
X125015948Y-126820903D01*
X125015948Y-126753560D01*
X124982276Y-126652545D01*
X124847589Y-126517858D01*
X124746574Y-126484186D01*
X124679230Y-126484186D01*
X124578215Y-126517858D01*
X124409856Y-126686216D01*
X124376184Y-126787232D01*
X124376184Y-126854575D01*
X124409856Y-126955590D01*
X124544543Y-127090277D01*
X124645558Y-127123949D01*
X124712902Y-127123949D01*
X124813917Y-127090277D01*
X108076666Y-136042380D02*
X107743333Y-135566190D01*
X107505238Y-136042380D02*
X107505238Y-135042380D01*
X107886190Y-135042380D01*
X107981428Y-135090000D01*
X108029047Y-135137619D01*
X108076666Y-135232857D01*
X108076666Y-135375714D01*
X108029047Y-135470952D01*
X107981428Y-135518571D01*
X107886190Y-135566190D01*
X107505238Y-135566190D01*
X108505238Y-135518571D02*
X108838571Y-135518571D01*
X108981428Y-136042380D02*
X108505238Y-136042380D01*
X108505238Y-135042380D01*
X108981428Y-135042380D01*
X109743333Y-135518571D02*
X109410000Y-135518571D01*
X109410000Y-136042380D02*
X109410000Y-135042380D01*
X109886190Y-135042380D01*
X110410000Y-135042380D02*
X110410000Y-135280476D01*
X110171904Y-135185238D02*
X110410000Y-135280476D01*
X110648095Y-135185238D01*
X110267142Y-135470952D02*
X110410000Y-135280476D01*
X110552857Y-135470952D01*
X111171904Y-135042380D02*
X111171904Y-135280476D01*
X110933809Y-135185238D02*
X111171904Y-135280476D01*
X111410000Y-135185238D01*
X111029047Y-135470952D02*
X111171904Y-135280476D01*
X111314761Y-135470952D01*
X108076666Y-84342380D02*
X107743333Y-83866190D01*
X107505238Y-84342380D02*
X107505238Y-83342380D01*
X107886190Y-83342380D01*
X107981428Y-83390000D01*
X108029047Y-83437619D01*
X108076666Y-83532857D01*
X108076666Y-83675714D01*
X108029047Y-83770952D01*
X107981428Y-83818571D01*
X107886190Y-83866190D01*
X107505238Y-83866190D01*
X108505238Y-83818571D02*
X108838571Y-83818571D01*
X108981428Y-84342380D02*
X108505238Y-84342380D01*
X108505238Y-83342380D01*
X108981428Y-83342380D01*
X109743333Y-83818571D02*
X109410000Y-83818571D01*
X109410000Y-84342380D02*
X109410000Y-83342380D01*
X109886190Y-83342380D01*
X110410000Y-83342380D02*
X110410000Y-83580476D01*
X110171904Y-83485238D02*
X110410000Y-83580476D01*
X110648095Y-83485238D01*
X110267142Y-83770952D02*
X110410000Y-83580476D01*
X110552857Y-83770952D01*
X111171904Y-83342380D02*
X111171904Y-83580476D01*
X110933809Y-83485238D02*
X111171904Y-83580476D01*
X111410000Y-83485238D01*
X111029047Y-83770952D02*
X111171904Y-83580476D01*
X111314761Y-83770952D01*
X133996904Y-135567380D02*
X133996904Y-136376904D01*
X134044523Y-136472142D01*
X134092142Y-136519761D01*
X134187380Y-136567380D01*
X134377857Y-136567380D01*
X134473095Y-136519761D01*
X134520714Y-136472142D01*
X134568333Y-136376904D01*
X134568333Y-135567380D01*
X134949285Y-135567380D02*
X135568333Y-135567380D01*
X135235000Y-135948333D01*
X135377857Y-135948333D01*
X135473095Y-135995952D01*
X135520714Y-136043571D01*
X135568333Y-136138809D01*
X135568333Y-136376904D01*
X135520714Y-136472142D01*
X135473095Y-136519761D01*
X135377857Y-136567380D01*
X135092142Y-136567380D01*
X134996904Y-136519761D01*
X134949285Y-136472142D01*
X136473095Y-135567380D02*
X135996904Y-135567380D01*
X135949285Y-136043571D01*
X135996904Y-135995952D01*
X136092142Y-135948333D01*
X136330238Y-135948333D01*
X136425476Y-135995952D01*
X136473095Y-136043571D01*
X136520714Y-136138809D01*
X136520714Y-136376904D01*
X136473095Y-136472142D01*
X136425476Y-136519761D01*
X136330238Y-136567380D01*
X136092142Y-136567380D01*
X135996904Y-136519761D01*
X135949285Y-136472142D01*
X121020714Y-96443571D02*
X121163571Y-96491190D01*
X121211190Y-96538809D01*
X121258809Y-96634047D01*
X121258809Y-96776904D01*
X121211190Y-96872142D01*
X121163571Y-96919761D01*
X121068333Y-96967380D01*
X120687380Y-96967380D01*
X120687380Y-95967380D01*
X121020714Y-95967380D01*
X121115952Y-96015000D01*
X121163571Y-96062619D01*
X121211190Y-96157857D01*
X121211190Y-96253095D01*
X121163571Y-96348333D01*
X121115952Y-96395952D01*
X121020714Y-96443571D01*
X120687380Y-96443571D01*
X121687380Y-96967380D02*
X121687380Y-96300714D01*
X121687380Y-96491190D02*
X121735000Y-96395952D01*
X121782619Y-96348333D01*
X121877857Y-96300714D01*
X121973095Y-96300714D01*
X122306428Y-96967380D02*
X122306428Y-96300714D01*
X122306428Y-95967380D02*
X122258809Y-96015000D01*
X122306428Y-96062619D01*
X122354047Y-96015000D01*
X122306428Y-95967380D01*
X122306428Y-96062619D01*
X123211190Y-96967380D02*
X123211190Y-95967380D01*
X123211190Y-96919761D02*
X123115952Y-96967380D01*
X122925476Y-96967380D01*
X122830238Y-96919761D01*
X122782619Y-96872142D01*
X122735000Y-96776904D01*
X122735000Y-96491190D01*
X122782619Y-96395952D01*
X122830238Y-96348333D01*
X122925476Y-96300714D01*
X123115952Y-96300714D01*
X123211190Y-96348333D01*
X124115952Y-96300714D02*
X124115952Y-97110238D01*
X124068333Y-97205476D01*
X124020714Y-97253095D01*
X123925476Y-97300714D01*
X123782619Y-97300714D01*
X123687380Y-97253095D01*
X124115952Y-96919761D02*
X124020714Y-96967380D01*
X123830238Y-96967380D01*
X123735000Y-96919761D01*
X123687380Y-96872142D01*
X123639761Y-96776904D01*
X123639761Y-96491190D01*
X123687380Y-96395952D01*
X123735000Y-96348333D01*
X123830238Y-96300714D01*
X124020714Y-96300714D01*
X124115952Y-96348333D01*
X124973095Y-96919761D02*
X124877857Y-96967380D01*
X124687380Y-96967380D01*
X124592142Y-96919761D01*
X124544523Y-96824523D01*
X124544523Y-96443571D01*
X124592142Y-96348333D01*
X124687380Y-96300714D01*
X124877857Y-96300714D01*
X124973095Y-96348333D01*
X125020714Y-96443571D01*
X125020714Y-96538809D01*
X124544523Y-96634047D01*
X125592142Y-96967380D02*
X125496904Y-96919761D01*
X125449285Y-96824523D01*
X125449285Y-95967380D01*
X126401666Y-96300714D02*
X126401666Y-96967380D01*
X125973095Y-96300714D02*
X125973095Y-96824523D01*
X126020714Y-96919761D01*
X126115952Y-96967380D01*
X126258809Y-96967380D01*
X126354047Y-96919761D01*
X126401666Y-96872142D01*
X126782619Y-96967380D02*
X127306428Y-96300714D01*
X126782619Y-96300714D02*
X127306428Y-96967380D01*
X127687380Y-96586428D02*
X128449285Y-96586428D01*
X128782619Y-95967380D02*
X129115952Y-96967380D01*
X129449285Y-95967380D01*
X130163571Y-96919761D02*
X130068333Y-96967380D01*
X129877857Y-96967380D01*
X129782619Y-96919761D01*
X129735000Y-96824523D01*
X129735000Y-96443571D01*
X129782619Y-96348333D01*
X129877857Y-96300714D01*
X130068333Y-96300714D01*
X130163571Y-96348333D01*
X130211190Y-96443571D01*
X130211190Y-96538809D01*
X129735000Y-96634047D01*
X130639761Y-96967380D02*
X130639761Y-96300714D01*
X130639761Y-96491190D02*
X130687380Y-96395952D01*
X130735000Y-96348333D01*
X130830238Y-96300714D01*
X130925476Y-96300714D01*
X131401666Y-96967380D02*
X131306428Y-96919761D01*
X131258809Y-96872142D01*
X131211190Y-96776904D01*
X131211190Y-96491190D01*
X131258809Y-96395952D01*
X131306428Y-96348333D01*
X131401666Y-96300714D01*
X131544523Y-96300714D01*
X131639761Y-96348333D01*
X131687380Y-96395952D01*
X131735000Y-96491190D01*
X131735000Y-96776904D01*
X131687380Y-96872142D01*
X131639761Y-96919761D01*
X131544523Y-96967380D01*
X131401666Y-96967380D01*
X132163571Y-96586428D02*
X132925476Y-96586428D01*
X133925476Y-96967380D02*
X133354047Y-96967380D01*
X133639761Y-96967380D02*
X133639761Y-95967380D01*
X133544523Y-96110238D01*
X133449285Y-96205476D01*
X133354047Y-96253095D01*
X134496904Y-96395952D02*
X134401666Y-96348333D01*
X134354047Y-96300714D01*
X134306428Y-96205476D01*
X134306428Y-96157857D01*
X134354047Y-96062619D01*
X134401666Y-96015000D01*
X134496904Y-95967380D01*
X134687380Y-95967380D01*
X134782619Y-96015000D01*
X134830238Y-96062619D01*
X134877857Y-96157857D01*
X134877857Y-96205476D01*
X134830238Y-96300714D01*
X134782619Y-96348333D01*
X134687380Y-96395952D01*
X134496904Y-96395952D01*
X134401666Y-96443571D01*
X134354047Y-96491190D01*
X134306428Y-96586428D01*
X134306428Y-96776904D01*
X134354047Y-96872142D01*
X134401666Y-96919761D01*
X134496904Y-96967380D01*
X134687380Y-96967380D01*
X134782619Y-96919761D01*
X134830238Y-96872142D01*
X134877857Y-96776904D01*
X134877857Y-96586428D01*
X134830238Y-96491190D01*
X134782619Y-96443571D01*
X134687380Y-96395952D01*
X135306428Y-96586428D02*
X136068333Y-96586428D01*
X136544523Y-96967380D02*
X136544523Y-96300714D01*
X136544523Y-96395952D02*
X136592142Y-96348333D01*
X136687380Y-96300714D01*
X136830238Y-96300714D01*
X136925476Y-96348333D01*
X136973095Y-96443571D01*
X136973095Y-96967380D01*
X136973095Y-96443571D02*
X137020714Y-96348333D01*
X137115952Y-96300714D01*
X137258809Y-96300714D01*
X137354047Y-96348333D01*
X137401666Y-96443571D01*
X137401666Y-96967380D01*
X138258809Y-96919761D02*
X138163571Y-96967380D01*
X137973095Y-96967380D01*
X137877857Y-96919761D01*
X137830238Y-96824523D01*
X137830238Y-96443571D01*
X137877857Y-96348333D01*
X137973095Y-96300714D01*
X138163571Y-96300714D01*
X138258809Y-96348333D01*
X138306428Y-96443571D01*
X138306428Y-96538809D01*
X137830238Y-96634047D01*
X139163571Y-96919761D02*
X139068333Y-96967380D01*
X138877857Y-96967380D01*
X138782619Y-96919761D01*
X138735000Y-96872142D01*
X138687380Y-96776904D01*
X138687380Y-96491190D01*
X138735000Y-96395952D01*
X138782619Y-96348333D01*
X138877857Y-96300714D01*
X139068333Y-96300714D01*
X139163571Y-96348333D01*
X139592142Y-96967380D02*
X139592142Y-95967380D01*
X140020714Y-96967380D02*
X140020714Y-96443571D01*
X139973095Y-96348333D01*
X139877857Y-96300714D01*
X139735000Y-96300714D01*
X139639761Y-96348333D01*
X139592142Y-96395952D01*
X140496904Y-96586428D02*
X141258809Y-96586428D01*
X141639761Y-96300714D02*
X141877857Y-96967380D01*
X142115952Y-96300714D01*
X142401666Y-95967380D02*
X143020714Y-95967380D01*
X142687380Y-96348333D01*
X142830238Y-96348333D01*
X142925476Y-96395952D01*
X142973095Y-96443571D01*
X143020714Y-96538809D01*
X143020714Y-96776904D01*
X142973095Y-96872142D01*
X142925476Y-96919761D01*
X142830238Y-96967380D01*
X142544523Y-96967380D01*
X142449285Y-96919761D01*
X142401666Y-96872142D01*
X143449285Y-96586428D02*
X144211190Y-96586428D01*
X145115952Y-96967380D02*
X145115952Y-96443571D01*
X145068333Y-96348333D01*
X144973095Y-96300714D01*
X144782619Y-96300714D01*
X144687380Y-96348333D01*
X145115952Y-96919761D02*
X145020714Y-96967380D01*
X144782619Y-96967380D01*
X144687380Y-96919761D01*
X144639761Y-96824523D01*
X144639761Y-96729285D01*
X144687380Y-96634047D01*
X144782619Y-96586428D01*
X145020714Y-96586428D01*
X145115952Y-96538809D01*
X145592142Y-96967380D02*
X145592142Y-96300714D01*
X145592142Y-96491190D02*
X145639761Y-96395952D01*
X145687380Y-96348333D01*
X145782619Y-96300714D01*
X145877857Y-96300714D01*
X146211190Y-96967380D02*
X146211190Y-96300714D01*
X146211190Y-95967380D02*
X146163571Y-96015000D01*
X146211190Y-96062619D01*
X146258809Y-96015000D01*
X146211190Y-95967380D01*
X146211190Y-96062619D01*
X147115952Y-96967380D02*
X147115952Y-96443571D01*
X147068333Y-96348333D01*
X146973095Y-96300714D01*
X146782619Y-96300714D01*
X146687380Y-96348333D01*
X147115952Y-96919761D02*
X147020714Y-96967380D01*
X146782619Y-96967380D01*
X146687380Y-96919761D01*
X146639761Y-96824523D01*
X146639761Y-96729285D01*
X146687380Y-96634047D01*
X146782619Y-96586428D01*
X147020714Y-96586428D01*
X147115952Y-96538809D01*
X148020714Y-96967380D02*
X148020714Y-95967380D01*
X148020714Y-96919761D02*
X147925476Y-96967380D01*
X147735000Y-96967380D01*
X147639761Y-96919761D01*
X147592142Y-96872142D01*
X147544523Y-96776904D01*
X147544523Y-96491190D01*
X147592142Y-96395952D01*
X147639761Y-96348333D01*
X147735000Y-96300714D01*
X147925476Y-96300714D01*
X148020714Y-96348333D01*
X148496904Y-96300714D02*
X148496904Y-96967380D01*
X148496904Y-96395952D02*
X148544523Y-96348333D01*
X148639761Y-96300714D01*
X148782619Y-96300714D01*
X148877857Y-96348333D01*
X148925476Y-96443571D01*
X148925476Y-96967380D01*
X149782619Y-96919761D02*
X149687380Y-96967380D01*
X149496904Y-96967380D01*
X149401666Y-96919761D01*
X149354047Y-96824523D01*
X149354047Y-96443571D01*
X149401666Y-96348333D01*
X149496904Y-96300714D01*
X149687380Y-96300714D01*
X149782619Y-96348333D01*
X149830238Y-96443571D01*
X149830238Y-96538809D01*
X149354047Y-96634047D01*
X98076666Y-122142380D02*
X97743333Y-121666190D01*
X97505238Y-122142380D02*
X97505238Y-121142380D01*
X97886190Y-121142380D01*
X97981428Y-121190000D01*
X98029047Y-121237619D01*
X98076666Y-121332857D01*
X98076666Y-121475714D01*
X98029047Y-121570952D01*
X97981428Y-121618571D01*
X97886190Y-121666190D01*
X97505238Y-121666190D01*
X98505238Y-121618571D02*
X98838571Y-121618571D01*
X98981428Y-122142380D02*
X98505238Y-122142380D01*
X98505238Y-121142380D01*
X98981428Y-121142380D01*
X99743333Y-121618571D02*
X99410000Y-121618571D01*
X99410000Y-122142380D02*
X99410000Y-121142380D01*
X99886190Y-121142380D01*
X100410000Y-121142380D02*
X100410000Y-121380476D01*
X100171904Y-121285238D02*
X100410000Y-121380476D01*
X100648095Y-121285238D01*
X100267142Y-121570952D02*
X100410000Y-121380476D01*
X100552857Y-121570952D01*
X101171904Y-121142380D02*
X101171904Y-121380476D01*
X100933809Y-121285238D02*
X101171904Y-121380476D01*
X101410000Y-121285238D01*
X101029047Y-121570952D02*
X101171904Y-121380476D01*
X101314761Y-121570952D01*
X169776666Y-74342380D02*
X169443333Y-73866190D01*
X169205238Y-74342380D02*
X169205238Y-73342380D01*
X169586190Y-73342380D01*
X169681428Y-73390000D01*
X169729047Y-73437619D01*
X169776666Y-73532857D01*
X169776666Y-73675714D01*
X169729047Y-73770952D01*
X169681428Y-73818571D01*
X169586190Y-73866190D01*
X169205238Y-73866190D01*
X170205238Y-73818571D02*
X170538571Y-73818571D01*
X170681428Y-74342380D02*
X170205238Y-74342380D01*
X170205238Y-73342380D01*
X170681428Y-73342380D01*
X171443333Y-73818571D02*
X171110000Y-73818571D01*
X171110000Y-74342380D02*
X171110000Y-73342380D01*
X171586190Y-73342380D01*
X172110000Y-73342380D02*
X172110000Y-73580476D01*
X171871904Y-73485238D02*
X172110000Y-73580476D01*
X172348095Y-73485238D01*
X171967142Y-73770952D02*
X172110000Y-73580476D01*
X172252857Y-73770952D01*
X172871904Y-73342380D02*
X172871904Y-73580476D01*
X172633809Y-73485238D02*
X172871904Y-73580476D01*
X173110000Y-73485238D01*
X172729047Y-73770952D02*
X172871904Y-73580476D01*
X173014761Y-73770952D01*
X169776666Y-146042380D02*
X169443333Y-145566190D01*
X169205238Y-146042380D02*
X169205238Y-145042380D01*
X169586190Y-145042380D01*
X169681428Y-145090000D01*
X169729047Y-145137619D01*
X169776666Y-145232857D01*
X169776666Y-145375714D01*
X169729047Y-145470952D01*
X169681428Y-145518571D01*
X169586190Y-145566190D01*
X169205238Y-145566190D01*
X170205238Y-145518571D02*
X170538571Y-145518571D01*
X170681428Y-146042380D02*
X170205238Y-146042380D01*
X170205238Y-145042380D01*
X170681428Y-145042380D01*
X171443333Y-145518571D02*
X171110000Y-145518571D01*
X171110000Y-146042380D02*
X171110000Y-145042380D01*
X171586190Y-145042380D01*
X172110000Y-145042380D02*
X172110000Y-145280476D01*
X171871904Y-145185238D02*
X172110000Y-145280476D01*
X172348095Y-145185238D01*
X171967142Y-145470952D02*
X172110000Y-145280476D01*
X172252857Y-145470952D01*
X172871904Y-145042380D02*
X172871904Y-145280476D01*
X172633809Y-145185238D02*
X172871904Y-145280476D01*
X173110000Y-145185238D01*
X172729047Y-145470952D02*
X172871904Y-145280476D01*
X173014761Y-145470952D01*
X145876666Y-146042380D02*
X145543333Y-145566190D01*
X145305238Y-146042380D02*
X145305238Y-145042380D01*
X145686190Y-145042380D01*
X145781428Y-145090000D01*
X145829047Y-145137619D01*
X145876666Y-145232857D01*
X145876666Y-145375714D01*
X145829047Y-145470952D01*
X145781428Y-145518571D01*
X145686190Y-145566190D01*
X145305238Y-145566190D01*
X146305238Y-145518571D02*
X146638571Y-145518571D01*
X146781428Y-146042380D02*
X146305238Y-146042380D01*
X146305238Y-145042380D01*
X146781428Y-145042380D01*
X147543333Y-145518571D02*
X147210000Y-145518571D01*
X147210000Y-146042380D02*
X147210000Y-145042380D01*
X147686190Y-145042380D01*
X148210000Y-145042380D02*
X148210000Y-145280476D01*
X147971904Y-145185238D02*
X148210000Y-145280476D01*
X148448095Y-145185238D01*
X148067142Y-145470952D02*
X148210000Y-145280476D01*
X148352857Y-145470952D01*
X148971904Y-145042380D02*
X148971904Y-145280476D01*
X148733809Y-145185238D02*
X148971904Y-145280476D01*
X149210000Y-145185238D01*
X148829047Y-145470952D02*
X148971904Y-145280476D01*
X149114761Y-145470952D01*
X159776666Y-84342380D02*
X159443333Y-83866190D01*
X159205238Y-84342380D02*
X159205238Y-83342380D01*
X159586190Y-83342380D01*
X159681428Y-83390000D01*
X159729047Y-83437619D01*
X159776666Y-83532857D01*
X159776666Y-83675714D01*
X159729047Y-83770952D01*
X159681428Y-83818571D01*
X159586190Y-83866190D01*
X159205238Y-83866190D01*
X160205238Y-83818571D02*
X160538571Y-83818571D01*
X160681428Y-84342380D02*
X160205238Y-84342380D01*
X160205238Y-83342380D01*
X160681428Y-83342380D01*
X161443333Y-83818571D02*
X161110000Y-83818571D01*
X161110000Y-84342380D02*
X161110000Y-83342380D01*
X161586190Y-83342380D01*
X162110000Y-83342380D02*
X162110000Y-83580476D01*
X161871904Y-83485238D02*
X162110000Y-83580476D01*
X162348095Y-83485238D01*
X161967142Y-83770952D02*
X162110000Y-83580476D01*
X162252857Y-83770952D01*
X162871904Y-83342380D02*
X162871904Y-83580476D01*
X162633809Y-83485238D02*
X162871904Y-83580476D01*
X163110000Y-83485238D01*
X162729047Y-83770952D02*
X162871904Y-83580476D01*
X163014761Y-83770952D01*
X98076666Y-146042380D02*
X97743333Y-145566190D01*
X97505238Y-146042380D02*
X97505238Y-145042380D01*
X97886190Y-145042380D01*
X97981428Y-145090000D01*
X98029047Y-145137619D01*
X98076666Y-145232857D01*
X98076666Y-145375714D01*
X98029047Y-145470952D01*
X97981428Y-145518571D01*
X97886190Y-145566190D01*
X97505238Y-145566190D01*
X98505238Y-145518571D02*
X98838571Y-145518571D01*
X98981428Y-146042380D02*
X98505238Y-146042380D01*
X98505238Y-145042380D01*
X98981428Y-145042380D01*
X99743333Y-145518571D02*
X99410000Y-145518571D01*
X99410000Y-146042380D02*
X99410000Y-145042380D01*
X99886190Y-145042380D01*
X100410000Y-145042380D02*
X100410000Y-145280476D01*
X100171904Y-145185238D02*
X100410000Y-145280476D01*
X100648095Y-145185238D01*
X100267142Y-145470952D02*
X100410000Y-145280476D01*
X100552857Y-145470952D01*
X101171904Y-145042380D02*
X101171904Y-145280476D01*
X100933809Y-145185238D02*
X101171904Y-145280476D01*
X101410000Y-145185238D01*
X101029047Y-145470952D02*
X101171904Y-145280476D01*
X101314761Y-145470952D01*
X169776666Y-122142380D02*
X169443333Y-121666190D01*
X169205238Y-122142380D02*
X169205238Y-121142380D01*
X169586190Y-121142380D01*
X169681428Y-121190000D01*
X169729047Y-121237619D01*
X169776666Y-121332857D01*
X169776666Y-121475714D01*
X169729047Y-121570952D01*
X169681428Y-121618571D01*
X169586190Y-121666190D01*
X169205238Y-121666190D01*
X170205238Y-121618571D02*
X170538571Y-121618571D01*
X170681428Y-122142380D02*
X170205238Y-122142380D01*
X170205238Y-121142380D01*
X170681428Y-121142380D01*
X171443333Y-121618571D02*
X171110000Y-121618571D01*
X171110000Y-122142380D02*
X171110000Y-121142380D01*
X171586190Y-121142380D01*
X172110000Y-121142380D02*
X172110000Y-121380476D01*
X171871904Y-121285238D02*
X172110000Y-121380476D01*
X172348095Y-121285238D01*
X171967142Y-121570952D02*
X172110000Y-121380476D01*
X172252857Y-121570952D01*
X172871904Y-121142380D02*
X172871904Y-121380476D01*
X172633809Y-121285238D02*
X172871904Y-121380476D01*
X173110000Y-121285238D01*
X172729047Y-121570952D02*
X172871904Y-121380476D01*
X173014761Y-121570952D01*
X145876666Y-74342380D02*
X145543333Y-73866190D01*
X145305238Y-74342380D02*
X145305238Y-73342380D01*
X145686190Y-73342380D01*
X145781428Y-73390000D01*
X145829047Y-73437619D01*
X145876666Y-73532857D01*
X145876666Y-73675714D01*
X145829047Y-73770952D01*
X145781428Y-73818571D01*
X145686190Y-73866190D01*
X145305238Y-73866190D01*
X146305238Y-73818571D02*
X146638571Y-73818571D01*
X146781428Y-74342380D02*
X146305238Y-74342380D01*
X146305238Y-73342380D01*
X146781428Y-73342380D01*
X147543333Y-73818571D02*
X147210000Y-73818571D01*
X147210000Y-74342380D02*
X147210000Y-73342380D01*
X147686190Y-73342380D01*
X148210000Y-73342380D02*
X148210000Y-73580476D01*
X147971904Y-73485238D02*
X148210000Y-73580476D01*
X148448095Y-73485238D01*
X148067142Y-73770952D02*
X148210000Y-73580476D01*
X148352857Y-73770952D01*
X148971904Y-73342380D02*
X148971904Y-73580476D01*
X148733809Y-73485238D02*
X148971904Y-73580476D01*
X149210000Y-73485238D01*
X148829047Y-73770952D02*
X148971904Y-73580476D01*
X149114761Y-73770952D01*
X98076666Y-98242380D02*
X97743333Y-97766190D01*
X97505238Y-98242380D02*
X97505238Y-97242380D01*
X97886190Y-97242380D01*
X97981428Y-97290000D01*
X98029047Y-97337619D01*
X98076666Y-97432857D01*
X98076666Y-97575714D01*
X98029047Y-97670952D01*
X97981428Y-97718571D01*
X97886190Y-97766190D01*
X97505238Y-97766190D01*
X98505238Y-97718571D02*
X98838571Y-97718571D01*
X98981428Y-98242380D02*
X98505238Y-98242380D01*
X98505238Y-97242380D01*
X98981428Y-97242380D01*
X99743333Y-97718571D02*
X99410000Y-97718571D01*
X99410000Y-98242380D02*
X99410000Y-97242380D01*
X99886190Y-97242380D01*
X100410000Y-97242380D02*
X100410000Y-97480476D01*
X100171904Y-97385238D02*
X100410000Y-97480476D01*
X100648095Y-97385238D01*
X100267142Y-97670952D02*
X100410000Y-97480476D01*
X100552857Y-97670952D01*
X101171904Y-97242380D02*
X101171904Y-97480476D01*
X100933809Y-97385238D02*
X101171904Y-97480476D01*
X101410000Y-97385238D01*
X101029047Y-97670952D02*
X101171904Y-97480476D01*
X101314761Y-97670952D01*
X121976666Y-146042380D02*
X121643333Y-145566190D01*
X121405238Y-146042380D02*
X121405238Y-145042380D01*
X121786190Y-145042380D01*
X121881428Y-145090000D01*
X121929047Y-145137619D01*
X121976666Y-145232857D01*
X121976666Y-145375714D01*
X121929047Y-145470952D01*
X121881428Y-145518571D01*
X121786190Y-145566190D01*
X121405238Y-145566190D01*
X122405238Y-145518571D02*
X122738571Y-145518571D01*
X122881428Y-146042380D02*
X122405238Y-146042380D01*
X122405238Y-145042380D01*
X122881428Y-145042380D01*
X123643333Y-145518571D02*
X123310000Y-145518571D01*
X123310000Y-146042380D02*
X123310000Y-145042380D01*
X123786190Y-145042380D01*
X124310000Y-145042380D02*
X124310000Y-145280476D01*
X124071904Y-145185238D02*
X124310000Y-145280476D01*
X124548095Y-145185238D01*
X124167142Y-145470952D02*
X124310000Y-145280476D01*
X124452857Y-145470952D01*
X125071904Y-145042380D02*
X125071904Y-145280476D01*
X124833809Y-145185238D02*
X125071904Y-145280476D01*
X125310000Y-145185238D01*
X124929047Y-145470952D02*
X125071904Y-145280476D01*
X125214761Y-145470952D01*
X121976666Y-74342380D02*
X121643333Y-73866190D01*
X121405238Y-74342380D02*
X121405238Y-73342380D01*
X121786190Y-73342380D01*
X121881428Y-73390000D01*
X121929047Y-73437619D01*
X121976666Y-73532857D01*
X121976666Y-73675714D01*
X121929047Y-73770952D01*
X121881428Y-73818571D01*
X121786190Y-73866190D01*
X121405238Y-73866190D01*
X122405238Y-73818571D02*
X122738571Y-73818571D01*
X122881428Y-74342380D02*
X122405238Y-74342380D01*
X122405238Y-73342380D01*
X122881428Y-73342380D01*
X123643333Y-73818571D02*
X123310000Y-73818571D01*
X123310000Y-74342380D02*
X123310000Y-73342380D01*
X123786190Y-73342380D01*
X124310000Y-73342380D02*
X124310000Y-73580476D01*
X124071904Y-73485238D02*
X124310000Y-73580476D01*
X124548095Y-73485238D01*
X124167142Y-73770952D02*
X124310000Y-73580476D01*
X124452857Y-73770952D01*
X125071904Y-73342380D02*
X125071904Y-73580476D01*
X124833809Y-73485238D02*
X125071904Y-73580476D01*
X125310000Y-73485238D01*
X124929047Y-73770952D02*
X125071904Y-73580476D01*
X125214761Y-73770952D01*
X98076666Y-74342380D02*
X97743333Y-73866190D01*
X97505238Y-74342380D02*
X97505238Y-73342380D01*
X97886190Y-73342380D01*
X97981428Y-73390000D01*
X98029047Y-73437619D01*
X98076666Y-73532857D01*
X98076666Y-73675714D01*
X98029047Y-73770952D01*
X97981428Y-73818571D01*
X97886190Y-73866190D01*
X97505238Y-73866190D01*
X98505238Y-73818571D02*
X98838571Y-73818571D01*
X98981428Y-74342380D02*
X98505238Y-74342380D01*
X98505238Y-73342380D01*
X98981428Y-73342380D01*
X99743333Y-73818571D02*
X99410000Y-73818571D01*
X99410000Y-74342380D02*
X99410000Y-73342380D01*
X99886190Y-73342380D01*
X100410000Y-73342380D02*
X100410000Y-73580476D01*
X100171904Y-73485238D02*
X100410000Y-73580476D01*
X100648095Y-73485238D01*
X100267142Y-73770952D02*
X100410000Y-73580476D01*
X100552857Y-73770952D01*
X101171904Y-73342380D02*
X101171904Y-73580476D01*
X100933809Y-73485238D02*
X101171904Y-73580476D01*
X101410000Y-73485238D01*
X101029047Y-73770952D02*
X101171904Y-73580476D01*
X101314761Y-73770952D01*
X169776666Y-98242380D02*
X169443333Y-97766190D01*
X169205238Y-98242380D02*
X169205238Y-97242380D01*
X169586190Y-97242380D01*
X169681428Y-97290000D01*
X169729047Y-97337619D01*
X169776666Y-97432857D01*
X169776666Y-97575714D01*
X169729047Y-97670952D01*
X169681428Y-97718571D01*
X169586190Y-97766190D01*
X169205238Y-97766190D01*
X170205238Y-97718571D02*
X170538571Y-97718571D01*
X170681428Y-98242380D02*
X170205238Y-98242380D01*
X170205238Y-97242380D01*
X170681428Y-97242380D01*
X171443333Y-97718571D02*
X171110000Y-97718571D01*
X171110000Y-98242380D02*
X171110000Y-97242380D01*
X171586190Y-97242380D01*
X172110000Y-97242380D02*
X172110000Y-97480476D01*
X171871904Y-97385238D02*
X172110000Y-97480476D01*
X172348095Y-97385238D01*
X171967142Y-97670952D02*
X172110000Y-97480476D01*
X172252857Y-97670952D01*
X172871904Y-97242380D02*
X172871904Y-97480476D01*
X172633809Y-97385238D02*
X172871904Y-97480476D01*
X173110000Y-97385238D01*
X172729047Y-97670952D02*
X172871904Y-97480476D01*
X173014761Y-97670952D01*
X149776666Y-126042380D02*
X149443333Y-125566190D01*
X149205238Y-126042380D02*
X149205238Y-125042380D01*
X149586190Y-125042380D01*
X149681428Y-125090000D01*
X149729047Y-125137619D01*
X149776666Y-125232857D01*
X149776666Y-125375714D01*
X149729047Y-125470952D01*
X149681428Y-125518571D01*
X149586190Y-125566190D01*
X149205238Y-125566190D01*
X150205238Y-125518571D02*
X150538571Y-125518571D01*
X150681428Y-126042380D02*
X150205238Y-126042380D01*
X150205238Y-125042380D01*
X150681428Y-125042380D01*
X151443333Y-125518571D02*
X151110000Y-125518571D01*
X151110000Y-126042380D02*
X151110000Y-125042380D01*
X151586190Y-125042380D01*
X152110000Y-125042380D02*
X152110000Y-125280476D01*
X151871904Y-125185238D02*
X152110000Y-125280476D01*
X152348095Y-125185238D01*
X151967142Y-125470952D02*
X152110000Y-125280476D01*
X152252857Y-125470952D01*
X152871904Y-125042380D02*
X152871904Y-125280476D01*
X152633809Y-125185238D02*
X152871904Y-125280476D01*
X153110000Y-125185238D01*
X152729047Y-125470952D02*
X152871904Y-125280476D01*
X153014761Y-125470952D01*
X149776666Y-94342380D02*
X149443333Y-93866190D01*
X149205238Y-94342380D02*
X149205238Y-93342380D01*
X149586190Y-93342380D01*
X149681428Y-93390000D01*
X149729047Y-93437619D01*
X149776666Y-93532857D01*
X149776666Y-93675714D01*
X149729047Y-93770952D01*
X149681428Y-93818571D01*
X149586190Y-93866190D01*
X149205238Y-93866190D01*
X150205238Y-93818571D02*
X150538571Y-93818571D01*
X150681428Y-94342380D02*
X150205238Y-94342380D01*
X150205238Y-93342380D01*
X150681428Y-93342380D01*
X151443333Y-93818571D02*
X151110000Y-93818571D01*
X151110000Y-94342380D02*
X151110000Y-93342380D01*
X151586190Y-93342380D01*
X152110000Y-93342380D02*
X152110000Y-93580476D01*
X151871904Y-93485238D02*
X152110000Y-93580476D01*
X152348095Y-93485238D01*
X151967142Y-93770952D02*
X152110000Y-93580476D01*
X152252857Y-93770952D01*
X152871904Y-93342380D02*
X152871904Y-93580476D01*
X152633809Y-93485238D02*
X152871904Y-93580476D01*
X153110000Y-93485238D01*
X152729047Y-93770952D02*
X152871904Y-93580476D01*
X153014761Y-93770952D01*
X118076666Y-126042380D02*
X117743333Y-125566190D01*
X117505238Y-126042380D02*
X117505238Y-125042380D01*
X117886190Y-125042380D01*
X117981428Y-125090000D01*
X118029047Y-125137619D01*
X118076666Y-125232857D01*
X118076666Y-125375714D01*
X118029047Y-125470952D01*
X117981428Y-125518571D01*
X117886190Y-125566190D01*
X117505238Y-125566190D01*
X118505238Y-125518571D02*
X118838571Y-125518571D01*
X118981428Y-126042380D02*
X118505238Y-126042380D01*
X118505238Y-125042380D01*
X118981428Y-125042380D01*
X119743333Y-125518571D02*
X119410000Y-125518571D01*
X119410000Y-126042380D02*
X119410000Y-125042380D01*
X119886190Y-125042380D01*
X120410000Y-125042380D02*
X120410000Y-125280476D01*
X120171904Y-125185238D02*
X120410000Y-125280476D01*
X120648095Y-125185238D01*
X120267142Y-125470952D02*
X120410000Y-125280476D01*
X120552857Y-125470952D01*
X121171904Y-125042380D02*
X121171904Y-125280476D01*
X120933809Y-125185238D02*
X121171904Y-125280476D01*
X121410000Y-125185238D01*
X121029047Y-125470952D02*
X121171904Y-125280476D01*
X121314761Y-125470952D01*
X118076666Y-94342380D02*
X117743333Y-93866190D01*
X117505238Y-94342380D02*
X117505238Y-93342380D01*
X117886190Y-93342380D01*
X117981428Y-93390000D01*
X118029047Y-93437619D01*
X118076666Y-93532857D01*
X118076666Y-93675714D01*
X118029047Y-93770952D01*
X117981428Y-93818571D01*
X117886190Y-93866190D01*
X117505238Y-93866190D01*
X118505238Y-93818571D02*
X118838571Y-93818571D01*
X118981428Y-94342380D02*
X118505238Y-94342380D01*
X118505238Y-93342380D01*
X118981428Y-93342380D01*
X119743333Y-93818571D02*
X119410000Y-93818571D01*
X119410000Y-94342380D02*
X119410000Y-93342380D01*
X119886190Y-93342380D01*
X120410000Y-93342380D02*
X120410000Y-93580476D01*
X120171904Y-93485238D02*
X120410000Y-93580476D01*
X120648095Y-93485238D01*
X120267142Y-93770952D02*
X120410000Y-93580476D01*
X120552857Y-93770952D01*
X121171904Y-93342380D02*
X121171904Y-93580476D01*
X120933809Y-93485238D02*
X121171904Y-93580476D01*
X121410000Y-93485238D01*
X121029047Y-93770952D02*
X121171904Y-93580476D01*
X121314761Y-93770952D01*
X159776666Y-136042380D02*
X159443333Y-135566190D01*
X159205238Y-136042380D02*
X159205238Y-135042380D01*
X159586190Y-135042380D01*
X159681428Y-135090000D01*
X159729047Y-135137619D01*
X159776666Y-135232857D01*
X159776666Y-135375714D01*
X159729047Y-135470952D01*
X159681428Y-135518571D01*
X159586190Y-135566190D01*
X159205238Y-135566190D01*
X160205238Y-135518571D02*
X160538571Y-135518571D01*
X160681428Y-136042380D02*
X160205238Y-136042380D01*
X160205238Y-135042380D01*
X160681428Y-135042380D01*
X161443333Y-135518571D02*
X161110000Y-135518571D01*
X161110000Y-136042380D02*
X161110000Y-135042380D01*
X161586190Y-135042380D01*
X162110000Y-135042380D02*
X162110000Y-135280476D01*
X161871904Y-135185238D02*
X162110000Y-135280476D01*
X162348095Y-135185238D01*
X161967142Y-135470952D02*
X162110000Y-135280476D01*
X162252857Y-135470952D01*
X162871904Y-135042380D02*
X162871904Y-135280476D01*
X162633809Y-135185238D02*
X162871904Y-135280476D01*
X163110000Y-135185238D01*
X162729047Y-135470952D02*
X162871904Y-135280476D01*
X163014761Y-135470952D01*
X118066666Y-42902380D02*
X117733333Y-42426190D01*
X117495238Y-42902380D02*
X117495238Y-41902380D01*
X117876190Y-41902380D01*
X117971428Y-41950000D01*
X118019047Y-41997619D01*
X118066666Y-42092857D01*
X118066666Y-42235714D01*
X118019047Y-42330952D01*
X117971428Y-42378571D01*
X117876190Y-42426190D01*
X117495238Y-42426190D01*
X118495238Y-42378571D02*
X118828571Y-42378571D01*
X118971428Y-42902380D02*
X118495238Y-42902380D01*
X118495238Y-41902380D01*
X118971428Y-41902380D01*
X119733333Y-42378571D02*
X119400000Y-42378571D01*
X119400000Y-42902380D02*
X119400000Y-41902380D01*
X119876190Y-41902380D01*
X120400000Y-41902380D02*
X120400000Y-42140476D01*
X120161904Y-42045238D02*
X120400000Y-42140476D01*
X120638095Y-42045238D01*
X120257142Y-42330952D02*
X120400000Y-42140476D01*
X120542857Y-42330952D01*
X121161904Y-41902380D02*
X121161904Y-42140476D01*
X120923809Y-42045238D02*
X121161904Y-42140476D01*
X121400000Y-42045238D01*
X121019047Y-42330952D02*
X121161904Y-42140476D01*
X121304761Y-42330952D01*
X4566666Y-104952380D02*
X4233333Y-104476190D01*
X3995238Y-104952380D02*
X3995238Y-103952380D01*
X4376190Y-103952380D01*
X4471428Y-104000000D01*
X4519047Y-104047619D01*
X4566666Y-104142857D01*
X4566666Y-104285714D01*
X4519047Y-104380952D01*
X4471428Y-104428571D01*
X4376190Y-104476190D01*
X3995238Y-104476190D01*
X4995238Y-104428571D02*
X5328571Y-104428571D01*
X5471428Y-104952380D02*
X4995238Y-104952380D01*
X4995238Y-103952380D01*
X5471428Y-103952380D01*
X6233333Y-104428571D02*
X5900000Y-104428571D01*
X5900000Y-104952380D02*
X5900000Y-103952380D01*
X6376190Y-103952380D01*
X6900000Y-103952380D02*
X6900000Y-104190476D01*
X6661904Y-104095238D02*
X6900000Y-104190476D01*
X7138095Y-104095238D01*
X6757142Y-104380952D02*
X6900000Y-104190476D01*
X7042857Y-104380952D01*
X7661904Y-103952380D02*
X7661904Y-104190476D01*
X7423809Y-104095238D02*
X7661904Y-104190476D01*
X7900000Y-104095238D01*
X7519047Y-104380952D02*
X7661904Y-104190476D01*
X7804761Y-104380952D01*
X76266666Y-104952380D02*
X75933333Y-104476190D01*
X75695238Y-104952380D02*
X75695238Y-103952380D01*
X76076190Y-103952380D01*
X76171428Y-104000000D01*
X76219047Y-104047619D01*
X76266666Y-104142857D01*
X76266666Y-104285714D01*
X76219047Y-104380952D01*
X76171428Y-104428571D01*
X76076190Y-104476190D01*
X75695238Y-104476190D01*
X76695238Y-104428571D02*
X77028571Y-104428571D01*
X77171428Y-104952380D02*
X76695238Y-104952380D01*
X76695238Y-103952380D01*
X77171428Y-103952380D01*
X77933333Y-104428571D02*
X77600000Y-104428571D01*
X77600000Y-104952380D02*
X77600000Y-103952380D01*
X78076190Y-103952380D01*
X78600000Y-103952380D02*
X78600000Y-104190476D01*
X78361904Y-104095238D02*
X78600000Y-104190476D01*
X78838095Y-104095238D01*
X78457142Y-104380952D02*
X78600000Y-104190476D01*
X78742857Y-104380952D01*
X79361904Y-103952380D02*
X79361904Y-104190476D01*
X79123809Y-104095238D02*
X79361904Y-104190476D01*
X79600000Y-104095238D01*
X79219047Y-104380952D02*
X79361904Y-104190476D01*
X79504761Y-104380952D01*
X76266666Y-176652380D02*
X75933333Y-176176190D01*
X75695238Y-176652380D02*
X75695238Y-175652380D01*
X76076190Y-175652380D01*
X76171428Y-175700000D01*
X76219047Y-175747619D01*
X76266666Y-175842857D01*
X76266666Y-175985714D01*
X76219047Y-176080952D01*
X76171428Y-176128571D01*
X76076190Y-176176190D01*
X75695238Y-176176190D01*
X76695238Y-176128571D02*
X77028571Y-176128571D01*
X77171428Y-176652380D02*
X76695238Y-176652380D01*
X76695238Y-175652380D01*
X77171428Y-175652380D01*
X77933333Y-176128571D02*
X77600000Y-176128571D01*
X77600000Y-176652380D02*
X77600000Y-175652380D01*
X78076190Y-175652380D01*
X78600000Y-175652380D02*
X78600000Y-175890476D01*
X78361904Y-175795238D02*
X78600000Y-175890476D01*
X78838095Y-175795238D01*
X78457142Y-176080952D02*
X78600000Y-175890476D01*
X78742857Y-176080952D01*
X79361904Y-175652380D02*
X79361904Y-175890476D01*
X79123809Y-175795238D02*
X79361904Y-175890476D01*
X79600000Y-175795238D01*
X79219047Y-176080952D02*
X79361904Y-175890476D01*
X79504761Y-176080952D01*
X4566666Y-176652380D02*
X4233333Y-176176190D01*
X3995238Y-176652380D02*
X3995238Y-175652380D01*
X4376190Y-175652380D01*
X4471428Y-175700000D01*
X4519047Y-175747619D01*
X4566666Y-175842857D01*
X4566666Y-175985714D01*
X4519047Y-176080952D01*
X4471428Y-176128571D01*
X4376190Y-176176190D01*
X3995238Y-176176190D01*
X4995238Y-176128571D02*
X5328571Y-176128571D01*
X5471428Y-176652380D02*
X4995238Y-176652380D01*
X4995238Y-175652380D01*
X5471428Y-175652380D01*
X6233333Y-176128571D02*
X5900000Y-176128571D01*
X5900000Y-176652380D02*
X5900000Y-175652380D01*
X6376190Y-175652380D01*
X6900000Y-175652380D02*
X6900000Y-175890476D01*
X6661904Y-175795238D02*
X6900000Y-175890476D01*
X7138095Y-175795238D01*
X6757142Y-176080952D02*
X6900000Y-175890476D01*
X7042857Y-176080952D01*
X7661904Y-175652380D02*
X7661904Y-175890476D01*
X7423809Y-175795238D02*
X7661904Y-175890476D01*
X7900000Y-175795238D01*
X7519047Y-176080952D02*
X7661904Y-175890476D01*
X7804761Y-176080952D01*
X123322360Y-41862629D02*
X122749940Y-42435049D01*
X122716269Y-42536064D01*
X122716269Y-42603407D01*
X122749940Y-42704423D01*
X122884627Y-42839110D01*
X122985643Y-42872781D01*
X123052986Y-42872781D01*
X123154001Y-42839110D01*
X123726421Y-42266690D01*
X123962123Y-42637079D02*
X124029467Y-42637079D01*
X124130482Y-42670751D01*
X124298841Y-42839110D01*
X124332513Y-42940125D01*
X124332513Y-43007468D01*
X124298841Y-43108484D01*
X124231497Y-43175827D01*
X124096810Y-43243171D01*
X123288688Y-43243171D01*
X123726421Y-43680903D01*
X124063139Y-44017621D02*
X124197826Y-44152308D01*
X124298841Y-44185980D01*
X124366184Y-44185980D01*
X124534543Y-44152308D01*
X124702902Y-44051293D01*
X124972276Y-43781919D01*
X125005948Y-43680903D01*
X125005948Y-43613560D01*
X124972276Y-43512545D01*
X124837589Y-43377858D01*
X124736574Y-43344186D01*
X124669230Y-43344186D01*
X124568215Y-43377858D01*
X124399856Y-43546216D01*
X124366184Y-43647232D01*
X124366184Y-43714575D01*
X124399856Y-43815590D01*
X124534543Y-43950277D01*
X124635558Y-43983949D01*
X124702902Y-43983949D01*
X124803917Y-43950277D01*
X149766666Y-11202380D02*
X149433333Y-10726190D01*
X149195238Y-11202380D02*
X149195238Y-10202380D01*
X149576190Y-10202380D01*
X149671428Y-10250000D01*
X149719047Y-10297619D01*
X149766666Y-10392857D01*
X149766666Y-10535714D01*
X149719047Y-10630952D01*
X149671428Y-10678571D01*
X149576190Y-10726190D01*
X149195238Y-10726190D01*
X150195238Y-10678571D02*
X150528571Y-10678571D01*
X150671428Y-11202380D02*
X150195238Y-11202380D01*
X150195238Y-10202380D01*
X150671428Y-10202380D01*
X151433333Y-10678571D02*
X151100000Y-10678571D01*
X151100000Y-11202380D02*
X151100000Y-10202380D01*
X151576190Y-10202380D01*
X152100000Y-10202380D02*
X152100000Y-10440476D01*
X151861904Y-10345238D02*
X152100000Y-10440476D01*
X152338095Y-10345238D01*
X151957142Y-10630952D02*
X152100000Y-10440476D01*
X152242857Y-10630952D01*
X152861904Y-10202380D02*
X152861904Y-10440476D01*
X152623809Y-10345238D02*
X152861904Y-10440476D01*
X153100000Y-10345238D01*
X152719047Y-10630952D02*
X152861904Y-10440476D01*
X153004761Y-10630952D01*
X169766666Y-15102380D02*
X169433333Y-14626190D01*
X169195238Y-15102380D02*
X169195238Y-14102380D01*
X169576190Y-14102380D01*
X169671428Y-14150000D01*
X169719047Y-14197619D01*
X169766666Y-14292857D01*
X169766666Y-14435714D01*
X169719047Y-14530952D01*
X169671428Y-14578571D01*
X169576190Y-14626190D01*
X169195238Y-14626190D01*
X170195238Y-14578571D02*
X170528571Y-14578571D01*
X170671428Y-15102380D02*
X170195238Y-15102380D01*
X170195238Y-14102380D01*
X170671428Y-14102380D01*
X171433333Y-14578571D02*
X171100000Y-14578571D01*
X171100000Y-15102380D02*
X171100000Y-14102380D01*
X171576190Y-14102380D01*
X172100000Y-14102380D02*
X172100000Y-14340476D01*
X171861904Y-14245238D02*
X172100000Y-14340476D01*
X172338095Y-14245238D01*
X171957142Y-14530952D02*
X172100000Y-14340476D01*
X172242857Y-14530952D01*
X172861904Y-14102380D02*
X172861904Y-14340476D01*
X172623809Y-14245238D02*
X172861904Y-14340476D01*
X173100000Y-14245238D01*
X172719047Y-14530952D02*
X172861904Y-14340476D01*
X173004761Y-14530952D01*
X149766666Y-42902380D02*
X149433333Y-42426190D01*
X149195238Y-42902380D02*
X149195238Y-41902380D01*
X149576190Y-41902380D01*
X149671428Y-41950000D01*
X149719047Y-41997619D01*
X149766666Y-42092857D01*
X149766666Y-42235714D01*
X149719047Y-42330952D01*
X149671428Y-42378571D01*
X149576190Y-42426190D01*
X149195238Y-42426190D01*
X150195238Y-42378571D02*
X150528571Y-42378571D01*
X150671428Y-42902380D02*
X150195238Y-42902380D01*
X150195238Y-41902380D01*
X150671428Y-41902380D01*
X151433333Y-42378571D02*
X151100000Y-42378571D01*
X151100000Y-42902380D02*
X151100000Y-41902380D01*
X151576190Y-41902380D01*
X152100000Y-41902380D02*
X152100000Y-42140476D01*
X151861904Y-42045238D02*
X152100000Y-42140476D01*
X152338095Y-42045238D01*
X151957142Y-42330952D02*
X152100000Y-42140476D01*
X152242857Y-42330952D01*
X152861904Y-41902380D02*
X152861904Y-42140476D01*
X152623809Y-42045238D02*
X152861904Y-42140476D01*
X153100000Y-42045238D01*
X152719047Y-42330952D02*
X152861904Y-42140476D01*
X153004761Y-42330952D01*
X118066666Y-11202380D02*
X117733333Y-10726190D01*
X117495238Y-11202380D02*
X117495238Y-10202380D01*
X117876190Y-10202380D01*
X117971428Y-10250000D01*
X118019047Y-10297619D01*
X118066666Y-10392857D01*
X118066666Y-10535714D01*
X118019047Y-10630952D01*
X117971428Y-10678571D01*
X117876190Y-10726190D01*
X117495238Y-10726190D01*
X118495238Y-10678571D02*
X118828571Y-10678571D01*
X118971428Y-11202380D02*
X118495238Y-11202380D01*
X118495238Y-10202380D01*
X118971428Y-10202380D01*
X119733333Y-10678571D02*
X119400000Y-10678571D01*
X119400000Y-11202380D02*
X119400000Y-10202380D01*
X119876190Y-10202380D01*
X120400000Y-10202380D02*
X120400000Y-10440476D01*
X120161904Y-10345238D02*
X120400000Y-10440476D01*
X120638095Y-10345238D01*
X120257142Y-10630952D02*
X120400000Y-10440476D01*
X120542857Y-10630952D01*
X121161904Y-10202380D02*
X121161904Y-10440476D01*
X120923809Y-10345238D02*
X121161904Y-10440476D01*
X121400000Y-10345238D01*
X121019047Y-10630952D02*
X121161904Y-10440476D01*
X121304761Y-10630952D01*
X159766666Y-52902380D02*
X159433333Y-52426190D01*
X159195238Y-52902380D02*
X159195238Y-51902380D01*
X159576190Y-51902380D01*
X159671428Y-51950000D01*
X159719047Y-51997619D01*
X159766666Y-52092857D01*
X159766666Y-52235714D01*
X159719047Y-52330952D01*
X159671428Y-52378571D01*
X159576190Y-52426190D01*
X159195238Y-52426190D01*
X160195238Y-52378571D02*
X160528571Y-52378571D01*
X160671428Y-52902380D02*
X160195238Y-52902380D01*
X160195238Y-51902380D01*
X160671428Y-51902380D01*
X161433333Y-52378571D02*
X161100000Y-52378571D01*
X161100000Y-52902380D02*
X161100000Y-51902380D01*
X161576190Y-51902380D01*
X162100000Y-51902380D02*
X162100000Y-52140476D01*
X161861904Y-52045238D02*
X162100000Y-52140476D01*
X162338095Y-52045238D01*
X161957142Y-52330952D02*
X162100000Y-52140476D01*
X162242857Y-52330952D01*
X162861904Y-51902380D02*
X162861904Y-52140476D01*
X162623809Y-52045238D02*
X162861904Y-52140476D01*
X163100000Y-52045238D01*
X162719047Y-52330952D02*
X162861904Y-52140476D01*
X163004761Y-52330952D01*
X108066666Y-52902380D02*
X107733333Y-52426190D01*
X107495238Y-52902380D02*
X107495238Y-51902380D01*
X107876190Y-51902380D01*
X107971428Y-51950000D01*
X108019047Y-51997619D01*
X108066666Y-52092857D01*
X108066666Y-52235714D01*
X108019047Y-52330952D01*
X107971428Y-52378571D01*
X107876190Y-52426190D01*
X107495238Y-52426190D01*
X108495238Y-52378571D02*
X108828571Y-52378571D01*
X108971428Y-52902380D02*
X108495238Y-52902380D01*
X108495238Y-51902380D01*
X108971428Y-51902380D01*
X109733333Y-52378571D02*
X109400000Y-52378571D01*
X109400000Y-52902380D02*
X109400000Y-51902380D01*
X109876190Y-51902380D01*
X110400000Y-51902380D02*
X110400000Y-52140476D01*
X110161904Y-52045238D02*
X110400000Y-52140476D01*
X110638095Y-52045238D01*
X110257142Y-52330952D02*
X110400000Y-52140476D01*
X110542857Y-52330952D01*
X111161904Y-51902380D02*
X111161904Y-52140476D01*
X110923809Y-52045238D02*
X111161904Y-52140476D01*
X111400000Y-52045238D01*
X111019047Y-52330952D02*
X111161904Y-52140476D01*
X111304761Y-52330952D01*
X159766666Y-1202380D02*
X159433333Y-726190D01*
X159195238Y-1202380D02*
X159195238Y-202380D01*
X159576190Y-202380D01*
X159671428Y-250000D01*
X159719047Y-297619D01*
X159766666Y-392857D01*
X159766666Y-535714D01*
X159719047Y-630952D01*
X159671428Y-678571D01*
X159576190Y-726190D01*
X159195238Y-726190D01*
X160195238Y-678571D02*
X160528571Y-678571D01*
X160671428Y-1202380D02*
X160195238Y-1202380D01*
X160195238Y-202380D01*
X160671428Y-202380D01*
X161433333Y-678571D02*
X161100000Y-678571D01*
X161100000Y-1202380D02*
X161100000Y-202380D01*
X161576190Y-202380D01*
X162100000Y-202380D02*
X162100000Y-440476D01*
X161861904Y-345238D02*
X162100000Y-440476D01*
X162338095Y-345238D01*
X161957142Y-630952D02*
X162100000Y-440476D01*
X162242857Y-630952D01*
X162861904Y-202380D02*
X162861904Y-440476D01*
X162623809Y-345238D02*
X162861904Y-440476D01*
X163100000Y-345238D01*
X162719047Y-630952D02*
X162861904Y-440476D01*
X163004761Y-630952D01*
X108066666Y-1202380D02*
X107733333Y-726190D01*
X107495238Y-1202380D02*
X107495238Y-202380D01*
X107876190Y-202380D01*
X107971428Y-250000D01*
X108019047Y-297619D01*
X108066666Y-392857D01*
X108066666Y-535714D01*
X108019047Y-630952D01*
X107971428Y-678571D01*
X107876190Y-726190D01*
X107495238Y-726190D01*
X108495238Y-678571D02*
X108828571Y-678571D01*
X108971428Y-1202380D02*
X108495238Y-1202380D01*
X108495238Y-202380D01*
X108971428Y-202380D01*
X109733333Y-678571D02*
X109400000Y-678571D01*
X109400000Y-1202380D02*
X109400000Y-202380D01*
X109876190Y-202380D01*
X110400000Y-202380D02*
X110400000Y-440476D01*
X110161904Y-345238D02*
X110400000Y-440476D01*
X110638095Y-345238D01*
X110257142Y-630952D02*
X110400000Y-440476D01*
X110542857Y-630952D01*
X111161904Y-202380D02*
X111161904Y-440476D01*
X110923809Y-345238D02*
X111161904Y-440476D01*
X111400000Y-345238D01*
X111019047Y-630952D02*
X111161904Y-440476D01*
X111304761Y-630952D01*
X169766666Y-62902380D02*
X169433333Y-62426190D01*
X169195238Y-62902380D02*
X169195238Y-61902380D01*
X169576190Y-61902380D01*
X169671428Y-61950000D01*
X169719047Y-61997619D01*
X169766666Y-62092857D01*
X169766666Y-62235714D01*
X169719047Y-62330952D01*
X169671428Y-62378571D01*
X169576190Y-62426190D01*
X169195238Y-62426190D01*
X170195238Y-62378571D02*
X170528571Y-62378571D01*
X170671428Y-62902380D02*
X170195238Y-62902380D01*
X170195238Y-61902380D01*
X170671428Y-61902380D01*
X171433333Y-62378571D02*
X171100000Y-62378571D01*
X171100000Y-62902380D02*
X171100000Y-61902380D01*
X171576190Y-61902380D01*
X172100000Y-61902380D02*
X172100000Y-62140476D01*
X171861904Y-62045238D02*
X172100000Y-62140476D01*
X172338095Y-62045238D01*
X171957142Y-62330952D02*
X172100000Y-62140476D01*
X172242857Y-62330952D01*
X172861904Y-61902380D02*
X172861904Y-62140476D01*
X172623809Y-62045238D02*
X172861904Y-62140476D01*
X173100000Y-62045238D01*
X172719047Y-62330952D02*
X172861904Y-62140476D01*
X173004761Y-62330952D01*
X145866666Y-62902380D02*
X145533333Y-62426190D01*
X145295238Y-62902380D02*
X145295238Y-61902380D01*
X145676190Y-61902380D01*
X145771428Y-61950000D01*
X145819047Y-61997619D01*
X145866666Y-62092857D01*
X145866666Y-62235714D01*
X145819047Y-62330952D01*
X145771428Y-62378571D01*
X145676190Y-62426190D01*
X145295238Y-62426190D01*
X146295238Y-62378571D02*
X146628571Y-62378571D01*
X146771428Y-62902380D02*
X146295238Y-62902380D01*
X146295238Y-61902380D01*
X146771428Y-61902380D01*
X147533333Y-62378571D02*
X147200000Y-62378571D01*
X147200000Y-62902380D02*
X147200000Y-61902380D01*
X147676190Y-61902380D01*
X148200000Y-61902380D02*
X148200000Y-62140476D01*
X147961904Y-62045238D02*
X148200000Y-62140476D01*
X148438095Y-62045238D01*
X148057142Y-62330952D02*
X148200000Y-62140476D01*
X148342857Y-62330952D01*
X148961904Y-61902380D02*
X148961904Y-62140476D01*
X148723809Y-62045238D02*
X148961904Y-62140476D01*
X149200000Y-62045238D01*
X148819047Y-62330952D02*
X148961904Y-62140476D01*
X149104761Y-62330952D01*
X121966666Y-62902380D02*
X121633333Y-62426190D01*
X121395238Y-62902380D02*
X121395238Y-61902380D01*
X121776190Y-61902380D01*
X121871428Y-61950000D01*
X121919047Y-61997619D01*
X121966666Y-62092857D01*
X121966666Y-62235714D01*
X121919047Y-62330952D01*
X121871428Y-62378571D01*
X121776190Y-62426190D01*
X121395238Y-62426190D01*
X122395238Y-62378571D02*
X122728571Y-62378571D01*
X122871428Y-62902380D02*
X122395238Y-62902380D01*
X122395238Y-61902380D01*
X122871428Y-61902380D01*
X123633333Y-62378571D02*
X123300000Y-62378571D01*
X123300000Y-62902380D02*
X123300000Y-61902380D01*
X123776190Y-61902380D01*
X124300000Y-61902380D02*
X124300000Y-62140476D01*
X124061904Y-62045238D02*
X124300000Y-62140476D01*
X124538095Y-62045238D01*
X124157142Y-62330952D02*
X124300000Y-62140476D01*
X124442857Y-62330952D01*
X125061904Y-61902380D02*
X125061904Y-62140476D01*
X124823809Y-62045238D02*
X125061904Y-62140476D01*
X125300000Y-62045238D01*
X124919047Y-62330952D02*
X125061904Y-62140476D01*
X125204761Y-62330952D01*
X98066666Y-62902380D02*
X97733333Y-62426190D01*
X97495238Y-62902380D02*
X97495238Y-61902380D01*
X97876190Y-61902380D01*
X97971428Y-61950000D01*
X98019047Y-61997619D01*
X98066666Y-62092857D01*
X98066666Y-62235714D01*
X98019047Y-62330952D01*
X97971428Y-62378571D01*
X97876190Y-62426190D01*
X97495238Y-62426190D01*
X98495238Y-62378571D02*
X98828571Y-62378571D01*
X98971428Y-62902380D02*
X98495238Y-62902380D01*
X98495238Y-61902380D01*
X98971428Y-61902380D01*
X99733333Y-62378571D02*
X99400000Y-62378571D01*
X99400000Y-62902380D02*
X99400000Y-61902380D01*
X99876190Y-61902380D01*
X100400000Y-61902380D02*
X100400000Y-62140476D01*
X100161904Y-62045238D02*
X100400000Y-62140476D01*
X100638095Y-62045238D01*
X100257142Y-62330952D02*
X100400000Y-62140476D01*
X100542857Y-62330952D01*
X101161904Y-61902380D02*
X101161904Y-62140476D01*
X100923809Y-62045238D02*
X101161904Y-62140476D01*
X101400000Y-62045238D01*
X101019047Y-62330952D02*
X101161904Y-62140476D01*
X101304761Y-62330952D01*
X169766666Y-39002380D02*
X169433333Y-38526190D01*
X169195238Y-39002380D02*
X169195238Y-38002380D01*
X169576190Y-38002380D01*
X169671428Y-38050000D01*
X169719047Y-38097619D01*
X169766666Y-38192857D01*
X169766666Y-38335714D01*
X169719047Y-38430952D01*
X169671428Y-38478571D01*
X169576190Y-38526190D01*
X169195238Y-38526190D01*
X170195238Y-38478571D02*
X170528571Y-38478571D01*
X170671428Y-39002380D02*
X170195238Y-39002380D01*
X170195238Y-38002380D01*
X170671428Y-38002380D01*
X171433333Y-38478571D02*
X171100000Y-38478571D01*
X171100000Y-39002380D02*
X171100000Y-38002380D01*
X171576190Y-38002380D01*
X172100000Y-38002380D02*
X172100000Y-38240476D01*
X171861904Y-38145238D02*
X172100000Y-38240476D01*
X172338095Y-38145238D01*
X171957142Y-38430952D02*
X172100000Y-38240476D01*
X172242857Y-38430952D01*
X172861904Y-38002380D02*
X172861904Y-38240476D01*
X172623809Y-38145238D02*
X172861904Y-38240476D01*
X173100000Y-38145238D01*
X172719047Y-38430952D02*
X172861904Y-38240476D01*
X173004761Y-38430952D01*
X98066666Y-39002380D02*
X97733333Y-38526190D01*
X97495238Y-39002380D02*
X97495238Y-38002380D01*
X97876190Y-38002380D01*
X97971428Y-38050000D01*
X98019047Y-38097619D01*
X98066666Y-38192857D01*
X98066666Y-38335714D01*
X98019047Y-38430952D01*
X97971428Y-38478571D01*
X97876190Y-38526190D01*
X97495238Y-38526190D01*
X98495238Y-38478571D02*
X98828571Y-38478571D01*
X98971428Y-39002380D02*
X98495238Y-39002380D01*
X98495238Y-38002380D01*
X98971428Y-38002380D01*
X99733333Y-38478571D02*
X99400000Y-38478571D01*
X99400000Y-39002380D02*
X99400000Y-38002380D01*
X99876190Y-38002380D01*
X100400000Y-38002380D02*
X100400000Y-38240476D01*
X100161904Y-38145238D02*
X100400000Y-38240476D01*
X100638095Y-38145238D01*
X100257142Y-38430952D02*
X100400000Y-38240476D01*
X100542857Y-38430952D01*
X101161904Y-38002380D02*
X101161904Y-38240476D01*
X100923809Y-38145238D02*
X101161904Y-38240476D01*
X101400000Y-38145238D01*
X101019047Y-38430952D02*
X101161904Y-38240476D01*
X101304761Y-38430952D01*
X98066666Y-15102380D02*
X97733333Y-14626190D01*
X97495238Y-15102380D02*
X97495238Y-14102380D01*
X97876190Y-14102380D01*
X97971428Y-14150000D01*
X98019047Y-14197619D01*
X98066666Y-14292857D01*
X98066666Y-14435714D01*
X98019047Y-14530952D01*
X97971428Y-14578571D01*
X97876190Y-14626190D01*
X97495238Y-14626190D01*
X98495238Y-14578571D02*
X98828571Y-14578571D01*
X98971428Y-15102380D02*
X98495238Y-15102380D01*
X98495238Y-14102380D01*
X98971428Y-14102380D01*
X99733333Y-14578571D02*
X99400000Y-14578571D01*
X99400000Y-15102380D02*
X99400000Y-14102380D01*
X99876190Y-14102380D01*
X100400000Y-14102380D02*
X100400000Y-14340476D01*
X100161904Y-14245238D02*
X100400000Y-14340476D01*
X100638095Y-14245238D01*
X100257142Y-14530952D02*
X100400000Y-14340476D01*
X100542857Y-14530952D01*
X101161904Y-14102380D02*
X101161904Y-14340476D01*
X100923809Y-14245238D02*
X101161904Y-14340476D01*
X101400000Y-14245238D01*
X101019047Y-14530952D02*
X101161904Y-14340476D01*
X101304761Y-14530952D01*
X169766666Y8797619D02*
X169433333Y9273809D01*
X169195238Y8797619D02*
X169195238Y9797619D01*
X169576190Y9797619D01*
X169671428Y9750000D01*
X169719047Y9702380D01*
X169766666Y9607142D01*
X169766666Y9464285D01*
X169719047Y9369047D01*
X169671428Y9321428D01*
X169576190Y9273809D01*
X169195238Y9273809D01*
X170195238Y9321428D02*
X170528571Y9321428D01*
X170671428Y8797619D02*
X170195238Y8797619D01*
X170195238Y9797619D01*
X170671428Y9797619D01*
X171433333Y9321428D02*
X171100000Y9321428D01*
X171100000Y8797619D02*
X171100000Y9797619D01*
X171576190Y9797619D01*
X172100000Y9797619D02*
X172100000Y9559523D01*
X171861904Y9654761D02*
X172100000Y9559523D01*
X172338095Y9654761D01*
X171957142Y9369047D02*
X172100000Y9559523D01*
X172242857Y9369047D01*
X172861904Y9797619D02*
X172861904Y9559523D01*
X172623809Y9654761D02*
X172861904Y9559523D01*
X173100000Y9654761D01*
X172719047Y9369047D02*
X172861904Y9559523D01*
X173004761Y9369047D01*
X145866666Y8797619D02*
X145533333Y9273809D01*
X145295238Y8797619D02*
X145295238Y9797619D01*
X145676190Y9797619D01*
X145771428Y9750000D01*
X145819047Y9702380D01*
X145866666Y9607142D01*
X145866666Y9464285D01*
X145819047Y9369047D01*
X145771428Y9321428D01*
X145676190Y9273809D01*
X145295238Y9273809D01*
X146295238Y9321428D02*
X146628571Y9321428D01*
X146771428Y8797619D02*
X146295238Y8797619D01*
X146295238Y9797619D01*
X146771428Y9797619D01*
X147533333Y9321428D02*
X147200000Y9321428D01*
X147200000Y8797619D02*
X147200000Y9797619D01*
X147676190Y9797619D01*
X148200000Y9797619D02*
X148200000Y9559523D01*
X147961904Y9654761D02*
X148200000Y9559523D01*
X148438095Y9654761D01*
X148057142Y9369047D02*
X148200000Y9559523D01*
X148342857Y9369047D01*
X148961904Y9797619D02*
X148961904Y9559523D01*
X148723809Y9654761D02*
X148961904Y9559523D01*
X149200000Y9654761D01*
X148819047Y9369047D02*
X148961904Y9559523D01*
X149104761Y9369047D01*
X121966666Y8797619D02*
X121633333Y9273809D01*
X121395238Y8797619D02*
X121395238Y9797619D01*
X121776190Y9797619D01*
X121871428Y9750000D01*
X121919047Y9702380D01*
X121966666Y9607142D01*
X121966666Y9464285D01*
X121919047Y9369047D01*
X121871428Y9321428D01*
X121776190Y9273809D01*
X121395238Y9273809D01*
X122395238Y9321428D02*
X122728571Y9321428D01*
X122871428Y8797619D02*
X122395238Y8797619D01*
X122395238Y9797619D01*
X122871428Y9797619D01*
X123633333Y9321428D02*
X123300000Y9321428D01*
X123300000Y8797619D02*
X123300000Y9797619D01*
X123776190Y9797619D01*
X124300000Y9797619D02*
X124300000Y9559523D01*
X124061904Y9654761D02*
X124300000Y9559523D01*
X124538095Y9654761D01*
X124157142Y9369047D02*
X124300000Y9559523D01*
X124442857Y9369047D01*
X125061904Y9797619D02*
X125061904Y9559523D01*
X124823809Y9654761D02*
X125061904Y9559523D01*
X125300000Y9654761D01*
X124919047Y9369047D02*
X125061904Y9559523D01*
X125204761Y9369047D01*
X98066666Y8797619D02*
X97733333Y9273809D01*
X97495238Y8797619D02*
X97495238Y9797619D01*
X97876190Y9797619D01*
X97971428Y9750000D01*
X98019047Y9702380D01*
X98066666Y9607142D01*
X98066666Y9464285D01*
X98019047Y9369047D01*
X97971428Y9321428D01*
X97876190Y9273809D01*
X97495238Y9273809D01*
X98495238Y9321428D02*
X98828571Y9321428D01*
X98971428Y8797619D02*
X98495238Y8797619D01*
X98495238Y9797619D01*
X98971428Y9797619D01*
X99733333Y9321428D02*
X99400000Y9321428D01*
X99400000Y8797619D02*
X99400000Y9797619D01*
X99876190Y9797619D01*
X100400000Y9797619D02*
X100400000Y9559523D01*
X100161904Y9654761D02*
X100400000Y9559523D01*
X100638095Y9654761D01*
X100257142Y9369047D02*
X100400000Y9559523D01*
X100542857Y9369047D01*
X101161904Y9797619D02*
X101161904Y9559523D01*
X100923809Y9654761D02*
X101161904Y9559523D01*
X101400000Y9654761D01*
X101019047Y9369047D02*
X101161904Y9559523D01*
X101304761Y9369047D01*
X76366666Y-73052380D02*
X76033333Y-72576190D01*
X75795238Y-73052380D02*
X75795238Y-72052380D01*
X76176190Y-72052380D01*
X76271428Y-72100000D01*
X76319047Y-72147619D01*
X76366666Y-72242857D01*
X76366666Y-72385714D01*
X76319047Y-72480952D01*
X76271428Y-72528571D01*
X76176190Y-72576190D01*
X75795238Y-72576190D01*
X76795238Y-72528571D02*
X77128571Y-72528571D01*
X77271428Y-73052380D02*
X76795238Y-73052380D01*
X76795238Y-72052380D01*
X77271428Y-72052380D01*
X78033333Y-72528571D02*
X77700000Y-72528571D01*
X77700000Y-73052380D02*
X77700000Y-72052380D01*
X78176190Y-72052380D01*
X78700000Y-72052380D02*
X78700000Y-72290476D01*
X78461904Y-72195238D02*
X78700000Y-72290476D01*
X78938095Y-72195238D01*
X78557142Y-72480952D02*
X78700000Y-72290476D01*
X78842857Y-72480952D01*
X79461904Y-72052380D02*
X79461904Y-72290476D01*
X79223809Y-72195238D02*
X79461904Y-72290476D01*
X79700000Y-72195238D01*
X79319047Y-72480952D02*
X79461904Y-72290476D01*
X79604761Y-72480952D01*
X4666666Y-73052380D02*
X4333333Y-72576190D01*
X4095238Y-73052380D02*
X4095238Y-72052380D01*
X4476190Y-72052380D01*
X4571428Y-72100000D01*
X4619047Y-72147619D01*
X4666666Y-72242857D01*
X4666666Y-72385714D01*
X4619047Y-72480952D01*
X4571428Y-72528571D01*
X4476190Y-72576190D01*
X4095238Y-72576190D01*
X5095238Y-72528571D02*
X5428571Y-72528571D01*
X5571428Y-73052380D02*
X5095238Y-73052380D01*
X5095238Y-72052380D01*
X5571428Y-72052380D01*
X6333333Y-72528571D02*
X6000000Y-72528571D01*
X6000000Y-73052380D02*
X6000000Y-72052380D01*
X6476190Y-72052380D01*
X7000000Y-72052380D02*
X7000000Y-72290476D01*
X6761904Y-72195238D02*
X7000000Y-72290476D01*
X7238095Y-72195238D01*
X6857142Y-72480952D02*
X7000000Y-72290476D01*
X7142857Y-72480952D01*
X7761904Y-72052380D02*
X7761904Y-72290476D01*
X7523809Y-72195238D02*
X7761904Y-72290476D01*
X8000000Y-72195238D01*
X7619047Y-72480952D02*
X7761904Y-72290476D01*
X7904761Y-72480952D01*
X76366666Y-1352380D02*
X76033333Y-876190D01*
X75795238Y-1352380D02*
X75795238Y-352380D01*
X76176190Y-352380D01*
X76271428Y-400000D01*
X76319047Y-447619D01*
X76366666Y-542857D01*
X76366666Y-685714D01*
X76319047Y-780952D01*
X76271428Y-828571D01*
X76176190Y-876190D01*
X75795238Y-876190D01*
X76795238Y-828571D02*
X77128571Y-828571D01*
X77271428Y-1352380D02*
X76795238Y-1352380D01*
X76795238Y-352380D01*
X77271428Y-352380D01*
X78033333Y-828571D02*
X77700000Y-828571D01*
X77700000Y-1352380D02*
X77700000Y-352380D01*
X78176190Y-352380D01*
X78700000Y-352380D02*
X78700000Y-590476D01*
X78461904Y-495238D02*
X78700000Y-590476D01*
X78938095Y-495238D01*
X78557142Y-780952D02*
X78700000Y-590476D01*
X78842857Y-780952D01*
X79461904Y-352380D02*
X79461904Y-590476D01*
X79223809Y-495238D02*
X79461904Y-590476D01*
X79700000Y-495238D01*
X79319047Y-780952D02*
X79461904Y-590476D01*
X79604761Y-780952D01*
X4666666Y-1352380D02*
X4333333Y-876190D01*
X4095238Y-1352380D02*
X4095238Y-352380D01*
X4476190Y-352380D01*
X4571428Y-400000D01*
X4619047Y-447619D01*
X4666666Y-542857D01*
X4666666Y-685714D01*
X4619047Y-780952D01*
X4571428Y-828571D01*
X4476190Y-876190D01*
X4095238Y-876190D01*
X5095238Y-828571D02*
X5428571Y-828571D01*
X5571428Y-1352380D02*
X5095238Y-1352380D01*
X5095238Y-352380D01*
X5571428Y-352380D01*
X6333333Y-828571D02*
X6000000Y-828571D01*
X6000000Y-1352380D02*
X6000000Y-352380D01*
X6476190Y-352380D01*
X7000000Y-352380D02*
X7000000Y-590476D01*
X6761904Y-495238D02*
X7000000Y-590476D01*
X7238095Y-495238D01*
X6857142Y-780952D02*
X7000000Y-590476D01*
X7142857Y-780952D01*
X7761904Y-352380D02*
X7761904Y-590476D01*
X7523809Y-495238D02*
X7761904Y-590476D01*
X8000000Y-495238D01*
X7619047Y-780952D02*
X7761904Y-590476D01*
X7904761Y-780952D01*
X133986904Y-52427380D02*
X133986904Y-53236904D01*
X134034523Y-53332142D01*
X134082142Y-53379761D01*
X134177380Y-53427380D01*
X134367857Y-53427380D01*
X134463095Y-53379761D01*
X134510714Y-53332142D01*
X134558333Y-53236904D01*
X134558333Y-52427380D01*
X134939285Y-52427380D02*
X135558333Y-52427380D01*
X135225000Y-52808333D01*
X135367857Y-52808333D01*
X135463095Y-52855952D01*
X135510714Y-52903571D01*
X135558333Y-52998809D01*
X135558333Y-53236904D01*
X135510714Y-53332142D01*
X135463095Y-53379761D01*
X135367857Y-53427380D01*
X135082142Y-53427380D01*
X134986904Y-53379761D01*
X134939285Y-53332142D01*
X136463095Y-52427380D02*
X135986904Y-52427380D01*
X135939285Y-52903571D01*
X135986904Y-52855952D01*
X136082142Y-52808333D01*
X136320238Y-52808333D01*
X136415476Y-52855952D01*
X136463095Y-52903571D01*
X136510714Y-52998809D01*
X136510714Y-53236904D01*
X136463095Y-53332142D01*
X136415476Y-53379761D01*
X136320238Y-53427380D01*
X136082142Y-53427380D01*
X135986904Y-53379761D01*
X135939285Y-53332142D01*
X121010714Y-13303571D02*
X121153571Y-13351190D01*
X121201190Y-13398809D01*
X121248809Y-13494047D01*
X121248809Y-13636904D01*
X121201190Y-13732142D01*
X121153571Y-13779761D01*
X121058333Y-13827380D01*
X120677380Y-13827380D01*
X120677380Y-12827380D01*
X121010714Y-12827380D01*
X121105952Y-12875000D01*
X121153571Y-12922619D01*
X121201190Y-13017857D01*
X121201190Y-13113095D01*
X121153571Y-13208333D01*
X121105952Y-13255952D01*
X121010714Y-13303571D01*
X120677380Y-13303571D01*
X121677380Y-13827380D02*
X121677380Y-13160714D01*
X121677380Y-13351190D02*
X121725000Y-13255952D01*
X121772619Y-13208333D01*
X121867857Y-13160714D01*
X121963095Y-13160714D01*
X122296428Y-13827380D02*
X122296428Y-13160714D01*
X122296428Y-12827380D02*
X122248809Y-12875000D01*
X122296428Y-12922619D01*
X122344047Y-12875000D01*
X122296428Y-12827380D01*
X122296428Y-12922619D01*
X123201190Y-13827380D02*
X123201190Y-12827380D01*
X123201190Y-13779761D02*
X123105952Y-13827380D01*
X122915476Y-13827380D01*
X122820238Y-13779761D01*
X122772619Y-13732142D01*
X122725000Y-13636904D01*
X122725000Y-13351190D01*
X122772619Y-13255952D01*
X122820238Y-13208333D01*
X122915476Y-13160714D01*
X123105952Y-13160714D01*
X123201190Y-13208333D01*
X124105952Y-13160714D02*
X124105952Y-13970238D01*
X124058333Y-14065476D01*
X124010714Y-14113095D01*
X123915476Y-14160714D01*
X123772619Y-14160714D01*
X123677380Y-14113095D01*
X124105952Y-13779761D02*
X124010714Y-13827380D01*
X123820238Y-13827380D01*
X123725000Y-13779761D01*
X123677380Y-13732142D01*
X123629761Y-13636904D01*
X123629761Y-13351190D01*
X123677380Y-13255952D01*
X123725000Y-13208333D01*
X123820238Y-13160714D01*
X124010714Y-13160714D01*
X124105952Y-13208333D01*
X124963095Y-13779761D02*
X124867857Y-13827380D01*
X124677380Y-13827380D01*
X124582142Y-13779761D01*
X124534523Y-13684523D01*
X124534523Y-13303571D01*
X124582142Y-13208333D01*
X124677380Y-13160714D01*
X124867857Y-13160714D01*
X124963095Y-13208333D01*
X125010714Y-13303571D01*
X125010714Y-13398809D01*
X124534523Y-13494047D01*
X125582142Y-13827380D02*
X125486904Y-13779761D01*
X125439285Y-13684523D01*
X125439285Y-12827380D01*
X126391666Y-13160714D02*
X126391666Y-13827380D01*
X125963095Y-13160714D02*
X125963095Y-13684523D01*
X126010714Y-13779761D01*
X126105952Y-13827380D01*
X126248809Y-13827380D01*
X126344047Y-13779761D01*
X126391666Y-13732142D01*
X126772619Y-13827380D02*
X127296428Y-13160714D01*
X126772619Y-13160714D02*
X127296428Y-13827380D01*
X127677380Y-13446428D02*
X128439285Y-13446428D01*
X128772619Y-12827380D02*
X129105952Y-13827380D01*
X129439285Y-12827380D01*
X130153571Y-13779761D02*
X130058333Y-13827380D01*
X129867857Y-13827380D01*
X129772619Y-13779761D01*
X129725000Y-13684523D01*
X129725000Y-13303571D01*
X129772619Y-13208333D01*
X129867857Y-13160714D01*
X130058333Y-13160714D01*
X130153571Y-13208333D01*
X130201190Y-13303571D01*
X130201190Y-13398809D01*
X129725000Y-13494047D01*
X130629761Y-13827380D02*
X130629761Y-13160714D01*
X130629761Y-13351190D02*
X130677380Y-13255952D01*
X130725000Y-13208333D01*
X130820238Y-13160714D01*
X130915476Y-13160714D01*
X131391666Y-13827380D02*
X131296428Y-13779761D01*
X131248809Y-13732142D01*
X131201190Y-13636904D01*
X131201190Y-13351190D01*
X131248809Y-13255952D01*
X131296428Y-13208333D01*
X131391666Y-13160714D01*
X131534523Y-13160714D01*
X131629761Y-13208333D01*
X131677380Y-13255952D01*
X131725000Y-13351190D01*
X131725000Y-13636904D01*
X131677380Y-13732142D01*
X131629761Y-13779761D01*
X131534523Y-13827380D01*
X131391666Y-13827380D01*
X132153571Y-13446428D02*
X132915476Y-13446428D01*
X133915476Y-13827380D02*
X133344047Y-13827380D01*
X133629761Y-13827380D02*
X133629761Y-12827380D01*
X133534523Y-12970238D01*
X133439285Y-13065476D01*
X133344047Y-13113095D01*
X134486904Y-13255952D02*
X134391666Y-13208333D01*
X134344047Y-13160714D01*
X134296428Y-13065476D01*
X134296428Y-13017857D01*
X134344047Y-12922619D01*
X134391666Y-12875000D01*
X134486904Y-12827380D01*
X134677380Y-12827380D01*
X134772619Y-12875000D01*
X134820238Y-12922619D01*
X134867857Y-13017857D01*
X134867857Y-13065476D01*
X134820238Y-13160714D01*
X134772619Y-13208333D01*
X134677380Y-13255952D01*
X134486904Y-13255952D01*
X134391666Y-13303571D01*
X134344047Y-13351190D01*
X134296428Y-13446428D01*
X134296428Y-13636904D01*
X134344047Y-13732142D01*
X134391666Y-13779761D01*
X134486904Y-13827380D01*
X134677380Y-13827380D01*
X134772619Y-13779761D01*
X134820238Y-13732142D01*
X134867857Y-13636904D01*
X134867857Y-13446428D01*
X134820238Y-13351190D01*
X134772619Y-13303571D01*
X134677380Y-13255952D01*
X135296428Y-13446428D02*
X136058333Y-13446428D01*
X136534523Y-13827380D02*
X136534523Y-13160714D01*
X136534523Y-13255952D02*
X136582142Y-13208333D01*
X136677380Y-13160714D01*
X136820238Y-13160714D01*
X136915476Y-13208333D01*
X136963095Y-13303571D01*
X136963095Y-13827380D01*
X136963095Y-13303571D02*
X137010714Y-13208333D01*
X137105952Y-13160714D01*
X137248809Y-13160714D01*
X137344047Y-13208333D01*
X137391666Y-13303571D01*
X137391666Y-13827380D01*
X138248809Y-13779761D02*
X138153571Y-13827380D01*
X137963095Y-13827380D01*
X137867857Y-13779761D01*
X137820238Y-13684523D01*
X137820238Y-13303571D01*
X137867857Y-13208333D01*
X137963095Y-13160714D01*
X138153571Y-13160714D01*
X138248809Y-13208333D01*
X138296428Y-13303571D01*
X138296428Y-13398809D01*
X137820238Y-13494047D01*
X139153571Y-13779761D02*
X139058333Y-13827380D01*
X138867857Y-13827380D01*
X138772619Y-13779761D01*
X138725000Y-13732142D01*
X138677380Y-13636904D01*
X138677380Y-13351190D01*
X138725000Y-13255952D01*
X138772619Y-13208333D01*
X138867857Y-13160714D01*
X139058333Y-13160714D01*
X139153571Y-13208333D01*
X139582142Y-13827380D02*
X139582142Y-12827380D01*
X140010714Y-13827380D02*
X140010714Y-13303571D01*
X139963095Y-13208333D01*
X139867857Y-13160714D01*
X139725000Y-13160714D01*
X139629761Y-13208333D01*
X139582142Y-13255952D01*
X140486904Y-13446428D02*
X141248809Y-13446428D01*
X141629761Y-13160714D02*
X141867857Y-13827380D01*
X142105952Y-13160714D01*
X142391666Y-12827380D02*
X143010714Y-12827380D01*
X142677380Y-13208333D01*
X142820238Y-13208333D01*
X142915476Y-13255952D01*
X142963095Y-13303571D01*
X143010714Y-13398809D01*
X143010714Y-13636904D01*
X142963095Y-13732142D01*
X142915476Y-13779761D01*
X142820238Y-13827380D01*
X142534523Y-13827380D01*
X142439285Y-13779761D01*
X142391666Y-13732142D01*
X143439285Y-13446428D02*
X144201190Y-13446428D01*
X145105952Y-13827380D02*
X145105952Y-13303571D01*
X145058333Y-13208333D01*
X144963095Y-13160714D01*
X144772619Y-13160714D01*
X144677380Y-13208333D01*
X145105952Y-13779761D02*
X145010714Y-13827380D01*
X144772619Y-13827380D01*
X144677380Y-13779761D01*
X144629761Y-13684523D01*
X144629761Y-13589285D01*
X144677380Y-13494047D01*
X144772619Y-13446428D01*
X145010714Y-13446428D01*
X145105952Y-13398809D01*
X145582142Y-13827380D02*
X145582142Y-13160714D01*
X145582142Y-13351190D02*
X145629761Y-13255952D01*
X145677380Y-13208333D01*
X145772619Y-13160714D01*
X145867857Y-13160714D01*
X146201190Y-13827380D02*
X146201190Y-13160714D01*
X146201190Y-12827380D02*
X146153571Y-12875000D01*
X146201190Y-12922619D01*
X146248809Y-12875000D01*
X146201190Y-12827380D01*
X146201190Y-12922619D01*
X147105952Y-13827380D02*
X147105952Y-13303571D01*
X147058333Y-13208333D01*
X146963095Y-13160714D01*
X146772619Y-13160714D01*
X146677380Y-13208333D01*
X147105952Y-13779761D02*
X147010714Y-13827380D01*
X146772619Y-13827380D01*
X146677380Y-13779761D01*
X146629761Y-13684523D01*
X146629761Y-13589285D01*
X146677380Y-13494047D01*
X146772619Y-13446428D01*
X147010714Y-13446428D01*
X147105952Y-13398809D01*
X148010714Y-13827380D02*
X148010714Y-12827380D01*
X148010714Y-13779761D02*
X147915476Y-13827380D01*
X147725000Y-13827380D01*
X147629761Y-13779761D01*
X147582142Y-13732142D01*
X147534523Y-13636904D01*
X147534523Y-13351190D01*
X147582142Y-13255952D01*
X147629761Y-13208333D01*
X147725000Y-13160714D01*
X147915476Y-13160714D01*
X148010714Y-13208333D01*
X148486904Y-13160714D02*
X148486904Y-13827380D01*
X148486904Y-13255952D02*
X148534523Y-13208333D01*
X148629761Y-13160714D01*
X148772619Y-13160714D01*
X148867857Y-13208333D01*
X148915476Y-13303571D01*
X148915476Y-13827380D01*
X149772619Y-13779761D02*
X149677380Y-13827380D01*
X149486904Y-13827380D01*
X149391666Y-13779761D01*
X149344047Y-13684523D01*
X149344047Y-13303571D01*
X149391666Y-13208333D01*
X149486904Y-13160714D01*
X149677380Y-13160714D01*
X149772619Y-13208333D01*
X149820238Y-13303571D01*
X149820238Y-13398809D01*
X149344047Y-13494047D01*
X23228095Y-77262380D02*
X23228095Y-78071904D01*
X23275714Y-78167142D01*
X23323333Y-78214761D01*
X23418571Y-78262380D01*
X23609047Y-78262380D01*
X23704285Y-78214761D01*
X23751904Y-78167142D01*
X23799523Y-78071904D01*
X23799523Y-77262380D01*
X24180476Y-77262380D02*
X24799523Y-77262380D01*
X24466190Y-77643333D01*
X24609047Y-77643333D01*
X24704285Y-77690952D01*
X24751904Y-77738571D01*
X24799523Y-77833809D01*
X24799523Y-78071904D01*
X24751904Y-78167142D01*
X24704285Y-78214761D01*
X24609047Y-78262380D01*
X24323333Y-78262380D01*
X24228095Y-78214761D01*
X24180476Y-78167142D01*
X22997380Y-48773095D02*
X21997380Y-48773095D01*
X21997380Y-48535000D01*
X22045000Y-48392142D01*
X22140238Y-48296904D01*
X22235476Y-48249285D01*
X22425952Y-48201666D01*
X22568809Y-48201666D01*
X22759285Y-48249285D01*
X22854523Y-48296904D01*
X22949761Y-48392142D01*
X22997380Y-48535000D01*
X22997380Y-48773095D01*
X22997380Y-47249285D02*
X22997380Y-47820714D01*
X22997380Y-47535000D02*
X21997380Y-47535000D01*
X22140238Y-47630238D01*
X22235476Y-47725476D01*
X22283095Y-47820714D01*
X22627380Y-44486904D02*
X21627380Y-44486904D01*
X22627380Y-43915476D02*
X22055952Y-44344047D01*
X21627380Y-43915476D02*
X22198809Y-44486904D01*
X53666666Y-35222380D02*
X53666666Y-35936666D01*
X53619047Y-36079523D01*
X53523809Y-36174761D01*
X53380952Y-36222380D01*
X53285714Y-36222380D01*
X54666666Y-36222380D02*
X54095238Y-36222380D01*
X54380952Y-36222380D02*
X54380952Y-35222380D01*
X54285714Y-35365238D01*
X54190476Y-35460476D01*
X54095238Y-35508095D01*
X14291666Y-26822380D02*
X14291666Y-27536666D01*
X14244047Y-27679523D01*
X14148809Y-27774761D01*
X14005952Y-27822380D01*
X13910714Y-27822380D01*
X14672619Y-26822380D02*
X15291666Y-26822380D01*
X14958333Y-27203333D01*
X15101190Y-27203333D01*
X15196428Y-27250952D01*
X15244047Y-27298571D01*
X15291666Y-27393809D01*
X15291666Y-27631904D01*
X15244047Y-27727142D01*
X15196428Y-27774761D01*
X15101190Y-27822380D01*
X14815476Y-27822380D01*
X14720238Y-27774761D01*
X14672619Y-27727142D01*
X16466666Y-42847380D02*
X16466666Y-43561666D01*
X16419047Y-43704523D01*
X16323809Y-43799761D01*
X16180952Y-43847380D01*
X16085714Y-43847380D01*
X17371428Y-43180714D02*
X17371428Y-43847380D01*
X17133333Y-42799761D02*
X16895238Y-43514047D01*
X17514285Y-43514047D01*
X37541666Y-22422380D02*
X37541666Y-23136666D01*
X37494047Y-23279523D01*
X37398809Y-23374761D01*
X37255952Y-23422380D01*
X37160714Y-23422380D01*
X38494047Y-22422380D02*
X38017857Y-22422380D01*
X37970238Y-22898571D01*
X38017857Y-22850952D01*
X38113095Y-22803333D01*
X38351190Y-22803333D01*
X38446428Y-22850952D01*
X38494047Y-22898571D01*
X38541666Y-22993809D01*
X38541666Y-23231904D01*
X38494047Y-23327142D01*
X38446428Y-23374761D01*
X38351190Y-23422380D01*
X38113095Y-23422380D01*
X38017857Y-23374761D01*
X37970238Y-23327142D01*
X20052380Y-39951190D02*
X19052380Y-39951190D01*
X19766666Y-39617857D01*
X19052380Y-39284523D01*
X20052380Y-39284523D01*
X19385714Y-38379761D02*
X20052380Y-38379761D01*
X19385714Y-38808333D02*
X19909523Y-38808333D01*
X20004761Y-38760714D01*
X20052380Y-38665476D01*
X20052380Y-38522619D01*
X20004761Y-38427380D01*
X19957142Y-38379761D01*
X20052380Y-37903571D02*
X19385714Y-37903571D01*
X19576190Y-37903571D02*
X19480952Y-37855952D01*
X19433333Y-37808333D01*
X19385714Y-37713095D01*
X19385714Y-37617857D01*
X20052380Y-36855952D02*
X19528571Y-36855952D01*
X19433333Y-36903571D01*
X19385714Y-36998809D01*
X19385714Y-37189285D01*
X19433333Y-37284523D01*
X20004761Y-36855952D02*
X20052380Y-36951190D01*
X20052380Y-37189285D01*
X20004761Y-37284523D01*
X19909523Y-37332142D01*
X19814285Y-37332142D01*
X19719047Y-37284523D01*
X19671428Y-37189285D01*
X19671428Y-36951190D01*
X19623809Y-36855952D01*
X19385714Y-36522619D02*
X19385714Y-36141666D01*
X19052380Y-36379761D02*
X19909523Y-36379761D01*
X20004761Y-36332142D01*
X20052380Y-36236904D01*
X20052380Y-36141666D01*
X20052380Y-35379761D02*
X19528571Y-35379761D01*
X19433333Y-35427380D01*
X19385714Y-35522619D01*
X19385714Y-35713095D01*
X19433333Y-35808333D01*
X20004761Y-35379761D02*
X20052380Y-35475000D01*
X20052380Y-35713095D01*
X20004761Y-35808333D01*
X19909523Y-35855952D01*
X19814285Y-35855952D01*
X19719047Y-35808333D01*
X19671428Y-35713095D01*
X19671428Y-35475000D01*
X19623809Y-35379761D01*
X19671428Y-34903571D02*
X19671428Y-34141666D01*
X19957142Y-33094047D02*
X20004761Y-33141666D01*
X20052380Y-33284523D01*
X20052380Y-33379761D01*
X20004761Y-33522619D01*
X19909523Y-33617857D01*
X19814285Y-33665476D01*
X19623809Y-33713095D01*
X19480952Y-33713095D01*
X19290476Y-33665476D01*
X19195238Y-33617857D01*
X19100000Y-33522619D01*
X19052380Y-33379761D01*
X19052380Y-33284523D01*
X19100000Y-33141666D01*
X19147619Y-33094047D01*
X20004761Y-32284523D02*
X20052380Y-32379761D01*
X20052380Y-32570238D01*
X20004761Y-32665476D01*
X19909523Y-32713095D01*
X19528571Y-32713095D01*
X19433333Y-32665476D01*
X19385714Y-32570238D01*
X19385714Y-32379761D01*
X19433333Y-32284523D01*
X19528571Y-32236904D01*
X19623809Y-32236904D01*
X19719047Y-32713095D01*
X20052380Y-31808333D02*
X19385714Y-31808333D01*
X19576190Y-31808333D02*
X19480952Y-31760714D01*
X19433333Y-31713095D01*
X19385714Y-31617857D01*
X19385714Y-31522619D01*
X20052380Y-30760714D02*
X19528571Y-30760714D01*
X19433333Y-30808333D01*
X19385714Y-30903571D01*
X19385714Y-31094047D01*
X19433333Y-31189285D01*
X20004761Y-30760714D02*
X20052380Y-30855952D01*
X20052380Y-31094047D01*
X20004761Y-31189285D01*
X19909523Y-31236904D01*
X19814285Y-31236904D01*
X19719047Y-31189285D01*
X19671428Y-31094047D01*
X19671428Y-30855952D01*
X19623809Y-30760714D01*
X20052380Y-30284523D02*
X19385714Y-30284523D01*
X19480952Y-30284523D02*
X19433333Y-30236904D01*
X19385714Y-30141666D01*
X19385714Y-29998809D01*
X19433333Y-29903571D01*
X19528571Y-29855952D01*
X20052380Y-29855952D01*
X19528571Y-29855952D02*
X19433333Y-29808333D01*
X19385714Y-29713095D01*
X19385714Y-29570238D01*
X19433333Y-29475000D01*
X19528571Y-29427380D01*
X20052380Y-29427380D01*
X20052380Y-28951190D02*
X19385714Y-28951190D01*
X19052380Y-28951190D02*
X19100000Y-28998809D01*
X19147619Y-28951190D01*
X19100000Y-28903571D01*
X19052380Y-28951190D01*
X19147619Y-28951190D01*
X20004761Y-28046428D02*
X20052380Y-28141666D01*
X20052380Y-28332142D01*
X20004761Y-28427380D01*
X19957142Y-28475000D01*
X19861904Y-28522619D01*
X19576190Y-28522619D01*
X19480952Y-28475000D01*
X19433333Y-28427380D01*
X19385714Y-28332142D01*
X19385714Y-28141666D01*
X19433333Y-28046428D01*
X19671428Y-27617857D02*
X19671428Y-26855952D01*
X19957142Y-25808333D02*
X20004761Y-25855952D01*
X20052380Y-25998809D01*
X20052380Y-26094047D01*
X20004761Y-26236904D01*
X19909523Y-26332142D01*
X19814285Y-26379761D01*
X19623809Y-26427380D01*
X19480952Y-26427380D01*
X19290476Y-26379761D01*
X19195238Y-26332142D01*
X19100000Y-26236904D01*
X19052380Y-26094047D01*
X19052380Y-25998809D01*
X19100000Y-25855952D01*
X19147619Y-25808333D01*
X20052380Y-24951190D02*
X19528571Y-24951190D01*
X19433333Y-24998809D01*
X19385714Y-25094047D01*
X19385714Y-25284523D01*
X19433333Y-25379761D01*
X20004761Y-24951190D02*
X20052380Y-25046428D01*
X20052380Y-25284523D01*
X20004761Y-25379761D01*
X19909523Y-25427380D01*
X19814285Y-25427380D01*
X19719047Y-25379761D01*
X19671428Y-25284523D01*
X19671428Y-25046428D01*
X19623809Y-24951190D01*
X19385714Y-24475000D02*
X20385714Y-24475000D01*
X19433333Y-24475000D02*
X19385714Y-24379761D01*
X19385714Y-24189285D01*
X19433333Y-24094047D01*
X19480952Y-24046428D01*
X19576190Y-23998809D01*
X19861904Y-23998809D01*
X19957142Y-24046428D01*
X20004761Y-24094047D01*
X20052380Y-24189285D01*
X20052380Y-24379761D01*
X20004761Y-24475000D01*
X20052380Y-23141666D02*
X19528571Y-23141666D01*
X19433333Y-23189285D01*
X19385714Y-23284523D01*
X19385714Y-23475000D01*
X19433333Y-23570238D01*
X20004761Y-23141666D02*
X20052380Y-23236904D01*
X20052380Y-23475000D01*
X20004761Y-23570238D01*
X19909523Y-23617857D01*
X19814285Y-23617857D01*
X19719047Y-23570238D01*
X19671428Y-23475000D01*
X19671428Y-23236904D01*
X19623809Y-23141666D01*
X20004761Y-22236904D02*
X20052380Y-22332142D01*
X20052380Y-22522619D01*
X20004761Y-22617857D01*
X19957142Y-22665476D01*
X19861904Y-22713095D01*
X19576190Y-22713095D01*
X19480952Y-22665476D01*
X19433333Y-22617857D01*
X19385714Y-22522619D01*
X19385714Y-22332142D01*
X19433333Y-22236904D01*
X20052380Y-21808333D02*
X19385714Y-21808333D01*
X19052380Y-21808333D02*
X19100000Y-21855952D01*
X19147619Y-21808333D01*
X19100000Y-21760714D01*
X19052380Y-21808333D01*
X19147619Y-21808333D01*
X19385714Y-21475000D02*
X19385714Y-21094047D01*
X19052380Y-21332142D02*
X19909523Y-21332142D01*
X20004761Y-21284523D01*
X20052380Y-21189285D01*
X20052380Y-21094047D01*
X20052380Y-20617857D02*
X20004761Y-20713095D01*
X19957142Y-20760714D01*
X19861904Y-20808333D01*
X19576190Y-20808333D01*
X19480952Y-20760714D01*
X19433333Y-20713095D01*
X19385714Y-20617857D01*
X19385714Y-20475000D01*
X19433333Y-20379761D01*
X19480952Y-20332142D01*
X19576190Y-20284523D01*
X19861904Y-20284523D01*
X19957142Y-20332142D01*
X20004761Y-20379761D01*
X20052380Y-20475000D01*
X20052380Y-20617857D01*
X20052380Y-19855952D02*
X19385714Y-19855952D01*
X19576190Y-19855952D02*
X19480952Y-19808333D01*
X19433333Y-19760714D01*
X19385714Y-19665476D01*
X19385714Y-19570238D01*
X19671428Y-19236904D02*
X19671428Y-18475000D01*
X19052380Y-17522619D02*
X19052380Y-17998809D01*
X19528571Y-18046428D01*
X19480952Y-17998809D01*
X19433333Y-17903571D01*
X19433333Y-17665476D01*
X19480952Y-17570238D01*
X19528571Y-17522619D01*
X19623809Y-17475000D01*
X19861904Y-17475000D01*
X19957142Y-17522619D01*
X20004761Y-17570238D01*
X20052380Y-17665476D01*
X20052380Y-17903571D01*
X20004761Y-17998809D01*
X19957142Y-18046428D01*
X19052380Y-16855952D02*
X19052380Y-16760714D01*
X19100000Y-16665476D01*
X19147619Y-16617857D01*
X19242857Y-16570238D01*
X19433333Y-16522619D01*
X19671428Y-16522619D01*
X19861904Y-16570238D01*
X19957142Y-16617857D01*
X20004761Y-16665476D01*
X20052380Y-16760714D01*
X20052380Y-16855952D01*
X20004761Y-16951190D01*
X19957142Y-16998809D01*
X19861904Y-17046428D01*
X19671428Y-17094047D01*
X19433333Y-17094047D01*
X19242857Y-17046428D01*
X19147619Y-16998809D01*
X19100000Y-16951190D01*
X19052380Y-16855952D01*
X19385714Y-16189285D02*
X20052380Y-15951190D01*
X19385714Y-15713095D01*
X20052380Y-14808333D02*
X20052380Y-15379761D01*
X20052380Y-15094047D02*
X19052380Y-15094047D01*
X19195238Y-15189285D01*
X19290476Y-15284523D01*
X19338095Y-15379761D01*
X19671428Y-14379761D02*
X19671428Y-13617857D01*
X19147619Y-13189285D02*
X19100000Y-13141666D01*
X19052380Y-13046428D01*
X19052380Y-12808333D01*
X19100000Y-12713095D01*
X19147619Y-12665476D01*
X19242857Y-12617857D01*
X19338095Y-12617857D01*
X19480952Y-12665476D01*
X20052380Y-13236904D01*
X20052380Y-12617857D01*
X19147619Y-12236904D02*
X19100000Y-12189285D01*
X19052380Y-12094047D01*
X19052380Y-11855952D01*
X19100000Y-11760714D01*
X19147619Y-11713095D01*
X19242857Y-11665476D01*
X19338095Y-11665476D01*
X19480952Y-11713095D01*
X20052380Y-12284523D01*
X20052380Y-11665476D01*
X19385714Y-10808333D02*
X20052380Y-10808333D01*
X19385714Y-11236904D02*
X19909523Y-11236904D01*
X20004761Y-11189285D01*
X20052380Y-11094047D01*
X20052380Y-10951190D01*
X20004761Y-10855952D01*
X19957142Y-10808333D01*
X19528571Y-9998809D02*
X19528571Y-10332142D01*
X20052380Y-10332142D02*
X19052380Y-10332142D01*
X19052380Y-9855952D01*
X20052380Y-8951190D02*
X20052380Y-9522619D01*
X20052380Y-9236904D02*
X19052380Y-9236904D01*
X19195238Y-9332142D01*
X19290476Y-9427380D01*
X19338095Y-9522619D01*
X20077380Y-51451190D02*
X19077380Y-51451190D01*
X19791666Y-51117857D01*
X19077380Y-50784523D01*
X20077380Y-50784523D01*
X19410714Y-49879761D02*
X20077380Y-49879761D01*
X19410714Y-50308333D02*
X19934523Y-50308333D01*
X20029761Y-50260714D01*
X20077380Y-50165476D01*
X20077380Y-50022619D01*
X20029761Y-49927380D01*
X19982142Y-49879761D01*
X20077380Y-49403571D02*
X19410714Y-49403571D01*
X19601190Y-49403571D02*
X19505952Y-49355952D01*
X19458333Y-49308333D01*
X19410714Y-49213095D01*
X19410714Y-49117857D01*
X20077380Y-48355952D02*
X19553571Y-48355952D01*
X19458333Y-48403571D01*
X19410714Y-48498809D01*
X19410714Y-48689285D01*
X19458333Y-48784523D01*
X20029761Y-48355952D02*
X20077380Y-48451190D01*
X20077380Y-48689285D01*
X20029761Y-48784523D01*
X19934523Y-48832142D01*
X19839285Y-48832142D01*
X19744047Y-48784523D01*
X19696428Y-48689285D01*
X19696428Y-48451190D01*
X19648809Y-48355952D01*
X19410714Y-48022619D02*
X19410714Y-47641666D01*
X19077380Y-47879761D02*
X19934523Y-47879761D01*
X20029761Y-47832142D01*
X20077380Y-47736904D01*
X20077380Y-47641666D01*
X20077380Y-46879761D02*
X19553571Y-46879761D01*
X19458333Y-46927380D01*
X19410714Y-47022619D01*
X19410714Y-47213095D01*
X19458333Y-47308333D01*
X20029761Y-46879761D02*
X20077380Y-46975000D01*
X20077380Y-47213095D01*
X20029761Y-47308333D01*
X19934523Y-47355952D01*
X19839285Y-47355952D01*
X19744047Y-47308333D01*
X19696428Y-47213095D01*
X19696428Y-46975000D01*
X19648809Y-46879761D01*
X19696428Y-46403571D02*
X19696428Y-45641666D01*
X19982142Y-44594047D02*
X20029761Y-44641666D01*
X20077380Y-44784523D01*
X20077380Y-44879761D01*
X20029761Y-45022619D01*
X19934523Y-45117857D01*
X19839285Y-45165476D01*
X19648809Y-45213095D01*
X19505952Y-45213095D01*
X19315476Y-45165476D01*
X19220238Y-45117857D01*
X19125000Y-45022619D01*
X19077380Y-44879761D01*
X19077380Y-44784523D01*
X19125000Y-44641666D01*
X19172619Y-44594047D01*
X20029761Y-43784523D02*
X20077380Y-43879761D01*
X20077380Y-44070238D01*
X20029761Y-44165476D01*
X19934523Y-44213095D01*
X19553571Y-44213095D01*
X19458333Y-44165476D01*
X19410714Y-44070238D01*
X19410714Y-43879761D01*
X19458333Y-43784523D01*
X19553571Y-43736904D01*
X19648809Y-43736904D01*
X19744047Y-44213095D01*
X20077380Y-43308333D02*
X19410714Y-43308333D01*
X19601190Y-43308333D02*
X19505952Y-43260714D01*
X19458333Y-43213095D01*
X19410714Y-43117857D01*
X19410714Y-43022619D01*
X20077380Y-42260714D02*
X19553571Y-42260714D01*
X19458333Y-42308333D01*
X19410714Y-42403571D01*
X19410714Y-42594047D01*
X19458333Y-42689285D01*
X20029761Y-42260714D02*
X20077380Y-42355952D01*
X20077380Y-42594047D01*
X20029761Y-42689285D01*
X19934523Y-42736904D01*
X19839285Y-42736904D01*
X19744047Y-42689285D01*
X19696428Y-42594047D01*
X19696428Y-42355952D01*
X19648809Y-42260714D01*
X20077380Y-41784523D02*
X19410714Y-41784523D01*
X19505952Y-41784523D02*
X19458333Y-41736904D01*
X19410714Y-41641666D01*
X19410714Y-41498809D01*
X19458333Y-41403571D01*
X19553571Y-41355952D01*
X20077380Y-41355952D01*
X19553571Y-41355952D02*
X19458333Y-41308333D01*
X19410714Y-41213095D01*
X19410714Y-41070238D01*
X19458333Y-40975000D01*
X19553571Y-40927380D01*
X20077380Y-40927380D01*
X20077380Y-40451190D02*
X19410714Y-40451190D01*
X19077380Y-40451190D02*
X19125000Y-40498809D01*
X19172619Y-40451190D01*
X19125000Y-40403571D01*
X19077380Y-40451190D01*
X19172619Y-40451190D01*
X20029761Y-39546428D02*
X20077380Y-39641666D01*
X20077380Y-39832142D01*
X20029761Y-39927380D01*
X19982142Y-39975000D01*
X19886904Y-40022619D01*
X19601190Y-40022619D01*
X19505952Y-39975000D01*
X19458333Y-39927380D01*
X19410714Y-39832142D01*
X19410714Y-39641666D01*
X19458333Y-39546428D01*
X19696428Y-39117857D02*
X19696428Y-38355952D01*
X19982142Y-37308333D02*
X20029761Y-37355952D01*
X20077380Y-37498809D01*
X20077380Y-37594047D01*
X20029761Y-37736904D01*
X19934523Y-37832142D01*
X19839285Y-37879761D01*
X19648809Y-37927380D01*
X19505952Y-37927380D01*
X19315476Y-37879761D01*
X19220238Y-37832142D01*
X19125000Y-37736904D01*
X19077380Y-37594047D01*
X19077380Y-37498809D01*
X19125000Y-37355952D01*
X19172619Y-37308333D01*
X20077380Y-36451190D02*
X19553571Y-36451190D01*
X19458333Y-36498809D01*
X19410714Y-36594047D01*
X19410714Y-36784523D01*
X19458333Y-36879761D01*
X20029761Y-36451190D02*
X20077380Y-36546428D01*
X20077380Y-36784523D01*
X20029761Y-36879761D01*
X19934523Y-36927380D01*
X19839285Y-36927380D01*
X19744047Y-36879761D01*
X19696428Y-36784523D01*
X19696428Y-36546428D01*
X19648809Y-36451190D01*
X19410714Y-35975000D02*
X20410714Y-35975000D01*
X19458333Y-35975000D02*
X19410714Y-35879761D01*
X19410714Y-35689285D01*
X19458333Y-35594047D01*
X19505952Y-35546428D01*
X19601190Y-35498809D01*
X19886904Y-35498809D01*
X19982142Y-35546428D01*
X20029761Y-35594047D01*
X20077380Y-35689285D01*
X20077380Y-35879761D01*
X20029761Y-35975000D01*
X20077380Y-34641666D02*
X19553571Y-34641666D01*
X19458333Y-34689285D01*
X19410714Y-34784523D01*
X19410714Y-34975000D01*
X19458333Y-35070238D01*
X20029761Y-34641666D02*
X20077380Y-34736904D01*
X20077380Y-34975000D01*
X20029761Y-35070238D01*
X19934523Y-35117857D01*
X19839285Y-35117857D01*
X19744047Y-35070238D01*
X19696428Y-34975000D01*
X19696428Y-34736904D01*
X19648809Y-34641666D01*
X20029761Y-33736904D02*
X20077380Y-33832142D01*
X20077380Y-34022619D01*
X20029761Y-34117857D01*
X19982142Y-34165476D01*
X19886904Y-34213095D01*
X19601190Y-34213095D01*
X19505952Y-34165476D01*
X19458333Y-34117857D01*
X19410714Y-34022619D01*
X19410714Y-33832142D01*
X19458333Y-33736904D01*
X20077380Y-33308333D02*
X19410714Y-33308333D01*
X19077380Y-33308333D02*
X19125000Y-33355952D01*
X19172619Y-33308333D01*
X19125000Y-33260714D01*
X19077380Y-33308333D01*
X19172619Y-33308333D01*
X19410714Y-32975000D02*
X19410714Y-32594047D01*
X19077380Y-32832142D02*
X19934523Y-32832142D01*
X20029761Y-32784523D01*
X20077380Y-32689285D01*
X20077380Y-32594047D01*
X20077380Y-32117857D02*
X20029761Y-32213095D01*
X19982142Y-32260714D01*
X19886904Y-32308333D01*
X19601190Y-32308333D01*
X19505952Y-32260714D01*
X19458333Y-32213095D01*
X19410714Y-32117857D01*
X19410714Y-31975000D01*
X19458333Y-31879761D01*
X19505952Y-31832142D01*
X19601190Y-31784523D01*
X19886904Y-31784523D01*
X19982142Y-31832142D01*
X20029761Y-31879761D01*
X20077380Y-31975000D01*
X20077380Y-32117857D01*
X20077380Y-31355952D02*
X19410714Y-31355952D01*
X19601190Y-31355952D02*
X19505952Y-31308333D01*
X19458333Y-31260714D01*
X19410714Y-31165476D01*
X19410714Y-31070238D01*
X19696428Y-30736904D02*
X19696428Y-29975000D01*
X19077380Y-29022619D02*
X19077380Y-29498809D01*
X19553571Y-29546428D01*
X19505952Y-29498809D01*
X19458333Y-29403571D01*
X19458333Y-29165476D01*
X19505952Y-29070238D01*
X19553571Y-29022619D01*
X19648809Y-28975000D01*
X19886904Y-28975000D01*
X19982142Y-29022619D01*
X20029761Y-29070238D01*
X20077380Y-29165476D01*
X20077380Y-29403571D01*
X20029761Y-29498809D01*
X19982142Y-29546428D01*
X19077380Y-28355952D02*
X19077380Y-28260714D01*
X19125000Y-28165476D01*
X19172619Y-28117857D01*
X19267857Y-28070238D01*
X19458333Y-28022619D01*
X19696428Y-28022619D01*
X19886904Y-28070238D01*
X19982142Y-28117857D01*
X20029761Y-28165476D01*
X20077380Y-28260714D01*
X20077380Y-28355952D01*
X20029761Y-28451190D01*
X19982142Y-28498809D01*
X19886904Y-28546428D01*
X19696428Y-28594047D01*
X19458333Y-28594047D01*
X19267857Y-28546428D01*
X19172619Y-28498809D01*
X19125000Y-28451190D01*
X19077380Y-28355952D01*
X19410714Y-27689285D02*
X20077380Y-27451190D01*
X19410714Y-27213095D01*
X20077380Y-26308333D02*
X20077380Y-26879761D01*
X20077380Y-26594047D02*
X19077380Y-26594047D01*
X19220238Y-26689285D01*
X19315476Y-26784523D01*
X19363095Y-26879761D01*
X19696428Y-25879761D02*
X19696428Y-25117857D01*
X19172619Y-24689285D02*
X19125000Y-24641666D01*
X19077380Y-24546428D01*
X19077380Y-24308333D01*
X19125000Y-24213095D01*
X19172619Y-24165476D01*
X19267857Y-24117857D01*
X19363095Y-24117857D01*
X19505952Y-24165476D01*
X20077380Y-24736904D01*
X20077380Y-24117857D01*
X19172619Y-23736904D02*
X19125000Y-23689285D01*
X19077380Y-23594047D01*
X19077380Y-23355952D01*
X19125000Y-23260714D01*
X19172619Y-23213095D01*
X19267857Y-23165476D01*
X19363095Y-23165476D01*
X19505952Y-23213095D01*
X20077380Y-23784523D01*
X20077380Y-23165476D01*
X19410714Y-22308333D02*
X20077380Y-22308333D01*
X19410714Y-22736904D02*
X19934523Y-22736904D01*
X20029761Y-22689285D01*
X20077380Y-22594047D01*
X20077380Y-22451190D01*
X20029761Y-22355952D01*
X19982142Y-22308333D01*
X19553571Y-21498809D02*
X19553571Y-21832142D01*
X20077380Y-21832142D02*
X19077380Y-21832142D01*
X19077380Y-21355952D01*
X19172619Y-21022619D02*
X19125000Y-20975000D01*
X19077380Y-20879761D01*
X19077380Y-20641666D01*
X19125000Y-20546428D01*
X19172619Y-20498809D01*
X19267857Y-20451190D01*
X19363095Y-20451190D01*
X19505952Y-20498809D01*
X20077380Y-21070238D01*
X20077380Y-20451190D01*
X16102380Y-45476190D02*
X15102380Y-45476190D01*
X15816666Y-45142857D01*
X15102380Y-44809523D01*
X16102380Y-44809523D01*
X15435714Y-43904761D02*
X16102380Y-43904761D01*
X15435714Y-44333333D02*
X15959523Y-44333333D01*
X16054761Y-44285714D01*
X16102380Y-44190476D01*
X16102380Y-44047619D01*
X16054761Y-43952380D01*
X16007142Y-43904761D01*
X16102380Y-43428571D02*
X15435714Y-43428571D01*
X15626190Y-43428571D02*
X15530952Y-43380952D01*
X15483333Y-43333333D01*
X15435714Y-43238095D01*
X15435714Y-43142857D01*
X16102380Y-42380952D02*
X15578571Y-42380952D01*
X15483333Y-42428571D01*
X15435714Y-42523809D01*
X15435714Y-42714285D01*
X15483333Y-42809523D01*
X16054761Y-42380952D02*
X16102380Y-42476190D01*
X16102380Y-42714285D01*
X16054761Y-42809523D01*
X15959523Y-42857142D01*
X15864285Y-42857142D01*
X15769047Y-42809523D01*
X15721428Y-42714285D01*
X15721428Y-42476190D01*
X15673809Y-42380952D01*
X15435714Y-42047619D02*
X15435714Y-41666666D01*
X15102380Y-41904761D02*
X15959523Y-41904761D01*
X16054761Y-41857142D01*
X16102380Y-41761904D01*
X16102380Y-41666666D01*
X16102380Y-40904761D02*
X15578571Y-40904761D01*
X15483333Y-40952380D01*
X15435714Y-41047619D01*
X15435714Y-41238095D01*
X15483333Y-41333333D01*
X16054761Y-40904761D02*
X16102380Y-41000000D01*
X16102380Y-41238095D01*
X16054761Y-41333333D01*
X15959523Y-41380952D01*
X15864285Y-41380952D01*
X15769047Y-41333333D01*
X15721428Y-41238095D01*
X15721428Y-41000000D01*
X15673809Y-40904761D01*
X15721428Y-40428571D02*
X15721428Y-39666666D01*
X16007142Y-38619047D02*
X16054761Y-38666666D01*
X16102380Y-38809523D01*
X16102380Y-38904761D01*
X16054761Y-39047619D01*
X15959523Y-39142857D01*
X15864285Y-39190476D01*
X15673809Y-39238095D01*
X15530952Y-39238095D01*
X15340476Y-39190476D01*
X15245238Y-39142857D01*
X15150000Y-39047619D01*
X15102380Y-38904761D01*
X15102380Y-38809523D01*
X15150000Y-38666666D01*
X15197619Y-38619047D01*
X16054761Y-37809523D02*
X16102380Y-37904761D01*
X16102380Y-38095238D01*
X16054761Y-38190476D01*
X15959523Y-38238095D01*
X15578571Y-38238095D01*
X15483333Y-38190476D01*
X15435714Y-38095238D01*
X15435714Y-37904761D01*
X15483333Y-37809523D01*
X15578571Y-37761904D01*
X15673809Y-37761904D01*
X15769047Y-38238095D01*
X16102380Y-37333333D02*
X15435714Y-37333333D01*
X15626190Y-37333333D02*
X15530952Y-37285714D01*
X15483333Y-37238095D01*
X15435714Y-37142857D01*
X15435714Y-37047619D01*
X16102380Y-36285714D02*
X15578571Y-36285714D01*
X15483333Y-36333333D01*
X15435714Y-36428571D01*
X15435714Y-36619047D01*
X15483333Y-36714285D01*
X16054761Y-36285714D02*
X16102380Y-36380952D01*
X16102380Y-36619047D01*
X16054761Y-36714285D01*
X15959523Y-36761904D01*
X15864285Y-36761904D01*
X15769047Y-36714285D01*
X15721428Y-36619047D01*
X15721428Y-36380952D01*
X15673809Y-36285714D01*
X16102380Y-35809523D02*
X15435714Y-35809523D01*
X15530952Y-35809523D02*
X15483333Y-35761904D01*
X15435714Y-35666666D01*
X15435714Y-35523809D01*
X15483333Y-35428571D01*
X15578571Y-35380952D01*
X16102380Y-35380952D01*
X15578571Y-35380952D02*
X15483333Y-35333333D01*
X15435714Y-35238095D01*
X15435714Y-35095238D01*
X15483333Y-35000000D01*
X15578571Y-34952380D01*
X16102380Y-34952380D01*
X16102380Y-34476190D02*
X15435714Y-34476190D01*
X15102380Y-34476190D02*
X15150000Y-34523809D01*
X15197619Y-34476190D01*
X15150000Y-34428571D01*
X15102380Y-34476190D01*
X15197619Y-34476190D01*
X16054761Y-33571428D02*
X16102380Y-33666666D01*
X16102380Y-33857142D01*
X16054761Y-33952380D01*
X16007142Y-34000000D01*
X15911904Y-34047619D01*
X15626190Y-34047619D01*
X15530952Y-34000000D01*
X15483333Y-33952380D01*
X15435714Y-33857142D01*
X15435714Y-33666666D01*
X15483333Y-33571428D01*
X15721428Y-33142857D02*
X15721428Y-32380952D01*
X16007142Y-31333333D02*
X16054761Y-31380952D01*
X16102380Y-31523809D01*
X16102380Y-31619047D01*
X16054761Y-31761904D01*
X15959523Y-31857142D01*
X15864285Y-31904761D01*
X15673809Y-31952380D01*
X15530952Y-31952380D01*
X15340476Y-31904761D01*
X15245238Y-31857142D01*
X15150000Y-31761904D01*
X15102380Y-31619047D01*
X15102380Y-31523809D01*
X15150000Y-31380952D01*
X15197619Y-31333333D01*
X16102380Y-30476190D02*
X15578571Y-30476190D01*
X15483333Y-30523809D01*
X15435714Y-30619047D01*
X15435714Y-30809523D01*
X15483333Y-30904761D01*
X16054761Y-30476190D02*
X16102380Y-30571428D01*
X16102380Y-30809523D01*
X16054761Y-30904761D01*
X15959523Y-30952380D01*
X15864285Y-30952380D01*
X15769047Y-30904761D01*
X15721428Y-30809523D01*
X15721428Y-30571428D01*
X15673809Y-30476190D01*
X15435714Y-30000000D02*
X16435714Y-30000000D01*
X15483333Y-30000000D02*
X15435714Y-29904761D01*
X15435714Y-29714285D01*
X15483333Y-29619047D01*
X15530952Y-29571428D01*
X15626190Y-29523809D01*
X15911904Y-29523809D01*
X16007142Y-29571428D01*
X16054761Y-29619047D01*
X16102380Y-29714285D01*
X16102380Y-29904761D01*
X16054761Y-30000000D01*
X16102380Y-28666666D02*
X15578571Y-28666666D01*
X15483333Y-28714285D01*
X15435714Y-28809523D01*
X15435714Y-29000000D01*
X15483333Y-29095238D01*
X16054761Y-28666666D02*
X16102380Y-28761904D01*
X16102380Y-29000000D01*
X16054761Y-29095238D01*
X15959523Y-29142857D01*
X15864285Y-29142857D01*
X15769047Y-29095238D01*
X15721428Y-29000000D01*
X15721428Y-28761904D01*
X15673809Y-28666666D01*
X16054761Y-27761904D02*
X16102380Y-27857142D01*
X16102380Y-28047619D01*
X16054761Y-28142857D01*
X16007142Y-28190476D01*
X15911904Y-28238095D01*
X15626190Y-28238095D01*
X15530952Y-28190476D01*
X15483333Y-28142857D01*
X15435714Y-28047619D01*
X15435714Y-27857142D01*
X15483333Y-27761904D01*
X16102380Y-27333333D02*
X15435714Y-27333333D01*
X15102380Y-27333333D02*
X15150000Y-27380952D01*
X15197619Y-27333333D01*
X15150000Y-27285714D01*
X15102380Y-27333333D01*
X15197619Y-27333333D01*
X15435714Y-27000000D02*
X15435714Y-26619047D01*
X15102380Y-26857142D02*
X15959523Y-26857142D01*
X16054761Y-26809523D01*
X16102380Y-26714285D01*
X16102380Y-26619047D01*
X16102380Y-26142857D02*
X16054761Y-26238095D01*
X16007142Y-26285714D01*
X15911904Y-26333333D01*
X15626190Y-26333333D01*
X15530952Y-26285714D01*
X15483333Y-26238095D01*
X15435714Y-26142857D01*
X15435714Y-26000000D01*
X15483333Y-25904761D01*
X15530952Y-25857142D01*
X15626190Y-25809523D01*
X15911904Y-25809523D01*
X16007142Y-25857142D01*
X16054761Y-25904761D01*
X16102380Y-26000000D01*
X16102380Y-26142857D01*
X16102380Y-25380952D02*
X15435714Y-25380952D01*
X15626190Y-25380952D02*
X15530952Y-25333333D01*
X15483333Y-25285714D01*
X15435714Y-25190476D01*
X15435714Y-25095238D01*
X15721428Y-24761904D02*
X15721428Y-24000000D01*
X15102380Y-23047619D02*
X15102380Y-23523809D01*
X15578571Y-23571428D01*
X15530952Y-23523809D01*
X15483333Y-23428571D01*
X15483333Y-23190476D01*
X15530952Y-23095238D01*
X15578571Y-23047619D01*
X15673809Y-23000000D01*
X15911904Y-23000000D01*
X16007142Y-23047619D01*
X16054761Y-23095238D01*
X16102380Y-23190476D01*
X16102380Y-23428571D01*
X16054761Y-23523809D01*
X16007142Y-23571428D01*
X15102380Y-22380952D02*
X15102380Y-22285714D01*
X15150000Y-22190476D01*
X15197619Y-22142857D01*
X15292857Y-22095238D01*
X15483333Y-22047619D01*
X15721428Y-22047619D01*
X15911904Y-22095238D01*
X16007142Y-22142857D01*
X16054761Y-22190476D01*
X16102380Y-22285714D01*
X16102380Y-22380952D01*
X16054761Y-22476190D01*
X16007142Y-22523809D01*
X15911904Y-22571428D01*
X15721428Y-22619047D01*
X15483333Y-22619047D01*
X15292857Y-22571428D01*
X15197619Y-22523809D01*
X15150000Y-22476190D01*
X15102380Y-22380952D01*
X15435714Y-21714285D02*
X16102380Y-21476190D01*
X15435714Y-21238095D01*
X16102380Y-20333333D02*
X16102380Y-20904761D01*
X16102380Y-20619047D02*
X15102380Y-20619047D01*
X15245238Y-20714285D01*
X15340476Y-20809523D01*
X15388095Y-20904761D01*
X15721428Y-19904761D02*
X15721428Y-19142857D01*
X15197619Y-18714285D02*
X15150000Y-18666666D01*
X15102380Y-18571428D01*
X15102380Y-18333333D01*
X15150000Y-18238095D01*
X15197619Y-18190476D01*
X15292857Y-18142857D01*
X15388095Y-18142857D01*
X15530952Y-18190476D01*
X16102380Y-18761904D01*
X16102380Y-18142857D01*
X15197619Y-17761904D02*
X15150000Y-17714285D01*
X15102380Y-17619047D01*
X15102380Y-17380952D01*
X15150000Y-17285714D01*
X15197619Y-17238095D01*
X15292857Y-17190476D01*
X15388095Y-17190476D01*
X15530952Y-17238095D01*
X16102380Y-17809523D01*
X16102380Y-17190476D01*
X15435714Y-16333333D02*
X16102380Y-16333333D01*
X15435714Y-16761904D02*
X15959523Y-16761904D01*
X16054761Y-16714285D01*
X16102380Y-16619047D01*
X16102380Y-16476190D01*
X16054761Y-16380952D01*
X16007142Y-16333333D01*
X15578571Y-15523809D02*
X15578571Y-15857142D01*
X16102380Y-15857142D02*
X15102380Y-15857142D01*
X15102380Y-15380952D01*
X15102380Y-15095238D02*
X15102380Y-14476190D01*
X15483333Y-14809523D01*
X15483333Y-14666666D01*
X15530952Y-14571428D01*
X15578571Y-14523809D01*
X15673809Y-14476190D01*
X15911904Y-14476190D01*
X16007142Y-14523809D01*
X16054761Y-14571428D01*
X16102380Y-14666666D01*
X16102380Y-14952380D01*
X16054761Y-15047619D01*
X16007142Y-15095238D01*
X15927380Y-56376190D02*
X14927380Y-56376190D01*
X15641666Y-56042857D01*
X14927380Y-55709523D01*
X15927380Y-55709523D01*
X15260714Y-54804761D02*
X15927380Y-54804761D01*
X15260714Y-55233333D02*
X15784523Y-55233333D01*
X15879761Y-55185714D01*
X15927380Y-55090476D01*
X15927380Y-54947619D01*
X15879761Y-54852380D01*
X15832142Y-54804761D01*
X15927380Y-54328571D02*
X15260714Y-54328571D01*
X15451190Y-54328571D02*
X15355952Y-54280952D01*
X15308333Y-54233333D01*
X15260714Y-54138095D01*
X15260714Y-54042857D01*
X15927380Y-53280952D02*
X15403571Y-53280952D01*
X15308333Y-53328571D01*
X15260714Y-53423809D01*
X15260714Y-53614285D01*
X15308333Y-53709523D01*
X15879761Y-53280952D02*
X15927380Y-53376190D01*
X15927380Y-53614285D01*
X15879761Y-53709523D01*
X15784523Y-53757142D01*
X15689285Y-53757142D01*
X15594047Y-53709523D01*
X15546428Y-53614285D01*
X15546428Y-53376190D01*
X15498809Y-53280952D01*
X15260714Y-52947619D02*
X15260714Y-52566666D01*
X14927380Y-52804761D02*
X15784523Y-52804761D01*
X15879761Y-52757142D01*
X15927380Y-52661904D01*
X15927380Y-52566666D01*
X15927380Y-51804761D02*
X15403571Y-51804761D01*
X15308333Y-51852380D01*
X15260714Y-51947619D01*
X15260714Y-52138095D01*
X15308333Y-52233333D01*
X15879761Y-51804761D02*
X15927380Y-51900000D01*
X15927380Y-52138095D01*
X15879761Y-52233333D01*
X15784523Y-52280952D01*
X15689285Y-52280952D01*
X15594047Y-52233333D01*
X15546428Y-52138095D01*
X15546428Y-51900000D01*
X15498809Y-51804761D01*
X15546428Y-51328571D02*
X15546428Y-50566666D01*
X15832142Y-49519047D02*
X15879761Y-49566666D01*
X15927380Y-49709523D01*
X15927380Y-49804761D01*
X15879761Y-49947619D01*
X15784523Y-50042857D01*
X15689285Y-50090476D01*
X15498809Y-50138095D01*
X15355952Y-50138095D01*
X15165476Y-50090476D01*
X15070238Y-50042857D01*
X14975000Y-49947619D01*
X14927380Y-49804761D01*
X14927380Y-49709523D01*
X14975000Y-49566666D01*
X15022619Y-49519047D01*
X15879761Y-48709523D02*
X15927380Y-48804761D01*
X15927380Y-48995238D01*
X15879761Y-49090476D01*
X15784523Y-49138095D01*
X15403571Y-49138095D01*
X15308333Y-49090476D01*
X15260714Y-48995238D01*
X15260714Y-48804761D01*
X15308333Y-48709523D01*
X15403571Y-48661904D01*
X15498809Y-48661904D01*
X15594047Y-49138095D01*
X15927380Y-48233333D02*
X15260714Y-48233333D01*
X15451190Y-48233333D02*
X15355952Y-48185714D01*
X15308333Y-48138095D01*
X15260714Y-48042857D01*
X15260714Y-47947619D01*
X15927380Y-47185714D02*
X15403571Y-47185714D01*
X15308333Y-47233333D01*
X15260714Y-47328571D01*
X15260714Y-47519047D01*
X15308333Y-47614285D01*
X15879761Y-47185714D02*
X15927380Y-47280952D01*
X15927380Y-47519047D01*
X15879761Y-47614285D01*
X15784523Y-47661904D01*
X15689285Y-47661904D01*
X15594047Y-47614285D01*
X15546428Y-47519047D01*
X15546428Y-47280952D01*
X15498809Y-47185714D01*
X15927380Y-46709523D02*
X15260714Y-46709523D01*
X15355952Y-46709523D02*
X15308333Y-46661904D01*
X15260714Y-46566666D01*
X15260714Y-46423809D01*
X15308333Y-46328571D01*
X15403571Y-46280952D01*
X15927380Y-46280952D01*
X15403571Y-46280952D02*
X15308333Y-46233333D01*
X15260714Y-46138095D01*
X15260714Y-45995238D01*
X15308333Y-45900000D01*
X15403571Y-45852380D01*
X15927380Y-45852380D01*
X15927380Y-45376190D02*
X15260714Y-45376190D01*
X14927380Y-45376190D02*
X14975000Y-45423809D01*
X15022619Y-45376190D01*
X14975000Y-45328571D01*
X14927380Y-45376190D01*
X15022619Y-45376190D01*
X15879761Y-44471428D02*
X15927380Y-44566666D01*
X15927380Y-44757142D01*
X15879761Y-44852380D01*
X15832142Y-44900000D01*
X15736904Y-44947619D01*
X15451190Y-44947619D01*
X15355952Y-44900000D01*
X15308333Y-44852380D01*
X15260714Y-44757142D01*
X15260714Y-44566666D01*
X15308333Y-44471428D01*
X15546428Y-44042857D02*
X15546428Y-43280952D01*
X15832142Y-42233333D02*
X15879761Y-42280952D01*
X15927380Y-42423809D01*
X15927380Y-42519047D01*
X15879761Y-42661904D01*
X15784523Y-42757142D01*
X15689285Y-42804761D01*
X15498809Y-42852380D01*
X15355952Y-42852380D01*
X15165476Y-42804761D01*
X15070238Y-42757142D01*
X14975000Y-42661904D01*
X14927380Y-42519047D01*
X14927380Y-42423809D01*
X14975000Y-42280952D01*
X15022619Y-42233333D01*
X15927380Y-41376190D02*
X15403571Y-41376190D01*
X15308333Y-41423809D01*
X15260714Y-41519047D01*
X15260714Y-41709523D01*
X15308333Y-41804761D01*
X15879761Y-41376190D02*
X15927380Y-41471428D01*
X15927380Y-41709523D01*
X15879761Y-41804761D01*
X15784523Y-41852380D01*
X15689285Y-41852380D01*
X15594047Y-41804761D01*
X15546428Y-41709523D01*
X15546428Y-41471428D01*
X15498809Y-41376190D01*
X15260714Y-40900000D02*
X16260714Y-40900000D01*
X15308333Y-40900000D02*
X15260714Y-40804761D01*
X15260714Y-40614285D01*
X15308333Y-40519047D01*
X15355952Y-40471428D01*
X15451190Y-40423809D01*
X15736904Y-40423809D01*
X15832142Y-40471428D01*
X15879761Y-40519047D01*
X15927380Y-40614285D01*
X15927380Y-40804761D01*
X15879761Y-40900000D01*
X15927380Y-39566666D02*
X15403571Y-39566666D01*
X15308333Y-39614285D01*
X15260714Y-39709523D01*
X15260714Y-39900000D01*
X15308333Y-39995238D01*
X15879761Y-39566666D02*
X15927380Y-39661904D01*
X15927380Y-39900000D01*
X15879761Y-39995238D01*
X15784523Y-40042857D01*
X15689285Y-40042857D01*
X15594047Y-39995238D01*
X15546428Y-39900000D01*
X15546428Y-39661904D01*
X15498809Y-39566666D01*
X15879761Y-38661904D02*
X15927380Y-38757142D01*
X15927380Y-38947619D01*
X15879761Y-39042857D01*
X15832142Y-39090476D01*
X15736904Y-39138095D01*
X15451190Y-39138095D01*
X15355952Y-39090476D01*
X15308333Y-39042857D01*
X15260714Y-38947619D01*
X15260714Y-38757142D01*
X15308333Y-38661904D01*
X15927380Y-38233333D02*
X15260714Y-38233333D01*
X14927380Y-38233333D02*
X14975000Y-38280952D01*
X15022619Y-38233333D01*
X14975000Y-38185714D01*
X14927380Y-38233333D01*
X15022619Y-38233333D01*
X15260714Y-37900000D02*
X15260714Y-37519047D01*
X14927380Y-37757142D02*
X15784523Y-37757142D01*
X15879761Y-37709523D01*
X15927380Y-37614285D01*
X15927380Y-37519047D01*
X15927380Y-37042857D02*
X15879761Y-37138095D01*
X15832142Y-37185714D01*
X15736904Y-37233333D01*
X15451190Y-37233333D01*
X15355952Y-37185714D01*
X15308333Y-37138095D01*
X15260714Y-37042857D01*
X15260714Y-36900000D01*
X15308333Y-36804761D01*
X15355952Y-36757142D01*
X15451190Y-36709523D01*
X15736904Y-36709523D01*
X15832142Y-36757142D01*
X15879761Y-36804761D01*
X15927380Y-36900000D01*
X15927380Y-37042857D01*
X15927380Y-36280952D02*
X15260714Y-36280952D01*
X15451190Y-36280952D02*
X15355952Y-36233333D01*
X15308333Y-36185714D01*
X15260714Y-36090476D01*
X15260714Y-35995238D01*
X15546428Y-35661904D02*
X15546428Y-34900000D01*
X14927380Y-33947619D02*
X14927380Y-34423809D01*
X15403571Y-34471428D01*
X15355952Y-34423809D01*
X15308333Y-34328571D01*
X15308333Y-34090476D01*
X15355952Y-33995238D01*
X15403571Y-33947619D01*
X15498809Y-33900000D01*
X15736904Y-33900000D01*
X15832142Y-33947619D01*
X15879761Y-33995238D01*
X15927380Y-34090476D01*
X15927380Y-34328571D01*
X15879761Y-34423809D01*
X15832142Y-34471428D01*
X14927380Y-33280952D02*
X14927380Y-33185714D01*
X14975000Y-33090476D01*
X15022619Y-33042857D01*
X15117857Y-32995238D01*
X15308333Y-32947619D01*
X15546428Y-32947619D01*
X15736904Y-32995238D01*
X15832142Y-33042857D01*
X15879761Y-33090476D01*
X15927380Y-33185714D01*
X15927380Y-33280952D01*
X15879761Y-33376190D01*
X15832142Y-33423809D01*
X15736904Y-33471428D01*
X15546428Y-33519047D01*
X15308333Y-33519047D01*
X15117857Y-33471428D01*
X15022619Y-33423809D01*
X14975000Y-33376190D01*
X14927380Y-33280952D01*
X15260714Y-32614285D02*
X15927380Y-32376190D01*
X15260714Y-32138095D01*
X15927380Y-31233333D02*
X15927380Y-31804761D01*
X15927380Y-31519047D02*
X14927380Y-31519047D01*
X15070238Y-31614285D01*
X15165476Y-31709523D01*
X15213095Y-31804761D01*
X15546428Y-30804761D02*
X15546428Y-30042857D01*
X15022619Y-29614285D02*
X14975000Y-29566666D01*
X14927380Y-29471428D01*
X14927380Y-29233333D01*
X14975000Y-29138095D01*
X15022619Y-29090476D01*
X15117857Y-29042857D01*
X15213095Y-29042857D01*
X15355952Y-29090476D01*
X15927380Y-29661904D01*
X15927380Y-29042857D01*
X15022619Y-28661904D02*
X14975000Y-28614285D01*
X14927380Y-28519047D01*
X14927380Y-28280952D01*
X14975000Y-28185714D01*
X15022619Y-28138095D01*
X15117857Y-28090476D01*
X15213095Y-28090476D01*
X15355952Y-28138095D01*
X15927380Y-28709523D01*
X15927380Y-28090476D01*
X15260714Y-27233333D02*
X15927380Y-27233333D01*
X15260714Y-27661904D02*
X15784523Y-27661904D01*
X15879761Y-27614285D01*
X15927380Y-27519047D01*
X15927380Y-27376190D01*
X15879761Y-27280952D01*
X15832142Y-27233333D01*
X15403571Y-26423809D02*
X15403571Y-26757142D01*
X15927380Y-26757142D02*
X14927380Y-26757142D01*
X14927380Y-26280952D01*
X15260714Y-25471428D02*
X15927380Y-25471428D01*
X14879761Y-25709523D02*
X15594047Y-25947619D01*
X15594047Y-25328571D01*
X35292619Y-61055238D02*
X35245000Y-61150476D01*
X35149761Y-61245714D01*
X35006904Y-61388571D01*
X34959285Y-61483809D01*
X34959285Y-61579047D01*
X35197380Y-61531428D02*
X35149761Y-61626666D01*
X35054523Y-61721904D01*
X34864047Y-61769523D01*
X34530714Y-61769523D01*
X34340238Y-61721904D01*
X34245000Y-61626666D01*
X34197380Y-61531428D01*
X34197380Y-61340952D01*
X34245000Y-61245714D01*
X34340238Y-61150476D01*
X34530714Y-61102857D01*
X34864047Y-61102857D01*
X35054523Y-61150476D01*
X35149761Y-61245714D01*
X35197380Y-61340952D01*
X35197380Y-61531428D01*
X35197380Y-60150476D02*
X35197380Y-60721904D01*
X35197380Y-60436190D02*
X34197380Y-60436190D01*
X34340238Y-60531428D01*
X34435476Y-60626666D01*
X34483095Y-60721904D01*
X30897380Y-48651666D02*
X30421190Y-48985000D01*
X30897380Y-49223095D02*
X29897380Y-49223095D01*
X29897380Y-48842142D01*
X29945000Y-48746904D01*
X29992619Y-48699285D01*
X30087857Y-48651666D01*
X30230714Y-48651666D01*
X30325952Y-48699285D01*
X30373571Y-48746904D01*
X30421190Y-48842142D01*
X30421190Y-49223095D01*
X30897380Y-47699285D02*
X30897380Y-48270714D01*
X30897380Y-47985000D02*
X29897380Y-47985000D01*
X30040238Y-48080238D01*
X30135476Y-48175476D01*
X30183095Y-48270714D01*
X24267380Y-29348095D02*
X25076904Y-29348095D01*
X25172142Y-29300476D01*
X25219761Y-29252857D01*
X25267380Y-29157619D01*
X25267380Y-28967142D01*
X25219761Y-28871904D01*
X25172142Y-28824285D01*
X25076904Y-28776666D01*
X24267380Y-28776666D01*
X25267380Y-27776666D02*
X25267380Y-28348095D01*
X25267380Y-28062380D02*
X24267380Y-28062380D01*
X24410238Y-28157619D01*
X24505476Y-28252857D01*
X24553095Y-28348095D01*
X24267380Y-27157619D02*
X24267380Y-27062380D01*
X24315000Y-26967142D01*
X24362619Y-26919523D01*
X24457857Y-26871904D01*
X24648333Y-26824285D01*
X24886428Y-26824285D01*
X25076904Y-26871904D01*
X25172142Y-26919523D01*
X25219761Y-26967142D01*
X25267380Y-27062380D01*
X25267380Y-27157619D01*
X25219761Y-27252857D01*
X25172142Y-27300476D01*
X25076904Y-27348095D01*
X24886428Y-27395714D01*
X24648333Y-27395714D01*
X24457857Y-27348095D01*
X24362619Y-27300476D01*
X24315000Y-27252857D01*
X24267380Y-27157619D01*
X19062380Y-38503095D02*
X19871904Y-38503095D01*
X19967142Y-38455476D01*
X20014761Y-38407857D01*
X20062380Y-38312619D01*
X20062380Y-38122142D01*
X20014761Y-38026904D01*
X19967142Y-37979285D01*
X19871904Y-37931666D01*
X19062380Y-37931666D01*
X20062380Y-36931666D02*
X20062380Y-37503095D01*
X20062380Y-37217380D02*
X19062380Y-37217380D01*
X19205238Y-37312619D01*
X19300476Y-37407857D01*
X19348095Y-37503095D01*
X20062380Y-35979285D02*
X20062380Y-36550714D01*
X20062380Y-36265000D02*
X19062380Y-36265000D01*
X19205238Y-36360238D01*
X19300476Y-36455476D01*
X19348095Y-36550714D01*
X30536904Y-149877380D02*
X30536904Y-150686904D01*
X30584523Y-150782142D01*
X30632142Y-150829761D01*
X30727380Y-150877380D01*
X30917857Y-150877380D01*
X31013095Y-150829761D01*
X31060714Y-150782142D01*
X31108333Y-150686904D01*
X31108333Y-149877380D01*
X32108333Y-150877380D02*
X31536904Y-150877380D01*
X31822619Y-150877380D02*
X31822619Y-149877380D01*
X31727380Y-150020238D01*
X31632142Y-150115476D01*
X31536904Y-150163095D01*
X32441666Y-149877380D02*
X33108333Y-149877380D01*
X32679761Y-150877380D01*
X30611904Y-141277380D02*
X30611904Y-142086904D01*
X30659523Y-142182142D01*
X30707142Y-142229761D01*
X30802380Y-142277380D01*
X30992857Y-142277380D01*
X31088095Y-142229761D01*
X31135714Y-142182142D01*
X31183333Y-142086904D01*
X31183333Y-141277380D01*
X32183333Y-142277380D02*
X31611904Y-142277380D01*
X31897619Y-142277380D02*
X31897619Y-141277380D01*
X31802380Y-141420238D01*
X31707142Y-141515476D01*
X31611904Y-141563095D01*
X32754761Y-141705952D02*
X32659523Y-141658333D01*
X32611904Y-141610714D01*
X32564285Y-141515476D01*
X32564285Y-141467857D01*
X32611904Y-141372619D01*
X32659523Y-141325000D01*
X32754761Y-141277380D01*
X32945238Y-141277380D01*
X33040476Y-141325000D01*
X33088095Y-141372619D01*
X33135714Y-141467857D01*
X33135714Y-141515476D01*
X33088095Y-141610714D01*
X33040476Y-141658333D01*
X32945238Y-141705952D01*
X32754761Y-141705952D01*
X32659523Y-141753571D01*
X32611904Y-141801190D01*
X32564285Y-141896428D01*
X32564285Y-142086904D01*
X32611904Y-142182142D01*
X32659523Y-142229761D01*
X32754761Y-142277380D01*
X32945238Y-142277380D01*
X33040476Y-142229761D01*
X33088095Y-142182142D01*
X33135714Y-142086904D01*
X33135714Y-141896428D01*
X33088095Y-141801190D01*
X33040476Y-141753571D01*
X32945238Y-141705952D01*
X44711904Y-24402380D02*
X44711904Y-25211904D01*
X44759523Y-25307142D01*
X44807142Y-25354761D01*
X44902380Y-25402380D01*
X45092857Y-25402380D01*
X45188095Y-25354761D01*
X45235714Y-25307142D01*
X45283333Y-25211904D01*
X45283333Y-24402380D01*
X45711904Y-24497619D02*
X45759523Y-24450000D01*
X45854761Y-24402380D01*
X46092857Y-24402380D01*
X46188095Y-24450000D01*
X46235714Y-24497619D01*
X46283333Y-24592857D01*
X46283333Y-24688095D01*
X46235714Y-24830952D01*
X45664285Y-25402380D01*
X46283333Y-25402380D01*
X47140476Y-24735714D02*
X47140476Y-25402380D01*
X46902380Y-24354761D02*
X46664285Y-25069047D01*
X47283333Y-25069047D01*
X44688095Y-17812380D02*
X44688095Y-18621904D01*
X44735714Y-18717142D01*
X44783333Y-18764761D01*
X44878571Y-18812380D01*
X45069047Y-18812380D01*
X45164285Y-18764761D01*
X45211904Y-18717142D01*
X45259523Y-18621904D01*
X45259523Y-17812380D01*
X45688095Y-18764761D02*
X45830952Y-18812380D01*
X46069047Y-18812380D01*
X46164285Y-18764761D01*
X46211904Y-18717142D01*
X46259523Y-18621904D01*
X46259523Y-18526666D01*
X46211904Y-18431428D01*
X46164285Y-18383809D01*
X46069047Y-18336190D01*
X45878571Y-18288571D01*
X45783333Y-18240952D01*
X45735714Y-18193333D01*
X45688095Y-18098095D01*
X45688095Y-18002857D01*
X45735714Y-17907619D01*
X45783333Y-17860000D01*
X45878571Y-17812380D01*
X46116666Y-17812380D01*
X46259523Y-17860000D01*
X47021428Y-18288571D02*
X47164285Y-18336190D01*
X47211904Y-18383809D01*
X47259523Y-18479047D01*
X47259523Y-18621904D01*
X47211904Y-18717142D01*
X47164285Y-18764761D01*
X47069047Y-18812380D01*
X46688095Y-18812380D01*
X46688095Y-17812380D01*
X47021428Y-17812380D01*
X47116666Y-17860000D01*
X47164285Y-17907619D01*
X47211904Y-18002857D01*
X47211904Y-18098095D01*
X47164285Y-18193333D01*
X47116666Y-18240952D01*
X47021428Y-18288571D01*
X46688095Y-18288571D01*
X51361904Y-149852380D02*
X51361904Y-150661904D01*
X51409523Y-150757142D01*
X51457142Y-150804761D01*
X51552380Y-150852380D01*
X51742857Y-150852380D01*
X51838095Y-150804761D01*
X51885714Y-150757142D01*
X51933333Y-150661904D01*
X51933333Y-149852380D01*
X52361904Y-149947619D02*
X52409523Y-149900000D01*
X52504761Y-149852380D01*
X52742857Y-149852380D01*
X52838095Y-149900000D01*
X52885714Y-149947619D01*
X52933333Y-150042857D01*
X52933333Y-150138095D01*
X52885714Y-150280952D01*
X52314285Y-150852380D01*
X52933333Y-150852380D01*
X53790476Y-149852380D02*
X53600000Y-149852380D01*
X53504761Y-149900000D01*
X53457142Y-149947619D01*
X53361904Y-150090476D01*
X53314285Y-150280952D01*
X53314285Y-150661904D01*
X53361904Y-150757142D01*
X53409523Y-150804761D01*
X53504761Y-150852380D01*
X53695238Y-150852380D01*
X53790476Y-150804761D01*
X53838095Y-150757142D01*
X53885714Y-150661904D01*
X53885714Y-150423809D01*
X53838095Y-150328571D01*
X53790476Y-150280952D01*
X53695238Y-150233333D01*
X53504761Y-150233333D01*
X53409523Y-150280952D01*
X53361904Y-150328571D01*
X53314285Y-150423809D01*
X51411904Y-141277380D02*
X51411904Y-142086904D01*
X51459523Y-142182142D01*
X51507142Y-142229761D01*
X51602380Y-142277380D01*
X51792857Y-142277380D01*
X51888095Y-142229761D01*
X51935714Y-142182142D01*
X51983333Y-142086904D01*
X51983333Y-141277380D01*
X52411904Y-141372619D02*
X52459523Y-141325000D01*
X52554761Y-141277380D01*
X52792857Y-141277380D01*
X52888095Y-141325000D01*
X52935714Y-141372619D01*
X52983333Y-141467857D01*
X52983333Y-141563095D01*
X52935714Y-141705952D01*
X52364285Y-142277380D01*
X52983333Y-142277380D01*
X53316666Y-141277380D02*
X53983333Y-141277380D01*
X53554761Y-142277380D01*
X64911904Y-12227380D02*
X64911904Y-13036904D01*
X64959523Y-13132142D01*
X65007142Y-13179761D01*
X65102380Y-13227380D01*
X65292857Y-13227380D01*
X65388095Y-13179761D01*
X65435714Y-13132142D01*
X65483333Y-13036904D01*
X65483333Y-12227380D01*
X65864285Y-12227380D02*
X66483333Y-12227380D01*
X66150000Y-12608333D01*
X66292857Y-12608333D01*
X66388095Y-12655952D01*
X66435714Y-12703571D01*
X66483333Y-12798809D01*
X66483333Y-13036904D01*
X66435714Y-13132142D01*
X66388095Y-13179761D01*
X66292857Y-13227380D01*
X66007142Y-13227380D01*
X65911904Y-13179761D01*
X65864285Y-13132142D01*
X66816666Y-12227380D02*
X67435714Y-12227380D01*
X67102380Y-12608333D01*
X67245238Y-12608333D01*
X67340476Y-12655952D01*
X67388095Y-12703571D01*
X67435714Y-12798809D01*
X67435714Y-13036904D01*
X67388095Y-13132142D01*
X67340476Y-13179761D01*
X67245238Y-13227380D01*
X66959523Y-13227380D01*
X66864285Y-13179761D01*
X66816666Y-13132142D01*
X24811904Y-20502380D02*
X24811904Y-21311904D01*
X24859523Y-21407142D01*
X24907142Y-21454761D01*
X25002380Y-21502380D01*
X25192857Y-21502380D01*
X25288095Y-21454761D01*
X25335714Y-21407142D01*
X25383333Y-21311904D01*
X25383333Y-20502380D01*
X25764285Y-20502380D02*
X26383333Y-20502380D01*
X26050000Y-20883333D01*
X26192857Y-20883333D01*
X26288095Y-20930952D01*
X26335714Y-20978571D01*
X26383333Y-21073809D01*
X26383333Y-21311904D01*
X26335714Y-21407142D01*
X26288095Y-21454761D01*
X26192857Y-21502380D01*
X25907142Y-21502380D01*
X25811904Y-21454761D01*
X25764285Y-21407142D01*
X27240476Y-20835714D02*
X27240476Y-21502380D01*
X27002380Y-20454761D02*
X26764285Y-21169047D01*
X27383333Y-21169047D01*
X70722380Y-28061904D02*
X71531904Y-28061904D01*
X71627142Y-28014285D01*
X71674761Y-27966666D01*
X71722380Y-27871428D01*
X71722380Y-27680952D01*
X71674761Y-27585714D01*
X71627142Y-27538095D01*
X71531904Y-27490476D01*
X70722380Y-27490476D01*
X70722380Y-26538095D02*
X70722380Y-27014285D01*
X71198571Y-27061904D01*
X71150952Y-27014285D01*
X71103333Y-26919047D01*
X71103333Y-26680952D01*
X71150952Y-26585714D01*
X71198571Y-26538095D01*
X71293809Y-26490476D01*
X71531904Y-26490476D01*
X71627142Y-26538095D01*
X71674761Y-26585714D01*
X71722380Y-26680952D01*
X71722380Y-26919047D01*
X71674761Y-27014285D01*
X71627142Y-27061904D01*
X31036904Y-117332380D02*
X31036904Y-118141904D01*
X31084523Y-118237142D01*
X31132142Y-118284761D01*
X31227380Y-118332380D01*
X31417857Y-118332380D01*
X31513095Y-118284761D01*
X31560714Y-118237142D01*
X31608333Y-118141904D01*
X31608333Y-117332380D01*
X32608333Y-118332380D02*
X32036904Y-118332380D01*
X32322619Y-118332380D02*
X32322619Y-117332380D01*
X32227380Y-117475238D01*
X32132142Y-117570476D01*
X32036904Y-117618095D01*
X32989285Y-117427619D02*
X33036904Y-117380000D01*
X33132142Y-117332380D01*
X33370238Y-117332380D01*
X33465476Y-117380000D01*
X33513095Y-117427619D01*
X33560714Y-117522857D01*
X33560714Y-117618095D01*
X33513095Y-117760952D01*
X32941666Y-118332380D01*
X33560714Y-118332380D01*
X51586904Y-117482380D02*
X51586904Y-118291904D01*
X51634523Y-118387142D01*
X51682142Y-118434761D01*
X51777380Y-118482380D01*
X51967857Y-118482380D01*
X52063095Y-118434761D01*
X52110714Y-118387142D01*
X52158333Y-118291904D01*
X52158333Y-117482380D01*
X52586904Y-117577619D02*
X52634523Y-117530000D01*
X52729761Y-117482380D01*
X52967857Y-117482380D01*
X53063095Y-117530000D01*
X53110714Y-117577619D01*
X53158333Y-117672857D01*
X53158333Y-117768095D01*
X53110714Y-117910952D01*
X52539285Y-118482380D01*
X53158333Y-118482380D01*
X53777380Y-117482380D02*
X53872619Y-117482380D01*
X53967857Y-117530000D01*
X54015476Y-117577619D01*
X54063095Y-117672857D01*
X54110714Y-117863333D01*
X54110714Y-118101428D01*
X54063095Y-118291904D01*
X54015476Y-118387142D01*
X53967857Y-118434761D01*
X53872619Y-118482380D01*
X53777380Y-118482380D01*
X53682142Y-118434761D01*
X53634523Y-118387142D01*
X53586904Y-118291904D01*
X53539285Y-118101428D01*
X53539285Y-117863333D01*
X53586904Y-117672857D01*
X53634523Y-117577619D01*
X53682142Y-117530000D01*
X53777380Y-117482380D01*
X70722380Y-42438095D02*
X71531904Y-42438095D01*
X71627142Y-42390476D01*
X71674761Y-42342857D01*
X71722380Y-42247619D01*
X71722380Y-42057142D01*
X71674761Y-41961904D01*
X71627142Y-41914285D01*
X71531904Y-41866666D01*
X70722380Y-41866666D01*
X70817619Y-41438095D02*
X70770000Y-41390476D01*
X70722380Y-41295238D01*
X70722380Y-41057142D01*
X70770000Y-40961904D01*
X70817619Y-40914285D01*
X70912857Y-40866666D01*
X71008095Y-40866666D01*
X71150952Y-40914285D01*
X71722380Y-41485714D01*
X71722380Y-40866666D01*
X70817619Y-40485714D02*
X70770000Y-40438095D01*
X70722380Y-40342857D01*
X70722380Y-40104761D01*
X70770000Y-40009523D01*
X70817619Y-39961904D01*
X70912857Y-39914285D01*
X71008095Y-39914285D01*
X71150952Y-39961904D01*
X71722380Y-40533333D01*
X71722380Y-39914285D01*
X70722380Y-56338095D02*
X71531904Y-56338095D01*
X71627142Y-56290476D01*
X71674761Y-56242857D01*
X71722380Y-56147619D01*
X71722380Y-55957142D01*
X71674761Y-55861904D01*
X71627142Y-55814285D01*
X71531904Y-55766666D01*
X70722380Y-55766666D01*
X70817619Y-55338095D02*
X70770000Y-55290476D01*
X70722380Y-55195238D01*
X70722380Y-54957142D01*
X70770000Y-54861904D01*
X70817619Y-54814285D01*
X70912857Y-54766666D01*
X71008095Y-54766666D01*
X71150952Y-54814285D01*
X71722380Y-55385714D01*
X71722380Y-54766666D01*
X70722380Y-54433333D02*
X70722380Y-53814285D01*
X71103333Y-54147619D01*
X71103333Y-54004761D01*
X71150952Y-53909523D01*
X71198571Y-53861904D01*
X71293809Y-53814285D01*
X71531904Y-53814285D01*
X71627142Y-53861904D01*
X71674761Y-53909523D01*
X71722380Y-54004761D01*
X71722380Y-54290476D01*
X71674761Y-54385714D01*
X71627142Y-54433333D01*
X11927380Y-160711904D02*
X12736904Y-160711904D01*
X12832142Y-160664285D01*
X12879761Y-160616666D01*
X12927380Y-160521428D01*
X12927380Y-160330952D01*
X12879761Y-160235714D01*
X12832142Y-160188095D01*
X12736904Y-160140476D01*
X11927380Y-160140476D01*
X12927380Y-159140476D02*
X12927380Y-159711904D01*
X12927380Y-159426190D02*
X11927380Y-159426190D01*
X12070238Y-159521428D01*
X12165476Y-159616666D01*
X12213095Y-159711904D01*
X16586904Y-70777380D02*
X16586904Y-71586904D01*
X16634523Y-71682142D01*
X16682142Y-71729761D01*
X16777380Y-71777380D01*
X16967857Y-71777380D01*
X17063095Y-71729761D01*
X17110714Y-71682142D01*
X17158333Y-71586904D01*
X17158333Y-70777380D01*
X18158333Y-71777380D02*
X17586904Y-71777380D01*
X17872619Y-71777380D02*
X17872619Y-70777380D01*
X17777380Y-70920238D01*
X17682142Y-71015476D01*
X17586904Y-71063095D01*
X18491666Y-70777380D02*
X19110714Y-70777380D01*
X18777380Y-71158333D01*
X18920238Y-71158333D01*
X19015476Y-71205952D01*
X19063095Y-71253571D01*
X19110714Y-71348809D01*
X19110714Y-71586904D01*
X19063095Y-71682142D01*
X19015476Y-71729761D01*
X18920238Y-71777380D01*
X18634523Y-71777380D01*
X18539285Y-71729761D01*
X18491666Y-71682142D01*
X64286904Y-70627380D02*
X64286904Y-71436904D01*
X64334523Y-71532142D01*
X64382142Y-71579761D01*
X64477380Y-71627380D01*
X64667857Y-71627380D01*
X64763095Y-71579761D01*
X64810714Y-71532142D01*
X64858333Y-71436904D01*
X64858333Y-70627380D01*
X65858333Y-71627380D02*
X65286904Y-71627380D01*
X65572619Y-71627380D02*
X65572619Y-70627380D01*
X65477380Y-70770238D01*
X65382142Y-70865476D01*
X65286904Y-70913095D01*
X66763095Y-70627380D02*
X66286904Y-70627380D01*
X66239285Y-71103571D01*
X66286904Y-71055952D01*
X66382142Y-71008333D01*
X66620238Y-71008333D01*
X66715476Y-71055952D01*
X66763095Y-71103571D01*
X66810714Y-71198809D01*
X66810714Y-71436904D01*
X66763095Y-71532142D01*
X66715476Y-71579761D01*
X66620238Y-71627380D01*
X66382142Y-71627380D01*
X66286904Y-71579761D01*
X66239285Y-71532142D01*
X41111904Y-165627380D02*
X41111904Y-166436904D01*
X41159523Y-166532142D01*
X41207142Y-166579761D01*
X41302380Y-166627380D01*
X41492857Y-166627380D01*
X41588095Y-166579761D01*
X41635714Y-166532142D01*
X41683333Y-166436904D01*
X41683333Y-165627380D01*
X42588095Y-165960714D02*
X42588095Y-166627380D01*
X42350000Y-165579761D02*
X42111904Y-166294047D01*
X42730952Y-166294047D01*
X43588095Y-165627380D02*
X43111904Y-165627380D01*
X43064285Y-166103571D01*
X43111904Y-166055952D01*
X43207142Y-166008333D01*
X43445238Y-166008333D01*
X43540476Y-166055952D01*
X43588095Y-166103571D01*
X43635714Y-166198809D01*
X43635714Y-166436904D01*
X43588095Y-166532142D01*
X43540476Y-166579761D01*
X43445238Y-166627380D01*
X43207142Y-166627380D01*
X43111904Y-166579761D01*
X43064285Y-166532142D01*
X12152380Y-128863095D02*
X12961904Y-128863095D01*
X13057142Y-128815476D01*
X13104761Y-128767857D01*
X13152380Y-128672619D01*
X13152380Y-128482142D01*
X13104761Y-128386904D01*
X13057142Y-128339285D01*
X12961904Y-128291666D01*
X12152380Y-128291666D01*
X12485714Y-127386904D02*
X13152380Y-127386904D01*
X12104761Y-127625000D02*
X12819047Y-127863095D01*
X12819047Y-127244047D01*
X12485714Y-126434523D02*
X13152380Y-126434523D01*
X12104761Y-126672619D02*
X12819047Y-126910714D01*
X12819047Y-126291666D01*
M02*
