M48
; DRILL file {KiCad 5.1.5+dfsg1-2build2} date Fr 11 Dez 2020 18:21:26 CET
; FORMAT={-:-/ absolute / inch / decimal}
; #@! TF.CreationDate,2020-12-11T18:21:26+01:00
; #@! TF.GenerationSoftware,Kicad,Pcbnew,5.1.5+dfsg1-2build2
; #@! TF.FileFunction,NonPlated,1,2,NPTH
FMAT,2
INCH
T1C0.0472
T2C0.0500
T3C0.1378
%
G90
G05
T1
X2.5846Y-5.1555
X1.2579Y-0.6053
X0.814Y-2.5896
X0.7096Y-6.4094
X1.1388Y-6.1407
X2.4921Y-0.7215
X1.7766Y-4.8061
X1.9685Y-5.1978
X2.5876Y-6.4065
X1.1378Y-0.6102
X2.1407Y-0.6033
X0.7185Y-5.1368
X1.9587Y-6.1398
X2.6919Y-2.5837
X1.5551Y-6.7608
X1.1555Y-5.1929
T2
X2.7386Y-1.9331
X2.7386Y-2.4055
X2.7386Y-0.8386
X2.7386Y-1.311
X1.5689Y-0.723
X2.0413Y-0.723
X1.8435Y-4.7142
X2.3159Y-4.7142
X1.8376Y-6.6323
X2.31Y-6.6323
X1.0187Y-6.6323
X1.4911Y-6.6323
X2.7386Y-1.3858
X2.7386Y-1.8583
X1.0344Y-4.7083
X1.5069Y-4.7083
T3
X1.5222Y-2.4
T0
M30
