M48
; DRILL file {KiCad 5.1.5+dfsg1-2build2} date Fr 11 Dez 2020 18:21:26 CET
; FORMAT={-:-/ absolute / inch / decimal}
; #@! TF.CreationDate,2020-12-11T18:21:26+01:00
; #@! TF.GenerationSoftware,Kicad,Pcbnew,5.1.5+dfsg1-2build2
; #@! TF.FileFunction,Plated,1,2,PTH
FMAT,2
INCH
T1C0.0157
T2C0.0236
T3C0.0276
T4C0.0300
T5C0.0315
T6C0.0394
T7C0.0402
T8C0.0433
T9C0.0591
T10C0.1417
T11C0.1496
T12C0.1693
%
G90
G05
T1
X1.7283Y-1.6161
X1.81Y-1.29
X3.9134Y-0.1236
X3.9134Y-0.2236
X3.9134Y-0.3236
X3.9134Y-0.4236
X3.9134Y-0.5307
X3.9134Y-0.7307
X3.9134Y-0.8307
X3.9134Y-1.0307
X3.9134Y-1.1307
X3.9134Y-1.2307
X3.9134Y-1.3307
X3.9134Y-1.4307
X3.9134Y-1.5307
X3.9134Y-1.6307
X3.9134Y-1.7307
X3.9134Y-1.8307
X3.9134Y-1.9307
X3.9134Y-2.0307
X3.9134Y-2.1339
X3.9134Y-2.2339
X3.9134Y-2.3339
X3.9134Y-2.4339
X3.9138Y-3.2969
X3.9138Y-3.3969
X3.9138Y-3.4969
X3.9138Y-3.5969
X3.9138Y-3.6969
X3.9138Y-3.8039
X3.9138Y-4.0039
X3.9138Y-4.1039
X3.9138Y-4.3039
X3.9138Y-4.4039
X3.9138Y-4.5039
X3.9138Y-4.6039
X3.9138Y-4.7039
X3.9138Y-4.8039
X3.9138Y-5.0039
X3.9138Y-5.1039
X3.9138Y-5.2039
X3.9138Y-5.3039
X3.9138Y-5.4071
X3.9138Y-5.5071
X3.9138Y-5.6071
X3.9138Y-5.7071
X3.9138Y-5.8071
X4.0134Y-0.0236
X4.0134Y-0.1236
X4.0134Y-0.2236
X4.0134Y-0.3236
X4.0134Y-0.4236
X4.0134Y-0.5307
X4.0134Y-0.6307
X4.0134Y-1.0307
X4.0134Y-1.1307
X4.0134Y-1.2307
X4.0134Y-1.3307
X4.0134Y-1.4307
X4.0134Y-1.5307
X4.0134Y-1.9307
X4.0134Y-2.0307
X4.0134Y-2.1339
X4.0134Y-2.2339
X4.0134Y-2.3339
X4.0134Y-2.4339
X4.0138Y-3.2969
X4.0138Y-3.3969
X4.0138Y-3.4969
X4.0138Y-3.5969
X4.0138Y-3.6969
X4.0138Y-3.8039
X4.0138Y-3.9039
X4.0138Y-4.2039
X4.0138Y-4.3039
X4.0138Y-4.4039
X4.0138Y-4.5039
X4.0138Y-4.6039
X4.0138Y-4.7039
X4.0138Y-4.8039
X4.0138Y-5.2039
X4.0138Y-5.3039
X4.0138Y-5.4071
X4.0138Y-5.5071
X4.0138Y-5.6071
X4.0138Y-5.7071
X4.1134Y-0.0236
X4.1134Y-0.1236
X4.1134Y-0.2236
X4.1134Y-0.3236
X4.1134Y-0.4236
X4.1134Y-0.5307
X4.1134Y-0.6307
X4.1134Y-0.7307
X4.1134Y-0.8307
X4.1134Y-0.9307
X4.1134Y-1.0307
X4.1134Y-1.1307
X4.1134Y-1.2307
X4.1134Y-1.3307
X4.1134Y-1.4307
X4.1134Y-1.5307
X4.1134Y-1.6307
X4.1134Y-1.7307
X4.1134Y-1.8307
X4.1134Y-1.9307
X4.1134Y-2.0307
X4.1134Y-2.1339
X4.1134Y-2.2339
X4.1134Y-2.3339
X4.1134Y-2.4339
X4.1134Y-2.5339
X4.1138Y-3.2969
X4.1138Y-3.3969
X4.1138Y-3.4969
X4.1138Y-3.5969
X4.1138Y-3.6969
X4.1138Y-3.8039
X4.1138Y-3.9039
X4.1138Y-4.0039
X4.1138Y-4.1039
X4.1138Y-4.2039
X4.1138Y-4.3039
X4.1138Y-4.4039
X4.1138Y-4.5039
X4.1138Y-4.6039
X4.1138Y-4.7039
X4.1138Y-4.8039
X4.1138Y-4.9039
X4.1138Y-5.0039
X4.1138Y-5.1039
X4.1138Y-5.2039
X4.1138Y-5.3039
X4.1138Y-5.4071
X4.1138Y-5.5071
X4.1138Y-5.6071
X4.1138Y-5.7071
X4.1138Y-5.8071
X4.2134Y-0.0236
X4.2134Y-0.4236
X4.2134Y-0.5307
X4.2134Y-0.6307
X4.2134Y-0.7307
X4.2134Y-0.8307
X4.2134Y-0.9307
X4.2134Y-1.0307
X4.2134Y-1.1307
X4.2134Y-1.2307
X4.2134Y-1.3307
X4.2134Y-1.4307
X4.2134Y-1.5307
X4.2134Y-1.6307
X4.2134Y-1.7307
X4.2134Y-1.8307
X4.2134Y-1.9307
X4.2134Y-2.0307
X4.2134Y-2.4339
X4.2134Y-2.5339
X4.2138Y-3.2969
X4.2138Y-3.6969
X4.2138Y-3.8039
X4.2138Y-3.9039
X4.2138Y-4.0039
X4.2138Y-4.1039
X4.2138Y-4.2039
X4.2138Y-4.3039
X4.2138Y-4.4039
X4.2138Y-4.5039
X4.2138Y-4.6039
X4.2138Y-4.7039
X4.2138Y-4.8039
X4.2138Y-4.9039
X4.2138Y-5.0039
X4.2138Y-5.1039
X4.2138Y-5.2039
X4.2138Y-5.3039
X4.2138Y-5.7071
X4.2138Y-5.8071
X4.3134Y-0.0236
X4.3134Y-0.4236
X4.3134Y-0.5307
X4.3134Y-0.6307
X4.3134Y-0.7307
X4.3134Y-0.8307
X4.3134Y-0.9307
X4.3134Y-1.0307
X4.3134Y-1.1307
X4.3134Y-1.2307
X4.3134Y-1.3307
X4.3134Y-1.4307
X4.3134Y-1.5307
X4.3134Y-1.6307
X4.3134Y-1.7307
X4.3134Y-1.8307
X4.3134Y-1.9307
X4.3134Y-2.0307
X4.3134Y-2.5339
X4.3138Y-3.2969
X4.3138Y-3.6969
X4.3138Y-3.8039
X4.3138Y-3.9039
X4.3138Y-4.0039
X4.3138Y-4.1039
X4.3138Y-4.2039
X4.3138Y-4.3039
X4.3138Y-4.4039
X4.3138Y-4.5039
X4.3138Y-4.6039
X4.3138Y-4.7039
X4.3138Y-4.8039
X4.3138Y-4.9039
X4.3138Y-5.0039
X4.3138Y-5.1039
X4.3138Y-5.2039
X4.3138Y-5.3039
X4.3138Y-5.8071
X4.4102Y-0.5307
X4.4102Y-0.6307
X4.4102Y-0.7307
X4.4102Y-0.8307
X4.4102Y-0.9307
X4.4102Y-1.0307
X4.4102Y-1.1307
X4.4102Y-1.4307
X4.4102Y-1.5307
X4.4102Y-1.6307
X4.4102Y-1.7307
X4.4102Y-1.8307
X4.4102Y-1.9307
X4.4102Y-2.0307
X4.4106Y-3.8039
X4.4106Y-3.9039
X4.4106Y-4.0039
X4.4106Y-4.1039
X4.4106Y-4.2039
X4.4106Y-4.3039
X4.4106Y-4.4039
X4.4106Y-4.7039
X4.4106Y-4.8039
X4.4106Y-4.9039
X4.4106Y-5.0039
X4.4106Y-5.1039
X4.4106Y-5.2039
X4.4106Y-5.3039
X4.4134Y-0.0236
X4.4134Y-0.4236
X4.4134Y-2.4339
X4.4134Y-2.5339
X4.4138Y-3.2969
X4.4138Y-3.6969
X4.4138Y-5.7071
X4.4138Y-5.8071
X4.5102Y-0.5307
X4.5102Y-0.6307
X4.5102Y-0.7307
X4.5102Y-0.8307
X4.5102Y-0.9307
X4.5102Y-1.0307
X4.5102Y-1.1307
X4.5102Y-1.2307
X4.5102Y-1.3307
X4.5102Y-1.4307
X4.5102Y-1.5307
X4.5102Y-1.6307
X4.5102Y-1.7307
X4.5102Y-1.8307
X4.5102Y-1.9307
X4.5102Y-2.0307
X4.5106Y-3.8039
X4.5106Y-3.9039
X4.5106Y-4.0039
X4.5106Y-4.1039
X4.5106Y-4.2039
X4.5106Y-4.3039
X4.5106Y-4.4039
X4.5106Y-4.5039
X4.5106Y-4.6039
X4.5106Y-4.7039
X4.5106Y-4.8039
X4.5106Y-4.9039
X4.5106Y-5.0039
X4.5106Y-5.1039
X4.5106Y-5.2039
X4.5106Y-5.3039
X4.5134Y-0.0236
X4.5134Y-0.1236
X4.5134Y-0.2236
X4.5134Y-0.3236
X4.5134Y-0.4236
X4.5134Y-2.1339
X4.5134Y-2.2339
X4.5134Y-2.3339
X4.5134Y-2.4339
X4.5134Y-2.5339
X4.5138Y-3.2969
X4.5138Y-3.3969
X4.5138Y-3.4969
X4.5138Y-3.5969
X4.5138Y-3.6969
X4.5138Y-5.4071
X4.5138Y-5.5071
X4.5138Y-5.6071
X4.5138Y-5.7071
X4.5138Y-5.8071
X4.6134Y-0.0236
X4.6134Y-0.1236
X4.6134Y-0.2236
X4.6134Y-0.3236
X4.6134Y-0.4236
X4.6134Y-2.026
X4.6134Y-2.1339
X4.6134Y-2.2339
X4.6134Y-2.3339
X4.6134Y-2.4339
X4.6134Y-2.5339
X4.6138Y-3.2969
X4.6138Y-3.3969
X4.6138Y-3.4969
X4.6138Y-3.5969
X4.6138Y-3.6969
X4.6138Y-5.4071
X4.6138Y-5.5071
X4.6138Y-5.6071
X4.6138Y-5.7071
X4.6138Y-5.8071
X4.7134Y-0.0236
X4.7134Y-0.1236
X4.7134Y-0.2236
X4.7134Y-0.3236
X4.7134Y-0.4236
X4.7134Y-2.1339
X4.7134Y-2.2339
X4.7134Y-2.3339
X4.7134Y-2.4339
X4.7134Y-2.5339
X4.7138Y-3.2969
X4.7138Y-3.3969
X4.7138Y-3.4969
X4.7138Y-3.5969
X4.7138Y-3.6969
X4.7138Y-5.4071
X4.7138Y-5.5071
X4.7138Y-5.6071
X4.7138Y-5.7071
X4.7138Y-5.8071
X4.8134Y-0.0236
X4.8134Y-0.1236
X4.8134Y-0.2236
X4.8134Y-0.3236
X4.8134Y-0.4236
X4.8134Y-2.026
X4.8134Y-2.1339
X4.8134Y-2.2339
X4.8134Y-2.3339
X4.8134Y-2.4339
X4.8138Y-3.2969
X4.8138Y-3.3969
X4.8138Y-3.4969
X4.8138Y-3.5969
X4.8138Y-3.6969
X4.8138Y-5.2992
X4.8138Y-5.4071
X4.8138Y-5.5071
X4.8138Y-5.6071
X4.8138Y-5.7071
X4.9134Y-0.0236
X4.9134Y-0.1236
X4.9134Y-0.2236
X4.9134Y-0.3236
X4.9134Y-0.4236
X4.9134Y-0.8543
X4.9134Y-0.9543
X4.9134Y-1.0543
X4.9134Y-1.1543
X4.9134Y-1.2543
X4.9134Y-1.3543
X4.9134Y-1.4543
X4.9134Y-1.5543
X4.9134Y-1.6543
X4.9134Y-2.026
X4.9134Y-2.1339
X4.9134Y-2.2339
X4.9134Y-2.3339
X4.9134Y-2.4339
X4.9138Y-3.2969
X4.9138Y-3.3969
X4.9138Y-3.4969
X4.9138Y-3.5969
X4.9138Y-3.6969
X4.9138Y-4.1276
X4.9138Y-4.2276
X4.9138Y-4.3276
X4.9138Y-4.4276
X4.9138Y-4.5276
X4.9138Y-4.6276
X4.9138Y-4.7276
X4.9138Y-4.8276
X4.9138Y-4.9276
X4.9138Y-5.2992
X4.9138Y-5.4071
X4.9138Y-5.5071
X4.9138Y-5.6071
X4.9138Y-5.7071
X4.9173Y-0.522
X4.9177Y-3.7953
X5.0134Y-0.0236
X5.0134Y-0.1236
X5.0134Y-0.2236
X5.0134Y-0.3236
X5.0134Y-0.4236
X5.0134Y-0.8543
X5.0134Y-0.9543
X5.0134Y-1.0543
X5.0134Y-1.1543
X5.0134Y-1.2543
X5.0134Y-1.3543
X5.0134Y-1.4543
X5.0134Y-1.5543
X5.0134Y-1.6543
X5.0134Y-2.026
X5.0134Y-2.1339
X5.0134Y-2.2339
X5.0134Y-2.3339
X5.0134Y-2.4339
X5.0134Y-2.5339
X5.0138Y-3.2969
X5.0138Y-3.3969
X5.0138Y-3.4969
X5.0138Y-3.5969
X5.0138Y-3.6969
X5.0138Y-4.1276
X5.0138Y-4.2276
X5.0138Y-4.3276
X5.0138Y-4.4276
X5.0138Y-4.5276
X5.0138Y-4.6276
X5.0138Y-4.7276
X5.0138Y-4.8276
X5.0138Y-4.9276
X5.0138Y-5.2992
X5.0138Y-5.4071
X5.0138Y-5.5071
X5.0138Y-5.6071
X5.0138Y-5.7071
X5.0138Y-5.8071
X5.0173Y-0.522
X5.0177Y-3.7953
X5.1134Y-0.0236
X5.1134Y-0.1236
X5.1134Y-0.2236
X5.1134Y-0.3236
X5.1134Y-0.4236
X5.1134Y-0.8543
X5.1134Y-0.9543
X5.1134Y-1.0543
X5.1134Y-1.1543
X5.1134Y-1.2543
X5.1134Y-1.3543
X5.1134Y-1.4543
X5.1134Y-1.5543
X5.1134Y-1.6543
X5.1134Y-2.026
X5.1134Y-2.1339
X5.1134Y-2.2339
X5.1134Y-2.3339
X5.1134Y-2.4339
X5.1134Y-2.5339
X5.1138Y-3.2969
X5.1138Y-3.3969
X5.1138Y-3.4969
X5.1138Y-3.5969
X5.1138Y-3.6969
X5.1138Y-4.1276
X5.1138Y-4.2276
X5.1138Y-4.3276
X5.1138Y-4.4276
X5.1138Y-4.5276
X5.1138Y-4.6276
X5.1138Y-4.7276
X5.1138Y-4.8276
X5.1138Y-4.9276
X5.1138Y-5.2992
X5.1138Y-5.4071
X5.1138Y-5.5071
X5.1138Y-5.6071
X5.1138Y-5.7071
X5.1138Y-5.8071
X5.1173Y-0.522
X5.1177Y-3.7953
X5.2134Y-0.0236
X5.2134Y-0.1236
X5.2134Y-0.2236
X5.2134Y-0.3236
X5.2134Y-0.4236
X5.2134Y-0.8543
X5.2134Y-0.9543
X5.2134Y-1.0543
X5.2134Y-1.1543
X5.2134Y-1.2543
X5.2134Y-1.3543
X5.2134Y-1.4543
X5.2134Y-1.5543
X5.2134Y-1.6543
X5.2134Y-2.026
X5.2134Y-2.1339
X5.2134Y-2.2339
X5.2134Y-2.3339
X5.2134Y-2.4339
X5.2134Y-2.5339
X5.2138Y-3.2969
X5.2138Y-3.3969
X5.2138Y-3.4969
X5.2138Y-3.5969
X5.2138Y-3.6969
X5.2138Y-4.1276
X5.2138Y-4.2276
X5.2138Y-4.3276
X5.2138Y-4.4276
X5.2138Y-4.5276
X5.2138Y-4.6276
X5.2138Y-4.7276
X5.2138Y-4.8276
X5.2138Y-4.9276
X5.2138Y-5.2992
X5.2138Y-5.4071
X5.2138Y-5.5071
X5.2138Y-5.6071
X5.2138Y-5.7071
X5.2138Y-5.8071
X5.2173Y-0.522
X5.2177Y-3.7953
X5.3134Y-0.0236
X5.3134Y-0.1236
X5.3134Y-0.2236
X5.3134Y-0.8543
X5.3134Y-0.9543
X5.3134Y-1.0543
X5.3134Y-1.1543
X5.3134Y-1.2543
X5.3134Y-1.3543
X5.3134Y-1.4543
X5.3134Y-1.5543
X5.3134Y-1.6543
X5.3134Y-2.026
X5.3134Y-2.1339
X5.3134Y-2.2339
X5.3134Y-2.3339
X5.3134Y-2.4339
X5.3134Y-2.5339
X5.3138Y-3.2969
X5.3138Y-3.3969
X5.3138Y-3.4969
X5.3138Y-4.1276
X5.3138Y-4.2276
X5.3138Y-4.3276
X5.3138Y-4.4276
X5.3138Y-4.5276
X5.3138Y-4.6276
X5.3138Y-4.7276
X5.3138Y-4.8276
X5.3138Y-4.9276
X5.3138Y-5.2992
X5.3138Y-5.4071
X5.3138Y-5.5071
X5.3138Y-5.6071
X5.3138Y-5.7071
X5.3138Y-5.8071
X5.3173Y-0.522
X5.3177Y-3.7953
X5.4134Y-0.0236
X5.4134Y-0.1236
X5.4134Y-0.2236
X5.4134Y-0.3236
X5.4134Y-0.4236
X5.4134Y-0.8543
X5.4134Y-0.9543
X5.4134Y-1.0543
X5.4134Y-1.1543
X5.4134Y-1.2543
X5.4134Y-1.3543
X5.4134Y-1.4543
X5.4134Y-1.5543
X5.4134Y-1.6543
X5.4134Y-2.026
X5.4134Y-2.1339
X5.4134Y-2.2339
X5.4134Y-2.3339
X5.4134Y-2.4339
X5.4134Y-2.5339
X5.4138Y-3.2969
X5.4138Y-3.3969
X5.4138Y-3.4969
X5.4138Y-3.5969
X5.4138Y-3.6969
X5.4138Y-4.1276
X5.4138Y-4.2276
X5.4138Y-4.3276
X5.4138Y-4.4276
X5.4138Y-4.5276
X5.4138Y-4.6276
X5.4138Y-4.7276
X5.4138Y-4.8276
X5.4138Y-4.9276
X5.4138Y-5.2992
X5.4138Y-5.4071
X5.4138Y-5.5071
X5.4138Y-5.6071
X5.4138Y-5.7071
X5.4138Y-5.8071
X5.4173Y-0.522
X5.4177Y-3.7953
X5.5134Y-0.0236
X5.5134Y-0.1236
X5.5134Y-0.2236
X5.5134Y-0.3236
X5.5134Y-0.4236
X5.5134Y-0.8543
X5.5134Y-0.9543
X5.5134Y-1.0543
X5.5134Y-1.1543
X5.5134Y-1.2543
X5.5134Y-1.3543
X5.5134Y-1.4543
X5.5134Y-1.5543
X5.5134Y-1.6543
X5.5134Y-2.026
X5.5134Y-2.1339
X5.5134Y-2.2339
X5.5134Y-2.3339
X5.5134Y-2.4339
X5.5134Y-2.5339
X5.5138Y-3.2969
X5.5138Y-3.3969
X5.5138Y-3.4969
X5.5138Y-3.5969
X5.5138Y-3.6969
X5.5138Y-4.1276
X5.5138Y-4.2276
X5.5138Y-4.3276
X5.5138Y-4.4276
X5.5138Y-4.5276
X5.5138Y-4.6276
X5.5138Y-4.7276
X5.5138Y-4.8276
X5.5138Y-4.9276
X5.5138Y-5.2992
X5.5138Y-5.4071
X5.5138Y-5.5071
X5.5138Y-5.6071
X5.5138Y-5.7071
X5.5138Y-5.8071
X5.5173Y-0.522
X5.5177Y-3.7953
X5.6134Y-0.0236
X5.6134Y-0.1236
X5.6134Y-0.2236
X5.6134Y-0.3236
X5.6134Y-0.4236
X5.6134Y-0.8543
X5.6134Y-0.9543
X5.6134Y-1.0543
X5.6134Y-1.1543
X5.6134Y-1.2543
X5.6134Y-1.3543
X5.6134Y-1.4543
X5.6134Y-1.5543
X5.6134Y-1.6543
X5.6134Y-2.026
X5.6134Y-2.1339
X5.6134Y-2.2339
X5.6134Y-2.3339
X5.6134Y-2.4339
X5.6134Y-2.5339
X5.6138Y-3.2969
X5.6138Y-3.3969
X5.6138Y-3.4969
X5.6138Y-3.5969
X5.6138Y-3.6969
X5.6138Y-4.1276
X5.6138Y-4.2276
X5.6138Y-4.3276
X5.6138Y-4.4276
X5.6138Y-4.5276
X5.6138Y-4.6276
X5.6138Y-4.7276
X5.6138Y-4.8276
X5.6138Y-4.9276
X5.6138Y-5.2992
X5.6138Y-5.4071
X5.6138Y-5.5071
X5.6138Y-5.6071
X5.6138Y-5.7071
X5.6138Y-5.8071
X5.6173Y-0.522
X5.6177Y-3.7953
X5.7134Y-0.0236
X5.7134Y-0.1236
X5.7134Y-0.2236
X5.7134Y-0.3236
X5.7134Y-0.4236
X5.7134Y-0.8543
X5.7134Y-0.9543
X5.7134Y-1.0543
X5.7134Y-1.1543
X5.7134Y-1.2543
X5.7134Y-1.3543
X5.7134Y-1.4543
X5.7134Y-1.5543
X5.7134Y-1.6543
X5.7134Y-2.026
X5.7134Y-2.1339
X5.7134Y-2.2339
X5.7134Y-2.3339
X5.7134Y-2.4339
X5.7138Y-3.2969
X5.7138Y-3.3969
X5.7138Y-3.4969
X5.7138Y-3.5969
X5.7138Y-3.6969
X5.7138Y-4.1276
X5.7138Y-4.2276
X5.7138Y-4.3276
X5.7138Y-4.4276
X5.7138Y-4.5276
X5.7138Y-4.6276
X5.7138Y-4.7276
X5.7138Y-4.8276
X5.7138Y-4.9276
X5.7138Y-5.2992
X5.7138Y-5.4071
X5.7138Y-5.5071
X5.7138Y-5.6071
X5.7138Y-5.7071
X5.7173Y-0.522
X5.7177Y-3.7953
X5.8134Y-0.0236
X5.8134Y-0.1236
X5.8134Y-0.2236
X5.8134Y-0.3236
X5.8134Y-0.4236
X5.8134Y-2.026
X5.8134Y-2.1339
X5.8134Y-2.2339
X5.8134Y-2.3339
X5.8134Y-2.4339
X5.8138Y-3.2969
X5.8138Y-3.3969
X5.8138Y-3.4969
X5.8138Y-3.5969
X5.8138Y-3.6969
X5.8138Y-5.2992
X5.8138Y-5.4071
X5.8138Y-5.5071
X5.8138Y-5.6071
X5.8138Y-5.7071
X5.8173Y-0.522
X5.8177Y-3.7953
X5.9134Y-0.0236
X5.9134Y-0.1236
X5.9134Y-0.2236
X5.9134Y-0.3236
X5.9134Y-0.4236
X5.9134Y-2.1339
X5.9134Y-2.2339
X5.9134Y-2.3339
X5.9134Y-2.4339
X5.9134Y-2.5339
X5.9138Y-3.2969
X5.9138Y-3.3969
X5.9138Y-3.4969
X5.9138Y-3.5969
X5.9138Y-3.6969
X5.9138Y-5.4071
X5.9138Y-5.5071
X5.9138Y-5.6071
X5.9138Y-5.7071
X5.9138Y-5.8071
X5.9177Y-3.7953
X6.0134Y-0.0236
X6.0134Y-0.1236
X6.0134Y-0.2236
X6.0134Y-0.3236
X6.0134Y-0.4236
X6.0134Y-2.1339
X6.0134Y-2.2339
X6.0134Y-2.3339
X6.0134Y-2.4339
X6.0134Y-2.5339
X6.0138Y-3.2969
X6.0138Y-3.3969
X6.0138Y-3.4969
X6.0138Y-3.5969
X6.0138Y-3.6969
X6.0138Y-5.4071
X6.0138Y-5.5071
X6.0138Y-5.6071
X6.0138Y-5.7071
X6.0138Y-5.8071
X6.0177Y-3.7953
X6.1134Y-0.0236
X6.1134Y-0.1236
X6.1134Y-0.2236
X6.1134Y-0.3236
X6.1134Y-0.4236
X6.1134Y-2.1339
X6.1134Y-2.2339
X6.1134Y-2.3339
X6.1134Y-2.4339
X6.1134Y-2.5339
X6.1138Y-3.2969
X6.1138Y-3.3969
X6.1138Y-3.4969
X6.1138Y-3.5969
X6.1138Y-3.6969
X6.1138Y-5.4071
X6.1138Y-5.5071
X6.1138Y-5.6071
X6.1138Y-5.7071
X6.1138Y-5.8071
X6.115Y-0.5228
X6.115Y-0.6228
X6.115Y-0.7228
X6.115Y-0.8228
X6.115Y-0.9228
X6.115Y-1.0228
X6.115Y-1.1228
X6.115Y-1.2228
X6.115Y-1.3228
X6.115Y-1.4228
X6.115Y-1.5228
X6.115Y-1.6228
X6.115Y-1.7228
X6.115Y-1.8228
X6.115Y-1.9228
X6.115Y-2.0228
X6.1154Y-3.7961
X6.1154Y-3.8961
X6.1154Y-3.9961
X6.1154Y-4.0961
X6.1154Y-4.1961
X6.1154Y-4.2961
X6.1154Y-4.3961
X6.1154Y-4.4961
X6.1154Y-4.5961
X6.1154Y-4.6961
X6.1154Y-4.7961
X6.1154Y-4.8961
X6.1154Y-4.9961
X6.1154Y-5.0961
X6.1154Y-5.1961
X6.1154Y-5.2961
X6.2134Y-0.0236
X6.2134Y-0.4236
X6.2134Y-2.1339
X6.2134Y-2.4339
X6.2134Y-2.5339
X6.2138Y-3.2969
X6.2138Y-3.6969
X6.2138Y-5.4071
X6.2138Y-5.7071
X6.2138Y-5.8071
X6.215Y-0.5228
X6.215Y-0.6228
X6.215Y-0.7228
X6.215Y-0.8228
X6.215Y-0.9228
X6.215Y-1.0228
X6.215Y-1.1228
X6.215Y-1.4228
X6.215Y-1.5228
X6.215Y-1.6228
X6.215Y-1.7228
X6.215Y-1.8228
X6.215Y-1.9228
X6.215Y-2.0228
X6.2154Y-3.7961
X6.2154Y-3.8961
X6.2154Y-3.9961
X6.2154Y-4.0961
X6.2154Y-4.1961
X6.2154Y-4.2961
X6.2154Y-4.3961
X6.2154Y-4.6961
X6.2154Y-4.7961
X6.2154Y-4.8961
X6.2154Y-4.9961
X6.2154Y-5.0961
X6.2154Y-5.1961
X6.2154Y-5.2961
X6.3126Y-0.0236
X6.3126Y-0.4236
X6.3126Y-0.5236
X6.3126Y-0.6236
X6.3126Y-0.7236
X6.3126Y-0.8236
X6.3126Y-0.9236
X6.3126Y-1.0236
X6.3126Y-1.1236
X6.3126Y-1.2236
X6.3126Y-1.3236
X6.3126Y-1.4236
X6.3126Y-1.5236
X6.3126Y-1.6236
X6.3126Y-1.7236
X6.3126Y-1.8236
X6.3126Y-1.9236
X6.3126Y-2.0236
X6.3126Y-2.4339
X6.3126Y-2.5339
X6.313Y-3.2969
X6.313Y-3.6969
X6.313Y-3.7969
X6.313Y-3.8969
X6.313Y-3.9969
X6.313Y-4.0969
X6.313Y-4.1969
X6.313Y-4.2969
X6.313Y-4.3969
X6.313Y-4.4969
X6.313Y-4.5969
X6.313Y-4.6969
X6.313Y-4.7969
X6.313Y-4.8969
X6.313Y-4.9969
X6.313Y-5.0969
X6.313Y-5.1969
X6.313Y-5.2969
X6.313Y-5.8071
X6.4126Y-0.0236
X6.4126Y-0.4236
X6.4126Y-0.5236
X6.4126Y-0.6236
X6.4126Y-0.7236
X6.4126Y-0.8236
X6.4126Y-0.9236
X6.4126Y-1.0236
X6.4126Y-1.1236
X6.4126Y-1.2236
X6.4126Y-1.3236
X6.4126Y-1.4236
X6.4126Y-1.5236
X6.4126Y-1.6236
X6.4126Y-1.7236
X6.4126Y-1.8236
X6.4126Y-1.9236
X6.4126Y-2.0236
X6.4126Y-2.4339
X6.4126Y-2.5339
X6.413Y-3.2969
X6.413Y-3.6969
X6.413Y-3.7969
X6.413Y-3.8969
X6.413Y-3.9969
X6.413Y-4.0969
X6.413Y-4.1969
X6.413Y-4.2969
X6.413Y-4.3969
X6.413Y-4.4969
X6.413Y-4.5969
X6.413Y-4.6969
X6.413Y-4.7969
X6.413Y-4.8969
X6.413Y-4.9969
X6.413Y-5.0969
X6.413Y-5.1969
X6.413Y-5.2969
X6.413Y-5.8071
X6.5126Y-0.0236
X6.5126Y-0.1236
X6.5126Y-0.2236
X6.5126Y-0.3236
X6.5126Y-0.4236
X6.5126Y-0.5236
X6.5126Y-0.6236
X6.5126Y-0.7236
X6.5126Y-0.8236
X6.5126Y-0.9236
X6.5126Y-1.0236
X6.5126Y-1.1236
X6.5126Y-1.2236
X6.5126Y-1.3236
X6.5126Y-1.4236
X6.5126Y-1.5236
X6.5126Y-1.6236
X6.5126Y-1.7236
X6.5126Y-1.8236
X6.5126Y-1.9236
X6.5126Y-2.0236
X6.5126Y-2.1339
X6.5126Y-2.2339
X6.5126Y-2.3339
X6.5126Y-2.4339
X6.5126Y-2.5339
X6.513Y-3.2969
X6.513Y-3.3969
X6.513Y-3.4969
X6.513Y-3.5969
X6.513Y-3.6969
X6.513Y-3.7969
X6.513Y-3.8969
X6.513Y-3.9969
X6.513Y-4.0969
X6.513Y-4.1969
X6.513Y-4.2969
X6.513Y-4.3969
X6.513Y-4.4969
X6.513Y-4.5969
X6.513Y-4.6969
X6.513Y-4.7969
X6.513Y-4.8969
X6.513Y-4.9969
X6.513Y-5.0969
X6.513Y-5.1969
X6.513Y-5.2969
X6.513Y-5.4071
X6.513Y-5.5071
X6.513Y-5.6071
X6.513Y-5.7071
X6.513Y-5.8071
X6.6126Y-0.0236
X6.6126Y-0.1236
X6.6126Y-0.2236
X6.6126Y-0.3236
X6.6126Y-0.4236
X6.6126Y-0.5236
X6.6126Y-0.6236
X6.6126Y-0.9236
X6.6126Y-1.0236
X6.6126Y-1.1236
X6.6126Y-1.2236
X6.6126Y-1.3236
X6.6126Y-1.4236
X6.6126Y-1.5236
X6.6126Y-1.9236
X6.6126Y-2.0236
X6.6126Y-2.1339
X6.6126Y-2.2339
X6.6126Y-2.3339
X6.6126Y-2.4339
X6.6126Y-2.5339
X6.613Y-3.2969
X6.613Y-3.3969
X6.613Y-3.4969
X6.613Y-3.5969
X6.613Y-3.6969
X6.613Y-3.7969
X6.613Y-3.8969
X6.613Y-4.1969
X6.613Y-4.2969
X6.613Y-4.3969
X6.613Y-4.4969
X6.613Y-4.5969
X6.613Y-4.6969
X6.613Y-4.7969
X6.613Y-4.8969
X6.613Y-4.9969
X6.613Y-5.0969
X6.613Y-5.1969
X6.613Y-5.2969
X6.613Y-5.4071
X6.613Y-5.5071
X6.613Y-5.6071
X6.613Y-5.7071
X6.613Y-5.8071
X6.7126Y-0.0236
X6.7126Y-0.1236
X6.7126Y-0.2236
X6.7126Y-0.3236
X6.7126Y-0.4236
X6.7126Y-0.5236
X6.7126Y-1.0236
X6.7126Y-1.1236
X6.7126Y-1.2236
X6.7126Y-1.3236
X6.7126Y-1.4236
X6.7126Y-1.5236
X6.7126Y-1.9236
X6.7126Y-2.0236
X6.7126Y-2.1339
X6.7126Y-2.2339
X6.7126Y-2.3339
X6.7126Y-2.4339
X6.713Y-3.2969
X6.713Y-3.3969
X6.713Y-3.4969
X6.713Y-3.5969
X6.713Y-3.6969
X6.713Y-3.7969
X6.713Y-4.2969
X6.713Y-4.3969
X6.713Y-4.4969
X6.713Y-4.5969
X6.713Y-4.6969
X6.713Y-4.7969
X6.713Y-4.8969
X6.713Y-4.9969
X6.713Y-5.0969
X6.713Y-5.1969
X6.713Y-5.2969
X6.713Y-5.4071
X6.713Y-5.5071
X6.713Y-5.6071
X6.713Y-5.7071
T2
X3.7864Y-1.7264
X3.8236Y-1.6366
X3.8236Y-1.8162
X3.9134Y-1.5994
X3.9134Y-1.8533
X4.0032Y-1.6366
X4.0032Y-1.8162
X4.0404Y-1.7264
X4.5742Y-5.1531
X4.6114Y-5.0634
X4.6114Y-5.2429
X4.7012Y-5.0262
X4.7012Y-5.2801
X4.791Y-5.0634
X4.791Y-5.2429
X4.8281Y-5.1531
X3.7864Y0.1555
X3.8236Y0.2453
X3.8236Y0.0657
X3.9134Y0.2825
X3.9134Y0.0285
X4.0032Y0.2453
X4.0032Y0.0657
X4.0404Y0.1555
X4.7278Y-3.1177
X4.7649Y-3.0279
X4.7649Y-3.2075
X4.8547Y-2.9907
X4.8547Y-3.2447
X4.9445Y-3.0279
X4.9445Y-3.2075
X4.9817Y-3.1177
X6.6096Y-4.0587
X6.6468Y-3.9689
X6.6468Y-4.1484
X6.7366Y-3.9317
X6.7366Y-4.1856
X6.8264Y-3.9689
X6.8264Y-4.1484
X6.8636Y-4.0587
X0.1053Y-4.3228
X0.1425Y-4.2331
X0.1425Y-4.4126
X0.2323Y-4.1959
X0.2323Y-4.4498
X0.3221Y-4.2331
X0.3221Y-4.4126
X0.3593Y-4.3228
X2.9321Y-0.2441
X2.9693Y-0.1543
X2.9693Y-0.3339
X3.0591Y-0.1171
X3.0591Y-0.3711
X3.1488Y-0.1543
X3.1488Y-0.3339
X3.186Y-0.2441
X4.7274Y-2.6673
X4.7646Y-2.5775
X4.7646Y-2.7571
X4.8543Y-2.5404
X4.8543Y-2.7943
X4.9441Y-2.5775
X4.9441Y-2.7571
X4.9813Y-2.6673
X0.1053Y-7.1457
X0.1425Y-7.0559
X0.1425Y-7.2354
X0.2323Y-7.0187
X0.2323Y-7.2726
X0.3221Y-7.0559
X0.3221Y-7.2354
X0.3593Y-7.1457
X5.6683Y0.1555
X5.7055Y0.2453
X5.7055Y0.0657
X5.7953Y0.2825
X5.7953Y0.0285
X5.8851Y0.2453
X5.8851Y0.0657
X5.9222Y0.1555
X5.8222Y-5.1531
X5.8594Y-5.0634
X5.8594Y-5.2429
X5.9492Y-5.0262
X5.9492Y-5.2801
X6.039Y-5.0634
X6.039Y-5.2429
X6.0762Y-5.1531
X3.7868Y-4.9996
X3.824Y-4.9098
X3.824Y-5.0894
X3.9138Y-4.8726
X3.9138Y-5.1266
X4.0036Y-4.9098
X4.0036Y-5.0894
X4.0407Y-4.9996
X6.6093Y-1.7264
X6.6464Y-1.6366
X6.6464Y-1.8162
X6.7362Y-1.5994
X6.7362Y-1.8533
X6.826Y-1.6366
X6.826Y-1.8162
X6.8632Y-1.7264
X6.2159Y-3.5114
X6.2531Y-3.4216
X6.2531Y-3.6012
X6.3429Y-3.3844
X6.3429Y-3.6384
X6.4327Y-3.4216
X6.4327Y-3.6012
X6.4699Y-3.5114
X5.6683Y-2.6673
X5.7055Y-2.5775
X5.7055Y-2.7571
X5.7953Y-2.5404
X5.7953Y-2.7943
X5.8851Y-2.5775
X5.8851Y-2.7571
X5.9222Y-2.6673
X4.1805Y-5.5469
X4.2177Y-5.4571
X4.2177Y-5.6366
X4.3075Y-5.4199
X4.3075Y-5.6738
X4.3973Y-5.4571
X4.3973Y-5.6366
X4.4344Y-5.5469
X5.8222Y-3.9051
X5.8594Y-3.8153
X5.8594Y-3.9949
X5.9492Y-3.7781
X5.9492Y-4.0321
X6.039Y-3.8153
X6.039Y-3.9949
X6.0762Y-3.9051
X4.5738Y-0.6319
X4.611Y-0.5421
X4.611Y-0.7217
X4.7008Y-0.5049
X4.7008Y-0.7589
X4.7906Y-0.5421
X4.7906Y-0.7217
X4.8278Y-0.6319
X4.5742Y-3.9051
X4.6114Y-3.8153
X4.6114Y-3.9949
X4.7012Y-3.7781
X4.7012Y-4.0321
X4.791Y-3.8153
X4.791Y-3.9949
X4.8281Y-3.9051
X3.7868Y-3.1177
X3.824Y-3.0279
X3.824Y-3.2075
X3.9138Y-2.9907
X3.9138Y-3.2447
X4.0036Y-3.0279
X4.0036Y-3.2075
X4.0407Y-3.1177
X5.8219Y-1.8799
X5.859Y-1.7901
X5.859Y-1.9697
X5.9488Y-1.753
X5.9488Y-2.0069
X6.0386Y-1.7901
X6.0386Y-1.9697
X6.0758Y-1.8799
X3.7864Y-2.6673
X3.8236Y-2.5775
X3.8236Y-2.7571
X3.9134Y-2.5404
X3.9134Y-2.7943
X4.0032Y-2.5775
X4.0032Y-2.7571
X4.0404Y-2.6673
X6.2156Y-0.2382
X6.2527Y-0.1484
X6.2527Y-0.328
X6.3425Y-0.1112
X6.3425Y-0.3652
X6.4323Y-0.1484
X6.4323Y-0.328
X6.4695Y-0.2382
X2.9321Y-3.0669
X2.9693Y-2.9771
X2.9693Y-3.1567
X3.0591Y-2.94
X3.0591Y-3.1939
X3.1488Y-2.9771
X3.1488Y-3.1567
X3.186Y-3.0669
X4.1801Y-2.2736
X4.2173Y-2.1838
X4.2173Y-2.3634
X4.3071Y-2.1467
X4.3071Y-2.4006
X4.3969Y-2.1838
X4.3969Y-2.3634
X4.4341Y-2.2736
X6.6096Y-4.9996
X6.6468Y-4.9098
X6.6468Y-5.0894
X6.7366Y-4.8726
X6.7366Y-5.1266
X6.8264Y-4.9098
X6.8264Y-5.0894
X6.8636Y-4.9996
X4.7278Y-5.9406
X4.7649Y-5.8508
X4.7649Y-6.0303
X4.8547Y-5.8136
X4.8547Y-6.0675
X4.9445Y-5.8508
X4.9445Y-6.0303
X4.9817Y-5.9406
X3.7868Y-5.9406
X3.824Y-5.8508
X3.824Y-6.0303
X3.9138Y-5.8136
X3.9138Y-6.0675
X4.0036Y-5.8508
X4.0036Y-6.0303
X4.0407Y-5.9406
X5.6687Y-3.1177
X5.7059Y-3.0279
X5.7059Y-3.2075
X5.7957Y-2.9907
X5.7957Y-3.2447
X5.8854Y-3.0279
X5.8854Y-3.2075
X5.9226Y-3.1177
X6.6093Y-2.6673
X6.6464Y-2.5775
X6.6464Y-2.7571
X6.7362Y-2.5404
X6.7362Y-2.7943
X6.826Y-2.5775
X6.826Y-2.7571
X6.8632Y-2.6673
X6.6096Y-3.1177
X6.6468Y-3.0279
X6.6468Y-3.2075
X6.7366Y-2.9907
X6.7366Y-3.2447
X6.8264Y-3.0279
X6.8264Y-3.2075
X6.8636Y-3.1177
X4.1801Y-0.2382
X4.2173Y-0.1484
X4.2173Y-0.328
X4.3071Y-0.1112
X4.3071Y-0.3652
X4.3969Y-0.1484
X4.3969Y-0.328
X4.4341Y-0.2382
X2.9281Y-7.1457
X2.9653Y-7.0559
X2.9653Y-7.2354
X3.0551Y-7.0187
X3.0551Y-7.2726
X3.1449Y-7.0559
X3.1449Y-7.2354
X3.1821Y-7.1457
X5.8219Y-0.6319
X5.859Y-0.5421
X5.859Y-0.7217
X5.9488Y-0.5049
X5.9488Y-0.7589
X6.0386Y-0.5421
X6.0386Y-0.7217
X6.0758Y-0.6319
X2.9281Y-4.3228
X2.9653Y-4.2331
X2.9653Y-4.4126
X3.0551Y-4.1959
X3.0551Y-4.4498
X3.1449Y-4.2331
X3.1449Y-4.4126
X3.1821Y-4.3228
X6.2156Y-2.2736
X6.2527Y-2.1838
X6.2527Y-2.3634
X6.3425Y-2.1467
X6.3425Y-2.4006
X6.4323Y-2.1838
X6.4323Y-2.3634
X6.4695Y-2.2736
X3.7864Y-0.7854
X3.8236Y-0.6957
X3.8236Y-0.8752
X3.9134Y-0.6585
X3.9134Y-0.9124
X4.0032Y-0.6957
X4.0032Y-0.8752
X4.0404Y-0.7854
X6.6096Y-5.9406
X6.6468Y-5.8508
X6.6468Y-6.0303
X6.7366Y-5.8136
X6.7366Y-6.0675
X6.8264Y-5.8508
X6.8264Y-6.0303
X6.8636Y-5.9406
X6.2159Y-5.5469
X6.2531Y-5.4571
X6.2531Y-5.6366
X6.3429Y-5.4199
X6.3429Y-5.6738
X6.4327Y-5.4571
X6.4327Y-5.6366
X6.4699Y-5.5469
X3.7868Y-4.0587
X3.824Y-3.9689
X3.824Y-4.1484
X3.9138Y-3.9317
X3.9138Y-4.1856
X4.0036Y-3.9689
X4.0036Y-4.1484
X4.0407Y-4.0587
X4.5738Y-1.8799
X4.611Y-1.7901
X4.611Y-1.9697
X4.7008Y-1.753
X4.7008Y-2.0069
X4.7906Y-1.7901
X4.7906Y-1.9697
X4.8278Y-1.8799
X6.6093Y-0.7854
X6.6464Y-0.6957
X6.6464Y-0.8752
X6.7362Y-0.6585
X6.7362Y-0.9124
X6.826Y-0.6957
X6.826Y-0.8752
X6.8632Y-0.7854
X0.1093Y-3.0669
X0.1464Y-2.9771
X0.1464Y-3.1567
X0.2362Y-2.94
X0.2362Y-3.1939
X0.326Y-2.9771
X0.326Y-3.1567
X0.3632Y-3.0669
X6.6093Y0.1555
X6.6464Y0.2453
X6.6464Y0.0657
X6.7362Y0.2825
X6.7362Y0.0285
X6.826Y0.2453
X6.826Y0.0657
X6.8632Y0.1555
X4.7274Y0.1555
X4.7646Y0.2453
X4.7646Y0.0657
X4.8543Y0.2825
X4.8543Y0.0285
X4.9441Y0.2453
X4.9441Y0.0657
X4.9813Y0.1555
X5.6687Y-5.9406
X5.7059Y-5.8508
X5.7059Y-6.0303
X5.7957Y-5.8136
X5.7957Y-6.0675
X5.8854Y-5.8508
X5.8854Y-6.0303
X5.9226Y-5.9406
X4.1805Y-3.5114
X4.2177Y-3.4216
X4.2177Y-3.6012
X4.3075Y-3.3844
X4.3075Y-3.6384
X4.3973Y-3.4216
X4.3973Y-3.6012
X4.4344Y-3.5114
X0.1093Y-0.2441
X0.1464Y-0.1543
X0.1464Y-0.3339
X0.2362Y-0.1171
X0.2362Y-0.3711
X0.326Y-0.1543
X0.326Y-0.3339
X0.3632Y-0.2441
T3
X1.123Y-1.7589
X1.123Y-2.0589
X1.7738Y-4.9311
X1.7738Y-5.0311
X1.7738Y-5.2311
X1.7738Y-5.9311
X1.7738Y-6.0311
X2.3738Y-4.9311
X2.3738Y-5.0311
X2.3738Y-5.9311
X2.3738Y-6.0311
X0.9569Y-5.3173
X0.9569Y-5.4173
X0.9569Y-6.1173
X0.9569Y-6.3173
X0.9569Y-6.4173
X1.5569Y-5.3173
X1.5569Y-5.4173
X1.5569Y-6.3173
X1.5569Y-6.4173
X0.9549Y-4.9311
X0.9549Y-5.0311
X0.9549Y-5.2311
X0.9549Y-5.9311
X0.9549Y-6.0311
X1.5549Y-4.9311
X1.5549Y-5.0311
X1.5549Y-5.9311
X1.5549Y-6.0311
X1.7738Y-5.3173
X1.7738Y-5.4173
X1.7738Y-6.1173
X1.7738Y-6.3173
X1.7738Y-6.4173
X2.3738Y-5.3173
X2.3738Y-5.4173
X2.3738Y-6.3173
X2.3738Y-6.4173
X1.8841Y-0.8823
X1.8841Y-0.9823
X1.8841Y-1.6823
X1.8841Y-1.8823
X1.8841Y-1.9823
X2.4841Y-0.8823
X2.4841Y-0.9823
X2.4841Y-1.8823
X2.4841Y-1.9823
X1.0248Y-0.8823
X1.0248Y-0.9823
X1.0248Y-1.6823
X1.0248Y-1.8823
X1.0248Y-1.9823
X1.6248Y-0.8823
X1.6248Y-0.9823
X1.6248Y-1.8823
X1.6248Y-1.9823
T4
X1.3191Y-0.8828
X1.3191Y-0.9828
X1.3191Y-1.0828
X1.3191Y-1.1828
X1.3191Y-1.2828
X1.3191Y-1.3828
X1.3191Y-1.4828
X1.3191Y-1.5828
X1.3191Y-1.6828
X1.3191Y-1.7828
X1.3191Y-1.8828
X1.3191Y-1.9828
X1.3191Y-2.0828
X1.3191Y-2.1828
X1.3191Y-2.2828
X2.2991Y-0.8828
X2.2991Y-0.9828
X2.2991Y-0.9828
X2.2991Y-1.0828
X2.2991Y-1.1828
X2.2991Y-1.2828
X2.2991Y-1.3828
X2.2991Y-1.4828
X2.2991Y-1.5828
X2.2991Y-1.6828
X2.2991Y-1.7828
X2.2991Y-1.8828
X2.2991Y-1.9828
X2.2991Y-2.0828
X2.2991Y-2.1828
X2.2991Y-2.2828
T5
X0.6909Y-0.9144
X0.6909Y-1.0128
X0.6919Y-1.3671
X0.6919Y-1.4656
X0.69Y-1.561
X0.69Y-1.6594
X0.6969Y-1.1319
X0.6969Y-1.2303
T6
X1.4911Y-0.9961
X1.4911Y-1.0961
X1.4911Y-1.1961
X1.4911Y-1.2961
X1.4911Y-1.3961
X1.3209Y-0.6841
X1.4193Y-0.6841
X0.6526Y-2.6683
X0.751Y-2.6683
X0.6309Y-6.248
X0.6309Y-6.3465
X1.2018Y-6.062
X1.3002Y-6.062
X2.5551Y-0.6427
X2.6535Y-0.6427
X1.6152Y-4.7274
X1.7136Y-4.7274
X2.0315Y-5.2766
X2.1299Y-5.2766
X0.5758Y-1.1693
X0.5758Y-1.2693
X0.5758Y-1.3693
X0.5758Y-1.4693
X0.5758Y-1.5693
X2.6663Y-6.2451
X2.6663Y-6.3435
X0.877Y-1.0067
X0.877Y-1.1067
X0.877Y-1.2067
X0.872Y-1.3671
X0.872Y-1.4671
X0.872Y-1.5671
X0.9764Y-0.689
X1.0748Y-0.689
X1.7329Y-2.1191
X1.8329Y-2.1191
X1.9329Y-2.1191
X2.0329Y-2.1191
X2.1329Y-2.1191
X2.2037Y-0.6821
X2.3022Y-0.6821
X0.6398Y-4.9754
X0.6398Y-5.0738
X2.126Y-1.5
X2.126Y-1.6
X2.126Y-1.7
X2.126Y-1.8
X2.126Y-1.9
X0.6614Y-1.8002
X0.6614Y-1.9002
X0.6614Y-2.0002
X0.6614Y-2.1002
X0.6614Y-2.2002
X2.6634Y-4.9941
X2.6634Y-5.0925
X2.0217Y-6.061
X2.1201Y-6.061
X2.5305Y-2.6624
X2.6289Y-2.6624
X1.6181Y-6.6821
X1.7165Y-6.6821
X1.2185Y-5.2717
X1.3169Y-5.2717
T7
X2.6614Y-2.0512
X2.6614Y-2.1693
X2.6614Y-2.2874
X2.6614Y-0.9567
X2.6614Y-1.0748
X2.6614Y-1.1929
X1.687Y-0.8002
X1.8051Y-0.8002
X1.9232Y-0.8002
X1.9616Y-4.7913
X2.0797Y-4.7913
X2.1978Y-4.7913
X1.9557Y-6.5551
X2.0738Y-6.5551
X2.1919Y-6.5551
X1.1368Y-6.5551
X1.2549Y-6.5551
X1.373Y-6.5551
X2.6614Y-1.5039
X2.6614Y-1.622
X2.6614Y-1.7402
X1.1526Y-4.7854
X1.2707Y-4.7854
X1.3888Y-4.7854
T8
X0.7904Y-1.7411
X0.7904Y-2.0411
X2.1781Y-2.3
X2.1781Y-2.4
X2.1781Y-2.5
T9
X0.9449Y-2.1181
X0.9449Y-2.4823
T10
X4.7057Y-1.2667
X5.3238Y-0.6486
X5.3238Y-1.8848
X5.9419Y-1.2667
X4.7061Y-4.54
X5.3242Y-3.9219
X5.3242Y-5.1581
X5.9423Y-4.54
T11
X4.4241Y-1.2559
X5.315Y-0.3651
X5.315Y-2.1467
X6.2058Y-1.2559
X4.4245Y-4.5291
X5.3154Y-3.6383
X5.3154Y-5.42
X6.2062Y-4.5291
T12
X5.7953Y0.1555
X5.9492Y-5.1531
X3.9138Y-4.9996
X6.7362Y-1.7264
X6.3429Y-3.5114
X5.7953Y-2.6673
X4.3075Y-5.5469
X5.9492Y-3.9051
X4.7008Y-0.6319
X4.7012Y-3.9051
X3.9138Y-3.1177
X5.9488Y-1.8799
X3.9134Y-2.6673
X6.3425Y-0.2382
X3.0591Y-3.0669
X4.3071Y-2.2736
X6.7366Y-4.9996
X4.8547Y-5.9406
X3.9138Y-5.9406
X5.7957Y-3.1177
X6.7362Y-2.6673
X6.7366Y-3.1177
X4.3071Y-0.2382
X3.0551Y-7.1457
X5.9488Y-0.6319
X3.0551Y-4.3228
X6.3425Y-2.2736
X3.9134Y-0.7854
X6.7366Y-5.9406
X6.3429Y-5.5469
X3.9138Y-4.0587
X4.7008Y-1.8799
X6.7362Y-0.7854
X0.2362Y-3.0669
X6.7362Y0.1555
X4.8543Y0.1555
X5.7957Y-5.9406
X4.3075Y-3.5114
X0.2362Y-0.2441
X3.9134Y-1.7264
X4.7012Y-5.1531
X3.9134Y0.1555
X4.8547Y-3.1177
X6.7366Y-4.0587
X0.2323Y-4.3228
X3.0591Y-0.2441
X4.8543Y-2.6673
X0.2323Y-7.1457
T5
G00X0.7559Y-2.3504
M15
G01X0.7559Y-2.3976
M16
G05
G00X0.9882Y-2.3543
M15
G01X0.9016Y-2.3543
M16
G05
G00X1.1339Y-2.3504
M15
G01X1.1339Y-2.3976
M16
G05
T0
M30
