G04 #@! TF.GenerationSoftware,KiCad,Pcbnew,5.1.5+dfsg1-2build2*
G04 #@! TF.CreationDate,2021-01-06T19:09:04+01:00*
G04 #@! TF.ProjectId,ariadne-v3-backup,61726961-646e-4652-9d76-332d6261636b,rev?*
G04 #@! TF.SameCoordinates,Original*
G04 #@! TF.FileFunction,Legend,Bot*
G04 #@! TF.FilePolarity,Positive*
%FSLAX46Y46*%
G04 Gerber Fmt 4.6, Leading zero omitted, Abs format (unit mm)*
G04 Created by KiCad (PCBNEW 5.1.5+dfsg1-2build2) date 2021-01-06 19:09:04*
%MOMM*%
%LPD*%
G04 APERTURE LIST*
%ADD10C,0.150000*%
%ADD11C,0.120000*%
G04 APERTURE END LIST*
D10*
X105277142Y-98195714D02*
X105848571Y-98195714D01*
X105277142Y-99338571D02*
X105848571Y-99338571D01*
X105277142Y-100624285D02*
X107705714Y-100624285D01*
X107991428Y-100767142D01*
X108134285Y-100910000D01*
X108277142Y-101195714D01*
X108277142Y-101767142D01*
X108134285Y-102052857D01*
X107991428Y-102195714D01*
X107705714Y-102338571D01*
X105277142Y-102338571D01*
X106277142Y-103767142D02*
X108277142Y-103767142D01*
X106562857Y-103767142D02*
X106420000Y-103910000D01*
X106277142Y-104195714D01*
X106277142Y-104624285D01*
X106420000Y-104910000D01*
X106705714Y-105052857D01*
X108277142Y-105052857D01*
X108277142Y-106481428D02*
X105277142Y-106481428D01*
X108277142Y-107767142D02*
X106705714Y-107767142D01*
X106420000Y-107624285D01*
X106277142Y-107338571D01*
X106277142Y-106910000D01*
X106420000Y-106624285D01*
X106562857Y-106481428D01*
X108277142Y-110481428D02*
X106705714Y-110481428D01*
X106420000Y-110338571D01*
X106277142Y-110052857D01*
X106277142Y-109481428D01*
X106420000Y-109195714D01*
X108134285Y-110481428D02*
X108277142Y-110195714D01*
X108277142Y-109481428D01*
X108134285Y-109195714D01*
X107848571Y-109052857D01*
X107562857Y-109052857D01*
X107277142Y-109195714D01*
X107134285Y-109481428D01*
X107134285Y-110195714D01*
X106991428Y-110481428D01*
X106277142Y-111910000D02*
X109277142Y-111910000D01*
X106420000Y-111910000D02*
X106277142Y-112195714D01*
X106277142Y-112767142D01*
X106420000Y-113052857D01*
X106562857Y-113195714D01*
X106848571Y-113338571D01*
X107705714Y-113338571D01*
X107991428Y-113195714D01*
X108134285Y-113052857D01*
X108277142Y-112767142D01*
X108277142Y-112195714D01*
X108134285Y-111910000D01*
X106277142Y-114624285D02*
X109277142Y-114624285D01*
X106420000Y-114624285D02*
X106277142Y-114910000D01*
X106277142Y-115481428D01*
X106420000Y-115767142D01*
X106562857Y-115910000D01*
X106848571Y-116052857D01*
X107705714Y-116052857D01*
X107991428Y-115910000D01*
X108134285Y-115767142D01*
X108277142Y-115481428D01*
X108277142Y-114910000D01*
X108134285Y-114624285D01*
X106277142Y-117052857D02*
X108277142Y-117767142D01*
X106277142Y-118481428D02*
X108277142Y-117767142D01*
X108991428Y-117481428D01*
X109134285Y-117338571D01*
X109277142Y-117052857D01*
X108277142Y-123195714D02*
X106705714Y-123195714D01*
X106420000Y-123052857D01*
X106277142Y-122767142D01*
X106277142Y-122195714D01*
X106420000Y-121910000D01*
X108134285Y-123195714D02*
X108277142Y-122910000D01*
X108277142Y-122195714D01*
X108134285Y-121910000D01*
X107848571Y-121767142D01*
X107562857Y-121767142D01*
X107277142Y-121910000D01*
X107134285Y-122195714D01*
X107134285Y-122910000D01*
X106991428Y-123195714D01*
X108277142Y-124624285D02*
X106277142Y-124624285D01*
X106562857Y-124624285D02*
X106420000Y-124767142D01*
X106277142Y-125052857D01*
X106277142Y-125481428D01*
X106420000Y-125767142D01*
X106705714Y-125910000D01*
X108277142Y-125910000D01*
X106705714Y-125910000D02*
X106420000Y-126052857D01*
X106277142Y-126338571D01*
X106277142Y-126767142D01*
X106420000Y-127052857D01*
X106705714Y-127195714D01*
X108277142Y-127195714D01*
X108277142Y-130910000D02*
X105277142Y-130910000D01*
X108277142Y-134624285D02*
X105277142Y-134624285D01*
X106420000Y-134624285D02*
X106277142Y-134910000D01*
X106277142Y-135481428D01*
X106420000Y-135767142D01*
X106562857Y-135910000D01*
X106848571Y-136052857D01*
X107705714Y-136052857D01*
X107991428Y-135910000D01*
X108134285Y-135767142D01*
X108277142Y-135481428D01*
X108277142Y-134910000D01*
X108134285Y-134624285D01*
X108134285Y-138481428D02*
X108277142Y-138195714D01*
X108277142Y-137624285D01*
X108134285Y-137338571D01*
X107848571Y-137195714D01*
X106705714Y-137195714D01*
X106420000Y-137338571D01*
X106277142Y-137624285D01*
X106277142Y-138195714D01*
X106420000Y-138481428D01*
X106705714Y-138624285D01*
X106991428Y-138624285D01*
X107277142Y-137195714D01*
X108134285Y-141195714D02*
X108277142Y-140910000D01*
X108277142Y-140338571D01*
X108134285Y-140052857D01*
X107991428Y-139910000D01*
X107705714Y-139767142D01*
X106848571Y-139767142D01*
X106562857Y-139910000D01*
X106420000Y-140052857D01*
X106277142Y-140338571D01*
X106277142Y-140910000D01*
X106420000Y-141195714D01*
X108277142Y-143767142D02*
X106705714Y-143767142D01*
X106420000Y-143624285D01*
X106277142Y-143338571D01*
X106277142Y-142767142D01*
X106420000Y-142481428D01*
X108134285Y-143767142D02*
X108277142Y-143481428D01*
X108277142Y-142767142D01*
X108134285Y-142481428D01*
X107848571Y-142338571D01*
X107562857Y-142338571D01*
X107277142Y-142481428D01*
X107134285Y-142767142D01*
X107134285Y-143481428D01*
X106991428Y-143767142D01*
X106277142Y-146481428D02*
X108277142Y-146481428D01*
X106277142Y-145195714D02*
X107848571Y-145195714D01*
X108134285Y-145338571D01*
X108277142Y-145624285D01*
X108277142Y-146052857D01*
X108134285Y-146338571D01*
X107991428Y-146481428D01*
X108134285Y-147767142D02*
X108277142Y-148052857D01*
X108277142Y-148624285D01*
X108134285Y-148910000D01*
X107848571Y-149052857D01*
X107705714Y-149052857D01*
X107420000Y-148910000D01*
X107277142Y-148624285D01*
X107277142Y-148195714D01*
X107134285Y-147910000D01*
X106848571Y-147767142D01*
X106705714Y-147767142D01*
X106420000Y-147910000D01*
X106277142Y-148195714D01*
X106277142Y-148624285D01*
X106420000Y-148910000D01*
X108134285Y-151481428D02*
X108277142Y-151195714D01*
X108277142Y-150624285D01*
X108134285Y-150338571D01*
X107848571Y-150195714D01*
X106705714Y-150195714D01*
X106420000Y-150338571D01*
X106277142Y-150624285D01*
X106277142Y-151195714D01*
X106420000Y-151481428D01*
X106705714Y-151624285D01*
X106991428Y-151624285D01*
X107277142Y-150195714D01*
X106277142Y-154767142D02*
X106277142Y-155910000D01*
X105277142Y-155195714D02*
X107848571Y-155195714D01*
X108134285Y-155338571D01*
X108277142Y-155624285D01*
X108277142Y-155910000D01*
X108277142Y-156910000D02*
X105277142Y-156910000D01*
X108277142Y-158195714D02*
X106705714Y-158195714D01*
X106420000Y-158052857D01*
X106277142Y-157767142D01*
X106277142Y-157338571D01*
X106420000Y-157052857D01*
X106562857Y-156910000D01*
X108277142Y-159624285D02*
X106277142Y-159624285D01*
X105277142Y-159624285D02*
X105420000Y-159481428D01*
X105562857Y-159624285D01*
X105420000Y-159767142D01*
X105277142Y-159624285D01*
X105562857Y-159624285D01*
X108134285Y-160910000D02*
X108277142Y-161195714D01*
X108277142Y-161767142D01*
X108134285Y-162052857D01*
X107848571Y-162195714D01*
X107705714Y-162195714D01*
X107420000Y-162052857D01*
X107277142Y-161767142D01*
X107277142Y-161338571D01*
X107134285Y-161052857D01*
X106848571Y-160910000D01*
X106705714Y-160910000D01*
X106420000Y-161052857D01*
X106277142Y-161338571D01*
X106277142Y-161767142D01*
X106420000Y-162052857D01*
X108277142Y-165767142D02*
X105277142Y-165767142D01*
X108277142Y-167052857D02*
X106705714Y-167052857D01*
X106420000Y-166910000D01*
X106277142Y-166624285D01*
X106277142Y-166195714D01*
X106420000Y-165910000D01*
X106562857Y-165767142D01*
X108277142Y-169767142D02*
X106705714Y-169767142D01*
X106420000Y-169624285D01*
X106277142Y-169338571D01*
X106277142Y-168767142D01*
X106420000Y-168481428D01*
X108134285Y-169767142D02*
X108277142Y-169481428D01*
X108277142Y-168767142D01*
X108134285Y-168481428D01*
X107848571Y-168338571D01*
X107562857Y-168338571D01*
X107277142Y-168481428D01*
X107134285Y-168767142D01*
X107134285Y-169481428D01*
X106991428Y-169767142D01*
X108134285Y-171052857D02*
X108277142Y-171338571D01*
X108277142Y-171910000D01*
X108134285Y-172195714D01*
X107848571Y-172338571D01*
X107705714Y-172338571D01*
X107420000Y-172195714D01*
X107277142Y-171910000D01*
X107277142Y-171481428D01*
X107134285Y-171195714D01*
X106848571Y-171052857D01*
X106705714Y-171052857D01*
X106420000Y-171195714D01*
X106277142Y-171481428D01*
X106277142Y-171910000D01*
X106420000Y-172195714D01*
X112927142Y-101552857D02*
X109927142Y-101552857D01*
X112927142Y-102838571D02*
X111355714Y-102838571D01*
X111070000Y-102695714D01*
X110927142Y-102410000D01*
X110927142Y-101981428D01*
X111070000Y-101695714D01*
X111212857Y-101552857D01*
X112927142Y-105552857D02*
X111355714Y-105552857D01*
X111070000Y-105410000D01*
X110927142Y-105124285D01*
X110927142Y-104552857D01*
X111070000Y-104267142D01*
X112784285Y-105552857D02*
X112927142Y-105267142D01*
X112927142Y-104552857D01*
X112784285Y-104267142D01*
X112498571Y-104124285D01*
X112212857Y-104124285D01*
X111927142Y-104267142D01*
X111784285Y-104552857D01*
X111784285Y-105267142D01*
X111641428Y-105552857D01*
X110927142Y-106981428D02*
X113927142Y-106981428D01*
X111070000Y-106981428D02*
X110927142Y-107267142D01*
X110927142Y-107838571D01*
X111070000Y-108124285D01*
X111212857Y-108267142D01*
X111498571Y-108410000D01*
X112355714Y-108410000D01*
X112641428Y-108267142D01*
X112784285Y-108124285D01*
X112927142Y-107838571D01*
X112927142Y-107267142D01*
X112784285Y-106981428D01*
X110927142Y-109695714D02*
X113927142Y-109695714D01*
X111070000Y-109695714D02*
X110927142Y-109981428D01*
X110927142Y-110552857D01*
X111070000Y-110838571D01*
X111212857Y-110981428D01*
X111498571Y-111124285D01*
X112355714Y-111124285D01*
X112641428Y-110981428D01*
X112784285Y-110838571D01*
X112927142Y-110552857D01*
X112927142Y-109981428D01*
X112784285Y-109695714D01*
X112784285Y-113552857D02*
X112927142Y-113267142D01*
X112927142Y-112695714D01*
X112784285Y-112410000D01*
X112498571Y-112267142D01*
X111355714Y-112267142D01*
X111070000Y-112410000D01*
X110927142Y-112695714D01*
X110927142Y-113267142D01*
X111070000Y-113552857D01*
X111355714Y-113695714D01*
X111641428Y-113695714D01*
X111927142Y-112267142D01*
X110927142Y-114981428D02*
X112927142Y-114981428D01*
X111212857Y-114981428D02*
X111070000Y-115124285D01*
X110927142Y-115410000D01*
X110927142Y-115838571D01*
X111070000Y-116124285D01*
X111355714Y-116267142D01*
X112927142Y-116267142D01*
X112784285Y-118838571D02*
X112927142Y-118552857D01*
X112927142Y-117981428D01*
X112784285Y-117695714D01*
X112498571Y-117552857D01*
X111355714Y-117552857D01*
X111070000Y-117695714D01*
X110927142Y-117981428D01*
X110927142Y-118552857D01*
X111070000Y-118838571D01*
X111355714Y-118981428D01*
X111641428Y-118981428D01*
X111927142Y-117552857D01*
X112927142Y-121552857D02*
X109927142Y-121552857D01*
X112784285Y-121552857D02*
X112927142Y-121267142D01*
X112927142Y-120695714D01*
X112784285Y-120410000D01*
X112641428Y-120267142D01*
X112355714Y-120124285D01*
X111498571Y-120124285D01*
X111212857Y-120267142D01*
X111070000Y-120410000D01*
X110927142Y-120695714D01*
X110927142Y-121267142D01*
X111070000Y-121552857D01*
X110927142Y-124838571D02*
X110927142Y-125981428D01*
X109927142Y-125267142D02*
X112498571Y-125267142D01*
X112784285Y-125410000D01*
X112927142Y-125695714D01*
X112927142Y-125981428D01*
X112927142Y-127410000D02*
X112784285Y-127124285D01*
X112641428Y-126981428D01*
X112355714Y-126838571D01*
X111498571Y-126838571D01*
X111212857Y-126981428D01*
X111070000Y-127124285D01*
X110927142Y-127410000D01*
X110927142Y-127838571D01*
X111070000Y-128124285D01*
X111212857Y-128267142D01*
X111498571Y-128410000D01*
X112355714Y-128410000D01*
X112641428Y-128267142D01*
X112784285Y-128124285D01*
X112927142Y-127838571D01*
X112927142Y-127410000D01*
X112927142Y-131981428D02*
X110927142Y-131981428D01*
X111212857Y-131981428D02*
X111070000Y-132124285D01*
X110927142Y-132410000D01*
X110927142Y-132838571D01*
X111070000Y-133124285D01*
X111355714Y-133267142D01*
X112927142Y-133267142D01*
X111355714Y-133267142D02*
X111070000Y-133410000D01*
X110927142Y-133695714D01*
X110927142Y-134124285D01*
X111070000Y-134410000D01*
X111355714Y-134552857D01*
X112927142Y-134552857D01*
X112784285Y-137124285D02*
X112927142Y-136838571D01*
X112927142Y-136267142D01*
X112784285Y-135981428D01*
X112498571Y-135838571D01*
X111355714Y-135838571D01*
X111070000Y-135981428D01*
X110927142Y-136267142D01*
X110927142Y-136838571D01*
X111070000Y-137124285D01*
X111355714Y-137267142D01*
X111641428Y-137267142D01*
X111927142Y-135838571D01*
X109927142Y-138410000D02*
X110498571Y-138410000D01*
X109927142Y-139552857D02*
X110498571Y-139552857D01*
X112641428Y-140838571D02*
X112784285Y-140981428D01*
X112927142Y-140838571D01*
X112784285Y-140695714D01*
X112641428Y-140838571D01*
X112927142Y-140838571D01*
X112927142Y-144552857D02*
X109927142Y-144552857D01*
X112927142Y-146267142D01*
X109927142Y-146267142D01*
X112927142Y-148124285D02*
X112784285Y-147838571D01*
X112641428Y-147695714D01*
X112355714Y-147552857D01*
X111498571Y-147552857D01*
X111212857Y-147695714D01*
X111070000Y-147838571D01*
X110927142Y-148124285D01*
X110927142Y-148552857D01*
X111070000Y-148838571D01*
X111212857Y-148981428D01*
X111498571Y-149124285D01*
X112355714Y-149124285D01*
X112641428Y-148981428D01*
X112784285Y-148838571D01*
X112927142Y-148552857D01*
X112927142Y-148124285D01*
X110927142Y-149981428D02*
X110927142Y-151124285D01*
X109927142Y-150410000D02*
X112498571Y-150410000D01*
X112784285Y-150552857D01*
X112927142Y-150838571D01*
X112927142Y-151124285D01*
X112784285Y-154267142D02*
X112927142Y-154552857D01*
X112927142Y-155124285D01*
X112784285Y-155410000D01*
X112498571Y-155552857D01*
X112355714Y-155552857D01*
X112070000Y-155410000D01*
X111927142Y-155124285D01*
X111927142Y-154695714D01*
X111784285Y-154410000D01*
X111498571Y-154267142D01*
X111355714Y-154267142D01*
X111070000Y-154410000D01*
X110927142Y-154695714D01*
X110927142Y-155124285D01*
X111070000Y-155410000D01*
X112927142Y-157267142D02*
X112784285Y-156981428D01*
X112641428Y-156838571D01*
X112355714Y-156695714D01*
X111498571Y-156695714D01*
X111212857Y-156838571D01*
X111070000Y-156981428D01*
X110927142Y-157267142D01*
X110927142Y-157695714D01*
X111070000Y-157981428D01*
X111212857Y-158124285D01*
X111498571Y-158267142D01*
X112355714Y-158267142D01*
X112641428Y-158124285D01*
X112784285Y-157981428D01*
X112927142Y-157695714D01*
X112927142Y-157267142D01*
X112784285Y-159695714D02*
X112927142Y-159695714D01*
X113212857Y-159552857D01*
X113355714Y-159410000D01*
X112927142Y-163267142D02*
X109927142Y-163267142D01*
X111070000Y-163267142D02*
X110927142Y-163552857D01*
X110927142Y-164124285D01*
X111070000Y-164410000D01*
X111212857Y-164552857D01*
X111498571Y-164695714D01*
X112355714Y-164695714D01*
X112641428Y-164552857D01*
X112784285Y-164410000D01*
X112927142Y-164124285D01*
X112927142Y-163552857D01*
X112784285Y-163267142D01*
X110927142Y-167267142D02*
X112927142Y-167267142D01*
X110927142Y-165981428D02*
X112498571Y-165981428D01*
X112784285Y-166124285D01*
X112927142Y-166410000D01*
X112927142Y-166838571D01*
X112784285Y-167124285D01*
X112641428Y-167267142D01*
X110927142Y-168267142D02*
X110927142Y-169410000D01*
X109927142Y-168695714D02*
X112498571Y-168695714D01*
X112784285Y-168838571D01*
X112927142Y-169124285D01*
X112927142Y-169410000D01*
X117577142Y-103195714D02*
X114577142Y-103195714D01*
X117577142Y-104481428D02*
X116005714Y-104481428D01*
X115720000Y-104338571D01*
X115577142Y-104052857D01*
X115577142Y-103624285D01*
X115720000Y-103338571D01*
X115862857Y-103195714D01*
X117577142Y-107195714D02*
X116005714Y-107195714D01*
X115720000Y-107052857D01*
X115577142Y-106767142D01*
X115577142Y-106195714D01*
X115720000Y-105910000D01*
X117434285Y-107195714D02*
X117577142Y-106910000D01*
X117577142Y-106195714D01*
X117434285Y-105910000D01*
X117148571Y-105767142D01*
X116862857Y-105767142D01*
X116577142Y-105910000D01*
X116434285Y-106195714D01*
X116434285Y-106910000D01*
X116291428Y-107195714D01*
X115577142Y-108624285D02*
X118577142Y-108624285D01*
X115720000Y-108624285D02*
X115577142Y-108910000D01*
X115577142Y-109481428D01*
X115720000Y-109767142D01*
X115862857Y-109910000D01*
X116148571Y-110052857D01*
X117005714Y-110052857D01*
X117291428Y-109910000D01*
X117434285Y-109767142D01*
X117577142Y-109481428D01*
X117577142Y-108910000D01*
X117434285Y-108624285D01*
X115577142Y-111338571D02*
X118577142Y-111338571D01*
X115720000Y-111338571D02*
X115577142Y-111624285D01*
X115577142Y-112195714D01*
X115720000Y-112481428D01*
X115862857Y-112624285D01*
X116148571Y-112767142D01*
X117005714Y-112767142D01*
X117291428Y-112624285D01*
X117434285Y-112481428D01*
X117577142Y-112195714D01*
X117577142Y-111624285D01*
X117434285Y-111338571D01*
X115577142Y-113767142D02*
X117577142Y-114481428D01*
X115577142Y-115195714D02*
X117577142Y-114481428D01*
X118291428Y-114195714D01*
X118434285Y-114052857D01*
X118577142Y-113767142D01*
X117577142Y-119910000D02*
X116005714Y-119910000D01*
X115720000Y-119767142D01*
X115577142Y-119481428D01*
X115577142Y-118910000D01*
X115720000Y-118624285D01*
X117434285Y-119910000D02*
X117577142Y-119624285D01*
X117577142Y-118910000D01*
X117434285Y-118624285D01*
X117148571Y-118481428D01*
X116862857Y-118481428D01*
X116577142Y-118624285D01*
X116434285Y-118910000D01*
X116434285Y-119624285D01*
X116291428Y-119910000D01*
X117577142Y-121338571D02*
X115577142Y-121338571D01*
X115862857Y-121338571D02*
X115720000Y-121481428D01*
X115577142Y-121767142D01*
X115577142Y-122195714D01*
X115720000Y-122481428D01*
X116005714Y-122624285D01*
X117577142Y-122624285D01*
X116005714Y-122624285D02*
X115720000Y-122767142D01*
X115577142Y-123052857D01*
X115577142Y-123481428D01*
X115720000Y-123767142D01*
X116005714Y-123910000D01*
X117577142Y-123910000D01*
X117577142Y-127624285D02*
X114577142Y-127624285D01*
X117434285Y-129195714D02*
X117577142Y-129195714D01*
X117862857Y-129052857D01*
X118005714Y-128910000D01*
X115577142Y-132338571D02*
X115577142Y-133481428D01*
X114577142Y-132767142D02*
X117148571Y-132767142D01*
X117434285Y-132910000D01*
X117577142Y-133195714D01*
X117577142Y-133481428D01*
X117577142Y-134481428D02*
X114577142Y-134481428D01*
X117577142Y-135767142D02*
X116005714Y-135767142D01*
X115720000Y-135624285D01*
X115577142Y-135338571D01*
X115577142Y-134910000D01*
X115720000Y-134624285D01*
X115862857Y-134481428D01*
X117577142Y-137624285D02*
X117434285Y-137338571D01*
X117291428Y-137195714D01*
X117005714Y-137052857D01*
X116148571Y-137052857D01*
X115862857Y-137195714D01*
X115720000Y-137338571D01*
X115577142Y-137624285D01*
X115577142Y-138052857D01*
X115720000Y-138338571D01*
X115862857Y-138481428D01*
X116148571Y-138624285D01*
X117005714Y-138624285D01*
X117291428Y-138481428D01*
X117434285Y-138338571D01*
X117577142Y-138052857D01*
X117577142Y-137624285D01*
X115577142Y-141195714D02*
X117577142Y-141195714D01*
X115577142Y-139910000D02*
X117148571Y-139910000D01*
X117434285Y-140052857D01*
X117577142Y-140338571D01*
X117577142Y-140767142D01*
X117434285Y-141052857D01*
X117291428Y-141195714D01*
X115577142Y-143910000D02*
X118005714Y-143910000D01*
X118291428Y-143767142D01*
X118434285Y-143624285D01*
X118577142Y-143338571D01*
X118577142Y-142910000D01*
X118434285Y-142624285D01*
X117434285Y-143910000D02*
X117577142Y-143624285D01*
X117577142Y-143052857D01*
X117434285Y-142767142D01*
X117291428Y-142624285D01*
X117005714Y-142481428D01*
X116148571Y-142481428D01*
X115862857Y-142624285D01*
X115720000Y-142767142D01*
X115577142Y-143052857D01*
X115577142Y-143624285D01*
X115720000Y-143910000D01*
X117577142Y-145338571D02*
X114577142Y-145338571D01*
X117577142Y-146624285D02*
X116005714Y-146624285D01*
X115720000Y-146481428D01*
X115577142Y-146195714D01*
X115577142Y-145767142D01*
X115720000Y-145481428D01*
X115862857Y-145338571D01*
X115577142Y-149910000D02*
X115577142Y-151052857D01*
X114577142Y-150338571D02*
X117148571Y-150338571D01*
X117434285Y-150481428D01*
X117577142Y-150767142D01*
X117577142Y-151052857D01*
X117577142Y-152052857D02*
X114577142Y-152052857D01*
X117577142Y-153338571D02*
X116005714Y-153338571D01*
X115720000Y-153195714D01*
X115577142Y-152910000D01*
X115577142Y-152481428D01*
X115720000Y-152195714D01*
X115862857Y-152052857D01*
X117577142Y-154767142D02*
X115577142Y-154767142D01*
X114577142Y-154767142D02*
X114720000Y-154624285D01*
X114862857Y-154767142D01*
X114720000Y-154910000D01*
X114577142Y-154767142D01*
X114862857Y-154767142D01*
X117434285Y-156052857D02*
X117577142Y-156338571D01*
X117577142Y-156910000D01*
X117434285Y-157195714D01*
X117148571Y-157338571D01*
X117005714Y-157338571D01*
X116720000Y-157195714D01*
X116577142Y-156910000D01*
X116577142Y-156481428D01*
X116434285Y-156195714D01*
X116148571Y-156052857D01*
X116005714Y-156052857D01*
X115720000Y-156195714D01*
X115577142Y-156481428D01*
X115577142Y-156910000D01*
X115720000Y-157195714D01*
X117577142Y-160910000D02*
X114577142Y-160910000D01*
X117577142Y-162195714D02*
X116005714Y-162195714D01*
X115720000Y-162052857D01*
X115577142Y-161767142D01*
X115577142Y-161338571D01*
X115720000Y-161052857D01*
X115862857Y-160910000D01*
X117577142Y-164910000D02*
X116005714Y-164910000D01*
X115720000Y-164767142D01*
X115577142Y-164481428D01*
X115577142Y-163910000D01*
X115720000Y-163624285D01*
X117434285Y-164910000D02*
X117577142Y-164624285D01*
X117577142Y-163910000D01*
X117434285Y-163624285D01*
X117148571Y-163481428D01*
X116862857Y-163481428D01*
X116577142Y-163624285D01*
X116434285Y-163910000D01*
X116434285Y-164624285D01*
X116291428Y-164910000D01*
X117434285Y-166195714D02*
X117577142Y-166481428D01*
X117577142Y-167052857D01*
X117434285Y-167338571D01*
X117148571Y-167481428D01*
X117005714Y-167481428D01*
X116720000Y-167338571D01*
X116577142Y-167052857D01*
X116577142Y-166624285D01*
X116434285Y-166338571D01*
X116148571Y-166195714D01*
X116005714Y-166195714D01*
X115720000Y-166338571D01*
X115577142Y-166624285D01*
X115577142Y-167052857D01*
X115720000Y-167338571D01*
X122227142Y-104624285D02*
X119227142Y-104624285D01*
X122227142Y-105910000D02*
X120655714Y-105910000D01*
X120370000Y-105767142D01*
X120227142Y-105481428D01*
X120227142Y-105052857D01*
X120370000Y-104767142D01*
X120512857Y-104624285D01*
X122227142Y-108624285D02*
X120655714Y-108624285D01*
X120370000Y-108481428D01*
X120227142Y-108195714D01*
X120227142Y-107624285D01*
X120370000Y-107338571D01*
X122084285Y-108624285D02*
X122227142Y-108338571D01*
X122227142Y-107624285D01*
X122084285Y-107338571D01*
X121798571Y-107195714D01*
X121512857Y-107195714D01*
X121227142Y-107338571D01*
X121084285Y-107624285D01*
X121084285Y-108338571D01*
X120941428Y-108624285D01*
X120227142Y-110052857D02*
X123227142Y-110052857D01*
X120370000Y-110052857D02*
X120227142Y-110338571D01*
X120227142Y-110910000D01*
X120370000Y-111195714D01*
X120512857Y-111338571D01*
X120798571Y-111481428D01*
X121655714Y-111481428D01*
X121941428Y-111338571D01*
X122084285Y-111195714D01*
X122227142Y-110910000D01*
X122227142Y-110338571D01*
X122084285Y-110052857D01*
X120227142Y-112767142D02*
X123227142Y-112767142D01*
X120370000Y-112767142D02*
X120227142Y-113052857D01*
X120227142Y-113624285D01*
X120370000Y-113910000D01*
X120512857Y-114052857D01*
X120798571Y-114195714D01*
X121655714Y-114195714D01*
X121941428Y-114052857D01*
X122084285Y-113910000D01*
X122227142Y-113624285D01*
X122227142Y-113052857D01*
X122084285Y-112767142D01*
X122084285Y-116624285D02*
X122227142Y-116338571D01*
X122227142Y-115767142D01*
X122084285Y-115481428D01*
X121798571Y-115338571D01*
X120655714Y-115338571D01*
X120370000Y-115481428D01*
X120227142Y-115767142D01*
X120227142Y-116338571D01*
X120370000Y-116624285D01*
X120655714Y-116767142D01*
X120941428Y-116767142D01*
X121227142Y-115338571D01*
X120227142Y-118052857D02*
X122227142Y-118052857D01*
X120512857Y-118052857D02*
X120370000Y-118195714D01*
X120227142Y-118481428D01*
X120227142Y-118910000D01*
X120370000Y-119195714D01*
X120655714Y-119338571D01*
X122227142Y-119338571D01*
X122084285Y-121910000D02*
X122227142Y-121624285D01*
X122227142Y-121052857D01*
X122084285Y-120767142D01*
X121798571Y-120624285D01*
X120655714Y-120624285D01*
X120370000Y-120767142D01*
X120227142Y-121052857D01*
X120227142Y-121624285D01*
X120370000Y-121910000D01*
X120655714Y-122052857D01*
X120941428Y-122052857D01*
X121227142Y-120624285D01*
X122227142Y-124624285D02*
X119227142Y-124624285D01*
X122084285Y-124624285D02*
X122227142Y-124338571D01*
X122227142Y-123767142D01*
X122084285Y-123481428D01*
X121941428Y-123338571D01*
X121655714Y-123195714D01*
X120798571Y-123195714D01*
X120512857Y-123338571D01*
X120370000Y-123481428D01*
X120227142Y-123767142D01*
X120227142Y-124338571D01*
X120370000Y-124624285D01*
X120227142Y-127910000D02*
X120227142Y-129052857D01*
X119227142Y-128338571D02*
X121798571Y-128338571D01*
X122084285Y-128481428D01*
X122227142Y-128767142D01*
X122227142Y-129052857D01*
X122227142Y-130481428D02*
X122084285Y-130195714D01*
X121941428Y-130052857D01*
X121655714Y-129910000D01*
X120798571Y-129910000D01*
X120512857Y-130052857D01*
X120370000Y-130195714D01*
X120227142Y-130481428D01*
X120227142Y-130910000D01*
X120370000Y-131195714D01*
X120512857Y-131338571D01*
X120798571Y-131481428D01*
X121655714Y-131481428D01*
X121941428Y-131338571D01*
X122084285Y-131195714D01*
X122227142Y-130910000D01*
X122227142Y-130481428D01*
X122227142Y-135052857D02*
X120227142Y-135052857D01*
X120512857Y-135052857D02*
X120370000Y-135195714D01*
X120227142Y-135481428D01*
X120227142Y-135910000D01*
X120370000Y-136195714D01*
X120655714Y-136338571D01*
X122227142Y-136338571D01*
X120655714Y-136338571D02*
X120370000Y-136481428D01*
X120227142Y-136767142D01*
X120227142Y-137195714D01*
X120370000Y-137481428D01*
X120655714Y-137624285D01*
X122227142Y-137624285D01*
X122084285Y-140195714D02*
X122227142Y-139910000D01*
X122227142Y-139338571D01*
X122084285Y-139052857D01*
X121798571Y-138910000D01*
X120655714Y-138910000D01*
X120370000Y-139052857D01*
X120227142Y-139338571D01*
X120227142Y-139910000D01*
X120370000Y-140195714D01*
X120655714Y-140338571D01*
X120941428Y-140338571D01*
X121227142Y-138910000D01*
X122084285Y-141767142D02*
X122227142Y-141767142D01*
X122512857Y-141624285D01*
X122655714Y-141481428D01*
X122227142Y-145338571D02*
X119227142Y-145338571D01*
X120370000Y-145338571D02*
X120227142Y-145624285D01*
X120227142Y-146195714D01*
X120370000Y-146481428D01*
X120512857Y-146624285D01*
X120798571Y-146767142D01*
X121655714Y-146767142D01*
X121941428Y-146624285D01*
X122084285Y-146481428D01*
X122227142Y-146195714D01*
X122227142Y-145624285D01*
X122084285Y-145338571D01*
X122084285Y-149195714D02*
X122227142Y-148910000D01*
X122227142Y-148338571D01*
X122084285Y-148052857D01*
X121798571Y-147910000D01*
X120655714Y-147910000D01*
X120370000Y-148052857D01*
X120227142Y-148338571D01*
X120227142Y-148910000D01*
X120370000Y-149195714D01*
X120655714Y-149338571D01*
X120941428Y-149338571D01*
X121227142Y-147910000D01*
X122084285Y-151910000D02*
X122227142Y-151624285D01*
X122227142Y-151052857D01*
X122084285Y-150767142D01*
X121941428Y-150624285D01*
X121655714Y-150481428D01*
X120798571Y-150481428D01*
X120512857Y-150624285D01*
X120370000Y-150767142D01*
X120227142Y-151052857D01*
X120227142Y-151624285D01*
X120370000Y-151910000D01*
X122227142Y-154481428D02*
X120655714Y-154481428D01*
X120370000Y-154338571D01*
X120227142Y-154052857D01*
X120227142Y-153481428D01*
X120370000Y-153195714D01*
X122084285Y-154481428D02*
X122227142Y-154195714D01*
X122227142Y-153481428D01*
X122084285Y-153195714D01*
X121798571Y-153052857D01*
X121512857Y-153052857D01*
X121227142Y-153195714D01*
X121084285Y-153481428D01*
X121084285Y-154195714D01*
X120941428Y-154481428D01*
X120227142Y-157195714D02*
X122227142Y-157195714D01*
X120227142Y-155910000D02*
X121798571Y-155910000D01*
X122084285Y-156052857D01*
X122227142Y-156338571D01*
X122227142Y-156767142D01*
X122084285Y-157052857D01*
X121941428Y-157195714D01*
X122084285Y-158481428D02*
X122227142Y-158767142D01*
X122227142Y-159338571D01*
X122084285Y-159624285D01*
X121798571Y-159767142D01*
X121655714Y-159767142D01*
X121370000Y-159624285D01*
X121227142Y-159338571D01*
X121227142Y-158910000D01*
X121084285Y-158624285D01*
X120798571Y-158481428D01*
X120655714Y-158481428D01*
X120370000Y-158624285D01*
X120227142Y-158910000D01*
X120227142Y-159338571D01*
X120370000Y-159624285D01*
X122084285Y-162195714D02*
X122227142Y-161910000D01*
X122227142Y-161338571D01*
X122084285Y-161052857D01*
X121798571Y-160910000D01*
X120655714Y-160910000D01*
X120370000Y-161052857D01*
X120227142Y-161338571D01*
X120227142Y-161910000D01*
X120370000Y-162195714D01*
X120655714Y-162338571D01*
X120941428Y-162338571D01*
X121227142Y-160910000D01*
X122227142Y-165910000D02*
X119227142Y-165910000D01*
X126734285Y-100338571D02*
X126877142Y-100052857D01*
X126877142Y-99481428D01*
X126734285Y-99195714D01*
X126591428Y-99052857D01*
X126305714Y-98910000D01*
X125448571Y-98910000D01*
X125162857Y-99052857D01*
X125020000Y-99195714D01*
X124877142Y-99481428D01*
X124877142Y-100052857D01*
X125020000Y-100338571D01*
X126877142Y-102052857D02*
X126734285Y-101767142D01*
X126591428Y-101624285D01*
X126305714Y-101481428D01*
X125448571Y-101481428D01*
X125162857Y-101624285D01*
X125020000Y-101767142D01*
X124877142Y-102052857D01*
X124877142Y-102481428D01*
X125020000Y-102767142D01*
X125162857Y-102910000D01*
X125448571Y-103052857D01*
X126305714Y-103052857D01*
X126591428Y-102910000D01*
X126734285Y-102767142D01*
X126877142Y-102481428D01*
X126877142Y-102052857D01*
X124877142Y-104338571D02*
X126877142Y-104338571D01*
X125162857Y-104338571D02*
X125020000Y-104481428D01*
X124877142Y-104767142D01*
X124877142Y-105195714D01*
X125020000Y-105481428D01*
X125305714Y-105624285D01*
X126877142Y-105624285D01*
X124877142Y-106624285D02*
X124877142Y-107767142D01*
X123877142Y-107052857D02*
X126448571Y-107052857D01*
X126734285Y-107195714D01*
X126877142Y-107481428D01*
X126877142Y-107767142D01*
X126877142Y-108767142D02*
X124877142Y-108767142D01*
X123877142Y-108767142D02*
X124020000Y-108624285D01*
X124162857Y-108767142D01*
X124020000Y-108910000D01*
X123877142Y-108767142D01*
X124162857Y-108767142D01*
X124877142Y-110195714D02*
X126877142Y-110195714D01*
X125162857Y-110195714D02*
X125020000Y-110338571D01*
X124877142Y-110624285D01*
X124877142Y-111052857D01*
X125020000Y-111338571D01*
X125305714Y-111481428D01*
X126877142Y-111481428D01*
X124877142Y-114195714D02*
X126877142Y-114195714D01*
X124877142Y-112910000D02*
X126448571Y-112910000D01*
X126734285Y-113052857D01*
X126877142Y-113338571D01*
X126877142Y-113767142D01*
X126734285Y-114052857D01*
X126591428Y-114195714D01*
X126734285Y-116767142D02*
X126877142Y-116481428D01*
X126877142Y-115910000D01*
X126734285Y-115624285D01*
X126448571Y-115481428D01*
X125305714Y-115481428D01*
X125020000Y-115624285D01*
X124877142Y-115910000D01*
X124877142Y-116481428D01*
X125020000Y-116767142D01*
X125305714Y-116910000D01*
X125591428Y-116910000D01*
X125877142Y-115481428D01*
X124877142Y-120052857D02*
X124877142Y-121195714D01*
X126877142Y-120481428D02*
X124305714Y-120481428D01*
X124020000Y-120624285D01*
X123877142Y-120910000D01*
X123877142Y-121195714D01*
X126877142Y-122195714D02*
X124877142Y-122195714D01*
X125448571Y-122195714D02*
X125162857Y-122338571D01*
X125020000Y-122481428D01*
X124877142Y-122767142D01*
X124877142Y-123052857D01*
X126734285Y-125195714D02*
X126877142Y-124910000D01*
X126877142Y-124338571D01*
X126734285Y-124052857D01*
X126448571Y-123910000D01*
X125305714Y-123910000D01*
X125020000Y-124052857D01*
X124877142Y-124338571D01*
X124877142Y-124910000D01*
X125020000Y-125195714D01*
X125305714Y-125338571D01*
X125591428Y-125338571D01*
X125877142Y-123910000D01*
X126734285Y-127767142D02*
X126877142Y-127481428D01*
X126877142Y-126910000D01*
X126734285Y-126624285D01*
X126448571Y-126481428D01*
X125305714Y-126481428D01*
X125020000Y-126624285D01*
X124877142Y-126910000D01*
X124877142Y-127481428D01*
X125020000Y-127767142D01*
X125305714Y-127910000D01*
X125591428Y-127910000D01*
X125877142Y-126481428D01*
X124877142Y-131052857D02*
X124877142Y-132195714D01*
X126877142Y-131481428D02*
X124305714Y-131481428D01*
X124020000Y-131624285D01*
X123877142Y-131910000D01*
X123877142Y-132195714D01*
X126877142Y-133195714D02*
X124877142Y-133195714D01*
X125448571Y-133195714D02*
X125162857Y-133338571D01*
X125020000Y-133481428D01*
X124877142Y-133767142D01*
X124877142Y-134052857D01*
X126877142Y-135481428D02*
X126734285Y-135195714D01*
X126591428Y-135052857D01*
X126305714Y-134910000D01*
X125448571Y-134910000D01*
X125162857Y-135052857D01*
X125020000Y-135195714D01*
X124877142Y-135481428D01*
X124877142Y-135910000D01*
X125020000Y-136195714D01*
X125162857Y-136338571D01*
X125448571Y-136481428D01*
X126305714Y-136481428D01*
X126591428Y-136338571D01*
X126734285Y-136195714D01*
X126877142Y-135910000D01*
X126877142Y-135481428D01*
X126877142Y-137767142D02*
X124877142Y-137767142D01*
X125162857Y-137767142D02*
X125020000Y-137910000D01*
X124877142Y-138195714D01*
X124877142Y-138624285D01*
X125020000Y-138910000D01*
X125305714Y-139052857D01*
X126877142Y-139052857D01*
X125305714Y-139052857D02*
X125020000Y-139195714D01*
X124877142Y-139481428D01*
X124877142Y-139910000D01*
X125020000Y-140195714D01*
X125305714Y-140338571D01*
X126877142Y-140338571D01*
X124877142Y-144052857D02*
X127877142Y-144052857D01*
X125020000Y-144052857D02*
X124877142Y-144338571D01*
X124877142Y-144910000D01*
X125020000Y-145195714D01*
X125162857Y-145338571D01*
X125448571Y-145481428D01*
X126305714Y-145481428D01*
X126591428Y-145338571D01*
X126734285Y-145195714D01*
X126877142Y-144910000D01*
X126877142Y-144338571D01*
X126734285Y-144052857D01*
X126877142Y-148052857D02*
X125305714Y-148052857D01*
X125020000Y-147910000D01*
X124877142Y-147624285D01*
X124877142Y-147052857D01*
X125020000Y-146767142D01*
X126734285Y-148052857D02*
X126877142Y-147767142D01*
X126877142Y-147052857D01*
X126734285Y-146767142D01*
X126448571Y-146624285D01*
X126162857Y-146624285D01*
X125877142Y-146767142D01*
X125734285Y-147052857D01*
X125734285Y-147767142D01*
X125591428Y-148052857D01*
X126877142Y-149481428D02*
X124877142Y-149481428D01*
X123877142Y-149481428D02*
X124020000Y-149338571D01*
X124162857Y-149481428D01*
X124020000Y-149624285D01*
X123877142Y-149481428D01*
X124162857Y-149481428D01*
X124877142Y-150910000D02*
X126877142Y-150910000D01*
X125162857Y-150910000D02*
X125020000Y-151052857D01*
X124877142Y-151338571D01*
X124877142Y-151767142D01*
X125020000Y-152052857D01*
X125305714Y-152195714D01*
X126877142Y-152195714D01*
X126734285Y-153767142D02*
X126877142Y-153767142D01*
X127162857Y-153624285D01*
X127305714Y-153481428D01*
X124877142Y-157338571D02*
X126877142Y-157338571D01*
X125162857Y-157338571D02*
X125020000Y-157481428D01*
X124877142Y-157767142D01*
X124877142Y-158195714D01*
X125020000Y-158481428D01*
X125305714Y-158624285D01*
X126877142Y-158624285D01*
X126734285Y-161195714D02*
X126877142Y-160910000D01*
X126877142Y-160338571D01*
X126734285Y-160052857D01*
X126448571Y-159910000D01*
X125305714Y-159910000D01*
X125020000Y-160052857D01*
X124877142Y-160338571D01*
X124877142Y-160910000D01*
X125020000Y-161195714D01*
X125305714Y-161338571D01*
X125591428Y-161338571D01*
X125877142Y-159910000D01*
X126877142Y-162624285D02*
X124877142Y-162624285D01*
X123877142Y-162624285D02*
X124020000Y-162481428D01*
X124162857Y-162624285D01*
X124020000Y-162767142D01*
X123877142Y-162624285D01*
X124162857Y-162624285D01*
X124877142Y-163624285D02*
X124877142Y-164767142D01*
X123877142Y-164052857D02*
X126448571Y-164052857D01*
X126734285Y-164195714D01*
X126877142Y-164481428D01*
X126877142Y-164767142D01*
X126877142Y-165767142D02*
X123877142Y-165767142D01*
X126877142Y-167052857D02*
X125305714Y-167052857D01*
X125020000Y-166910000D01*
X124877142Y-166624285D01*
X124877142Y-166195714D01*
X125020000Y-165910000D01*
X125162857Y-165767142D01*
X126734285Y-169624285D02*
X126877142Y-169338571D01*
X126877142Y-168767142D01*
X126734285Y-168481428D01*
X126448571Y-168338571D01*
X125305714Y-168338571D01*
X125020000Y-168481428D01*
X124877142Y-168767142D01*
X124877142Y-169338571D01*
X125020000Y-169624285D01*
X125305714Y-169767142D01*
X125591428Y-169767142D01*
X125877142Y-168338571D01*
X126877142Y-171052857D02*
X124877142Y-171052857D01*
X125448571Y-171052857D02*
X125162857Y-171195714D01*
X125020000Y-171338571D01*
X124877142Y-171624285D01*
X124877142Y-171910000D01*
X131384285Y-105981428D02*
X131527142Y-105695714D01*
X131527142Y-105124285D01*
X131384285Y-104838571D01*
X131241428Y-104695714D01*
X130955714Y-104552857D01*
X130098571Y-104552857D01*
X129812857Y-104695714D01*
X129670000Y-104838571D01*
X129527142Y-105124285D01*
X129527142Y-105695714D01*
X129670000Y-105981428D01*
X131527142Y-107267142D02*
X129527142Y-107267142D01*
X130098571Y-107267142D02*
X129812857Y-107410000D01*
X129670000Y-107552857D01*
X129527142Y-107838571D01*
X129527142Y-108124285D01*
X129527142Y-110410000D02*
X131527142Y-110410000D01*
X129527142Y-109124285D02*
X131098571Y-109124285D01*
X131384285Y-109267142D01*
X131527142Y-109552857D01*
X131527142Y-109981428D01*
X131384285Y-110267142D01*
X131241428Y-110410000D01*
X131384285Y-111695714D02*
X131527142Y-111981428D01*
X131527142Y-112552857D01*
X131384285Y-112838571D01*
X131098571Y-112981428D01*
X130955714Y-112981428D01*
X130670000Y-112838571D01*
X130527142Y-112552857D01*
X130527142Y-112124285D01*
X130384285Y-111838571D01*
X130098571Y-111695714D01*
X129955714Y-111695714D01*
X129670000Y-111838571D01*
X129527142Y-112124285D01*
X129527142Y-112552857D01*
X129670000Y-112838571D01*
X131527142Y-114267142D02*
X128527142Y-114267142D01*
X131527142Y-115552857D02*
X129955714Y-115552857D01*
X129670000Y-115410000D01*
X129527142Y-115124285D01*
X129527142Y-114695714D01*
X129670000Y-114410000D01*
X129812857Y-114267142D01*
X131384285Y-118124285D02*
X131527142Y-117838571D01*
X131527142Y-117267142D01*
X131384285Y-116981428D01*
X131098571Y-116838571D01*
X129955714Y-116838571D01*
X129670000Y-116981428D01*
X129527142Y-117267142D01*
X129527142Y-117838571D01*
X129670000Y-118124285D01*
X129955714Y-118267142D01*
X130241428Y-118267142D01*
X130527142Y-116838571D01*
X131527142Y-120838571D02*
X128527142Y-120838571D01*
X131384285Y-120838571D02*
X131527142Y-120552857D01*
X131527142Y-119981428D01*
X131384285Y-119695714D01*
X131241428Y-119552857D01*
X130955714Y-119410000D01*
X130098571Y-119410000D01*
X129812857Y-119552857D01*
X129670000Y-119695714D01*
X129527142Y-119981428D01*
X129527142Y-120552857D01*
X129670000Y-120838571D01*
X131527142Y-124552857D02*
X128527142Y-124552857D01*
X129670000Y-124552857D02*
X129527142Y-124838571D01*
X129527142Y-125410000D01*
X129670000Y-125695714D01*
X129812857Y-125838571D01*
X130098571Y-125981428D01*
X130955714Y-125981428D01*
X131241428Y-125838571D01*
X131384285Y-125695714D01*
X131527142Y-125410000D01*
X131527142Y-124838571D01*
X131384285Y-124552857D01*
X129527142Y-126981428D02*
X131527142Y-127695714D01*
X129527142Y-128410000D02*
X131527142Y-127695714D01*
X132241428Y-127410000D01*
X132384285Y-127267142D01*
X132527142Y-126981428D01*
X129527142Y-131410000D02*
X129527142Y-132552857D01*
X128527142Y-131838571D02*
X131098571Y-131838571D01*
X131384285Y-131981428D01*
X131527142Y-132267142D01*
X131527142Y-132552857D01*
X131527142Y-133552857D02*
X128527142Y-133552857D01*
X131527142Y-134838571D02*
X129955714Y-134838571D01*
X129670000Y-134695714D01*
X129527142Y-134410000D01*
X129527142Y-133981428D01*
X129670000Y-133695714D01*
X129812857Y-133552857D01*
X131384285Y-137410000D02*
X131527142Y-137124285D01*
X131527142Y-136552857D01*
X131384285Y-136267142D01*
X131098571Y-136124285D01*
X129955714Y-136124285D01*
X129670000Y-136267142D01*
X129527142Y-136552857D01*
X129527142Y-137124285D01*
X129670000Y-137410000D01*
X129955714Y-137552857D01*
X130241428Y-137552857D01*
X130527142Y-136124285D01*
X129527142Y-141124285D02*
X132527142Y-141124285D01*
X129670000Y-141124285D02*
X129527142Y-141410000D01*
X129527142Y-141981428D01*
X129670000Y-142267142D01*
X129812857Y-142410000D01*
X130098571Y-142552857D01*
X130955714Y-142552857D01*
X131241428Y-142410000D01*
X131384285Y-142267142D01*
X131527142Y-141981428D01*
X131527142Y-141410000D01*
X131384285Y-141124285D01*
X131527142Y-143838571D02*
X129527142Y-143838571D01*
X130098571Y-143838571D02*
X129812857Y-143981428D01*
X129670000Y-144124285D01*
X129527142Y-144410000D01*
X129527142Y-144695714D01*
X131384285Y-146838571D02*
X131527142Y-146552857D01*
X131527142Y-145981428D01*
X131384285Y-145695714D01*
X131098571Y-145552857D01*
X129955714Y-145552857D01*
X129670000Y-145695714D01*
X129527142Y-145981428D01*
X129527142Y-146552857D01*
X129670000Y-146838571D01*
X129955714Y-146981428D01*
X130241428Y-146981428D01*
X130527142Y-145552857D01*
X131384285Y-148124285D02*
X131527142Y-148410000D01*
X131527142Y-148981428D01*
X131384285Y-149267142D01*
X131098571Y-149410000D01*
X130955714Y-149410000D01*
X130670000Y-149267142D01*
X130527142Y-148981428D01*
X130527142Y-148552857D01*
X130384285Y-148267142D01*
X130098571Y-148124285D01*
X129955714Y-148124285D01*
X129670000Y-148267142D01*
X129527142Y-148552857D01*
X129527142Y-148981428D01*
X129670000Y-149267142D01*
X131384285Y-151838571D02*
X131527142Y-151552857D01*
X131527142Y-150981428D01*
X131384285Y-150695714D01*
X131098571Y-150552857D01*
X129955714Y-150552857D01*
X129670000Y-150695714D01*
X129527142Y-150981428D01*
X129527142Y-151552857D01*
X129670000Y-151838571D01*
X129955714Y-151981428D01*
X130241428Y-151981428D01*
X130527142Y-150552857D01*
X129527142Y-153267142D02*
X131527142Y-153267142D01*
X129812857Y-153267142D02*
X129670000Y-153410000D01*
X129527142Y-153695714D01*
X129527142Y-154124285D01*
X129670000Y-154410000D01*
X129955714Y-154552857D01*
X131527142Y-154552857D01*
X129527142Y-155552857D02*
X129527142Y-156695714D01*
X128527142Y-155981428D02*
X131098571Y-155981428D01*
X131384285Y-156124285D01*
X131527142Y-156410000D01*
X131527142Y-156695714D01*
X129527142Y-159981428D02*
X131527142Y-159981428D01*
X129812857Y-159981428D02*
X129670000Y-160124285D01*
X129527142Y-160410000D01*
X129527142Y-160838571D01*
X129670000Y-161124285D01*
X129955714Y-161267142D01*
X131527142Y-161267142D01*
X131527142Y-163124285D02*
X131384285Y-162838571D01*
X131241428Y-162695714D01*
X130955714Y-162552857D01*
X130098571Y-162552857D01*
X129812857Y-162695714D01*
X129670000Y-162838571D01*
X129527142Y-163124285D01*
X129527142Y-163552857D01*
X129670000Y-163838571D01*
X129812857Y-163981428D01*
X130098571Y-164124285D01*
X130955714Y-164124285D01*
X131241428Y-163981428D01*
X131384285Y-163838571D01*
X131527142Y-163552857D01*
X131527142Y-163124285D01*
X131527142Y-165410000D02*
X129527142Y-165410000D01*
X130098571Y-165410000D02*
X129812857Y-165552857D01*
X129670000Y-165695714D01*
X129527142Y-165981428D01*
X129527142Y-166267142D01*
X134177142Y-115695714D02*
X134177142Y-116838571D01*
X136177142Y-116124285D02*
X133605714Y-116124285D01*
X133320000Y-116267142D01*
X133177142Y-116552857D01*
X133177142Y-116838571D01*
X136034285Y-118981428D02*
X136177142Y-118695714D01*
X136177142Y-118124285D01*
X136034285Y-117838571D01*
X135748571Y-117695714D01*
X134605714Y-117695714D01*
X134320000Y-117838571D01*
X134177142Y-118124285D01*
X134177142Y-118695714D01*
X134320000Y-118981428D01*
X134605714Y-119124285D01*
X134891428Y-119124285D01*
X135177142Y-117695714D01*
X136177142Y-121695714D02*
X134605714Y-121695714D01*
X134320000Y-121552857D01*
X134177142Y-121267142D01*
X134177142Y-120695714D01*
X134320000Y-120410000D01*
X136034285Y-121695714D02*
X136177142Y-121410000D01*
X136177142Y-120695714D01*
X136034285Y-120410000D01*
X135748571Y-120267142D01*
X135462857Y-120267142D01*
X135177142Y-120410000D01*
X135034285Y-120695714D01*
X135034285Y-121410000D01*
X134891428Y-121695714D01*
X136177142Y-123124285D02*
X134177142Y-123124285D01*
X134748571Y-123124285D02*
X134462857Y-123267142D01*
X134320000Y-123410000D01*
X134177142Y-123695714D01*
X134177142Y-123981428D01*
X136177142Y-124981428D02*
X134177142Y-124981428D01*
X133177142Y-124981428D02*
X133320000Y-124838571D01*
X133462857Y-124981428D01*
X133320000Y-125124285D01*
X133177142Y-124981428D01*
X133462857Y-124981428D01*
X134177142Y-126410000D02*
X136177142Y-126410000D01*
X134462857Y-126410000D02*
X134320000Y-126552857D01*
X134177142Y-126838571D01*
X134177142Y-127267142D01*
X134320000Y-127552857D01*
X134605714Y-127695714D01*
X136177142Y-127695714D01*
X134177142Y-130410000D02*
X136605714Y-130410000D01*
X136891428Y-130267142D01*
X137034285Y-130124285D01*
X137177142Y-129838571D01*
X137177142Y-129410000D01*
X137034285Y-129124285D01*
X136034285Y-130410000D02*
X136177142Y-130124285D01*
X136177142Y-129552857D01*
X136034285Y-129267142D01*
X135891428Y-129124285D01*
X135605714Y-128981428D01*
X134748571Y-128981428D01*
X134462857Y-129124285D01*
X134320000Y-129267142D01*
X134177142Y-129552857D01*
X134177142Y-130124285D01*
X134320000Y-130410000D01*
X134177142Y-133695714D02*
X134177142Y-134838571D01*
X133177142Y-134124285D02*
X135748571Y-134124285D01*
X136034285Y-134267142D01*
X136177142Y-134552857D01*
X136177142Y-134838571D01*
X136177142Y-135838571D02*
X133177142Y-135838571D01*
X136177142Y-137124285D02*
X134605714Y-137124285D01*
X134320000Y-136981428D01*
X134177142Y-136695714D01*
X134177142Y-136267142D01*
X134320000Y-135981428D01*
X134462857Y-135838571D01*
X136034285Y-139695714D02*
X136177142Y-139410000D01*
X136177142Y-138838571D01*
X136034285Y-138552857D01*
X135748571Y-138410000D01*
X134605714Y-138410000D01*
X134320000Y-138552857D01*
X134177142Y-138838571D01*
X134177142Y-139410000D01*
X134320000Y-139695714D01*
X134605714Y-139838571D01*
X134891428Y-139838571D01*
X135177142Y-138410000D01*
X134177142Y-142981428D02*
X134177142Y-144124285D01*
X136177142Y-143410000D02*
X133605714Y-143410000D01*
X133320000Y-143552857D01*
X133177142Y-143838571D01*
X133177142Y-144124285D01*
X134177142Y-146410000D02*
X136177142Y-146410000D01*
X134177142Y-145124285D02*
X135748571Y-145124285D01*
X136034285Y-145267142D01*
X136177142Y-145552857D01*
X136177142Y-145981428D01*
X136034285Y-146267142D01*
X135891428Y-146410000D01*
X134177142Y-147410000D02*
X134177142Y-148552857D01*
X133177142Y-147838571D02*
X135748571Y-147838571D01*
X136034285Y-147981428D01*
X136177142Y-148267142D01*
X136177142Y-148552857D01*
X134177142Y-150838571D02*
X136177142Y-150838571D01*
X134177142Y-149552857D02*
X135748571Y-149552857D01*
X136034285Y-149695714D01*
X136177142Y-149981428D01*
X136177142Y-150410000D01*
X136034285Y-150695714D01*
X135891428Y-150838571D01*
X136177142Y-152267142D02*
X134177142Y-152267142D01*
X134748571Y-152267142D02*
X134462857Y-152410000D01*
X134320000Y-152552857D01*
X134177142Y-152838571D01*
X134177142Y-153124285D01*
X136034285Y-155267142D02*
X136177142Y-154981428D01*
X136177142Y-154410000D01*
X136034285Y-154124285D01*
X135748571Y-153981428D01*
X134605714Y-153981428D01*
X134320000Y-154124285D01*
X134177142Y-154410000D01*
X134177142Y-154981428D01*
X134320000Y-155267142D01*
X134605714Y-155410000D01*
X134891428Y-155410000D01*
X135177142Y-153981428D01*
X135891428Y-156695714D02*
X136034285Y-156838571D01*
X136177142Y-156695714D01*
X136034285Y-156552857D01*
X135891428Y-156695714D01*
X136177142Y-156695714D01*
D11*
X46240000Y-167565000D02*
X46240000Y-164490000D01*
X46240000Y-164490000D02*
X59110000Y-164490000D01*
X59110000Y-164490000D02*
X59110000Y-167565000D01*
X47680000Y-169080000D02*
X47660000Y-169080000D01*
X47660000Y-169080000D02*
X47660000Y-168580000D01*
X47660000Y-168580000D02*
X57690000Y-168580000D01*
X57690000Y-168580000D02*
X57690000Y-169080000D01*
X57690000Y-169080000D02*
X57670000Y-169080000D01*
X43800000Y-21350000D02*
X23500000Y-21350000D01*
X23490000Y-21350000D02*
X23490000Y-53150000D01*
X43800000Y-53150000D02*
X23500000Y-53150000D01*
X43800000Y-21350000D02*
X43800000Y-53150000D01*
X65625000Y-21350000D02*
X45325000Y-21350000D01*
X45315000Y-21350000D02*
X45315000Y-53150000D01*
X65625000Y-53150000D02*
X45325000Y-53150000D01*
X65625000Y-21350000D02*
X65625000Y-53150000D01*
X62825000Y-134000000D02*
X42525000Y-134000000D01*
X42515000Y-134000000D02*
X42515000Y-165800000D01*
X62825000Y-165800000D02*
X42525000Y-165800000D01*
X62825000Y-134000000D02*
X62825000Y-165800000D01*
X42075000Y-134000000D02*
X21775000Y-134000000D01*
X21765000Y-134000000D02*
X21765000Y-165800000D01*
X42075000Y-165800000D02*
X21775000Y-165800000D01*
X42075000Y-134000000D02*
X42075000Y-165800000D01*
X55505000Y-55155000D02*
X55505000Y-53825000D01*
X54175000Y-55155000D02*
X55505000Y-55155000D01*
X52905000Y-55155000D02*
X52905000Y-52495000D01*
X52905000Y-52495000D02*
X42685000Y-52495000D01*
X52905000Y-55155000D02*
X42685000Y-55155000D01*
X42685000Y-55155000D02*
X42685000Y-52495000D01*
X56370000Y-131470000D02*
X56370000Y-137440000D01*
X56370000Y-137440000D02*
X48750000Y-137440000D01*
X48750000Y-137440000D02*
X48750000Y-131470000D01*
X48750000Y-131470000D02*
X56370000Y-131470000D01*
X53060000Y-131480000D02*
X53060000Y-132230000D01*
X53060000Y-132230000D02*
X52060000Y-132230000D01*
X52060000Y-132230000D02*
X52060000Y-131480000D01*
X52060000Y-131480000D02*
X53060000Y-131480000D01*
X56360000Y-131480000D02*
X56360000Y-132230000D01*
X56360000Y-132230000D02*
X54560000Y-132230000D01*
X54560000Y-132230000D02*
X54560000Y-131480000D01*
X54560000Y-131480000D02*
X56360000Y-131480000D01*
X50560000Y-131480000D02*
X50560000Y-132230000D01*
X50560000Y-132230000D02*
X48760000Y-132230000D01*
X48760000Y-132230000D02*
X48760000Y-131480000D01*
X48760000Y-131480000D02*
X50560000Y-131480000D01*
X56360000Y-133730000D02*
X55610000Y-133730000D01*
X55610000Y-133730000D02*
X55610000Y-135070000D01*
X52560000Y-136680000D02*
X54550000Y-136680000D01*
X48760000Y-133730000D02*
X49510000Y-133730000D01*
X49510000Y-133730000D02*
X49510000Y-136680000D01*
X49510000Y-136680000D02*
X52560000Y-136680000D01*
X55410000Y-131180000D02*
X56660000Y-131180000D01*
X56660000Y-131180000D02*
X56660000Y-132430000D01*
X38640000Y-14160000D02*
X38640000Y-20130000D01*
X38640000Y-20130000D02*
X31020000Y-20130000D01*
X31020000Y-20130000D02*
X31020000Y-14160000D01*
X31020000Y-14160000D02*
X38640000Y-14160000D01*
X35330000Y-14170000D02*
X35330000Y-14920000D01*
X35330000Y-14920000D02*
X34330000Y-14920000D01*
X34330000Y-14920000D02*
X34330000Y-14170000D01*
X34330000Y-14170000D02*
X35330000Y-14170000D01*
X38630000Y-14170000D02*
X38630000Y-14920000D01*
X38630000Y-14920000D02*
X36830000Y-14920000D01*
X36830000Y-14920000D02*
X36830000Y-14170000D01*
X36830000Y-14170000D02*
X38630000Y-14170000D01*
X32830000Y-14170000D02*
X32830000Y-14920000D01*
X32830000Y-14920000D02*
X31030000Y-14920000D01*
X31030000Y-14920000D02*
X31030000Y-14170000D01*
X31030000Y-14170000D02*
X32830000Y-14170000D01*
X38630000Y-16420000D02*
X37880000Y-16420000D01*
X37880000Y-16420000D02*
X37880000Y-17760000D01*
X34830000Y-19370000D02*
X36820000Y-19370000D01*
X31030000Y-16420000D02*
X31780000Y-16420000D01*
X31780000Y-16420000D02*
X31780000Y-19370000D01*
X31780000Y-19370000D02*
X34830000Y-19370000D01*
X37680000Y-13870000D02*
X38930000Y-13870000D01*
X38930000Y-13870000D02*
X38930000Y-15120000D01*
X60740000Y-14320000D02*
X60740000Y-15570000D01*
X59490000Y-14320000D02*
X60740000Y-14320000D01*
X53590000Y-19820000D02*
X56640000Y-19820000D01*
X53590000Y-16870000D02*
X53590000Y-19820000D01*
X52840000Y-16870000D02*
X53590000Y-16870000D01*
X56640000Y-19820000D02*
X58630000Y-19820000D01*
X59690000Y-16870000D02*
X59690000Y-18210000D01*
X60440000Y-16870000D02*
X59690000Y-16870000D01*
X52840000Y-14620000D02*
X54640000Y-14620000D01*
X52840000Y-15370000D02*
X52840000Y-14620000D01*
X54640000Y-15370000D02*
X52840000Y-15370000D01*
X54640000Y-14620000D02*
X54640000Y-15370000D01*
X58640000Y-14620000D02*
X60440000Y-14620000D01*
X58640000Y-15370000D02*
X58640000Y-14620000D01*
X60440000Y-15370000D02*
X58640000Y-15370000D01*
X60440000Y-14620000D02*
X60440000Y-15370000D01*
X56140000Y-14620000D02*
X57140000Y-14620000D01*
X56140000Y-15370000D02*
X56140000Y-14620000D01*
X57140000Y-15370000D02*
X56140000Y-15370000D01*
X57140000Y-14620000D02*
X57140000Y-15370000D01*
X52830000Y-14610000D02*
X60450000Y-14610000D01*
X52830000Y-20580000D02*
X52830000Y-14610000D01*
X60450000Y-20580000D02*
X52830000Y-20580000D01*
X60450000Y-14610000D02*
X60450000Y-20580000D01*
X35580000Y-131320000D02*
X35580000Y-137290000D01*
X35580000Y-137290000D02*
X27960000Y-137290000D01*
X27960000Y-137290000D02*
X27960000Y-131320000D01*
X27960000Y-131320000D02*
X35580000Y-131320000D01*
X32270000Y-131330000D02*
X32270000Y-132080000D01*
X32270000Y-132080000D02*
X31270000Y-132080000D01*
X31270000Y-132080000D02*
X31270000Y-131330000D01*
X31270000Y-131330000D02*
X32270000Y-131330000D01*
X35570000Y-131330000D02*
X35570000Y-132080000D01*
X35570000Y-132080000D02*
X33770000Y-132080000D01*
X33770000Y-132080000D02*
X33770000Y-131330000D01*
X33770000Y-131330000D02*
X35570000Y-131330000D01*
X29770000Y-131330000D02*
X29770000Y-132080000D01*
X29770000Y-132080000D02*
X27970000Y-132080000D01*
X27970000Y-132080000D02*
X27970000Y-131330000D01*
X27970000Y-131330000D02*
X29770000Y-131330000D01*
X35570000Y-133580000D02*
X34820000Y-133580000D01*
X34820000Y-133580000D02*
X34820000Y-134920000D01*
X31770000Y-136530000D02*
X33760000Y-136530000D01*
X27970000Y-133580000D02*
X28720000Y-133580000D01*
X28720000Y-133580000D02*
X28720000Y-136530000D01*
X28720000Y-136530000D02*
X31770000Y-136530000D01*
X34620000Y-131030000D02*
X35870000Y-131030000D01*
X35870000Y-131030000D02*
X35870000Y-132280000D01*
X40835000Y-17745000D02*
X40855000Y-17745000D01*
X40835000Y-18245000D02*
X40835000Y-17745000D01*
X50865000Y-18245000D02*
X40835000Y-18245000D01*
X50865000Y-17745000D02*
X50865000Y-18245000D01*
X50845000Y-17745000D02*
X50865000Y-17745000D01*
X39415000Y-22335000D02*
X39415000Y-19260000D01*
X52285000Y-22335000D02*
X39415000Y-22335000D01*
X52285000Y-19260000D02*
X52285000Y-22335000D01*
X36890000Y-169080000D02*
X36870000Y-169080000D01*
X36890000Y-168580000D02*
X36890000Y-169080000D01*
X26860000Y-168580000D02*
X36890000Y-168580000D01*
X26860000Y-169080000D02*
X26860000Y-168580000D01*
X26880000Y-169080000D02*
X26860000Y-169080000D01*
X38310000Y-164490000D02*
X38310000Y-167565000D01*
X25440000Y-164490000D02*
X38310000Y-164490000D01*
X25440000Y-167565000D02*
X25440000Y-164490000D01*
X70185000Y-163685000D02*
X64215000Y-163685000D01*
X64215000Y-163685000D02*
X64215000Y-156065000D01*
X64215000Y-156065000D02*
X70185000Y-156065000D01*
X70185000Y-156065000D02*
X70185000Y-163685000D01*
X70175000Y-160375000D02*
X69425000Y-160375000D01*
X69425000Y-160375000D02*
X69425000Y-159375000D01*
X69425000Y-159375000D02*
X70175000Y-159375000D01*
X70175000Y-159375000D02*
X70175000Y-160375000D01*
X70175000Y-163675000D02*
X69425000Y-163675000D01*
X69425000Y-163675000D02*
X69425000Y-161875000D01*
X69425000Y-161875000D02*
X70175000Y-161875000D01*
X70175000Y-161875000D02*
X70175000Y-163675000D01*
X70175000Y-157875000D02*
X69425000Y-157875000D01*
X69425000Y-157875000D02*
X69425000Y-156075000D01*
X69425000Y-156075000D02*
X70175000Y-156075000D01*
X70175000Y-156075000D02*
X70175000Y-157875000D01*
X67925000Y-163675000D02*
X67925000Y-162925000D01*
X67925000Y-162925000D02*
X66585000Y-162925000D01*
X64975000Y-159875000D02*
X64975000Y-161865000D01*
X67925000Y-156075000D02*
X67925000Y-156825000D01*
X67925000Y-156825000D02*
X64975000Y-156825000D01*
X64975000Y-156825000D02*
X64975000Y-159875000D01*
X70475000Y-162725000D02*
X70475000Y-163975000D01*
X70475000Y-163975000D02*
X69225000Y-163975000D01*
X70400000Y-132200000D02*
X69150000Y-132200000D01*
X70400000Y-130950000D02*
X70400000Y-132200000D01*
X64900000Y-125050000D02*
X64900000Y-128100000D01*
X67850000Y-125050000D02*
X64900000Y-125050000D01*
X67850000Y-124300000D02*
X67850000Y-125050000D01*
X64900000Y-128100000D02*
X64900000Y-130090000D01*
X67850000Y-131150000D02*
X66510000Y-131150000D01*
X67850000Y-131900000D02*
X67850000Y-131150000D01*
X70100000Y-124300000D02*
X70100000Y-126100000D01*
X69350000Y-124300000D02*
X70100000Y-124300000D01*
X69350000Y-126100000D02*
X69350000Y-124300000D01*
X70100000Y-126100000D02*
X69350000Y-126100000D01*
X70100000Y-130100000D02*
X70100000Y-131900000D01*
X69350000Y-130100000D02*
X70100000Y-130100000D01*
X69350000Y-131900000D02*
X69350000Y-130100000D01*
X70100000Y-131900000D02*
X69350000Y-131900000D01*
X70100000Y-127600000D02*
X70100000Y-128600000D01*
X69350000Y-127600000D02*
X70100000Y-127600000D01*
X69350000Y-128600000D02*
X69350000Y-127600000D01*
X70100000Y-128600000D02*
X69350000Y-128600000D01*
X70110000Y-124290000D02*
X70110000Y-131910000D01*
X64140000Y-124290000D02*
X70110000Y-124290000D01*
X64140000Y-131910000D02*
X64140000Y-124290000D01*
X70110000Y-131910000D02*
X64140000Y-131910000D01*
X46085000Y-117615000D02*
X46085000Y-123585000D01*
X46085000Y-123585000D02*
X38465000Y-123585000D01*
X38465000Y-123585000D02*
X38465000Y-117615000D01*
X38465000Y-117615000D02*
X46085000Y-117615000D01*
X42775000Y-117625000D02*
X42775000Y-118375000D01*
X42775000Y-118375000D02*
X41775000Y-118375000D01*
X41775000Y-118375000D02*
X41775000Y-117625000D01*
X41775000Y-117625000D02*
X42775000Y-117625000D01*
X46075000Y-117625000D02*
X46075000Y-118375000D01*
X46075000Y-118375000D02*
X44275000Y-118375000D01*
X44275000Y-118375000D02*
X44275000Y-117625000D01*
X44275000Y-117625000D02*
X46075000Y-117625000D01*
X40275000Y-117625000D02*
X40275000Y-118375000D01*
X40275000Y-118375000D02*
X38475000Y-118375000D01*
X38475000Y-118375000D02*
X38475000Y-117625000D01*
X38475000Y-117625000D02*
X40275000Y-117625000D01*
X46075000Y-119875000D02*
X45325000Y-119875000D01*
X45325000Y-119875000D02*
X45325000Y-121215000D01*
X42275000Y-122825000D02*
X44265000Y-122825000D01*
X38475000Y-119875000D02*
X39225000Y-119875000D01*
X39225000Y-119875000D02*
X39225000Y-122825000D01*
X39225000Y-122825000D02*
X42275000Y-122825000D01*
X45125000Y-117325000D02*
X46375000Y-117325000D01*
X46375000Y-117325000D02*
X46375000Y-118575000D01*
D10*
X53436904Y-169622380D02*
X53436904Y-170431904D01*
X53389285Y-170527142D01*
X53341666Y-170574761D01*
X53246428Y-170622380D01*
X53055952Y-170622380D01*
X52960714Y-170574761D01*
X52913095Y-170527142D01*
X52865476Y-170431904D01*
X52865476Y-169622380D01*
X52436904Y-169717619D02*
X52389285Y-169670000D01*
X52294047Y-169622380D01*
X52055952Y-169622380D01*
X51960714Y-169670000D01*
X51913095Y-169717619D01*
X51865476Y-169812857D01*
X51865476Y-169908095D01*
X51913095Y-170050952D01*
X52484523Y-170622380D01*
X51865476Y-170622380D01*
X34411904Y-31727380D02*
X34411904Y-32536904D01*
X34364285Y-32632142D01*
X34316666Y-32679761D01*
X34221428Y-32727380D01*
X34030952Y-32727380D01*
X33935714Y-32679761D01*
X33888095Y-32632142D01*
X33840476Y-32536904D01*
X33840476Y-31727380D01*
X33221428Y-32155952D02*
X33316666Y-32108333D01*
X33364285Y-32060714D01*
X33411904Y-31965476D01*
X33411904Y-31917857D01*
X33364285Y-31822619D01*
X33316666Y-31775000D01*
X33221428Y-31727380D01*
X33030952Y-31727380D01*
X32935714Y-31775000D01*
X32888095Y-31822619D01*
X32840476Y-31917857D01*
X32840476Y-31965476D01*
X32888095Y-32060714D01*
X32935714Y-32108333D01*
X33030952Y-32155952D01*
X33221428Y-32155952D01*
X33316666Y-32203571D01*
X33364285Y-32251190D01*
X33411904Y-32346428D01*
X33411904Y-32536904D01*
X33364285Y-32632142D01*
X33316666Y-32679761D01*
X33221428Y-32727380D01*
X33030952Y-32727380D01*
X32935714Y-32679761D01*
X32888095Y-32632142D01*
X32840476Y-32536904D01*
X32840476Y-32346428D01*
X32888095Y-32251190D01*
X32935714Y-32203571D01*
X33030952Y-32155952D01*
X56688095Y-33227380D02*
X56688095Y-34036904D01*
X56640476Y-34132142D01*
X56592857Y-34179761D01*
X56497619Y-34227380D01*
X56307142Y-34227380D01*
X56211904Y-34179761D01*
X56164285Y-34132142D01*
X56116666Y-34036904D01*
X56116666Y-33227380D01*
X55116666Y-34227380D02*
X55688095Y-34227380D01*
X55402380Y-34227380D02*
X55402380Y-33227380D01*
X55497619Y-33370238D01*
X55592857Y-33465476D01*
X55688095Y-33513095D01*
X54640476Y-34227380D02*
X54450000Y-34227380D01*
X54354761Y-34179761D01*
X54307142Y-34132142D01*
X54211904Y-33989285D01*
X54164285Y-33798809D01*
X54164285Y-33417857D01*
X54211904Y-33322619D01*
X54259523Y-33275000D01*
X54354761Y-33227380D01*
X54545238Y-33227380D01*
X54640476Y-33275000D01*
X54688095Y-33322619D01*
X54735714Y-33417857D01*
X54735714Y-33655952D01*
X54688095Y-33751190D01*
X54640476Y-33798809D01*
X54545238Y-33846428D01*
X54354761Y-33846428D01*
X54259523Y-33798809D01*
X54211904Y-33751190D01*
X54164285Y-33655952D01*
X53411904Y-145877380D02*
X53411904Y-146686904D01*
X53364285Y-146782142D01*
X53316666Y-146829761D01*
X53221428Y-146877380D01*
X53030952Y-146877380D01*
X52935714Y-146829761D01*
X52888095Y-146782142D01*
X52840476Y-146686904D01*
X52840476Y-145877380D01*
X52316666Y-146877380D02*
X52126190Y-146877380D01*
X52030952Y-146829761D01*
X51983333Y-146782142D01*
X51888095Y-146639285D01*
X51840476Y-146448809D01*
X51840476Y-146067857D01*
X51888095Y-145972619D01*
X51935714Y-145925000D01*
X52030952Y-145877380D01*
X52221428Y-145877380D01*
X52316666Y-145925000D01*
X52364285Y-145972619D01*
X52411904Y-146067857D01*
X52411904Y-146305952D01*
X52364285Y-146401190D01*
X52316666Y-146448809D01*
X52221428Y-146496428D01*
X52030952Y-146496428D01*
X51935714Y-146448809D01*
X51888095Y-146401190D01*
X51840476Y-146305952D01*
X33138095Y-145877380D02*
X33138095Y-146686904D01*
X33090476Y-146782142D01*
X33042857Y-146829761D01*
X32947619Y-146877380D01*
X32757142Y-146877380D01*
X32661904Y-146829761D01*
X32614285Y-146782142D01*
X32566666Y-146686904D01*
X32566666Y-145877380D01*
X32138095Y-145972619D02*
X32090476Y-145925000D01*
X31995238Y-145877380D01*
X31757142Y-145877380D01*
X31661904Y-145925000D01*
X31614285Y-145972619D01*
X31566666Y-146067857D01*
X31566666Y-146163095D01*
X31614285Y-146305952D01*
X32185714Y-146877380D01*
X31566666Y-146877380D01*
X30995238Y-146305952D02*
X31090476Y-146258333D01*
X31138095Y-146210714D01*
X31185714Y-146115476D01*
X31185714Y-146067857D01*
X31138095Y-145972619D01*
X31090476Y-145925000D01*
X30995238Y-145877380D01*
X30804761Y-145877380D01*
X30709523Y-145925000D01*
X30661904Y-145972619D01*
X30614285Y-146067857D01*
X30614285Y-146115476D01*
X30661904Y-146210714D01*
X30709523Y-146258333D01*
X30804761Y-146305952D01*
X30995238Y-146305952D01*
X31090476Y-146353571D01*
X31138095Y-146401190D01*
X31185714Y-146496428D01*
X31185714Y-146686904D01*
X31138095Y-146782142D01*
X31090476Y-146829761D01*
X30995238Y-146877380D01*
X30804761Y-146877380D01*
X30709523Y-146829761D01*
X30661904Y-146782142D01*
X30614285Y-146686904D01*
X30614285Y-146496428D01*
X30661904Y-146401190D01*
X30709523Y-146353571D01*
X30804761Y-146305952D01*
X55957380Y-53491666D02*
X56671666Y-53491666D01*
X56814523Y-53444047D01*
X56909761Y-53348809D01*
X56957380Y-53205952D01*
X56957380Y-53110714D01*
X56052619Y-53920238D02*
X56005000Y-53967857D01*
X55957380Y-54063095D01*
X55957380Y-54301190D01*
X56005000Y-54396428D01*
X56052619Y-54444047D01*
X56147857Y-54491666D01*
X56243095Y-54491666D01*
X56385952Y-54444047D01*
X56957380Y-53872619D01*
X56957380Y-54491666D01*
X53321904Y-129832380D02*
X53321904Y-130641904D01*
X53274285Y-130737142D01*
X53226666Y-130784761D01*
X53131428Y-130832380D01*
X52940952Y-130832380D01*
X52845714Y-130784761D01*
X52798095Y-130737142D01*
X52750476Y-130641904D01*
X52750476Y-129832380D01*
X51845714Y-129832380D02*
X52036190Y-129832380D01*
X52131428Y-129880000D01*
X52179047Y-129927619D01*
X52274285Y-130070476D01*
X52321904Y-130260952D01*
X52321904Y-130641904D01*
X52274285Y-130737142D01*
X52226666Y-130784761D01*
X52131428Y-130832380D01*
X51940952Y-130832380D01*
X51845714Y-130784761D01*
X51798095Y-130737142D01*
X51750476Y-130641904D01*
X51750476Y-130403809D01*
X51798095Y-130308571D01*
X51845714Y-130260952D01*
X51940952Y-130213333D01*
X52131428Y-130213333D01*
X52226666Y-130260952D01*
X52274285Y-130308571D01*
X52321904Y-130403809D01*
X35591904Y-12522380D02*
X35591904Y-13331904D01*
X35544285Y-13427142D01*
X35496666Y-13474761D01*
X35401428Y-13522380D01*
X35210952Y-13522380D01*
X35115714Y-13474761D01*
X35068095Y-13427142D01*
X35020476Y-13331904D01*
X35020476Y-12522380D01*
X34639523Y-12522380D02*
X33972857Y-12522380D01*
X34401428Y-13522380D01*
X57878095Y-12972380D02*
X57878095Y-13781904D01*
X57830476Y-13877142D01*
X57782857Y-13924761D01*
X57687619Y-13972380D01*
X57497142Y-13972380D01*
X57401904Y-13924761D01*
X57354285Y-13877142D01*
X57306666Y-13781904D01*
X57306666Y-12972380D01*
X56306666Y-13972380D02*
X56878095Y-13972380D01*
X56592380Y-13972380D02*
X56592380Y-12972380D01*
X56687619Y-13115238D01*
X56782857Y-13210476D01*
X56878095Y-13258095D01*
X55449523Y-12972380D02*
X55640000Y-12972380D01*
X55735238Y-13020000D01*
X55782857Y-13067619D01*
X55878095Y-13210476D01*
X55925714Y-13400952D01*
X55925714Y-13781904D01*
X55878095Y-13877142D01*
X55830476Y-13924761D01*
X55735238Y-13972380D01*
X55544761Y-13972380D01*
X55449523Y-13924761D01*
X55401904Y-13877142D01*
X55354285Y-13781904D01*
X55354285Y-13543809D01*
X55401904Y-13448571D01*
X55449523Y-13400952D01*
X55544761Y-13353333D01*
X55735238Y-13353333D01*
X55830476Y-13400952D01*
X55878095Y-13448571D01*
X55925714Y-13543809D01*
X33008095Y-129682380D02*
X33008095Y-130491904D01*
X32960476Y-130587142D01*
X32912857Y-130634761D01*
X32817619Y-130682380D01*
X32627142Y-130682380D01*
X32531904Y-130634761D01*
X32484285Y-130587142D01*
X32436666Y-130491904D01*
X32436666Y-129682380D01*
X32008095Y-129777619D02*
X31960476Y-129730000D01*
X31865238Y-129682380D01*
X31627142Y-129682380D01*
X31531904Y-129730000D01*
X31484285Y-129777619D01*
X31436666Y-129872857D01*
X31436666Y-129968095D01*
X31484285Y-130110952D01*
X32055714Y-130682380D01*
X31436666Y-130682380D01*
X30531904Y-129682380D02*
X31008095Y-129682380D01*
X31055714Y-130158571D01*
X31008095Y-130110952D01*
X30912857Y-130063333D01*
X30674761Y-130063333D01*
X30579523Y-130110952D01*
X30531904Y-130158571D01*
X30484285Y-130253809D01*
X30484285Y-130491904D01*
X30531904Y-130587142D01*
X30579523Y-130634761D01*
X30674761Y-130682380D01*
X30912857Y-130682380D01*
X31008095Y-130634761D01*
X31055714Y-130587142D01*
X47088095Y-16107380D02*
X47088095Y-16916904D01*
X47040476Y-17012142D01*
X46992857Y-17059761D01*
X46897619Y-17107380D01*
X46707142Y-17107380D01*
X46611904Y-17059761D01*
X46564285Y-17012142D01*
X46516666Y-16916904D01*
X46516666Y-16107380D01*
X45516666Y-17107380D02*
X46088095Y-17107380D01*
X45802380Y-17107380D02*
X45802380Y-16107380D01*
X45897619Y-16250238D01*
X45992857Y-16345476D01*
X46088095Y-16393095D01*
X44659523Y-16440714D02*
X44659523Y-17107380D01*
X44897619Y-16059761D02*
X45135714Y-16774047D01*
X44516666Y-16774047D01*
X33113095Y-169622380D02*
X33113095Y-170431904D01*
X33065476Y-170527142D01*
X33017857Y-170574761D01*
X32922619Y-170622380D01*
X32732142Y-170622380D01*
X32636904Y-170574761D01*
X32589285Y-170527142D01*
X32541666Y-170431904D01*
X32541666Y-169622380D01*
X32113095Y-169717619D02*
X32065476Y-169670000D01*
X31970238Y-169622380D01*
X31732142Y-169622380D01*
X31636904Y-169670000D01*
X31589285Y-169717619D01*
X31541666Y-169812857D01*
X31541666Y-169908095D01*
X31589285Y-170050952D01*
X32160714Y-170622380D01*
X31541666Y-170622380D01*
X30589285Y-170622380D02*
X31160714Y-170622380D01*
X30875000Y-170622380D02*
X30875000Y-169622380D01*
X30970238Y-169765238D01*
X31065476Y-169860476D01*
X31160714Y-169908095D01*
X71822619Y-160636904D02*
X71013095Y-160636904D01*
X70917857Y-160589285D01*
X70870238Y-160541666D01*
X70822619Y-160446428D01*
X70822619Y-160255952D01*
X70870238Y-160160714D01*
X70917857Y-160113095D01*
X71013095Y-160065476D01*
X71822619Y-160065476D01*
X71489285Y-159160714D02*
X70822619Y-159160714D01*
X71870238Y-159398809D02*
X71155952Y-159636904D01*
X71155952Y-159017857D01*
X71747619Y-129338095D02*
X70938095Y-129338095D01*
X70842857Y-129290476D01*
X70795238Y-129242857D01*
X70747619Y-129147619D01*
X70747619Y-128957142D01*
X70795238Y-128861904D01*
X70842857Y-128814285D01*
X70938095Y-128766666D01*
X71747619Y-128766666D01*
X71414285Y-127861904D02*
X70747619Y-127861904D01*
X71795238Y-128100000D02*
X71080952Y-128338095D01*
X71080952Y-127719047D01*
X71747619Y-127433333D02*
X71747619Y-126814285D01*
X71366666Y-127147619D01*
X71366666Y-127004761D01*
X71319047Y-126909523D01*
X71271428Y-126861904D01*
X71176190Y-126814285D01*
X70938095Y-126814285D01*
X70842857Y-126861904D01*
X70795238Y-126909523D01*
X70747619Y-127004761D01*
X70747619Y-127290476D01*
X70795238Y-127385714D01*
X70842857Y-127433333D01*
X43513095Y-115977380D02*
X43513095Y-116786904D01*
X43465476Y-116882142D01*
X43417857Y-116929761D01*
X43322619Y-116977380D01*
X43132142Y-116977380D01*
X43036904Y-116929761D01*
X42989285Y-116882142D01*
X42941666Y-116786904D01*
X42941666Y-115977380D01*
X42036904Y-116310714D02*
X42036904Y-116977380D01*
X42275000Y-115929761D02*
X42513095Y-116644047D01*
X41894047Y-116644047D01*
X41608333Y-115977380D02*
X40941666Y-115977380D01*
X41370238Y-116977380D01*
M02*
