G04 #@! TF.GenerationSoftware,KiCad,Pcbnew,5.1.5+dfsg1-2build2*
G04 #@! TF.CreationDate,2021-01-06T19:09:04+01:00*
G04 #@! TF.ProjectId,ariadne-v3-backup,61726961-646e-4652-9d76-332d6261636b,rev?*
G04 #@! TF.SameCoordinates,Original*
G04 #@! TF.FileFunction,Profile,NP*
%FSLAX46Y46*%
G04 Gerber Fmt 4.6, Leading zero omitted, Abs format (unit mm)*
G04 Created by KiCad (PCBNEW 5.1.5+dfsg1-2build2) date 2021-01-06 19:09:04*
%MOMM*%
%LPD*%
G04 APERTURE LIST*
%ADD10C,0.100000*%
G04 APERTURE END LIST*
D10*
X93300000Y-125575000D02*
X71800000Y-125575000D01*
X61800000Y-94075000D02*
X93300000Y-94075000D01*
X93300000Y-94075000D02*
X93300000Y-125575000D01*
X93425000Y-93500000D02*
X61925000Y-93500000D01*
X93425000Y-62000000D02*
X71900000Y-62000000D01*
X93425000Y-62000000D02*
X93425000Y-93500000D01*
X93400000Y9525000D02*
X93400000Y-21975000D01*
X61900000Y9525000D02*
X93400000Y9525000D01*
X93400000Y-21975000D02*
X71900000Y-21975000D01*
X145660000Y-177610000D02*
X95040000Y-177610000D01*
X145660000Y-94810000D02*
X145660000Y-177610000D01*
X95040000Y-94810000D02*
X145660000Y-94810000D01*
X95040000Y-177610000D02*
X95040000Y-94810000D01*
X11700000Y-125600000D02*
X11700000Y-165600000D01*
X21675000Y-175600000D02*
X61825000Y-175600000D01*
X71800000Y-165600000D02*
X71800000Y-125575000D01*
X21700000Y-115600000D02*
X61800000Y-115600000D01*
X-9800000Y-125600000D02*
X11700000Y-125600000D01*
X-9800000Y-125600000D02*
X-9800000Y-94100000D01*
X-9800000Y-94100000D02*
X21700000Y-94100000D01*
X61800000Y-94075000D02*
X61800000Y-115600000D01*
X93325000Y-165600000D02*
X93325000Y-197100000D01*
X93325000Y-165600000D02*
X71800000Y-165600000D01*
X61825000Y-197100000D02*
X61825000Y-175600000D01*
X93325000Y-197100000D02*
X61825000Y-197100000D01*
X-9825000Y-197100000D02*
X-9825000Y-165600000D01*
X21675000Y-197100000D02*
X-9825000Y-197100000D01*
X21675000Y-197100000D02*
X21675000Y-175600000D01*
X7591666Y-109800000D02*
G75*
G03X7591666Y-109800000I-1666666J0D01*
G01*
X3425000Y-109800000D02*
X8425000Y-109800000D01*
X5925000Y-107300000D02*
X5925000Y-112300000D01*
X21700000Y-94100000D02*
X21700000Y-115600000D01*
X11700000Y-165600000D02*
X-9825000Y-165600000D01*
X11800000Y-62000000D02*
X-9725000Y-62000000D01*
X21800000Y9500000D02*
X21800000Y-12000000D01*
X7691666Y-6200000D02*
G75*
G03X7691666Y-6200000I-1666666J0D01*
G01*
X3525000Y-6200000D02*
X8525000Y-6200000D01*
X6025000Y-3700000D02*
X6025000Y-8700000D01*
X21775000Y-93500000D02*
X21775000Y-72000000D01*
X21775000Y-93500000D02*
X-9725000Y-93500000D01*
X-9725000Y-93500000D02*
X-9725000Y-62000000D01*
X61925000Y-93500000D02*
X61925000Y-72000000D01*
X61900000Y9525000D02*
X61900000Y-12000000D01*
X-9700000Y9500000D02*
X21800000Y9500000D01*
X-9700000Y-22000000D02*
X-9700000Y9500000D01*
X-9700000Y-22000000D02*
X11800000Y-22000000D01*
X21800000Y-12000000D02*
X61900000Y-12000000D01*
X71900000Y-62000000D02*
X71900000Y-21975000D01*
X21775000Y-72000000D02*
X61925000Y-72000000D01*
X11800000Y-22000000D02*
X11800000Y-62000000D01*
X-22233334Y11700000D02*
G75*
G03X-22233334Y11700000I-1666666J0D01*
G01*
X-26400000Y11700000D02*
X-21400000Y11700000D01*
X-23900000Y14200000D02*
X-23900000Y9200000D01*
M02*
