M48
; DRILL file {KiCad 5.1.5+dfsg1-2build2} date Mi 06 Jan 2021 19:09:02 CET
; FORMAT={-:-/ absolute / inch / decimal}
; #@! TF.CreationDate,2021-01-06T19:09:02+01:00
; #@! TF.GenerationSoftware,Kicad,Pcbnew,5.1.5+dfsg1-2build2
; #@! TF.FileFunction,NonPlated,1,2,NPTH
FMAT,2
INCH
T1C0.0472
T2C0.0500
T3C0.1378
%
G90
G05
T1
X1.7766Y-4.8061
X1.1378Y-0.6102
X2.1815Y-5.3516
X2.1913Y-5.9843
X1.4835Y-0.7331
X1.363Y-5.3457
X0.7096Y-6.4094
X2.5846Y-5.1555
X2.5876Y-6.4065
X2.6919Y-2.5837
X2.4921Y-0.7215
X1.5551Y-6.7608
X1.3819Y-5.9909
X0.814Y-2.5896
X2.3421Y-0.7508
X0.7185Y-5.1368
T2
X1.5689Y-0.723
X2.0413Y-0.723
X1.8435Y-4.7142
X2.3159Y-4.7142
X2.7386Y-1.9331
X2.7386Y-2.4055
X1.8376Y-6.6323
X2.31Y-6.6323
X2.7386Y-0.8386
X2.7386Y-1.311
X1.0187Y-6.6323
X1.4911Y-6.6323
X1.0344Y-4.7083
X1.5069Y-4.7083
X2.7386Y-1.3858
X2.7386Y-1.8583
T3
X1.5222Y-2.4
T0
M30
