M48
; DRILL file {KiCad 5.1.5+dfsg1-2build2} date Mi 06 Jan 2021 19:09:02 CET
; FORMAT={-:-/ absolute / inch / decimal}
; #@! TF.CreationDate,2021-01-06T19:09:02+01:00
; #@! TF.GenerationSoftware,Kicad,Pcbnew,5.1.5+dfsg1-2build2
; #@! TF.FileFunction,Plated,1,2,PTH
FMAT,2
INCH
T1C0.0157
T2C0.0236
T3C0.0276
T4C0.0300
T5C0.0315
T6C0.0394
T7C0.0402
T8C0.0433
T9C0.0591
T10C0.1693
%
G90
G05
T1
X1.7283Y-1.6161
X2.1976Y-4.9996
T2
X0.1093Y-0.2441
X0.1464Y-0.1543
X0.1464Y-0.3339
X0.2362Y-0.1171
X0.2362Y-0.3711
X0.326Y-0.1543
X0.326Y-0.3339
X0.3632Y-0.2441
X0.1093Y-3.0669
X0.1464Y-2.9771
X0.1464Y-3.1567
X0.2362Y-2.94
X0.2362Y-3.1939
X0.326Y-2.9771
X0.326Y-3.1567
X0.3632Y-3.0669
X0.1053Y-7.1457
X0.1425Y-7.0559
X0.1425Y-7.2354
X0.2323Y-7.0187
X0.2323Y-7.2726
X0.3221Y-7.0559
X0.3221Y-7.2354
X0.3593Y-7.1457
X0.1053Y-4.3228
X0.1425Y-4.2331
X0.1425Y-4.4126
X0.2323Y-4.1959
X0.2323Y-4.4498
X0.3221Y-4.2331
X0.3221Y-4.4126
X0.3593Y-4.3228
X2.9321Y-3.0669
X2.9693Y-2.9771
X2.9693Y-3.1567
X3.0591Y-2.94
X3.0591Y-3.1939
X3.1488Y-2.9771
X3.1488Y-3.1567
X3.186Y-3.0669
X2.9321Y-0.2441
X2.9693Y-0.1543
X2.9693Y-0.3339
X3.0591Y-0.1171
X3.0591Y-0.3711
X3.1488Y-0.1543
X3.1488Y-0.3339
X3.186Y-0.2441
X2.9281Y-7.1457
X2.9653Y-7.0559
X2.9653Y-7.2354
X3.0551Y-7.0187
X3.0551Y-7.2726
X3.1449Y-7.0559
X3.1449Y-7.2354
X3.1821Y-7.1457
X2.9281Y-4.3228
X2.9653Y-4.2331
X2.9653Y-4.4126
X3.0551Y-4.1959
X3.0551Y-4.4498
X3.1449Y-4.2331
X3.1449Y-4.4126
X3.1821Y-4.3228
T3
X0.9549Y-4.8917
X0.9549Y-4.9917
X0.9549Y-5.8917
X0.9549Y-5.9917
X1.5549Y-4.8917
X1.5549Y-4.9917
X1.5549Y-5.1917
X1.5549Y-5.8917
X1.5549Y-5.9917
X0.9569Y-5.3567
X0.9569Y-5.4567
X0.9569Y-6.3567
X0.9569Y-6.4567
X1.5569Y-5.3567
X1.5569Y-5.4567
X1.5569Y-6.1567
X1.5569Y-6.3567
X1.5569Y-6.4567
X1.123Y-1.7589
X1.123Y-2.0589
X1.7738Y-5.3567
X1.7738Y-5.4567
X1.7738Y-6.3567
X1.7738Y-6.4567
X2.3738Y-5.3567
X2.3738Y-5.4567
X2.3738Y-6.1567
X2.3738Y-6.3567
X2.3738Y-6.4567
X1.7738Y-4.8917
X1.7738Y-4.9917
X1.7738Y-5.8917
X1.7738Y-5.9917
X2.3738Y-4.8917
X2.3738Y-4.9917
X2.3738Y-5.1917
X2.3738Y-5.8917
X2.3738Y-5.9917
X1.8841Y-0.9217
X1.8841Y-1.0217
X1.8841Y-1.9217
X1.8841Y-2.0217
X2.4841Y-0.9217
X2.4841Y-1.0217
X2.4841Y-1.7217
X2.4841Y-1.9217
X2.4841Y-2.0217
X1.0248Y-0.9217
X1.0248Y-1.0217
X1.0248Y-1.9217
X1.0248Y-2.0217
X1.6248Y-0.9217
X1.6248Y-1.0217
X1.6248Y-1.7217
X1.6248Y-1.9217
X1.6248Y-2.0217
T4
X1.3191Y-0.8828
X1.3191Y-0.9828
X1.3191Y-1.0828
X1.3191Y-1.1828
X1.3191Y-1.2828
X1.3191Y-1.3828
X1.3191Y-1.4828
X1.3191Y-1.5828
X1.3191Y-1.6828
X1.3191Y-1.7828
X1.3191Y-1.8828
X1.3191Y-1.9828
X1.3191Y-2.0828
X1.3191Y-2.1828
X1.3191Y-2.2828
X2.2991Y-0.8828
X2.2991Y-0.9828
X2.2991Y-0.9828
X2.2991Y-1.0828
X2.2991Y-1.1828
X2.2991Y-1.2828
X2.2991Y-1.3828
X2.2991Y-1.4828
X2.2991Y-1.5828
X2.2991Y-1.6828
X2.2991Y-1.7828
X2.2991Y-1.8828
X2.2991Y-1.9828
X2.2991Y-2.0828
X2.2991Y-2.1828
X2.2991Y-2.2828
T5
X0.69Y-1.561
X0.69Y-1.6594
X0.6919Y-1.3671
X0.6919Y-1.4656
X0.6909Y-0.9144
X0.6909Y-1.0128
X0.6969Y-1.1319
X0.6969Y-1.2303
T6
X0.5758Y-1.1693
X0.5758Y-1.2693
X0.5758Y-1.3693
X0.5758Y-1.4693
X0.5758Y-1.5693
X1.322Y-0.6543
X1.4205Y-0.6543
X1.2016Y-5.2669
X1.3Y-5.2669
X1.4911Y-0.9961
X1.4911Y-1.0961
X1.4911Y-1.1961
X1.4911Y-1.2961
X1.4911Y-1.3961
X0.6309Y-6.248
X0.6309Y-6.3465
X0.877Y-1.0067
X0.877Y-1.1067
X0.877Y-1.2067
X2.6634Y-4.9941
X2.6634Y-5.0925
X2.6663Y-6.2451
X2.6663Y-6.3435
X2.5305Y-2.6624
X2.6289Y-2.6624
X0.872Y-1.3671
X0.872Y-1.4671
X0.872Y-1.5671
X2.5551Y-0.6427
X2.6535Y-0.6427
X1.6181Y-6.6821
X1.7165Y-6.6821
X1.2205Y-6.0697
X1.3189Y-6.0697
X0.6526Y-2.6683
X0.751Y-2.6683
X2.1807Y-0.672
X2.2791Y-0.672
X1.6152Y-4.7274
X1.7136Y-4.7274
X0.6614Y-1.8002
X0.6614Y-1.9002
X0.6614Y-2.0002
X0.6614Y-2.1002
X0.6614Y-2.2002
X1.7329Y-2.1191
X1.8329Y-2.1191
X1.9329Y-2.1191
X2.0329Y-2.1191
X2.1329Y-2.1191
X0.9764Y-0.689
X1.0748Y-0.689
X0.6398Y-4.9754
X0.6398Y-5.0738
X2.126Y-1.5
X2.126Y-1.6
X2.126Y-1.7
X2.126Y-1.8
X2.126Y-1.9
X2.0201Y-5.2728
X2.1185Y-5.2728
X2.0299Y-6.063
X2.1283Y-6.063
T7
X2.6614Y-2.0512
X2.6614Y-2.1693
X2.6614Y-2.2874
X1.9557Y-6.5551
X2.0738Y-6.5551
X2.1919Y-6.5551
X2.6614Y-0.9567
X2.6614Y-1.0748
X2.6614Y-1.1929
X1.1368Y-6.5551
X1.2549Y-6.5551
X1.373Y-6.5551
X1.1526Y-4.7854
X1.2707Y-4.7854
X1.3888Y-4.7854
X2.6614Y-1.5039
X2.6614Y-1.622
X2.6614Y-1.7402
X1.687Y-0.8002
X1.8051Y-0.8002
X1.9232Y-0.8002
X1.9616Y-4.7913
X2.0797Y-4.7913
X2.1978Y-4.7913
T8
X0.7904Y-1.7411
X0.7904Y-2.0411
X2.1781Y-2.3
X2.1781Y-2.4
X2.1781Y-2.5
T9
X0.9449Y-2.1181
X0.9449Y-2.4823
T10
X0.2362Y-0.2441
X0.2362Y-3.0669
X0.2323Y-7.1457
X3.0591Y-3.0669
X3.0591Y-0.2441
X3.0551Y-7.1457
X3.0551Y-4.3228
X0.2323Y-4.3228
T5
G00X0.7559Y-2.3504
M15
G01X0.7559Y-2.3976
M16
G05
G00X0.9882Y-2.3543
M15
G01X0.9016Y-2.3543
M16
G05
G00X1.1339Y-2.3504
M15
G01X1.1339Y-2.3976
M16
G05
T0
M30
