M48
; DRILL file {KiCad 5.1.6-c6e7f7d~87~ubuntu19.10.1} date Wed Nov 11 17:20:55 2020
; FORMAT={-:-/ absolute / inch / decimal}
; #@! TF.CreationDate,2020-11-11T17:20:55+01:00
; #@! TF.GenerationSoftware,Kicad,Pcbnew,5.1.6-c6e7f7d~87~ubuntu19.10.1
; #@! TF.FileFunction,Plated,1,2,PTH
FMAT,2
INCH
T1C0.0079
T2C0.0157
T3C0.0236
T4C0.0276
T5C0.0295
T6C0.0300
T7C0.0315
T8C0.0354
T9C0.0394
T10C0.0402
T11C0.0433
T12C0.0472
T13C0.0591
T14C0.0630
T15C0.0728
T16C0.0787
T17C0.1378
T18C0.1417
T19C0.1496
T20C0.1693
%
G90
G05
T1
X2.6181Y-2.7559
X2.6181Y-2.8346
X2.6181Y-2.9134
X2.6181Y-2.9921
X2.6181Y-3.0709
X2.6181Y-3.1496
X2.6181Y-3.2283
X2.6181Y-3.3071
X2.6181Y-3.3858
X2.6181Y-3.4646
X2.6181Y-3.5433
X2.6969Y-2.7559
X2.6969Y-2.8346
X2.6969Y-2.9134
X2.6969Y-2.9921
X2.6969Y-3.0709
X2.6969Y-3.1496
X2.6969Y-3.2283
X2.6969Y-3.3071
X2.6969Y-3.3858
X2.6969Y-3.4646
X2.6969Y-3.5433
X2.7756Y-2.7559
X2.7756Y-2.8346
X2.7756Y-2.9134
X2.7756Y-2.9921
X2.7756Y-3.0709
X2.7756Y-3.1496
X2.7756Y-3.2283
X2.7756Y-3.3071
X2.7756Y-3.3858
X2.7756Y-3.4646
X2.7756Y-3.5433
X2.8543Y-2.7559
X2.8543Y-2.8346
X2.8543Y-2.9134
X2.8543Y-2.9921
X2.8543Y-3.0709
X2.8543Y-3.1496
X2.8543Y-3.2283
X2.8543Y-3.3071
X2.8543Y-3.3858
X2.8543Y-3.4646
X2.8543Y-3.5433
X2.9331Y-2.7559
X2.9331Y-2.8346
X2.9331Y-2.9134
X2.9331Y-2.9921
X2.9331Y-3.0709
X2.9331Y-3.1496
X2.9331Y-3.2283
X2.9331Y-3.3071
X2.9331Y-3.3858
X2.9331Y-3.4646
X2.9331Y-3.5433
X3.0118Y-2.7559
X3.0118Y-2.8346
X3.0118Y-2.9134
X3.0118Y-2.9921
X3.0118Y-3.0709
X3.0118Y-3.1496
X3.0118Y-3.2283
X3.0118Y-3.3071
X3.0118Y-3.3858
X3.0118Y-3.4646
X3.0118Y-3.5433
X3.0906Y-2.7559
X3.0906Y-2.8346
X3.0906Y-2.9134
X3.0906Y-2.9921
X3.0906Y-3.0709
X3.0906Y-3.1496
X3.0906Y-3.2283
X3.0906Y-3.3071
X3.0906Y-3.3858
X3.0906Y-3.4646
X3.0906Y-3.5433
X3.1693Y-2.7559
X3.1693Y-2.8346
X3.1693Y-2.9134
X3.1693Y-2.9921
X3.1693Y-3.0709
X3.1693Y-3.1496
X3.1693Y-3.2283
X3.1693Y-3.3071
X3.1693Y-3.3858
X3.1693Y-3.4646
X3.1693Y-3.5433
X3.248Y-2.7559
X3.248Y-2.8346
X3.248Y-2.9134
X3.248Y-2.9921
X3.248Y-3.0709
X3.248Y-3.1496
X3.248Y-3.2283
X3.248Y-3.3071
X3.248Y-3.3858
X3.248Y-3.4646
X3.248Y-3.5433
X3.3268Y-2.7559
X3.3268Y-2.8346
X3.3268Y-2.9134
X3.3268Y-2.9921
X3.3268Y-3.0709
X3.3268Y-3.1496
X3.3268Y-3.2283
X3.3268Y-3.3071
X3.3268Y-3.3858
X3.3268Y-3.4646
X3.3268Y-3.5433
X3.4055Y-2.7559
X3.4055Y-2.8346
X3.4055Y-2.9134
X3.4055Y-2.9921
X3.4055Y-3.0709
X3.4055Y-3.1496
X3.4055Y-3.2283
X3.4055Y-3.3071
X3.4055Y-3.3858
X3.4055Y-3.4646
X3.4055Y-3.5433
X2.3819Y-6.4567
X2.3819Y-6.5354
X2.3819Y-6.6142
X2.3819Y-6.6929
X2.3819Y-6.7717
X2.3819Y-6.8504
X2.3819Y-6.9291
X2.3819Y-7.0079
X2.3819Y-7.0866
X2.3819Y-7.1654
X2.3819Y-7.2441
X2.3819Y-7.3228
X2.3819Y-7.4016
X2.3819Y-7.4803
X2.3819Y-7.5591
X2.3819Y-7.6378
X2.3819Y-7.7165
X2.4606Y-6.4567
X2.4606Y-6.5354
X2.4606Y-6.6142
X2.4606Y-6.6929
X2.4606Y-6.7717
X2.4606Y-6.8504
X2.4606Y-6.9291
X2.4606Y-7.0079
X2.4606Y-7.0866
X2.4606Y-7.1654
X2.4606Y-7.2441
X2.4606Y-7.3228
X2.4606Y-7.4016
X2.4606Y-7.4803
X2.4606Y-7.5591
X2.4606Y-7.6378
X2.4606Y-7.7165
X2.5394Y-6.4567
X2.5394Y-6.5354
X2.5394Y-6.6142
X2.5394Y-6.6929
X2.5394Y-6.7717
X2.5394Y-6.8504
X2.5394Y-6.9291
X2.5394Y-7.0079
X2.5394Y-7.0866
X2.5394Y-7.1654
X2.5394Y-7.2441
X2.5394Y-7.3228
X2.5394Y-7.4016
X2.5394Y-7.4803
X2.5394Y-7.5591
X2.5394Y-7.6378
X2.5394Y-7.7165
X2.6181Y-6.4567
X2.6181Y-6.5354
X2.6181Y-6.6142
X2.6181Y-6.6929
X2.6181Y-6.7717
X2.6181Y-6.8504
X2.6181Y-6.9291
X2.6181Y-7.0079
X2.6181Y-7.0866
X2.6181Y-7.1654
X2.6181Y-7.2441
X2.6181Y-7.3228
X2.6181Y-7.4016
X2.6181Y-7.4803
X2.6181Y-7.5591
X2.6181Y-7.6378
X2.6181Y-7.7165
X2.6969Y-6.4567
X2.6969Y-6.5354
X2.6969Y-6.6142
X2.6969Y-6.6929
X2.6969Y-6.7717
X2.6969Y-6.8504
X2.6969Y-6.9291
X2.6969Y-7.0079
X2.6969Y-7.0866
X2.6969Y-7.1654
X2.6969Y-7.2441
X2.6969Y-7.3228
X2.6969Y-7.4016
X2.6969Y-7.4803
X2.6969Y-7.5591
X2.6969Y-7.6378
X2.6969Y-7.7165
X2.7756Y-6.4567
X2.7756Y-6.5354
X2.7756Y-6.6142
X2.7756Y-6.6929
X2.7756Y-6.7717
X2.7756Y-6.8504
X2.7756Y-6.9291
X2.7756Y-7.0079
X2.7756Y-7.0866
X2.7756Y-7.1654
X2.7756Y-7.2441
X2.7756Y-7.3228
X2.7756Y-7.4016
X2.7756Y-7.4803
X2.7756Y-7.5591
X2.7756Y-7.6378
X2.7756Y-7.7165
X2.8543Y-6.4567
X2.8543Y-6.5354
X2.8543Y-6.6142
X2.8543Y-6.6929
X2.8543Y-6.7717
X2.8543Y-6.8504
X2.8543Y-6.9291
X2.8543Y-7.0079
X2.8543Y-7.0866
X2.8543Y-7.1654
X2.8543Y-7.2441
X2.8543Y-7.3228
X2.8543Y-7.4016
X2.8543Y-7.4803
X2.8543Y-7.5591
X2.8543Y-7.6378
X2.8543Y-7.7165
X2.9331Y-6.4567
X2.9331Y-6.5354
X2.9331Y-6.6142
X2.9331Y-6.6929
X2.9331Y-6.7717
X2.9331Y-6.8504
X2.9331Y-6.9291
X2.9331Y-7.0079
X2.9331Y-7.0866
X2.9331Y-7.1654
X2.9331Y-7.2441
X2.9331Y-7.3228
X2.9331Y-7.4016
X2.9331Y-7.4803
X2.9331Y-7.5591
X2.9331Y-7.6378
X2.9331Y-7.7165
X3.0118Y-6.4567
X3.0118Y-6.5354
X3.0118Y-6.6142
X3.0118Y-6.6929
X3.0118Y-6.7717
X3.0118Y-6.8504
X3.0118Y-6.9291
X3.0118Y-7.0079
X3.0118Y-7.0866
X3.0118Y-7.1654
X3.0118Y-7.2441
X3.0118Y-7.3228
X3.0118Y-7.4016
X3.0118Y-7.4803
X3.0118Y-7.5591
X3.0118Y-7.6378
X3.0118Y-7.7165
X3.0906Y-6.4567
X3.0906Y-6.5354
X3.0906Y-6.6142
X3.0906Y-6.6929
X3.0906Y-6.7717
X3.0906Y-6.8504
X3.0906Y-6.9291
X3.0906Y-7.0079
X3.0906Y-7.0866
X3.0906Y-7.1654
X3.0906Y-7.2441
X3.0906Y-7.3228
X3.0906Y-7.4016
X3.0906Y-7.4803
X3.0906Y-7.5591
X3.0906Y-7.6378
X3.0906Y-7.7165
X3.1693Y-6.4567
X3.1693Y-6.5354
X3.1693Y-6.6142
X3.1693Y-6.6929
X3.1693Y-6.7717
X3.1693Y-6.8504
X3.1693Y-6.9291
X3.1693Y-7.0079
X3.1693Y-7.0866
X3.1693Y-7.1654
X3.1693Y-7.2441
X3.1693Y-7.3228
X3.1693Y-7.4016
X3.1693Y-7.4803
X3.1693Y-7.5591
X3.1693Y-7.6378
X3.1693Y-7.7165
X3.248Y-6.4567
X3.248Y-6.5354
X3.248Y-6.6142
X3.248Y-6.6929
X3.248Y-6.7717
X3.248Y-6.8504
X3.248Y-6.9291
X3.248Y-7.0079
X3.248Y-7.0866
X3.248Y-7.1654
X3.248Y-7.2441
X3.248Y-7.3228
X3.248Y-7.4016
X3.248Y-7.4803
X3.248Y-7.5591
X3.248Y-7.6378
X3.248Y-7.7165
X3.3268Y-6.4567
X3.3268Y-6.5354
X3.3268Y-6.6142
X3.3268Y-6.6929
X3.3268Y-6.7717
X3.3268Y-6.8504
X3.3268Y-6.9291
X3.3268Y-7.0079
X3.3268Y-7.0866
X3.3268Y-7.1654
X3.3268Y-7.2441
X3.3268Y-7.3228
X3.3268Y-7.4016
X3.3268Y-7.4803
X3.3268Y-7.5591
X3.3268Y-7.6378
X3.3268Y-7.7165
X3.4055Y-6.4567
X3.4055Y-6.5354
X3.4055Y-6.6142
X3.4055Y-6.6929
X3.4055Y-6.7717
X3.4055Y-6.8504
X3.4055Y-6.9291
X3.4055Y-7.0079
X3.4055Y-7.0866
X3.4055Y-7.1654
X3.4055Y-7.2441
X3.4055Y-7.3228
X3.4055Y-7.4016
X3.4055Y-7.4803
X3.4055Y-7.5591
X3.4055Y-7.6378
X3.4055Y-7.7165
X3.4843Y-6.4567
X3.4843Y-6.5354
X3.4843Y-6.6142
X3.4843Y-6.6929
X3.4843Y-6.7717
X3.4843Y-6.8504
X3.4843Y-6.9291
X3.4843Y-7.0079
X3.4843Y-7.0866
X3.4843Y-7.1654
X3.4843Y-7.2441
X3.4843Y-7.3228
X3.4843Y-7.4016
X3.4843Y-7.4803
X3.4843Y-7.5591
X3.4843Y-7.6378
X3.4843Y-7.7165
X3.563Y-6.4567
X3.563Y-6.5354
X3.563Y-6.6142
X3.563Y-6.6929
X3.563Y-6.7717
X3.563Y-6.8504
X3.563Y-6.9291
X3.563Y-7.0079
X3.563Y-7.0866
X3.563Y-7.1654
X3.563Y-7.2441
X3.563Y-7.3228
X3.563Y-7.4016
X3.563Y-7.4803
X3.563Y-7.5591
X3.563Y-7.6378
X3.563Y-7.7165
X3.6417Y-6.4567
X3.6417Y-6.5354
X3.6417Y-6.6142
X3.6417Y-6.6929
X3.6417Y-6.7717
X3.6417Y-6.8504
X3.6417Y-6.9291
X3.6417Y-7.0079
X3.6417Y-7.0866
X3.6417Y-7.1654
X3.6417Y-7.2441
X3.6417Y-7.3228
X3.6417Y-7.4016
X3.6417Y-7.4803
X3.6417Y-7.5591
X3.6417Y-7.6378
X3.6417Y-7.7165
T2
X5.7031Y-3.5063
X5.7898Y-3.6506
X5.95Y-3.8398
X6.0693Y-3.8827
X8.1531Y-3.8516
T3
X12.4813Y-1.4272
X12.5185Y-1.3374
X12.5185Y-1.5169
X12.6083Y-1.3002
X12.6083Y-1.5541
X12.698Y-1.3374
X12.698Y-1.5169
X12.7352Y-1.4272
X5.0994Y-5.3642
X5.1366Y-5.2744
X5.1366Y-5.454
X5.2264Y-5.2372
X5.2264Y-5.4911
X5.3162Y-5.2744
X5.3162Y-5.454
X5.3533Y-5.3642
X12.4813Y-5.3642
X12.5185Y-5.2744
X12.5185Y-5.454
X12.6083Y-5.2372
X12.6083Y-5.4911
X12.698Y-5.2744
X12.698Y-5.454
X12.7352Y-5.3642
X5.0994Y-8.8091
X5.1366Y-8.7193
X5.1366Y-8.8988
X5.2264Y-8.6821
X5.2264Y-8.936
X5.3162Y-8.7193
X5.3162Y-8.8988
X5.3533Y-8.8091
X4.2825Y-5.689
X4.3197Y-5.5992
X4.3197Y-5.7788
X4.4094Y-5.562
X4.4094Y-5.8159
X4.4992Y-5.5992
X4.4992Y-5.7788
X4.5364Y-5.689
X8.5443Y-4.872
X8.5815Y-4.7823
X8.5815Y-4.9618
X8.6713Y-4.7451
X8.6713Y-4.999
X8.761Y-4.7823
X8.761Y-4.9618
X8.7982Y-4.872
X1.4872Y-8.4843
X1.5244Y-8.3945
X1.5244Y-8.574
X1.6142Y-8.3573
X1.6142Y-8.6112
X1.704Y-8.3945
X1.704Y-8.574
X1.7411Y-8.4843
X8.5443Y-5.3642
X8.5815Y-5.2744
X8.5815Y-5.454
X8.6713Y-5.2372
X8.6713Y-5.4911
X8.761Y-5.2744
X8.761Y-5.454
X8.7982Y-5.3642
X9.0364Y-5.3642
X9.0736Y-5.2744
X9.0736Y-5.454
X9.1634Y-5.2372
X9.1634Y-5.4911
X9.2532Y-5.2744
X9.2532Y-5.454
X9.2904Y-5.3642
X12.4813Y-4.872
X12.5185Y-4.7823
X12.5185Y-4.9618
X12.6083Y-4.7451
X12.6083Y-4.999
X12.698Y-4.7823
X12.698Y-4.9618
X12.7352Y-4.872
X12.4813Y-8.8091
X12.5185Y-8.7193
X12.5185Y-8.8988
X12.6083Y-8.6821
X12.6083Y-8.936
X12.698Y-8.7193
X12.698Y-8.8988
X12.7352Y-8.8091
X9.0364Y-8.8091
X9.0736Y-8.7193
X9.0736Y-8.8988
X9.1634Y-8.6821
X9.1634Y-8.936
X9.2532Y-8.7193
X9.2532Y-8.8988
X9.2904Y-8.8091
X5.4242Y-4.5472
X5.4614Y-4.4575
X5.4614Y-4.637
X5.5512Y-4.4203
X5.5512Y-4.6742
X5.641Y-4.4575
X5.641Y-4.637
X5.6781Y-4.5472
X8.5443Y-8.8091
X8.5815Y-8.7193
X8.5815Y-8.8988
X8.6713Y-8.6821
X8.6713Y-8.936
X8.761Y-8.7193
X8.761Y-8.8988
X8.7982Y-8.8091
X5.0994Y-4.872
X5.1366Y-4.7823
X5.1366Y-4.9618
X5.2264Y-4.7451
X5.2264Y-4.999
X5.3162Y-4.7823
X5.3162Y-4.9618
X5.3533Y-4.872
X8.2195Y-1.752
X8.2567Y-1.6622
X8.2567Y-1.8417
X8.3465Y-1.625
X8.3465Y-1.8789
X8.4362Y-1.6622
X8.4362Y-1.8417
X8.4734Y-1.752
X9.0364Y-4.872
X9.0736Y-4.7823
X9.0736Y-4.9618
X9.1634Y-4.7451
X9.1634Y-4.999
X9.2532Y-4.7823
X9.2532Y-4.9618
X9.2904Y-4.872
X1.4872Y-5.689
X1.5244Y-5.5992
X1.5244Y-5.7788
X1.6142Y-5.562
X1.6142Y-5.8159
X1.704Y-5.5992
X1.704Y-5.7788
X1.7411Y-5.689
X1.4872Y-1.752
X1.5244Y-1.6622
X1.5244Y-1.8417
X1.6142Y-1.625
X1.6142Y-1.8789
X1.704Y-1.6622
X1.704Y-1.8417
X1.7411Y-1.752
X1.4872Y-4.5472
X1.5244Y-4.4575
X1.5244Y-4.637
X1.6142Y-4.4203
X1.6142Y-4.6742
X1.704Y-4.4575
X1.704Y-4.637
X1.7411Y-4.5472
X4.2825Y-8.4843
X4.3197Y-8.3945
X4.3197Y-8.574
X4.4094Y-8.3573
X4.4094Y-8.6112
X4.4992Y-8.3945
X4.4992Y-8.574
X4.5364Y-8.4843
X8.5443Y-1.4272
X8.5815Y-1.3374
X8.5815Y-1.5169
X8.6713Y-1.3002
X8.6713Y-1.5541
X8.761Y-1.3374
X8.761Y-1.5169
X8.7982Y-1.4272
X5.4242Y-1.752
X5.4614Y-1.6622
X5.4614Y-1.8417
X5.5512Y-1.625
X5.5512Y-1.8789
X5.641Y-1.6622
X5.641Y-1.8417
X5.6781Y-1.752
X5.0994Y-1.4272
X5.1366Y-1.3374
X5.1366Y-1.5169
X5.2264Y-1.3002
X5.2264Y-1.5541
X5.3162Y-1.3374
X5.3162Y-1.5169
X5.3533Y-1.4272
X9.0364Y-1.4272
X9.0736Y-1.3374
X9.0736Y-1.5169
X9.1634Y-1.3002
X9.1634Y-1.5541
X9.2532Y-1.3374
X9.2532Y-1.5169
X9.2904Y-1.4272
X8.2195Y-4.5472
X8.2567Y-4.4575
X8.2567Y-4.637
X8.3465Y-4.4203
X8.3465Y-4.6742
X8.4362Y-4.4575
X8.4362Y-4.637
X8.4734Y-4.5472
X4.2825Y-1.752
X4.3197Y-1.6622
X4.3197Y-1.8417
X4.4094Y-1.625
X4.4094Y-1.8789
X4.4992Y-1.6622
X4.4992Y-1.8417
X4.5364Y-1.752
X4.2825Y-4.5472
X4.3197Y-4.4575
X4.3197Y-4.637
X4.4094Y-4.4203
X4.4094Y-4.6742
X4.4992Y-4.4575
X4.4992Y-4.637
X4.5364Y-4.5472
T4
X8.1579Y-1.9394
X8.1579Y-2.2394
X7.6575Y-4.1732
X7.9575Y-4.1732
X7.6528Y-3.8583
X7.9528Y-3.8583
X7.6331Y-4.5669
X7.9331Y-4.5669
X5.6449Y-2.9331
X5.9449Y-2.9331
X5.7874Y-3.0906
X5.7874Y-3.3906
X5.6299Y-4.2717
X5.9299Y-4.2717
X5.9055Y-3.622
X5.9055Y-3.922
X5.6449Y-2.7756
X5.9449Y-2.7756
X7.6575Y-4.0551
X7.9575Y-4.0551
X5.9252Y-3.2039
X5.9252Y-3.5039
X5.5906Y-4.0748
X5.8906Y-4.0748
X8.0465Y-4.0551
X8.3465Y-4.0551
X5.7874Y-3.5189
X5.7874Y-3.8189
T5
X7.1063Y-8.6614
X7.185Y-8.6614
X8.0496Y-4.3701
X8.0996Y-4.4201
X8.1496Y-4.3701
X11.3169Y-8.8157
X11.3957Y-8.8157
X11.476Y-4.8768
X11.5547Y-4.8768
T6
X5.3831Y-2.7756
X5.4831Y-2.7756
X6.3407Y-3.1876
X6.3407Y-3.2876
X6.3407Y-3.3876
X6.3407Y-3.4876
X6.3407Y-3.5876
X6.3407Y-3.6876
X6.3407Y-3.7876
X6.3407Y-3.8876
X6.3407Y-3.9876
X6.3407Y-4.0876
X6.3407Y-4.1876
X6.3407Y-4.2876
X6.3407Y-4.3876
X6.3407Y-4.4876
X6.3407Y-4.4876
X6.3407Y-4.5876
X7.3207Y-3.1876
X7.3207Y-3.2876
X7.3207Y-3.3876
X7.3207Y-3.4876
X7.3207Y-3.5876
X7.3207Y-3.6876
X7.3207Y-3.7876
X7.3207Y-3.8876
X7.3207Y-3.9876
X7.3207Y-4.0876
X7.3207Y-4.1876
X7.3207Y-4.2876
X7.3207Y-4.3876
X7.3207Y-4.4876
X7.3207Y-4.5876
X5.3831Y-2.9331
X5.4831Y-2.9331
T7
X7.2441Y-2.4803
X7.3425Y-2.4803
X6.8898Y-2.1378
X6.9882Y-2.1378
X6.4272Y-2.1457
X6.5256Y-2.1457
X6.752Y-2.5
X6.8504Y-2.5
X5.3346Y-3.1693
X5.3346Y-3.2693
X5.3346Y-3.3693
X5.3346Y-3.4693
X5.6346Y-3.1693
X5.6346Y-3.2693
X5.6346Y-3.3693
X5.6346Y-3.4693
X7.372Y-2.1358
X7.4705Y-2.1358
X6.2205Y-2.5197
X6.3189Y-2.5197
X7.7657Y-4.3906
X7.8445Y-4.3906
T8
X5.4528Y-3.8189
X5.4528Y-3.9189
X5.4606Y-4.0512
X5.4606Y-4.1512
T9
X5.7244Y-2.0669
X5.7244Y-2.1669
X5.7244Y-2.2669
X5.7244Y-2.3669
X5.7244Y-2.4669
X7.5197Y-3.189
X7.5197Y-3.289
X7.5197Y-3.389
X7.5197Y-3.489
X7.5197Y-3.589
X7.5197Y-3.689
X7.5197Y-3.789
X7.5197Y-3.889
X7.5197Y-3.989
X7.5197Y-4.089
X7.5197Y-4.189
X7.5197Y-4.289
X7.5197Y-4.389
X7.5197Y-4.489
X7.5197Y-4.589
X5.2992Y-2.0693
X5.2992Y-2.1693
X5.2992Y-2.2693
X5.2992Y-2.3693
X5.2992Y-2.4693
X7.7362Y-4.8622
X7.8362Y-4.8622
X7.9362Y-4.8622
X8.0362Y-4.8622
X6.1614Y-3.1764
X6.1614Y-3.2764
X6.1614Y-3.3764
X6.1614Y-3.4764
X6.1614Y-3.5764
X6.1614Y-3.6764
X6.1614Y-3.7764
X6.1614Y-3.8764
X6.1614Y-3.9764
X6.1614Y-4.0764
X6.1614Y-4.1764
X6.1614Y-4.2764
X6.1614Y-4.3764
X6.1614Y-4.4764
X6.1614Y-4.5764
X5.4528Y-2.0677
X5.4528Y-2.1677
X5.4528Y-2.2677
X5.4528Y-2.3677
X5.4528Y-2.4677
X7.2606Y-2.3031
X7.3606Y-2.3031
X7.4606Y-2.3031
X6.3157Y-2.3228
X6.4157Y-2.3228
X6.5157Y-2.3228
X5.5945Y-2.0669
X5.5945Y-2.1669
X5.5945Y-2.2669
X5.5945Y-2.3669
X5.5945Y-2.4669
X6.7882Y-2.3228
X6.8882Y-2.3228
X6.9882Y-2.3228
T10
X12.6949Y-6.0205
X12.6949Y-6.1386
X12.6949Y-6.2567
X12.6949Y-6.3748
X12.6949Y-6.4929
X8.7992Y-3.0709
X8.7992Y-3.189
X8.7992Y-3.3071
X8.7992Y-3.4252
X8.7992Y-2.126
X8.7992Y-2.2441
X8.7992Y-2.3622
X8.7992Y-2.4803
X8.7992Y-2.5984
X8.7992Y-3.8583
X8.7992Y-3.9764
X8.7992Y-4.0945
X12.6925Y-2.2776
X12.6925Y-2.3957
X12.6925Y-2.5138
X12.6925Y-2.6319
X7.0945Y-5.2795
X7.2126Y-5.2795
X7.3307Y-5.2795
T11
X7.761Y-1.9268
X7.861Y-1.9268
X7.961Y-1.9268
X8.3661Y-2.2
X8.3661Y-2.5
T12
X5.4035Y-3.0878
X5.9268Y-2.6693
X6.4157Y-2.4228
X6.6382Y-3.2579
X6.8189Y-3.4587
X7.1315Y-2.8063
T13
X10.1197Y-5.8079
X10.8972Y-5.8079
X11.1315Y-8.178
X11.1354Y-5.8079
X11.3717Y-5.8079
X11.6079Y-5.8079
X11.6335Y-8.178
X6.8868Y-6.6142
X6.8878Y-7.4734
X7.4872Y-7.4724
X7.4892Y-6.6142
X7.4892Y-6.7126
X10.1591Y-1.9638
X11.1157Y-1.9638
X11.4091Y-1.9638
X11.413Y-4.389
X11.6453Y-1.9638
X11.6453Y-4.3886
T14
X7.7756Y-1.3287
X7.7756Y-1.6929
T15
X7.0Y-1.785
X7.0Y-1.9354
X7.085Y-1.2854
X7.185Y-1.7854
X7.185Y-1.9354
X7.285Y-1.2854
X7.3701Y-1.7843
X7.3701Y-1.9354
T17
X2.1614Y-7.0866
X3.0118Y-6.2362
X3.0118Y-7.937
X3.8622Y-7.0866
T18
X2.3937Y-3.1496
X3.0118Y-2.5315
X3.0118Y-3.7677
X3.6299Y-3.1496
T19
X2.3819Y-2.5197
X2.3819Y-3.7795
X3.6417Y-2.5197
X3.6417Y-3.7795
X2.3819Y-6.4567
X2.3819Y-7.7165
X3.6417Y-6.4567
X3.6417Y-7.7165
T20
X8.3465Y-1.752
X9.1634Y-4.872
X1.6142Y-5.689
X1.6142Y-1.752
X1.6142Y-4.5472
X4.4094Y-8.4843
X8.6713Y-1.4272
X5.5512Y-1.752
X5.2264Y-1.4272
X9.1634Y-1.4272
X8.3465Y-4.5472
X4.4094Y-1.752
X4.4094Y-4.5472
X12.6083Y-1.4272
X5.2264Y-5.3642
X12.6083Y-5.3642
X5.2264Y-8.8091
X4.4094Y-5.689
X8.6713Y-4.872
X1.6142Y-8.4843
X8.6713Y-5.3642
X9.1634Y-5.3642
X12.6083Y-4.872
X12.6083Y-8.8091
X9.1634Y-8.8091
X5.5512Y-4.5472
X8.6713Y-8.8091
X5.2264Y-4.872
T16
G00X7.5866Y-1.4567
M15
G01X7.5866Y-1.4173
M16
G05
G00X7.7559Y-1.4567
M15
G01X7.7953Y-1.4567
M16
G05
G00X7.9646Y-1.4567
M15
G01X7.9646Y-1.4173
M16
G05
T0
M30
