%TF.GenerationSoftware,KiCad,Pcbnew,5.1.6-c6e7f7d~87~ubuntu19.10.1*%
%TF.CreationDate,2020-11-11T17:21:01+01:00*%
%TF.ProjectId,ariadne,61726961-646e-4652-9e6b-696361645f70,rev?*%
%TF.SameCoordinates,Original*%
%TF.FileFunction,Profile,NP*%
%FSLAX46Y46*%
G04 Gerber Fmt 4.6, Leading zero omitted, Abs format (unit mm)*
G04 Created by KiCad (PCBNEW 5.1.6-c6e7f7d~87~ubuntu19.10.1) date 2020-11-11 17:21:01*
%MOMM*%
%LPD*%
G01*
G04 APERTURE LIST*
%TA.AperFunction,Profile*%
%ADD10C,0.150000*%
%TD*%
%TA.AperFunction,Profile*%
%ADD11C,0.050000*%
%TD*%
G04 APERTURE END LIST*
D10*
X126490000Y-129980000D02*
X226490000Y-129980000D01*
X226490000Y-129980000D02*
X326490000Y-129980000D01*
X326490000Y-229980000D02*
X226490000Y-229980000D01*
X326490000Y-129980000D02*
X326490000Y-229980000D01*
X226490000Y-129980000D02*
X226490000Y-229980000D01*
X126490000Y-229980000D02*
X26490000Y-229980000D01*
D11*
X78166666Y-180000000D02*
G75*
G03*
X78166666Y-180000000I-1666666J0D01*
G01*
X74000000Y-180000000D02*
X79000000Y-180000000D01*
X76500000Y-177500000D02*
X76500000Y-182500000D01*
D10*
X26490000Y-129980000D02*
X126490000Y-129980000D01*
X126490000Y-129980000D02*
X126490000Y-229980000D01*
X26490000Y-129980000D02*
X26490000Y-229980000D01*
D11*
X78166666Y-80000000D02*
G75*
G03*
X78166666Y-80000000I-1666666J0D01*
G01*
X74000000Y-80000000D02*
X79000000Y-80000000D01*
X76500000Y-77500000D02*
X76500000Y-82500000D01*
D10*
X126490000Y-129980000D02*
X126490000Y-229980000D01*
X226490000Y-129980000D02*
X226490000Y-229980000D01*
X226490000Y-229980000D02*
X126490000Y-229980000D01*
X326490000Y-29980000D02*
X326490000Y-129980000D01*
X226490000Y-29980000D02*
X226490000Y-129980000D01*
X226490000Y-29980000D02*
X326490000Y-29980000D01*
X326490000Y-129980000D02*
X226490000Y-129980000D01*
X126490000Y-29980000D02*
X126490000Y-129980000D01*
X26490000Y-29980000D02*
X26490000Y-129980000D01*
X26490000Y-29980000D02*
X126490000Y-29980000D01*
X126490000Y-129980000D02*
X26490000Y-129980000D01*
X226490000Y-29980000D02*
X226490000Y-129980000D01*
X226490000Y-129980000D02*
X126490000Y-129980000D01*
X126490000Y-29980000D02*
X126490000Y-129980000D01*
X126490000Y-29980000D02*
X226490000Y-29980000D01*
M02*
